<?xml version="1.0" encoding="UTF-8"?>
<svg xmlns="http://www.w3.org/2000/svg" id="Layer_1" data-name="Layer 1" viewBox="0 0 24 24">
  <path d="m21.5,9.5c-.815,0-1.533.396-1.989,1h-2.224c-.238-.838-.67-1.593-1.245-2.217l1.177-1.889c.754-.071,1.467-.474,1.895-1.168.725-1.175.36-2.715-.816-3.44-1.175-.725-2.715-.36-3.44.816-.428.694-.467,1.512-.193,2.217l-1.179,1.891c-.474-.133-.971-.21-1.487-.21-.509,0-1,.075-1.468.205l-1.198-1.886c.274-.705.235-1.523-.193-2.217-.725-1.175-2.265-1.54-3.44-.816-1.175.725-1.54,2.265-.816,3.44.428.694,1.142,1.096,1.895,1.168l1.191,1.875c-.581.627-1.018,1.387-1.258,2.232h-2.224c-.456-.604-1.174-1-1.989-1-1.381,0-2.5,1.119-2.5,2.5s1.119,2.5,2.5,2.5c.815,0,1.532-.396,1.988-1h2.225c.238.836.668,1.588,1.24,2.212l-1.172,1.894c-.754.071-1.468.474-1.896,1.168-.725,1.175-.36,2.715.816,3.44,1.175.725,2.715.36,3.44-.816.428-.694.467-1.512.193-2.218l1.171-1.892c.476.135.976.212,1.495.212.515,0,1.012-.076,1.485-.209l1.181,1.89c-.275.706-.235,1.524.193,2.218.725,1.175,2.265,1.54,3.44.816,1.175-.725,1.54-2.265.816-3.44-.428-.694-1.142-1.097-1.896-1.168l-1.179-1.886c.576-.625,1.008-1.38,1.247-2.219h2.225c.456.604,1.173,1,1.988,1,1.381,0,2.5-1.119,2.5-2.5s-1.119-2.5-2.5-2.5Zm-12,2.5c0-1.379,1.121-2.5,2.5-2.5s2.5,1.121,2.5,2.5-1.121,2.5-2.5,2.5-2.5-1.121-2.5-2.5Z"/>
</svg>
