<?xml version="1.0" encoding="UTF-8"?>
<svg xmlns="http://www.w3.org/2000/svg" id="Layer_1" data-name="Layer 1" viewBox="0 0 24 24">
  <path d="m15.061,19.061l-.935.935.935.935c.586.586.586,1.536,0,2.121-.293.293-.677.439-1.061.439s-.768-.146-1.061-.439l-.935-.935-.935.935c-.293.293-.677.439-1.061.439s-.768-.146-1.061-.439c-.586-.585-.586-1.535,0-2.121l.935-.935-.935-.935c-.586-.586-.586-1.536,0-2.121.586-.586,1.535-.586,2.121,0l.935.935.935-.935c.586-.586,1.535-.586,2.121,0,.586.585.586,1.535,0,2.121Zm7.565.935l.935-.935c.586-.586.586-1.536,0-2.121-.586-.586-1.535-.586-2.121,0l-.935.935-.935-.935c-.586-.586-1.535-.586-2.121,0-.586.585-.586,1.535,0,2.121l.935.935-.935.935c-.586.586-.586,1.536,0,2.121.293.293.677.439,1.061.439s.768-.146,1.061-.439l.935-.935.935.935c.293.293.677.439,1.061.439s.768-.146,1.061-.439c.586-.585.586-1.535,0-2.121l-.935-.935Zm-16.065-3.056c-.586-.586-1.535-.586-2.121,0l-.935.935-.935-.935c-.586-.586-1.535-.586-2.121,0-.586.585-.586,1.535,0,2.121l.935.935-.935.935c-.586.586-.586,1.536,0,2.121.293.293.677.439,1.061.439s.768-.146,1.061-.439l.935-.935.935.935c.293.293.677.439,1.061.439s.768-.146,1.061-.439c.586-.585.586-1.535,0-2.121l-.935-.935.935-.935c.586-.586.586-1.536,0-2.121Zm10.939-4.939c0,1.657-1.343,3-3,3h-5c-1.657,0-3-1.343-3-3v-3c0-.885.39-1.672,1-2.221v-2.279c0-2.481,2.019-4.5,4.5-4.5s4.5,2.019,4.5,4.5v2.279c.61.549,1,1.336,1,2.221v3Zm-7-7.5v1.5h3v-1.5c0-.827-.673-1.5-1.5-1.5s-1.5.673-1.5,1.5Zm3,6c0-.828-.672-1.5-1.5-1.5s-1.5.672-1.5,1.5.672,1.5,1.5,1.5,1.5-.672,1.5-1.5Z"/>
</svg>
