<?xml version="1.0" encoding="UTF-8"?>
<svg xmlns="http://www.w3.org/2000/svg" id="Layer_1" data-name="Layer 1" viewBox="0 0 24 24">
  <path d="m23.149,9.148c-.371-.179-.792-.188-1.168-.049.007-.116.019-.232.019-.35,0-1.619-.675-3.081-1.755-4.127.17-.054.334-.096.513-.168,1.037-.421,1.735-1.348,2.134-2.04.264-.458.026-1.042-.482-1.185-.769-.218-1.915-.394-2.952.027-.858.349-1.6,1.133-2.138,1.847-.347-.066-.704-.104-1.069-.104-1.939,0-3.653.967-4.695,2.442l-.172-.39c-.254-.576-.383-1.516-.383-2.144.581-.207,1-.756,1-1.408,0-.828-.672-1.5-1.5-1.5h-6c-.828,0-1.5.672-1.5,1.5,0,.652.419,1.201,1,1.408,0,.628-.129,1.568-.383,2.144l-.895,2.032c-.293.662-.486,1.353-.601,2.058-.401-.184-.866-.191-1.271.006-.521.249-.851.775-.851,1.352v8c0,3.032,2.468,5.5,5.5,5.5h13c3.032,0,5.5-2.468,5.5-5.5v-8c0-.576-.33-1.103-.851-1.352Zm-17.682-.854l.896-2.033c.423-.96.637-2.214.637-3.261h1c0,1.047.214,2.301.637,3.261l.896,2.034c.266.604.413,1.241.45,1.897l-.484.387-1.563-1.25c-.512-.408-1.226-.44-1.77-.077l-1.142.761c.053-.593.199-1.17.442-1.719Zm.032,12.706c-1.379,0-2.5-1.121-2.5-2.5v-4.829c.512.409,1.288.44,1.832.077l2.088-1.392,1.643,1.314c.549.439,1.326.439,1.875,0l1.563-1.25,1,.8v5.279c0,.901.222,1.749.607,2.5H5.5Zm8.298-10.983c-.015-.045-.298-.505-.298-1.267,0-1.517,1.233-2.75,2.75-2.75s2.75,1.233,2.75,2.75c0,.3-.068.598-.171.892l-.391-.313c-.512-.408-1.226-.44-1.77-.077l-2.088,1.392-.783-.626Zm7.202,8.483c0,1.379-1.121,2.5-2.5,2.5s-2.5-1.121-2.5-2.5v-5.197l1.42-.946,1.643,1.314c.549.439,1.389.439,1.938,0v4.829Z"/>
</svg>
