<?xml version="1.0" encoding="UTF-8"?>
<svg xmlns="http://www.w3.org/2000/svg" id="Layer_1" data-name="Layer 1" viewBox="0 0 24 24">
  <path d="M.968,6.061c.281,.281,.663,.439,1.06,.439h6.46c.738,1.477,2.248,2.5,4.011,2.5,2.485,0,4.5-2.015,4.5-4.5S14.985,0,12.5,0c-1.756,0-3.26,1.016-4.001,2.482l-.682-.003s-.488,.043-.842,.397l-1.061,1.061-.837-.837c-.319-.319-.835-.319-1.154,0l-.837,.837-.822-.822c-.319-.319-.835-.319-1.154,0l-.803,.803c-.409,.409-.409,1.073,0,1.482l.661,.661ZM13.5,3c.828,0,1.5,.672,1.5,1.5s-.672,1.5-1.5,1.5-1.5-.672-1.5-1.5,.672-1.5,1.5-1.5Zm9.232,6.013c-1.519-1.437-4.112-1.317-5.487,.257l-2.438,2.679c-.646-.589-1.507-.949-2.449-.949H4.5c-2.481,0-4.5,2.019-4.5,4.5v4c0,2.481,2.019,4.5,4.5,4.5h5.414c3.029,0,5.91-1.308,7.904-3.589l5.196-5.943c1.41-1.581,1.283-4.027-.282-5.455Zm-1.966,3.469l-5.206,5.955c-1.425,1.629-3.482,2.563-5.646,2.563H4.5c-.827,0-1.5-.673-1.5-1.5v-4c0-.827,.673-1.5,1.5-1.5h7.857c.354,0,.643,.288,.643,.642,0,.317-.237,.591-.551,.636l-5.161,.737c-.82,.117-1.391,.877-1.273,1.697,.117,.82,.879,1.389,1.697,1.273l5.162-.737c1.618-.231,2.875-1.531,3.093-3.115l3.497-3.843c.312-.358,.902-.386,1.248-.059,.356,.325,.385,.881,.055,1.252Z"/>
</svg>
