<?xml version="1.0" encoding="UTF-8"?>
<svg xmlns="http://www.w3.org/2000/svg" id="Layer_1" data-name="Layer 1" viewBox="0 0 24 24">
  <path d="M6.043,9.69c-.441-.928-1.043-2.654-1.043-5.19,0-.581,.134-1.103,.371-1.571l.688,.724c1.37,1.441,2.83,2.794,4.346,4.078-.462,.356-.933,.7-1.405,1.045v.225c0,1.654,1.346,3,3,3s3-1.346,3-3v-.2c-2.693-1.937-5.203-4.118-7.491-6.525l-.802-.843c1.346-.954,3.319-1.432,5.293-1.432,3.5,0,7,1.5,7,4.5,0,2.536-.602,4.262-1.043,5.19-.344,2.984-2.882,5.31-5.957,5.31s-5.613-2.325-5.957-5.31Zm14.934,12.514c-.482-2.401-1.954-4.538-4.036-5.861-.969-.615-2.248-.353-2.914,.595-.476,.676-1.214,1.062-2.026,1.062-.797,0-1.528-.377-2.005-1.035-.678-.933-1.953-1.172-2.9-.546-2.017,1.326-3.445,3.435-3.917,5.786-.163,.812,.363,1.603,1.175,1.766,.793,.164,1.607-.358,1.766-1.176,.253-1.26,.928-2.409,1.881-3.277v2.982c0,.828,.671,1.5,1.5,1.5s1.5-.672,1.5-1.5v-1.601c.328,.062,.662,.101,1,.101s.673-.036,1-.097v1.597c0,.828,.672,1.5,1.5,1.5s1.5-.672,1.5-1.5v-3c0-.047-.01-.092-.014-.138,1.046,.882,1.78,2.094,2.049,3.434,.164,.812,.961,1.334,1.767,1.175,.812-.163,1.338-.954,1.175-1.767Z"/>
</svg>
