<?xml version="1.0" encoding="UTF-8"?>
<svg xmlns="http://www.w3.org/2000/svg" id="Layer_1" data-name="Layer 1" viewBox="0 0 24 24">
  <path d="M4.5,7.5c0,.828-.672,1.5-1.5,1.5s-1.5-.672-1.5-1.5,.672-1.5,1.5-1.5,1.5,.672,1.5,1.5Zm3.5-1.5c-.828,0-1.5,.672-1.5,1.5s.672,1.5,1.5,1.5,1.5-.672,1.5-1.5-.672-1.5-1.5-1.5Zm6.5,1.5c0-.828-.672-1.5-1.5-1.5s-1.5,.672-1.5,1.5,.672,1.5,1.5,1.5,1.5-.672,1.5-1.5Zm8.233,4.514c-1.519-1.442-4.112-1.317-5.488,.256l-2.446,2.688c-.647-.589-1.499-.958-2.441-.958H4.5c-2.481,0-4.5,2.019-4.5,4.5v4c0,.828,.672,1.5,1.5,1.5s1.5-.672,1.5-1.5v-4c0-.827,.673-1.5,1.5-1.5h7.857c.354,0,.643,.288,.643,.643,0,.317-.236,.591-.551,.635l-5.161,.737c-.82,.117-1.391,.877-1.273,1.697,.117,.819,.879,1.382,1.697,1.273l5.161-.737c1.612-.231,2.856-1.524,3.08-3.101l3.511-3.858c.31-.356,.915-.394,1.248-.059,.356,.324,.385,.881,.065,1.239l-5.396,6.03c-.552,.617-.499,1.565,.118,2.118,.286,.256,.644,.382,.999,.382,.412,0,.822-.169,1.119-.5l5.396-6.032c1.41-1.58,1.283-4.027-.281-5.454Zm-17.069-.014h4.671c.54,0,.863-.513,.529-.86-.668-.693-1.699-1.14-2.864-1.14s-2.196,.446-2.864,1.14c-.334,.347-.011,.86,.529,.86Zm6.85-1.954c.41,.574,.551,1.274,.396,1.954h2.424c.54,0,.863-.513,.529-.86-.668-.693-1.699-1.14-2.864-1.14-.167,0-.324,.029-.485,.046ZM.665,12H3.089c-.156-.679-.014-1.38,.396-1.954-.161-.018-.318-.046-.485-.046-1.165,0-2.196,.446-2.864,1.14-.334,.347-.011,.86,.529,.86ZM6.638,3.518l-.392,1.239c-.127,.359,.323,.684,.629,.465l1.128-.745,1.147,.737c.31,.215,.756-.116,.623-.473l-.408-1.224,.986-.792c.298-.232,.107-.738-.268-.725h-1.25l-.443-1.224c-.119-.35-.662-.35-.781,0l-.443,1.224h-1.25c-.374-.013-.566,.491-.27,.724l.991,.795Zm5.326,.633l-.298,.942c-.096,.273,.245,.52,.478,.353l.858-.566,.872,.56c.235,.163,.575-.088,.474-.36l-.31-.931,.75-.602c.227-.176,.081-.561-.204-.551h-.951l-.336-.931c-.09-.266-.503-.266-.594,0l-.336,.931h-.951c-.284-.01-.43,.374-.205,.55l.753,.604ZM1.966,4.152l-.298,.942c-.096,.273,.245,.52,.478,.353l.858-.566,.872,.56c.235,.163,.575-.088,.474-.36l-.31-.931,.749-.602c.227-.176,.081-.561-.204-.551h-.951l-.336-.931c-.09-.266-.503-.266-.594,0l-.336,.931h-.951c-.284-.01-.43,.374-.205,.55l.753,.604Z"/>
</svg>
