<?xml version="1.0" encoding="UTF-8"?>
<svg xmlns="http://www.w3.org/2000/svg" id="Layer_1" data-name="Layer 1" viewBox="0 0 24 24">
  <path d="M9,3c0-1.657,1.343-3,3-3s2.894,1.343,2.894,3-1.237,3-2.894,3-3-1.343-3-3Zm14.171,11.658l-3.644-1.822-1.295-1.942c-1.208-1.812-3.23-2.895-5.408-2.895h-1.648c-2.178,0-4.2,1.082-5.408,2.895l-1.295,1.942-3.644,1.822c-.741,.371-1.041,1.271-.671,2.013,.371,.74,1.271,1.041,2.013,.671l4-2c.233-.117,.433-.292,.577-.51l1.252-1.878v4.619l-4.834,2.417c-.882,.441-1.34,1.42-1.113,2.38s1.074,1.63,2.06,1.63h2.387c.829,0,1.5-.671,1.5-1.5v-1.573l2.171-1.085c.508-.254,.829-.773,.829-1.342v-7.478c.06-.003,.116-.022,.176-.022h1.648c.06,0,.116,.019,.176,.022v7.478c0,.581,.335,1.11,.861,1.357l2.428,1.143h-4.79c-.829,0-1.5,.671-1.5,1.5s.671,1.5,1.5,1.5h8.333c1.042,0,1.927-.71,2.154-1.727,.228-1.016-.272-2.036-1.214-2.479l-4.773-2.246v-4.594l1.252,1.878c.145,.217,.344,.393,.577,.51l4,2c.215,.107,.444,.159,.67,.159,.55,0,1.08-.304,1.343-.83,.37-.741,.07-1.642-.671-2.013Z"/>
</svg>
