<?xml version="1.0" encoding="UTF-8"?>
<svg xmlns="http://www.w3.org/2000/svg" id="Layer_1" data-name="Layer 1" viewBox="0 0 24 24">
  <path d="M22.251,22.229c1.08-1.086,1.749-2.581,1.749-4.229,0-3.309-2.691-6-6-6-3.308,0-5.999,2.692-6,6,0,3.309,2.691,6,6,6,1.66,0,3.165-.679,4.251-1.771Zm-1.251-4.229c0,.267-.046,.521-.112,.767l-3.655-3.656c.246-.066,.5-.112,.767-.112,1.654,0,3,1.346,3,3Zm-6,0c0-.267,.046-.521,.112-.767l3.655,3.656c-.246,.066-.5,.112-.767,.112-1.654,0-3-1.346-3-3Zm-6-6c3.309,0,6-2.691,6-6S12.309,0,9,0,3,2.691,3,6s2.691,6,6,6Zm0-9c1.654,0,3,1.346,3,3s-1.346,3-3,3-3-1.346-3-3,1.346-3,3-3Zm.997,12.418c.054,.826-.572,1.541-1.398,1.595-2.988,.197-5.389,2.598-5.585,5.585-.053,.793-.712,1.401-1.495,1.401-.033,0-.066,0-.101-.003-.826-.054-1.452-.769-1.398-1.595,.295-4.483,3.898-8.087,8.382-8.381,.843-.06,1.541,.572,1.596,1.398Z"/>
</svg>
