<?xml version="1.0" encoding="UTF-8"?>
<svg xmlns="http://www.w3.org/2000/svg" id="Layer_1" data-name="Layer 1" viewBox="0 0 24 24">
  <path d="m21,14s1.637-1.034,2.69-2.008c.509-.471.359-1.311-.272-1.598-.737-.336-2.015-.755-3.419-1.046v-1.352c0-1.634-1.108-3.035-2.695-3.407-1.141-.269-2.988-.588-5.305-.588s-4.164.32-5.305.588c-1.587.373-2.695,1.774-2.695,3.408v1.352c-1.404.291-2.682.711-3.419,1.046-.631.287-.781,1.128-.272,1.598,1.053.974,2.69,2.008,2.69,2.008,0,0-1.864,1.373-2.899,3.263-.355.649.292,1.401.991,1.157,1.304-.456,2.964-.893,4.317-1.165.93-.187,1.592-1.008,1.592-1.957v-.658c1.103-.272,2.97-.64,5-.64s3.897.368,5,.64v.658c0,.948.662,1.77,1.592,1.957,1.353.272,3.013.71,4.317,1.165.698.244,1.346-.508.991-1.157-1.035-1.89-2.899-3.263-2.899-3.263Zm-9-3c-1.937,0-3.721.283-5,.559v-3.563c0-.234.156-.434.381-.487.987-.232,2.59-.508,4.619-.508s3.632.276,4.619.509c.225.053.381.253.381.487v3.563c-1.279-.276-3.063-.559-5-.559Z"/>
</svg>
