<?xml version="1.0" encoding="UTF-8"?>
<svg xmlns="http://www.w3.org/2000/svg" id="Layer_1" data-name="Layer 1" viewBox="0 0 24 24">
  <path d="M5.478,4.546c-.393-1.002-.547-2.102-.449-3.179C5.102,.541,5.835-.066,6.655,.006c.825,.074,1.435,.802,1.361,1.627-.056,.618,.031,1.249,.256,1.821,.301,.771-.08,1.642-.852,1.943-.751,.3-1.642-.072-1.943-.851Zm11.102,.851c.752,.3,1.642-.072,1.943-.851,.393-1.002,.547-2.102,.449-3.179-.073-.826-.81-1.43-1.627-1.361-.825,.074-1.435,.802-1.361,1.627,.056,.618-.031,1.249-.256,1.821-.301,.771,.08,1.642,.852,1.943Zm1.72,3.032c-.592,.58-.602,1.53-.021,2.121,.581,.592,1.53,.601,2.121,.021,2.459-2.402,3.753-5.71,3.588-9.142-.039-.827-.749-1.461-1.568-1.428-.828,.039-1.467,.742-1.428,1.569,.123,2.575-.846,5.055-2.691,6.858ZM13.403,3.469c-.004-.012-.013-.02-.018-.031,.377-.364,.614-.872,.614-1.438,0-1.105-.895-2-2-2s-2,.895-2,2c0,.566,.237,1.074,.614,1.438-.005,.011-.013,.02-.018,.031L3.597,21.969c-.293,.775,.098,1.641,.872,1.934,.773,.294,1.641-.096,1.935-.872l.39-1.031h6.207c.828,0,1.5-.671,1.5-1.5s-.672-1.5-1.5-1.5H7.928l.757-2h2.315c.828,0,1.5-.671,1.5-1.5s-.672-1.5-1.5-1.5h-1.18l2.18-5.761,5.597,14.792c.293,.783,1.18,1.164,1.935,.872,.774-.293,1.165-1.159,.872-1.934L13.403,3.469ZM4.651,11c1.29,.046,2.021-1.685,1.05-2.571-1.742-1.708-2.701-3.991-2.701-6.429,0-.144,.003-.287,.01-.429C3.049,.743,2.41,.041,1.582,.001,.761-.028,.053,.603,.014,1.429c-.165,3.432,1.129,6.74,3.588,9.142,.292,.286,.671,.429,1.05,.429Z"/>
</svg>
