<?xml version="1.0" encoding="UTF-8"?>
<svg xmlns="http://www.w3.org/2000/svg" id="Layer_1" data-name="Layer 1" viewBox="0 0 24 24">
  <path d="M19,0h-3c-1.641,0-3.088,.806-4,2.031-.912-1.225-2.359-2.031-4-2.031h-3C2.243,0,0,2.243,0,5v14c0,2.757,2.243,5,5,5h3c1.641,0,3.088-.806,4-2.031,.912,1.225,2.359,2.031,4,2.031h3c2.757,0,5-2.243,5-5V5c0-2.757-2.243-5-5-5ZM10,19c0,1.103-.897,2-2,2h-3c-1.103,0-2-.897-2-2V5c0-1.103,.897-2,2-2h3c1.103,0,2,.897,2,2v14Zm11,0c0,1.103-.897,2-2,2h-3c-1.103,0-2-.897-2-2V5c0-1.103,.897-2,2-2h3c1.103,0,2,.897,2,2v14Zm-13-7.5v6c0,.828-.671,1.5-1.5,1.5s-1.5-.672-1.5-1.5v-6c0-.828,.671-1.5,1.5-1.5s1.5,.672,1.5,1.5Zm11,0v6c0,.828-.672,1.5-1.5,1.5s-1.5-.672-1.5-1.5v-6c0-.828,.672-1.5,1.5-1.5s1.5,.672,1.5,1.5ZM8,6.5c0,.828-.672,1.5-1.5,1.5s-1.5-.672-1.5-1.5,.672-1.5,1.5-1.5,1.5,.672,1.5,1.5Zm11,0c0,.828-.672,1.5-1.5,1.5s-1.5-.672-1.5-1.5,.672-1.5,1.5-1.5,1.5,.672,1.5,1.5Z"/>
</svg>
