<?xml version="1.0" encoding="UTF-8"?>
<svg xmlns="http://www.w3.org/2000/svg" id="Layer_1" data-name="Layer 1" viewBox="0 0 24 24">
  <path d="m18.682,5h-1.867c-.591-2.293-2.658-4-5.133-4h-6.451C2.749,1,.563,2.758.035,5.18c-.177.809.336,1.608,1.146,1.785.809.18,1.609-.336,1.785-1.146.23-1.054,1.183-1.82,2.265-1.82h6.451c1.278,0,2.318,1.04,2.318,2.318v10.682H4.364c-.752,0-1.364-.611-1.364-1.363v-.137c0-.828-.671-1.5-1.5-1.5s-1.5.672-1.5,1.5v.137c0,1.934,1.274,3.559,3.02,4.13-.006.078-.02.154-.02.234,0,1.657,1.343,3,3,3s3-1.343,3-3h6c0,1.657,1.343,3,3,3s3-1.343,3-3c0-.08-.014-.155-.02-.233,1.746-.57,3.02-2.195,3.02-4.13v-5.364c0-2.908-2.386-5.273-5.318-5.273Zm2.318,5.273v.727h-4v-3h1.682c1.3,0,2.318.999,2.318,2.273Zm-1.363,6.727h-2.637v-3h4v1.637c0,.752-.611,1.363-1.363,1.363Zm-12.636-3.744v-1.256H1.5c-.829,0-1.5-.671-1.5-1.5s.671-1.5,1.5-1.5h5.501v-1.256c0-.776.939-1.165,1.487-.616l2.756,2.756c.34.34.34.892,0,1.232l-2.756,2.756c-.549.549-1.487.16-1.487-.616Z"/>
</svg>
