<?xml version="1.0" encoding="UTF-8"?>
<svg xmlns="http://www.w3.org/2000/svg" id="Layer_1" data-name="Layer 1" viewBox="0 0 24 24">
  <path d="m23,7v6.5c0,5.79-4.71,10.5-10.5,10.5h-5c-.829,0-1.5-.672-1.5-1.5s.671-1.5,1.5-1.5h5c4.136,0,7.5-3.364,7.5-7.5v-6.5c0-.828.671-1.5,1.5-1.5s1.5.672,1.5,1.5ZM6,19h-.5c-3.033,0-5.5-2.468-5.5-5.5V5.5C0,2.468,2.467,0,5.5,0h.5c.829,0,1.5.672,1.5,1.5s.673,1.5,1.5,1.5,1.5-.673,1.5-1.5.671-1.5,1.5-1.5h.5c3.033,0,5.5,2.468,5.5,5.5v8c0,3.032-2.467,5.5-5.5,5.5h-.5c-.829,0-1.5-.672-1.5-1.5s-.673-1.5-1.5-1.5-1.5.673-1.5,1.5-.671,1.5-1.5,1.5Zm3-6c1.917,0,3.559,1.205,4.206,2.898,1.036-.305,1.794-1.265,1.794-2.398V5.5c0-1.134-.758-2.094-1.794-2.398-.646,1.693-2.288,2.898-4.206,2.898s-3.559-1.205-4.206-2.898c-1.036.305-1.794,1.265-1.794,2.398v8c0,1.134.758,2.094,1.794,2.398.646-1.693,2.288-2.898,4.206-2.898Z"/>
</svg>
