<?xml version="1.0" encoding="UTF-8"?>
<svg xmlns="http://www.w3.org/2000/svg" id="Layer_1" data-name="Layer 1" viewBox="0 0 24 24">
  <path d="M11,22.5c0,.828-.671,1.5-1.5,1.5H5.5c-3.033,0-5.5-2.468-5.5-5.5V7.5C0,4.521,2.379,2.089,5.337,2.002c.562-1.183,1.769-2.002,3.163-2.002h3c1.395,0,2.601,.819,3.163,2.002,2.958,.087,5.337,2.52,5.337,5.498,0,.828-.671,1.5-1.5,1.5s-1.5-.672-1.5-1.5c0-1.379-1.122-2.5-2.5-2.5h-1c-.829,0-1.5-.672-1.5-1.5,0-.275-.224-.5-.5-.5h-3c-.276,0-.5,.225-.5,.5,0,.828-.671,1.5-1.5,1.5h-1c-1.378,0-2.5,1.121-2.5,2.5v11c0,1.379,1.122,2.5,2.5,2.5h4c.829,0,1.5,.672,1.5,1.5Zm4-13c0-.828-.671-1.5-1.5-1.5H6.5c-.829,0-1.5,.672-1.5,1.5s.671,1.5,1.5,1.5h7c.829,0,1.5-.672,1.5-1.5Zm-8.5,3.5c-.829,0-1.5,.672-1.5,1.5s.671,1.5,1.5,1.5h2c.829,0,1.5-.672,1.5-1.5s-.671-1.5-1.5-1.5h-2Zm17.129,7.75c-.278,.481-.782,.75-1.301,.75-.254,0-.512-.064-.748-.201l-.676-.39c-.413,.352-.884,.629-1.404,.815v.776c0,.828-.671,1.5-1.5,1.5s-1.5-.672-1.5-1.5v-.776c-.521-.186-.992-.463-1.404-.815l-.676,.39c-.236,.137-.494,.201-.748,.201-.519,0-1.023-.269-1.301-.75-.414-.718-.168-1.635,.55-2.049l.662-.382c-.049-.266-.083-.539-.083-.819s.033-.553,.083-.819l-.662-.382c-.718-.414-.964-1.331-.55-2.049,.415-.718,1.333-.964,2.049-.549l.676,.39c.413-.352,.884-.629,1.404-.815v-.776c0-.828,.671-1.5,1.5-1.5s1.5,.672,1.5,1.5v.776c.521,.186,.992,.463,1.404,.815l.676-.39c.718-.415,1.635-.169,2.049,.549s.168,1.635-.55,2.049l-.662,.382c.049,.266,.083,.539,.083,.819s-.033,.553-.083,.819l.662,.382c.718,.414,.964,1.331,.55,2.049Zm-4.129-3.25c0-.827-.673-1.5-1.5-1.5s-1.5,.673-1.5,1.5,.673,1.5,1.5,1.5,1.5-.673,1.5-1.5Z"/>
</svg>
