<?xml version="1.0" encoding="UTF-8"?>
<svg xmlns="http://www.w3.org/2000/svg" id="Layer_1" data-name="Layer 1" viewBox="0 0 24 24">
  <path d="M22.5,0c-.828,0-1.5,.672-1.5,1.5v.5H3v-.5c0-.828-.672-1.5-1.5-1.5S0,.672,0,1.5V10.969c0,2.114,1.234,4.065,3.146,4.971l5.35,2.534-5.638,2.671c-.748,.354-1.067,1.249-.713,1.998,.355,.756,1.266,1.064,1.998,.713l7.857-3.722,7.857,3.722c.732,.351,1.643,.043,1.998-.713,.354-.749,.035-1.644-.713-1.998l-5.638-2.671,5.35-2.534c1.911-.905,3.146-2.856,3.146-4.971V1.5c0-.828-.672-1.5-1.5-1.5Zm-1.5,8v2.819c-1.159,.35-4.393,1.181-9,1.181s-7.84-.831-9-1.181v-2.819H21ZM7.687,14.771c1.273,.138,2.717,.229,4.313,.229s3.041-.091,4.313-.229l-4.313,2.043-4.313-2.043Z"/>
</svg>
