<?xml version="1.0" encoding="UTF-8"?>
<svg xmlns="http://www.w3.org/2000/svg" id="Layer_1" data-name="Layer 1" viewBox="0 0 24 24">
  <path d="m20.999,0h-3.999c-1.65.002-2.999,1.352-2.999,3.002l.002,6.772c0,.638.524,1.088,1.089,1.088.196,0,.397-.054.583-.173l2.454-1.69h2.872c1.657,0,3-1.343,3-3v-2.999C24,1.343,22.656,0,20.999,0Zm.001,5.999h-3.999v-2.998s3.999-.001,3.999-.001v2.999Zm-.303,8.026c-1.319-1.32-3.623-1.323-4.945-.005l-.41.403c-2.587-1.198-4.481-3.1-5.756-5.776l.389-.395c.661-.661,1.025-1.54,1.025-2.475s-.364-1.814-.986-2.434l-2.152-2.318c-1.352-1.351-3.54-1.365-4.907-.042,0,0-1.066.93-1.091.954C.662,3.137,0,4.757,0,6.5c0,7.523,9.977,17.5,17.5,17.5,1.742,0,3.362-.662,4.562-1.862.024-.024.954-1.092.954-1.092.636-.656.984-1.517.984-2.433,0-.935-.364-1.814-1.065-2.514l-2.237-2.074Zm.156,4.941c-.024.024-.948,1.084-.948,1.084-.629.613-1.481.95-2.405.95-5.51,0-14.5-8.101-14.5-14.5,0-.924.337-1.776.95-2.405,0,0,1.059-.924,1.083-.948.194-.194.512-.195.668-.041l2.152,2.319c.128.127.146.276.146.353s-.019.226-.155.362l-1.108,1.127c-.418.425-.545,1.058-.322,1.611,1.694,4.22,4.633,7.153,8.732,8.717.548.209,1.169.081,1.587-.332l1.135-1.117c.128-.127.276-.146.354-.146.078,0,.227.019.395.186l2.237,2.075c.128.127.146.276.146.353s-.019.226-.146.353Z"/>
</svg>
