<?xml version="1.0" encoding="UTF-8"?>
<svg xmlns="http://www.w3.org/2000/svg" id="Layer_1" data-name="Layer 1" viewBox="0 0 24 24">
  <path d="m22.5,24h-4.193c-1.823,0-3.307-1.483-3.307-3.307,0-1.207.649-2.311,1.695-2.881,2.695-1.472,4.305-4.019,4.305-6.812,0-4.411-4.037-8-9-8S3,6.589,3,11c0,2.794,1.609,5.341,4.305,6.812,1.045.57,1.695,1.675,1.695,2.881,0,1.823-1.483,3.307-3.307,3.307H1.5c-.829,0-1.5-.672-1.5-1.5s.671-1.5,1.5-1.5h4.193c.169,0,.307-.138.307-.307,0-.106-.052-.204-.132-.248C2.193,18.44,0,14.909,0,11,0,4.935,5.383,0,12,0s12,4.935,12,11c0,3.909-2.193,7.44-5.867,9.445-.081.044-.133.142-.133.248,0,.169.138.307.307.307h4.193c.828,0,1.5.672,1.5,1.5s-.672,1.5-1.5,1.5Z"/>
</svg>
