<?xml version="1.0" encoding="UTF-8"?>
<svg xmlns="http://www.w3.org/2000/svg" id="Layer_1" data-name="Layer 1" viewBox="0 0 24 24">
  <path d="M10.657,10.68c.746,.73,1.939,.73,2.685,0l2.193-2.144c.945-.944,1.465-2.2,1.465-3.536s-.52-2.592-1.465-3.536c-.945-.944-2.201-1.464-3.535-1.464s-2.592,.52-3.535,1.464c-.945,.944-1.465,2.2-1.465,3.536s.52,2.592,1.475,3.545l2.183,2.135Zm1.343-7.68c1.105,0,2,.895,2,2s-.895,2-2,2-2-.895-2-2,.895-2,2-2Zm10.5,3c-.652,0-1.201,.419-1.408,1h-1.592c-.828,0-1.5,.671-1.5,1.5s.672,1.5,1.5,1.5h1.5v5h-1.258c-.395,0-.781-.16-1.061-.439l-2.121-2.121c-.586-.586-1.535-.586-2.121,0-.586,.585-.586,1.536,0,2.121l2.12,2.121c.838,.838,1.998,1.319,3.183,1.319h1.258v2H10v-1.671c0-.935-.364-1.814-1.025-2.475l-1.828-1.828c-.661-.661-1.54-1.025-2.475-1.025h-1.671v-3h1.5c.829,0,1.5-.671,1.5-1.5s-.671-1.5-1.5-1.5h-1.592c-.207-.581-.756-1-1.408-1-.829,0-1.5,.671-1.5,1.5v15c0,.829,.671,1.5,1.5,1.5,.652,0,1.202-.419,1.408-1H21.092c.207,.581,.756,1,1.408,1,.828,0,1.5-.671,1.5-1.5V7.5c0-.829-.672-1.5-1.5-1.5ZM4.671,16c.134,0,.259,.052,.354,.146l1.828,1.828c.094,.095,.146,.22,.146,.354v1.671H3v-4h1.671Z"/>
</svg>
