<?xml version="1.0" encoding="UTF-8"?>
<svg xmlns="http://www.w3.org/2000/svg" id="Layer_1" data-name="Layer 1" viewBox="0 0 24 24">
  <path d="M6.319,12.994c.358,0,.669-.245,.753-.593l.097-.401h2.148l.08,.358c.082,.371,.412,.636,.792,.636,.521,0,.907-.483,.791-.991l-1.04-4.581c-.311-1.853-2.97-1.844-3.303-.04l-1.072,4.664c-.112,.485,.257,.948,.755,.948Zm1.881-5.272c.019-.068,.05-.122,.097-.122,.014,.01,.057,.063,.082,.176l.583,2.624h-1.407l.646-2.678Zm3.3,1.478c0-.442,.358-.8,.8-.8h.4c.442,0,.8,.358,.8,.8s-.358,.8-.8,.8h-.4c-.442,0-.8-.358-.8-.8Zm2.684,1.749l2.329-3.349h-1.763c-.442,0-.8-.358-.8-.8s.358-.8,.8-.8h2.444c.721,0,1.306,.585,1.306,1.306,0,.266-.082,.527-.234,.745l-2.329,3.35h1.763c.442,0,.8,.358,.8,.8s-.358,.8-.8,.8h-2.444c-.721,0-1.306-.585-1.306-1.306,0-.266,.082-.526,.234-.745ZM17.5,0H6.5C3.468,0,1,2.468,1,5.5v14c0,.104,.011,.205,.031,.302,.159,2.338,2.091,4.198,4.469,4.198h12c3.032,0,5.5-2.468,5.5-5.5V5.5c0-3.032-2.468-5.5-5.5-5.5ZM6.5,3h11c1.379,0,2.5,1.121,2.5,2.5V15H5.5c-.529,0-1.029,.108-1.5,.276V5.5c0-1.379,1.121-2.5,2.5-2.5Zm11,18H5.5c-.827,0-1.5-.673-1.5-1.5s.673-1.5,1.5-1.5h14.5v.5c0,1.379-1.121,2.5-2.5,2.5Z"/>
</svg>
