<?xml version="1.0" encoding="UTF-8"?>
<svg xmlns="http://www.w3.org/2000/svg" id="Layer_1" data-name="Layer 1" viewBox="0 0 24 24">
  <path d="m0,10.5c0-.828.671-1.5,1.5-1.5h21c.829,0,1.5.672,1.5,1.5s-.671,1.5-1.5,1.5H1.5c-.829,0-1.5-.672-1.5-1.5Zm21.26,5.579c.157.119.322.228.493.326.72.416,1.636.164,2.047-.555.413-.718.165-1.635-.554-2.047-.06-.034-.118-.072-.17-.112-1.203-.916-2.949-.916-4.151,0-.531.404-1.319.404-1.849,0-1.203-.916-2.949-.916-4.151,0-.531.404-1.319.404-1.849,0-1.203-.916-2.949-.916-4.151,0-.531.404-1.319.404-1.849,0-1.203-.916-2.949-.916-4.15,0-.054.041-.112.079-.172.113-.719.412-.967,1.329-.554,2.047.411.718,1.327.969,2.047.555.171-.099.336-.207.495-.327.138-.105.378-.104.517,0,1.584,1.207,3.898,1.207,5.483,0,.138-.105.378-.104.517,0,1.584,1.207,3.898,1.207,5.483,0,.138-.105.378-.104.517,0,.792.604,1.74.922,2.741.922s1.949-.318,2.742-.922c.138-.104.379-.104.518,0Zm-19.76,1.921c-.828,0-1.5.672-1.5,1.5s.672,1.5,1.5,1.5,1.5-.672,1.5-1.5-.672-1.5-1.5-1.5Zm5,3c-.828,0-1.5.672-1.5,1.5s.672,1.5,1.5,1.5,1.5-.672,1.5-1.5-.672-1.5-1.5-1.5Zm11,0c-.828,0-1.5.672-1.5,1.5s.672,1.5,1.5,1.5,1.5-.672,1.5-1.5-.672-1.5-1.5-1.5Zm-5.5-3c-.828,0-1.5.672-1.5,1.5s.672,1.5,1.5,1.5,1.5-.672,1.5-1.5-.672-1.5-1.5-1.5Zm10.5,0c-.828,0-1.5.672-1.5,1.5s.672,1.5,1.5,1.5,1.5-.672,1.5-1.5-.672-1.5-1.5-1.5ZM5.815,7.717c.378.378.991.378,1.369,0l3.063-3.063c.61-.61.178-1.653-.685-1.653h-1.563v-1.501c0-.828-.671-1.5-1.5-1.5s-1.5.672-1.5,1.5v1.501h-1.563c-.863,0-1.295,1.043-.685,1.653l3.063,3.063Zm11,0c.378.378.991.378,1.369,0l3.063-3.063c.61-.61.178-1.653-.685-1.653h-1.563v-1.501c0-.828-.671-1.5-1.5-1.5s-1.5.672-1.5,1.5v1.501h-1.563c-.863,0-1.295,1.043-.685,1.653l3.063,3.063Z"/>
</svg>
