<?xml version="1.0" encoding="UTF-8"?>
<svg xmlns="http://www.w3.org/2000/svg" id="Layer_1" data-name="Layer 1" viewBox="0 0 24 24">
  <path d="M15.5,0h-7C5.467,0,3,2.467,3,5.5v13c0,3.032,2.467,5.5,5.5,5.5h7c3.032,0,5.5-2.468,5.5-5.5V5.5c0-3.033-2.468-5.5-5.5-5.5Zm2.5,18.5c0,1.379-1.121,2.5-2.5,2.5h-7c-1.378,0-2.5-1.121-2.5-2.5V5.5c0-1.378,1.122-2.5,2.5-2.5h7c1.379,0,2.5,1.122,2.5,2.5v13Zm0-8c0,.828-.672,1.5-1.5,1.5-.334,0-.639-.113-.888-.297-.281,.577-.612,1.432-.612,2.297v.5c0,.828-.672,1.5-1.5,1.5h-3c-.828,0-1.5-.672-1.5-1.5v-.5c0-.864-.331-1.719-.612-2.297-.249,.184-.554,.297-.888,.297-.828,0-1.5-.672-1.5-1.5s.672-1.5,1.5-1.5,1.5,.672,1.5,1.5c0,.3-.09,.578-.242,.812,.63,.306,1.483,.844,1.891,1.674,.265-1.078,.814-2.339,1.124-3.009-.72-.11-1.274-.726-1.274-1.477,0-.828,.672-1.5,1.5-1.5s1.5,.672,1.5,1.5c0,.751-.553,1.367-1.274,1.477,.31,.669,.859,1.931,1.124,3.009,.408-.83,1.261-1.369,1.891-1.674-.151-.234-.242-.512-.242-.812,0-.828,.672-1.5,1.5-1.5s1.5,.672,1.5,1.5Z"/>
</svg>
