<?xml version="1.0" encoding="UTF-8"?>
<svg xmlns="http://www.w3.org/2000/svg" id="Layer_1" data-name="Layer 1" viewBox="0 0 24 24">
  <path d="M16.663,2.002c-.562-1.183-1.769-2.002-3.163-2.002h-3c-1.395,0-2.601,.819-3.163,2.002-2.958,.086-5.337,2.52-5.337,5.498v11c0,3.032,2.467,5.5,5.5,5.5h9c3.033,0,5.5-2.468,5.5-5.5V7.5c0-2.978-2.379-5.411-5.337-5.498Zm2.337,16.498c0,1.379-1.122,2.5-2.5,2.5H7.5c-1.378,0-2.5-1.121-2.5-2.5V7.5c0-1.378,1.122-2.5,2.5-2.5h1c.829,0,1.5-.671,1.5-1.5,0-.276,.224-.5,.5-.5h3c.276,0,.5,.224,.5,.5,0,.829,.671,1.5,1.5,1.5h1c1.378,0,2.5,1.122,2.5,2.5v11Zm-5.5,0c0,.828-.672,1.5-1.5,1.5s-1.5-.672-1.5-1.5,.672-1.5,1.5-1.5,1.5,.672,1.5,1.5Zm2.367-9.541c.489,1.894-.431,3.858-2.187,4.671-.088,.041-.18,.2-.18,.397,0,.828-.671,1.5-1.5,1.5s-1.5-.672-1.5-1.5c0-1.355,.753-2.58,1.919-3.12,.379-.175,.694-.614,.543-1.199-.081-.314-.357-.59-.67-.67-.445-.117-.757,.056-.902,.169-.248,.191-.389,.48-.389,.792,0,.829-.671,1.5-1.5,1.5s-1.5-.671-1.5-1.5c0-1.247,.566-2.4,1.553-3.164,.988-.764,2.26-1.02,3.49-.702,1.363,.352,2.472,1.461,2.824,2.825Z"/>
</svg>
