<?xml version="1.0" encoding="UTF-8"?>
<svg xmlns="http://www.w3.org/2000/svg" id="Layer_1" data-name="Layer 1" viewBox="0 0 24 24">
  <path d="M24,22.5c0,.829-.671,1.5-1.5,1.5h-5c-3.033,0-5.5-2.467-5.5-5.5v-3.5H4.351l2.184,2.081c.6,.571,.623,1.521,.051,2.121-.294,.31-.69,.465-1.086,.465-.372,0-.744-.137-1.035-.414l-3.414-3.252c-.687-.686-1.051-1.564-1.051-2.5s.364-1.814,1.026-2.476l3.439-3.277c.6-.571,1.549-.55,2.121,.051,.571,.6,.548,1.549-.051,2.121l-2.184,2.081h7.649V4.351l-2.081,2.184c-.572,.6-1.522,.622-2.121,.051-.6-.571-.623-1.521-.051-2.121l3.252-3.414c1.371-1.374,3.653-1.349,4.976-.025l3.277,3.439c.572,.6,.548,1.549-.051,2.121-.291,.277-.663,.414-1.035,.414-.396,0-.791-.156-1.086-.465l-2.081-2.184v14.149c0,1.378,1.122,2.5,2.5,2.5h5c.829,0,1.5,.671,1.5,1.5Z"/>
</svg>
