<?xml version="1.0" encoding="UTF-8"?>
<svg xmlns="http://www.w3.org/2000/svg" id="Layer_1" data-name="Layer 1" viewBox="0 0 24 24">
  <path d="m21.5,4.5c-1.317,0-2.385,1.022-2.481,2.314l-2.22,1.614c-.55-.66-1.188-1.241-1.895-1.732l.953-1.732c1.21-.175,2.143-1.206,2.143-2.464,0-1.381-1.119-2.5-2.5-2.5s-2.5,1.119-2.5,2.5c0,.366.083.712.225,1.025l-1.029,1.87c-.856-.254-1.759-.395-2.696-.395C4.262,5,0,9.262,0,14.5s4.262,9.5,9.5,9.5,9.5-4.262,9.5-9.5c0-1.228-.242-2.399-.668-3.478l2.313-1.682c.268.098.553.16.855.16,1.381,0,2.5-1.119,2.5-2.5s-1.119-2.5-2.5-2.5Zm-6.885,13.997c-.038,0-.077.003-.115.003-1.182,0-2.297-.282-3.292-.771,1.79-.404,3.428-1.279,4.753-2.528-.133,1.236-.617,2.366-1.346,3.297Zm-.667-8.723c.496.467.921,1.006,1.252,1.607-1.265,2.21-3.629,3.619-6.2,3.619-.291,0-.581-.024-.869-.059-.375-.604-.666-1.263-.858-1.965,2.59-.104,4.998-1.259,6.675-3.203Zm-2.693-1.526c-1.121,1.071-2.601,1.698-4.18,1.742.077-.573.219-1.132.427-1.672.63-.204,1.3-.317,1.997-.317.609,0,1.196.09,1.755.248ZM3,14.5c0-1.231.35-2.379.947-3.361-.043.286-.006.567.101.816.372,4.102,3.113,7.521,6.841,8.892-.448.098-.912.153-1.389.153-3.584,0-6.5-2.916-6.5-6.5Z"/>
</svg>
