<?xml version="1.0" encoding="UTF-8"?>
<svg xmlns="http://www.w3.org/2000/svg" id="Layer_1" data-name="Layer 1" viewBox="0 0 24 24">
  <path d="M23.998,10.502l-.005,11.623c0,1.032-.837,1.871-1.867,1.871-.184,0-.366-.027-.542-.081-.048-.015-4.585-1.915-4.585-1.915h-5.5c-2.73,0-4.996-2.002-5.422-4.613,0,0-3.615,1.513-3.663,1.528-.176,.054-.358,.081-.542,.081C.844,18.996,.006,18.157,.004,17.127l-.004-11.625c0-1.465,.572-2.845,1.614-3.887C2.655,.574,4.035,0,5.5,0h1c.829,0,1.5,.671,1.5,1.5s-.671,1.5-1.5,1.5h-1c-.664,0-1.291,.261-1.765,.736-.475,.475-.736,1.102-.735,1.765l.004,9.921,3.113-1.306c.184-.077,.381-.117,.58-.117h7.865c.43,0,.837-.105,1.21-.312,.725-.4,1.638-.141,2.04,.584,.401,.725,.14,1.638-.584,2.04-.812,.45-1.733,.688-2.665,.688h-5.513c.232,1.14,1.242,2,2.449,2h5.802c.199,0,.396,.04,.58,.117l3.113,1.305,.004-9.921c0-.604-.221-1.188-.624-1.646-.547-.622-.487-1.57,.135-2.117,.623-.547,1.57-.487,2.117,.135,.885,1.006,1.373,2.295,1.372,3.629Zm-15.998-3.502c0-1.108,.607-2.064,1.5-2.584v-.916c0-1.93,1.57-3.5,3.5-3.5s3.5,1.57,3.5,3.5v.916c.893,.52,1.5,1.476,1.5,2.584v2c0,1.657-1.343,3-3,3h-4c-1.657,0-3-1.343-3-3v-2Zm4-3h2v-.5c0-.551-.449-1-1-1s-1,.449-1,1v.5Zm-.5,4c0,.828,.672,1.5,1.5,1.5s1.5-.672,1.5-1.5-.672-1.5-1.5-1.5-1.5,.672-1.5,1.5Z"/>
</svg>
