<?xml version="1.0" encoding="UTF-8"?>
<svg xmlns="http://www.w3.org/2000/svg" id="Layer_1" data-name="Layer 1" viewBox="0 0 24 24">
  <path d="m23,17.187v4.52c0,.705-.852,1.058-1.35.559l-1.491-1.491c-2.2,2.042-5.103,3.225-8.158,3.225C6.066,24,.868,19.577.029,13.712c-.117-.82.453-1.58,1.273-1.697.816-.122,1.579.453,1.697,1.272.628,4.397,4.55,7.712,9,7.712,2.254,0,4.4-.856,6.041-2.342l-1.308-1.308c-.498-.498-.145-1.35.559-1.35h4.52c.656,0,1.187.531,1.187,1.187ZM1,6.813V2.293c0-.705.852-1.058,1.35-.559l1.491,1.491C6.042,1.183,8.945,0,12,0c5.934,0,11.132,4.423,11.971,10.288.117.82-.453,1.58-1.273,1.697-.816.122-1.579-.453-1.697-1.272-.628-4.397-4.55-7.712-9-7.712-2.254,0-4.4.856-6.041,2.342l1.308,1.308c.498.498.145,1.35-.559,1.35H2.187c-.656,0-1.187-.531-1.187-1.187Z"/>
</svg>
