<?xml version="1.0" encoding="UTF-8"?>
<svg xmlns="http://www.w3.org/2000/svg" id="Layer_1" data-name="Layer 1" viewBox="0 0 24 24">
  <path d="M22.5,10h-3.5v-2.142c1.72-.447,3-2,3-3.858,0-2.206-1.794-4-4-4H5.5C2.467,0,0,2.467,0,5.5v13c0,3.033,2.467,5.5,5.5,5.5h15c.829,0,1.5-.671,1.5-1.5s-.671-1.5-1.5-1.5h-2.753c1.797,0,3.253-1.457,3.253-3.253v-1.247c0-.828-.672-1.5-1.5-1.5h-6c-.828,0-1.5,.672-1.5,1.5v1.247c0,1.797,1.457,3.253,3.253,3.253h-5.253V8h4v3c0,1.105,.895,2,2,2h6.5c.829,0,1.5-.671,1.5-1.5s-.671-1.5-1.5-1.5ZM8.5,5c-.829,0-1.5,.671-1.5,1.5v14.5h-1.5c-1.378,0-2.5-1.122-2.5-2.5V5.5c0-1.378,1.122-2.5,2.5-2.5h12.5c.551,0,1,.449,1,1s-.449,1-1,1H8.5Z"/>
</svg>
