<?xml version="1.0" encoding="UTF-8"?>
<svg xmlns="http://www.w3.org/2000/svg" id="Layer_1" data-name="Layer 1" viewBox="0 0 24 24">
  <path d="m18.554,21.997c-.034.003-.054.003-.054.003-3,0-4.342-3.335-4.499-5.576-.027-.385.473-.581.703-.271.68.914,1.796,2.847,3.796,2.847,1.242,0,2.5-1.374,2.5-4,0-2.289-1.188-4-2.25-4-.701,0-1.038.31-1.802,1.072-.561.562-1.26,1.261-2.277,1.77-.631.315-1.521.469-2.487.512.519.933.816,2.005.816,3.146,0,3.561-2.879,6.459-6.431,6.496-.043.003-.069.004-.069.004-3.584,0-6.5-2.916-6.5-6.5v-1.269s.351-.741,1,.513c1.084,2.093,2.999,4.256,5.5,4.256,1.93,0,3.5-1.57,3.5-3.5s-1.57-3.5-3.5-3.5c-.829,0-1.5-.672-1.5-1.5s.671-1.5,1.5-1.5h.5c1.103,0,2-.897,2-2s-.897-2-2-2c-.989,0-2.421,1.064-2.959,1.58-.598.572-1.547.555-2.12-.041-.574-.596-.558-1.542.036-2.117.256-.248,2.574-2.422,5.043-2.422,2.757,0,5,2.243,5,5,0,.86-.238,1.658-.622,2.365.94.019,1.691-.076,1.951-.207.582-.291,1.027-.736,1.498-1.207.869-.869,1.951-1.951,3.923-1.951,2.944,0,5.25,3.075,5.25,7,0,4.565-2.73,6.966-5.446,6.997Zm-3.054-14.997c.963,0,2.149-.403,3.046-.901.85-.472,1.032-1.627.424-2.387-.498-.623-1.376-.79-2.063-.384-.587.347-1.369.672-2.24.672-1.167,0-3.117-1.235-4.167-1.934-.323-.215-.733.131-.56.479.886,1.788,2.317,4.455,5.56,4.455Zm-1-4c.828,0,1.5-.672,1.5-1.5s-.672-1.5-1.5-1.5-1.5.672-1.5,1.5.672,1.5,1.5,1.5Z"/>
</svg>
