<?xml version="1.0" encoding="UTF-8"?>
<svg xmlns="http://www.w3.org/2000/svg" id="Layer_1" data-name="Layer 1" viewBox="0 0 24 24">
  <path d="m15.373,9.512c.549.549.16,1.488-.616,1.488h-1.257v4.5c0,.828-.671,1.5-1.5,1.5s-1.5-.672-1.5-1.5v-4.5h-1.257c-.776,0-1.165-.939-.616-1.488l2.757-2.757c.34-.34.892-.34,1.233,0l2.757,2.757Zm7.019,8.488c-.277.481-.782.75-1.3.75-.255,0-.513-.064-.749-.201l-.54-.312c-1.537,1.919-3.765,3.253-6.303,3.638v.625c0,.828-.671,1.5-1.5,1.5s-1.5-.672-1.5-1.5v-.625c-2.539-.385-4.766-1.719-6.303-3.638l-.54.312c-.236.137-.494.201-.749.201-.519,0-1.022-.269-1.3-.75-.415-.718-.168-1.635.549-2.049l.539-.311c-.444-1.13-.696-2.355-.696-3.64s.252-2.51.696-3.64l-.539-.311c-.717-.414-.963-1.331-.549-2.049.415-.717,1.331-.964,2.049-.549l.54.312c1.537-1.919,3.765-3.253,6.303-3.638v-.625c0-.828.671-1.5,1.5-1.5s1.5.672,1.5,1.5v.625c2.539.385,4.766,1.719,6.303,3.638l.54-.312c.717-.414,1.635-.169,2.049.549s.169,1.635-.549,2.049l-.54.311c.444,1.13.696,2.355.696,3.64s-.252,2.51-.696,3.64l.54.311c.718.414.963,1.331.549,2.049Zm-3.393-6c0-3.859-3.141-7-7-7s-7,3.141-7,7,3.14,7,7,7,7-3.141,7-7Z"/>
</svg>
