<?xml version="1.0" encoding="UTF-8"?>
<svg xmlns="http://www.w3.org/2000/svg" id="Layer_1" data-name="Layer 1" viewBox="0 0 24 24">
  <path d="M9,8.792c0,.437-.534,1.208-1.5,1.208s-1.5-.771-1.5-1.208,.534-.792,1.5-.792,1.5,.354,1.5,.792Zm7.5,10.208c.966,0,1.5-.771,1.5-1.208s-.534-.792-1.5-.792-1.5,.354-1.5,.792,.534,1.208,1.5,1.208ZM7.8,15h-.601C2.759,15,0,12.978,0,9.722c0-.75,.325-1.636,.888-2.495-.539-.287-.888-.823-.888-1.727C0,4,3.222,0,4.462,0c.909,0,1.51,.365,2.41,1.03,.204-.018,.412-.03,.629-.03s.425,.013,.629,.03c.899-.665,1.501-1.03,2.41-1.03,1.239,0,4.462,4,4.462,5.5,0,.904-.349,1.44-.888,1.727,.563,.859,.888,1.745,.888,2.495,0,3.255-2.759,5.278-7.2,5.278Zm4.2-5.278c-.017-.196-.307-.908-1.061-1.662-.274-.273-.431-.643-.439-1.03-.018-.497-.248-3.031-3-3.031s-2.982,2.534-3,3.042c-.014,.379-.17,.751-.439,1.019-.753,.753-1.044,1.466-1.061,1.675,0,2.101,3.215,2.265,4.2,2.265h.601c.985,0,4.2-.164,4.2-2.278Zm11.404,1.081l-.403-2.006c-.126-.691-.921-1.023-1.501-.627l-1.874,2.14c-.182-.089-.37-.158-.556-.231-.31-.099-.471-.204-.743-.204-.828,0-1.5,.672-1.5,1.5,0,.657,.425,1.21,1.014,1.412,.515,.189,.976,.495,1.283,.739,0,0,1.948,1.011,1.874,3.997-.048,1.945-1.695,3.477-3.641,3.477h-1.714c-1.842,0-3.393-1.384-3.624-3.164-.102-.729-.722-1.292-1.479-1.292-.828,0-1.5,.672-1.5,1.5,0,.069,.034,.309,.039,.329,.515,3.179,3.304,5.628,6.626,5.628h1.661c3.678,0,6.64-3.01,6.634-6.688-.005-3.225-.571-6.376-.596-6.509Z"/>
</svg>
