<?xml version="1.0" encoding="UTF-8"?>
<svg xmlns="http://www.w3.org/2000/svg" id="Layer_1" data-name="Layer 1" viewBox="0 0 24 24">
  <path d="m15,12c.102,0-.102.013,0,0h0Zm-3.5-7c1.381,0,2.5-1.119,2.5-2.5s-1.119-2.5-2.5-2.5-2.5,1.119-2.5,2.5,1.119,2.5,2.5,2.5Zm6.822,1.246c-.692-.454-1.622-.261-2.077.432l-1.229,1.878s-1.282-1.484-1.321-1.52c-.614-.578-1.842-1.036-2.695-1.036-1.577-.008-3,1.549-3,3.148v4.852c0,1.41.873,2.906,2,3.75v4.75c0,.829.672,1.5,1.5,1.5s1.5-.671,1.5-1.5v-11.689s.409.472.433.496c.443.449.949.692,1.567.692.729-.094,1.742-.534,2.062-1.094l1.693-2.583c.454-.693.261-1.623-.433-2.077Z"/>
</svg>
