<?xml version="1.0" encoding="UTF-8"?>
<svg xmlns="http://www.w3.org/2000/svg" id="Layer_1" data-name="Layer 1" viewBox="0 0 24 24">
  <path d="m7,11.5c0,.828-.672,1.5-1.5,1.5s-1.5-.672-1.5-1.5.672-1.5,1.5-1.5,1.5.672,1.5,1.5Zm5,.5c-1.657,0-3,1.343-3,3s1.343,3,3,3,3-1.343,3-3-1.343-3-3-3Zm-6.5,5.062c-.828,0-1.5.672-1.5,1.5s.672,1.5,1.5,1.5,1.5-.672,1.5-1.5-.672-1.5-1.5-1.5Zm13-7.062c-.828,0-1.5.672-1.5,1.5s.672,1.5,1.5,1.5,1.5-.672,1.5-1.5-.672-1.5-1.5-1.5Zm0,7.062c-.828,0-1.5.672-1.5,1.5s.672,1.5,1.5,1.5,1.5-.672,1.5-1.5-.672-1.5-1.5-1.5Zm5.5-5.562v7.062c0,3.032-2.468,5.5-5.5,5.5H5.5c-3.032,0-5.5-2.468-5.5-5.5v-7.062c0-3.032,2.468-5.5,5.5-5.5h5v-2h-1.09c-.74,0-1.111-.834-.588-1.323L11.451.227c.325-.302.851-.302,1.175,0l2.629,2.451c.523.488.153,1.323-.588,1.323h-1.167v2h5c3.032,0,5.5,2.468,5.5,5.5Zm-3,0c0-1.379-1.121-2.5-2.5-2.5H5.5c-1.379,0-2.5,1.121-2.5,2.5v7.062c0,1.379,1.121,2.5,2.5,2.5h13c1.379,0,2.5-1.121,2.5-2.5v-7.062Z"/>
</svg>
