<?xml version="1.0" encoding="UTF-8"?>
<svg xmlns="http://www.w3.org/2000/svg" id="Layer_1" data-name="Layer 1" viewBox="0 0 24 24">
  <path d="M19,3.261V1.5c0-.829-.672-1.5-1.5-1.5s-1.5,.671-1.5,1.5v.525c-.165-.015-.331-.025-.5-.025h-7c-.178,0-.354,.01-.528,.027l-.011-.556c-.017-.818-.685-1.471-1.499-1.471-.011,0-.021,0-.03,0-.828,.016-1.486,.701-1.471,1.529l.034,1.736c-1.218,1.01-1.995,2.533-1.995,4.234v9c0,1.704,.779,3.229,2,4.239v1.761c0,.828,.672,1.5,1.5,1.5s1.5-.672,1.5-1.5v-.525c.165,.015,.331,.025,.5,.025h7c.169,0,.335-.01,.5-.025v.525c0,.828,.672,1.5,1.5,1.5s1.5-.672,1.5-1.5v-1.761c1.221-1.01,2-2.535,2-4.239V7.5c0-1.704-.779-3.23-2-4.239Zm-10.5,15.739c-1.379,0-2.5-1.121-2.5-2.5V7.5c0-1.378,1.121-2.5,2.5-2.5h7c1.379,0,2.5,1.122,2.5,2.5v9c0,1.379-1.121,2.5-2.5,2.5h-7Zm7.5-7.8c0,1.565-1.845,3.496-3.029,4.455-.568,.46-1.374,.46-1.942,0-1.184-.959-3.029-2.89-3.029-4.455,0-1.215,.895-2.2,2-2.2s2,.985,2,2.2c0-1.215,.895-2.2,2-2.2s2,.985,2,2.2Z"/>
</svg>
