<?xml version="1.0" encoding="UTF-8"?>
<svg xmlns="http://www.w3.org/2000/svg" id="Layer_1" data-name="Layer 1" viewBox="0 0 24 24">
  <path d="m17.5,9h-2c-.828,0-1.5.671-1.5,1.5s.672,1.5,1.5,1.5h.5v4h-3v-1.513c0-.829-.672-1.5-1.5-1.5s-1.5.671-1.5,1.5v3.013c0,.829.672,1.5,1.5,1.5h6c.828,0,1.5-.671,1.5-1.5v-7c0-.829-.672-1.5-1.5-1.5Z"/>
  <path d="m18.5,4h-10.5v-.5c0-1.93-1.57-3.5-3.5-3.5h-.5C1.794,0,0,1.794,0,4c0,0-.013,16.283,0,16.408.202,2.015,2.033,3.592,4.143,3.592h14.357c3.032,0,5.5-2.467,5.5-5.5v-9c0-3.033-2.468-5.5-5.5-5.5Zm-15.5,0c0-.551.448-1,1-1h.5c.275,0,.5.224.5.5v12c0,.276-.225.5-.5.5h-.5c-.34,0-.676.043-1,.127V4Zm18,14.5c0,1.381-1.119,2.5-2.5,2.5H4c-.552,0-1-.448-1-1s.448-1,1-1h.5c1.933,0,3.5-1.567,3.5-3.5V7h10.5c1.381,0,2.5,1.119,2.5,2.5v9Z"/>
</svg>
