<?xml version="1.0" encoding="UTF-8"?>
<svg xmlns="http://www.w3.org/2000/svg" id="Layer_1" data-name="Layer 1" viewBox="0 0 24 24">
  <path d="m18.682,6h-1.868c-.215-.836-.612-1.62-1.205-2.27-.559-.611-1.507-.654-2.119-.096s-.655,1.507-.097,2.119c.392.429.607.984.607,1.564v10.682H4.364c-.752,0-1.364-.611-1.364-1.363v-3.137c0-.828-.671-1.5-1.5-1.5s-1.5.672-1.5,1.5v3.137c0,1.934,1.274,3.559,3.02,4.13-.006.078-.02.154-.02.234,0,1.657,1.343,3,3,3s3-1.343,3-3h6c0,1.657,1.343,3,3,3s3-1.343,3-3c0-.08-.014-.156-.02-.234,1.746-.57,3.02-2.195,3.02-4.13v-5.364c0-2.907-2.386-5.272-5.318-5.272Zm2.318,5.272v.728h-4v-3h1.682c1.3,0,2.318.998,2.318,2.272Zm-1.364,6.728h-2.636v-3h4v1.637c0,.752-.612,1.363-1.364,1.363ZM3,10h5c1.657,0,3-1.343,3-3V3c0-1.657-1.343-3-3-3H3C1.343,0,0,1.343,0,3v4c0,1.657,1.343,3,3,3Zm1.5-7h2c.552,0,1,.448,1,1s-.448,1-1,1h-2c-.552,0-1-.448-1-1s.448-1,1-1Z"/>
</svg>
