<?xml version="1.0" encoding="UTF-8"?>
<svg xmlns="http://www.w3.org/2000/svg" id="Layer_1" data-name="Layer 1" viewBox="0 0 24 24">
  <path d="M18,12c-3.314,0-6,2.686-6,6s2.686,6,6,6,6-2.686,6-6-2.686-6-6-6Zm0,10c-.69,0-1.25-.56-1.25-1.25s.56-1.25,1.25-1.25,1.25,.56,1.25,1.25-.56,1.25-1.25,1.25Zm2.204-3.205l-.028,.028c-.255,.254-.646,.292-.956,.109-.75-.442-1.69-.442-2.439,0-.31,.183-.702,.145-.956-.109l-.028-.028c-.356-.356-.295-.96,.136-1.22,1.267-.765,2.87-.765,4.136,0,.431,.26,.492,.864,.136,1.22Zm1.798-1.798l-.021,.021c-.276,.275-.714,.31-1.024,.075-.847-.644-1.875-.993-2.958-.993s-2.111,.349-2.958,.993c-.31,.236-.748,.201-1.024-.075l-.021-.021c-.339-.339-.296-.897,.086-1.187,1.122-.85,2.484-1.311,3.916-1.311s2.794,.46,3.916,1.311c.382,.29,.426,.848,.087,1.187Zm-10.002-2.498c0,.828-.672,1.5-1.5,1.5s-1.5-.672-1.5-1.5,.672-1.5,1.5-1.5,1.5,.672,1.5,1.5Zm2.661-4.995c-2.384-1.992-5.86-2.01-8.265-.046-.428,.349-1.058,.286-1.407-.142-.35-.428-.286-1.058,.142-1.407,3.146-2.57,7.694-2.544,10.812,.06,.424,.354,.48,.985,.126,1.409-.198,.237-.482,.359-.768,.359-.226,0-.454-.076-.641-.232Zm-4.698,10.104c-.158,.696-.776,1.168-1.461,1.168-.11,0-.222-.012-.333-.038C3.359,19.649,0,15.438,0,10.5,0,4.71,4.71,0,10.5,0c4.938,0,9.149,3.359,10.24,8.168,.183,.808-.323,1.612-1.131,1.795-.812,.183-1.612-.324-1.795-1.131-.767-3.379-3.842-5.832-7.314-5.832-4.136,0-7.5,3.364-7.5,7.5,0,3.472,2.453,6.547,5.832,7.314,.808,.183,1.314,.987,1.131,1.795Zm3.663-9.012c.431,.346,.5,.975,.154,1.406-.197,.246-.488,.374-.78,.374-.22,0-.441-.072-.625-.22-1.086-.871-2.662-.871-3.748,0-.43,.346-1.061,.276-1.406-.154-.346-.431-.277-1.06,.154-1.406,1.812-1.454,4.44-1.454,6.252,0Z"/>
</svg>
