<?xml version="1.0" encoding="UTF-8"?>
<svg xmlns="http://www.w3.org/2000/svg" id="Layer_1" data-name="Layer 1" viewBox="0 0 24 24">
  <path d="m23.08,18.701l-.662-.382c.049-.266.083-.539.083-.819s-.033-.553-.083-.819l.662-.382c.718-.414.964-1.331.55-2.049-.414-.718-1.331-.964-2.049-.549l-.676.39c-.413-.352-.884-.629-1.404-.815v-.776c0-.828-.671-1.5-1.5-1.5s-1.5.672-1.5,1.5v.776c-.521.186-.992.463-1.404.815l-.676-.39c-.715-.415-1.634-.169-2.049.549-.414.718-.168,1.635.55,2.049l.662.382c-.049.266-.083.539-.083.819s.033.553.083.819l-.662.382c-.718.414-.964,1.331-.55,2.049.278.481.782.75,1.301.75.254,0,.512-.064.748-.201l.676-.39c.413.352.884.629,1.404.815v.776c0,.828.671,1.5,1.5,1.5s1.5-.672,1.5-1.5v-.776c.521-.186.992-.463,1.404-.815l.676.39c.236.137.494.201.748.201.519,0,1.023-.269,1.301-.75.414-.718.168-1.635-.55-2.049Zm-5.08.299c-.827,0-1.5-.673-1.5-1.5s.673-1.5,1.5-1.5,1.5.673,1.5,1.5-.673,1.5-1.5,1.5Zm-12-7.5c0,.827.673,1.5,1.5,1.5h.146c-.144-.736-.146-.9-.146-1,0-1.103.897-2,2-2s2,.897,2,2c0,.155-.535,2.82-.537,2.829-.002.008-.463,1.171-1.463,1.171h-2c-2.481,0-4.5-2.019-4.5-4.5v-.646c-.736.143-.9.146-1,.146-1.103,0-2-.897-2-2s.897-2,2-2c.101,0,.271.003,1.035.153.181-2.317,2.102-4.153,4.465-4.153h.146c-.144-.736-.146-.9-.146-1,0-1.103.897-2,2-2s2,.897,2,2c0,.1-.002.264-.146,1h.146c2.481,0,4.5,2.019,4.5,4.5v1c0,.828-.671,1.5-1.5,1.5s-1.5-.672-1.5-1.5v-1c0-.827-.673-1.5-1.5-1.5h-4c-.827,0-1.5.673-1.5,1.5v4Z"/>
</svg>
