<?xml version="1.0" encoding="UTF-8"?>
<svg xmlns="http://www.w3.org/2000/svg" id="Layer_1" data-name="Layer 1" viewBox="0 0 24 24">
  <path d="m22.923,12.439l-8.359,2.404c-.782.487-1.641.952-2.564,1.374v6.283c0,.829-.671,1.5-1.5,1.5s-1.5-.671-1.5-1.5v-5.155c-3.44,1.015-6.281.859-6.885-.564-.607-1.432,1.239-3.711,4.336-5.636C3.769,8.175,1.686,4.661,1.038,1.835.853,1.028,1.357.223,2.165.038c.805-.185,1.613.319,1.797,1.126.292,1.274,1.098,3.014,2.291,4.835h4.581c1.162-1.828,1.911-3.56,2.204-4.835.219-.956,1.309-1.484,2.233-.955.576.33.834,1.008.684,1.655-.5,2.149-1.768,4.664-3.467,7.021-.224.31-.226.73,0,1.038.004.005.008.011.012.016.346.469,1.044.479,1.399.017.414-.54.866-1.228,1.101-1.911,1.996-.187,3.47.191,3.885,1.168.16.378.141.817-.018,1.292l3.21-.945c.793-.234,1.628.221,1.862,1.016.234.794-.221,1.628-1.016,1.862Zm-14.423-7.439c1.381,0,2.5-1.119,2.5-2.5s-1.119-2.5-2.5-2.5-2.5,1.119-2.5,2.5,1.119,2.5,2.5,2.5Z"/>
</svg>
