<?xml version="1.0" encoding="UTF-8"?>
<svg xmlns="http://www.w3.org/2000/svg" id="Layer_1" data-name="Layer 1" viewBox="0 0 24 24">
  <path d="m20.103,10.402c-.664-.496-.8-1.437-.305-2.1l1.159-1.552c.046-.061.045-.124.037-.166-.012-.058-.041-.101-.088-.129-2.254-1.35-4.789-2.157-7.406-2.383v2.427c0,.828-.672,1.5-1.5,1.5s-1.5-.672-1.5-1.5v-2.427c-2.618.226-5.155,1.035-7.41,2.387-.047.028-.076.071-.088.128-.008.042-.009.104.036.165l1.167,1.573c.493.665.354,1.604-.312,2.099-.269.199-.582.295-.893.295-.459,0-.911-.21-1.206-.606l-1.167-1.573C.09,7.814-.117,6.89.06,6.002c.176-.883.719-1.654,1.488-2.115,3.149-1.889,6.765-2.887,10.452-2.887s7.3.997,10.448,2.883c.771.463,1.314,1.236,1.489,2.121.175.891-.035,1.816-.576,2.542l-1.159,1.552c-.497.664-1.437.8-2.1.305Zm-3.748,2.129l-3.826,4.522c-.172-.031-.347-.053-.528-.053-1.657,0-3,1.343-3,3s1.343,3,3,3,3-1.343,3-3c0-.354-.072-.689-.185-1.004l3.831-4.527c.535-.632.456-1.579-.177-2.114-.632-.535-1.58-.455-2.114.177Zm-13.239,4.469c.553,0,1-.447,1-1s-.447-1-1-1h-1.615c-.827,0-1.5.673-1.5,1.5v5c0,.827.673,1.5,1.5,1.5h1.615c.553,0,1-.447,1-1s-.447-1-1-1h-1.115v-1h1.115c.553,0,1-.447,1-1s-.447-1-1-1h-1.115v-1h1.115Zm20,1h-1.115v-1h1.115c.553,0,1-.447,1-1s-.447-1-1-1h-1.615c-.827,0-1.5.673-1.5,1.5v5.5c0,.553.447,1,1,1s1-.447,1-1v-2h1.115c.553,0,1-.447,1-1s-.447-1-1-1Z"/>
</svg>
