<?xml version="1.0" encoding="UTF-8"?>
<svg xmlns="http://www.w3.org/2000/svg" id="Layer_1" data-name="Layer 1" viewBox="0 0 24 24">
  <path d="M22.975,17.854c-1.625-1.734-3.557-3.507-5.839-4.208-1.199-.433-2.472-.64-3.778-.646H6.71l-2.496-1.921,2.5-3.079h.393c.912,1.778,2.761,3,4.893,3s3.98-1.222,4.893-3h.607c.828,0,1.5-.672,1.5-1.5v-1c0-.828-.672-1.5-1.5-1.5h-.213c-.655-2.305-2.775-4-5.287-4S7.368,1.695,6.713,4h-.213c-.786,0-1.424,.607-1.488,1.376-.062,.055-3.382,4.128-3.382,4.128-.91,1.024-.822,2.604,.198,3.52,.028,.025,4.171,3.215,4.171,3.215v1.262c0,.828,.671,1.5,1.5,1.5s1.5-.672,1.5-1.5v-1.5h4.358c.558,0,1.107,.055,1.642,.159v1.341c0,.828,.671,1.5,1.5,1.5s1.5-.672,1.5-1.5v-.12c.917,.55,2.081,1.841,2.854,2.594,.093,.094,.146,.222,.146,.354v2.172c0,.828,.671,1.5,1.5,1.5s1.5-.672,1.5-1.5v-2.172c0-.935-.364-1.813-1.025-2.475ZM12,3c1.378,0,2.5,1.121,2.5,2.5s-1.122,2.5-2.5,2.5-2.5-1.121-2.5-2.5,1.122-2.5,2.5-2.5Zm7,19.5c0,.828-.671,1.5-1.5,1.5H1.5c-.829,0-1.5-.672-1.5-1.5s.671-1.5,1.5-1.5H17.5c.829,0,1.5,.672,1.5,1.5Z"/>
</svg>
