<?xml version="1.0" encoding="UTF-8"?>
<svg xmlns="http://www.w3.org/2000/svg" id="Layer_1" data-name="Layer 1" viewBox="0 0 24 24">
  <path d="m24,2.5v4c0,1.381-1.119,2.5-2.5,2.5h-3.372l-2.454,1.689c-.723.463-1.672-.057-1.672-.915l-.002-7.272c0-1.375,1.124-2.5,2.499-2.501l5-.002c1.381,0,2.501,1.119,2.501,2.5Zm-15.5,9.5c1.933,0,3.5-1.567,3.5-3.5s-1.567-3.5-3.5-3.5-3.5,1.567-3.5,3.5,1.567,3.5,3.5,3.5Zm.5,2H3v-7.5c0-.828-.671-1.5-1.5-1.5s-1.5.672-1.5,1.5v9c0,.828.671,1.5,1.5,1.5h7.5c1.654,0,3,1.346,3,3v2.5c0,.828.671,1.5,1.5,1.5s1.5-.672,1.5-1.5v-2.5c0-3.309-2.691-6-6-6Zm-3.5,5c-.829,0-1.5.672-1.5,1.5v2c0,.828.671,1.5,1.5,1.5s1.5-.672,1.5-1.5v-2c0-.828-.671-1.5-1.5-1.5Z"/>
</svg>
