<?xml version="1.0" encoding="UTF-8"?>
<svg xmlns="http://www.w3.org/2000/svg" id="Layer_1" data-name="Layer 1" viewBox="0 0 24 24">
  <path d="m24,12v10.5c0,.829-.671,1.5-1.5,1.5s-1.5-.671-1.5-1.5v-10.5c0-4.962-4.038-9-9-9S3,7.038,3,12v10.5c0,.829-.671,1.5-1.5,1.5s-1.5-.671-1.5-1.5v-10.5C0,5.383,5.383,0,12,0s12,5.383,12,12Zm-5.461,4.358c.306.85.461,1.738.461,2.642,0,1.309-.847,2.412-2.018,2.821.007.059.018.117.018.179,0,1.103-.897,2-2,2s-2-.897-2-2h-2c0,1.103-.897,2-2,2s-2-.897-2-2c0-.061.011-.119.018-.179-1.171-.409-2.018-1.513-2.018-2.821,0-.903.155-1.792.461-2.642l1.22-3.385c.642-1.779,2.343-2.974,4.233-2.974h2.17c1.89,0,3.591,1.195,4.233,2.973l1.22,3.385Zm-3.539,1.142c-.828,0-1.5.672-1.5,1.5s.672,1.5,1.5,1.5,1.5-.672,1.5-1.5-.672-1.5-1.5-1.5Zm-7.5,1.5c0,.828.672,1.5,1.5,1.5s1.5-.672,1.5-1.5-.672-1.5-1.5-1.5-1.5.672-1.5,1.5Zm7.72-3l-.724-2.009c-.214-.593-.781-.991-1.411-.991h-2.17c-.63,0-1.197.398-1.411.992l-.724,2.008h6.44Z"/>
</svg>
