<?xml version="1.0" encoding="UTF-8"?>
<svg xmlns="http://www.w3.org/2000/svg" id="Layer_1" data-name="Layer 1" viewBox="0 0 24 24">
  <path d="m17.207,10.707l-.793.793.793.793c.391.391.391,1.023,0,1.414-.195.195-.451.293-.707.293s-.512-.098-.707-.293l-.793-.793-.793.793c-.195.195-.451.293-.707.293s-.512-.098-.707-.293c-.391-.391-.391-1.023,0-1.414l.793-.793-.793-.793c-.391-.391-.391-1.023,0-1.414s1.023-.391,1.414,0l.793.793.793-.793c.391-.391,1.023-.391,1.414,0s.391,1.023,0,1.414Zm5.793-5.207v13c0,3.033-2.468,5.5-5.5,5.5H5.5c-2.378,0-4.31-1.859-4.469-4.197-.02-.098-.031-.199-.031-.303V5.5C1,2.467,3.468,0,6.5,0h11c3.032,0,5.5,2.467,5.5,5.5Zm-5.5-2.5h-7.5v12h10V5.5c0-1.378-1.121-2.5-2.5-2.5Zm-13.5,2.5v9.776c.471-.168.971-.276,1.5-.276h1.5V3h-.5c-1.379,0-2.5,1.122-2.5,2.5Zm16,13v-.5H5.5c-.827,0-1.5.673-1.5,1.5s.673,1.5,1.5,1.5h12c1.379,0,2.5-1.122,2.5-2.5Zm-7.727-11.941l.769.813c.787.832,2.109.839,2.905.015l1.641-1.695c.376-.389.374-1.007-.004-1.394-.394-.403-1.042-.401-1.433.004l-1.65,1.704-.777-.821c-.392-.414-1.05-.417-1.445-.006-.37.384-.372.992-.006,1.379Z"/>
</svg>
