<?xml version="1.0" encoding="UTF-8"?>
<svg xmlns="http://www.w3.org/2000/svg" id="Layer_1" data-name="Layer 1" viewBox="0 0 24 24">
  <path d="m23.879,11.699l-1.903-10.468c-.148-.815-.932-1.355-1.744-1.207-.815.148-1.355.929-1.207,1.744l1.679,9.231h-3.703c-.829,0-1.5.671-1.5,1.5v1c0,.827-.673,1.5-1.5,1.5h-4c-.827,0-1.5-.673-1.5-1.5v-1c0-.829-.671-1.5-1.5-1.5h-3.703L4.976,1.769c.148-.815-.392-1.596-1.207-1.744-.812-.148-1.596.392-1.744,1.207L.121,11.699c-.081.44-.121.892-.121,1.342v5.459c0,3.033,2.467,5.5,5.5,5.5h13c3.033,0,5.5-2.467,5.5-5.5v-5.459c0-.45-.041-.901-.121-1.342Zm-5.379,9.301H5.5c-1.378,0-2.5-1.122-2.5-2.5v-4.5h2.528c.25,2.247,2.16,4,4.472,4h4c2.312,0,4.223-1.753,4.472-4h2.528v4.5c0,1.378-1.122,2.5-2.5,2.5ZM7,1.5c0-.829.671-1.5,1.5-1.5h7c.829,0,1.5.671,1.5,1.5s-.671,1.5-1.5,1.5h-7c-.829,0-1.5-.671-1.5-1.5Zm-1,5c0-.829.671-1.5,1.5-1.5h9c.829,0,1.5.671,1.5,1.5s-.671,1.5-1.5,1.5H7.5c-.829,0-1.5-.671-1.5-1.5Z"/>
</svg>
