<?xml version="1.0" encoding="UTF-8"?>
<svg xmlns="http://www.w3.org/2000/svg" id="Layer_1" data-name="Layer 1" viewBox="0 0 24 24">
  <path d="M16.671,11.71c.433-.317,.663-.842,.604-1.375-.296-2.665-1.258-5.025-2.178-6.761,2.466,.909,4.482,2.856,5.391,5.427,.276,.781,1.136,1.191,1.914,.914,.781-.276,1.19-1.133,.914-1.914C21.625,3.215,17.077,0,12,0c-.021,0-.042,.003-.063,.003-.015,0-.031,.001-.046,.002-.009,0-.017,.001-.026,.001,0,0-.001,0-.002,0C5.31,.082,0,5.43,0,12c0,6.617,5.383,12,12,12,.574,0,1.15-.041,1.713-.122,.82-.117,1.39-.877,1.271-1.697-.117-.821-.883-1.396-1.697-1.271-.186,.027-.377,.025-.566,.04-.824-1.187-2.559-4.039-2.986-7.449h4.675c.522,0,1.007-.271,1.279-.717,.265-.432,.585-.782,.981-1.073ZM8.898,3.563c-.94,1.768-1.909,4.182-2.183,6.937H3.135c.542-3.207,2.781-5.837,5.762-6.937Zm.007,16.877c-2.985-1.099-5.227-3.73-5.769-6.94h3.58c.276,2.752,1.25,5.172,2.189,6.94Zm4.729-9.94h-3.899c.325-2.596,1.406-4.872,2.264-6.326,.798,1.349,1.783,3.383,2.185,5.72-.194,.19-.378,.393-.55,.606Zm10.366,9.5c0,1.654-1.346,3-3,3,0,.553-.447,1-1,1s-1-.447-1-1h-.268c-1.067,0-2.063-.574-2.598-1.499-.277-.479-.113-1.09,.364-1.366,.48-.279,1.091-.113,1.366,.364,.179,.31,.511,.501,.867,.501h2.268c.552,0,1-.448,1-1,0-.379-.271-.698-.645-.761l-3.04-.506c-1.342-.224-2.315-1.374-2.315-2.733,0-1.654,1.346-3,3-3,0-.552,.447-1,1-1s1,.448,1,1h.268c1.067,0,2.063,.574,2.598,1.499,.277,.479,.113,1.09-.364,1.366-.481,.278-1.091,.112-1.366-.364-.179-.31-.511-.501-.867-.501h-2.268c-.552,0-1,.448-1,1,0,.379,.271,.698,.645,.761l3.04,.506c1.342,.224,2.315,1.374,2.315,2.733Z"/>
</svg>
