<?xml version="1.0" encoding="UTF-8"?>
<svg xmlns="http://www.w3.org/2000/svg" id="Layer_1" data-name="Layer 1" viewBox="0 0 24 24">
  <path d="m22.563,9.021c-.053-.08-2.563-2.609-2.563-2.609v-1.912c0-2.481-2.019-4.5-4.5-4.5h-7c-2.481,0-4.5,2.019-4.5,4.5v1.867l-2.096,2.097C.677,9.691,0,11.323,0,13.059v5.441C0,21.533,2.469,24,5.501,24h12.999c3.032,0,5.5-2.467,5.5-5.5v-5.409c0-1.477-.519-2.923-1.437-4.07ZM7,4.5c0-.827.673-1.5,1.5-1.5h7c.827,0,1.5.673,1.5,1.5v7.566l-2.228,2.228c.145-.443.228-.889.228-1.293,0-1.657-1.343-3-3-3s-3,1.343-3,3c0,.381.078.798.207,1.214l-2.207-2.208v-7.506Zm14,14c0,1.378-1.121,2.5-2.5,2.5H5.501c-1.379,0-2.5-1.122-2.5-2.5v-5.441c0-.249.03-.492.08-.729l5.061,5.062c1.037,1.036,2.418,1.606,3.889,1.606s2.852-.571,3.889-1.608l5.005-5.005c.048.232.076.469.076.708v5.409ZM8,6.5c0-.828.672-1.5,1.5-1.5s1.5.672,1.5,1.5-.672,1.5-1.5,1.5-1.5-.672-1.5-1.5Zm5,0c0-.828.672-1.5,1.5-1.5s1.5.672,1.5,1.5-.672,1.5-1.5,1.5-1.5-.672-1.5-1.5Z"/>
</svg>
