<?xml version="1.0" encoding="UTF-8"?>
<svg xmlns="http://www.w3.org/2000/svg" id="Layer_1" data-name="Layer 1" viewBox="0 0 24 24">
  <path d="m19.309,10.009c-2.089-.127-3.932,1.166-4.845,3.049-.643,1.327-.537,2.507-.171,3.565,0,0-.315.376-.315.876v1.5h-1.184c-.451,0-.816.365-.816.816v1.184h-1.163c-.451,0-.816.365-.816.816v1.136c0,.579.469,1.048,1.048,1.048h.935c.398,0,.779-.158,1.06-.44l3.973-3.973c.948.411,2.044.544,3.193.267,1.885-.454,3.373-2.035,3.71-3.945.538-3.055-1.7-5.723-4.611-5.9Zm.691,5.491c-.828,0-1.5-.672-1.5-1.5s.672-1.5,1.5-1.5,1.5.672,1.5,1.5-.672,1.5-1.5,1.5Zm-12-3.5c3.309,0,6-2.691,6-6S11.309,0,8,0,2,2.691,2,6s2.691,6,6,6Zm0-9c1.654,0,3,1.346,3,3s-1.346,3-3,3-3-1.346-3-3,1.346-3,3-3Zm1.922,14.382c-.607-.253-1.254-.382-1.922-.382-2.757,0-5,2.243-5,5v.5c0,.828-.671,1.5-1.5,1.5s-1.5-.672-1.5-1.5v-.5c0-4.411,3.589-8,8-8,1.067,0,2.103.206,3.078.614.764.318,1.125,1.197.806,1.962-.319.764-1.198,1.126-1.962.806Z"/>
</svg>
