<?xml version="1.0" encoding="UTF-8"?>
<svg xmlns="http://www.w3.org/2000/svg" id="Layer_1" data-name="Layer 1" viewBox="0 0 24 24">
  <path d="M24,4c0,2.209-1.791,4-4,4s-4-1.791-4-4S17.791,0,20,0s4,1.791,4,4Zm-8,12c-2.209,0-4,1.791-4,4s1.791,4,4,4,4-1.791,4-4-1.791-4-4-4ZM4,5C1.791,5,0,6.791,0,9s1.791,4,4,4,4-1.791,4-4-1.791-4-4-4Zm7.764,9.082l-1.5-1.375c-.61-.559-1.56-.52-2.119,.092-.56,.61-.519,1.56,.092,2.119l1.5,1.375c.288,.265,.651,.395,1.014,.395,.405,0,.81-.164,1.105-.486,.56-.61,.519-1.56-.092-2.119Zm5.987,.418c.672,0,1.284-.455,1.454-1.136l.5-2c.201-.804-.287-1.618-1.091-1.819-.812-.202-1.619,.288-1.819,1.091l-.5,2c-.201,.803,.287,1.618,1.091,1.819,.123,.03,.245,.045,.365,.045Zm-6.851-6.156c.147,0,.299-.022,.447-.069l2.199-.688c.791-.247,1.231-1.088,.984-1.879-.246-.789-1.087-1.229-1.879-.984l-2.199,.688c-.791,.247-1.231,1.088-.984,1.879,.2,.642,.793,1.053,1.432,1.053Z"/>
</svg>
