<?xml version="1.0" encoding="UTF-8"?>
<svg xmlns="http://www.w3.org/2000/svg" id="Layer_1" data-name="Layer 1" viewBox="0 0 24 24">
  <path d="m10,23c0,.552-.448,1-1,1H1c-.552,0-1-.448-1-1s.448-1,1-1h.5s2-2,2-5h-.5c-.552,0-1-.448-1-1s.448-1,1-1h4c.552,0,1,.448,1,1s-.448,1-1,1h-.5c0,3,2,5,2,5h.5c.552,0,1,.448,1,1Zm4.793-12.13c-.456.145-.793.616-.793,1.095,0,.572.464,1.035,1.035,1.035h7.929c.572,0,1.035-.428,1.035-1,0-.365-.181-.963-.507-1.129-.248-.126-.493-.376-.493-.871v-5.179S23.071.626,18.779.007c-.621-.09-1.204.303-1.439.885-.536,1.329-1.42,1.986-2.538,2.435-.481.193-.802.656-.802,1.174,0,.828.671,1.5,1.5,1.5h2.5c-.289,2.885-1.832,4.434-3.207,4.87Zm-7.793,2.13c0-.718-.845-1.745-1.437-2.689-.26-.415-.867-.415-1.127,0-.591.944-1.437,1.971-1.437,2.689,0,1.105.895,2,2,2s2-.895,2-2Zm14.061,1.908c-.328-.328-.86-.328-1.188,0l-2.658,2.658c-.529.529-.154,1.434.594,1.434h1.192v.5c0,.827-.673,1.5-1.5,1.5h-4c-.829,0-1.5.671-1.5,1.5s.671,1.5,1.5,1.5h4c2.481,0,4.5-2.019,4.5-4.5v-.5h1.125c.749,0,1.123-.905.594-1.434l-2.658-2.658ZM10.5,0h-4C4.019,0,2,2.019,2,4.5v.5H.808c-.749,0-1.123.905-.594,1.434l2.658,2.658c.328.328.86.328,1.188,0l2.658-2.658c.529-.529.154-1.434-.594-1.434h-1.125v-.5c0-.827.673-1.5,1.5-1.5h4c.829,0,1.5-.671,1.5-1.5s-.671-1.5-1.5-1.5Z"/>
</svg>
