<?xml version="1.0" encoding="UTF-8"?>
<svg xmlns="http://www.w3.org/2000/svg" id="Layer_1" data-name="Layer 1" viewBox="0 0 24 24">
  <path d="m22.405,8.145L15.854,1.593C14.827.566,13.459,0,11.999,0s-2.827.565-3.854,1.592L1.595,8.144c-2.125,2.125-2.125,5.583,0,7.708l6.551,6.552c1.062,1.063,2.458,1.594,3.854,1.594s2.792-.531,3.854-1.594l6.551-6.552c2.125-2.125,2.125-5.583,0-7.708Zm-2.121,5.586l-6.551,6.552c-.957.956-2.512.955-3.467,0l-6.551-6.552c-.955-.956-.955-2.51,0-3.466l6.551-6.551c.46-.46,1.075-.713,1.732-.713s1.273.253,1.733.713l6.552,6.552c.955.956.955,2.51,0,3.465Zm-4.284.769v1c0,.829-.672,1.5-1.5,1.5s-1.5-.671-1.5-1.5v-1c0-.827-.673-1.5-1.5-1.5h-1.5v1.347c0,.652-.786.98-1.25.522l-3.008-2.969c-.323-.319-.323-.841,0-1.159l3.008-2.969c.464-.458,1.25-.129,1.25.522v1.706h1.5c2.481,0,4.5,2.019,4.5,4.5Z"/>
</svg>
