<?xml version="1.0" encoding="UTF-8"?>
<svg xmlns="http://www.w3.org/2000/svg" id="Layer_1" data-name="Layer 1" viewBox="0 0 24 24">
  <path d="M14.5,22.028v.003c0,1.071-1.083,1.776-2.081,1.385-.118-.046-.235-.095-.351-.146-.974-.432-1.231-1.693-.477-2.446,.45-.45,1.123-.543,1.706-.288,.068,.03,.136,.058,.205,.085,.591,.23,.999,.773,.999,1.407Zm6.12-8.526c.231,.591,.773,.999,1.407,.999h.003c1.071,0,1.776-1.083,1.385-2.081-.046-.118-.095-.235-.146-.351-.432-.974-1.693-1.231-2.446-.477-.45,.45-.543,1.123-.288,1.706,.03,.068,.058,.136,.085,.205Zm-3.788-3.324c-.672,3.344-3.312,5.983-6.655,6.655,.075,.3,.166,.593,.288,.871,.255,.583,.162,1.256-.288,1.706h0c-.753,.753-2.014,.496-2.446-.477-.286-.643-.474-1.336-.592-2.051C3.098,16.226,0,12.723,0,8.5,0,3.813,3.813,0,8.5,0c4.222,0,7.726,3.098,8.38,7.138,.716,.118,1.408,.306,2.051,.592,.974,.432,1.231,1.693,.477,2.446h0c-.45,.45-1.123,.543-1.706,.288-.278-.122-.572-.213-.871-.287Zm-9.655,3.656c.67-3.348,3.307-5.985,6.655-6.655-.595-2.395-2.757-4.178-5.333-4.178-3.032,0-5.5,2.467-5.5,5.5,0,2.576,1.783,4.738,4.178,5.333Zm12.232,6.991c-.45-.45-1.123-.543-1.706-.288-.068,.03-.136,.058-.205,.085-.591,.231-.999,.773-.999,1.408v.003c0,1.071,1.083,1.776,2.081,1.385,.118-.046,.235-.095,.351-.146,.974-.432,1.231-1.693,.477-2.446h0Zm2.621-4.323h-.003c-.634,0-1.177,.408-1.407,.999-.027,.069-.055,.137-.085,.205-.255,.583-.162,1.256,.288,1.706,.753,.753,2.014,.496,2.446-.477,.051-.116,.1-.233,.146-.351,.39-.998-.314-2.081-1.385-2.081Z"/>
</svg>
