<?xml version="1.0" encoding="UTF-8"?>
<svg xmlns="http://www.w3.org/2000/svg" id="Layer_1" data-name="Layer 1" viewBox="0 0 24 24">
  <path d="m22,19v-6.762c1.205-.808,2-2.182,2-3.738,0-.132-.018-.264-.052-.392l-1.146-4.226c-.715-2.322-2.827-3.882-5.257-3.882H6.454C4.024,0,1.912,1.56,1.183,3.932L.052,8.108c-.034.128-.052.26-.052.392,0,1.557.795,2.93,2,3.738v6.762c-1.105,0-2,.895-2,2v1.154c0,1.02.827,1.846,1.846,1.846h20.308c1.02,0,1.846-.827,1.846-1.846v-1.154c0-1.105-.895-2-2-2ZM4.064,4.765c.325-1.056,1.285-1.765,2.39-1.765h.546v.5c0,.829.672,1.5,1.5,1.5s1.5-.671,1.5-1.5v-.5h4v.5c0,.829.672,1.5,1.5,1.5s1.5-.671,1.5-1.5v-.5h.546c1.104,0,2.064.709,2.375,1.716l1.07,3.95c-.083.749-.72,1.334-1.491,1.334h-1c-.827,0-1.5-.673-1.5-1.5s-.672-1.5-1.5-1.5-1.5.671-1.5,1.5-.673,1.5-1.5,1.5h-1c-.827,0-1.5-.673-1.5-1.5s-.672-1.5-1.5-1.5-1.5.671-1.5,1.5-.673,1.5-1.5,1.5h-1c-.771,0-1.408-.585-1.491-1.334l1.056-3.9Zm10.705,15.235h-5.538l-.923-1h-3.308v-6h.5c1.157,0,2.202-.451,3-1.17.798.72,1.843,1.17,3,1.17h1c1.157,0,2.202-.451,3-1.17.798.72,1.843,1.17,3,1.17h.5v6h-3.308l-.923,1Z"/>
</svg>
