<?xml version="1.0" encoding="UTF-8"?>
<svg xmlns="http://www.w3.org/2000/svg" id="Layer_1" data-name="Layer 1" viewBox="0 0 24 24">
  <path d="m9,12c3.309,0,6-2.691,6-6S12.309,0,9,0,3,2.691,3,6s2.691,6,6,6Zm0-9c1.654,0,3,1.346,3,3s-1.346,3-3,3-3-1.346-3-3,1.346-3,3-3Zm14.451,17.144l-3.45-4.133v-3.01c.552,0,1-.448,1-1s-.448-1-1-1h-4c-.552,0-1,.448-1,1s.448,1,1,1v3.01l-3.45,4.132c-.589.705-.715,1.703-.323,2.542.38.812,1.159,1.315,2.033,1.315h7.48c.874,0,1.653-.504,2.033-1.315.392-.839.266-1.837-.323-2.541Zm-7.708.856l2.258-2.704,2.258,2.704h-4.516Zm-3.123-3.541l-2.001,2.245c-.407.496-1.031.786-1.669.756-.598-.018-1.155-.294-1.535-.76l-1.54-1.748c-.028-.03-.054-.063-.079-.097-.534.32-.953.676-1.305,1.088-.876,1.028-1.407,2.326-1.494,3.655-.053.793-.714,1.401-1.497,1.401-.827-.055-1.55-.772-1.497-1.599.13-1.969.913-3.888,2.206-5.404.6-.703,1.317-1.3,2.134-1.773,1.363-.794,2.857-.481,3.823.792l.856.972,1.357-1.524c.551-.617,1.499-.675,2.118-.122.618.552.673,1.499.122,2.118Z"/>
</svg>
