<?xml version="1.0" encoding="UTF-8"?>
<svg xmlns="http://www.w3.org/2000/svg" id="Layer_1" data-name="Layer 1" viewBox="0 0 24 24">
  <path d="M21,0H12.086c-.841-.027-1.392,1.003-.904,1.688l1.818,2.459v3.853c0,1.657,1.343,3,3,3h5c1.657,0,3-1.343,3-3V3c0-1.657-1.343-3-3-3Zm-.378,9.5h-.002c-.326,0-.609-.225-.682-.543l-.265-1.157h-2.409l-.274,1.161c-.075,.316-.356,.539-.681,.539h0c-.451,0-.784-.421-.681-.86l1.413-5.993c.201-.866,1.137-1.406,2.056-1.021,.439,.184,.734,.606,.842,1.07l1.363,5.948c.1,.438-.232,.856-.682,.856Zm-2.102-6.537l.811,3.437h-1.757l.787-3.437c.009-.037,.041-.063,.079-.063s.071,.026,.079,.063ZM9.717,14.995l-.206,1.631c-.298,2.354-2.216,4.162-4.544,4.356-.236,1.702-1.701,3.018-3.467,3.018-.829,0-1.5-.672-1.5-1.5s.671-1.5,1.5-1.5c.276,0,.5-.225,.5-.5v-1c0-.828,.671-1.5,1.5-1.5h1.05c1.005,0,1.858-.752,1.984-1.75l.371-2.938c.095-.75,.732-1.312,1.488-1.312h.39c-.615-1.47-2.303-4.527-3.268-5.721-1.295-1.729-2.888-2.926-4.402-3.33C.313,2.735-.163,1.914,.051,1.113,.264,.312,1.087-.162,1.887,.051c2.948,.787,5.022,3.086,5.996,4.386,.983,1.213,4.118,6.447,4.118,8.109,0,1.146-.798,2.362-2.283,2.449Zm11.283-1.995h-5c-1.657,0-3,1.343-3,3v3.853l-1.818,2.459c-.488,.686,.064,1.715,.904,1.688h8.914c1.657,0,3-1.343,3-3v-5c0-1.657-1.343-3-3-3Zm1,3.137c0,.34-.276,.616-.616,.616h-.316c-.121,1.275-.617,2.731-1.607,3.866,.542,.329,1.192,.564,1.984,.639,.315,.03,.555,.296,.555,.613v.021c0,.366-.316,.648-.68,.613-1.137-.109-2.059-.489-2.808-1.022-.753,.538-1.686,.915-2.832,1.022-.364,.034-.679-.248-.679-.614v-.021c0-.321,.248-.584,.568-.614,.788-.075,1.438-.307,1.977-.635-.329-.377-.605-.79-.83-1.22-.215-.411,.09-.903,.553-.903,.228,0,.44,.123,.545,.325,.185,.352,.415,.69,.692,1,.818-.92,1.192-2.108,1.303-3.071h-4.191c-.34,0-.616-.276-.616-.616v-.021c0-.34,.276-.616,.616-.616h2.257v-.384c0-.34,.276-.616,.616-.616h.021c.34,0,.616,.276,.616,.616v.384h2.257c.34,0,.616,.276,.616,.616v.021Z"/>
</svg>
