<?xml version="1.0" encoding="UTF-8"?>
<svg xmlns="http://www.w3.org/2000/svg" id="Layer_1" data-name="Layer 1" viewBox="0 0 24 24">
  <path d="m12.462,6c.828,0,1.5.672,1.5,1.5s-.672,1.5-1.5,1.5-1.5-.672-1.5-1.5.672-1.5,1.5-1.5Zm-7-3c.828,0,1.5-.672,1.5-1.5s-.672-1.5-1.5-1.5-1.5.672-1.5,1.5.672,1.5,1.5,1.5Zm.039,5.652c.281.234.621.348.959.348.43,0,.856-.184,1.153-.54l5-6c.53-.637.444-1.583-.192-2.113-.638-.531-1.583-.444-2.113.192l-5,6c-.53.637-.444,1.583.192,2.113Zm17.513,5.815l-5.195,5.943c-1.994,2.281-4.875,3.589-7.905,3.589h-5.414c-2.481,0-4.5-2.019-4.5-4.5v-4c0-2.481,2.019-4.5,4.5-4.5h7.858c.942,0,1.802.36,2.45.949l2.438-2.68c.698-.767,1.654-1.217,2.69-1.265,1.036-.05,2.029.31,2.796,1.008,1.566,1.427,1.692,3.875.282,5.455Zm-2.302-3.238c-.175-.159-.401-.238-.636-.229-.236.011-.453.113-.612.288l-3.498,3.844c-.218,1.584-1.475,2.883-3.093,3.115l-5.161.737c-.818.114-1.58-.453-1.697-1.273-.117-.82.453-1.58,1.273-1.697l5.161-.737c.314-.045.551-.318.551-.636,0-.354-.288-.642-.642-.642h-7.858c-.827,0-1.5.673-1.5,1.5v4c0,.827.673,1.5,1.5,1.5h5.414c2.164,0,4.222-.935,5.646-2.563l5.206-5.955c.331-.371.302-.927-.054-1.252Z"/>
</svg>
