<?xml version="1.0" encoding="UTF-8"?>
<svg xmlns="http://www.w3.org/2000/svg" id="Layer_1" data-name="Layer 1" viewBox="0 0 24 24">
  <path d="M18,9.905c.64,1.068,1,2.299,1,3.595v1c0,.829,.672,1.5,1.5,1.5s1.5-.671,1.5-1.5v-1c0-3.179-1.488-6.094-4-7.979v-.021c0-3.033-2.468-5.5-5.5-5.5h-1c-3.032,0-5.5,2.467-5.5,5.5v.021c-2.512,1.885-4,4.8-4,7.979v9c0,.829,.672,1.5,1.5,1.5s1.5-.671,1.5-1.5V13.5c0-1.296,.36-2.527,1-3.595v2.595c0,3.033,2.468,5.5,5.5,5.5h1c3.032,0,5.5-2.467,5.5-5.5v-2.595ZM9,5.5c0-1.378,1.121-2.5,2.5-2.5h1c1.379,0,2.5,1.122,2.5,2.5v7c0,.494-.148,.952-.397,1.34-.734-.526-1.63-.84-2.603-.84s-1.869,.313-2.603,.84c-.248-.388-.397-.846-.397-1.34V5.5Zm-7.08-.893l-.438-1.097-1.099-.463c-.512-.195-.497-.984,.021-1.16l1.082-.41L1.92,.393c.095-.237,.325-.393,.58-.393s.485,.156,.58,.393l.436,1.09,1.09,.436c1.165,.726-.428,1.42-1.09,1.597l-.436,1.09c-.186,.515-.975,.515-1.161,0ZM24,21c0,.307-.187,.583-.472,.697l-1.308,.523-.523,1.308c-.223,.618-1.17,.618-1.393,0l-.526-1.316-1.318-.556c-.614-.235-.597-1.181,.026-1.392l1.299-.492,.52-1.301c.223-.618,1.17-.618,1.393,0l.523,1.308,1.308,.523c.285,.114,.472,.39,.472,.697Z"/>
</svg>
