<?xml version="1.0" encoding="UTF-8"?>
<svg xmlns="http://www.w3.org/2000/svg" id="Layer_1" data-name="Layer 1" viewBox="0 0 24 24">
  <path d="m23,21.092v-11.184c.581-.207,1-.756,1-1.408s-.419-1.201-1-1.408v-1.092c0-1.675-1.036-3.107-2.5-3.703v-.797c0-.829-.672-1.5-1.5-1.5s-1.5.671-1.5,1.5v.797c-1.464.595-2.5,2.028-2.5,3.703v1.092c-.581.207-1,.756-1,1.408s.419,1.201,1,1.408v11.092h-3v-4.183c.65-.842,1-1.77,1-2.688,0-2.961-2.556-4.251-4.083-5.022-.288-.146-.684-.346-.917-.496v-.111c0-.829-.672-1.5-1.5-1.5s-1.5.671-1.5,1.5v.111c-.233.15-.629.35-.917.496-1.527.771-4.083,2.061-4.083,5.022,0,.917.35,1.846,1,2.688v4.275c-.581.207-1,.756-1,1.408,0,.829.672,1.5,1.5,1.5h21c.828,0,1.5-.671,1.5-1.5,0-.652-.419-1.201-1-1.408Zm-19-3.092h5v3h-5v-3Zm1.435-6.215c.354-.179.723-.364,1.065-.576.343.212.711.397,1.065.576,1.471.743,2.435,1.307,2.435,2.345,0,.194-.107.511-.387.871H3.387c-.279-.36-.387-.677-.387-.871,0-1.038.964-1.602,2.435-2.345Zm12.565,9.215v-11h2v11h-2Z"/>
</svg>
