<?xml version="1.0" encoding="UTF-8"?>
<svg xmlns="http://www.w3.org/2000/svg" id="Layer_1" data-name="Layer 1" viewBox="0 0 24 24">
  <path d="M9,17.5c0,.829-.671,1.5-1.5,1.5h-.368l-4.354,2.753c-.267,.17-.593,.246-.905,.248C.844,22.001,.006,21.163,.004,20.132l-.004-14.63c0-1.465,.572-2.845,1.614-3.887C2.655,.574,4.035,0,5.5,0h11c3.033,0,5.5,2.467,5.5,5.5v2.5c0,.829-.671,1.5-1.5,1.5s-1.5-.671-1.5-1.5v-2.5c0-1.379-1.122-2.5-2.5-2.5H5.5c-.664,0-1.291,.261-1.765,.736-.475,.475-.736,1.102-.735,1.765l.004,12.56,2.892-1.829c.414-.306,1.121-.223,1.604-.232,.829,0,1.5,.671,1.5,1.5Zm15,0c0,3.59-2.91,6.5-6.5,6.5s-6.5-2.91-6.5-6.5,2.91-6.5,6.5-6.5,6.5,2.91,6.5,6.5Zm-2,0c0-.829-.672-1.5-1.5-1.5h-2.501v-1.563c0-.863-1.043-1.295-1.653-.685l-3.063,3.063c-.378,.378-.378,.991,0,1.369l3.063,3.063c.61,.61,1.653,.178,1.653-.685v-1.563h2.501c.828,0,1.5-.671,1.5-1.5Z"/>
</svg>
