<?xml version="1.0" encoding="UTF-8"?>
<svg xmlns="http://www.w3.org/2000/svg" id="Layer_1" data-name="Layer 1" viewBox="0 0 24 24">
  <path d="m22.315,7.836l-1.315-1.282v-2.554c0-2.206-1.794-4-4-4H7C4.794,0,3,1.794,3,4v2.559l-1.305,1.268c-1.077,1.031-1.695,2.479-1.695,3.971v6.702c0,3.032,2.468,5.5,5.5,5.5h13c3.032,0,5.5-2.468,5.5-5.5v-6.702c0-1.492-.618-2.939-1.685-3.962ZM6,4c0-.552.448-1,1-1h10c.552,0,1,.448,1,1v6.958l-4.219,4.296c-.963.963-2.604.958-3.549.015l-4.232-4.233v-7.035Zm12.5,17H5.5c-1.379,0-2.5-1.121-2.5-2.5v-6.222l5.112,5.113c1.039,1.038,2.42,1.609,3.888,1.609s2.854-.577,3.912-1.635l5.088-5.181v6.315c0,1.379-1.121,2.5-2.5,2.5Zm-7.312-8.982c-.8,0-1.551-.312-2.116-.877l-1.594-1.516c-.6-.571-.623-1.521-.053-2.121.572-.601,1.521-.623,2.121-.053l1.62,1.542,3.249-3.293c.578-.594,1.527-.606,2.121-.027.593.578.605,1.527.027,2.121l-3.247,3.333c-.577.579-1.329.891-2.129.891Z"/>
</svg>
