<?xml version="1.0" encoding="UTF-8"?>
<svg xmlns="http://www.w3.org/2000/svg" id="Layer_1" data-name="Layer 1" viewBox="0 0 24 24">
  <path d="M17.977,9.649c.185-2.612-.768-5.169-2.613-7.014C13.519,.791,10.968-.167,8.35,.022,3.824,.343,0,4.581,0,9.277v4.723c0,2.205,1.792,3.999,3.994,3.999h4.197c5.157,0,9.455-3.668,9.786-8.35Zm-2.992-.211c-.217,3.066-3.264,5.561-6.793,5.561H3.994c-.548,0-.994-.448-.994-.999v-4.723c0-3.127,2.599-6.053,5.561-6.263,.143-.01,.286-.015,.428-.015,1.594,0,3.125,.628,4.254,1.757,1.23,1.23,1.865,2.937,1.742,4.682Zm9.015,6.762v4.3c0,1.93-1.57,3.5-3.5,3.5h-3.86c-2.725,0-5.215-1.102-6.833-3.021-.272-.323-.504-.668-.716-1.021,1.138-.071,2.241-.279,3.28-.63,1.049,1.063,2.578,1.671,4.269,1.671h3.86c.276,0,.5-.225,.5-.5v-4.3c0-1.413-.58-2.787-1.565-3.769,.359-1.065,.546-2.184,.552-3.335,.343,.205,.679,.427,.996,.687,1.917,1.576,3.017,3.914,3.017,6.416Zm-13.5-7.2c0,.828-.672,1.5-1.5,1.5s-1.5-.672-1.5-1.5,.672-1.5,1.5-1.5,1.5,.672,1.5,1.5Zm-4,0c0,.828-.672,1.5-1.5,1.5s-1.5-.672-1.5-1.5,.672-1.5,1.5-1.5,1.5,.672,1.5,1.5Zm6.5-1.5c.828,0,1.5,.672,1.5,1.5s-.672,1.5-1.5,1.5-1.5-.672-1.5-1.5,.672-1.5,1.5-1.5Z"/>
</svg>
