<?xml version="1.0" encoding="UTF-8"?>
<svg xmlns="http://www.w3.org/2000/svg" id="Layer_1" data-name="Layer 1" viewBox="0 0 24 24">
  <path d="M24,13c0-2.371-.896-4.234-2.289-5.445C20.675,3.116,16.85,0,12,0c-3.204,0-5.965,1.358-7.769,3.56C1.839,4.59,0,7.101,0,11.5c0,5.135,2.138,7.503,5,8.081v2.919c0,.829,.672,1.5,1.5,1.5s1.5-.671,1.5-1.5v-2.936c.168-.035,.336-.068,.499-.115,.633,.208,1.301,.358,2.001,.446v2.604c0,.829,.672,1.5,1.5,1.5s1.5-.671,1.5-1.5v-2.604c.568-.072,1.12-.175,1.644-.326,.275,.105,.565,.175,.856,.242v2.688c0,.829,.672,1.5,1.5,1.5s1.5-.671,1.5-1.5v-2.671c2.862-.646,5-3.143,5-6.829Zm-5-3c0,3.729-2.113,6.299-5.5,6.876v-3.255l2.561-2.561c.586-.585,.586-1.536,0-2.121-.586-.586-1.535-.586-2.121,0l-.439,.439v-.879c0-.829-.672-1.5-1.5-1.5s-1.5,.671-1.5,1.5v.879l-.439-.439c-.586-.586-1.535-.586-2.121,0-.586,.585-.586,1.536,0,2.121l2.561,2.561v3.255c-3.387-.577-5.5-3.148-5.5-6.876,0-3.991,3.01-7,7-7s7,3.009,7,7Z"/>
</svg>
