<?xml version="1.0" encoding="UTF-8"?>
<svg xmlns="http://www.w3.org/2000/svg" id="Layer_1" data-name="Layer 1" viewBox="0 0 24 24">
  <path d="m18.5,0H5.5C2.467,0,0,2.468,0,5.5v8.969c0,.02,0,.04,0,.061v5.971c0,1.93,1.57,3.5,3.5,3.5h3.087c.744,0,1.436-.336,1.897-.923.459-.584.623-1.331.448-2.05-.557-2.297-2.008-4.13-3.423-5.449,2.294-1.248,5.045-3.544,6.491-7.685,1.446,4.141,4.197,6.437,6.491,7.685-1.415,1.319-2.866,3.151-3.424,5.449-.174.719-.01,1.466.449,2.05.461.587,1.153.923,1.897.923h3.087c1.93,0,3.5-1.57,3.5-3.5v-5.971c0-.021,0-.041,0-.061V5.5c0-3.032-2.467-5.5-5.5-5.5ZM5.786,21h-2.286c-.276,0-.5-.225-.5-.5v-3.135c1.05.891,2.204,2.132,2.786,3.635Zm-2.786-7.506v-7.994c0-1.208.86-2.217,2-2.449v4.254c0,.703.914.978,1.303.392.803-1.208,1.403-2.756,1.611-4.697h2.013c-.523,6.888-4.55,9.534-6.928,10.494ZM14.072,3h2.013c.208,1.941.808,3.489,1.611,4.697.39.586,1.303.311,1.303-.392V3.051c1.14.232,2,1.242,2,2.449v7.994c-2.381-.962-6.405-3.609-6.928-10.494Zm6.928,17.5c0,.275-.224.5-.5.5h-2.286c.583-1.514,1.736-2.756,2.786-3.643v3.143Z"/>
</svg>
