<?xml version="1.0" encoding="UTF-8"?>
<svg xmlns="http://www.w3.org/2000/svg" id="Layer_1" data-name="Layer 1" viewBox="0 0 24 24">
  <path d="M7.5,18.5c0,1.381-1.119,2.5-2.5,2.5s-2.5-1.119-2.5-2.5,1.119-2.5,2.5-2.5,2.5,1.119,2.5,2.5Zm11.5-2.5c-1.381,0-2.5,1.119-2.5,2.5s1.119,2.5,2.5,2.5,2.5-1.119,2.5-2.5-1.119-2.5-2.5-2.5Zm-6,1h-2c-.828,0-1.5,.671-1.5,1.5s.672,1.5,1.5,1.5h2c.828,0,1.5-.671,1.5-1.5s-.672-1.5-1.5-1.5Zm-3-9c0,1.336-.52,2.592-1.465,3.536l-2.443,2.464c-.607,.594-1.578,.594-2.185,0l-2.433-2.455c-.955-.954-1.475-2.209-1.475-3.545s.52-2.592,1.465-3.536c.943-.944,2.199-1.464,3.535-1.464s2.59,.52,3.535,1.464c.945,.944,1.465,2.2,1.465,3.536Zm-3,0c0-1.105-.895-2-2-2s-2,.895-2,2,.895,2,2,2,2-.895,2-2Zm17,0c0,1.336-.52,2.592-1.465,3.536l-2.443,2.464c-.607,.594-1.578,.594-2.185,0l-2.433-2.455c-.955-.954-1.475-2.209-1.475-3.545s.52-2.592,1.465-3.536c.943-.944,2.199-1.464,3.535-1.464s2.59,.52,3.535,1.464c.945,.944,1.465,2.2,1.465,3.536Zm-3,0c0-1.105-.895-2-2-2s-2,.895-2,2,.895,2,2,2,2-.895,2-2Z"/>
</svg>
