<?xml version="1.0" encoding="UTF-8"?>
<svg xmlns="http://www.w3.org/2000/svg" id="Layer_1" data-name="Layer 1" viewBox="0 0 24 24">
  <path d="M22.733,9.014c-.768-.699-1.767-1.058-2.798-1.01-1.036,.049-1.991,.498-2.69,1.266l-2.438,2.68c-.647-.59-1.507-.949-2.449-.949h-2.357v-.776c.521-.186,.992-.463,1.404-.815l.243,.14c.236,.137,.494,.201,.749,.201,.518,0,1.022-.269,1.3-.75,.414-.717,.169-1.635-.549-2.049l-.23-.133c.049-.266,.083-.538,.083-.818s-.033-.552-.083-.818l.23-.133c.718-.414,.963-1.332,.549-2.049-.414-.719-1.332-.964-2.049-.549l-.243,.14c-.413-.352-.884-.629-1.404-.815v-.276c0-.828-.672-1.5-1.5-1.5s-1.5,.672-1.5,1.5v.276c-.521,.186-.992,.463-1.404,.815l-.243-.14c-.716-.415-1.635-.17-2.049,.549-.414,.717-.169,1.635,.549,2.049l.23,.133c-.049,.266-.083,.538-.083,.818s.033,.552,.083,.818l-.23,.133c-.718,.414-.963,1.332-.549,2.049,.277,.481,.782,.75,1.3,.75,.255,0,.513-.064,.749-.201l.243-.14c.413,.352,.884,.629,1.404,.815v.776h-2.5c-2.481,0-4.5,2.019-4.5,4.5v4c0,2.481,2.019,4.5,4.5,4.5h5.414c3.03,0,5.911-1.309,7.904-3.589l5.196-5.943c1.41-1.58,1.283-4.027-.281-5.454ZM7,6c0-.827,.673-1.5,1.5-1.5s1.5,.673,1.5,1.5-.673,1.5-1.5,1.5-1.5-.673-1.5-1.5Zm13.767,6.482l-5.206,5.954c-1.425,1.629-3.482,2.563-5.646,2.563H4.5c-.827,0-1.5-.673-1.5-1.5v-4c0-.827,.673-1.5,1.5-1.5h7.857c.354,0,.643,.288,.643,.643,0,.317-.236,.591-.551,.635l-5.161,.737c-.82,.117-1.391,.877-1.273,1.697,.117,.819,.877,1.381,1.697,1.273l5.161-.737c1.619-.231,2.876-1.53,3.094-3.116l3.497-3.843c.159-.175,.376-.277,.612-.288,.25-.018,.462,.07,.636,.229,.356,.324,.385,.881,.055,1.252Z"/>
</svg>
