<?xml version="1.0" encoding="UTF-8"?>
<svg xmlns="http://www.w3.org/2000/svg" id="Layer_1" data-name="Layer 1" viewBox="0 0 24 24">
  <path d="m16.553,17.568l-2.563,2.526c-.05,1.06-.918,1.905-1.99,1.905-1.105,0-2-.895-2-2,0-1.044.803-1.891,1.823-1.982l2.624-2.586c.589-.582,1.54-.575,2.122.016.582.59.575,1.539-.015,2.121Zm6.745-1.373c-.526-1.494-1.316-2.835-2.298-3.982v-4.713h1.257c.776,0,1.165-.939.616-1.488l-2.757-2.757c-.34-.34-.892-.34-1.233,0l-2.757,2.757c-.549.549-.16,1.488.616,1.488h1.257v2.177c-1.368-.819-2.895-1.359-4.5-1.57v-3.607h1.257c.776,0,1.165-.939.616-1.488L12.616.255c-.34-.34-.892-.34-1.233,0l-2.757,2.757c-.549.549-.16,1.488.616,1.488h1.257v3.604c-1.624.205-3.145.738-4.5,1.53v-2.134h1.257c.776,0,1.165-.939.616-1.488l-2.757-2.757c-.34-.34-.892-.34-1.233,0l-2.757,2.757c-.549.549-.16,1.488.616,1.488h1.257v4.619C1.169,14.22.051,17.112.051,20.107c.03,2.146,1.826,3.893,4.002,3.893h2.447c.829,0,1.5-.672,1.5-1.5s-.671-1.5-1.5-1.5h-2.447c-.545,0-.995-.42-1.002-.931,0-4.923,4.004-9.057,8.926-9.069h.023c3.82,0,7.143,2.429,8.468,6.191.326.926.488,1.872.481,2.812-.004.549-.456.996-1.007.996h-2.443c-.829,0-1.5.672-1.5,1.5s.671,1.5,1.5,1.5h2.443c2.194,0,3.992-1.784,4.007-3.976.009-1.288-.21-2.576-.651-3.829Z"/>
</svg>
