<?xml version="1.0" encoding="UTF-8"?>
<svg xmlns="http://www.w3.org/2000/svg" id="Layer_1" data-name="Layer 1" viewBox="0 0 24 24">
  <path d="m23.976,17.305l-2.044-11.587c-.381-2.154-2.245-3.717-4.432-3.717H6.5c-2.187,0-4.051,1.563-4.432,3.718L.024,17.305c-.384,2.175,1.052,4.27,3.202,4.67.093.018.185.025.276.025.708,0,1.339-.504,1.473-1.226.152-.814-.386-1.598-1.2-1.749-.529-.099-.894-.647-.796-1.199l1.764-9.994,1.698,9.624c.464,2.633,2.742,4.544,5.416,4.544h8.181c1.186,0,2.302-.521,3.064-1.429.762-.908,1.081-2.099.875-3.267Zm-3.173,1.338c-.112.134-.36.357-.766.357h-8.181c-1.215,0-2.251-.868-2.462-2.065l-2.106-11.935h10.212c.729,0,1.351.521,1.478,1.239l2.044,11.587c.07.399-.107.684-.219.816Zm-9.303-7.643c-.829,0-1.5-.671-1.5-1.5s.671-1.5,1.5-1.5h4.5c.829,0,1.5.671,1.5,1.5s-.671,1.5-1.5,1.5h-4.5Zm7,3.5c0,.828-.671,1.5-1.5,1.5h-4.5c-.829,0-1.5-.672-1.5-1.5s.671-1.5,1.5-1.5h4.5c.829,0,1.5.672,1.5,1.5Z"/>
</svg>
