<?xml version="1.0" encoding="UTF-8"?>
<svg xmlns="http://www.w3.org/2000/svg" id="Layer_1" data-name="Layer 1" viewBox="0 0 24 24">
  <path d="m15,15.473v.003c0,.37-.204.709-.531.883l-2.001,1.061c-.293.155-.643.155-.935,0l-2.001-1.061c-.327-.173-.531-.513-.531-.883v-.003c0-.753.801-1.235,1.467-.883l1.533.813,1.533-.813c.665-.353,1.467.13,1.467.883Zm8-7.107v7.268c0,1.681-.898,3.244-2.345,4.08l-6.333,3.662c-.716.415-1.52.622-2.322.622s-1.606-.207-2.322-.622l-6.333-3.662c-1.446-.836-2.345-2.399-2.345-4.08v-7.268c0-1.681.898-3.244,2.345-4.08L9.678.624c1.432-.829,3.213-.829,4.645,0l6.333,3.662c1.446.836,2.345,2.399,2.345,4.08Zm-17.564-1.824l5.744,3.322c.507.292,1.136.292,1.641,0l5.744-3.322-5.744-3.322c-.507-.292-1.136-.292-1.641,0l-5.744,3.322Zm14.564,9.092v-2.194l-1.536.808c-.665.35-1.464-.133-1.464-.884v-.007c0-.371.206-.712.534-.884l2.466-1.295v-2l-5.678,3.283c-.716.415-1.52.622-2.322.622s-1.606-.207-2.322-.622l-5.678-3.283v1.973l2.472,1.321c.325.174.528.512.528.881,0,.754-.804,1.236-1.469.881l-1.531-.817v2.218c0,.613.324,1.181.847,1.483l6.333,3.662c.507.292,1.136.292,1.641,0l6.333-3.662c.522-.302.847-.871.847-1.483Z"/>
</svg>
