<?xml version="1.0" encoding="UTF-8"?>
<svg xmlns="http://www.w3.org/2000/svg" id="Layer_1" data-name="Layer 1" viewBox="0 0 24 24">
  <path d="M22.385,6.615c-.931-.931-2.137-1.463-3.429-1.57-.106-1.295-.637-2.504-1.566-3.434-1.039-1.039-2.42-1.611-3.89-1.611H5.5c-1.465,0-2.846,.574-3.887,1.615C.572,2.656,0,4.037,0,5.502l.005,11.622c-.025,1.291,1.363,2.239,2.551,1.739l3.522-1.477c.426,2.612,2.692,4.613,5.422,4.613h5.5l4.443,1.863c1.188,.5,2.576-.449,2.551-1.739l.005-11.623c0-1.465-.572-2.846-1.613-3.887ZM3,5.501c0-.664,.261-1.291,.735-1.765,.474-.475,1.101-.736,1.765-.736H13.5c.668,0,1.296,.26,1.769,.732,.472,.472,.731,1.1,.731,1.768v6c0,1.378-1.121,2.5-2.5,2.5H6.697c-.199,0-.396,.04-.58,.117l-3.113,1.305-.004-9.921Zm17.994,14.921l-3.113-1.305c-.184-.077-.381-.117-.58-.117h-5.802c-1.208,0-2.218-.861-2.45-2h4.451c3.032,0,5.5-2.467,5.5-5.5v-3.448c.474,.097,.911,.331,1.263,.684,.475,.475,.735,1.102,.735,1.765l-.004,9.921ZM10,5.8c0-.442,.358-.8,.8-.8h3.4c.442,0,.8,.358,.8,.8s-.358,.8-.8,.8h-.9v4.601c0,.442-.358,.8-.8,.8s-.8-.358-.8-.8V6.6h-.9c-.442,0-.8-.358-.8-.8Zm-1.012,1.218c-.117-1.171-1.19-2.018-2.367-2.018h-1.122c-.552,0-1,.448-1,1v5.2c0,.442,.358,.8,.8,.8s.8-.358,.8-.8v-1.7h.65c1.319,0,2.373-1.135,2.238-2.482Zm-2.888-.418h.65c.358,0,.65,.292,.65,.65s-.292,.65-.65,.65h-.65v-1.3Z"/>
</svg>
