<?xml version="1.0" encoding="UTF-8"?>
<svg xmlns="http://www.w3.org/2000/svg" id="Layer_1" data-name="Layer 1" viewBox="0 0 24 24">
  <path d="m6.113,6.737c.237-.798.904-1.435,1.709-1.647.944-.25,1.832.042,2.428.628.451-.443,1.068-.718,1.75-.718s1.299.275,1.75.718c.597-.586,1.484-.878,2.428-.628.804.213,1.472.85,1.709,1.647.453,1.527-.512,2.933-1.887,3.213v1.55c0,.828-.672,1.5-1.5,1.5h-5c-.828,0-1.5-.672-1.5-1.5v-1.55c-1.375-.279-2.34-1.686-1.887-3.213Zm16.887-1.237v13c0,3.032-2.467,5.5-5.5,5.5H5.5c-2.378,0-4.31-1.859-4.469-4.197-.02-.098-.031-.199-.031-.303V5.5C1,2.468,3.467,0,6.5,0h11c3.033,0,5.5,2.468,5.5,5.5Zm-19,0v9.776c.471-.168.971-.276,1.5-.276h14.5V5.5c0-1.379-1.122-2.5-2.5-2.5H6.5c-1.378,0-2.5,1.121-2.5,2.5Zm16,13v-.5H5.5c-.827,0-1.5.673-1.5,1.5s.673,1.5,1.5,1.5h12c1.378,0,2.5-1.121,2.5-2.5Z"/>
</svg>
