<?xml version="1.0" encoding="UTF-8"?>
<svg xmlns="http://www.w3.org/2000/svg" id="Layer_1" data-name="Layer 1" viewBox="0 0 24 24">
  <path d="m12,5c1.381,0,2.5-1.119,2.5-2.5s-1.119-2.5-2.5-2.5-2.5,1.119-2.5,2.5,1.119,2.5,2.5,2.5Zm6,0c1.381,0,2.5-1.119,2.5-2.5s-1.119-2.5-2.5-2.5-2.5,1.119-2.5,2.5,1.119,2.5,2.5,2.5Zm-12,0c1.381,0,2.5-1.119,2.5-2.5S7.381,0,6,0s-2.5,1.119-2.5,2.5,1.119,2.5,2.5,2.5Zm10.955,5.136c-.667-2.667-2.426-4.136-4.955-4.136s-4.289,1.469-4.955,4.136c-.332,1.326-1.193,6.753-1.759,10.411-.281,1.818,1.126,3.453,2.966,3.453h7.497c1.84,0,3.247-1.635,2.966-3.453-.566-3.658-1.427-9.085-1.759-10.411Zm-7.955-.384c0-.6.668-.957,1.167-.625l1.833,1.222,1.833-1.222c.499-.333,1.167.025,1.167.625v3.116c0,.334-.167.647-.445.832l-1.445.964c-.672.448-1.547.448-2.219,0l-1.445-.964c-.278-.185-.445-.498-.445-.832v-3.116Zm-.755,11.248c.202-1.317.457-2.949.712-4.529l1.712,1.141c.806.537,1.857.537,2.663,0l1.712-1.141c.255,1.58.51,3.211.712,4.529h-7.51Zm-1.181-14.981c-.905.932-1.589,2.147-1.96,3.631-.024.097-.052.218-.08.351-.12.233-.23.507-.319.862-.107.429-.488,2.428-1.703,10.284.509.24.863.754.863,1.353,0,.828-.672,1.5-1.5,1.5-.236,0-.683-.149-.7-.158-1.126-.559-1.837-1.801-1.63-3.142.566-3.658,1.427-9.239,1.759-10.565.693-2.774,2.57-4.252,5.264-4.129.003.008.002.004.005.012Zm15.335,17.823c-.017.008-.464.158-.7.158-.828,0-1.5-.672-1.5-1.5,0-.6.354-1.113.863-1.353-1.215-7.855-1.596-9.855-1.703-10.284-.089-.355-.199-.628-.319-.862-.029-.133-.056-.254-.08-.351-.371-1.484-1.054-2.699-1.96-3.631.003-.008.002-.004.005-.012,2.694-.123,4.571,1.354,5.264,4.129.332,1.326,1.193,6.907,1.759,10.565.207,1.341-.504,2.583-1.63,3.142Z"/>
</svg>
