<?xml version="1.0" encoding="UTF-8"?>
<svg xmlns="http://www.w3.org/2000/svg" id="Layer_1" data-name="Layer 1" viewBox="0 0 24 24">
  <path d="m12,10.849l-4.004-2.288,3.023-1.728c.608-.347,1.354-.347,1.962,0l3.023,1.728-4.004,2.288Zm-5-.554v3.428c0,.709.38,1.364.996,1.716l3.004,1.717v-4.576l-4-2.286Zm10,3.428v-3.428l-4,2.286v4.576l3.004-1.717c.616-.352.996-1.007.996-1.716Zm5.5-5.125v6.805c0,1.61-.869,3.107-2.268,3.907l-6,3.429c-.688.393-1.461.589-2.232.589s-1.543-.196-2.232-.589l-6-3.429c-1.398-.8-2.268-2.297-2.268-3.907v-6.805c0-1.61.869-3.107,2.268-3.907l6-3.429h0c1.377-.785,3.086-.785,4.463,0l6.001,3.429c1.398.8,2.268,2.297,2.268,3.907Zm-3,6.805v-6.536l-2.5,1.428v-.017c0-.709-.38-1.364-.996-1.716l2.477-1.415-5.737-3.278c-.459-.262-1.03-.262-1.489,0l-5.736,3.278,2.477,1.415c-.616.352-.996,1.007-.996,1.716v.017l-2.5-1.428v6.536c0,.537.29,1.036.756,1.302l5.744,3.282v-2.831l.019.011c.608.347,1.354.347,1.962,0l.019-.011v2.831l5.744-3.283c.466-.266.756-.765.756-1.302Z"/>
</svg>
