<?xml version="1.0" encoding="UTF-8"?>
<svg xmlns="http://www.w3.org/2000/svg" id="Layer_1" data-name="Layer 1" viewBox="0 0 24 24">
  <path d="m24,20.5c0,1.933-1.567,3.5-3.5,3.5s-3.5-1.567-3.5-3.5,1.567-3.5,3.5-3.5,3.5,1.567,3.5,3.5Zm-5-10.5h-2.5c-1.378,0-2.5-1.121-2.5-2.5V2.5c0-1.379,1.122-2.5,2.5-2.5h2.5c.398,0,.779.158,1.061.439l1.5,1.5c.281.281.439.663.439,1.061v8.998h.951c.69,0,1.036.834.548,1.322l-2.451,2.451c-.303.302-.793.302-1.096,0l-2.451-2.451c-.488-.488-.142-1.322.548-1.322h.951v-1.998Zm-2-3h2v-3.379l-.621-.621h-1.379v4Zm-1,4.76v3.466c0,.428-.347.775-.775.775h-3.466c-.69,0-1.036-.834-.548-1.322l.672-.672-4.005-4.005h-3.379c-1.378,0-2.5-1.121-2.5-2.5V2.5c0-1.379,1.122-2.5,2.5-2.5h2.5c.398,0,.779.158,1.061.439l1.5,1.5c.281.281.439.663.439,1.061v4.879l4.005,4.005.672-.672c.488-.488,1.322-.142,1.322.548ZM5,7h2v-3.379l-.621-.621h-1.379v4Zm10.773,12.952c.302.302.302.793,0,1.096l-2.451,2.451c-.488.488-1.322.142-1.322-.548v-.951h-2.051c-.232,1.14-1.242,2-2.449,2h-3c-1.378,0-2.5-1.121-2.5-2.5v-5c0-1.379,1.122-2.5,2.5-2.5h2.5c.398,0,.779.158,1.061.439l1.5,1.5c.281.281.439.663.439,1.061v2h2v-.951c0-.69.834-1.036,1.322-.548l2.451,2.451Zm-8.773-2.331l-.621-.621h-1.379v4h2v-3.379Z"/>
</svg>
