<?xml version="1.0" encoding="UTF-8"?>
<svg xmlns="http://www.w3.org/2000/svg" id="Layer_1" data-name="Layer 1" viewBox="0 0 24 24">
  <path d="m18.346,13.773c-.601-1.031-2.091-1.031-2.692,0l-4.599,7.884c-.606,1.039.143,2.343,1.346,2.343h9.198c1.203,0,1.952-1.305,1.346-2.343l-4.599-7.884Zm-1.346,9.227c-.552,0-1-.448-1-1s.448-1,1-1,1,.448,1,1-.448,1-1,1Zm1-4c0,.552-.448,1-1,1s-1-.448-1-1v-2c0-.552.448-1,1-1s1,.448,1,1v2Zm-2-9.5V1.5c0-.828.672-1.5,1.5-1.5s1.5.672,1.5,1.5v8c0,.828-.672,1.5-1.5,1.5s-1.5-.672-1.5-1.5Zm-5,0V1.5c0-.828.672-1.5,1.5-1.5s1.5.672,1.5,1.5v8c0,.828-.672,1.5-1.5,1.5s-1.5-.672-1.5-1.5Zm13-6v10c0,.828-.672,1.5-1.5,1.5s-1.5-.672-1.5-1.5V3.5c0-.828.672-1.5,1.5-1.5s1.5.672,1.5,1.5Zm-15,0v12.294c0,1.281-.765,2.427-1.949,2.917-.057.023-.114.046-.172.065l.45.482c.297.316.632.599.995.838.692.455.884,1.385.429,2.077-.288.438-.767.676-1.254.676-.283,0-.569-.08-.823-.247-.56-.367-1.077-.804-1.537-1.294,0,0-4.688-5.025-4.723-5.071-.523-.71-.636-1.847.162-2.646.782-.783,1.898-.704,2.598-.225.078.053,2.561,2.543,2.561,2.543.023.024.072.068.167.03.097-.04.097-.106.097-.146V3.5c0-.828.672-1.5,1.5-1.5s1.5.672,1.5,1.5Z"/>
</svg>
