<?xml version="1.0" encoding="UTF-8"?>
<svg xmlns="http://www.w3.org/2000/svg" id="Layer_1" data-name="Layer 1" viewBox="0 0 24 24">
  <path d="m11.5,13c.829,0,1.5-.672,1.5-1.5s-.671-1.5-1.5-1.5h-7.02l6.52-3.481,4.449,2.376c.226.12.467.177.706.177.535,0,1.054-.288,1.324-.793.391-.731.114-1.64-.616-2.03l-4.691-2.505,1.832-1.235c.427-.288.363-.935-.113-1.133L10.762.071c-.6-.25-1.262.191-1.262.841v3.007L1.327,8.283C.509,8.72,0,9.566,0,10.494,0,11.702.86,12.713,2,12.948v8.052h-.5c-.829,0-1.5.672-1.5,1.5s.671,1.5,1.5,1.5h6.5c.252,0,.485-.068.693-.177,0,0,0,0,0,0,.477-.251.807-.746.807-1.323,0-.285-.084-.549-.222-.776-.168-.548-.278-1.121-.278-1.724,0-1.135.246-2.244.677-3.273.228-.543.323-1.132.323-1.721v-2.006h1.5Zm-4.501,8h-1.999v-8h2v8Zm11.89-7.343c.337-.331.678-.71.947-1.126.43-.664-.042-1.543-.834-1.543h-3.006c-.792,0-1.265.878-.834,1.543.269.416.61.795.947,1.126-2.846.677-5.11,3.349-5.11,6.343,0,2.199,1.794,3.988,4,3.988h5c2.206,0,4-1.789,4-3.988,0-2.994-2.264-5.666-5.11-6.343Zm1.11,7.331h-5c-.552,0-1-.443-1-.988,0-1.978,1.882-3.512,3.5-3.512s3.5,1.534,3.5,3.512c0,.545-.448.988-1,.988Z"/>
</svg>
