<?xml version="1.0" encoding="UTF-8"?>
<svg xmlns="http://www.w3.org/2000/svg" id="Layer_1" data-name="Layer 1" viewBox="0 0 24 24">
  <path d="m18,12c-3.314,0-6,2.686-6,6s2.686,6,6,6,6-2.686,6-6-2.686-6-6-6Zm3.683,5.712l-2.703,2.614c-.452.446-1.052.671-1.653.671s-1.203-.225-1.663-.674l-1.354-1.332c-.395-.387-.4-1.02-.014-1.414.386-.395,1.019-.401,1.414-.014l1.354,1.331c.144.142.38.139.522-.002l2.713-2.624c.397-.381,1.031-.37,1.414.029.382.398.369,1.031-.029,1.414Zm-10.683,4.788c0,.828-.671,1.5-1.5,1.5h-4c-3.033,0-5.5-2.468-5.5-5.5v-8.614c0-1.83.906-3.534,2.423-4.559L8.924.941c1.868-1.261,4.284-1.262,6.153,0l6.923,4.707c1.12.923,1.833,2.245,1.975,3.707.08.824-.524,1.558-1.349,1.638-.823.083-1.558-.523-1.638-1.349-.072-.745-.469-1.412-1.09-1.831l-6.5-4.386c-.85-.574-1.947-.574-2.796,0l-6.5,4.386c-.689.466-1.102,1.24-1.102,2.072v8.614c0,1.379,1.122,2.5,2.5,2.5h4c.829,0,1.5.672,1.5,1.5Z"/>
</svg>
