<?xml version="1.0" encoding="UTF-8"?>
<svg xmlns="http://www.w3.org/2000/svg" id="Layer_1" data-name="Layer 1" viewBox="0 0 24 24">
  <path d="M6.5,11h3l1.75,1.75c.414,.414,1.086,.414,1.5,0l1.75-1.75h3c1.933,0,3.5-1.567,3.5-3.5V3.5c0-1.933-1.567-3.5-3.5-3.5H6.5c-1.933,0-3.5,1.567-3.5,3.5V7.5c0,1.933,1.567,3.5,3.5,3.5ZM14.706,3.6c-.442,0-.8-.358-.8-.8s.358-.8,.8-.8h2.444c.721,0,1.306,.585,1.306,1.306,0,.266-.082,.527-.234,.745l-2.329,3.35h1.763c.442,0,.8,.358,.8,.8s-.358,.8-.8,.8h-2.444c-.721,0-1.306-.585-1.306-1.306,0-.266,.082-.526,.234-.745l2.329-3.349h-1.763Zm-2.45,.801h.4c.442,0,.8,.358,.8,.8s-.358,.8-.8,.8h-.4c-.442,0-.8-.358-.8-.8s.358-.8,.8-.8Zm-5.664-1.018c.333-1.804,2.992-1.814,3.303,.04l1.04,4.581c.115,.508-.271,.991-.791,.991-.38,0-.71-.264-.792-.636l-.08-.358h-2.148l-.097,.401c-.084,.348-.395,.593-.753,.593-.498,0-.866-.463-.755-.948l1.072-4.664Zm2.325,3.018h-1.407l.646-2.678c.019-.068,.05-.122,.097-.122,.014,.01,.057,.063,.082,.176l.583,2.624Zm15.083,16.1c0,.828-.671,1.5-1.5,1.5H1.5c-.829,0-1.5-.672-1.5-1.5s.671-1.5,1.5-1.5h7.851c-.261-.911-.967-2-2.851-2H1.5c-.829,0-1.5-.672-1.5-1.5s.671-1.5,1.5-1.5H6.5c3.034,0,4.735,1.704,5.5,3.553,.765-1.849,2.466-3.553,5.5-3.553h5c.829,0,1.5,.672,1.5,1.5s-.671,1.5-1.5,1.5h-5c-1.905,0-2.601,1.111-2.855,2h7.855c.829,0,1.5,.672,1.5,1.5Z"/>
</svg>
