<?xml version="1.0" encoding="UTF-8"?>
<svg xmlns="http://www.w3.org/2000/svg" id="Layer_1" data-name="Layer 1" viewBox="0 0 24 24">
  <path d="m23.965,18.383l-.935-7.941c-.205-1.735-1.319-3.264-2.908-3.988-.752-.346-1.643-.012-1.987.742-.344.753-.012,1.643.742,1.986.642.293,1.091.91,1.174,1.611l.055.471-9.455,4.503-6.452-5.708c.206-.377.517-.691.924-.877.753-.345,1.085-1.234.741-1.988-.344-.753-1.234-1.087-1.988-.74-1.589.727-2.703,2.255-2.907,3.989L.036,18.383c-.168,1.425.283,2.857,1.236,3.93.953,1.072,2.323,1.688,3.758,1.688h13.94c1.435,0,2.805-.615,3.758-1.688s1.404-2.504,1.237-3.93Zm-20.452,1.937c-.39-.439-.567-1.002-.499-1.586l.609-5.179,8.417,7.446h-7.011c-.587,0-1.126-.242-1.517-.681Zm16.973,0c-.391.438-.929.681-1.517.681h-2.403l-3.474-3.073,7.384-3.516.509,4.323c.068.584-.109,1.146-.499,1.586Zm-9.374-9.194c.493.482,1.281.482,1.774,0l2.648-2.59c1.953-1.953,1.953-5.118,0-7.071C14.559.488,13.28,0,12,0c-1.28,0-2.559.488-3.536,1.464-1.953,1.953-1.953,5.118,0,7.071l2.648,2.59Zm.887-7.572c.828,0,1.5.672,1.5,1.5s-.672,1.5-1.5,1.5-1.5-.672-1.5-1.5.672-1.5,1.5-1.5Z"/>
</svg>
