<?xml version="1.0" encoding="UTF-8"?>
<svg xmlns="http://www.w3.org/2000/svg" id="Layer_1" data-name="Layer 1" viewBox="0 0 24 24">
  <path d="m18.89,13.669c.337-.331.678-.71.947-1.126.43-.664-.042-1.543-.834-1.543h-3.006c-.792,0-1.265.878-.834,1.543.269.416.61.795.947,1.126-2.846.677-5.11,3.349-5.11,6.343,0,2.199,1.794,3.988,4,3.988h5c2.206,0,4-1.789,4-3.988,0-2.994-2.264-5.666-5.11-6.343Zm1.11,7.331h-5c-.552,0-1-.443-1-.988,0-1.978,1.882-3.512,3.5-3.512s3.5,1.534,3.5,3.512c0,.545-.448.988-1,.988Zm4-13.5v2c0,.829-.672,1.5-1.5,1.5s-1.5-.671-1.5-1.5v-.5H3v9.5c0,1.378,1.122,2.5,2.5,2.5h2c.829,0,1.5.671,1.5,1.5s-.671,1.5-1.5,1.5h-2c-3.033,0-5.5-2.467-5.5-5.5V7.5C0,4.467,2.467,2,5.5,2h.5v-.5c0-.829.671-1.5,1.5-1.5s1.5.671,1.5,1.5v.5h6v-.5c0-.829.672-1.5,1.5-1.5s1.5.671,1.5,1.5v.5h.5c3.032,0,5.5,2.467,5.5,5.5Z"/>
</svg>
