<?xml version="1.0" encoding="UTF-8"?>
<svg xmlns="http://www.w3.org/2000/svg" id="Layer_1" data-name="Layer 1" viewBox="0 0 24 24">
  <path d="m12.374,16.015h-1.374v-1.415h1.298c.394,0,.715.321.715.715,0,.367-.282.66-.639.7Zm6.626.985c0,3.866-3.134,7-7,7s-7-3.134-7-7c0-3.351,2.356-6.148,5.5-6.835v-5.165h-1.918c-.663,0-.997-.799-.531-1.271L11.54.193c.253-.256.667-.256.92,0l3.49,3.536c.466.472.131,1.271-.531,1.271h-1.918v5.165c3.144.687,5.5,3.484,5.5,6.835Zm-3.769,1.507c0-.734-.481-1.507-1.058-1.843.275-.381.441-.844.441-1.349,0-1.106-.803-2.022-1.84-2.252v-.263c-.001-.442-.36-.801-.803-.801s-.8.357-.802.799l-.004.201h-.665c-.552,0-1,.448-1,1v6c0,.552.448,1,1,1h.7v.2c0,.442.358.8.8.8s.8-.358.8-.8v-.2l.231-.029c1.237-.146,2.2-1.187,2.2-2.463Zm-2.493-.893h-1.752s.013,1.785.013,1.785h1.738c.492,0,.893-.4.893-.893s-.4-.893-.893-.893Z"/>
</svg>
