<?xml version="1.0" encoding="UTF-8"?>
<svg xmlns="http://www.w3.org/2000/svg" id="Layer_1" data-name="Layer 1" viewBox="0 0 24 24">
  <path d="m18.5,1H5.5C2.468,1,0,3.467,0,6.5v6c0,3.032,2.468,5.5,5.5,5.5h5v2h-2.5c-.828,0-1.5.672-1.5,1.5s.672,1.5,1.5,1.5h8c.828,0,1.5-.672,1.5-1.5s-.672-1.5-1.5-1.5h-2.5v-2h5c3.032,0,5.5-2.468,5.5-5.5v-6c0-3.033-2.468-5.5-5.5-5.5Zm2.5,11.5c0,1.379-1.121,2.5-2.5,2.5H5.5c-1.379,0-2.5-1.121-2.5-2.5v-6c0-1.378,1.121-2.5,2.5-2.5h13c1.379,0,2.5,1.122,2.5,2.5v6Zm-6.793-3.793l-.793.793.793.793c.391.391.391,1.023,0,1.414-.195.195-.451.293-.707.293s-.512-.098-.707-.293l-.793-.793-.793.793c-.195.195-.451.293-.707.293s-.512-.098-.707-.293c-.391-.391-.391-1.023,0-1.414l.793-.793-.793-.793c-.391-.391-.391-1.023,0-1.414s1.023-.391,1.414,0l.793.793.793-.793c.391-.391,1.023-.391,1.414,0s.391,1.023,0,1.414Zm5.5,0l-.793.793.793.793c.391.391.391,1.023,0,1.414-.195.195-.451.293-.707.293s-.512-.098-.707-.293l-.793-.793-.793.793c-.195.195-.451.293-.707.293s-.512-.098-.707-.293c-.391-.391-.391-1.023,0-1.414l.793-.793-.793-.793c-.391-.391-.391-1.023,0-1.414s1.023-.391,1.414,0l.793.793.793-.793c.391-.391,1.023-.391,1.414,0s.391,1.023,0,1.414Zm-11,0l-.793.793.793.793c.391.391.391,1.023,0,1.414-.195.195-.451.293-.707.293s-.512-.098-.707-.293l-.793-.793-.793.793c-.195.195-.451.293-.707.293s-.512-.098-.707-.293c-.391-.391-.391-1.023,0-1.414l.793-.793-.793-.793c-.391-.391-.391-1.023,0-1.414s1.023-.391,1.414,0l.793.793.793-.793c.391-.391,1.023-.391,1.414,0s.391,1.023,0,1.414Z"/>
</svg>
