<?xml version="1.0" encoding="UTF-8"?>
<svg xmlns="http://www.w3.org/2000/svg" id="Layer_1" data-name="Layer 1" viewBox="0 0 24 24">
  <path d="M11,2.5c0-1.381,1.119-2.5,2.5-2.5s2.5,1.119,2.5,2.5-1.119,2.5-2.5,2.5-2.5-1.119-2.5-2.5Zm10,11.5v8.5c0,.829-.671,1.5-1.5,1.5s-1.5-.671-1.5-1.5v-7.605c-.962-.557-1.859-1.224-2.681-1.974-.157,1.513-.285,3.244-.313,5.61h0c-.015,1.192-.877,2.188-2.006,2.419v1.55c0,.829-.671,1.5-1.5,1.5s-1.5-.671-1.5-1.5v-1.5h-1v1.5c0,.829-.671,1.5-1.5,1.5s-1.5-.671-1.5-1.5v-1.848c-.407-.193-.781-.457-1.09-.796-.659-.724-.985-1.699-.895-2.674,.663-7.107,3.391-11.183,7.485-11.183,1.884-.088,3.283,1.462,4.209,2.912,1.166,1.574,2.708,2.87,4.461,3.746,.508,.254,.829,.774,.829,1.342Zm-13.998,3.461c.012,.348,.138,.492,.5,.539h4.511c.061-3.35,.324-5.527,.558-7.458,.159-.773-.181-1.493-1.071-1.542-3.529,0-4.366,7.048-4.498,8.461Z"/>
</svg>
