<?xml version="1.0" encoding="UTF-8"?>
<svg xmlns="http://www.w3.org/2000/svg" id="Layer_1" data-name="Layer 1" viewBox="0 0 24 24">
  <path d="m17,2.5c0-1.381,1.119-2.5,2.5-2.5s2.5,1.119,2.5,2.5-1.119,2.5-2.5,2.5-2.5-1.119-2.5-2.5Zm7,7.5v4c0,1.474-.81,2.75-2,3.444v5.056c0,.829-.671,1.5-1.5,1.5h-2c-.829,0-1.5-.671-1.5-1.5v-5.056c-.221-.129-.426-.276-.618-.444h-1.382v4.5c0,.829-.671,1.5-1.5,1.5s-1.5-.671-1.5-1.5v-5.056c-.221-.129-.426-.276-.618-.444h-1.382v4.5c0,.829-.671,1.5-1.5,1.5s-1.5-.671-1.5-1.5v-5.056c-.221-.129-.426-.276-.618-.444h-1.382v4.5c0,.829-.671,1.5-1.5,1.5s-1.5-.671-1.5-1.5v-5.056c-1.19-.694-2-1.97-2-3.444v-1.5c0-1.93,1.57-3.5,3.5-3.5h.779c-.793.952-1.279,2.167-1.279,3.5v1.5c0,.551.449,1,1,1h1v-2.5c0-1.93,1.57-3.5,3.5-3.5h.779c-.793.952-1.279,2.167-1.279,3.5v2.5c0,.551.449,1,1,1h1v-3.5c0-1.93,1.57-3.5,3.5-3.5h.779c-.793.952-1.279,2.167-1.279,3.5v3.5c0,.551.449,1,1,1h1v-4c0-2.206,1.794-4,4-4h1c2.206,0,4,1.794,4,4Zm-6,4c0,.551.449,1,1,1h1c.551,0,1-.449,1-1v-4c0-.551-.449-1-1-1h-1c-.551,0-1,.449-1,1v4Zm-3.5-9c.403,0,.778-.104,1.115-.273-.381-.659-.615-1.412-.615-2.227s.234-1.568.614-2.227c-.337-.169-.711-.273-1.114-.273-1.381,0-2.5,1.119-2.5,2.5s1.119,2.5,2.5,2.5Zm-5,0c.403,0,.778-.104,1.115-.273-.381-.659-.615-1.412-.615-2.227s.234-1.568.614-2.227c-.337-.169-.711-.273-1.114-.273-1.381,0-2.5,1.119-2.5,2.5s1.119,2.5,2.5,2.5Zm-5,0c.403,0,.778-.104,1.115-.273-.381-.659-.615-1.412-.615-2.227s.234-1.568.614-2.227c-.337-.169-.711-.273-1.114-.273-1.381,0-2.5,1.119-2.5,2.5s1.119,2.5,2.5,2.5Z"/>
</svg>
