<?xml version="1.0" encoding="UTF-8"?>
<svg xmlns="http://www.w3.org/2000/svg" id="Layer_1" data-name="Layer 1" viewBox="0 0 24 24">
  <path d="m8.092,2.5c0-1.381,1.119-2.5,2.5-2.5s2.5,1.119,2.5,2.5-1.119,2.5-2.5,2.5-2.5-1.119-2.5-2.5ZM1.485,11.321c.729.391,1.639.118,2.031-.611l.919-1.71h1.342l-.647,1.581c-.523,1.094-.176,2.442.846,3.338l3.024,2.745v1.836c0,.828.671,1.5,1.5,1.5s1.5-.672,1.5-1.5v-2.5c0-.423-.179-.826-.492-1.11l-2.643-2.399.937-2.285,1.045,1.254c.285.342.707.54,1.152.54h2.5c.828,0,1.5-.672,1.5-1.5s-.672-1.5-1.5-1.5h-1.797l-1.151-1.381c-.857-1.029-2.118-1.619-3.457-1.619h-3.958c-.922,0-1.766.504-2.202,1.316l-1.061,1.974c-.392.729-.119,1.639.611,2.031Zm22.042-1.283c-.469-.649-1.227-1.038-2.028-1.038h-2.999c-.828,0-1.5.672-1.5,1.5s.672,1.5,1.5,1.5h2.306l-2.43,7.29c-.341,1.022-1.295,1.71-2.372,1.71H1.5c-.829,0-1.5.672-1.5,1.5s.671,1.5,1.5,1.5h14.504c2.371,0,4.468-1.512,5.218-3.761l2.649-7.948c.254-.761.125-1.603-.344-2.253ZM1.5,17h2c.829,0,1.5-.672,1.5-1.5s-.671-1.5-1.5-1.5H1.5c-.829,0-1.5.672-1.5,1.5s.671,1.5,1.5,1.5Z"/>
</svg>
