<?xml version="1.0" encoding="UTF-8"?>
<svg xmlns="http://www.w3.org/2000/svg" id="Layer_1" data-name="Layer 1" viewBox="0 0 24 24">
  <path d="M16,17.5v4c0,.828-.672,1.5-1.5,1.5s-1.5-.672-1.5-1.5v-.5H1.5c-.829,0-1.5-.672-1.5-1.5s.671-1.5,1.5-1.5H13v-.5c0-.828,.672-1.5,1.5-1.5s1.5,.672,1.5,1.5Zm6.5,.5h-3c-.828,0-1.5,.672-1.5,1.5s.672,1.5,1.5,1.5h3c.828,0,1.5-.672,1.5-1.5s-.672-1.5-1.5-1.5ZM18,2c-3.314,0-6,2.686-6,6s2.686,6,6,6,6-2.686,6-6-2.686-6-6-6Zm-4,4.5c0-.828,.672-1.5,1.5-1.5s1.5,.672,1.5,1.5-.672,1.5-1.5,1.5-1.5-.672-1.5-1.5Zm6.475,4.475c-.661,.661-1.54,1.025-2.475,1.025s-1.813-.364-2.475-1.025c-.391-.391-.391-1.023,0-1.414s1.023-.391,1.414,0c.566,.566,1.555,.566,2.121,0,.391-.391,1.023-.391,1.414,0s.391,1.023,0,1.414Zm.025-2.975c-.828,0-1.5-.672-1.5-1.5s.672-1.5,1.5-1.5,1.5,.672,1.5,1.5-.672,1.5-1.5,1.5ZM6,2C2.686,2,0,4.686,0,8s2.686,6,6,6,6-2.686,6-6S9.314,2,6,2ZM2,6.5c0-.828,.672-1.5,1.5-1.5s1.5,.672,1.5,1.5-.672,1.5-1.5,1.5-1.5-.672-1.5-1.5Zm6.475,4.939c-.391,.391-1.023,.391-1.414,0-.566-.566-1.555-.566-2.121,0-.391,.391-1.023,.391-1.414,0s-.391-1.023,0-1.414c.661-.661,1.54-1.025,2.475-1.025s1.813,.364,2.475,1.025c.391,.391,.391,1.023,0,1.414Zm.025-3.439c-.828,0-1.5-.672-1.5-1.5s.672-1.5,1.5-1.5,1.5,.672,1.5,1.5-.672,1.5-1.5,1.5Z"/>
</svg>
