<?xml version="1.0" encoding="UTF-8"?>
<svg xmlns="http://www.w3.org/2000/svg" id="Layer_1" data-name="Layer 1" viewBox="0 0 24 24">
  <path d="m7.058,4.962c.839,0,1.595.346,2.139.901-1.325.9-2.198,2.419-2.198,4.138,0,.328.036.647.097.958-.013,0-.025.004-.038.004-1.657,0-3-1.343-3-3s1.343-3,3-3Zm9.942.038c-.841,0-1.599.349-2.144.906,1.293.905,2.144,2.399,2.144,4.094,0,.339-.035.67-.1.99.034.001.066.01.1.01,1.657,0,3-1.343,3-3s-1.343-3-3-3Zm-5,10c-1.848,0-3.414,1.162-3.954,2.768-.205.609.295,1.232.96,1.232h5.988c.665,0,1.164-.623.96-1.232-.54-1.606-2.106-2.768-3.954-2.768Zm0-2c1.657,0,3-1.343,3-3s-1.343-3-3-3-3,1.343-3,3,1.343,3,3,3Zm-5.5,8h-1c-1.378,0-2.5-1.121-2.5-2.5v-1c0-.828-.671-1.5-1.5-1.5s-1.5.672-1.5,1.5v1c0,3.032,2.467,5.5,5.5,5.5h1c.829,0,1.5-.672,1.5-1.5s-.671-1.5-1.5-1.5Zm16-5c-.829,0-1.5.672-1.5,1.5v1c0,1.379-1.122,2.5-2.5,2.5h-1c-.829,0-1.5.672-1.5,1.5s.671,1.5,1.5,1.5h1c3.033,0,5.5-2.468,5.5-5.5v-1c0-.828-.671-1.5-1.5-1.5ZM18.5,0h-1c-.829,0-1.5.672-1.5,1.5s.671,1.5,1.5,1.5h1c1.378,0,2.5,1.121,2.5,2.5v1c0,.828.671,1.5,1.5,1.5s1.5-.672,1.5-1.5v-1c0-3.032-2.467-5.5-5.5-5.5ZM1.5,8c.829,0,1.5-.672,1.5-1.5v-1c0-1.379,1.122-2.5,2.5-2.5h1c.829,0,1.5-.672,1.5-1.5s-.671-1.5-1.5-1.5h-1C2.467,0,0,2.468,0,5.5v1c0,.828.671,1.5,1.5,1.5Zm13.267,5.64c1.389.68,2.484,1.866,3.026,3.36h2.2c.665,0,1.164-.623.96-1.232-.54-1.606-2.106-2.768-3.954-2.768-.825,0-1.587.241-2.233.64Zm-11.721,2.127c-.205.609.295,1.232.96,1.232h2.2c.542-1.493,1.638-2.68,3.026-3.36-.646-.399-1.408-.64-2.233-.64-1.848,0-3.414,1.162-3.954,2.768Z"/>
</svg>
