<?xml version="1.0" encoding="UTF-8"?>
<svg xmlns="http://www.w3.org/2000/svg" id="Layer_1" data-name="Layer 1" viewBox="0 0 24 24">
  <path d="M8,22.5c0,.829-.671,1.5-1.5,1.5h-1c-3.033,0-5.5-2.467-5.5-5.5V9.924c0-1.831,.906-3.535,2.424-4.559L9.025,.91c1.807-1.22,4.142-1.221,5.95,0l6.601,4.455c.241,.163,.47,.344,.679,.54,.605,.566,.636,1.515,.07,2.12-.565,.604-1.515,.636-2.12,.07-.095-.089-.198-.17-.307-.244L13.297,3.396c-.789-.532-1.807-.531-2.593,0L4.102,7.851c-.69,.466-1.102,1.241-1.102,2.073v8.576c0,1.378,1.122,2.5,2.5,2.5h1c.829,0,1.5,.671,1.5,1.5Zm15.92-6.59c-.336,1.91-1.824,3.49-3.71,3.945-1.15,.277-2.245,.143-3.193-.267l-3.973,3.973c-.281,.281-.663,.439-1.06,.439h-.935c-.579,0-1.048-.469-1.048-1.048v-1.136c0-.451,.365-.816,.816-.816h1.163v-1.184c0-.451,.365-.816,.816-.816h1.184v-1.5c0-.5,.315-.876,.315-.876-.365-1.058-.472-2.238,.171-3.565,.912-1.883,2.756-3.177,4.845-3.049,2.911,.177,5.149,2.845,4.611,5.9Zm-2.42-1.91c0-.828-.672-1.5-1.5-1.5s-1.5,.672-1.5,1.5,.672,1.5,1.5,1.5,1.5-.672,1.5-1.5Z"/>
</svg>
