<?xml version="1.0" encoding="UTF-8"?>
<svg xmlns="http://www.w3.org/2000/svg" id="Layer_1" data-name="Layer 1" viewBox="0 0 24 24">
  <path d="m16.5,10h-1c-1.379,0-2.5,1.122-2.5,2.5v.5h-5v-1.5c0-.829-.671-1.5-1.5-1.5s-1.5.671-1.5,1.5v11c0,.829.671,1.5,1.5,1.5.652,0,1.202-.419,1.408-1h8.184c.207.581.756,1,1.408,1,.828,0,1.5-.671,1.5-1.5v-10c0-1.378-1.121-2.5-2.5-2.5Zm-8.5,10v-4h8v1h-.5c-1.379,0-2.5,1.122-2.5,2.5v.5h-5Zm2.5-7c-.828,0-1.5-.672-1.5-1.5s.672-1.5,1.5-1.5,1.5.672,1.5,1.5-.672,1.5-1.5,1.5Zm0,7c-.828,0-1.5-.672-1.5-1.5s.672-1.5,1.5-1.5,1.5.672,1.5,1.5-.672,1.5-1.5,1.5Zm13.5-10.114v12.614c0,.829-.672,1.5-1.5,1.5s-1.5-.671-1.5-1.5v-12.614c0-.833-.412-1.607-1.102-2.072l-6.5-4.387c-.85-.572-1.947-.573-2.797,0l-6.5,4.386c-.69.466-1.102,1.241-1.102,2.073v12.614c0,.829-.671,1.5-1.5,1.5s-1.5-.671-1.5-1.5v-12.614c0-1.831.906-3.535,2.424-4.559L8.924.941c1.869-1.261,4.283-1.261,6.152,0l6.5,4.387c1.518,1.023,2.424,2.728,2.424,4.559Z"/>
</svg>
