<?xml version="1.0" encoding="UTF-8"?>
<svg xmlns="http://www.w3.org/2000/svg" id="Layer_1" data-name="Layer 1" viewBox="0 0 24 24">
  <path d="M19.5,0h-1c-1.933,0-3.5,1.567-3.5,3.5v2.5h-6v-1.3c0-2.349-1.713-4.45-4.051-4.678C2.267-.239,0,1.87,0,4.5v15c0,2.485,2.015,4.5,4.5,4.5h14.864c2.494,.103,4.732-2.076,4.636-4.554V4.5c0-2.485-2.015-4.5-4.5-4.5ZM3,19.5c0-.827,.673-1.5,1.5-1.5s1.5,.673,1.5,1.5-.673,1.5-1.5,1.5-1.5-.673-1.5-1.5ZM4.5,3c.827,0,1.5,.673,1.5,1.5V15.276c-.471-.168-.971-.276-1.5-.276s-1.029,.108-1.5,.276V4.5c0-.827,.673-1.5,1.5-1.5ZM21,19.518c.006,.799-.7,1.5-1.5,1.482H8.724c.171-.471,.243-.989,.276-1.5V9h6v5.5c0,1.93,1.57,3.5,3.5,3.5h.83c.916,.001,1.688,.687,1.67,1.518Zm0-4.223c-.52-.19-1.082-.295-1.67-.295h-.83c-.275,0-.5-.225-.5-.5V3.5c0-.276,.225-.5,.5-.5h1c.827,0,1.5,.673,1.5,1.5V15.295Z"/>
</svg>
