<?xml version="1.0" encoding="UTF-8"?>
<svg xmlns="http://www.w3.org/2000/svg" id="Layer_1" data-name="Layer 1" viewBox="0 0 24 24">
  <path d="M13.64,8.956c-.853,.853-.853,2.236,0,3.088,.464,.464,1.084,.666,1.691,.626-.041,.607,.162,1.227,.626,1.691,.853,.853,2.235,.853,3.088,0,.464-.464,.666-1.084,.626-1.691,.607,.041,1.227-.162,1.691-.626,.853-.853,.853-2.235,0-3.088-.464-.464-1.084-.666-1.691-.626,.041-.607-.162-1.227-.626-1.691-.853-.853-2.235-.853-3.088,0-.464,.464-.666,1.084-.626,1.691-.607-.041-1.227,.162-1.691,.626Zm3.86,.044c.828,0,1.5,.672,1.5,1.5s-.672,1.5-1.5,1.5-1.5-.672-1.5-1.5,.672-1.5,1.5-1.5Zm6.5,5.5c0,3.706-5.159,6.5-12,6.5S0,18.206,0,14.5c0-2.209,1.854-4.149,5-5.329v-.171c0-3.86,3.14-7,7-7,.877,0,1.734,.161,2.546,.478,.771,.302,1.152,1.171,.852,1.943s-1.171,1.152-1.943,.852c-.462-.181-.952-.272-1.454-.272-2.206,0-4,1.794-4,4v1.17c.664,.448,1.633,.974,2.796,1.208,.812,.164,1.338,.954,1.175,1.767-.144,.712-.77,1.205-1.469,1.205-.098,0-.197-.01-.297-.03-2.107-.424-3.722-1.495-4.58-2.172-1.782,.754-2.624,1.693-2.624,2.353,0,1.427,3.506,3.5,9,3.5s9-2.073,9-3.5c0-.829,.672-1.5,1.5-1.5s1.5,.671,1.5,1.5Z"/>
</svg>
