<?xml version="1.0" encoding="UTF-8"?>
<svg xmlns="http://www.w3.org/2000/svg" id="Layer_1" data-name="Layer 1" viewBox="0 0 24 24">
  <path d="M5.953,21.748c-.174,.677-.784,1.126-1.452,1.126-.124,0-.25-.016-.375-.048-2.429-.626-4.126-2.816-4.126-5.327V6.5C0,3.467,2.467,1,5.5,1h2.528c.54,0,1.081,.127,1.564,.369l3.156,1.579c.068,.034,.146,.053,.224,.053h5.528c2.511,0,4.702,1.697,5.327,4.126,.207,.802-.276,1.62-1.079,1.826-.799,.208-1.62-.277-1.826-1.079-.284-1.103-1.28-1.874-2.421-1.874h-5.528c-.54,0-1.081-.127-1.564-.369l-3.156-1.579c-.068-.034-.146-.053-.224-.053h-2.528c-1.378,0-2.5,1.122-2.5,2.5v11c0,1.142,.771,2.137,1.874,2.421,.802,.207,1.285,1.024,1.079,1.827Zm18.047-7.248v4c0,2.481-2.019,4.5-4.5,4.5H11.5c-2.481,0-4.5-2.019-4.5-4.5v-6c0-2.481,2.019-4.5,4.5-4.5h1.056c.54,0,1.081,.127,1.564,.369l3.156,1.579c.068,.034,.146,.053,.224,.053h2c2.481,0,4.5,2.019,4.5,4.5Zm-3,0c0-.827-.673-1.5-1.5-1.5h-2c-.54,0-1.081-.127-1.564-.369l-3.156-1.579c-.068-.034-.146-.053-.224-.053h-1.056c-.827,0-1.5,.673-1.5,1.5v6c0,.827,.673,1.5,1.5,1.5h8c.827,0,1.5-.673,1.5-1.5v-4Z"/>
</svg>
