<?xml version="1.0" encoding="UTF-8"?>
<svg xmlns="http://www.w3.org/2000/svg" id="Layer_1" data-name="Layer 1" viewBox="0 0 24 24">
  <path d="m16.5,2.5c0-1.381,1.119-2.5,2.5-2.5s2.5,1.119,2.5,2.5-1.119,2.5-2.5,2.5-2.5-1.119-2.5-2.5Zm7.5,7.5v5c0,1.675-1.037,3.107-2.5,3.702v3.798c0,.829-.671,1.5-1.5,1.5h-2c-.829,0-1.5-.671-1.5-1.5v-3.798c-1.463-.595-2.5-2.028-2.5-3.702v-5c0-2.206,1.794-4,4-4h2c2.206,0,4,1.794,4,4Zm-7,5c0,.551.449,1,1,1h2c.551,0,1-.449,1-1v-5c0-.551-.449-1-1-1h-2c-.551,0-1,.449-1,1v5Zm-2.5-9.5c0,1.381-1.119,2.5-2.5,2.5s-2.5-1.119-2.5-2.5,1.119-2.5,2.5-2.5,2.5,1.119,2.5,2.5Zm-3.702,6.47c.812-.165,1.336-.957,1.172-1.769-.165-.812-.957-1.333-1.769-1.172-1.855.376-3.202,2.046-3.202,3.97v3c0,1.454.793,2.763,2,3.463v3.037c0,.829.671,1.5,1.5,1.5s1.5-.671,1.5-1.5v-4.05c0-.713-.502-1.328-1.201-1.47-.463-.094-.799-.506-.799-.98v-3c0-.487.351-.939.798-1.03Zm-3.298-3.47c0,1.381-1.119,2.5-2.5,2.5s-2.5-1.119-2.5-2.5,1.119-2.5,2.5-2.5,2.5,1.119,2.5,2.5Zm-3.702,6.47c.812-.165,1.336-.957,1.172-1.769-.165-.812-.956-1.333-1.769-1.172-1.855.376-3.202,2.046-3.202,3.97v1c0,1.454.793,2.763,2,3.463v2.037c0,.829.671,1.5,1.5,1.5s1.5-.671,1.5-1.5v-3.05c0-.713-.502-1.328-1.201-1.47-.463-.094-.799-.506-.799-.98v-1c0-.487.351-.939.798-1.03Z"/>
</svg>
