<?xml version="1.0" encoding="UTF-8"?>
<svg xmlns="http://www.w3.org/2000/svg" id="Layer_1" data-name="Layer 1" viewBox="0 0 24 24">
  <path d="M22.5,21h-1.458c.225-5.33,1.223-8.286,2.863-11.712,.466-.973-.735-1.872-1.577-1.196-.52,.418-2.277,2.652-2.918,3.601-.855,3.2-1.355,6.784-1.401,9.308h-1.992c.091-6.803,2.008-13.084,5.731-18.668,.354-.53,.333-1.226-.05-1.734-.384-.509-1.044-.721-1.653-.527-4.892,1.556-7.795,5.33-9.52,9.285-1.542-3.012-3.709-5.348-5.683-7.076-.881-.771-2.219,.18-1.742,1.249,2.51,5.628,4.9,10.971,4.9,17.471h-2.026c0-1.856-.308-5.282-1.414-8.14-.996-1.013-2.433-2.364-2.999-2.705-.855-.516-1.87,.378-1.473,1.294,1.077,2.485,2.484,6.139,2.83,9.552H1.5c-.829,0-1.5,.671-1.5,1.5s.671,1.5,1.5,1.5H22.5c.828,0,1.5-.671,1.5-1.5s-.672-1.5-1.5-1.5Zm-6.131-15.188c-2.171,4.714-3.29,9.801-3.356,15.188h-1.998c.092-2.114,.748-10.411,5.354-15.188Z"/>
</svg>
