<?xml version="1.0" encoding="UTF-8"?>
<svg xmlns="http://www.w3.org/2000/svg" id="Layer_1" data-name="Layer 1" viewBox="0 0 24 24">
  <path d="m18,10v1.722c1.509.445,3,1.594,3,3.778,0,.828-.672,1.5-1.5,1.5s-1.5-.672-1.5-1.5c0-.972-1.347-1-1.5-1-.828,0-1.5-.672-1.5-1.5v-3.5c0-1.379,1.121-2.5,2.5-2.5h2.296c.664,0,1.204-.54,1.204-1.204,0-1.368-1.021-2.546-2.375-2.738-1.788-.253-3.591.383-4.814,1.709-3.192,3.464-5.281,6.503-6.573,9.566-.507,1.201-1.762,1.846-3.183,1.685,1.02,1.575,2.698,2.675,4.674,2.879,1.154.118,2.673.119,4.176.11-.199-1.015-.815-2.613-2.731-3.043-.809-.181-1.317-.983-1.136-1.792.181-.808.986-1.314,1.792-1.136,4.091.916,5.172,4.854,5.172,6.808v1.156h1.5c.828,0,1.5.672,1.5,1.5s-.672,1.5-1.5,1.5h-2c-1.206,0-2.214-.857-2.448-1.994-.363.002-1.753.002-2.079-.002l-.012.639c-.015.819-.683,1.473-1.499,1.473h-.028c-.828-.016-1.487-.699-1.472-1.527l.014-.774c-4.576-.694-7.976-4.639-7.976-9.37v-2.943c0-.828.671-1.5,1.5-1.5s1.5.672,1.5,1.5v1.5c0,1.103.515,1.615.821,1.822.302.205.567.241.701.229,1.434-3.352,3.687-6.635,7.082-10.318C13.498.681,16.282-.302,19.049.087c2.822.403,4.951,2.857,4.951,5.709,0,2.318-1.886,4.204-4.204,4.204h-1.796Z"/>
</svg>
