<?xml version="1.0" encoding="UTF-8"?>
<svg xmlns="http://www.w3.org/2000/svg" id="Layer_1" data-name="Layer 1" viewBox="0 0 24 24">
  <path d="m23.414,11.11l-4.062,4.062c-.673.673-1.478,1.181-2.352,1.512V3c0-.829.671-1.5,1.5-1.5s1.5.671,1.5,1.5v5.867l.51-.51c.704-.704,1.839-.876,2.647-.294,1.03.742,1.116,2.188.257,3.047Zm-9.914-2.11c-.829,0-1.5.671-1.5,1.5v8c0,1.379-1.122,2.5-2.5,2.5s-2.5-1.121-2.5-2.5v-9c0-.829-.671-1.5-1.5-1.5s-1.5.671-1.5,1.5v6.247l-.51-.51c-.704-.704-1.839-.876-2.647-.294-1.03.742-1.116,2.188-.257,3.047l4.062,4.062c1.247,1.248,3.088,1.948,4.852,1.948,3.033,0,5.5-2.468,5.5-5.5v-8c0-.829-.671-1.5-1.5-1.5Zm-4,5c.829,0,1.5-.672,1.5-1.5v-4c0-.829-.671-1.5-1.5-1.5s-1.5.671-1.5,1.5v4c0,.828.671,1.5,1.5,1.5ZM14.5,0c-.829,0-1.5.671-1.5,1.5v4c0,.829.671,1.5,1.5,1.5s1.5-.671,1.5-1.5V1.5c0-.829-.671-1.5-1.5-1.5Zm-4,5.5c.829,0,1.5-.671,1.5-1.5v-.5c0-.829-.671-1.5-1.5-1.5s-1.5.671-1.5,1.5v.5c0,.829.671,1.5,1.5,1.5Z"/>
</svg>
