<?xml version="1.0" encoding="UTF-8"?>
<svg xmlns="http://www.w3.org/2000/svg" id="Layer_1" data-name="Layer 1" viewBox="0 0 24 24">
  <path d="m22.608,8.976s-1.44-1.279-1.646-1.345c-.184-1.48-1.432-2.63-2.963-2.63H6c-1.517,0-2.758,1.13-2.959,2.592-.188.068-1.651,1.389-1.651,1.389C.508,9.826.002,11.01.002,12.231v6.267c-.002,1.47.57,2.852,1.609,3.891s2.42,1.611,3.89,1.611h12.999c3.032,0,5.5-2.468,5.5-5.5v-6.269c0-1.223-.505-2.407-1.392-3.256Zm-5.108-1.976c.83,0,1.5.67,1.5,1.5s-.67,1.5-1.5,1.5-1.5-.67-1.5-1.5.67-1.5,1.5-1.5Zm-5.5,1c1.66,0,3,1.34,3,3s-1.34,3-3,3-3-1.34-3-3,1.34-3,3-3Zm-5.5-1c.83,0,1.5.67,1.5,1.5s-.67,1.5-1.5,1.5-1.5-.67-1.5-1.5.67-1.5,1.5-1.5Zm12,14H5.501c-.668,0-1.296-.26-1.769-.732s-.731-1.1-.731-1.769v-6.22s5.111,5.111,5.111,5.111c1.037,1.036,2.418,1.606,3.888,1.606s2.853-.571,3.89-1.608l5.11-5.11v6.222c0,1.379-1.121,2.5-2.5,2.5ZM5,1.5c0-.828.672-1.5,1.5-1.5h11c.828,0,1.5.672,1.5,1.5s-.672,1.5-1.5,1.5H6.5c-.828,0-1.5-.672-1.5-1.5Z"/>
</svg>
