<?xml version="1.0" encoding="UTF-8"?>
<svg xmlns="http://www.w3.org/2000/svg" id="Layer_1" data-name="Layer 1" viewBox="0 0 24 24">
  <path d="M22.5,21h-.199l-.448-3.136c-.314-2.203-2.229-3.864-4.455-3.864h-.398v-.5c0-.829-.672-1.5-1.5-1.5h-7c-.828,0-1.5,.671-1.5,1.5v.5h-.398c-2.226,0-4.141,1.661-4.455,3.864l-.448,3.136h-.199c-.828,0-1.5,.672-1.5,1.5s.672,1.5,1.5,1.5H22.5c.828,0,1.5-.672,1.5-1.5s-.672-1.5-1.5-1.5Zm-17.383-2.712c.104-.734,.743-1.288,1.484-1.288h10.797c.741,0,1.38,.554,1.484,1.288l.387,2.712H4.73l.387-2.712ZM10.5,5.5V1.5c0-.829,.672-1.5,1.5-1.5s1.5,.671,1.5,1.5V5.5c0,.829-.672,1.5-1.5,1.5s-1.5-.671-1.5-1.5Zm6.939,3.061c-.586-.585-.586-1.536,0-2.121l3-3c.586-.586,1.535-.586,2.121,0,.586,.585,.586,1.536,0,2.121l-3,3c-.293,.293-.677,.439-1.061,.439s-.768-.146-1.061-.439ZM1.439,5.561c-.586-.585-.586-1.536,0-2.121,.586-.586,1.535-.586,2.121,0l3,3c.586,.585,.586,1.536,0,2.121-.293,.293-.677,.439-1.061,.439s-.768-.146-1.061-.439L1.439,5.561Z"/>
</svg>
