<?xml version="1.0" encoding="UTF-8"?>
<svg xmlns="http://www.w3.org/2000/svg" id="Layer_1" data-name="Layer 1" viewBox="0 0 24 24">
  <path d="M22,8c-.231-2.769-2.85-4.857-3-5-.297-1.401-.497-2.075-1-2-.664,.175-1,1.5-1,3-.011,1.06-.451,1.001-1,1-.927,0-2-1.5-2-1.5l.073-.578c.193-.578-.135-1.2-.721-1.367l-1.566-.488c-.603-.173-1.265-.006-1.714,.444l-1.072,1.489c-1.083,0-2.136,.382-2.965,1.08-.149,.125-.29,.247-.417,.359-.401,.352-.734,.771-.99,1.239l-.598,1.092c-.935,.316-1.865,.706-2.694,1.227-.839,.527-1.336,1.46-1.336,2.451,0,.184,.017,.364,.052,.545,.083,.436,.255,1.269,.41,1.649,.523,1.102,1.538,2.357,1.538,3.857,0,1,.7,1.502,1.419,1.502,.433,0,.873-.182,1.17-.548,.035,0,.069,0,.102,0,2.809,0,2.845-1.953,5.809-1.953,1.401-.045,2.047,.529,3.271,.501,.268,0,.537-.017,.807-.044,.31-.04,.406,.227,.448,.523,.096,.703,.453,1.34,1.057,1.712,.16,.098,.558,.303,.728,.403,.465,.274,.99,.419,1.524,.419,.503-.011,.998-.124,1.51-.192,.837-.129,1.544-.656,1.958-1.395,1.045-1.862,2.196-3.428,2.196-5.939,0-1.028-1.181-2.867-2-3.487Zm-2.346,7.147c-.141,.242-.282,.485-.423,.734-.304,.046-.617,.093-.896,.13-.091-.054-.233-.132-.384-.213-.199-.993-.683-1.618-1.071-1.976-.606-.56-1.404-.868-2.247-.868-.41,0-.949,.11-1.3-.004-.85-.298-1.803-.45-2.834-.45-2.412,0-3.765,.904-4.659,1.502-.585,.391-.674,.451-1.15,.451h-.014c-.388-1.221-.94-2.036-1.444-2.975-.04-.141-.122-.461-.225-.988,.518-.314,1.168-.602,1.983-.878,.713-.241,1.309-.741,1.67-1.4,.472-.923,1.132-2.219,2.339-2.211,.911,0,1.769-.414,2.337-1.119,.712,1.162,2.363,3.159,4.852,3.12,.979,0,1.821-.297,2.462-.825,.207,.382,.332,.748,.36,1.073,.071,.849,.472,1.606,1.151,2.121,.257,.226,.704,.921,.836,1.284-.039,1.198-.497,2.041-1.343,3.493Zm1.689,5.709s0,.006,0,.009c-.075,.712-.296,2.135-1.209,2.135-1.021,0-1.494-.909-1.737-1.747-.134-.46,.167-.934,.64-1.013l1.375-.229c.51-.085,.971,.329,.932,.845Z"/>
</svg>
