<?xml version="1.0" encoding="UTF-8"?>
<svg xmlns="http://www.w3.org/2000/svg" id="Layer_1" data-name="Layer 1" viewBox="0 0 24 24">
  <path d="m24,12c0,.828-.672,1.5-1.5,1.5H1.5c-.828,0-1.5-.672-1.5-1.5s.672-1.5,1.5-1.5h21c.828,0,1.5.672,1.5,1.5Zm-16.235-3.075c2.25.46,4.235-1.255,4.235-3.425V1.25c0-.69-.56-1.25-1.25-1.25s-1.25.56-1.25,1.25v4.083c0,.643-.357,1.167-1,1.167s-1-.523-1-1.167V1.25c0-.69-.56-1.25-1.25-1.25s-1.25.56-1.25,1.25v4.15c0,1.67,1.129,3.19,2.765,3.525Zm3.985,6.075c-.69,0-1.25.56-1.25,1.25v4.083c0,.643-.357,1.167-1,1.167s-1-.523-1-1.167v-4.083c0-.69-.56-1.25-1.25-1.25s-1.25.56-1.25,1.25v4.15c0,1.67,1.129,3.19,2.765,3.525,2.25.46,4.235-1.255,4.235-3.425v-4.25c0-.69-.56-1.25-1.25-1.25Zm4.5,0c-.69,0-1.25.56-1.25,1.25v6.5c0,.69.56,1.25,1.25,1.25s1.25-.56,1.25-1.25v-6.5c0-.69-.56-1.25-1.25-1.25Zm-2.343-6.149c.188.102.392.149.592.149.445,0,.876-.238,1.102-.657l.649-1.206.649,1.206c.226.419.656.657,1.102.657.2,0,.403-.048.592-.149.607-.327.835-1.085.508-1.693l-1.431-2.657,1.431-2.657c.327-.608.1-1.366-.508-1.693-.608-.329-1.367-.101-1.693.508l-.649,1.206-.649-1.206c-.326-.607-1.086-.836-1.693-.508-.607.327-.835,1.085-.508,1.693l1.431,2.657-1.431,2.657c-.327.608-.1,1.366.508,1.693Z"/>
</svg>
