<?xml version="1.0" encoding="UTF-8"?>
<svg xmlns="http://www.w3.org/2000/svg" id="Layer_1" data-name="Layer 1" viewBox="0 0 24 24">
  <path d="M24,20.585c0,.522-.389,.961-.908,1.023-1.039,.124-2.621,.315-2.79,.342-.729,.788-1.421,1.05-2.303,1.05h-1c-.552,0-1-.448-1-1v-.894c0-.395,.117-.781,.336-1.109l.364-.547c.182-.272,.482-.439,.81-.443,.669-.009,1.782-.088,1.99-.506,.35-.705,.493-1.95,.5-2.268,.019-.94-.775-.706-.775-.706,0,0-1.151,.209-1.83,.442-.678,.233-1.394,.264-1.394,1.264,0,2-1.664,2.768-1.664,2.768l-.076,.225c-.181,.537-.827,.752-1.291,.428-.265-.185-.47-.421-.47-.654q0-1-1-2c-.328-.328-.666-.488-.95-.563-.307-.081-.572,.227-.445,.517l.894,2.045c0,.712-.288,1.018-.79,1.424-.51,.418-1.163,.605-1.818,.576-.469,0-.69-.576-.344-.892,.451-.412,.891-.864,.952-1.108-.284-.37-.791-1.43-1.136-2.185-.227-.497-.725-.815-1.272-.815h-.676c-.556,0-1.06,.329-1.283,.839l-1.133,2.592c-.277,.554-.976,.739-1.491,.396l-2.009-1.519v-1l.638-2.109c.198-.656,.899-1.019,1.55-.802l.87,.29c.464,.155,.943-.191,.943-.679v-.217c0-.826,.328-1.618,.912-2.202l.676-.676c.584-.584,1.376-.912,2.202-.912h.21c.928,0,.995,.862,5,.985,.309,.01,1,.015,1-.985s1-1,1-1v-1.365c0-.351-.284-.635-.635-.635-.754,0-1.365-.611-1.365-1.365-.031-.069,.475-2.486,.5-2.635,0,0-1.5,1-2,3-.06,.398,.5,1.5,.5,1.5v1s0,1-1,1-1-1-1-1v-1l-1,.5-.766,.383c-.567,.283-1.234-.129-1.234-.762v-.033c0-.4,.097-.796,.29-1.147,1.013-1.84,2.756-4.013,4.399-5.449,.747-.653,1.714-.992,2.706-.992,0,0,2.605,0,3.105,0s.5,.513,.5,.513c0,1.487-2,2.487-2,2.487v1h1.08c.611,0,1.195-.251,1.614-.697,.346-.368,.689-.768,.906-1.103,.567-.755,1.456-1.2,2.4-1.2,1.105,0,2,.895,2,2V15.929c0,.908-.612,1.702-1.49,1.934l-.52,.138v1s.829,.29,1.515,.701c.31,.185,.495,.524,.495,.885Z"/>
</svg>
