<?xml version="1.0" encoding="UTF-8"?>
<svg xmlns="http://www.w3.org/2000/svg" id="Layer_1" data-name="Layer 1" viewBox="0 0 24 24">
  <path d="m17,7.5c0,1.38-1.12,2.5-2.5,2.5s-2.5-1.12-2.5-2.5,1.12-2.5,2.5-2.5,2.5,1.12,2.5,2.5Zm2.5,7.5h-10c-2.481,0-4.5-2.019-4.5-4.5v-6C5,2.019,7.019,0,9.5,0h10c2.481,0,4.5,2.019,4.5,4.5v6c0,2.481-2.019,4.5-4.5,4.5Zm-10-3h10c.827,0,1.5-.673,1.5-1.5v-6c0-.827-.673-1.5-1.5-1.5h-10c-.827,0-1.5.673-1.5,1.5v6c0,.827.673,1.5,1.5,1.5Zm-2,6h-3c-.827,0-1.5-.673-1.5-1.5v-8c0-.829-.671-1.5-1.5-1.5s-1.5.671-1.5,1.5v8c0,2.481,2.019,4.5,4.5,4.5h3c.829,0,1.5-.671,1.5-1.5s-.671-1.5-1.5-1.5Zm5,0c-.828,0-1.5.672-1.5,1.5s.672,1.5,1.5,1.5,1.5-.672,1.5-1.5-.672-1.5-1.5-1.5Zm10.745.884l-2.756-2.756c-.549-.549-1.487-.16-1.487.616v1.257h-1.501c-.829,0-1.5.671-1.5,1.5s.671,1.5,1.5,1.5h1.501v1.256c0,.776.939,1.165,1.487.616l2.756-2.756c.34-.34.34-.892,0-1.232Z"/>
</svg>
