<?xml version="1.0" encoding="UTF-8"?>
<svg xmlns="http://www.w3.org/2000/svg" id="Layer_1" data-name="Layer 1" viewBox="0 0 24 24">
  <path d="M22.311,11.872c1.229-1.352,1.834-3.176,1.659-5.006-.313-3.29-3.25-5.866-6.685-5.866h-.377c-.207-.581-.756-1-1.408-1s-1.201,.419-1.408,1h-5.051C5.466,1,2.228,2.975,.59,6.155c-.853,1.655-.776,3.604,.204,5.21,1.006,1.649,2.755,2.635,4.678,2.635h10.528v1.133c-1.804,.451-3,2.114-3,4.367,0,2.649,1.645,4.5,4,4.5s4-1.851,4-4.5c0-2.253-1.196-3.916-3-4.367v-1.16c1.644-.128,3.193-.873,4.311-2.102ZM3.355,9.804c-.438-.718-.473-1.547-.098-2.275,1.121-2.177,3.337-3.529,5.783-3.529h8.245c1.905,0,3.529,1.384,3.698,3.151,.096,1.004-.222,1.964-.893,2.703-.663,.729-1.606,1.146-2.591,1.146H5.472c-.868,0-1.659-.447-2.116-1.196Zm11.645,9.696c0-.878,.283-1.793,1-2.232v4.464c-.717-.439-1-1.354-1-2.232Zm4,0c0,.878-.283,1.793-1,2.232v-4.464c.717,.439,1,1.354,1,2.232Zm-1.5-11.5h-7c-.828,0-1.5-.672-1.5-1.5s.672-1.5,1.5-1.5h7c.828,0,1.5,.672,1.5,1.5s-.672,1.5-1.5,1.5Z"/>
</svg>
