<?xml version="1.0" encoding="UTF-8"?>
<svg xmlns="http://www.w3.org/2000/svg" id="Layer_1" data-name="Layer 1" viewBox="0 0 24 24">
  <path d="m10,22.501c0,.828-.672,1.499-1.5,1.499h-.001l-3.004-.003c-3.03-.003-5.495-2.47-5.495-5.5V5.494c0-1.47.572-2.852,1.612-3.89C2.65.565,4.032-.006,5.5-.006h.002L14.502-.002c3.031,0,5.498,2.469,5.498,5.5v1.002c0,.828-.671,1.5-1.5,1.5s-1.5-.672-1.5-1.5v-1.002c0-1.378-1.121-2.499-2.499-2.5l-9-.004h-.001c-.667,0-1.295.26-1.768.731-.472.473-.732,1.101-.732,1.769v13.003c0,1.377,1.12,2.499,2.498,2.5l3.004.003c.829,0,1.5.673,1.499,1.501Zm13.561,1.06c-.293.293-.677.439-1.061.439s-.768-.146-1.061-.439l-2.396-2.396c-.893.527-1.931.836-3.043.836-3.314,0-6-2.686-6-6s2.686-6,6-6,6,2.686,6,6c0,1.112-.308,2.15-.836,3.043l2.396,2.396c.586.586.586,1.535,0,2.121Zm-6.581-5.234l2.703-2.614c.398-.383.411-1.016.029-1.414-.383-.399-1.017-.41-1.414-.029l-2.713,2.624c-.143.141-.379.144-.522.002l-1.354-1.331c-.396-.388-1.028-.381-1.414.014-.387.395-.381,1.027.014,1.414l1.354,1.332c.46.449,1.062.674,1.663.674s1.201-.225,1.653-.671Zm-6.479-13.326c-.829,0-1.5.672-1.5,1.5s.671,1.5,1.5,1.5h3c.829,0,1.5-.672,1.5-1.5s-.671-1.5-1.5-1.5h-3Zm-4,0c-.828,0-1.5.672-1.5,1.5s.672,1.5,1.5,1.5,1.5-.672,1.5-1.5-.672-1.5-1.5-1.5Zm0,10c-.828,0-1.5.672-1.5,1.5s.672,1.5,1.5,1.5,1.5-.672,1.5-1.5-.672-1.5-1.5-1.5Zm0-5c-.828,0-1.5.672-1.5,1.5s.672,1.5,1.5,1.5,1.5-.672,1.5-1.5-.672-1.5-1.5-1.5Z"/>
</svg>
