<?xml version="1.0" encoding="UTF-8"?>
<svg xmlns="http://www.w3.org/2000/svg" id="Layer_1" data-name="Layer 1" viewBox="0 0 24 24">
  <path d="m23.561,21.439l-4.061-4.061c1.287-1.744,2.501-4.214,2.501-7.378,0-5.413-2.811-8.442-3.672-9.242-.808-.75-1.944-.967-2.896-.551-.883.385-1.432,1.244-1.432,2.242v9.43l-2.152-2.152c.092-.401.152-.809.152-1.227V1.5c0-.829-.671-1.5-1.5-1.5s-1.5.671-1.5,1.5v5.379l-1-1V1.5c0-.829-.671-1.5-1.5-1.5s-1.5.671-1.5,1.5v1.379L2.561.439C1.975-.146,1.025-.146.439.439-.146,1.025-.146,1.975.439,2.561l4.998,4.998s16.002,16.002,16.002,16.002c.293.293.677.439,1.061.439s.768-.146,1.061-.439c.586-.585.586-1.536,0-2.121ZM17,3.742c1.061,1.363,2,3.527,2,6.258,0,2.162-.766,3.921-1.648,5.231l-.352-.352V3.742Zm-9,8.758v10c0,.829-.671,1.5-1.5,1.5s-1.5-.671-1.5-1.5v-8.708c-2.306-.654-4-2.779-4-5.292,0-.829.671-1.5,1.5-1.5s1.5.671,1.5,1.5c0,1.378,1.122,2.5,2.5,2.5.829,0,1.5.671,1.5,1.5Zm9,9v1c0,.829-.671,1.5-1.5,1.5s-1.5-.671-1.5-1.5v-1c0-.829.671-1.5,1.5-1.5s1.5.671,1.5,1.5Z"/>
</svg>
