<?xml version="1.0" encoding="UTF-8"?>
<svg xmlns="http://www.w3.org/2000/svg" id="Layer_1" data-name="Layer 1" viewBox="0 0 24 24">
  <path d="M23,7.5V15.5c0,3.032-2.467,5.5-5.5,5.5H8.132l-4.354,2.753c-.268,.171-.59,.246-.905,.248-1.028,0-1.866-.839-1.868-1.869l-.004-14.631c0-1.335,.487-2.624,1.375-3.631,.549-.623,1.496-.683,2.117-.134,.622,.547,.682,1.495,.134,2.116-.404,.459-.626,1.044-.625,1.647l.004,12.561,2.892-1.828c.24-.152,.518-.232,.802-.232h9.803c1.378,0,2.5-1.121,2.5-2.5V7.5c0-.575-.189-1.115-.548-1.562-.518-.646-.414-1.591,.232-2.108,.647-.52,1.591-.413,2.109,.231,.778,.971,1.207,2.192,1.207,3.438ZM6.647,4.214C7.11,2.207,8.704,.611,10.709,.148c1.674-.386,3.391-.005,4.712,1.046,1.321,1.051,2.078,2.62,2.078,4.306,0,1.833-.913,3.537-2.443,4.558-.343,.229-.557,.677-.557,1.168v.774c0,1.103-.897,2-2,2h-1c-1.103,0-2-.897-2-2v-.774c0-.491-.214-.938-.558-1.169-1.917-1.28-2.817-3.573-2.294-5.843Zm3.961,3.349c.593,.396,1.066,.938,1.392,1.567,.325-.63,.798-1.172,1.392-1.567,.694-.464,1.108-1.234,1.108-2.062,.029-1.341-1.158-2.53-2.497-2.5-1.119-.027-2.188,.788-2.432,1.888-.292,1.267,.344,2.212,1.037,2.675Z"/>
</svg>
