<?xml version="1.0" encoding="UTF-8"?>
<svg xmlns="http://www.w3.org/2000/svg" id="Layer_1" data-name="Layer 1" viewBox="0 0 24 24">
  <path d="M20.5,6h-2.5c0-3.309-2.691-6-6-6S6,2.691,6,6H3.5c-1.93,0-3.5,1.57-3.5,3.5v9c0,3.032,2.468,5.5,5.5,5.5,.828,0,1.5-.672,1.5-1.5s-.672-1.5-1.5-1.5c-1.379,0-2.5-1.121-2.5-2.5V9.5c0-.276,.225-.5,.5-.5h2.5v.5c0,.829,.672,1.5,1.5,1.5s1.5-.671,1.5-1.5v-.5h6v.5c0,.829,.672,1.5,1.5,1.5s1.5-.671,1.5-1.5v-.5h2.5c.275,0,.5,.224,.5,.5v9c0,1.379-1.121,2.5-2.5,2.5-.828,0-1.5,.672-1.5,1.5s.672,1.5,1.5,1.5c3.032,0,5.5-2.468,5.5-5.5V9.5c0-1.93-1.57-3.5-3.5-3.5Zm-11.5,0c0-1.654,1.346-3,3-3s3,1.346,3,3h-6Zm6.535,8.465h0c-.944-.944-2.2-1.465-3.535-1.465s-2.593,.521-3.535,1.464c-.944,.944-1.465,2.2-1.465,3.536s.521,2.592,1.477,3.547l1.82,1.78c.47,.461,1.087,.691,1.704,.691s1.231-.229,1.7-.689l1.834-1.793c.944-.944,1.465-2.2,1.465-3.536s-.521-2.591-1.465-3.535Zm-2.109,4.938l-1.426,1.395-1.414-1.384c-.378-.377-.586-.879-.586-1.413s.208-1.036,.587-1.415c.377-.377,.879-.585,1.413-.585s1.036,.208,1.414,.586h0c.378,.378,.586,.88,.586,1.414s-.208,1.036-.574,1.402Z"/>
</svg>
