<?xml version="1.0" encoding="UTF-8"?>
<svg xmlns="http://www.w3.org/2000/svg" id="Layer_1" data-name="Layer 1" viewBox="0 0 24 24">
  <path d="m24,7.93v11.57c0,.828-.672,1.5-1.5,1.5s-1.5-.672-1.5-1.5v-11.5h-3c-1.105,0-2-.895-2-2v-3h-4.5c-1.379,0-2.5,1.121-2.5,2.5v4c0,.828-.672,1.5-1.5,1.5s-1.5-.672-1.5-1.5v-4c0-3.032,2.468-5.5,5.5-5.5h4.59c1.456,0,2.879.593,3.904,1.626l2.41,2.43c1.029,1.037,1.596,2.413,1.596,3.874ZM2,0C.895,0,0,.895,0,2v10.219c0,1.14.453,2.234,1.259,3.041l.741.741.741-.741c.806-.806,1.259-1.9,1.259-3.041V2c0-1.105-.895-2-2-2Zm12.475,19.97c-.683.683-1.578,1.023-2.475,1.023s-1.792-.341-2.475-1.023c0,0-4.489-4.469-4.525-4.453v5.484c0,1.657,1.343,3,3,3h8c1.657,0,3-1.343,3-3v-5.484c-.037-.015-4.525,4.453-4.525,4.453Zm-2.121-2.121l4.661-4.661c-.318-.115-.656-.188-1.014-.188h-8c-.358,0-.696.073-1.014.188l4.661,4.661c.195.195.512.195.707,0Z"/>
</svg>
