<?xml version="1.0" encoding="UTF-8"?>
<svg xmlns="http://www.w3.org/2000/svg" id="Layer_1" data-name="Layer 1" viewBox="0 0 24 24">
  <path d="M12.423,1.818c-.364-.284-.835-.386-1.287-.273-2.096,.524-4.671,1.957-6.077,4.455h-1.059C1.794,6,0,7.794,0,10v4c0,2.206,1.794,4,4,4h1.059c1.406,2.498,3.981,3.931,6.077,4.455,.121,.03,.243,.045,.364,.045,.331,0,.656-.11,.923-.318,.364-.284,.577-.72,.577-1.182V3c0-.462-.213-.898-.577-1.182Zm-2.423,16.964c-1.073-.618-2.095-1.559-2.607-2.839-.228-.569-.779-.943-1.393-.943h-2c-.552,0-1-.449-1-1v-4c0-.551,.448-1,1-1h2c.613,0,1.165-.374,1.393-.943,.513-1.281,1.534-2.221,2.607-2.839v13.564Zm13.994-1.672c-.057,.511-.49,.89-.993,.89-.036,0-.073-.002-.111-.006-1.452-.161-2.795-.654-3.95-1.426-1.033,.727-2.295,1.256-3.829,1.426-.038,.004-.075,.006-.111,.006-.503,0-.937-.378-.993-.89-.061-.549,.335-1.043,.884-1.104,.965-.107,1.782-.393,2.476-.789-.474-.517-.891-1.098-1.241-1.734-.267-.484-.09-1.092,.394-1.358,.484-.267,1.093-.09,1.358,.394,.193,.35,.531,.881,1.047,1.425,1.151-1.286,1.714-2.878,1.942-3.943h-5.865c-.553,0-1-.448-1-1s.447-1,1-1h3v-1c0-.552,.447-1,1-1s1,.448,1,1v1h3c.553,0,1,.448,1,1s-.447,1-1,1h-.096c-.242,1.431-.974,3.478-2.419,5.153,.715,.408,1.572,.737,2.626,.853,.549,.061,.944,.555,.884,1.104Z"/>
</svg>
