<?xml version="1.0" encoding="UTF-8"?>
<svg xmlns="http://www.w3.org/2000/svg" id="Layer_1" data-name="Layer 1" viewBox="0 0 24 24">
  <path d="m19.646,17.025c-.661-.661-1.54-1.025-2.475-1.025h-1.571c.533-.589.528-1.492-.04-2.061l-1.914-1.914c-.661-.661-1.54-1.025-2.475-1.025h-1.571c.533-.589.528-1.492-.04-2.061l-1.914-1.914c-.661-.661-1.54-1.025-2.475-1.025h-1.671c-1.93,0-3.5,1.57-3.5,3.5v1c0,.744.238,1.432.635,2-.398.568-.635,1.256-.635,2v1c0,.744.238,1.432.635,2-.398.568-.635,1.256-.635,2v1c0,1.93,1.57,3.5,3.5,3.5h13.671c.935,0,1.814-.364,2.475-1.025l1.914-1.914c.586-.586.586-1.535,0-2.121l-1.914-1.914Zm-8.121-2.879l.854.854-.854.854c-.095.095-.22.146-.354.146H3.5c-.276,0-.5-.225-.5-.5v-1c0-.275.224-.5.5-.5h7.671c.134,0,.259.052.354.146ZM3,9.5c0-.275.224-.5.5-.5h1.671c.134,0,.259.052.354.146l.854.854-.854.854c-.095.095-.22.146-.354.146h-1.671c-.276,0-.5-.225-.5-.5v-1Zm14.525,11.354c-.095.095-.22.146-.354.146H3.5c-.276,0-.5-.225-.5-.5v-1c0-.275.224-.5.5-.5h13.671c.134,0,.259.052.354.146l.854.854-.854.854Zm5.631-13.95l-.235-.132c.044-.252.078-.507.078-.771s-.034-.519-.078-.771l.235-.132c.722-.407.977-1.322.57-2.044-.407-.721-1.321-.975-2.043-.569l-.243.137c-.42-.366-.904-.653-1.44-.844v-.276c0-.828-.671-1.5-1.5-1.5s-1.5.672-1.5,1.5v.276c-.535.191-1.019.478-1.44.844l-.243-.137c-.723-.406-1.637-.151-2.043.569-.407.722-.152,1.637.57,2.044l.235.132c-.044.252-.078.507-.078.771s.034.519.078.771l-.235.132c-.722.407-.977,1.322-.57,2.044.276.488.784.763,1.308.763.25,0,.502-.062.735-.193l.243-.137c.42.366.904.653,1.44.844v.276c0,.828.671,1.5,1.5,1.5s1.5-.672,1.5-1.5v-.276c.535-.191,1.019-.478,1.44-.844l.243.137c.233.131.486.193.735.193.524,0,1.032-.274,1.308-.763.407-.722.152-1.637-.57-2.044Zm-3.157-.903c0,.827-.673,1.5-1.5,1.5s-1.5-.673-1.5-1.5.673-1.5,1.5-1.5,1.5.673,1.5,1.5Z"/>
</svg>
