<?xml version="1.0" encoding="UTF-8"?>
<svg xmlns="http://www.w3.org/2000/svg" id="Layer_1" data-name="Layer 1" viewBox="0 0 24 24">
  <path d="m22.389,5.418l-3.808-3.808c-1.039-1.039-2.42-1.611-3.889-1.611h-5.385c-1.469,0-2.85.572-3.889,1.611l-3.808,3.808c-1.039,1.04-1.611,2.421-1.611,3.889v5.385c0,1.468.572,2.85,1.611,3.889l3.808,3.808c1.039,1.039,2.42,1.611,3.889,1.611h5.385c1.469,0,2.85-.572,3.889-1.611l3.808-3.808c1.039-1.04,1.611-2.421,1.611-3.889v-5.385c0-1.468-.572-2.85-1.611-3.889Zm-1.389,9.274c0,.667-.261,1.295-.732,1.768l-3.808,3.808c-.466.465-1.109.732-1.768.732h-5.385c-.658,0-1.302-.267-1.768-.732l-3.808-3.808c-.472-.473-.732-1.101-.732-1.768v-5.385c0-.667.261-1.295.732-1.768l3.808-3.808c.466-.465,1.109-.732,1.768-.732h5.385c.658,0,1.302.267,1.768.732l3.808,3.808c.472.473.732,1.101.732,1.768v5.385Zm-7.5-7.192v5c0,.829-.672,1.5-1.5,1.5s-1.5-.671-1.5-1.5v-5c0-.829.672-1.5,1.5-1.5s1.5.671,1.5,1.5Zm0,9c0,.828-.672,1.5-1.5,1.5s-1.5-.672-1.5-1.5.672-1.5,1.5-1.5,1.5.672,1.5,1.5Z"/>
</svg>
