<?xml version="1.0" encoding="UTF-8"?>
<svg xmlns="http://www.w3.org/2000/svg" id="Layer_1" data-name="Layer 1" viewBox="0 0 24 24">
  <path d="m21,5h-13c-1.657,0-3,1.343-3,3v3c0,1.657,1.343,3,3,3h13c1.657,0,3-1.343,3-3v-3c0-1.657-1.343-3-3-3Zm-10.13,5.234c.312.312.312.819,0,1.132-.156.156-.36.234-.565.234s-.409-.078-.565-.234l-.734-.734-.734.734c-.156.156-.36.234-.565.234s-.409-.078-.565-.234c-.312-.312-.312-.819,0-1.132l.734-.734-.734-.734c-.312-.312-.312-.819,0-1.132.312-.312.818-.312,1.131,0l.734.734.734-.734c.312-.312.818-.312,1.131,0,.312.312.312.819,0,1.132l-.734.734.734.734Zm5.495,0c.312.312.312.819,0,1.132-.156.156-.36.234-.565.234s-.409-.078-.565-.234l-.734-.734-.734.734c-.156.156-.36.234-.565.234s-.409-.078-.565-.234c-.312-.312-.312-.819,0-1.132l.734-.734-.734-.734c-.312-.312-.312-.819,0-1.132.312-.312.818-.312,1.131,0l.734.734.734-.734c.312-.312.818-.312,1.131,0,.312.312.312.819,0,1.132l-.734.734.734.734Zm5.531,0c.312.312.312.819,0,1.131-.156.156-.36.234-.565.234s-.409-.078-.565-.234l-.735-.735-.735.735c-.156.156-.36.234-.565.234s-.409-.078-.565-.234c-.312-.312-.312-.819,0-1.131l.734-.734-.734-.734c-.312-.312-.312-.819,0-1.131s.818-.313,1.131,0l.735.735.735-.735c.312-.312.818-.312,1.131,0s.312.819,0,1.131l-.734.734.734.734Zm-7.396,7.766H3V5.5c0-1.378,1.121-2.5,2.5-2.5h6c.828,0,1.5-.671,1.5-1.5s-.672-1.5-1.5-1.5h-6C2.468,0,0,2.467,0,5.5v13.5c0,2.761,2.239,5,5,5h6c2.366,0,4.663-1.779,5-4.5,0-.828-.671-1.5-1.5-1.5Zm-5.5,4h-2c-.552,0-1-.448-1-1h0c0-.552.448-1,1-1h2c.552,0,1,.448,1,1h0c0,.552-.448,1-1,1Z"/>
</svg>
