<?xml version="1.0" encoding="UTF-8"?>
<svg xmlns="http://www.w3.org/2000/svg" id="Layer_1" data-name="Layer 1" viewBox="0 0 24 24">
  <path d="m10.5,13.5v-3c0-.829.671-1.5,1.5-1.5s1.5.671,1.5,1.5v3c0,.829-.671,1.5-1.5,1.5s-1.5-.671-1.5-1.5Zm8.51.174c.086.747.721,1.326,1.49,1.326.828,0,1.5-.671,1.5-1.5,0-1.259-.868-2.389-2.062-2.687l-1.947-.487c-.086-.747-.721-1.326-1.49-1.326-.828,0-1.5.671-1.5,1.5,0,1.259.868,2.389,2.062,2.687l1.947.487Zm-11.51-4.674c-.77,0-1.404.58-1.49,1.326l-1.946.487c-1.196.298-2.063,1.428-2.063,2.687,0,.829.671,1.5,1.5,1.5.77,0,1.404-.58,1.49-1.326l1.946-.487c1.196-.298,2.063-1.428,2.063-2.687,0-.829-.671-1.5-1.5-1.5Zm-2,9c0-1.105-.895-2-2-2s-2,.895-2,2,.895,2,2,2,2-.895,2-2Zm6.5,2c1.105,0,2-.895,2-2s-.895-2-2-2-2,.895-2,2,.895,2,2,2Zm8.5-4c-1.105,0-2,.895-2,2s.895,2,2,2,2-.895,2-2-.895-2-2-2Zm3.469,7.315c-.512-1.348-1.866-2.315-3.469-2.315s-2.957.966-3.469,2.315c-.127.333.151.685.525.685h5.887c.375,0,.652-.352.525-.685Zm-20.469-2.315c-1.603,0-2.957.966-3.469,2.315-.127.333.151.685.525.685h5.887c.375,0,.652-.352.525-.685-.512-1.348-1.866-2.315-3.469-2.315Zm8.5,0c-1.603,0-2.957.966-3.469,2.315-.127.333.151.685.525.685h5.887c.375,0,.652-.352.525-.685-.512-1.348-1.866-2.315-3.469-2.315Zm0-17c1.105,0,2-.895,2-2s-.895-2-2-2-2,.895-2,2,.895,2,2,2Zm-2.944,4h5.887c.375,0,.652-.352.525-.685-.512-1.348-1.866-2.315-3.469-2.315s-2.957.966-3.469,2.315c-.127.333.151.685.525.685Z"/>
</svg>
