<?xml version="1.0" encoding="UTF-8"?>
<svg xmlns="http://www.w3.org/2000/svg" id="Layer_1" data-name="Layer 1" viewBox="0 0 24 24">
  <path d="M23.263,14.759c-.519-.545-1.247-.818-2.001-.749-3.687,.344-6.138,1.766-7.762,3.327v-1.825c.606-.448,1.004-1.162,1.004-1.974l-.496-2.232,1.724,1.502c1.194,.65,2.689,.208,3.339-.986,.65-1.194,.208-2.689-.986-3.339l-1.686-.484,1.686-.484c1.194-.65,1.636-2.144,.986-3.339-.65-1.194-2.144-1.636-3.339-.986l-1.724,1.502,.496-2.232c0-1.359-1.102-2.461-2.462-2.461s-2.461,1.102-2.461,2.461l.496,2.232-1.724-1.502c-1.194-.65-2.689-.208-3.338,.986s-.208,2.689,.986,3.339l1.686,.484-1.686,.484c-1.194,.65-1.636,2.144-.986,3.339s2.144,1.636,3.338,.986l1.724-1.502-.496,2.232c0,.772,.363,1.453,.919,1.904v1.895c-1.625-1.56-4.076-2.983-7.763-3.327-.749-.072-1.481,.203-2,.749-.545,.573-.802,1.396-.687,2.202,.811,5.672,6.595,7.108,10.559,7.108,.499,0,.963-.026,1.391-.065,.428,.04,.892,.065,1.391,.065,3.964,0,9.748-1.436,10.559-7.107,.115-.806-.141-1.629-.687-2.203Zm-13.266-6.759c0-1.105,.895-2,2-2s2,.895,2,2-.895,2-2,2-2-.895-2-2ZM3.127,17.077c3.682,.534,5.605,2.468,6.562,3.956-2.319-.136-5.772-.871-6.562-3.956Zm11.185,3.956c.957-1.488,2.88-3.422,6.562-3.956-.79,3.085-4.242,3.82-6.562,3.956Z"/>
</svg>
