<?xml version="1.0" encoding="UTF-8"?>
<svg xmlns="http://www.w3.org/2000/svg" id="Layer_1" data-name="Layer 1" viewBox="0 0 24 24">
  <path d="m18.996,14.981c0,.007.004,6.019.004,6.019,0,.553-.447,1-1,1s-1-.447-1-1v-4.179l-3.433,1.786c-.982.511-2.152.511-3.134,0l-4.739-2.466c-.924-.481-.924-1.803,0-2.284l4.739-2.466c.982-.511,2.152-.511,3.134,0l4.739,2.466c.456.237.684.679.691,1.123Zm-6.996,6.014c-.802,0-1.604-.221-2.304-.662l-1.696-1.072v2.314c0,.746.41,1.43,1.072,1.775.645.336,1.602.65,2.928.65s2.284-.314,2.928-.65c.662-.345,1.072-1.029,1.072-1.775v-2.315l-1.695,1.071c-.7.442-1.502.663-2.305.663ZM24,4.5v13c0,.828-.672,1.5-1.5,1.5s-1.5-.672-1.5-1.5V7H3v9.5c0,1.142.771,2.138,1.874,2.422.802.206,1.285,1.024,1.079,1.826-.174.677-.784,1.126-1.452,1.126-.124,0-.25-.015-.375-.048-2.429-.625-4.126-2.815-4.126-5.326V4.5C0,2.015,2.015,0,4.5,0h15c2.485,0,4.5,2.015,4.5,4.5ZM6,3.5c0-.828-.672-1.5-1.5-1.5s-1.5.672-1.5,1.5.672,1.5,1.5,1.5,1.5-.672,1.5-1.5Zm5,0c0-.828-.672-1.5-1.5-1.5s-1.5.672-1.5,1.5.672,1.5,1.5,1.5,1.5-.672,1.5-1.5Z"/>
</svg>
