<?xml version="1.0" encoding="UTF-8"?>
<svg xmlns="http://www.w3.org/2000/svg" id="Layer_1" data-name="Layer 1" viewBox="0 0 24 24">
  <path d="M12.239,17.001v1.998c0,.449,.358,.751,.749,.751,.288-.005,.544-.173,.669-.411,.106-.202,.32-.324,.548-.324,.472,0,.776,.504,.553,.92-.335,.629-1.003,1.059-1.77,1.064h0c-1.109,.001-2-.889-2-1.984v-2.03c0-1.094,.891-1.985,2-1.985h0c.768,.006,1.435,.436,1.77,1.065,.222,.417-.081,.92-.553,.92-.228,0-.442-.122-.548-.324-.125-.238-.381-.406-.669-.411-.391,0-.749,.302-.749,.751Zm6.515-2.001h-.012c-.287,0-.535,.202-.594,.483l-.583,2.799-.71-2.823c-.068-.27-.31-.459-.588-.459-.395,0-.685,.372-.588,.755l1.171,4.652c.088,.349,.402,.593,.761,.593,.372,0,.693-.261,.768-.625l.969-4.645c.079-.377-.209-.731-.594-.731Zm4.5,0h-.012c-.287,0-.535,.202-.594,.483l-.583,2.799-.71-2.823c-.068-.27-.31-.459-.588-.459-.395,0-.685,.372-.588,.755l1.171,4.652c.088,.349,.402,.593,.761,.593,.372,0,.693-.261,.768-.625l.969-4.645c.079-.377-.209-.731-.594-.731Zm.746-6.5v3.038c0,.828-.671,1.5-1.5,1.5s-1.5-.672-1.5-1.5v-.538H3v4.5c0,1.379,1.122,2.5,2.5,2.5h2c.829,0,1.5,.672,1.5,1.5s-.671,1.5-1.5,1.5h-2c-3.033,0-5.5-2.468-5.5-5.5v-7C0,5.468,2.467,3,5.5,3h13c3.033,0,5.5,2.468,5.5,5.5Zm-3.051-.5c-.232-1.14-1.242-2-2.449-2H5.5c-1.207,0-2.217,.86-2.449,2H20.949Z"/>
</svg>
