<?xml version="1.0" encoding="UTF-8"?>
<svg xmlns="http://www.w3.org/2000/svg" id="Layer_1" data-name="Layer 1" viewBox="0 0 24 24">
  <path d="m18.5,3H5.5C2.467,3,0,5.468,0,8.5v7c0,3.032,2.467,5.5,5.5,5.5h13c3.033,0,5.5-2.468,5.5-5.5v-7c0-3.032-2.467-5.5-5.5-5.5Zm2.5,12.5c0,1.379-1.122,2.5-2.5,2.5H5.5c-1.378,0-2.5-1.121-2.5-2.5v-7c0-1.379,1.122-2.5,2.5-2.5h13c1.378,0,2.5,1.121,2.5,2.5v7Zm-2-6c0,.828-.671,1.5-1.5,1.5h-3c-.829,0-1.5-.672-1.5-1.5s.671-1.5,1.5-1.5h3c.829,0,1.5.672,1.5,1.5Zm0,5c0,.828-.671,1.5-1.5,1.5h-3c-.829,0-1.5-.672-1.5-1.5s.671-1.5,1.5-1.5h3c.829,0,1.5.672,1.5,1.5Zm-7.04-3.641c.096.263.017.558-.197.739l-1.577,1.285.652,1.987c.089.269-.001.565-.226.738-.225.172-.534.185-.771.031l-1.836-1.196-1.805,1.208c-.112.075-.242.113-.371.113-.141,0-.282-.045-.4-.133-.227-.17-.321-.464-.236-.734l.627-2.011-1.585-1.29c-.213-.181-.291-.476-.194-.738.096-.262.346-.437.626-.437h2.001l.708-1.987c.097-.261.346-.434.625-.434s.528.173.625.434l.708,1.987h2.001c.28,0,.53.175.626.438Z"/>
</svg>
