<?xml version="1.0" encoding="UTF-8"?>
<svg xmlns="http://www.w3.org/2000/svg" id="Layer_1" data-name="Layer 1" viewBox="0 0 24 24">
  <path d="m23.961,17.857l-1.059-9.001c-.326-2.769-2.674-4.856-5.462-4.856h-3.452c.317-.419.511-.935.511-1.5,0-1.381-1.119-2.5-2.5-2.5s-2.5,1.119-2.5,2.5c0,.565.195,1.081.511,1.5h-3.452c-2.789,0-5.137,2.088-5.462,4.856L.038,17.857c-.184,1.558.31,3.125,1.353,4.298,1.042,1.172,2.541,1.845,4.11,1.845h12.999c1.569,0,3.067-.673,4.11-1.846s1.536-2.739,1.352-4.297Zm-3.594,2.304c-.48.541-1.145.839-1.868.839H5.5c-.724,0-1.387-.298-1.868-.839s-.699-1.234-.615-1.953l1.059-9.001c.148-1.258,1.215-2.207,2.483-2.207h10.881c1.268,0,2.335.949,2.483,2.207l1.059,9.001c.084.719-.134,1.412-.615,1.953Zm-4.367-4.161c0,1.654-1.346,3-3,3,0,.553-.448,1-1,1s-1-.447-1-1h-.268c-1.067,0-2.063-.574-2.598-1.499-.276-.479-.113-1.09.365-1.366.477-.277,1.089-.114,1.366.364.179.31.511.501.867.501h2.268c.552,0,1-.448,1-1,0-.379-.271-.698-.645-.761l-3.04-.506c-1.342-.224-2.315-1.374-2.315-2.733,0-1.654,1.346-3,3-3,0-.553.448-1,1-1s1,.447,1,1h.268c1.067,0,2.063.574,2.598,1.499.277.479.113,1.09-.364,1.366-.48.278-1.092.113-1.366-.364-.179-.31-.511-.501-.867-.501h-2.268c-.551,0-1,.448-1,1,0,.379.271.698.644.761l3.041.506c1.342.224,2.315,1.374,2.315,2.733Z"/>
</svg>
