<?xml version="1.0" encoding="UTF-8"?>
<svg xmlns="http://www.w3.org/2000/svg" id="Layer_1" data-name="Layer 1" viewBox="0 0 24 24">
  <path d="m23,2.092v-.592c0-.828-.672-1.5-1.5-1.5s-1.5.672-1.5,1.5v.5H4v-.5c0-.828-.672-1.5-1.5-1.5s-1.5.672-1.5,1.5v.592c-.581.207-1,.756-1,1.408s.419,1.201,1,1.408v.592c0,.828.672,1.5,1.5,1.5s1.5-.672,1.5-1.5v-.5h1.923l2.077,6.097v11.403c0,.828.672,1.5,1.5,1.5s1.5-.672,1.5-1.5v-4.5h2v4.5c0,.828.672,1.5,1.5,1.5s1.5-.672,1.5-1.5v-11.403l2.077-6.097h1.923v.5c0,.828.672,1.5,1.5,1.5s1.5-.672,1.5-1.5v-.592c.581-.207,1-.756,1-1.408s-.419-1.201-1-1.408Zm-11,7.908c-1.381,0-2.5-1.119-2.5-2.5s1.119-2.5,2.5-2.5,2.5,1.119,2.5,2.5-1.119,2.5-2.5,2.5Z"/>
</svg>
