<?xml version="1.0" encoding="UTF-8"?>
<svg xmlns="http://www.w3.org/2000/svg" id="Layer_1" data-name="Layer 1" viewBox="0 0 24 24">
  <path d="M6,2v3c0,1.105-.895,2-2,2H2c-1.105,0-2-.895-2-2V2C0,.895,.895,0,2,0h2c1.105,0,2,.895,2,2ZM12,0h-2c-1.105,0-2,.895-2,2v3c0,1.105,.895,2,2,2h2c1.105,0,2-.895,2-2V2c0-1.105-.895-2-2-2ZM4,17H2c-1.105,0-2,.895-2,2v3c0,1.105,.895,2,2,2h2c1.105,0,2-.895,2-2v-3c0-1.105-.895-2-2-2Zm8,0h-2c-1.105,0-2,.895-2,2v3c0,1.105,.895,2,2,2h2c1.105,0,2-.895,2-2v-3c0-1.105-.895-2-2-2Zm10-8h-3c-1.105,0-2,.895-2,2v2c0,1.105,.895,2,2,2h3c1.105,0,2-.895,2-2v-2c0-1.105-.895-2-2-2Zm-1.5,8c-.828,0-1.5,.672-1.5,1.5v.5h-1.5c-.828,0-1.5,.672-1.5,1.5s.672,1.5,1.5,1.5h1.5c1.654,0,3-1.346,3-3v-.5c0-.828-.672-1.5-1.5-1.5Zm-3-12h1.5v.5c0,.829,.672,1.5,1.5,1.5s1.5-.671,1.5-1.5v-.5c0-1.654-1.346-3-3-3h-1.5c-.828,0-1.5,.671-1.5,1.5s.672,1.5,1.5,1.5Z"/>
</svg>
