<?xml version="1.0" encoding="UTF-8"?>
<svg xmlns="http://www.w3.org/2000/svg" id="Layer_1" data-name="Layer 1" viewBox="0 0 24 24">
  <path d="m6.452,13.573c-.593-.579-.604-1.529-.024-2.121.581-.593,1.53-.603,2.121-.024l1.952,1.907V1.5c0-.829.671-1.5,1.5-1.5s1.5.671,1.5,1.5v11.835l1.952-1.907c.592-.579,1.542-.568,2.121.024.579.592.568,1.542-.024,2.121l-3.793,3.707c-.479.48-1.117.72-1.753.72-.502,0-1.303-.265-1.77-.732l-3.781-3.695Zm16.048,1.427h-1c-1.378,0-2.5,1.122-2.5,2.5v1.5c0,1.103-.897,2-2,2H7c-1.103,0-2-.897-2-2v-1.5c0-1.378-1.122-2.5-2.5-2.5h-1c-.829,0-1.5.671-1.5,1.5s.671,1.5,1.5,1.5h.5v1c0,2.757,2.243,5,5,5h10c2.757,0,5-2.243,5-5v-1h.5c.829,0,1.5-.671,1.5-1.5s-.671-1.5-1.5-1.5Z"/>
</svg>
