<?xml version="1.0" encoding="UTF-8"?>
<svg xmlns="http://www.w3.org/2000/svg" id="Layer_1" data-name="Layer 1" viewBox="0 0 24 24">
  <path d="M19.071,12.929c.586,.586,.586,1.536,0,2.121-.293,.293-.677,.439-1.061,.439s-.768-.146-1.061-.439c-1.322-1.322-3.08-2.05-4.95-2.05s-3.627,.728-4.95,2.05c-.585,.586-1.535,.586-2.121,0-.586-.585-.586-1.535,0-2.121,1.889-1.889,4.4-2.929,7.071-2.929s5.182,1.04,7.071,2.929ZM8.439,7.561c.293,.293,.677,.439,1.061,.439s.768-.146,1.061-.439l1.439-1.439,1.439,1.439c.293,.293,.677,.439,1.061,.439s.768-.146,1.061-.439c.586-.585,.586-1.536,0-2.121l-1.439-1.439,1.439-1.439c.586-.585,.586-1.536,0-2.121-.586-.586-1.535-.586-2.121,0l-1.439,1.439-1.439-1.439c-.586-.586-1.535-.586-2.121,0-.586,.585-.586,1.536,0,2.121l1.439,1.439-1.439,1.439c-.586,.585-.586,1.536,0,2.121Zm3.561,9.439c-1.657,0-3,1.343-3,3s1.343,3,3,3,3-1.343,3-3-1.343-3-3-3ZM22.148,7.629c-.593-.487-1.223-.934-1.872-1.327-.709-.428-1.631-.201-2.06,.507-.429,.709-.202,1.631,.507,2.06,.527,.318,1.039,.681,1.521,1.077,.279,.229,.616,.341,.951,.341,.434,0,.863-.187,1.16-.548,.526-.64,.434-1.585-.207-2.111Zm-16.211-.891c-.421-.714-1.34-.95-2.054-.531-.708,.417-1.392,.896-2.032,1.422-.64,.526-.732,1.471-.206,2.111,.296,.361,.726,.547,1.16,.547,.335,0,.672-.112,.952-.341,.52-.428,1.075-.816,1.649-1.154,.714-.42,.952-1.34,.531-2.054Z"/>
</svg>
