<?xml version="1.0" encoding="UTF-8"?>
<svg xmlns="http://www.w3.org/2000/svg" id="Layer_1" data-name="Layer 1" viewBox="0 0 24 24">
  <path d="m0,16.5v-3c0-3.033,2.468-5.5,5.5-5.5h1c.828,0,1.5.671,1.5,1.5s-.672,1.5-1.5,1.5h-1c-1.379,0-2.5,1.122-2.5,2.5v3c0,.829-.672,1.5-1.5,1.5s-1.5-.671-1.5-1.5Zm18.5-8.5h-1c-.828,0-1.5.671-1.5,1.5s.672,1.5,1.5,1.5h1c1.379,0,2.5,1.122,2.5,2.5v3c0,.829.672,1.5,1.5,1.5s1.5-.671,1.5-1.5v-3c0-3.033-2.468-5.5-5.5-5.5Zm3.245,12.801c-.528.309-1.263.234-1.803-.149-1.162-.827-2.723-.826-3.883,0-.627.444-1.494.443-2.117,0-1.162-.827-2.723-.826-3.883,0-.627.444-1.494.443-2.117,0-1.162-.827-2.723-.826-3.883,0-.546.387-1.27.462-1.807.149-.713-.414-1.634-.172-2.05.544s-.173,1.634.544,2.051c1.528.888,3.566.756,5.051-.299.127-.092.275-.092.406,0,1.641,1.165,3.949,1.166,5.594,0,.127-.092.275-.092.406,0,1.641,1.165,3.949,1.166,5.594,0,.127-.092.275-.092.406,0,.82.583,1.813.903,2.796.903.793,0,1.573-.209,2.255-.606.716-.417.958-1.335.542-2.051-.418-.718-1.336-.958-2.052-.542ZM8.449,5h2.051v11.5c0,.829.672,1.5,1.5,1.5s1.5-.671,1.5-1.5V5h2.052c.72,0,1.08-.87.571-1.379L12.857.355c-.474-.474-1.241-.474-1.715,0l-3.265,3.265c-.509.509-.149,1.379.571,1.379Z"/>
</svg>
