<?xml version="1.0" encoding="UTF-8"?>
<svg xmlns="http://www.w3.org/2000/svg" id="Layer_1" data-name="Layer 1" viewBox="0 0 24 24">
  <path d="m24,4.5C24,2.015,21.985,0,19.5,0H4.5C2.015,0,0,2.015,0,4.5v4.999s0,0,0,0v10c0,2.481,2.019,4.5,4.5,4.5h11.343c1.469,0,2.851-.572,3.889-1.61l2.657-2.657c1.039-1.039,1.611-2.42,1.611-3.889v-5.843s0,0,0,0v-5.5Zm-11,.419c0-1.037.823-1.911,1.861-1.919.482-.004.923.175,1.257.471.405.359.145,1.029-.396,1.029h-.046c-.144,0-.279-.057-.389-.149-.143-.119-.332-.18-.544-.138-.319.064-.541.358-.541.683v2.228c0,.388.328.7.721.673.358-.024.629-.338.629-.697v-.351h-.113c-.311,0-.562-.252-.562-.562s.252-.562.562-.562h.75c.311,0,.562.252.562.562v.938c0,1.023-.82,1.855-1.839,1.875-1.051.02-1.911-.866-1.911-1.917v-2.164Zm-5-1.192c0-.401.325-.727.727-.727.288,0,.548.17.665.432l1.158,2.615v-2.447c0-.331.269-.6.6-.6s.6.269.6.6v4.673c0,.402-.326.727-.727.727-.288,0-.548-.169-.665-.432l-1.158-2.609v2.441c0,.331-.269.6-.6.6s-.6-.269-.6-.6V3.727Zm-4.954-.102c0-.345.28-.625.625-.625h1.342c1.109,0,2.012.891,2.012,1.985s-.902,1.985-2.012,1.985l-.717.003v1.471c0,.345-.28.625-.625.625s-.625-.28-.625-.625V3.625Zm-.046,15.875v-8.5h18v4h-4c-1.105,0-2,.895-2,2v4H4.5c-.827,0-1.5-.673-1.5-1.5Zm1.302-13.777l-.005-1.473h.715c.413,0,.762.336.762.735s-.349.735-.762.735l-.71.003Z"/>
</svg>
