<?xml version="1.0" encoding="UTF-8"?>
<svg xmlns="http://www.w3.org/2000/svg" id="Layer_1" data-name="Layer 1" viewBox="0 0 24 24">
  <path d="M19.5,0H4.5C2.019,0,0,2.019,0,4.5v6.437c0,1.486,.928,2.806,2.309,3.285,1.609,.557,2.691,2.075,2.691,3.778v4.5c0,.828,.671,1.5,1.5,1.5s1.5-.672,1.5-1.5v-4.5c0-1.571,.926-3.004,2.36-3.649,.755-.341,1.092-1.229,.752-1.984-.34-.755-1.228-1.092-1.983-.752-1.056,.476-1.942,1.205-2.628,2.084-.812-1.038-1.905-1.861-3.21-2.313-.171-.059-.29-.244-.29-.449v-2.937H21v1.5c0,.829,.671,1.5,1.5,1.5s1.5-.671,1.5-1.5V4.5c0-2.481-2.019-4.5-4.5-4.5Zm-5.5,3v2h-4V3h4ZM3,4.5c0-.827,.673-1.5,1.5-1.5h2.5v2H3v-.5Zm14,.5V3h2.5c.827,0,1.5,.673,1.5,1.5v.5h-4Zm1,7c-3.314,0-6,2.686-6,6s2.686,6,6,6,6-2.686,6-6-2.686-6-6-6Zm3.683,5.712l-2.703,2.614c-.452,.446-1.052,.671-1.653,.671s-1.203-.225-1.663-.674l-1.354-1.332c-.395-.387-.4-1.02-.014-1.414,.386-.395,1.019-.401,1.414-.014l1.354,1.331c.144,.142,.38,.139,.522-.002l2.713-2.624c.397-.381,1.031-.37,1.414,.029,.382,.398,.369,1.031-.029,1.414Z"/>
</svg>
