<?xml version="1.0" encoding="UTF-8"?>
<svg xmlns="http://www.w3.org/2000/svg" id="Layer_1" data-name="Layer 1" viewBox="0 0 24 24">
  <path d="m24,7.5v11.535c0,1.958-1.053,3.783-2.749,4.764-.237.137-.495.201-.75.201-.518,0-1.022-.269-1.3-.749-.415-.718-.169-1.635.547-2.05.771-.446,1.251-1.276,1.251-2.166v-10.035H3v10.035c0,.89.479,1.72,1.251,2.166.717.415.962,1.332.547,2.05-.415.717-1.331.963-2.049.548-1.696-.98-2.749-2.806-2.749-4.764V7.5C0,4.468,2.467,2,5.5,2h.5v-.5c0-.828.671-1.5,1.5-1.5s1.5.672,1.5,1.5v.5h6v-.5c0-.828.671-1.5,1.5-1.5s1.5.672,1.5,1.5v.5h.5c3.033,0,5.5,2.468,5.5,5.5Zm-9.5,10.5h-1.5v-1c0-.553-.448-1-1-1s-1,.447-1,1v1h-1.5c-1.381,0-2.5,1.119-2.5,2.5v1c0,1.381,1.119,2.5,2.5,2.5h5c1.381,0,2.5-1.119,2.5-2.5v-1c0-1.381-1.119-2.5-2.5-2.5Zm-1-4.5c0-.777-.716-1.96-1.158-2.366-.194-.178-.489-.178-.683,0-.443.406-1.158,1.589-1.158,2.366,0,.828.672,1.5,1.5,1.5s1.5-.672,1.5-1.5Z"/>
</svg>
