<?xml version="1.0" encoding="UTF-8"?>
<svg xmlns="http://www.w3.org/2000/svg" id="Layer_1" data-name="Layer 1" viewBox="0 0 24 24">
  <path d="M15.48,7c.051,.006-.05,0,0,0h0Zm7.498,12.091c.015,.137,.022,.272,.022,.409,0,2.481-2.019,4.5-4.5,4.5-.698,0-1.381-.165-2-.477-.619,.312-1.302,.477-2,.477-2.481,0-4.5-2.019-4.5-4.5,0-.137,.007-.272,.022-.409-.658-.796-1.022-1.791-1.022-2.841,0-1.033,.358-2.022,1.004-2.816-.003-.062-.004-.122-.004-.184,0-2.344,1.907-4.25,4.25-4.25,.806,0,1.583,.23,2.25,.648,.667-.418,1.445-.648,2.25-.648,2.343,0,4.25,1.906,4.25,4.25,0,.061-.001,.122-.004,.184,.646,.794,1.004,1.783,1.004,2.816,0,1.05-.364,2.045-1.022,2.841Zm-7.978-6.83c-.214-.165-.471-.261-.75-.261-.689,0-1.25,.561-1.25,1.25,0,.069,.011,.15,.034,.25,.18,.578-.006,1.213-.479,1.604-.208,.17-.555,.547-.555,1.146,0,.454,.213,.882,.585,1.173,.498,.39,.698,1.049,.501,1.649-.059,.18-.086,.315-.086,.428,0,.827,.673,1.5,1.5,1.5,.19,0,.353-.041,.5-.096V12.261Zm6,3.989c0-.6-.348-.977-.555-1.147-.466-.384-.656-1.01-.482-1.588,.003-.011,.006-.021,.009-.03,.015-.069,.028-.158,.028-.234,0-.689-.561-1.25-1.25-1.25-.278,0-.536,.097-.75,.262v8.642c.147,.055,.31,.096,.5,.096,.827,0,1.5-.673,1.5-1.5,0-.112-.027-.247-.086-.426-.198-.601,.002-1.262,.5-1.651,.372-.291,.585-.719,.585-1.173ZM4.053,3.273c.757-.365,1.527-.362,2.112,.005,.531,.334,.835,.916,.835,1.598,0,.828,.671,1.5,1.5,1.5s1.5-.672,1.5-1.5c0-.682,.304-1.264,.835-1.598,.585-.367,1.355-.368,2.113-.004,.292,.14,.527,.342,.699,.599,.289,.434,.396,.903,.338,1.478-.083,.824,.515,1.649,1.495,1.649,.761,0,1.413-.577,1.491-1.351,.127-1.268-.151-2.424-.827-3.439-.468-.702-1.124-1.27-1.895-1.64-1.707-.821-3.532-.76-5.01,.168-.27,.17-.512,.371-.739,.587-.226-.216-.468-.417-.739-.587C6.284-.188,4.458-.249,2.753,.569c-.772,.371-1.428,.938-1.897,1.642-1.992,2.99-.461,7.145,4.201,11.397,.288,.262,.649,.392,1.01,.392,.407,0,.813-.165,1.109-.489,.558-.612,.515-1.561-.098-2.119-2.626-2.396-4.984-5.629-3.726-7.518,.172-.258,.407-.46,.701-.601Z"/>
</svg>
