<?xml version="1.0" encoding="UTF-8"?>
<svg xmlns="http://www.w3.org/2000/svg" id="Layer_1" data-name="Layer 1" viewBox="0 0 24 24">
  <path d="M23.408,.597c-.512-.514-1.266-.716-1.966-.526-2.6,.705-4.943,1.777-6.966,3.188-1.367,.954-4.484,3.88-6.16,5.555l-2.576,2.574c-.481-.875-.739-1.861-.739-2.888,0-.828-.671-1.5-1.5-1.5s-1.5,.672-1.5,1.5c0,2.406,.937,4.669,2.639,6.371l1.184,1.184-2.323,2.323-.939-.939c-.586-.586-1.535-.586-2.121,0s-.586,1.535,0,2.121l4,4c.586,.586,1.535,.586,2.121,0s.586-1.535,0-2.121l-.939-.939,2.323-2.323,1.184,1.184c1.702,1.702,3.965,2.64,6.372,2.64,.829,0,1.5-.672,1.5-1.5s-.671-1.5-1.5-1.5c-1.031,0-2.021-.261-2.899-.746l2.578-2.576c1.713-1.713,4.683-4.873,5.613-6.215,1.381-1.99,2.437-4.312,3.136-6.898,.192-.699-.007-1.453-.52-1.968Zm-5.082,7.156c-.713,1.029-3.35,3.885-5.269,5.803l-2.747,2.745-2.621-2.621,2.746-2.744c1.623-1.622,4.606-4.414,5.757-5.217,1.28-.894,2.718-1.631,4.292-2.203-.564,1.562-1.288,2.981-2.159,4.237Z"/>
</svg>
