<?xml version="1.0" encoding="UTF-8"?>
<svg xmlns="http://www.w3.org/2000/svg" id="Layer_1" data-name="Layer 1" viewBox="0 0 24 24">
  <path d="m7,11c-.553,0-1-.448-1-1h-.268c-1.067,0-2.063-.574-2.598-1.499-.277-.478-.113-1.089.364-1.366.479-.278,1.091-.113,1.366.365.179.308.511.5.867.5h2.644c.344,0,.624-.28.624-.624,0-.307-.22-.565-.521-.616l-3.285-.548c-1.271-.211-2.193-1.3-2.193-2.588,0-1.447,1.177-2.624,2.624-2.624h.376c0-.552.447-1,1-1s1,.448,1,1h.268c1.067,0,2.063.575,2.598,1.5.277.478.113,1.089-.364,1.366-.481.276-1.092.113-1.366-.365-.179-.309-.511-.5-.867-.5h-2.644c-.344,0-.624.28-.624.624,0,.307.22.565.521.616l3.285.548c1.271.211,2.193,1.3,2.193,2.588,0,1.447-1.177,2.624-2.624,2.624h-.376c0,.552-.447,1-1,1Zm16.015,3.468l-5.196,5.943c-1.994,2.281-4.875,3.589-7.904,3.589h-5.414c-2.481,0-4.5-2.019-4.5-4.5v-4c0-2.481,2.019-4.5,4.5-4.5h7.857c.942,0,1.803.36,2.449.949l2.438-2.679c.699-.768,1.654-1.217,2.69-1.265,1.032-.046,2.029.309,2.797,1.008,1.565,1.428,1.692,3.875.282,5.455Zm-2.303-3.238c-.173-.158-.404-.241-.636-.229-.236.011-.453.113-.612.288l-3.497,3.843c-.218,1.584-1.475,2.884-3.093,3.115l-5.162.737c-.818.113-1.58-.453-1.697-1.273s.453-1.58,1.273-1.697l5.161-.737c.313-.045.551-.318.551-.636,0-.354-.288-.642-.643-.642h-7.857c-.827,0-1.5.673-1.5,1.5v4c0,.827.673,1.5,1.5,1.5h5.414c2.164,0,4.222-.935,5.646-2.563l5.206-5.955c.33-.371.302-.927-.055-1.252Zm-7.212-5.23h1.501v1.563c0,.863,1.043,1.295,1.653.685l3.063-3.063c.378-.378.378-.991,0-1.369l-3.063-3.063c-.61-.61-1.653-.178-1.653.685v1.563h-1.501c-.828,0-1.5.671-1.5,1.5s.672,1.5,1.5,1.5Z"/>
</svg>
