<?xml version="1.0" encoding="UTF-8"?>
<svg xmlns="http://www.w3.org/2000/svg" id="Layer_1" data-name="Layer 1" viewBox="0 0 24 24">
  <path d="M3,6.5c0-.838,.416-1.575,1.048-2.028-.028-.154-.048-.31-.048-.472,0-1.613,1.276-2.919,2.873-2.987,.403-.609,1.092-1.013,1.877-1.013,.838,0,1.561,.464,1.948,1.143,.253-.086,.52-.143,.802-.143,1.026,0,1.906,.62,2.291,1.504,1.223,.023,2.209,1.017,2.209,2.246,0,1.243-1.007,2.25-2.25,2.25-.297,0-2.265,.007-3.75,.004v1.496c0,.828-.672,1.5-1.5,1.5s-1.5-.672-1.5-1.5v-.023c-.419,.321-.932,.523-1.5,.523-1.381,0-2.5-1.119-2.5-2.5Zm20.015,7.968l-5.196,5.943c-1.993,2.28-4.874,3.589-7.904,3.589H4.5c-2.481,0-4.5-2.019-4.5-4.5v-4c0-2.481,2.019-4.5,4.5-4.5h7.857c.942,0,1.802,.359,2.449,.949l2.438-2.68c1.376-1.575,3.968-1.694,5.488-.256,1.564,1.427,1.691,3.874,.281,5.454Zm-2.303-3.237c-.333-.333-.938-.298-1.248,.059l-3.497,3.843c-.218,1.586-1.475,2.885-3.094,3.116l-5.161,.737c-.818,.108-1.58-.454-1.697-1.273-.117-.82,.453-1.58,1.273-1.697l5.161-.737c.314-.044,.551-.317,.551-.635,0-.354-.288-.643-.643-.643H4.5c-.827,0-1.5,.673-1.5,1.5v4c0,.827,.673,1.5,1.5,1.5h5.414c2.164,0,4.222-.935,5.646-2.563l5.206-5.954c.33-.371,.302-.928-.055-1.252Z"/>
</svg>
