<?xml version="1.0" encoding="UTF-8"?>
<svg xmlns="http://www.w3.org/2000/svg" id="Layer_1" data-name="Layer 1" viewBox="0 0 24 24">
  <path d="m22.5,12h-1.5v-4.168c.504-.561.935-1.208,1.253-1.951l1.579-3.267c.319-.681.178-1.507-.35-2.052-.612-.636-1.597-.743-2.359-.246l-.291.195c-.934.628-2.212,1.489-3.569,1.489H6.737c-1.357,0-2.636-.86-3.489-1.431-.735-.569-1.242-.569-1.409-.569-.496,0-.978.205-1.32.56C-.011,1.108-.149,1.94.183,2.646l1.507,3.112c.337.784.787,1.462,1.31,2.046v4.197h-1.5c-.829,0-1.5.671-1.5,1.5s.671,1.5,1.5,1.5h1.5v7.5c0,.829.671,1.5,1.5,1.5s1.5-.671,1.5-1.5v-7.5h12v7.5c0,.829.671,1.5,1.5,1.5s1.5-.671,1.5-1.5v-7.5h1.5c.829,0,1.5-.671,1.5-1.5s-.671-1.5-1.5-1.5ZM6.737,5h10.526c.819,0,1.585-.163,2.282-.406l-.021.042c-.644,1.502-1.892,2.363-3.424,2.363H7.9c-1.506,0-2.748-.854-3.445-2.406.696.244,1.462.406,2.282.406Zm-.737,4.726c.602.177,1.238.274,1.9.274h2.6v2h-4.5v-2.274Zm7.5,2.274v-2h2.6c.663,0,1.299-.095,1.9-.269v2.269h-4.5Z"/>
</svg>
