<?xml version="1.0" encoding="UTF-8"?>
<svg xmlns="http://www.w3.org/2000/svg" id="Layer_1" data-name="Layer 1" viewBox="0 0 24 24">
  <path d="m23.03,1.71c-.859-1.087-2.146-1.71-3.531-1.71h-2.636c-2.558,0-4.758,1.737-5.351,4.226l-3.389,14.231c-.321,1.349-.012,2.745.847,3.833.859,1.087,2.146,1.71,3.531,1.71h2.636c2.558,0,4.758-1.737,5.351-4.226l3.389-14.231c.321-1.349.012-2.745-.847-3.833Zm-2.072,3.138l-3.388,14.231c-.27,1.131-1.27,1.921-2.433,1.921h-2.636c-.462,0-.891-.208-1.177-.57-.287-.362-.39-.828-.283-1.277l3.388-14.231c.27-1.131,1.27-1.921,2.433-1.921h2.636c.462,0,.891.208,1.177.57.287.362.39.828.283,1.277ZM6,22.5c0,.828-.671,1.5-1.5,1.5-2.481,0-4.5-2.019-4.5-4.5,0-.828.671-1.5,1.5-1.5s1.5.672,1.5,1.5.673,1.5,1.5,1.5,1.5.672,1.5,1.5ZM6,1.5c0,.828-.671,1.5-1.5,1.5s-1.5.673-1.5,1.5-.671,1.5-1.5,1.5-1.5-.672-1.5-1.5C0,2.019,2.019,0,4.5,0c.829,0,1.5.672,1.5,1.5ZM0,9.5c0-.828.672-1.5,1.5-1.5s1.5.672,1.5,1.5-.672,1.5-1.5,1.5-1.5-.672-1.5-1.5ZM8,1.5c0-.828.672-1.5,1.5-1.5s1.5.672,1.5,1.5-.672,1.5-1.5,1.5-1.5-.672-1.5-1.5ZM0,14.5c0-.828.672-1.5,1.5-1.5s1.5.672,1.5,1.5-.672,1.5-1.5,1.5-1.5-.672-1.5-1.5Z"/>
</svg>
