<?xml version="1.0" encoding="UTF-8"?>
<svg xmlns="http://www.w3.org/2000/svg" id="Layer_1" data-name="Layer 1" viewBox="0 0 24 24">
  <path d="m22.732,9.013c-.768-.699-1.764-1.056-2.797-1.008-1.036.048-1.992.498-2.69,1.265l-2.438,2.679c-.646-.589-1.507-.949-2.449-.949h-7.858c-2.481,0-4.5,2.019-4.5,4.5v4c0,2.481,2.019,4.5,4.5,4.5h5.414c3.03,0,5.912-1.309,7.905-3.589l5.197-5.943c1.409-1.581,1.282-4.028-.283-5.455Zm-1.966,3.47l-5.206,5.954c-1.425,1.629-3.482,2.563-5.647,2.563h-5.414c-.827,0-1.5-.673-1.5-1.5v-4c0-.827.673-1.5,1.5-1.5h7.858c.354,0,.642.288.642.643,0,.317-.237.591-.551.635l-5.161.737c-.82.117-1.39.877-1.273,1.697.117.82.879,1.383,1.697,1.273l5.16-.737c1.619-.231,2.877-1.53,3.095-3.116l3.497-3.843c.159-.175.376-.277.612-.288.23-.01.463.071.636.229.356.325.385.882.055,1.252ZM3,5.845V.937c0-.362.204-.68.531-.832.302-.137.658-.117.891.049.039.028.073.061.102.099l1.491,1.999,1.495-1.801c.556-.557,1.41-.569,1.93-.055l1.569,1.853,1.346-1.889c.266-.326.668-.439,1.036-.308.371.133.609.472.609.863v4.944c0,.572-.223,1.11-.628,1.514-.404.403-.94.625-1.511.625h-.004l-6.722-.016c-1.177-.003-2.134-.962-2.134-2.139Z"/>
</svg>
