<?xml version="1.0" encoding="UTF-8"?>
<svg xmlns="http://www.w3.org/2000/svg" id="Layer_1" data-name="Layer 1" viewBox="0 0 24 24">
  <path d="m15,12c0,.553-.448,1-1,1H6c-.552,0-1-.447-1-1s.448-1,1-1v-2c0-.553.448-1,1-1s1,.447,1,1v2h1v-5c0-.553.448-1,1-1s1,.447,1,1v5h1v-3c0-.553.448-1,1-1s1,.447,1,1v3c.552,0,1,.447,1,1Zm8.561,11.561c-.293.293-.677.439-1.061.439s-.768-.146-1.061-.439l-5.514-5.514c-1.66,1.225-3.703,1.959-5.92,1.959C4.492,20.006.006,15.52.006,10.006S4.492.006,10.006.006s10,4.486,10,10c0,2.217-.734,4.26-1.959,5.92l5.514,5.514c.586.586.586,1.535,0,2.121Zm-6.561-13.561c0-3.894-3.19-7.05-7.097-6.993-3.714.054-6.842,3.18-6.897,6.894-.058,3.907,3.098,7.099,6.993,7.099,3.831,0,7-3.169,7-7Z"/>
</svg>
