<?xml version="1.0" encoding="UTF-8"?>
<svg xmlns="http://www.w3.org/2000/svg" id="Layer_1" data-name="Layer 1" viewBox="0 0 24 24">
  <path d="M18.5,2h-.5v-.5c0-.829-.672-1.5-1.5-1.5s-1.5,.671-1.5,1.5v.5h-6v-.5c0-.829-.672-1.5-1.5-1.5s-1.5,.671-1.5,1.5v.5h-.5C2.468,2,0,4.467,0,7.5v11c0,3.033,2.468,5.5,5.5,5.5h13c3.032,0,5.5-2.467,5.5-5.5V7.5c0-3.033-2.468-5.5-5.5-5.5Zm0,19H5.5c-1.379,0-2.5-1.122-2.5-2.5V9H21v9.5c0,1.378-1.121,2.5-2.5,2.5Zm-2.189-3.47c-.87,1.477-2.477,2.47-4.311,2.47-1.104,0-2.161-.37-3.018-1.018l-.816,.816c-.43,.43-1.165,.125-1.165-.483v-2.695c0-.343,.278-.62,.621-.62h2.695c.608,0,.913,.735,.483,1.165l-.374,.374c.468,.29,1.008,.461,1.575,.461,1.104,0,2.063-.603,2.581-1.495,.18-.31,.507-.505,.866-.505,.784,0,1.262,.855,.864,1.53Zm.689-6.846v2.695c0,.343-.278,.621-.621,.621h-2.695c-.608,0-.913-.735-.483-1.166l.374-.374c-.468-.29-1.008-.461-1.575-.461-1.104,0-2.063,.603-2.581,1.495-.18,.31-.507,.505-.866,.505-.784,0-1.262-.855-.864-1.53,.87-1.477,2.477-2.47,4.311-2.47,1.104,0,2.161,.37,3.018,1.018l.817-.817c.43-.43,1.165-.125,1.165,.483Z"/>
</svg>
