<?xml version="1.0" encoding="UTF-8"?>
<svg xmlns="http://www.w3.org/2000/svg" id="Layer_1" data-name="Layer 1" viewBox="0 0 24 24">
  <path d="m23.945,9.516C23.224,3.946,18.254.045,12,0c-.009,0,.028,0,0,0C5.683,0,.761,3.929.032,9.554c-.031.24.001,1.388.164,1.675.191.602.516,1.163.974,1.621,0,0,5.814,5.76,5.831,5.776v3.373c0,1.105.895,2,2,2h6c1.105,0,2-.895,2-2v-3.399c.019-.017,5.813-5.793,5.813-5.793.419-.42.73-.928.926-1.474.234-.349.233-1.613.206-1.819Zm-3.972-2.471c-.157-.017-.308-.045-.473-.045-.882,0-1.668.257-2.337.607-.362-1.575-.974-2.928-1.625-4.025,1.922.667,3.477,1.877,4.435,3.463Zm-10.042,3.809c.608-.426,1.394-.854,2.069-.854s1.463.428,2.07.854l-1.96,5.146h-.218l-1.96-5.146Zm.07-3.439c.521-1.601,1.345-2.864,1.999-3.69.654.827,1.478,2.09,1.999,3.69-.622-.245-1.298-.415-1.999-.415s-1.377.17-1.999.415Zm-1.54-3.832c-.651,1.097-1.262,2.45-1.624,4.024-.67-.35-1.456-.607-2.337-.607-.166,0-.319.028-.477.045.963-1.585,2.518-2.795,4.439-3.463Zm-5.227,7.061c.288-.312.717-.644,1.266-.644,1.5,0,2.506,1.622,2.517,1.632l1.676,4.399c-.02.003-5.437-5.362-5.458-5.387Zm10.766,10.356h-1v1c0,.552-.448,1-1,1s-1-.448-1-1v-1h-1c-.552,0-1-.448-1-1s.448-1,1-1h1v-1c0-.552.448-1,1-1s1,.448,1,1v1h1c.552,0,1,.448,1,1s-.448,1-1,1Zm1.308-4.969s1.689-4.417,1.694-4.422c.049-.044,1.498-1.609,2.498-1.609.53,0,.951.31,1.238.614-.019.023-5.418,5.419-5.43,5.417Z"/>
</svg>
