<?xml version="1.0" encoding="UTF-8"?>
<svg xmlns="http://www.w3.org/2000/svg" id="Layer_1" data-name="Layer 1" viewBox="0 0 24 24">
  <path d="m15,22.5c0,.828-.671,1.5-1.5,1.5H5.5c-3.033,0-5.5-2.468-5.5-5.5V7.5C0,4.521,2.379,2.089,5.337,2.002c.562-1.183,1.769-2.002,3.163-2.002h3c1.395,0,2.601.819,3.163,2.002,2.443.072,4.552,1.748,5.164,4.124.207.803-.277,1.62-1.079,1.827-.799.207-1.62-.277-1.826-1.079-.284-1.104-1.279-1.874-2.421-1.874h-1c-.829,0-1.5-.672-1.5-1.5,0-.275-.224-.5-.5-.5h-3c-.276,0-.5.225-.5.5,0,.828-.671,1.5-1.5,1.5h-1c-1.378,0-2.5,1.121-2.5,2.5v11c0,1.379,1.122,2.5,2.5,2.5h8c.829,0,1.5.672,1.5,1.5Zm6.685-6.233l-3.041-.506c-.373-.062-.644-.382-.644-.761,0-.552.449-1,1-1h2.268c.356,0,.688.191.867.501.277.479.889.643,1.366.364.479-.276.642-.888.365-1.366-.535-.925-1.531-1.499-2.598-1.499h-.268v-1c0-.553-.448-1-1-1s-1,.447-1,1v1c-1.654,0-3,1.346-3,3,0,1.359.974,2.51,2.315,2.733l3.041.506c.373.062.644.382.644.761,0,.552-.449,1-1,1h-2.268c-.356,0-.688-.191-.867-.501-.276-.478-.889-.643-1.366-.364-.479.276-.642.888-.365,1.366.535.925,1.531,1.499,2.598,1.499h.268v1c0,.553.448,1,1,1s1-.447,1-1v-1c1.654,0,3-1.346,3-3,0-1.359-.974-2.51-2.315-2.733ZM11.207,7.793c.391.391.391,1.023,0,1.414l-2.179,2.179c-.409.409-.946.613-1.483.613s-1.074-.204-1.483-.613l-1.288-1.289c-.391-.391-.391-1.024,0-1.414.391-.391,1.023-.391,1.414,0l1.288,1.289c.033.033.105.033.139,0l2.179-2.179c.391-.391,1.023-.391,1.414,0h-.001Zm0,6c.391.391.391,1.023,0,1.414l-2.179,2.179c-.409.409-.946.613-1.483.613s-1.074-.204-1.483-.613l-1.288-1.289c-.391-.391-.391-1.024,0-1.414.391-.391,1.023-.391,1.414,0l1.288,1.289c.033.033.105.033.139,0l2.179-2.179c.391-.391,1.023-.391,1.414,0h-.001Z"/>
</svg>
