<?xml version="1.0" encoding="UTF-8"?>
<svg xmlns="http://www.w3.org/2000/svg" id="Layer_1" data-name="Layer 1" viewBox="0 0 24 24">
  <path d="m22.47,4.03c-.161,0-.312.032-.458.079l1.548-1.548c.586-.585.586-1.536,0-2.121-.586-.586-1.535-.586-2.121,0l-1.548,1.548c.047-.145.079-.297.079-.458,0-.828-.672-1.5-1.5-1.5s-1.5.672-1.5,1.5.672,1.5,1.5,1.5c.161,0,.312-.032.458-.079l-2.159,2.159c-2.363-1.511-5.448-1.492-7.817.199-.87.592-1.375,1.604-1.317,2.636.01.174.038.703-.905,1.269-.641.384-1.2.49-1.663.319-1.271-.472-2.709-.03-3.495,1.075-2.397,3.375-2.021,7.945.892,10.883.009.008.017.017.025.025,0,0,0,0,0,0,0,0,0,0,0,0,0,0,0,0,0,0,1.647,1.647,3.814,2.491,5.996,2.491,1.708,0,3.425-.518,4.911-1.572,1.107-.786,1.55-2.225,1.074-3.5-.173-.466-.067-1.026.316-1.665.566-.942,1.095-.91,1.269-.902,1.036.059,2.051-.446,2.635-1.306,1.699-2.381,1.718-5.471.203-7.835l2.156-2.156c-.047.145-.079.297-.079.458,0,.828.672,1.5,1.5,1.5s1.5-.672,1.5-1.5-.672-1.5-1.5-1.5Zm-6.245,9.344c-.938-.053-2.707.182-4.011,2.354-1.092,1.818-.904,3.318-.555,4.262-1.762,1.251-4.022,1.312-5.83.303l.732-.734c.585-.586.584-1.536-.002-2.121-.587-.586-1.536-.585-2.121.002l-.729.731c-1.006-1.807-.943-4.064.313-5.826.937.347,2.432.531,4.249-.56,2.17-1.301,2.409-3.067,2.413-4.028,1.169-.833,2.632-.961,3.876-.44l-3.121,3.121c-.586.585-.586,1.536,0,2.121.293.293.677.439,1.061.439s.768-.146,1.061-.439l3.122-3.122c.524,1.249.394,2.727-.458,3.936Zm-6.164,1.565c.586.585.586,1.536,0,2.121-.293.293-.677.439-1.061.439s-.768-.146-1.061-.439l-1-1c-.586-.585-.586-1.536,0-2.121.586-.586,1.535-.586,2.121,0l1,1Z"/>
</svg>
