<?xml version="1.0" encoding="UTF-8"?>
<svg xmlns="http://www.w3.org/2000/svg" id="Layer_1" data-name="Layer 1" viewBox="0 0 24 24">
  <path d="m24,7.5V3.5c0-1.93-1.57-3.5-3.5-3.5h-2c-1.93,0-3.5,1.57-3.5,3.5v4c0,1.758,1.308,3.204,3,3.449v10.051h-1.5c-.828,0-1.5.671-1.5,1.5s.672,1.5,1.5,1.5h6c.828,0,1.5-.671,1.5-1.5s-.672-1.5-1.5-1.5h-1.5v-10.051c1.692-.245,3-1.691,3-3.449Zm-6-4c0-.276.225-.5.5-.5h2c.275,0,.5.224.5.5v4c0,.276-.225.5-.5.5h-2c-.275,0-.5-.224-.5-.5V3.5Zm-11-1c0-1.381,1.119-2.5,2.5-2.5s2.5,1.119,2.5,2.5-1.119,2.5-2.5,2.5-2.5-1.119-2.5-2.5Zm3.5,3.5h-2c-1.93,0-3.5,1.57-3.5,3.5v5c0,.171.027.335.051.5h-1.051c-.552,0-1-.449-1-1v-4.5c0-1.333.486-2.548,1.279-3.5h-.779c-1.93,0-3.5,1.57-3.5,3.5v4.5c0,1.476.813,2.754,2.006,3.447l.032,5.178c.005.825.676,1.491,1.5,1.491h.01c.828-.005,1.495-.681,1.49-1.509l-.029-4.606h1.491c.176,0,.343-.036.5-.092v4.592c0,.829.672,1.5,1.5,1.5h2c.828,0,1.5-.671,1.5-1.5v-4.851c1.178-.564,2-1.758,2-3.149v-5c0-1.93-1.57-3.5-3.5-3.5Zm-2.5,3.5c0-.276.225-.5.5-.5h2c.275,0,.5.224.5.5v5c0,.276-.225.5-.5.5h-2c-.275,0-.5-.224-.5-.5v-5ZM2,2.5c0-1.381,1.119-2.5,2.5-2.5.402,0,.777.104,1.114.273-.38.659-.614,1.413-.614,2.227s.234,1.568.615,2.227c-.337.169-.712.273-1.115.273-1.381,0-2.5-1.119-2.5-2.5Z"/>
</svg>
