<?xml version="1.0" encoding="UTF-8"?>
<svg xmlns="http://www.w3.org/2000/svg" id="Layer_1" data-name="Layer 1" viewBox="0 0 24 24">
  <path d="M24,22.5c0,.828-.671,1.5-1.5,1.5H1.5c-.829,0-1.5-.672-1.5-1.5s.671-1.5,1.5-1.5H22.5c.829,0,1.5,.672,1.5,1.5ZM11.955,14h.009c6.093-.003,10.181-3.848,11.656-5.501,.551-.618,.497-1.566-.121-2.118-.618-.55-1.566-.498-2.118,.121-1.206,1.353-4.539,4.498-9.421,4.499-4.802,0-8.139-3.091-9.351-4.42-.558-.612-1.506-.656-2.119-.098-.612,.559-.656,1.507-.098,2.119,1.48,1.623,5.569,5.396,11.563,5.398ZM.96,16.899c1.488,.574,5.441,2.1,10.996,2.101h.006c5.717,0,9.617-1.528,11.085-2.104,.771-.302,1.152-1.172,.85-1.943-.301-.771-1.171-1.152-1.943-.85-1.325,.519-4.842,1.896-9.994,1.896-4.998,0-8.446-1.331-9.919-1.899-.772-.297-1.642,.086-1.939,.859-.298,.772,.086,1.642,.859,1.939Zm10.424-7.655c.34,.34,.892,.34,1.233,0l2.757-2.757c.549-.549,.16-1.488-.616-1.488h-1.257V1.5c0-.829-.671-1.5-1.5-1.5s-1.5,.671-1.5,1.5v3.5h-1.257c-.776,0-1.165,.939-.616,1.488l2.757,2.757Z"/>
</svg>
