<?xml version="1.0" encoding="UTF-8"?>
<svg xmlns="http://www.w3.org/2000/svg" id="Layer_1" data-name="Layer 1" viewBox="0 0 24 24">
  <path d="m11,16.5c0,.828-.671,1.5-1.5,1.5h-2.5c-1.105,0-2-.895-2-2s.895-2,2-2c.738,0,1.376.405,1.723,1h.777c.829,0,1.5.672,1.5,1.5Zm13,1.15c0,2.494-1.722,4.577-4.035,5.167-.146.676-.745,1.183-1.465,1.183-.652,0-1.201-.419-1.408-1H7c-.031,0-.06-.004-.09-.005-.205.583-.756,1.005-1.41,1.005-.829,0-1.5-.672-1.5-1.5v-.185c-2.361-1.126-4-3.53-4-6.315,0-2.445,1.263-4.599,3.169-5.851l-1.277-4.149h-.392c-.829,0-1.5-.672-1.5-1.5s.671-1.5,1.5-1.5h5c.829,0,1.5.672,1.5,1.5s-.671,1.5-1.5,1.5h-1.469l.949,3.083c.334-.049.673-.083,1.02-.083,2.493,0,4.702.783,8.109,1.991.856-2.579,1.358-4.717,1.634-6.116.33-1.666,1.796-2.875,3.488-2.875.211,0,.4-.117.495-.306l.433-.865c.372-.74,1.274-1.039,2.013-.671.741.371,1.041,1.271.671,2.013l-.433.865c-.606,1.211-1.824,1.964-3.178,1.964-.263,0-.492.192-.544.457-.295,1.492-.831,3.776-1.744,6.521.378.129.77.261,1.182.399,2.453.979,4.875,2.344,4.875,5.273Zm-3,0c0-.484,0-1.294-2.907-2.458-1.671-.555-3.104-1.062-4.318-1.492-3.294-1.167-4.798-1.7-6.775-1.7-2.206,0-4,1.794-4,4s1.794,4,4,4h11.65c1.296,0,2.35-1.054,2.35-2.35Z"/>
</svg>
