<?xml version="1.0" encoding="UTF-8"?>
<svg xmlns="http://www.w3.org/2000/svg" id="Layer_1" data-name="Layer 1" viewBox="0 0 24 24">
  <path d="m23.995,15.727c0,1.039-.708,2.14-2.027,2.262l-.237.959c-.295,2.014-1.845,3.588-3.789,3.965-.18.627-.757,1.086-1.442,1.086-.829,0-1.5-.671-1.5-1.5v-1c0-.829.671-1.5,1.5-1.5h.542c.874,0,1.616-.654,1.726-1.522.007-.058.565-2.337.565-2.337.158-.639.712-1.097,1.362-1.138-.566-1.317-1.751-3.586-2.453-4.453-1.456-1.941-3.798-2.866-6.158-2.449-1.142.201-2.266.791-3.164,1.663-1.343,1.302-1.992,2.884-1.878,4.575.104,1.531.839,3.104,2.018,4.318.606.624.939,1.472.939,2.389v1.454c0,.829-.671,1.5-1.5,1.5s-1.5-.671-1.5-1.5v-1.454c0-.125-.036-.242-.091-.299-1.691-1.741-2.707-3.945-2.859-6.207-.175-2.598.787-4.994,2.782-6.93,1.324-1.285,3.005-2.16,4.733-2.464,3.474-.609,6.941.753,9.044,3.561.871,1.075,3.387,5.595,3.387,7.02Zm-8.495-1.727c.828,0,1.5-.672,1.5-1.5s-.672-1.5-1.5-1.5c-.031,0-.059.004-.09.005-.205-.584-.756-1.005-1.41-1.005-.122,0-.238.018-.352.046-.275-.331-.685-.546-1.148-.546-.655,0-1.207.423-1.411,1.009-.03-.002-.059-.009-.089-.009-.828,0-1.5.672-1.5,1.5,0,.057.011.111.017.166-.599.278-1.017.88-1.017,1.584,0,.966.784,1.75,1.75,1.75.27,0,.522-.066.75-.175v3.675c0,.552.448,1,1,1s1-.448,1-1v-5h2.5ZM9.778,1.829c.115.82.873,1.392,1.693,1.277h0c.82-.115,1.392-.873,1.277-1.694h0c-.115-.82-.873-1.392-1.694-1.277h0c-.82.115-1.392.873-1.277,1.694h0Zm-5.123,2.744c.471.681,1.406.852,2.087.38h0c.681-.472.851-1.406.38-2.087h0c-.471-.682-1.406-.852-2.087-.38h0c-.681.472-.851,1.406-.38,2.087h0Zm-1.851,2.042h0c-.724-.403-1.637-.142-2.04.582h0c-.403.724-.142,1.637.582,2.04h0c.724.403,1.637.142,2.039-.581h0c.403-.724.143-1.638-.582-2.04Zm13.753-3.025h0c.784.268,1.636-.15,1.904-.934h0c.268-.784-.15-1.637-.934-1.905h0c-.784-.268-1.637.15-1.905.934h0c-.268.784.151,1.637.934,1.905Zm6.354,2.645c.587-.585.588-1.535.003-2.121-.585-.587-1.535-.588-2.121-.003-.587.585-.588,1.535-.003,2.121.585.587,1.535.588,2.121.003Z"/>
</svg>
