<?xml version="1.0" encoding="UTF-8"?>
<svg xmlns="http://www.w3.org/2000/svg" id="Layer_1" data-name="Layer 1" viewBox="0 0 24 24">
  <path d="M2.975,2.5c0-1.381,1.119-2.5,2.5-2.5s2.5,1.119,2.5,2.5-1.119,2.5-2.5,2.5-2.5-1.119-2.5-2.5Zm6.253,12.243c-.82,.112-1.396,.868-1.283,1.689,.027,.195-.062,.332-.118,.396-.056,.063-.18,.171-.377,.171H3.5c-.197,0-.321-.107-.377-.171-.056-.064-.146-.201-.118-.397l.816-5.988c.086-.632,.533-1.167,1.14-1.362,.788-.255,1.221-1.1,.967-1.889-.254-.787-1.099-1.22-1.889-.967-1.696,.548-2.948,2.044-3.19,3.812L.032,16.026c-.137,1.002,.166,2.014,.831,2.775,.312,.358,.694,.637,1.111,.839v2.859c0,.828,.672,1.5,1.5,1.5s1.5-.672,1.5-1.5v-2.5h1v2.5c0,.828,.672,1.5,1.5,1.5s1.5-.672,1.5-1.5v-2.859c.418-.203,.799-.481,1.111-.839,.665-.762,.968-1.773,.831-2.775-.112-.821-.864-1.394-1.689-1.283ZM18.5,5c1.381,0,2.5-1.119,2.5-2.5s-1.119-2.5-2.5-2.5-2.5,1.119-2.5,2.5,1.119,2.5,2.5,2.5Zm5.442,11.027l-.816-5.99c-.238-1.749-1.476-3.24-3.151-3.799-.786-.264-1.637,.163-1.897,.948-.262,.786,.162,1.636,.948,1.897,.6,.2,1.043,.733,1.128,1.358l.816,5.99c.027,.195-.062,.332-.118,.396-.056,.063-.18,.171-.377,.171h-3.949c-.197,0-.321-.107-.377-.171-.056-.064-.146-.201-.118-.396,.112-.821-.463-1.577-1.283-1.689-.828-.12-1.577,.463-1.689,1.283-.137,1.002,.166,2.014,.831,2.775,.312,.358,.694,.637,1.111,.839v2.859c0,.828,.672,1.5,1.5,1.5s1.5-.672,1.5-1.5v-2.5h1v2.5c0,.828,.672,1.5,1.5,1.5s1.5-.672,1.5-1.5v-2.859c.418-.203,.799-.481,1.111-.839,.665-.762,.968-1.773,.831-2.774Zm-7.942-7.904c0-1.215-.895-2.2-2-2.2s-2,.985-2,2.2c0-1.215-.895-2.2-2-2.2s-2,.985-2,2.2c0,1.73,2.256,3.757,3.38,4.659,.362,.29,.879,.29,1.24,0,1.123-.902,3.38-2.929,3.38-4.659Z"/>
</svg>
