<?xml version="1.0" encoding="UTF-8"?>
<svg xmlns="http://www.w3.org/2000/svg" id="Layer_1" data-name="Layer 1" viewBox="0 0 24 24">
  <path d="M19,10c0,.552-.447,1-1,1h-1v1c0,.552-.447,1-1,1s-1-.448-1-1v-1h-1c-.553,0-1-.448-1-1s.447-1,1-1h1v-1c0-.552,.447-1,1-1s1,.448,1,1v1h1c.553,0,1,.448,1,1Zm-10.5,1c-1.778,0-3.249,1.304-3.494,3-.024,.163-.036,1,.973,1h5.042c1.008,0,.996-.837,.973-1-.245-1.696-1.716-3-3.494-3Zm0-1c1.381,0,2.5-1.119,2.5-2.5s-1.119-2.5-2.5-2.5-2.5,1.119-2.5,2.5,1.119,2.5,2.5,2.5Zm15.5-4.5V14.5c0,3.033-2.468,5.5-5.5,5.5h-1.172l-3.708,3.066c-.925,.819-2.352,.792-3.28-.035l-3.6-3.031h-1.24c-3.032,0-5.5-2.467-5.5-5.5V5.5C0,2.467,2.468,0,5.5,0h13c3.032,0,5.5,2.467,5.5,5.5Zm-3,0c0-1.378-1.121-2.5-2.5-2.5H5.5c-1.379,0-2.5,1.122-2.5,2.5V14.5c0,1.378,1.121,2.5,2.5,2.5h1.788c.354,0,.696,.125,.967,.353l3.749,3.158,3.828-3.167c.27-.222,.607-.344,.956-.344h1.712c1.379,0,2.5-1.122,2.5-2.5V5.5Z"/>
</svg>
