<?xml version="1.0" encoding="UTF-8"?>
<svg xmlns="http://www.w3.org/2000/svg" id="Layer_1" data-name="Layer 1" viewBox="0 0 24 24">
  <path d="m22.919,13.827l-2.01-1.882,2.237-1.485c.097-.064.187-.14.266-.224.56-.598.736-1.448.46-2.218-.275-.767-.948-1.308-1.756-1.412-2.501-.323-7.228-.606-10.116-.606s-7.615.283-10.115.606c-.809.104-1.481.645-1.757,1.412-.276.77-.1,1.62.46,2.218.079.084.169.16.266.224l2.237,1.485-2.01,1.882c-.063.06-.122.125-.175.195-.521.695-.577,1.629-.145,2.381.433.751,1.269,1.167,2.131,1.068,2.222-.264,6.307-.479,9.107-.479s6.886.214,9.108.479c.085.01.171.015.256.015.768,0,1.484-.407,1.874-1.083.433-.751.376-1.686-.145-2.381-.053-.07-.111-.136-.175-.195Zm-5.444-.989l1.524,1.427c-2.229-.163-4.916-.272-6.999-.272s-4.77.109-6.999.272l1.524-1.427c.335-.313.508-.763.47-1.22s-.283-.871-.666-1.125l-1.729-1.148c2.272-.189,5.202-.345,7.4-.345s5.128.156,7.4.345l-1.729,1.148c-.383.254-.628.668-.666,1.125s.135.906.47,1.22Z"/>
</svg>
