<?xml version="1.0" encoding="UTF-8"?>
<svg xmlns="http://www.w3.org/2000/svg" id="Layer_1" data-name="Layer 1" viewBox="0 0 24 24">
  <path d="m22.5,2c-.828,0-1.5.672-1.5,1.5v5.5h-2V1.5c0-.828-.672-1.5-1.5-1.5s-1.5.672-1.5,1.5v7.5h-2V1.5c0-.828-.672-1.5-1.5-1.5s-1.5.672-1.5,1.5v7.5h-2V3.5c0-.828-.672-1.5-1.5-1.5s-1.5.672-1.5,1.5v12.294c0,.039,0,.105-.097.146-.095.038-.144-.006-.167-.03,0,0-2.482-2.49-2.561-2.543-.699-.479-1.815-.559-2.598.225-.798.8-.686,1.937-.162,2.646.034.046,4.721,5.07,4.721,5.07,1.602,1.711,3.864,2.692,6.208,2.692h6.155c3.584,0,6.5-2.916,6.5-6.5V3.5c0-.828-.672-1.5-1.5-1.5Zm-1.5,10.199l-9.655,8.801c-1.009,0-1.991-.286-2.842-.799l8.918-8.201h3.58v.199Zm-8.013-.199l-3.987,3.666v-3.666h3.987Zm4.513,9h-1.682l5.182-4.737v1.237c0,1.93-1.57,3.5-3.5,3.5Z"/>
</svg>
