<?xml version="1.0" encoding="UTF-8"?>
<svg xmlns="http://www.w3.org/2000/svg" id="Layer_1" data-name="Layer 1" viewBox="0 0 24 24">
  <path d="M22.732,9.013c-1.514-1.439-4.113-1.316-5.487,.257l-2.246,2.468V5.021c0-1.072-.572-2.062-1.5-2.598L10,.402c-.928-.536-2.072-.536-3,0L3.5,2.423c-.928,.536-1.5,1.526-1.5,2.598v6.741c-1.205,.808-2,2.182-2,3.738v4c0,2.481,2.019,4.5,4.5,4.5h5.414c3.03,0,5.911-1.308,7.905-3.589l5.195-5.943c1.411-1.581,1.284-4.028-.282-5.455ZM11.5,5.011h2c.276,0,.5,.224,.5,.5s-.224,.5-.5,.5h-.5v3.489c0,.276-.224,.5-.5,.5s-.5-.224-.5-.5v-3.489h-.5c-.276,0-.5-.224-.5-.5s.224-.5,.5-.5Zm-4,.489c0-.276,.224-.5,.5-.5h1.5c.276,0,.5,.224,.5,.5s-.224,.5-.5,.5h-1v1.007l1.001,.003c.276,0,.499,.225,.499,.501,0,.276-.225,.499-.501,.499l-.999-.003v1.493c0,.276-.224,.5-.5,.5s-.5-.224-.5-.5V5.5Zm-4.5,.105c0-.334,.271-.605,.605-.605,.22,0,.422,.119,.529,.311l1.366,2.464v-2.275c0-.276,.224-.5,.5-.5s.5,.224,.5,.5v3.927c0,.316-.256,.573-.573,.573-.208,0-.4-.113-.501-.295l-1.427-2.573v2.368c0,.276-.224,.5-.5,.5s-.5-.224-.5-.5v-3.895Zm17.766,6.877l-5.206,5.955c-1.424,1.629-3.482,2.563-5.646,2.563H4.5c-.827,0-1.5-.673-1.5-1.5v-4c0-.827,.673-1.5,1.5-1.5h7.858c.354,0,.642,.288,.642,.642,0,.317-.237,.591-.551,.636l-5.161,.737c-.82,.117-1.39,.877-1.273,1.697,.117,.82,.878,1.385,1.697,1.273l5.161-.737c1.618-.231,2.875-1.53,3.093-3.115l3.498-3.844c.313-.357,.902-.387,1.248-.059,.356,.325,.385,.881,.054,1.252Z"/>
</svg>
