<?xml version="1.0" encoding="UTF-8"?>
<svg xmlns="http://www.w3.org/2000/svg" id="Layer_1" data-name="Layer 1" viewBox="0 0 24 24">
  <path d="M18.5,10h-1.709l.141-1.077c.193-.932-.036-1.893-.634-2.648-.643-.811-1.614-1.275-2.666-1.275h-1.641l.236-1.573c.037-.248,.245-.427,.495-.427h2.777c.828,0,1.5-.671,1.5-1.5s-.672-1.5-1.5-1.5h-2.777c-1.746,0-3.202,1.253-3.462,2.98l-.303,2.02h-1.837L2.561,.439C1.975-.146,1.025-.146,.439,.439-.146,1.025-.146,1.975,.439,2.561L21.439,23.561c.586,.586,1.535,.586,2.121,0,.586-.585,.586-1.536,0-2.121l-.259-.259c.454-.814,.699-1.74,.699-2.68v-3c0-3.033-2.468-5.5-5.5-5.5Zm2.5,5.5v.5h-2.879l-3-3h3.379c1.379,0,2.5,1.122,2.5,2.5Zm-7.367-7.5c.356,.02,.403,.242,.334,.469l-.201,1.531h-.265c-.418,0-.826,.06-1.227,.152l-.917-.917,.185-1.235h2.091Zm2.418,13l2.954,2.954c-.168,.016-.334,.046-.505,.046H6.661c-2.628,0-4.859-1.899-5.191-4.417L.065,8.918c-.217-1.061,.118-2.229,.948-2.956l2.113,2.113c-.179,.112-.117,.252-.095,.39l.202,1.534h1.817l3,3H3.629l.815,6.191c.136,1.031,1.089,1.809,2.217,1.809h1.946c-.385-.751-.607-1.599-.607-2.5v-3c0-.746,.16-1.458,.436-2.115l5.615,5.615h-3c.232,1.14,1.242,2,2.449,2h2.551Z"/>
</svg>
