<?xml version="1.0" encoding="UTF-8"?>
<svg xmlns="http://www.w3.org/2000/svg" id="Layer_1" data-name="Layer 1" viewBox="0 0 24 24">
  <path d="M18.53,12.377c-.683-1.171-2.376-1.171-3.059,0l-5.227,8.96c-.689,1.181,.163,2.663,1.53,2.663h10.453c1.367,0,2.218-1.483,1.53-2.663l-5.227-8.96Zm-1.53,10.623c-.552,0-1-.448-1-1s.448-1,1-1,1,.448,1,1-.448,1-1,1Zm1-4c0,.552-.448,1-1,1s-1-.448-1-1v-3c0-.552,.448-1,1-1s1,.448,1,1v3Zm-10,3.5c0,.828-.671,1.5-1.5,1.5h-1c-3.033,0-5.5-2.468-5.5-5.5v-6.5C0,5.383,5.383,0,12,0s12,5.383,12,12c0,.191-.005,.382-.014,.571-.039,.827-.747,1.451-1.568,1.427-.828-.039-1.467-.741-1.428-1.569,.007-.142,.01-.286,.01-.429,0-4.962-4.037-9-9-9S3,7.038,3,12v6.5c0,1.379,1.122,2.5,2.5,2.5h1c.829,0,1.5,.672,1.5,1.5Zm5.5-14.5c.828,0,1.5,.671,1.5,1.5s-.672,1.5-1.5,1.5h-5c-.829,0-1.5-.671-1.5-1.5s.671-1.5,1.5-1.5h5Zm-3.5,8h-1.5c-.829,0-1.5-.672-1.5-1.5s.671-1.5,1.5-1.5h1.5c.829,0,1.5,.672,1.5,1.5s-.671,1.5-1.5,1.5Z"/>
</svg>
