<?xml version="1.0" encoding="UTF-8"?>
<svg xmlns="http://www.w3.org/2000/svg" id="Layer_1" data-name="Layer 1" viewBox="0 0 24 24">
  <path d="M12,8c.737,0,1.445,.273,1.993,.771,.318,.288,.74,.427,1.168,.379l2.885-.312c.476-.052,.898-.327,1.138-.742l1.404-2.435c.314-.545,.255-1.229-.148-1.711C18.341,1.439,15.265,0,12,0,5.935,0,1,4.935,1,11c0,3.634,1.103,7.64,1.875,10h-.375c-.829,0-1.5,.672-1.5,1.5s.671,1.5,1.5,1.5h5.999c.769,0,1.483-.345,1.96-.947,.477-.601,.649-1.373,.474-2.118-.095-.409-.216-.9-.35-1.449-.592-2.417-1.583-6.463-1.583-8.485,0-1.654,1.346-3,3-3Zm-7.208-.448l1.655,1.182c-.286,.7-.447,1.464-.447,2.265h-2c0-1.236,.29-2.402,.792-3.448Zm3.45-1.223l-1.668-1.191c1.078-.998,2.426-1.706,3.926-1.992v2.051c-.837,.216-1.604,.605-2.258,1.132Zm8.724-.393l-1.514,.164c-.591-.42-1.255-.711-1.952-.893V3.141c1.468,.279,2.828,.966,3.932,1.988l-.466,.808ZM6.045,21c-.49-1.395-1.371-4.15-1.799-7h2.065c.342,2.041,.903,4.34,1.359,6.199,.069,.283,.135,.552,.195,.801h-1.82Zm15.455,0h-.402c.635-2.004,1.515-5.211,1.814-8.358,.048-.504-.162-.999-.559-1.314-.396-.316-.925-.41-1.407-.251l-2.164,.718-1.844-.697c-.435-.163-.921-.118-1.317,.126-.396,.244-.656,.657-.705,1.119-.279,2.637-.913,6.66-1.356,8.611-.169,.743,.007,1.511,.482,2.106,.477,.598,1.19,.94,1.958,.94h5.5c.829,0,1.5-.672,1.5-1.5s-.671-1.5-1.5-1.5Zm-3.561,0h-1.319c.348-1.685,.757-4.2,1.05-6.42l.55,.208c.322,.122,.676,.129,1.002,.021l.376-.125c-.469,2.598-1.224,5.025-1.66,6.316Z"/>
</svg>
