<?xml version="1.0" encoding="UTF-8"?>
<svg xmlns="http://www.w3.org/2000/svg" id="Layer_1" data-name="Layer 1" viewBox="0 0 24 24">
  <path d="M12,22.5c0,.828-.671,1.5-1.5,1.5-.744,0-1.432-.238-2-.635-.568,.398-1.256,.635-2,.635-.829,0-1.5-.672-1.5-1.5s.671-1.5,1.5-1.5c.276,0,.5-.225,.5-.5V3.5c0-.276-.224-.5-.5-.5-.829,0-1.5-.671-1.5-1.5s.671-1.5,1.5-1.5c.744,0,1.432,.238,2,.635,.568-.398,1.256-.635,2-.635,.829,0,1.5,.671,1.5,1.5s-.671,1.5-1.5,1.5c-.276,0-.5,.224-.5,.5V20.5c0,.275,.224,.5,.5,.5,.829,0,1.5,.672,1.5,1.5Zm2-12.5v5.5c0,.828,.672,1.5,1.5,1.5s1.5-.672,1.5-1.5v-5.5h.5c.828,0,1.5-.671,1.5-1.5s-.672-1.5-1.5-1.5h-4c-.829,0-1.5,.671-1.5,1.5s.671,1.5,1.5,1.5h.5ZM18.5,2h-4c-.828,0-1.5,.671-1.5,1.5s.672,1.5,1.5,1.5h4c1.379,0,2.5,1.122,2.5,2.5v9c0,1.379-1.121,2.5-2.5,2.5h-4c-.828,0-1.5,.672-1.5,1.5s.672,1.5,1.5,1.5h4c3.032,0,5.5-2.468,5.5-5.5V7.5c0-3.033-2.468-5.5-5.5-5.5ZM4.254,5.351c.716-.417,.958-1.335,.542-2.051-.417-.716-1.334-.958-2.051-.542C1.052,3.744,0,5.561,0,7.5v9c0,1.938,1.052,3.755,2.745,4.741,.237,.139,.497,.204,.753,.204,.517,0,1.019-.267,1.298-.745,.417-.716,.174-1.634-.542-2.051-.786-.458-1.255-1.262-1.255-2.149V7.5c0-.888,.469-1.692,1.254-2.149Z"/>
</svg>
