<?xml version="1.0" encoding="UTF-8"?>
<svg xmlns="http://www.w3.org/2000/svg" id="Layer_1" data-name="Layer 1" viewBox="0 0 24 24">
  <path d="m19.5,0H4.5C2.019,0,0,2.019,0,4.5v15c0,2.481,2.019,4.5,4.5,4.5h11.343c1.47,0,2.851-.572,3.89-1.611l2.656-2.657c1.039-1.039,1.611-2.42,1.611-3.889V4.5c0-2.481-2.019-4.5-4.5-4.5Zm-3.111,6.19h-.488c-.358,0-.648-.29-.648-.648s.291-.648.649-.648h.497c.316,0,.573-.245.573-.547s-.257-.548-.573-.548h-1.375c-.355,0-.643-.288-.643-.643s.288-.643.644-.643l1.374.002c1.024,0,1.857.822,1.857,1.832,0,.458-.177.872-.46,1.194.283.323.46.738.46,1.198,0,1.016-.838,1.843-1.868,1.843h-1.381c-.357,0-.647-.29-.647-.647s.29-.647.647-.647h1.381c.316,0,.573-.246.573-.548s-.257-.548-.573-.548Zm-6.889-3.065c0-.345.28-.625.625-.625h1.342c1.109,0,2.012.891,2.012,1.985s-.902,1.985-2.012,1.985l-.717.003v1.471c0,.345-.28.625-.625.625s-.625-.28-.625-.625V3.125Zm-6.115.134c.032-.535.358-.759.749-.759.26,0,.501.184.638.486l.883,1.942.883-1.942c.137-.302.378-.486.638-.486.391,0,.717.224.749.759l.338,4.659c.026.352-.253.651-.605.651-.318,0-.582-.246-.605-.563l-.201-2.776-.644,1.416c-.216.474-.889.474-1.105,0l-.644-1.416-.201,2.776c-.023.317-.287.563-.605.563-.352,0-.631-.299-.605-.651l.338-4.659Zm-.385,16.241v-8.5h18v4h-4c-1.105,0-2,.895-2,2v4H4.5c-.827,0-1.5-.673-1.5-1.5Zm7.757-14.277l-.005-1.473h.715c.413,0,.762.336.762.735s-.349.735-.762.735l-.71.003Z"/>
</svg>
