<?xml version="1.0" encoding="UTF-8"?>
<svg xmlns="http://www.w3.org/2000/svg" id="Layer_1" data-name="Layer 1" viewBox="0 0 24 24">
  <path d="m1.5,7c-.384,0-.768-.146-1.061-.439-.586-.585-.586-1.536,0-2.121l.939-.939-.939-.939C-.146,1.975-.146,1.025.439.439,1.025-.146,1.975-.146,2.561.439l.939.939.939-.939c.586-.586,1.535-.586,2.121,0,.586.585.586,1.536,0,2.121l-.939.939.939.939c.586.585.586,1.536,0,2.121-.293.293-.677.439-1.061.439s-.768-.146-1.061-.439l-.939-.939-.939.939c-.293.293-.677.439-1.061.439Zm6.939,3.561c.293.293.677.439,1.061.439s.768-.146,1.061-.439l.939-.939.939.939c.293.293.677.439,1.061.439s.768-.146,1.061-.439c.586-.585.586-1.536,0-2.121l-.939-.939.939-.939c.586-.585.586-1.536,0-2.121-.586-.586-1.535-.586-2.121,0l-.939.939-.939-.939c-.586-.586-1.535-.586-2.121,0-.586.585-.586,1.536,0,2.121l.939.939-.939.939c-.586.585-.586,1.536,0,2.121Zm12.121,6.879c-.586-.586-1.535-.586-2.121,0l-.939.939-.939-.939c-.586-.586-1.535-.586-2.121,0s-.586,1.535,0,2.121l.939.939-.939.939c-.586.586-.586,1.535,0,2.121.293.293.677.439,1.061.439s.768-.146,1.061-.439l.939-.939.939.939c.293.293.677.439,1.061.439s.768-.146,1.061-.439c.586-.586.586-1.535,0-2.121l-.939-.939.939-.939c.586-.586.586-1.535,0-2.121Zm2.656-14.079l-3.038-3.038c-.375-.375-.983-.375-1.358,0l-3.038,3.038c-.605.605-.177,1.639.679,1.639h1.522v4.5c0,1.378-1.121,2.5-2.5,2.5h-6.984c-3.032,0-5.5,2.468-5.5,5.5v.916c-.893.52-1.5,1.476-1.5,2.584,0,1.657,1.343,3,3,3s3-1.343,3-3c0-1.108-.607-2.064-1.5-2.584v-.916c0-1.379,1.121-2.5,2.5-2.5h6.984c3.032,0,5.5-2.467,5.5-5.5v-4.5h1.553c.856,0,1.284-1.034.679-1.639Z"/>
</svg>
