<?xml version="1.0" encoding="UTF-8"?>
<svg xmlns="http://www.w3.org/2000/svg" id="Layer_1" data-name="Layer 1" viewBox="0 0 24 24">
  <path d="m10.708,20.166c-.294.399-.749.611-1.209.611-.309,0-.62-.095-.887-.291l-5.443-4c-.433-.318-.944-.486-1.481-.486h-.188c-.829,0-1.5-.672-1.5-1.5s.671-1.5,1.5-1.5h.188c1.18,0,2.307.37,3.258,1.069l5.442,3.999c.667.491.811,1.43.32,2.098Zm5.773-9.255c.503-.659.377-1.6-.281-2.103l-3.29-2.513c-.4-.306-.912-.382-1.37-.236l2.822-2.385c.739-.698,1.897-.867,2.807-.412l2.104,1.052c.898.449,1.903.686,2.907.686h.32c.829,0,1.5-.671,1.5-1.5s-.671-1.5-1.5-1.5h-.32c-.541,0-1.082-.128-1.565-.37l-2.105-1.053C16.496-.428,13.902-.018,12.365,1.437l-.358.303-.341-.31c-1.011-.921-2.321-1.429-3.727-1.429-.845,0-1.692.2-2.451.578l-2.104,1.052c-.483.242-1.024.37-1.565.37h-.32c-.829,0-1.5.671-1.5,1.5s.671,1.5,1.5,1.5h.32c1.004,0,2.009-.237,2.907-.686l2.103-1.052c.848-.423,2.048-.316,2.816.384l.05.046-3.695,3.122c-.032.027-.062.055-.092.084-1.045,1.044-1.205,2.706-.371,3.865.511.71,1.3,1.157,2.166,1.227.08.007.16.01.24.01.758,0,1.488-.291,2.04-.817l2.068-1.768,2.327,1.777c.659.503,1.601.377,2.103-.281Zm7.518,7.589c0,3.038-2.462,5.5-5.5,5.5s-5.5-2.462-5.5-5.5,2.462-5.5,5.5-5.5,5.5,2.462,5.5,5.5Zm-2.285-2.199h0c-.393-.402-1.039-.401-1.431.002l-2.614,2.714-.946-.994c-.392-.413-1.05-.414-1.444-.004-.371.385-.373.994-.004,1.381l.974,1.025c.766.765,2.079.763,2.823.019l.004-.004,2.641-2.743c.378-.389.377-1.008-.002-1.396Z"/>
</svg>
