<?xml version="1.0" encoding="UTF-8"?>
<svg xmlns="http://www.w3.org/2000/svg" id="Layer_1" data-name="Layer 1" viewBox="0 0 24 24">
  <path d="M23.615,10.602l-.842-2.523c-.613-1.841-2.329-3.078-4.27-3.078h-.717c-.655-2.305-2.775-4-5.287-4H4.144c-1.34,0-2.63,.487-3.635,1.372C-.113,2.92-.173,3.868,.374,4.489c.548,.622,1.494,.683,2.117,.135,.457-.402,1.044-.624,1.652-.624H12.5c1.379,0,2.5,1.121,2.5,2.5v10.5H3v-.423c0-.828-.672-1.5-1.5-1.5s-1.5,.672-1.5,1.5v1.923c0,.828,.672,1.5,1.5,1.5h.5v.577c0,1.381,1.119,2.5,2.5,2.5s2.5-1.119,2.5-2.5v-.577h10v.577c0,1.381,1.119,2.5,2.5,2.5s2.5-1.119,2.5-2.5v-.928c1.178-.564,2-1.758,2-3.149v-3.526c0-.809-.13-1.606-.385-2.372Zm-3.688-1.575l.842,2.524c.153,.459,.23,.938,.23,1.423v.026h-3v-5h.504c.647,0,1.219,.412,1.424,1.026ZM0,12.375V7.625c0-.345,.28-.625,.625-.625H1.875c.345,0,.625,.28,.625,.625s-.28,.625-.625,.625h-.623l.005,1.252h.617c.346-.002,.626,.278,.626,.624h0c0,.345-.279,.625-.624,.625h-.626v1.624c0,.345-.28,.625-.625,.625s-.625-.28-.625-.625Zm9.875-4.125h-.623l.005,1.183h.617c.346-.002,.626,.278,.626,.624h0c0,.345-.279,.625-.624,.625h-.62s-.004,1.068-.004,1.068h.623c.345,0,.625,.28,.625,.625s-.28,.625-.625,.625h-1.25c-.345,0-.625-.28-.625-.625V7.625c0-.345,.28-.625,.625-.625h1.25c.345,0,.625,.28,.625,.625s-.28,.625-.625,.625Zm3.5,0h-.623l.005,1.183h.617c.346-.002,.626,.278,.626,.624h0c0,.345-.279,.625-.624,.625h-.62s-.004,1.068-.004,1.068h.623c.345,0,.625,.28,.625,.625s-.28,.625-.625,.625h-1.25c-.345,0-.625-.28-.625-.625V7.625c0-.345,.28-.625,.625-.625h1.25c.345,0,.625,.28,.625,.625s-.28,.625-.625,.625Zm-8.387-1.25h-.866c-.344,0-.623,.279-.623,.623v4.755c0,.344,.279,.623,.623,.623h.005c.344,0,.623-.279,.623-.623v-1.404l.238-.003c.121,0,.238-.015,.353-.035l.47,1.617c.077,.266,.321,.449,.598,.449,.418,0,.717-.404,.596-.804l-.562-1.848c.343-.356,.557-.835,.557-1.364,0-1.094-.902-1.985-2.012-1.985Zm0,2.72l-.231,.003-.005-1.473h.236c.413,0,.762,.336,.762,.735s-.349,.735-.762,.735Z"/>
</svg>
