<?xml version="1.0" encoding="UTF-8"?>
<svg xmlns="http://www.w3.org/2000/svg" id="Layer_1" data-name="Layer 1" viewBox="0 0 24 24">
  <path d="m23.775,21.048l-2.451,2.451c-.488.488-1.322.142-1.322-.548v-.951h-1.501c-.829,0-1.5-.671-1.5-1.5s.671-1.5,1.5-1.5h1.501v-.951c0-.69.834-1.036,1.322-.548l2.451,2.451c.303.302.303.793,0,1.096Z"/>
  <path d="m2.678,6.499c.488.488,1.322.142,1.322-.548v-.951h1.501c.829,0,1.5-.671,1.5-1.5s-.671-1.5-1.5-1.5h-1.501v-.951C4,.359,3.166.014,2.678.502L.227,2.952c-.302.302-.302.793,0,1.096l2.451,2.451Z"/>
  <path d="m15.501,0C10.814,0,7.001,3.813,7.001,8.5s3.813,8.5,8.5,8.5,8.5-3.813,8.5-8.5S20.188,0,15.501,0Zm0,14c-3.033,0-5.5-2.467-5.5-5.5s2.467-5.5,5.5-5.5,5.5,2.467,5.5,5.5-2.467,5.5-5.5,5.5Z"/>
  <path d="m14.445,18.821c-.646-.521-1.59-.42-2.11.223-1.005,1.243-2.494,1.956-4.084,1.956-2.895,0-5.25-2.355-5.25-5.25,0-1.585.709-3.071,1.946-4.076.643-.522.74-1.467.218-2.11-.523-.644-1.467-.741-2.11-.218C1.114,10.923,0,13.257,0,15.75,0,20.299,3.702,24,8.251,24c2.5,0,4.839-1.119,6.417-3.069.521-.644.421-1.589-.223-2.11Z"/>
  <path d="m17.854,8.406c.26-.355.419-.789.419-1.263,0-1.102-.834-2-1.904-2.122v-.221c0-.442-.358-.8-.8-.8s-.8.358-.8.8v.196h-.775c-.442,0-.8.358-.8.8v5.404c0,.442.358.8.8.8h.775v.2c0,.442.358.8.8.8s.8-.358.8-.8v-.209c1.143-.048,2.057-.982,2.057-2.137,0-.56-.22-1.066-.572-1.449Zm-1.708,2.205h-1.606v-1.622h1.606c.448,0,.811.363.811.811s-.363.811-.811.811Zm0-2.61h-1.606v-1.622h1.606c.448,0,.811.363.811.811s-.363.811-.811.811Z"/>
</svg>
