<?xml version="1.0" encoding="UTF-8"?>
<svg xmlns="http://www.w3.org/2000/svg" id="Layer_1" data-name="Layer 1" viewBox="0 0 24 24">
  <path d="M20,10.5c0-.828,.672-1.5,1.5-1.5h1c.828,0,1.5,.672,1.5,1.5s-.672,1.5-1.5,1.5h-1c-.828,0-1.5-.672-1.5-1.5ZM2.5,9H1.5c-.828,0-1.5,.672-1.5,1.5s.672,1.5,1.5,1.5h1c.828,0,1.5-.672,1.5-1.5s-.672-1.5-1.5-1.5Zm19.617-3.58l1-.553c.755-.341,1.091-1.229,.75-1.984h0c-.341-.755-1.229-1.091-1.984-.75l-1,.553c-.755,.341-1.091,1.229-.75,1.984,.341,.755,1.229,1.091,1.984,.75ZM.883,4.867l1,.553c.755,.341,1.643,.005,1.984-.75,.341-.755,.005-1.643-.75-1.984l-1-.553c-.755-.341-1.643-.005-1.984,.75H.133c-.341,.755-.005,1.643,.75,1.984Zm22.234,11.319l-1-.553c-.755-.341-1.643-.005-1.984,.75h0c-.341,.755-.005,1.643,.75,1.984l1,.553c.755,.341,1.643,.005,1.984-.75,.341-.755,.005-1.643-.75-1.984Zm-19.25,.197c-.341-.755-1.229-1.091-1.984-.75l-1,.553c-.755,.341-1.091,1.229-.75,1.984,.341,.755,1.229,1.091,1.984,.75l1-.553c.755-.341,1.091-1.229,.75-1.984h0ZM15.891,4.129L6.891,8.129c-.757,.336-1.098,1.223-.761,1.98,.249,.559,.797,.891,1.372,.891,.204,0,.41-.042,.608-.13l9-4c.757-.336,1.098-1.223,.761-1.98-.336-.756-1.221-1.097-1.98-.761Zm-8.39,1.621c.204,0,.41-.042,.608-.13l3.816-1.696c.757-.336,1.098-1.223,.761-1.98-.336-.757-1.222-1.096-1.98-.761l-3.816,1.696c-.757,.336-1.098,1.223-.761,1.98,.249,.559,.797,.891,1.372,.891Zm8.39,3.539L6.891,13.29c-.757,.336-1.098,1.223-.761,1.98,.249,.559,.797,.891,1.372,.891,.204,0,.41-.042,.608-.13l9-4c.757-.336,1.098-1.223,.761-1.98s-1.221-1.096-1.98-.761Zm0,5.16l-9,4c-.757,.336-1.098,1.223-.761,1.98,.249,.559,.797,.891,1.372,.891,.204,0,.41-.042,.608-.13l.919-.409c.142,1.244,1.19,2.218,2.471,2.218h1c1.378,0,2.5-1.122,2.5-2.5v-2.372l2.109-.938c.757-.336,1.098-1.223,.761-1.98-.336-.757-1.221-1.096-1.98-.761Z"/>
</svg>
