<?xml version="1.0" encoding="UTF-8"?>
<svg xmlns="http://www.w3.org/2000/svg" id="Layer_1" data-name="Layer 1" viewBox="0 0 24 24">
  <path d="M22.5,21h-.5v-5.5c0-.828-.671-1.5-1.5-1.5s-1.5,.672-1.5,1.5v5.5h-2v-4.5c0-.828-.671-1.5-1.5-1.5s-1.5,.672-1.5,1.5v4.5h-5.514c-.676,0-1.323-.123-1.921-.348,.005-.041,.273-1.29,.384-1.871,.679-2.36,2.401-5.605,6.71-7.091,.087,.038,.177,.08,.261,.117,.579,.255,1.125,.496,1.563,.764,.468,.287,.993,.43,1.517,.43s1.049-.144,1.517-.43c.438-.268,.984-.509,1.563-.764,1.654-.729,3.92-1.728,3.92-4.146,0-.989-.378-2.02-.996-2.969l.024-2.19c0-.966-.54-1.828-1.41-2.25-.871-.421-1.881-.31-2.689,.329l-.675,.582c-.42-.105-.841-.163-1.254-.163-.398,0-.804,.054-1.208,.153l-.776-.613c-.759-.599-1.77-.709-2.639-.288-.87,.422-1.41,1.284-1.41,2.27l.029,2.171c-.618,.949-.996,1.98-.996,2.968,0,.836,.282,1.494,.706,2.039-1.106,.581-2.053,1.273-2.864,2.035,.247-3.446,.221-6.349,.209-7.745-.02-2.2-1.826-3.989-4.025-3.989S.042,1.763,0,3.947c0,.011,0,.022,0,.034-.021,2.227-.02,7.269-.014,11.532,.006,4.68,3.819,8.487,8.5,8.487h14.014c.829,0,1.5-.672,1.5-1.5s-.671-1.5-1.5-1.5Zm-1.5-13.339c0,.462-1.181,.982-2.129,1.4-.627,.276-1.274,.562-1.871,.921-.597-.359-1.244-.645-1.871-.921-.949-.418-2.129-.938-2.129-1.4,0-1.471,2.393-3.661,4-3.661s4,2.19,4,3.661ZM2.983,9h2.006c-.025,.635-.059,1.305-.104,2h-1.903c0-.682,0-1.354,0-2Zm.017-4.975c0-.565,.46-1.025,1.025-1.025,.56,0,1.02,.456,1.025,1.017,.005,.484,.01,1.166,.005,1.983H2.989c.003-.757,.006-1.418,.011-1.932,0-.014,0-.029,0-.043Zm-.016,9.975h1.643c-.145,1.334-.34,2.705-.595,4.065-.045,.156-.091,.312-.129,.464-.576-.867-.916-1.905-.917-3.021,0-.494-.001-.999-.002-1.509Z"/>
</svg>
