<?xml version="1.0" encoding="UTF-8"?>
<svg xmlns="http://www.w3.org/2000/svg" id="Layer_1" data-name="Layer 1" viewBox="0 0 24 24">
  <path d="m16.663,2.002c-.562-1.183-1.769-2.002-3.163-2.002h-3c-1.395,0-2.601.819-3.163,2.002-2.958.086-5.337,2.52-5.337,5.498v11c0,3.033,2.467,5.5,5.5,5.5h9c3.033,0,5.5-2.467,5.5-5.5V7.5c0-2.978-2.379-5.411-5.337-5.498Zm2.337,16.498c0,1.378-1.122,2.5-2.5,2.5H7.5c-1.378,0-2.5-1.122-2.5-2.5V7.5c0-1.378,1.122-2.5,2.5-2.5h1c.829,0,1.5-.671,1.5-1.5,0-.276.224-.5.5-.5h3c.276,0,.5.224.5.5,0,.829.671,1.5,1.5,1.5h1c1.378,0,2.5,1.122,2.5,2.5v11Zm-7-11.5c-3.314,0-6,2.686-6,6s2.686,6,6,6,6-2.686,6-6-2.686-6-6-6Zm-1,3c0-.552.448-1,1-1s1,.448,1,1v3c0,.552-.448,1-1,1s-1-.448-1-1v-3Zm1,8c-.828,0-1.5-.672-1.5-1.5s.672-1.5,1.5-1.5,1.5.672,1.5,1.5-.672,1.5-1.5,1.5Z"/>
</svg>
