<?xml version="1.0" encoding="UTF-8"?>
<svg xmlns="http://www.w3.org/2000/svg" id="Layer_1" data-name="Layer 1" viewBox="0 0 24 24">
  <path d="m24,7.5v5c0,.828-.672,1.5-1.5,1.5s-1.5-.672-1.5-1.5v-3.5H3v9.5c0,.908.494,1.747,1.29,2.188.725.401.986,1.314.584,2.039-.273.494-.785.772-1.312.772-.246,0-.496-.061-.727-.188-1.749-.97-2.835-2.813-2.835-4.812V7.5C0,4.467,2.468,2,5.5,2h.5v-.5c0-.829.672-1.5,1.5-1.5s1.5.671,1.5,1.5v.5h6v-.5c0-.829.672-1.5,1.5-1.5s1.5.671,1.5,1.5v.5h.5c3.032,0,5.5,2.467,5.5,5.5Zm-10.86,8.5c-.419,0-.768.324-.798.742l-.265,3.66-.779-1.713c-.311-.685-1.284-.685-1.596,0l-.779,1.713-.265-3.66c-.03-.418-.379-.742-.798-.742-.465,0-.831.394-.798.858l.445,6.142c.043.705.472,1,.988,1,.342,0,.66-.242.841-.64l1.164-2.56,1.164,2.56c.181.398.499.64.841.64.516,0,.945-.295.988-1l.445-6.142c.034-.463-.333-.858-.798-.858Zm4.56,1.6c.442,0,.8-.358.8-.8s-.358-.8-.8-.8h-1.9c-.442,0-.8.358-.8.8v6.4c0,.442.358.8.8.8h1.9c.442,0,.8-.358.8-.8s-.358-.8-.8-.8h-1.101v-1.551h1.101c.442,0,.8-.358.8-.8s-.358-.8-.8-.8h-1.101v-1.65h1.101Zm6.3.7v3.4c0,1.27-1.03,2.3-2.3,2.3h-1.5c-.442,0-.8-.358-.8-.8v-6.4c0-.442.358-.8.8-.8h1.5c1.27,0,2.3,1.03,2.3,2.3Zm-1.6,0c0-.386-.314-.7-.7-.7s-.7,0-.7,0v4.802s.314,0,.7,0,.7-.314.7-.7v-3.4Z"/>
</svg>
