<?xml version="1.0" encoding="UTF-8"?>
<svg xmlns="http://www.w3.org/2000/svg" id="Layer_1" data-name="Layer 1" viewBox="0 0 24 24">
  <path d="m10.748,18.049c.459.689.273,1.62-.416,2.08-1,.668-2.35.486-3.141-.419l-1.767-2.019c-1.509,1.124-2.424,2.913-2.424,4.809,0,.828-.671,1.5-1.5,1.5s-1.5-.672-1.5-1.5c0-3.173,1.706-6.145,4.451-7.757.913-.534,2.087-.337,2.792.471l1.928,2.203c.589-.133,1.223.101,1.577.632ZM3,6C3,2.691,5.691,0,9,0s6,2.691,6,6-2.691,6-6,6-6-2.691-6-6Zm3,0c0,1.654,1.346,3,3,3s3-1.346,3-3-1.346-3-3-3-3,1.346-3,3Zm18,11v4c0,1.657-1.343,3-3,3h-5c-1.657,0-3-1.343-3-3v-4c0-1.657,1.343-3,3-3h5c1.657,0,3,1.343,3,3Zm-3.5,1c0-.552-.448-1-1-1h-2c-.552,0-1,.448-1,1s.448,1,1,1h2c.552,0,1-.448,1-1Z"/>
</svg>
