<?xml version="1.0" encoding="UTF-8"?>
<svg xmlns="http://www.w3.org/2000/svg" id="Layer_1" data-name="Layer 1" viewBox="0 0 24 24">
  <path d="M2.5,6.837c-1.442-.432-2.5-1.754-2.5-3.337V.8C0,.358,.358,0,.8,0s.8,.358,.8,.8V3.5c0,.759,.454,1.413,1.101,1.717V.8c0-.442,.358-.8,.8-.8s.8,.358,.8,.8V5.217c.647-.304,1.101-.958,1.101-1.717V.8c0-.442,.358-.8,.8-.8s.8,.358,.8,.8V3.5c0,1.583-1.058,2.905-2.5,3.337v4.163c0,.552-.447,1-1,1s-1-.448-1-1V6.837ZM22.782,.178c-.813,.652-2.177,2.352-2.28,4.746-.03,1.167,.432,2.449,1.498,3.726v2.35c0,.552,.447,1,1,1s1-.448,1-1V.573c-.004-.489-.75-.781-1.218-.395Zm-.282,12.822c-.828,0-1.5,.671-1.5,1.5v2.379l-.965-.964c-1.878-1.879-4.377-2.915-7.035-2.915s-5.157,1.035-7.035,2.915l-.965,.964v-2.379c0-.829-.672-1.5-1.5-1.5s-1.5,.671-1.5,1.5v6c-.043,1.296,1.674,2.01,2.561,1.061l2.439-2.439v3.379c0,.829,.672,1.5,1.5,1.5s1.5-.671,1.5-1.5v-5.814c.926-.444,1.943-.686,3-.686s2.074,.242,3,.686v5.814c0,.829,.672,1.5,1.5,1.5s1.5-.671,1.5-1.5v-3.379l2.439,2.439c.891,.949,2.602,.234,2.561-1.061v-6c0-.829-.672-1.5-1.5-1.5Zm-9.5-2c2.209,0,4-1.791,4-4s-1.791-4-4-4-4,1.791-4,4,1.791,4,4,4Z"/>
</svg>
