<?xml version="1.0" encoding="UTF-8"?>
<svg xmlns="http://www.w3.org/2000/svg" id="Layer_1" data-name="Layer 1" viewBox="0 0 24 24">
  <path d="m24.041,4.46v1c0,.828-.672,1.5-1.5,1.5s-1.5-.672-1.5-1.5v-1c0-.827-.673-1.5-1.5-1.5h-1c-.828,0-1.5-.672-1.5-1.5S17.713-.04,18.541-.04h1c2.481,0,4.5,2.019,4.5,4.5Zm-1.5,7.5c-.828,0-1.5.672-1.5,1.5v1c0,.827-.673,1.5-1.5,1.5h-1c-.828,0-1.5.672-1.5,1.5s.672,1.5,1.5,1.5h1c2.481,0,4.5-2.019,4.5-4.5v-1c0-.828-.672-1.5-1.5-1.5ZM6.541,6.96c.828,0,1.5-.672,1.5-1.5v-1c0-.827.673-1.5,1.5-1.5h1.5c.828,0,1.5-.672,1.5-1.5S11.869-.04,11.041-.04h-1.5C7.059-.04,5.041,1.979,5.041,4.46v1c0,.828.672,1.5,1.5,1.5Zm12.415,5.716c.161-.346.089-.756-.181-1.026l-1.928-1.928,1.232-2.597c.158-.345.084-.752-.184-1.02s-.675-.342-1.02-.184l-2.597,1.232-1.928-1.928c-.269-.269-.678-.342-1.024-.182-.346.16-.555.518-.524.898l.285,2.77-2.542,1.333c-.342.178-.534.553-.479.935.029.199.121.378.257.513.125.125.285.213.466.249l1.574.312C6.662,15.554.48,21.4.48,21.4c-1.446,1.426.703,3.563,2.121,2.121l9.366-9.905.343,1.623c.08.377.389.663.772.713.383.05.755-.148.928-.493l1.286-2.543,2.758.282c.38.033.741-.176.901-.522Z"/>
</svg>
