<?xml version="1.0" encoding="UTF-8"?>
<svg xmlns="http://www.w3.org/2000/svg" id="Layer_1" data-name="Layer 1" viewBox="0 0 24 24">
  <path d="m11.992,17l.445,6.142c.034.463-.333.858-.798.858-.419,0-.768-.324-.798-.742l-.265-3.66-.798,1.756c-.304.668-1.253.668-1.557,0l-.798-1.756-.265,3.66c-.03.418-.379.742-.798.742-.465,0-.831-.394-.798-.858l.445-6.142c.043-.705.472-1,.988-1,.342,0,.66.242.841.64l1.164,2.56,1.164-2.56c.181-.398.499-.64.841-.64.516,0,.945.295.988,1Zm11.208-1c-.442,0-.8.358-.8.8v3.263l-1.546-3.482c-.155-.348-.499-.574-.88-.576-.537-.003-.974.432-.974.969v6.226c0,.442.358.8.8.8s.8-.358.8-.8v-3.254l1.544,3.478c.156.35.503.576.886.576.536,0,.97-.434.97-.97v-6.23c0-.442-.358-.8-.8-.8Zm-5.2,2.3v3.4c0,1.269-1.031,2.3-2.3,2.3s-2.3-1.031-2.3-2.3v-3.4c0-1.269,1.031-2.3,2.3-2.3s2.3,1.031,2.3,2.3Zm-1.6,0c0-.386-.314-.7-.7-.7s-.7.314-.7.7v3.4c0,.386.314.7.7.7s.7-.314.7-.7v-3.4Zm2.1-16.3h-.5v-.5c0-.829-.672-1.5-1.5-1.5s-1.5.671-1.5,1.5v.5h-6v-.5c0-.829-.671-1.5-1.5-1.5s-1.5.671-1.5,1.5v.5h-.5C2.467,2,0,4.467,0,7.5v11c0,1.342.489,2.634,1.375,3.639.296.335.71.507,1.125.507.353,0,.707-.124.992-.376.621-.548.68-1.496.132-2.117-.403-.456-.625-1.043-.625-1.652v-9.5h18v3.5c0,.828.672,1.5,1.5,1.5s1.5-.672,1.5-1.5v-5c0-3.033-2.468-5.5-5.5-5.5Z"/>
</svg>
