<?xml version="1.0" encoding="UTF-8"?>
<svg xmlns="http://www.w3.org/2000/svg" id="Layer_1" data-name="Layer 1" viewBox="0 0 24 24">
  <path d="M22,16v-7.5c0-3.033-2.467-5.5-5.5-5.5H7.5c-3.033,0-5.5,2.467-5.5,5.5v7.5c-1.105,0-2,.895-2,2v1.154c0,1.02,.827,1.846,1.846,1.846H22.154c1.02,0,1.846-.827,1.846-1.846v-1.154c0-1.105-.895-2-2-2Zm-7.231,1h-5.538l-.923-1h-3.308v-7.5c0-1.378,1.122-2.5,2.5-2.5h9c1.378,0,2.5,1.122,2.5,2.5v7.5h-3.308l-.923,1Zm-1.969-8.2v4.4c0,.442-.358,.8-.8,.8s-.8-.358-.8-.8v-4.4c0-.442,.358-.8,.8-.8s.8,.358,.8,.8Zm3.2-.8c-1.105,0-2,.895-2,2v2c0,1.105,.895,2,2,2s2-.895,2-2v-2c0-1.105-.895-2-2-2Zm.4,4c0,.221-.179,.4-.4,.4s-.4-.179-.4-.4v-2c0-.221,.179-.4,.4-.4s.4,.179,.4,.4v2Zm-8.4-4c-1.105,0-2,.895-2,2v2c0,1.105,.895,2,2,2s2-.895,2-2v-2c0-1.105-.895-2-2-2Zm.4,4c0,.221-.179,.4-.4,.4s-.4-.179-.4-.4v-2c0-.221,.179-.4,.4-.4s.4,.179,.4,.4v2Z"/>
</svg>
