<?xml version="1.0" encoding="UTF-8"?>
<svg xmlns="http://www.w3.org/2000/svg" id="Layer_1" data-name="Layer 1" viewBox="0 0 24 24">
  <path d="M23.144,21.145c-.695-.33-1.144-1.04-1.144-1.808V8c0-3.853-1.252-8-4-8H5.5C2.416,0,0,3.514,0,8c0,4.24,2.159,7.607,5,7.964v2.536c0,3.033,2.467,5.5,5.5,5.5h12c.701,0,1.309-.486,1.463-1.17,.154-.684-.187-1.384-.82-1.685ZM18,3.18c.424,.62,1,2.306,1,4.82s-.576,4.2-1,4.82c-.424-.62-1-2.306-1-4.82s.576-4.2,1-4.82ZM3,8c0-2.862,1.32-5,2.5-5H14.796c-.536,1.453-.796,3.255-.796,5s.26,3.547,.796,5H5.5c-1.18,0-2.5-2.138-2.5-5Zm7.5,13c-1.378,0-2.5-1.122-2.5-2.5v-2.5h10c.359,0,.691-.074,1-.206v3.543c0,.575,.101,1.136,.288,1.663H10.5ZM5.793,9.293l1.293-1.293-1.293-1.293c-.391-.391-.391-1.023,0-1.414s1.023-.391,1.414,0l1.293,1.293,1.293-1.293c.391-.391,1.023-.391,1.414,0s.391,1.023,0,1.414l-1.293,1.293,1.293,1.293c.391,.391,.391,1.023,0,1.414-.195,.195-.451,.293-.707,.293s-.512-.098-.707-.293l-1.293-1.293-1.293,1.293c-.195,.195-.451,.293-.707,.293s-.512-.098-.707-.293c-.391-.391-.391-1.023,0-1.414Z"/>
</svg>
