<?xml version="1.0" encoding="UTF-8"?>
<svg xmlns="http://www.w3.org/2000/svg" id="Layer_1" data-name="Layer 1" viewBox="0 0 24 24">
  <path d="M13,11V1c0-1,.487-1,.75-1,1.519,0,2.75,1.231,2.75,2.75,0,.262-.048,.51-.117,.75,.952,.432,1.617,1.386,1.617,2.5,0,.906-.444,1.703-1.12,2.204,.07,.255,.12,.518,.12,.796,0,1.657-1.343,3-3,3-.353,0-1,0-1-1Zm8.792-4.989c-1.041,.106-1.792,1.061-1.792,2.107v4.696c-1.5-1.158-3.666-1.063-5.099,.372l-2.983,3.354c-.124-.139-2.829-3.309-2.859-3.339-1.372-1.371-3.539-1.526-5.06-.444v-4.638c0-1.046-.751-2.001-1.792-2.107-1.196-.122-2.208,.818-2.208,1.989v10.258c0,2.004,.78,3.888,2.197,5.304,.293,.292,.677,.438,1.061,.438s.769-.146,1.062-.439c.585-.586,.585-1.536,0-2.122-.851-.849-1.318-1.979-1.318-3.181v-.475c.069,.115,.127,.236,.209,.345,.03,.04,2.188,2.388,2.188,2.388,.562,.61,1.511,.649,2.119,.088,.609-.561,.649-1.51,.088-2.119l-2.027-2.203c-.111-.172-.155-.375-.123-.58,.024-.157,.105-.383,.35-.557,.304-.215,.779-.149,1.102,.145,0,0,2.439,2.881,2.469,2.91,1.095,1.095,1.627,2.237,1.627,3.491v.81c0,.828,.672,1.5,1.5,1.5s1.5-.672,1.5-1.5v-.81c0-.857-.155-1.683-.445-2.477l3.528-3.971c.324-.322,.849-.323,1.175,0,.278,.278,.319,.719,.104,1.044l-1.979,2.212c-.553,.617-.501,1.565,.117,2.117,.286,.257,.644,.383,.999,.383,.412,0,.822-.169,1.118-.5,0,0,2.091-2.338,2.117-2.372,.103-.138,.184-.285,.266-.432v.562c0,1.202-.468,2.332-1.318,3.181-.586,.586-.586,1.536,0,2.122,.293,.293,.678,.439,1.062,.439s.768-.146,1.061-.438c1.417-1.416,2.197-3.3,2.197-5.304V8c0-1.172-1.012-2.111-2.208-1.989Zm-14.671,2.194c-.07,.255-.12,.518-.12,.796,0,1.657,1.343,3,3,3,.353,0,1-.5,1-1V1c0-1-.487-1-.75-1-1.519,0-2.75,1.231-2.75,2.75,0,.262,.048,.51,.117,.75-.952,.432-1.617,1.386-1.617,2.5,0,.906,.444,1.703,1.12,2.204Z"/>
</svg>
