<?xml version="1.0" encoding="UTF-8"?>
<svg xmlns="http://www.w3.org/2000/svg" id="Layer_1" data-name="Layer 1" viewBox="0 0 24 24">
  <path d="M21.551,13.691l-4.977-3.859,.113-1.132c.207-2.07,.312-4.172,.312-6.249v-.943C17,.68,16.328,.008,15.5,.008s-1.5,.671-1.5,1.5v.781c-1.403,.548-2,1.719-2,1.719,0,0-.597-1.171-2-1.719v-.781C10,.68,9.328,.008,8.5,.008s-1.5,.671-1.5,1.5v.943c0,2.08,.105,4.182,.312,6.249l.114,1.143-4.911,3.902c-1.602,1.394-1.84,3.821-.542,5.528,2.19,2.876,6.126,4.735,10.026,4.735,3.921,0,8.004-1.903,10.16-4.736,1.297-1.706,1.059-4.134-.608-5.581Zm-7.669-7.683c-.056,.997-.133,2.009-.239,3h-3.286c-.106-.991-.184-2.002-.24-3h3.765Zm5.89,11.447c-1.593,2.092-4.788,3.553-7.772,3.553-2.951,0-6.021-1.428-7.639-3.553-.351-.46-.297-1.082,.071-1.404l5.091-4.043h4.964l5.161,4c.42,.365,.474,.987,.124,1.447Z"/>
</svg>
