<?xml version="1.0" encoding="UTF-8"?>
<svg xmlns="http://www.w3.org/2000/svg" id="Layer_1" data-name="Layer 1" viewBox="0 0 24 24">
  <path d="m12.544,8.026l-.777.777,1.271,1.271.777-.777c.312-.312.817-.312,1.129,0,.312.312.312.817,0,1.129l-.777.777,1.553,1.553c.312.312.312.817,0,1.129-.312.312-.817.312-1.129,0l-4.518-4.518c-.312-.312-.312-.817,0-1.129l1.341-1.341c.312-.312.817-.312,1.129,0,.312.312.312.817,0,1.129ZM1.511,14c.828-.039,1.539-.743,1.5-1.571-.007-.142-.01-.286-.01-.429C3,7.038,7.038,3,12,3c.144,0,.287.003.429.01.858.036,1.53-.601,1.569-1.428.039-.828-.6-1.53-1.427-1.569-.189-.009-.379-.013-.571-.013C5.383,0,0,5.383,0,12c0,.191.004.382.013.571.038.803.701,1.429,1.498,1.429Zm11.739-7.809l4.518,4.518c.312.312.817.312,1.129,0l1.341-1.341c.312-.312.312-.817,0-1.129-.312-.312-.817-.312-1.129,0l-.777.777-.989-.989.777-.777c.312-.312.312-.817,0-1.129h0c-.312-.312-.817-.312-1.129,0l-.777.777-1.271-1.271.777-.777c.312-.312.312-.817,0-1.129h0c-.312-.312-.817-.312-1.129,0l-1.341,1.341c-.312.312-.312.817,0,1.129Zm7.694,1.341c.312.312.817.312,1.129,0l1.341-1.341c.312-.312.312-.817,0-1.129h0c-.312-.312-.817-.312-1.129,0l-.777.777-.989-.988.777-.777c.312-.312.312-.817,0-1.129h0c-.312-.312-.817-.312-1.129,0l-.777.777-1.271-1.271.777-.777c.312-.312.312-.817,0-1.129-.312-.312-.817-.312-1.129,0l-1.341,1.341c-.312.312-.312.817,0,1.129l4.518,4.518ZM4.073,15.367c-.312-.312-.818-.312-1.129,0-.312.312-.312.818,0,1.129l2.303,2.303-3.551-1.371c-.357-.138-.762-.052-1.033.219-.378.378-.378.99,0,1.368l4.398,4.398c.312.312.818.312,1.129,0s.312-.818,0-1.129l-2.297-2.297,3.545,1.365c.357.137.761.052,1.032-.219h0c.378-.378.378-.991,0-1.369l-4.398-4.398Zm19.913-3.938c-.039-.827-.751-1.474-1.568-1.428-.828.039-1.467.742-1.428,1.569.007.142.01.286.01.429,0,4.963-4.037,9-9,9-.144,0-.287-.003-.429-.01-.861-.038-1.53.601-1.569,1.428s.6,1.529,1.428,1.568c.189.009.379.014.571.014,6.617,0,12-5.383,12-12,0-.191-.005-.382-.014-.571Zm-12.36,6.55c-.973.973-2.556.973-3.529,0l-2.118-2.118c-.973-.973-.973-2.556,0-3.529.973-.973,2.556-.973,3.529,0l2.118,2.118c.973.973.973,2.556,0,3.529Zm-1.129-2.4l-2.118-2.118c-.35-.35-.92-.35-1.271,0s-.35.92,0,1.271l2.118,2.118c.35.35.92.35,1.271,0,.35-.35.35-.92,0-1.271Z"/>
</svg>
