<?xml version="1.0" encoding="UTF-8"?>
<svg xmlns="http://www.w3.org/2000/svg" id="Layer_1" data-name="Layer 1" viewBox="0 0 24 24">
  <path d="M20.002-.002l-4-.003h-.003C14.932-.005,13.928,.411,13.173,1.166c-.756,.755-1.173,1.76-1.173,2.83v3.004c0,2.206,1.795,4,4,4h2.106l3.181,1.792c.094,.053,.656,.208,.839,.208,1.03,0,1.868-.839,1.868-1.871l.005-7.128C24.001,1.795,22.208,0,20.002-.002Zm.994,9.186l-1.76-.991c-.225-.126-.478-.193-.736-.193h-2.5c-.551,0-1-.448-1-1V3.996c0-.268,.104-.519,.293-.708,.189-.188,.44-.292,.707-.292h0l4,.003c.264,0,.514,.105,.705,.295,.19,.19,.294,.441,.294,.706l-.003,5.185Zm-12.996,1.816h-.003l-4,.003C1.792,11.005,0,12.801,0,15.006l.005,7.122c0,1.032,.838,1.872,1.868,1.872,.184,0,.745-.155,.839-.208l3.181-1.792h2.106c2.206,0,4-1.794,4-4v-3c0-1.069-.416-2.074-1.172-2.83-.755-.755-1.759-1.17-2.827-1.17Zm1,7c0,.551-.449,1-1,1h-2.5c-.258,0-.511,.066-.736,.193l-1.76,.991-.003-5.18c0-.542,.457-1,.999-1.001l4-.003h0c.267,0,.518,.104,.707,.292,.189,.189,.293,.44,.293,.708v3Zm14.719-.435c.529,.529,.154,1.434-.594,1.434h-1.125v.5c0,2.481-2.019,4.5-4.5,4.5h-2c-.829,0-1.5-.671-1.5-1.5s.671-1.5,1.5-1.5h2c.827,0,1.5-.673,1.5-1.5v-.5h-1.192c-.749,0-1.123-.905-.594-1.434l2.658-2.658c.328-.328,.86-.328,1.188,0l2.658,2.658ZM.214,6.434c-.529-.529-.154-1.434,.594-1.434h1.192v-.5C2,2.019,4.019,0,6.5,0h2c.829,0,1.5,.671,1.5,1.5s-.671,1.5-1.5,1.5h-2c-.827,0-1.5,.673-1.5,1.5v.5h1.125c.749,0,1.123,.905,.594,1.434l-2.658,2.658c-.328,.328-.86,.328-1.188,0L.214,6.434Z"/>
</svg>
