<?xml version="1.0" encoding="UTF-8"?>
<svg xmlns="http://www.w3.org/2000/svg" id="Layer_1" data-name="Layer 1" viewBox="0 0 24 24">
  <path d="m7,7c0-.552,1.119-1,2.5-1s2.5.448,2.5,1-1.119,1-2.5,1-2.5-.448-2.5-1Zm17,7.5v4c0,2.481-2.019,4.5-4.5,4.5h-10c-5.327,0-9.5-2.636-9.5-6V7C0,3.636,4.173,1,9.5,1s9.5,2.636,9.5,6v3h.5c2.481,0,4.5,2.019,4.5,4.5ZM3,7c0,1.416,2.779,3,6.5,3s6.5-1.584,6.5-3-2.779-3-6.5-3-6.5,1.584-6.5,3Zm18,7.5c0-.827-.673-1.5-1.5-1.5h-10c-2.541,0-4.812-.604-6.5-1.596v5.596c0,.917,1.169,1.901,3,2.483v-1.983c0-.828.672-1.5,1.5-1.5s1.5.672,1.5,1.5v2.487c.165.006.331.013.5.013h1.5v-2.5c0-.828.672-1.5,1.5-1.5s1.5.672,1.5,1.5v2.5h2v-2.5c0-.828.672-1.5,1.5-1.5s1.5.672,1.5,1.5v2.5h.5c.827,0,1.5-.673,1.5-1.5v-4Z"/>
</svg>
