<?xml version="1.0" encoding="UTF-8"?>
<svg xmlns="http://www.w3.org/2000/svg" id="Layer_1" data-name="Layer 1" viewBox="0 0 24 24">
  <path d="M18.85,10.738l-5.699-4.358c-.679-.519-1.622-.519-2.301,0l-5.699,4.358c-.832,.636-.832,1.888,0,2.524l5.699,4.358c.679,.519,1.622,.519,2.301,0l5.699-4.358c.832-.636,.832-1.888,0-2.524Zm-6.85,4.762c-1.933,0-3.5-1.567-3.5-3.5,0-.171,.027-.334,.05-.498,.448,.016,3.713,.225,6.188,2.655-.641,.812-1.623,1.344-2.738,1.344Zm3.486-3.359c-2.201-1.83-4.669-2.392-6.004-2.563,.637-.662,1.527-1.078,2.518-1.078,1.933,0,3.5,1.567,3.5,3.5,0,.048-.012,.093-.014,.141Zm3.014-10.141H5.5C2.467,2,0,4.467,0,7.5v9c0,3.033,2.467,5.5,5.5,5.5h13c3.033,0,5.5-2.467,5.5-5.5V7.5c0-3.033-2.467-5.5-5.5-5.5Zm2.5,14.5c0,1.378-1.122,2.5-2.5,2.5H5.5c-1.378,0-2.5-1.122-2.5-2.5V7.5c0-1.378,1.122-2.5,2.5-2.5h13c1.378,0,2.5,1.122,2.5,2.5v9Z"/>
</svg>
