<?xml version="1.0" encoding="UTF-8"?>
<svg xmlns="http://www.w3.org/2000/svg" id="Layer_1" data-name="Layer 1" viewBox="0 0 24 24">
  <path d="m23.798,6.515c-.516-.544-1.416-1.329-2.317-1.329-.714,0-1.423.492-1.945.967.258-.729.645-1.436,1.177-2.158.748.022,1.944-.054,2.586-.696.637-.637.719-1.83.699-2.579-.01-.391-.326-.707-.718-.718-.749-.02-1.942.062-2.579.699-.629.629-.715,1.792-.698,2.543-.392.378-.742.763-1.046,1.152-.067-.617-.239-1.275-.659-1.695-.637-.637-1.83-.719-2.579-.699-.391.01-.707.326-.718.718-.02.749.062,1.941.699,2.579.55.55,1.504.681,2.239.695-.585,1.168-.852,2.336-.92,3.427l-2.214-.865c-.285-.976-.881-1.74-1.741-2.171-1.791-.896-3.979-.17-4.883,1.635l-.416.851c-1.62-.786-2.784-1.66-2.798-1.67-.42-.322-.979-.399-1.471-.203-.431.173-.743.539-.871.978-.09-.067-.152-.116-.155-.118-.445-.379-1.069-.466-1.602-.22-.531.245-.871.777-.871,1.362v.849c0,1.633.009,5.369,2.98,9.151h-1.487c-.906,0-1.614.832-1.423,1.717.292,1.345.922,2.219,1.616,2.886.536.515,1.379.528,1.942.042l2.654-2.291c.889.364,1.942.646,3.139.646,3.134,0,5.589-2.416,5.589-5.5,0-1.156-.005-3.622-.008-5.189l2.027-.76c.071,1.343.368,2.522.64,3.316.202.589.882.857,1.44.579.483-.241.694-.807.5-1.311-.281-.73-.61-1.859-.61-3.136,0-.895.055-1.695.184-2.451.518.543,1.404,1.31,2.297,1.31.901,0,1.802-.786,2.317-1.329.269-.284.269-.731,0-1.015Zm-14.377,12.485c-2.06,0-3.596-1.319-3.83-1.532-1.774-2.107-2.334-4.154-2.51-5.746,1.3.616,3.03,1.192,5.029,1.259.611.026,1.139-.31,1.398-.841l1.362-2.791c.157-.312.538-.44.851-.282.206.103.278.524.278.854,0,0,.01,5.324.01,6.579,0,1.402-1.137,2.5-2.589,2.5Z"/>
</svg>
