<?xml version="1.0" encoding="UTF-8"?>
<svg xmlns="http://www.w3.org/2000/svg" id="Layer_1" data-name="Layer 1" viewBox="0 0 24 24">
  <path d="m1.362,10.99l7.83,5.174c.84.555,1.824.833,2.809.833s1.969-.277,2.809-.833l7.829-5.174c.853-.564,1.362-1.495,1.362-2.49s-.51-1.926-1.362-2.49L14.809.836c-1.68-1.11-3.938-1.11-5.617,0L1.361,6.01c-.852.563-1.361,1.495-1.361,2.49s.509,1.926,1.362,2.49Zm11.792,2.671c-.68.449-1.629.449-2.309,0l-2.489-1.637,4.83-3.172,3.633,2.386-3.665,2.422Zm5.481-3.622l-3.628-2.383,2.357-1.548,3.618,2.379-2.348,1.551Zm-7.79-6.7c.34-.225.747-.337,1.154-.337s.814.112,1.154.337l2.39,1.572-4.886,3.209-3.535-2.322,3.722-2.459Zm-5.538,3.659l3.529,2.318-2.301,1.511-3.52-2.315,2.292-1.515Zm18.443,7.458c.457.691.268,1.622-.424,2.079l-8.519,5.629c-.84.555-1.824.833-2.809.833s-1.968-.277-2.809-.833L.673,16.535c-.691-.457-.881-1.387-.424-2.079.456-.691,1.385-.882,2.079-.424l8.519,5.629c.68.449,1.629.449,2.309,0l8.519-5.629c.69-.456,1.621-.268,2.078.424Z"/>
</svg>
