<?xml version="1.0" encoding="UTF-8"?>
<svg xmlns="http://www.w3.org/2000/svg" id="Layer_1" data-name="Layer 1" viewBox="0 0 24 24">
  <path d="m9.5,2.5c0-1.381,1.119-2.5,2.5-2.5s2.5,1.119,2.5,2.5-1.119,2.5-2.5,2.5-2.5-1.119-2.5-2.5Zm10.937,13.829c-.075-.06-1.232-.964-3.437-1.628v-1.701c0-.829-.672-1.5-1.5-1.5s-1.5.671-1.5,1.5v1.106c-.623-.066-1.288-.106-2-.106-.57,0-1.111.024-1.624.068l10.147-9.471c.605-.565.639-1.515.073-2.12-.566-.606-1.515-.638-2.12-.073l-4.365,4.074c-.662-.314-1.387-.478-2.13-.478-2.747,0-4.981,2.234-4.981,4.981v2.134l-3.523,3.289c-.585.546-.633,1.451-.115,2.062.518.611,1.429.704,2.064.215.021-.017,2.237-1.68,6.574-1.68s6.553,1.664,6.562,1.671c.277.221.608.329.937.329.44,0,.876-.193,1.172-.563.518-.647.413-1.591-.233-2.108Zm-11.937,2.671c-.828,0-1.5.671-1.5,1.5v2c0,.829.672,1.5,1.5,1.5s1.5-.671,1.5-1.5v-2c0-.829-.672-1.5-1.5-1.5Zm7,0c-.828,0-1.5.671-1.5,1.5v2c0,.829.672,1.5,1.5,1.5s1.5-.671,1.5-1.5v-2c0-.829-.672-1.5-1.5-1.5Z"/>
</svg>
