<?xml version="1.0" encoding="UTF-8"?>
<svg xmlns="http://www.w3.org/2000/svg" id="Layer_1" data-name="Layer 1" viewBox="0 0 24 24">
  <path d="M22.5,21h-4.49l1.539-11.615c.123-.926-.123-1.845-.691-2.587-.326-.425-.741-.751-1.206-.985l.326-2.458c.088-.662-.087-1.319-.494-1.849-.406-.53-.994-.87-1.656-.958L11.863,.022c-1.355-.184-2.625,.783-2.807,2.15l-.329,2.483c-1.378,.32-2.49,1.456-2.687,2.941l-1.776,13.404H1.5c-.829,0-1.5,.672-1.5,1.5s.671,1.5,1.5,1.5H22.5c.829,0,1.5-.672,1.5-1.5s-.671-1.5-1.5-1.5ZM11.964,3.062l2.974,.394-.233,1.758-2.974-.394,.233-1.757Zm-2.95,4.929c.036-.274,.283-.467,.562-.431l6.57,.871c.273,.037,.466,.288,.43,.562l-1.591,12.009h-1.325l.3-2.267c.073-.548-.312-1.05-.86-1.123-.548-.073-1.05,.312-1.123,.86l-.335,2.529h-1.009l.353-2.661c.073-.547-.312-1.05-.86-1.123-.547-.073-1.05,.312-1.123,.86l-.387,2.923h-1.325l1.724-13.01Zm3.826,3.964l.187-1.414c.073-.547,.575-.932,1.123-.86,.548,.073,.933,.575,.86,1.123l-.187,1.414c-.042,.314-.33,.535-.644,.493l-.846-.112c-.314-.042-.535-.33-.493-.644Zm-2.974-.394l.187-1.414c.073-.547,.575-.933,1.123-.86,.547,.073,.932,.575,.86,1.123l-.187,1.414c-.042,.314-.33,.535-.644,.493l-.846-.112c-.314-.042-.535-.33-.493-.644Zm2.449,4.359l.187-1.414c.073-.547,.575-.932,1.123-.86,.547,.073,.933,.575,.86,1.123l-.187,1.414c-.042,.314-.33,.535-.644,.493l-.846-.112c-.314-.042-.535-.33-.493-.644Zm-2.974-.394l.187-1.414c.073-.547,.575-.933,1.123-.86s.933,.575,.86,1.123l-.187,1.414c-.042,.314-.33,.535-.644,.493l-.846-.112c-.314-.042-.535-.33-.493-.644Z"/>
</svg>
