<?xml version="1.0" encoding="UTF-8"?>
<svg xmlns="http://www.w3.org/2000/svg" id="Layer_1" data-name="Layer 1" viewBox="0 0 24 24">
  <path d="M19.5,7h-.5v-2c0-2.757-2.243-5-5-5h-4c-2.757,0-5,2.243-5,5v2h-.5C2.019,7,0,9.019,0,11.5v6c0,.829,.671,1.5,1.5,1.5H10.5v2h-3c-.829,0-1.5,.671-1.5,1.5s.671,1.5,1.5,1.5h9c.829,0,1.5-.671,1.5-1.5s-.671-1.5-1.5-1.5h-3v-2h9c.829,0,1.5-.671,1.5-1.5v-6c0-2.481-2.019-4.5-4.5-4.5Zm0,3c.827,0,1.5,.673,1.5,1.5v3.847c-.463-.221-.972-.347-1.5-.347h-.5v-5h.5ZM8,5c0-1.103,.897-2,2-2h4c1.103,0,2,.897,2,2V15H8V5Zm-3.5,5h.5v5h-.5c-.528,0-1.037,.126-1.5,.347v-3.847c0-.827,.673-1.5,1.5-1.5Zm8.75,3c0,.69-.56,1.25-1.25,1.25s-1.25-.56-1.25-1.25,.56-1.25,1.25-1.25,1.25,.56,1.25,1.25Zm-4.25-5.973c0-.932,.442-1.83,1.184-2.402,.743-.573,1.695-.763,2.61-.522,1.072,.282,1.912,1.169,2.14,2.261,.279,1.337-.339,2.66-1.537,3.292-.215,.114-.348,.194-.395,.238,.002,.006-.003,.042-.003,.107,0,.552-.448,1-1,1s-1-.448-1-1c0-1.341,.881-1.806,1.464-2.114,.334-.176,.621-.588,.512-1.114-.072-.345-.355-.648-.689-.735-.429-.113-.737,.059-.881,.171-.254,.196-.405,.502-.405,.819,0,.552-.448,1-1,1s-1-.448-1-1Z"/>
</svg>
