<?xml version="1.0" encoding="UTF-8"?>
<svg xmlns="http://www.w3.org/2000/svg" id="Layer_1" data-name="Layer 1" viewBox="0 0 24 24">
  <path d="m16.898,18.774l1.402-1.402c.58-.58.82-1.404.642-2.207-.178-.799-.744-1.443-1.515-1.726l-6.179-2.246c-1.142-.412-2.445-.134-3.319.738-.877.879-1.159,2.149-.735,3.317l2.247,6.18c.28.77.926,1.336,1.736,1.516.165.036.331.053.497.053.629,0,1.249-.248,1.697-.696l1.405-1.405,2.663,2.663c.293.293.677.439,1.061.439s.768-.146,1.061-.439c.586-.586.586-1.535,0-2.121l-2.663-2.663Zm-4.966.724l-1.917-5.273c-.028-.077-.02-.115.035-.17s.089-.055.104-.055l5.346,1.931-3.567,3.567ZM20.5,0H3.5C1.567,0,0,1.567,0,3.5v5c0,1.933,1.567,3.5,3.5,3.5h1.988c.251-.537.587-1.042,1.026-1.481.56-.558,1.234-.963,1.957-1.214V2.783c0-.442.358-.8.8-.8h1.9c.442,0,.8.358.8.8s-.358.8-.8.8h-1.101v1.65h1.101c.442,0,.8.358.8.8s-.358.8-.8.8h-1.101v1.551h1.101c.442,0,.8.358.8.8v.145l6.14,2.231c.312.114.602.266.874.44h1.516c1.933,0,3.5-1.567,3.5-3.5V3.5c0-1.933-1.567-3.5-3.5-3.5ZM7.442,7.963c-.191,1.175-1.215,2.028-2.436,2.028-.664,0-1.301-.196-1.84-.553-.387-.257-.447-.801-.118-1.129l.002-.002c.236-.235.602-.283.886-.11.316.191.689.298,1.07.298.604,0,1.031-.404,1.096-.795.089-.55-.602-.873-.817-.959-.915-.371-1.751-.78-1.753-.78-.692-.484-1.027-1.231-.921-2.049.111-.845.674-1.534,1.471-1.796.848-.28,1.62-.071,2.171.213.394.203.505.716.234,1.066l-.011.014c-.205.266-.561.361-.865.228-.306-.134-.71-.226-1.137-.088-.412.136-.517.447-.515.577.005.442.335.57.433.615.282.128.806.368,1.366.595,1.461.591,1.828,1.745,1.685,2.627Zm8.729,2.02h-1.9c-.442,0-.8-.358-.8-.8V2.783c0-.442.358-.8.8-.8s.8.358.8.8v5.601h1.101c.442,0,.8.358.8.8s-.358.8-.8.8Zm4.5,0h-1.9c-.442,0-.8-.358-.8-.8V2.783c0-.442.358-.8.8-.8s.8.358.8.8v5.601h1.101c.442,0,.8.358.8.8s-.358.8-.8.8Z"/>
</svg>
