<?xml version="1.0" encoding="UTF-8"?>
<svg xmlns="http://www.w3.org/2000/svg" id="Layer_1" data-name="Layer 1" viewBox="0 0 24 24">
  <path d="m24,9.157v9.343c0,2.481-2.019,4.5-4.5,4.5h-8c-2.481,0-4.5-2.019-4.5-4.5,0-.828.672-1.5,1.5-1.5s1.5.672,1.5,1.5.673,1.5,1.5,1.5h8c.827,0,1.5-.673,1.5-1.5v-8.5h-4c-1.105,0-2-.895-2-2v-4h-3.5c-.827,0-1.5.673-1.5,1.5v3c0,.829-.672,1.5-1.5,1.5s-1.5-.671-1.5-1.5v-3c0-2.481,2.019-4.5,4.5-4.5h4.343c1.47,0,2.851.572,3.89,1.611l2.656,2.657c1.039,1.039,1.611,2.42,1.611,3.889ZM4.5,20c-.827,0-1.5-.673-1.5-1.5V5.5c0-.827.673-1.5,1.5-1.5s1.5-.671,1.5-1.5-.672-1.5-1.5-1.5C2.019,1,0,3.019,0,5.5v13c0,2.481,2.019,4.5,4.5,4.5.828,0,1.5-.672,1.5-1.5s-.672-1.5-1.5-1.5Zm7.501-3.462c0,.856,1.034,1.284,1.639.679l3.038-3.038c.375-.375.375-.983,0-1.358l-3.038-3.038c-.605-.605-1.639-.176-1.639.679v1.538h-5.501c-.828,0-1.5.671-1.5,1.5s.672,1.5,1.5,1.5h5.501v1.538Z"/>
</svg>
