<?xml version="1.0" encoding="UTF-8"?>
<svg xmlns="http://www.w3.org/2000/svg" id="Layer_1" data-name="Layer 1" viewBox="0 0 24 24">
  <path d="M23.556,10c0,1.54-.41,2.997-.806,4.406-.643,1.905-.769,3.712-.694,5.594,0,2.206-1.794,4-4,4-.589,0-1.158-.126-1.689-.374-.751-.351-1.076-1.243-.726-1.993,.351-.751,1.241-1.078,1.993-.726,.132,.062,.274,.093,.422,.093,.552,0,1-.448,1-1v-2c0-1.54,.41-2.997,.806-4.406,.357-1.269,.694-2.467,.694-3.594,0-.769,0-1-2-1-.913,0-1.658-.378-2.258-.682-.244-.124-.613-.312-.744-.318-.554,0-.554,.313-.554,.5,0,.348,.503,.881,.99,1.396,.218,.231,.439,.467,.649,.712,.539,.63,.465,1.576-.164,2.115-.631,.54-1.576,.465-2.115-.164-.178-.208-.367-.407-.553-.604-.806-.854-1.808-1.916-1.808-3.455,0-2.298,1.789-3.5,3.556-3.5,1.187-.037,2.071,.789,3,1,1.367,0,5,0,5,4ZM13.534,2.388C13.385,.785,12.52-.102,11.565,.009c-.955,.112-1.638,1.181-1.489,2.784,.149,1.603,1.044,2.811,1.999,2.699,.955-.112,1.608-1.502,1.459-3.105Zm5.134,1.753c.611-.017,1.103-.86,1.099-1.883-.004-1.023-.502-1.634-1.112-1.617-.611,.017-1.103,.655-1.099,1.678,.004,1.023,.502,1.838,1.113,1.821Zm-3-.641c.611-.017,1.103-.86,1.099-1.883-.004-1.023-.502-1.634-1.112-1.617-.611,.017-1.103,.655-1.099,1.678,.004,1.023,.502,1.838,1.113,1.821Zm5.845,2c.526-.015,.949-.737,.946-1.614-.003-.877-.432-1.4-.958-1.386-.526,.015-.95,.562-.946,1.438,.003,.877,.432,1.576,.958,1.561Zm1.851-.5c-.349,.01-.63,.374-.628,.959s.287,1.05,.636,1.041,.63-.491,.628-1.076c-.002-.585-.287-.934-.636-.924Zm-12.364,6.5v3c0,1.381-1.119,2.5-2.5,2.5s-2.5-1.119-2.5-2.5v-3c0-1.381,1.119-2.5,2.5-2.5s2.5,1.119,2.5,2.5Zm-1.6,0c0-.496-.404-.9-.9-.9s-.9,.404-.9,.9v3c0,.496,.404,.9,.9,.9s.9-.404,.9-.9v-3Zm-6.963-.895c.374-.025,.705,.181,.863,.489,.132,.258,.409,.409,.699,.409,.606,0,.989-.647,.703-1.181-.414-.771-1.222-1.3-2.154-1.317-1.401-.027-2.547,1.154-2.547,2.555v2.886c0,1.401,1.146,2.581,2.547,2.555,.932-.018,1.74-.546,2.154-1.317,.287-.534-.097-1.181-.703-1.181-.29,0-.567,.151-.699,.409-.158,.308-.488,.514-.863,.488-.478-.032-.838-.45-.838-.929v-2.936c0-.479,.36-.897,.838-.929Zm13.563,8.741v-.025c0-.361-.293-.654-.654-.654h-1.346c.575-.526,2-1.244,2-2.667,0-1.129-.935-2.039-2.073-1.999-.931,.033-1.684,.719-1.878,1.599-.002,.009-.004,.02-.006,.032-.057,.369,.233,.702,.607,.702h0c.356,0,.657-.247,.748-.592,.005-.018,.01-.032,.015-.042,.109-.21,.318-.359,.566-.366,.378-.011,.687,.291,.687,.666,0,1-2.667,1.84-2.667,3.346,0,.361,.293,.654,.654,.654h2.692c.361,0,.654-.293,.654-.654Z"/>
</svg>
