<?xml version="1.0" encoding="UTF-8"?>
<svg xmlns="http://www.w3.org/2000/svg" id="Layer_1" data-name="Layer 1" viewBox="0 0 24 24">
  <path d="m24,12c0,.553-.448,1-1,1h-1v1c0,.553-.448,1-1,1s-1-.447-1-1v-1h-1c-.552,0-1-.447-1-1s.448-1,1-1h1v-1c0-.553.448-1,1-1s1,.447,1,1v1h1c.552,0,1,.447,1,1Zm-12.826-.309c-.491-.552-.799-1.271-.799-2.066,0-1.723,1.402-3.125,3.125-3.125s3.125,1.402,3.125,3.125c0,.795-.308,1.514-.799,2.066.643.615,1.049,1.476,1.049,2.434,0,1.861-1.514,3.375-3.375,3.375s-3.375-1.514-3.375-3.375c0-.958.405-1.819,1.049-2.434Zm3.701,2.434c0-.758-.617-1.375-1.375-1.375s-1.375.617-1.375,1.375.617,1.375,1.375,1.375,1.375-.617,1.375-1.375Zm-1.375-3.375c.62,0,1.125-.505,1.125-1.125s-.505-1.125-1.125-1.125-1.125.505-1.125,1.125.505,1.125,1.125,1.125Zm7.676,6.572c-.65-.513-1.593-.402-2.107.248-1.72,2.18-4.296,3.43-7.069,3.43-4.962,0-9-4.037-9-9S7.038,3,12,3c2.772,0,5.349,1.25,7.069,3.43.514.65,1.458.761,2.107.248.65-.514.762-1.457.249-2.107C19.132,1.666,15.697,0,12,0,5.383,0,0,5.383,0,12s5.383,12,12,12c3.697,0,7.132-1.666,9.424-4.57.513-.65.402-1.594-.249-2.107Zm-13.176-.322c.552,0,1-.447,1-1v-7.693c0-.542-.326-1.019-.831-1.216-.503-.198-1.067-.068-1.439.334l-1.732,1.901c-.372.409-.342,1.041.066,1.413.408.372,1.041.341,1.413-.065l.523-.574v5.9c0,.553.448,1,1,1Z"/>
</svg>
