<?xml version="1.0" encoding="UTF-8"?>
<svg xmlns="http://www.w3.org/2000/svg" id="Layer_1" data-name="Layer 1" viewBox="0 0 24 24">
  <path d="m2.5,10.5v4c0,.551.449,1,1,1,.342,0,.644-.173.825-.435.235-.342.693-.565,1.107-.565.956,0,1.54,1.057,1.03,1.865-.651,1.032-1.826,1.7-3.151,1.63-1.893-.099-3.312-1.793-3.312-4.102v-3.2c0-1.895,1.419-3.589,3.312-3.689,1.325-.069,2.5.599,3.151,1.63.51.808-.075,1.865-1.03,1.865-.415,0-.873-.223-1.107-.565-.18-.263-.483-.435-.825-.435-.551,0-1,.449-1,1Zm20.835-2.203c-.053-.914-.586-1.297-1.225-1.297-.424,0-.818.314-1.043.831l-1.434,2.887-1.451-2.887c-.224-.517-.619-.831-1.043-.831-.639,0-1.172.383-1.224,1.297l-.57,8.408c-.047.7.508,1.295,1.21,1.295.638,0,1.242-.494,1.285-1.131l.248-3.659.468.932c.449.893,1.725.89,2.17-.005l.443-.893.249,3.625c.044.636.647,1.129,1.285,1.129.703,0,1.258-.595,1.21-1.296l-.578-8.407Zm-8.835,2.203c0,1.056-.477,1.991-1.217,2.633l.84,3.36c.191.765-.388,1.507-1.176,1.507-.556,0-1.042-.379-1.176-.919l-.77-3.081h-.5v2.787c0,.67-.543,1.213-1.213,1.213-.787,0-1.287-.544-1.286-1.214l.003-2.786h-.005v-5c0-1.105.895-2,2-2h1c1.933,0,3.5,1.567,3.5,3.5Zm-2.157,0c0-.805-.652-1.457-1.457-1.457h-.729v2.915h.729c.805,0,1.457-.653,1.457-1.457Z"/>
</svg>
