<?xml version="1.0" encoding="UTF-8"?>
<svg xmlns="http://www.w3.org/2000/svg" id="Layer_1" data-name="Layer 1" viewBox="0 0 24 24">
  <path d="m8.4,13.5c0-.496-.404-.9-.901-.9h-.699c-.442,0-.8-.358-.8-.8s.358-.8.8-.8h.417c.378-.011.683-.318.683-.698,0-.387-.315-.702-.702-.702h-1.398c-.442,0-.8-.358-.8-.8s.358-.8.8-.8h1.262c1.204,0,2.303.864,2.425,2.062.059.579-.107,1.114-.409,1.548.495.398.841.966.908,1.629.152,1.495-1.023,2.761-2.487,2.761h-1.699c-.442,0-.8-.358-.8-.8s.358-.8.8-.8h1.699c.497,0,.901-.404.901-.9Zm5.1-5.5c1.381,0,2.5,1.119,2.5,2.5v3c0,1.381-1.119,2.5-2.5,2.5s-2.5-1.119-2.5-2.5v-3c0-1.381,1.119-2.5,2.5-2.5Zm0,1.6c-.496,0-.9.404-.9.9v3c0,.496.404.9.9.9s.9-.404.9-.9v-3c0-.496-.404-.9-.9-.9Zm9.25,3.881c-.69,0-1.25.56-1.25,1.25s.56,1.25,1.25,1.25,1.25-.56,1.25-1.25-.56-1.25-1.25-1.25Zm-3.25-4.25c0-.69-.56-1.25-1.25-1.25s-1.25.56-1.25,1.25.56,1.25,1.25,1.25,1.25-.56,1.25-1.25Zm-1.156,6.75c.27,0,.522-.136.67-.363l4.178-6.4c.347-.532-.034-1.237-.67-1.237-.27,0-.522.136-.67.363l-4.178,6.4c-.347.532.034,1.237.67,1.237Zm-.052,2.447c-1.694,1.658-3.93,2.572-6.293,2.572-4.963,0-9-4.038-9-9S7.037,3,12,3c2.363,0,4.599.914,6.293,2.572.59.579,1.54.57,2.121-.022.579-.592.569-1.542-.023-2.121C18.133,1.217,15.152,0,12,0,5.383,0,0,5.383,0,12s5.383,12,12,12c3.152,0,6.133-1.217,8.391-3.428.593-.579.603-1.529.023-2.121-.58-.593-1.531-.603-2.121-.022Z"/>
</svg>
