<?xml version="1.0" encoding="UTF-8"?>
<svg xmlns="http://www.w3.org/2000/svg" id="Layer_1" data-name="Layer 1" viewBox="0 0 24 24">
  <path d="m14.5,12.5c0,1.381-1.119,2.5-2.5,2.5s-2.5-1.119-2.5-2.5,1.119-2.5,2.5-2.5,2.5,1.119,2.5,2.5Zm8.86-1.229c-.68-.477-1.615-.311-2.089.368l-2.306,3.294c-.467.668-1.233,1.066-2.048,1.066H7.083c-.815,0-1.581-.398-2.048-1.066l-2.306-3.294c-.475-.679-1.41-.845-2.089-.368-.679.475-.844,1.41-.369,2.089l2.306,3.294c1.028,1.469,2.713,2.346,4.506,2.346h.917v3.5c0,.828.671,1.5,1.5,1.5s1.5-.672,1.5-1.5v-3.5h2v3.5c0,.828.671,1.5,1.5,1.5s1.5-.672,1.5-1.5v-3.5h.917c1.793,0,3.478-.877,4.506-2.346l2.306-3.294c.475-.679.31-1.614-.369-2.089Zm-13.86-5.271h1.5v.778c0,.642.73.963,1.157.509l2.144-2.278c.265-.281.265-.737,0-1.019l-2.144-2.278c-.427-.454-1.157-.132-1.157.509v.778h-1.5c-.829,0-1.5.672-1.5,1.5s.671,1.5,1.5,1.5Zm-6.5,3h1c.552,0,1-.448,1-1v-1h-3v1c0,.552.448,1,1,1Zm-1.5-3h4c1-.5,1.5-1.541,1.5-2.5,0-1.073-.482-2.072-1.323-2.742C4.836.09,3.744-.153,2.677.094,1.402.389.387,1.404.093,2.68c-.284,1.232.407,2.82,1.407,3.32Zm14.034.131l.568-.328c-.061-.259-.102-.526-.102-.803s.041-.545.102-.804l-.568-.327c-.479-.275-.643-.887-.367-1.365.275-.479.885-.645,1.366-.367l.568.327c.391-.37.869-.642,1.398-.801v-.663c0-.553.448-1,1-1s1,.447,1,1v.663c.529.159,1.007.431,1.398.801l.568-.328c.478-.277,1.09-.111,1.366.366.276.479.112,1.09-.367,1.366l-.567.327c.061.259.102.526.102.804s-.041.545-.102.804l.568.327c.479.275.643.887.367,1.365-.185.321-.521.501-.867.501-.169,0-.341-.043-.499-.134l-.568-.327c-.391.37-.869.642-1.398.801v.663c0,.553-.448,1-1,1s-1-.447-1-1v-.663c-.529-.159-1.007-.431-1.398-.801l-.567.328c-.158.091-.33.134-.499.134-.346,0-.682-.18-.867-.5-.276-.479-.112-1.09.366-1.366Zm2.466-1.131c0,.827.673,1.5,1.5,1.5s1.5-.673,1.5-1.5-.673-1.5-1.5-1.5-1.5.673-1.5,1.5Z"/>
</svg>
