<?xml version="1.0" encoding="UTF-8"?>
<svg xmlns="http://www.w3.org/2000/svg" id="Layer_1" data-name="Layer 1" viewBox="0 0 24 24">
  <path d="M23.057,10.607l-4.478-1.791,1.3-2.726c.241-.564,.115-1.218-.318-1.651s-1.088-.559-1.651-.318l-2.725,1.3L13.393,.943c-.228-.569-.779-.943-1.393-.943s-1.165,.374-1.393,.943l-1.791,4.478-2.725-1.3c-.562-.241-1.218-.116-1.651,.318-.434,.434-.56,1.087-.318,1.651l1.3,2.725L.943,10.607c-.569,.228-.943,.779-.943,1.393s.374,1.165,.943,1.393l4.497,1.799-1.319,2.808c-.241,.563-.115,1.218,.318,1.651,.434,.435,1.089,.559,1.651,.318l2.742-1.35,1.775,4.437c.228,.57,.779,.943,1.393,.943s1.165-.373,1.393-.943l1.792-4.477,2.725,1.3c.19,.081,.392,.121,.591,.121,.39,0,.773-.152,1.061-.439,.434-.434,.56-1.088,.318-1.651l-1.3-2.725,4.477-1.792c.57-.228,.943-.779,.943-1.393s-.373-1.165-.943-1.393Zm-11.057,7.854l-1.607-4.018c-.152-.382-.454-.684-.835-.836l-4.018-1.607,4.018-1.607c.381-.152,.683-.454,.835-.835l1.607-4.018,1.607,4.018c.152,.381,.454,.683,.836,.835l4.018,1.607-4.018,1.607c-.382,.152-.684,.454-.836,.836l-1.607,4.018Z"/>
</svg>
