<?xml version="1.0" encoding="UTF-8"?>
<svg xmlns="http://www.w3.org/2000/svg" id="Layer_1" data-name="Layer 1" viewBox="0 0 24 24">
  <path d="M24,13.5v9c0,.828-.671,1.5-1.5,1.5s-1.5-.672-1.5-1.5v-1.5H3v1.5c0,.828-.671,1.5-1.5,1.5s-1.5-.672-1.5-1.5V5.5c0-.828,.671-1.5,1.5-1.5s1.5,.672,1.5,1.5v10.5h7v-2.5c0-2.481,2.019-4.5,4.5-4.5,.829,0,1.5,.672,1.5,1.5s-.671,1.5-1.5,1.5-1.5,.673-1.5,1.5v2.5h8v-2.5c0-.635-.402-1.203-1-1.415-.781-.276-1.19-1.133-.914-1.914,.276-.782,1.134-1.192,1.914-.914,1.794,.635,3,2.34,3,4.243Zm-15,0c0-1.381-1.119-2.5-2.5-2.5s-2.5,1.119-2.5,2.5,1.119,2.5,2.5,2.5,2.5-1.119,2.5-2.5Zm.5-7.752h3.081c.489,0,.947-.238,1.228-.639l.573-.816,2.077,3.477c.52,.933,1.969,.969,2.536,.062l1.389-2.084h2.116c.829,0,1.5-.672,1.5-1.5s-.671-1.5-1.5-1.5h-2.919c-.501,0-.97,.251-1.248,.668l-.517,.775L15.771,.768c-.514-.918-1.946-.983-2.516-.092l-1.454,2.072h-2.301c-.829,0-1.5,.672-1.5,1.5s.671,1.5,1.5,1.5Z"/>
</svg>
