<?xml version="1.0" encoding="UTF-8"?>
<svg xmlns="http://www.w3.org/2000/svg" id="Layer_1" data-name="Layer 1" viewBox="0 0 24 24">
  <path d="M5.596,18.429c.592,.58,.602,1.529,.021,2.121-.294,.3-.683,.45-1.071,.45-.379,0-.758-.143-1.05-.429C1.621,18.735,.385,16.299,.015,13.712c-.117-.82,.453-1.58,1.273-1.697,.812-.12,1.579,.453,1.697,1.272,.276,1.938,1.204,3.763,2.61,5.142Zm1.697-12.139l-1.127-1.127c1.617-1.382,3.666-2.163,5.834-2.163,3.458,0,6.65,2.019,8.134,5.144,.257,.541,.795,.857,1.356,.857,.216,0,.435-.047,.643-.146,.748-.355,1.066-1.25,.711-1.999C20.866,2.691,16.609,0,12,0c-2.971,0-5.776,1.099-7.957,3.04l-1.336-1.336c-.63-.63-1.707-.184-1.707,.707V6.997c0,.552,.448,1,1,1H6.586c.891,0,1.337-1.077,.707-1.707Zm2.707,4.71h-1.5c-.828,0-1.5,.671-1.5,1.5s.672,1.5,1.5,1.5h1.5c.552,0,1,.449,1,1s-.448,1-1,1h-.5c-.828,0-1.5,.671-1.5,1.5s.672,1.5,1.5,1.5h.5c.552,0,1,.449,1,1s-.448,1-1,1h-1.5c-.828,0-1.5,.671-1.5,1.5s.672,1.5,1.5,1.5h1.5c2.206,0,4-1.794,4-4,0-.951-.347-1.813-.903-2.5,.556-.687,.903-1.549,.903-2.5,0-2.206-1.794-4-4-4Zm14,4v5c0,2.206-1.794,4-4,4s-4-1.794-4-4v-5c0-2.206,1.794-4,4-4s4,1.794,4,4Zm-3,0c0-.551-.448-1-1-1s-1,.449-1,1v5c0,.551,.448,1,1,1s1-.449,1-1v-5Z"/>
</svg>
