<?xml version="1.0" encoding="UTF-8"?>
<svg xmlns="http://www.w3.org/2000/svg" id="Layer_1" data-name="Layer 1" viewBox="0 0 24 24">
  <path d="M16,21.5c0,.828-.672,1.5-1.5,1.5H4.369c-1.616,0-2.822-.469-3.582-1.394-.712-.865-.947-2.04-.681-3.396,.449-2.278,1.674-5.35,4.958-7.044,.735-.379,1.641-.092,2.021,.646,.38,.735,.091,1.641-.646,2.021-2.219,1.146-3.068,3.328-3.39,4.957-.083,.421-.062,.77,.054,.911,.119,.145,.514,.299,1.266,.299H14.5c.828,0,1.5,.672,1.5,1.5Zm8-12v8c0,1.194-.39,2.345-1.092,3.287l.653,.653c.586,.586,.586,1.535,0,2.121-.293,.293-.677,.439-1.061,.439s-.768-.146-1.061-.439L.439,2.561C-.146,1.975-.146,1.025,.439,.439S1.975-.146,2.561,.439L12.121,10h8.879v-.5c0-3.032-2.468-5.5-5.5-5.5h-6c-.828,0-1.5-.672-1.5-1.5s.672-1.5,1.5-1.5h6c4.687,0,8.5,3.813,8.5,8.5Zm-3.269,9.11c.17-.342,.269-.719,.269-1.11v-4.5h-5.879l5.61,5.61Z"/>
</svg>
