<?xml version="1.0" encoding="UTF-8"?>
<svg xmlns="http://www.w3.org/2000/svg" id="Layer_1" data-name="Layer 1" viewBox="0 0 24 24">
  <path d="M18,2h-.013C16.818,.437,14.829-.319,12.85,.13c-1.864,.423-3.37,1.97-3.747,3.849-.282,1.404,.021,2.799,.846,3.936-4.072,1.673-5.58,5.32-5.889,8.085h-.059c-2.206,0-4,1.794-4,4s1.794,4,4,4H12.5c.828,0,1.5-.672,1.5-1.5s-.672-1.5-1.5-1.5H4c-.551,0-1-.448-1-1s.449-1,1-1h15.5c.828,0,1.5-.672,1.5-1.5s-.672-1.5-1.5-1.5h-.5v-3h2.5c1.379,0,2.5-1.122,2.5-2.5v-1.5c0-3.441-2.244-7-6-7Zm-2,14H7.094c.289-1.873,1.429-5.005,5.708-5.799,.711,1.155,1.847,2.029,3.198,2.47v3.329Zm5-6h-3c-1.465,0-2.712-.883-2.952-2.12-.098-.508-.531-.88-1.048-.88-1.105,0-2-.895-2-2s.895-2,2-2,2,.895,2,2v1.5c.694,0,1.38-.724,1.74-1.5h.26c2.069,0,3,2.339,3,4v1Z"/>
</svg>
