<?xml version="1.0" encoding="UTF-8"?>
<svg xmlns="http://www.w3.org/2000/svg" id="Layer_1" data-name="Layer 1" viewBox="0 0 24 24">
  <path d="m10.754,6.509c0-.048,0-1.976,0-2.024-.001-.403.344-.725.746-.731.402.007.747.328.746.731,0,.048,0,1.976,0,2.024.001.403-.322.729-.724.736-.402-.007-.768-.333-.767-.736Zm13.246-2.009v11.343c0,1.47-.572,2.851-1.611,3.89l-2.657,2.656c-1.039,1.039-2.42,1.611-3.889,1.611H4.5c-2.481,0-4.5-2.019-4.5-4.5V4.5C0,2.015,2.015,0,4.5,0h15c2.485,0,4.5,2.015,4.5,4.5Zm-9.575-1.215l1.171,4.652c.088.349.402.593.761.593.372,0,.693-.261.768-.625l.969-4.645c.079-.377-.209-.731-.594-.731h-.012c-.287,0-.535.202-.594.483l-.583,2.799-.71-2.823c-.068-.27-.31-.459-.588-.459-.395,0-.685.372-.588.755Zm-4.925,3.245c0,1.086.914,1.967,2,1.967s2-.881,2-1.967v-2.066c0-1.086-.914-1.964-2-1.964s-2,.877-2,1.964v2.066Zm-6.453,1.388c-.025.352.253.651.605.651.318,0,.582-.246.605-.563l.201-2.776.644,1.416c.216.474.889.474,1.105,0l.644-1.416.201,2.776c.023.317.287.563.605.563.352,0,.631-.299.605-.651l-.338-4.659c-.032-.535-.358-.759-.749-.759-.26,0-.501.184-.638.486l-.883,1.942-.883-1.942c-.137-.302-.378-.486-.638-.486-.391,0-.717.224-.749.759l-.338,4.659Zm17.953,3.082H3v8.5c0,.827.673,1.5,1.5,1.5h10.5v-4c0-1.105.895-2,2-2h4v-4Z"/>
</svg>
