<?xml version="1.0" encoding="UTF-8"?>
<svg xmlns="http://www.w3.org/2000/svg" id="Layer_1" data-name="Layer 1" viewBox="0 0 24 24">
  <path d="m12.339,7.242s0,0,0,0c-.011-.026-.005-.013,0,0Zm2.161,6.758c-.828,0-1.5.672-1.5,1.5v2c0,.828.672,1.5,1.5,1.5s1.5-.672,1.5-1.5v-2c0-.828-.672-1.5-1.5-1.5Zm-5,0c-.828,0-1.5.672-1.5,1.5v2c0,.828.672,1.5,1.5,1.5s1.5-.672,1.5-1.5v-2c0-.828-.672-1.5-1.5-1.5Zm14.479-1.162l-1.017,5.93c-.436,2.968-3.103,5.232-6.197,5.232H7.264c-3.095,0-5.762-2.265-6.203-5.269L.056,12.874c-.146-.991.138-1.959.772-2.693.349-.404.789-.706,1.273-.907.11-.752.311-1.486.622-2.189l.895-2.032c.254-.576.383-1.516.383-2.144-.581-.207-1-.756-1-1.408,0-.828.672-1.5,1.5-1.5h6c.828,0,1.5.672,1.5,1.5,0,.652-.419,1.201-1,1.408,0,.628.129,1.568.383,2.144l.956,2.191c.012.026.006.013,0,0C14.584,2.9,18.217-1.029,21.117.235c.512.222,1.203.707,1.591,1.76.607,1.648.24,4.278-.963,7.217.556.195,1.064.515,1.456.969.635.733.918,1.702.778,2.657Zm-9.173-3.838h3.75c1.512-3.275,1.58-5.466,1.33-5.998-.409.047-1.38.668-2.524,2.011l.578.987c.207.484-.148,1.023-.674,1.023l-1.349-.01c-.286.458-.573.948-.856,1.496,0,0-.19.369-.254.491Zm-9.589,0h4.564c-.069-.239-.147-.475-.249-.705l-.896-2.034c-.423-.96-.637-2.214-.637-3.261h-1c0,1.047-.214,2.301-.637,3.261l-.896,2.033c-.102.23-.181.467-.25.706Zm15.798,3.366c.012-.083-.039-.171-.085-.225-.046-.053-.148-.142-.323-.142,0,0-17.169.005-17.201.003-.164.006-.266.087-.31.139-.066.077-.094.164-.079.26l1.005,5.857c.232,1.577,1.623,2.74,3.24,2.74h9.502c1.617,0,3.008-1.163,3.234-2.704l1.017-5.93Z"/>
</svg>
