<?xml version="1.0" encoding="UTF-8"?>
<svg xmlns="http://www.w3.org/2000/svg" id="Layer_1" data-name="Layer 1" viewBox="0 0 24 24">
  <path d="m12,0C5.383,0,0,5.383,0,12s5.383,12,12,12,12-5.383,12-12S18.617,0,12,0Zm0,21c-4.962,0-9-4.038-9-9S7.038,3,12,3s9,4.038,9,9-4.038,9-9,9Zm-2.122-11.122c-1.169,1.17-1.169,3.073,0,4.243,1.17,1.17,3.073,1.17,4.243,0,.586-.586,1.535-.586,2.121,0,.586.585.586,1.536,0,2.121-.784.785-1.739,1.282-2.743,1.541v.717c0,.829-.671,1.5-1.5,1.5s-1.5-.671-1.5-1.5v-.717c-1.004-.258-1.958-.756-2.743-1.541-1.133-1.133-1.757-2.64-1.757-4.243s.624-3.109,1.757-4.243c.784-.785,1.739-1.282,2.743-1.541v-.717c0-.829.671-1.5,1.5-1.5s1.5.671,1.5,1.5v.717c1.004.258,1.958.756,2.743,1.541.586.585.586,1.536,0,2.121-.586.586-1.535.586-2.121,0-1.17-1.17-3.073-1.17-4.243,0Z"/>
</svg>
