<?xml version="1.0" encoding="UTF-8"?>
<svg xmlns="http://www.w3.org/2000/svg" id="Layer_1" data-name="Layer 1" viewBox="0 0 24 24">
  <path d="M17,8.5V1.5c0-.829,.672-1.5,1.5-1.5,.66,0,1.315,.128,1.926,.377l3.095,1.259c.639,.399,.639,1.329,0,1.729l-3.521,1.693v3.443c0,.829-.672,1.5-1.5,1.5s-1.5-.671-1.5-1.5ZM3.5,19c1.381,0,2.5-1.119,2.5-2.5s-1.119-2.5-2.5-2.5-2.5,1.119-2.5,2.5,1.119,2.5,2.5,2.5Zm0,1c-1.632,0-3.011,1.054-3.454,2.5-.097,.317-.189,1.5,1.395,1.5H5.559c1.584,0,1.492-1.183,1.395-1.5-.443-1.446-1.822-2.5-3.454-2.5Zm16-6h-7.5c-1.103,0-2-.897-2-2s.897-2,2-2h1.5c.828,0,1.5-.671,1.5-1.5s-.672-1.5-1.5-1.5h-1.5c-2.757,0-5,2.243-5,5s2.243,5,5,5h7.5c.827,0,1.5,.673,1.5,1.5s-.673,1.5-1.5,1.5H10.5c-.828,0-1.5,.672-1.5,1.5s.672,1.5,1.5,1.5h9c2.481,0,4.5-2.019,4.5-4.5s-2.019-4.5-4.5-4.5Z"/>
</svg>
