<?xml version="1.0" encoding="UTF-8"?>
<svg xmlns="http://www.w3.org/2000/svg" id="Layer_1" data-name="Layer 1" viewBox="0 0 24 24">
  <path d="M7.941,22.652c.247,.661-.32,1.348-1.054,1.348H1.113c-.734,0-1.301-.687-1.054-1.348,.579-1.546,2.125-2.652,3.941-2.652s3.362,1.106,3.941,2.652Zm4.059-2.652c-1.816,0-3.362,1.106-3.941,2.652-.247,.661,.32,1.348,1.054,1.348h5.774c.734,0,1.301-.687,1.054-1.348-.579-1.546-2.125-2.652-3.941-2.652Zm8,0c-1.816,0-3.362,1.106-3.941,2.652-.247,.661,.32,1.348,1.054,1.348h5.774c.734,0,1.301-.687,1.054-1.348-.579-1.546-2.125-2.652-3.941-2.652Zm-16-1c1.381,0,2.5-1.119,2.5-2.5s-1.119-2.5-2.5-2.5-2.5,1.119-2.5,2.5,1.119,2.5,2.5,2.5Zm5.5-2.5c0,1.381,1.119,2.5,2.5,2.5s2.5-1.119,2.5-2.5-1.119-2.5-2.5-2.5-2.5,1.119-2.5,2.5Zm8,0c0,1.381,1.119,2.5,2.5,2.5s2.5-1.119,2.5-2.5-1.119-2.5-2.5-2.5-2.5,1.119-2.5,2.5Zm-2.3-12.033c.285,.338,.705,.533,1.147,.533h2.32l-.879,2.26c-.138,.356,.124,.74,.506,.74h.32c.407,0,.781-.222,.975-.579l1.911-2.421h1.5c.552,0,1-.448,1-1s-.448-1-1-1h-1.5l-1.929-2.421c-.195-.357-.569-.579-.975-.579h-.298c-.383,0-.646,.386-.505,.742l.891,2.258h-2.241l-1.11-.772c-.146-.146-.345-.228-.551-.228-.599,0-.974,.647-.677,1.167l1.096,1.3Zm-5.202,.582c.328-.022,.668-.062,1.002-.049,.829,0,1.5-.671,1.5-1.5s-.671-1.5-1.5-1.5c-.396-.004-.801,.01-1.186,.061-.822,.103-1.405,.852-1.303,1.674,.095,.759,.741,1.314,1.486,1.314Zm-4.499,2.163c.424,0,.845-.179,1.142-.526,.167-.195,.35-.378,.543-.543,.631-.537,.707-1.483,.17-2.114-.536-.632-1.483-.706-2.114-.17-.315,.268-.612,.564-.881,.88-.538,.63-.462,1.577,.167,2.115,.283,.241,.628,.359,.973,.359Zm-1.5,4.788c.829,0,1.5-.671,1.5-1.5,.002-.171-.004-.768,.005-.931,.038-.828-.602-1.529-1.43-1.567-.845-.034-1.53,.602-1.567,1.43-.013,.25-.006,.815-.008,1.069,0,.829,.671,1.5,1.5,1.5Z"/>
</svg>
