<?xml version="1.0" encoding="UTF-8"?>
<svg xmlns="http://www.w3.org/2000/svg" id="Layer_1" data-name="Layer 1" viewBox="0 0 24 24">
  <path d="M20.345,14.207c-.538-2.121-1.344-5.02-1.345-6.707,0-.275,.224-.5,.5-.5s.5,.225,.5,.5c0,.828,.671,1.5,1.5,1.5s1.5-.672,1.5-1.5c0-1.93-1.57-3.5-3.5-3.5-1.826,0-3.313,1.411-3.469,3.197-.083,.631,.02,1.241,.102,1.945l-3.965,2.903-2.106-2.106c-.586-.586-1.535-.586-2.121,0s-.586,1.535,0,2.121l1.778,1.778-.765,.56c-.6-.256-1.26-.398-1.953-.398-2.757,0-5,2.243-5,5s2.243,5,5,5,5-2.243,5-5c0-.945-.279-1.821-.737-2.576l5.523-4.044c.161,.659,.328,1.307,.492,1.943-1.908,.705-3.279,2.526-3.279,4.676,0,2.757,2.243,5,5,5s5-2.243,5-5c0-2.288-1.554-4.201-3.655-4.793Zm-13.345,6.793c-1.103,0-2-.897-2-2s.897-2,2-2c1.054,.033,2.013,.902,2,2,0,1.103-.897,2-2,2Zm12,0c-1.103,0-2-.897-2-2s.897-2,2-2,2,.897,2,2-.897,2-2,2ZM1,6.5c0-.828,.671-1.5,1.5-1.5H7.5c.829,0,1.5,.672,1.5,1.5s-.671,1.5-1.5,1.5H2.5c-.829,0-1.5-.672-1.5-1.5ZM2,1.5c0-.828,.671-1.5,1.5-1.5h6c.829,0,1.5,.672,1.5,1.5s-.671,1.5-1.5,1.5H3.5c-.829,0-1.5-.672-1.5-1.5Zm1.5,11.5H1.5c-.829,0-1.5-.672-1.5-1.5s.671-1.5,1.5-1.5H3.5c.829,0,1.5,.672,1.5,1.5s-.671,1.5-1.5,1.5Z"/>
</svg>
