<?xml version="1.0" encoding="UTF-8"?>
<svg xmlns="http://www.w3.org/2000/svg" id="Layer_1" data-name="Layer 1" viewBox="0 0 24 24">
  <path d="m24,12c0,6.617-5.383,12-12,12-2.939,0-5.768-1.074-7.964-3.023-.619-.55-.676-1.498-.125-2.118.55-.619,1.498-.676,2.117-.125,1.647,1.461,3.768,2.267,5.972,2.267,4.963,0,9-4.038,9-9,0-2.33-.917-4.539-2.494-6.197l-.924.924c-.584.584-1.582.17-1.582-.655V1.927c0-.512.415-.927.927-.927h4.145c.825,0,1.239.998.655,1.582l-1.103,1.103c2.134,2.217,3.377,5.183,3.377,8.315Zm-15.5,4.091c0,.502.399.909.891.909h5.218c.492,0,.891-.407.891-.909,0-1.895-1.204-3.272-2.214-4.091,1.01-.819,2.214-2.196,2.214-4.091,0-.502-.399-.909-.891-.909h-5.218c-.492,0-.891.407-.891.909,0,1.901,1.212,3.274,2.223,4.091-1.012.817-2.223,2.19-2.223,4.091Zm-3.467-10.585c.828,0,1.5-.672,1.5-1.5s-.672-1.5-1.5-1.5-1.5.672-1.5,1.5.672,1.5,1.5,1.5Zm-3.18,2c-.828,0-1.5.672-1.5,1.5s.672,1.5,1.5,1.5,1.5-.672,1.5-1.5-.672-1.5-1.5-1.5Zm0,6.027c-.828,0-1.5.672-1.5,1.5s.672,1.5,1.5,1.5,1.5-.672,1.5-1.5-.672-1.5-1.5-1.5ZM10.5,3c.828,0,1.5-.672,1.5-1.5s-.672-1.5-1.5-1.5-1.5.672-1.5,1.5.672,1.5,1.5,1.5Z"/>
</svg>
