<?xml version="1.0" encoding="UTF-8"?>
<svg xmlns="http://www.w3.org/2000/svg" id="Layer_1" data-name="Layer 1" viewBox="0 0 24 24">
  <path d="M17.5,14c.828,0,1.5,.672,1.5,1.5s-.672,1.5-1.5,1.5-1.5-.672-1.5-1.5,.672-1.5,1.5-1.5Zm5-6.048c-.828,0-1.5,.671-1.5,1.5v11.047c0,.275-.225,.5-.5,.5H5.5c-1.379,0-2.5-1.121-2.5-2.5V9.395c.758,.386,1.607,.605,2.5,.605h6c.828,0,1.5-.671,1.5-1.5s-.672-1.5-1.5-1.5H5.5c-.801,0-1.527-.378-1.992-.995,.457-.607,1.176-1.005,1.992-1.005h4c.828,0,1.5-.671,1.5-1.5s-.672-1.5-1.5-1.5H5.5C2.441,1.989-.012,4.537,0,7.5v11c0,3.032,2.468,5.5,5.5,5.5h15c1.93,0,3.5-1.57,3.5-3.5V9.453c0-.829-.672-1.5-1.5-1.5Zm-5.685,.717c.378,.378,.991,.378,1.369,0l3.063-3.063c.61-.61,.178-1.653-.685-1.653h-1.563V1.453c0-.829-.672-1.5-1.5-1.5s-1.5,.671-1.5,1.5V3.954h-1.563c-.863,0-1.295,1.043-.685,1.653l3.063,3.063Z"/>
</svg>
