<?xml version="1.0" encoding="UTF-8"?>
<svg xmlns="http://www.w3.org/2000/svg" id="Layer_1" data-name="Layer 1" viewBox="0 0 24 24">
  <path d="m21.513,13.329l-2.001-1c.605-2.536.988-5.447.988-6.329,0-1.657-1.343-3-3-3s-3,1.343-3,3c0,.881.383,3.793.988,6.329l-2,1c-1.535.767-2.488,2.309-2.488,4.025v4.146c0,1.379,1.121,2.5,2.5,2.5h8c1.379,0,2.5-1.121,2.5-2.5v-4.146c0-1.717-.953-3.259-2.487-4.025Zm-4.013-8.579c.69,0,1.25.56,1.25,1.25s-.56,1.25-1.25,1.25-1.25-.56-1.25-1.25.56-1.25,1.25-1.25Zm3.5,16.25h-3.279l-.745-2.67c-.165-.44-.788-.44-.953,0l-.745,2.67h-1.279v-3.646c0-.122.021-.24.049-.354h6.902c.028.115.049.232.049.354v3.646ZM11.5,5c-.652,0-1.202-.419-1.408-1h-1.092c0,.384-.224.707-.542.875l.54,11.539c.049,1.414-1.084,2.586-2.498,2.586s-2.547-1.172-2.498-2.586l.478-11.414H1c-.552,0-1-.448-1-1C0,1.791,1.791,0,4,0h4c.552,0,1,.448,1,1h1.092c.207-.581.756-1,1.408-1,.828,0,1.5.672,1.449,1.654v2c.051.675-.62,1.346-1.449,1.346Z"/>
</svg>
