<?xml version="1.0" encoding="UTF-8"?>
<svg xmlns="http://www.w3.org/2000/svg" id="Layer_1" data-name="Layer 1" viewBox="0 0 24 24">
  <path d="M16.665,15.971c.446,.446,.446,1.17,0,1.616l-.522,.6c-.551,.552-1.277,.813-2,.813-.992,0-2.105-.375-3.205-.988l3.575-3.575c.307-.012,.617,.092,.851,.326l1.302,1.208Zm2.09-5.776l-2.55,2.55c.259,.449,.739,.755,1.295,.755,.828,0,1.5-.671,1.5-1.5,0-.625-.09-1.228-.245-1.805Zm5.245,1.805c0,6.617-5.383,12-12,12S0,18.617,0,12,5.383,0,12,0s12,5.383,12,12Zm-21,0c0,1.941,.624,3.735,1.672,5.207l2.451-2.451c-1.262-1.553-2.123-3.313-2.123-4.899,0-.723,.261-1.449,.813-2l.6-.522c.446-.446,1.17-.446,1.616,0l1.208,1.302c.446,.446,.446,1.17,0,1.616l-1.025,1.036c.23,.573,.504,1.092,.815,1.564l4.535-4.535c-.48-.204-1.007-.318-1.561-.318-.829,0-1.5-.671-1.5-1.5s.671-1.5,1.5-1.5c1.388,0,2.679,.411,3.768,1.111l1.438-1.438c-1.472-1.049-3.266-1.672-5.207-1.672C7.038,3,3,7.038,3,12Zm18,0c0-1.941-.624-3.735-1.672-5.207L6.793,19.328c1.472,1.049,3.266,1.672,5.207,1.672,4.963,0,9-4.037,9-9Z"/>
</svg>
