<?xml version="1.0" encoding="UTF-8"?>
<svg xmlns="http://www.w3.org/2000/svg" id="Layer_1" data-name="Layer 1" viewBox="0 0 24 24">
  <path d="M21.5,21h-.5V11c0-4.497-3.32-8.224-7.635-8.885,.085-.188,.135-.395,.135-.615,0-.828-.672-1.5-1.5-1.5s-1.5,.672-1.5,1.5c0,.22,.05,.427,.135,.615C6.32,2.776,3,6.503,3,11v10h-.5c-.829,0-1.5,.671-1.5,1.5s.671,1.5,1.5,1.5H21.5c.829,0,1.5-.671,1.5-1.5s-.671-1.5-1.5-1.5ZM12.976,10h-1.952c.11-2.325,.586-3.944,.976-4.677,.391,.733,.866,2.351,.976,4.677Zm.024,3v8h-2V13h2Zm3,0h2v8h-2V13Zm1.91-3h-1.933c-.054-1.333-.22-2.688-.523-3.898,1.278,.904,2.185,2.293,2.456,3.898Zm-9.364-3.898c-.303,1.21-.469,2.565-.523,3.898h-1.933c.271-1.605,1.178-2.994,2.456-3.898Zm-2.546,6.898h2v8h-2V13Z"/>
</svg>
