<?xml version="1.0" encoding="UTF-8"?>
<svg xmlns="http://www.w3.org/2000/svg" id="Layer_1" data-name="Layer 1" viewBox="0 0 24 24">
  <path d="m2,15h8c.129,0,.255.015.377.038l-3.67,3.67c-.378.377-1.036.377-1.414,0l-3.671-3.67c.123-.023.248-.038.378-.038Zm6.121,5.123c-.585.585-1.353.877-2.121.877s-1.536-.292-2.121-.877L.115,16.359c-.069.202-.115.416-.115.641v5c0,1.105.895,2,2,2h8c1.105,0,2-.895,2-2v-5c0-.226-.046-.439-.115-.642l-3.764,3.764ZM17.5,0H6.5C2.916,0,0,2.916,0,6.5v5c0,.829.671,1.5,1.5,1.5s1.5-.671,1.5-1.5v-5c0-1.93,1.57-3.5,3.5-3.5s3.5,1.57,3.5,3.5v5c0,.829.671,1.5,1.5,1.5s1.5-.671,1.5-1.5v-1.5h3v.5c0,.829.672,1.5,1.5,1.5s1.5-.671,1.5-1.5v-2c0-.829-.672-1.5-1.5-1.5h-4.5v-.5c0-1.289-.382-2.488-1.032-3.5h5.532c1.93,0,3.5,1.57,3.5,3.5v10c0,.276-.225.5-.5.5h-5c-.828,0-1.5.671-1.5,1.5s.672,1.5,1.5,1.5h5c1.93,0,3.5-1.57,3.5-3.5V6.5c0-3.584-2.916-6.5-6.5-6.5Zm-9.5,8.5c0-.828-.672-1.5-1.5-1.5s-1.5.672-1.5,1.5.672,1.5,1.5,1.5,1.5-.672,1.5-1.5Z"/>
</svg>
