<?xml version="1.0" encoding="UTF-8"?>
<svg xmlns="http://www.w3.org/2000/svg" id="Layer_1" data-name="Layer 1" viewBox="0 0 24 24">
  <path d="M23.883,14.488l-1.437-6.225c-.579-2.51-2.783-4.263-5.359-4.263H6.912c-2.576,0-4.78,1.753-5.359,4.263L.117,14.488c-.31,1.344,.004,2.733,.863,3.813,.859,1.079,2.142,1.698,3.521,1.698h14.997c1.379,0,2.663-.619,3.521-1.698,.859-1.08,1.173-2.47,.863-3.813Zm-3.211,1.945c-.286,.36-.714,.566-1.174,.566H4.501c-.459,0-.888-.206-1.174-.566-.286-.359-.391-.823-.288-1.271l1.437-6.224c.264-1.141,1.265-1.938,2.436-1.938h10.176c1.171,0,2.172,.797,2.436,1.938l1.437,6.224c.103,.448-.002,.912-.288,1.271Zm-3.672-5.684c0,.478-.192,.909-.503,1.225,0,.008,.003,.016,.003,.025s-.002,.016-.003,.025c.31,.316,.503,.748,.503,1.225,0,.966-.784,1.75-1.75,1.75-.881,0-1.603-.653-1.725-1.5h-3.05c-.122,.847-.844,1.5-1.725,1.5-.966,0-1.75-.784-1.75-1.75,0-.478,.192-.909,.503-1.225,0-.008-.003-.016-.003-.025s.002-.016,.003-.025c-.31-.316-.503-.748-.503-1.225,0-.966,.784-1.75,1.75-1.75,.881,0,1.603,.653,1.725,1.5h3.05c.122-.847,.844-1.5,1.725-1.5,.966,0,1.75,.784,1.75,1.75Z"/>
</svg>
