<?xml version="1.0" encoding="UTF-8"?>
<svg xmlns="http://www.w3.org/2000/svg" id="Layer_1" data-name="Layer 1" viewBox="0 0 24 24">
  <path d="M13.809,10.75c.235-.748,.255-1.759-.012-2.829-.13-.522-.668-.837-1.192-.721l-2.329,.518c-.648,.144-.988,.87-.669,1.452,.384,.701,.788,1.341,1.218,1.84-3.021,1.536-5.825,6.253-5.825,8.992,0,1.1,.345,2.001,1.024,2.679,1.338,1.333,3.478,1.333,5.553,1.32,.4-.002,.884,0,1.283,0,1.932,0,3.871-.082,5.115-1.321,.68-.678,1.024-1.579,1.024-2.679,0-2.316-2.268-8.02-5.191-9.252Zm2.048,9.806c-.456,.455-2.176,.451-3.425,.445-.215,0-.649,0-.864,0-1.458-.122-3.543,.33-3.568-.999,0-2.126,3.162-6.5,4.644-6.505,1.04,.276,3.356,4.473,3.356,6.505,0,.273-.048,.46-.143,.554ZM4.543,4.655c-.98-.812-1.543-1.962-1.543-3.155,0-.829,.671-1.5,1.5-1.5s1.5,.671,1.5,1.5c0,.301,.162,.601,.457,.845,.98,.812,1.543,1.962,1.543,3.155,0,.829-.671,1.5-1.5,1.5s-1.5-.671-1.5-1.5c0-.301-.162-.601-.457-.845ZM9,1.5c0-.829,.671-1.5,1.5-1.5,.817,0,1.481,.653,1.5,1.466,.02,.034,.091,.135,.292,.26,1.085,.675,1.708,1.686,1.708,2.774,0,.829-.671,1.5-1.5,1.5s-1.496-.667-1.5-1.492c-.006,.032-.073-.098-.292-.234-1.085-.675-1.708-1.686-1.708-2.774Zm7.543,3.155c-.98-.812-1.543-1.962-1.543-3.155,0-.829,.671-1.5,1.5-1.5s1.5,.671,1.5,1.5c0,.301,.162,.601,.457,.845,.98,.812,1.543,1.962,1.543,3.155,0,.829-.671,1.5-1.5,1.5s-1.5-.671-1.5-1.5c0-.301-.162-.601-.457-.845ZM3.718,22.775c.303,.641-.234,1.379-.919,1.197-.609-.162-1.326-.637-1.789-1.096-.67-.665-1.01-1.603-1.01-2.786,0-2.459,1.68-6.896,4.393-7.887-.346-.51-.606-1.207-.764-1.93-.091-.416,.198-.823,.62-.883l2.003-.286c.421-.06,.809,.252,.842,.677,.027,.348,.029,.675,.004,1.01-.033,.439-.22,.85-.509,1.183-2.129,2.452-3.589,5.7-3.589,8.027,0,.939,.356,2.007,.718,2.774Zm20.282-2.685c0,1.184-.34,2.121-1.01,2.786-.47,.466-1.235,.936-1.856,1.097-.675,.175-1.205-.548-.903-1.177,.371-.774,.77-1.845,.77-2.795,0-1.926-1.115-5.492-3.028-8.144-.303-.42-.475-.93-.397-1.442,.035-.229,.085-.463,.153-.699,.138-.482,.669-.741,1.143-.577l1.568,.543c.53,.184,.754,.804,.476,1.291-.303,.53-.661,1.028-1.04,1.402,2.484,1.24,4.125,5.323,4.125,7.715Z"/>
</svg>
