<?xml version="1.0" encoding="UTF-8"?>
<svg xmlns="http://www.w3.org/2000/svg" id="Layer_1" data-name="Layer 1" viewBox="0 0 24 24">
  <path d="M1.14,7.7c.684-1.018,1.928-1.7,3.36-1.7,.909,0,1.742,.277,2.404,.739-.407,.694-.488,1.509-.244,2.261H1.953c-.748,0-1.197-.728-.813-1.3Zm16.199,1.3h4.708c.748,0,1.196-.728,.813-1.3-.684-1.018-1.928-1.7-3.36-1.7-.909,0-1.742,.277-2.404,.739,.407,.694,.488,1.509,.244,2.261Zm-7.886,0h5.094c.748,0,1.196-.728,.813-1.3-.684-1.018-1.928-1.7-3.36-1.7s-2.676,.682-3.36,1.7c-.384,.571,.064,1.3,.813,1.3Zm14.545,4.934c-.931,5.738-6.088,10.066-11.997,10.066h-.001c-5.892,0-11.036-4.328-11.967-10.066-.119-.732,.089-1.477,.571-2.042,.482-.566,1.184-.892,1.926-.892H21.5c.742,0,1.444,.325,1.926,.892,.482,.565,.69,1.31,.571,2.042Zm-14.357,.066c.381,2.469,1.488,4.601,2.357,5.955,.869-1.358,1.978-3.495,2.362-5.955h-4.719Zm-.864,6.404c-.92-1.659-1.852-3.879-2.163-6.404H3.101c.679,2.96,2.875,5.344,5.676,6.404Zm12.154-6.404h-3.543c-.312,2.528-1.245,4.75-2.166,6.41,2.819-1.056,5.029-3.445,5.709-6.41ZM4.5,5c1.105,0,2-.895,2-2s-.895-2-2-2-2,.895-2,2,.895,2,2,2Zm7.5,0c1.381,0,2.5-1.119,2.5-2.5s-1.119-2.5-2.5-2.5-2.5,1.119-2.5,2.5,1.119,2.5,2.5,2.5Zm7.5,0c1.105,0,2-.895,2-2s-.895-2-2-2-2,.895-2,2,.895,2,2,2Z"/>
</svg>
