<?xml version="1.0" encoding="UTF-8"?>
<svg xmlns="http://www.w3.org/2000/svg" id="Layer_1" data-name="Layer 1" viewBox="0 0 24 24">
  <path d="M12,13c.828,0,1.5,.672,1.5,1.5v1c0,.828-.672,1.5-1.5,1.5s-1.5-.672-1.5-1.5v-1c0-.828,.672-1.5,1.5-1.5Zm-3.523-4.453c-.957-.956-1.477-2.211-1.477-3.547s.52-2.591,1.465-3.536c.944-.944,2.2-1.464,3.535-1.464s2.591,.52,3.535,1.464c.945,.944,1.465,2.2,1.465,3.536s-.52,2.591-1.465,3.536l-1.808,1.769c-.96,.939-2.495,.939-3.455,0l-1.796-1.757Zm1.523-3.547c0,1.105,.895,2,2,2s2-.895,2-2-.895-2-2-2-2,.895-2,2Zm13.919,12.761l-1.445-8.213c-.183-1.039-.656-1.997-1.37-2.772-.562-.609-1.51-.648-2.119-.087s-.649,1.51-.088,2.12c.324,.352,.539,.788,.622,1.26l1.445,8.213c.277,1.371-.885,2.754-2.283,2.72h-5.181v-1.5c0-.828-.672-1.5-1.5-1.5s-1.5,.672-1.5,1.5v1.5H5.319c-1.398,.034-2.558-1.347-2.283-2.718l1.437-8.213c.083-.475,.3-.913,.628-1.267,.562-.607,.526-1.557-.081-2.12-.608-.562-1.557-.526-2.12,.082-.722,.778-1.199,1.743-1.382,2.789L.081,17.765c-.631,3.147,2.031,6.313,5.238,6.235h13.361c3.208,.078,5.871-3.093,5.238-6.239Z"/>
</svg>
