<?xml version="1.0" encoding="UTF-8"?>
<svg xmlns="http://www.w3.org/2000/svg" id="Layer_1" data-name="Layer 1" viewBox="0 0 24 24">
  <path d="M8.269,3.149L11.116,.366c.488-.488,1.28-.488,1.768,0l2.847,2.783c.692,.676,.213,1.851-.754,1.851h-1.477v1.5c0,.828-.672,1.5-1.5,1.5s-1.5-.672-1.5-1.5v-1.5h-1.477c-.967,0-1.446-1.175-.754-1.851Zm14.231,13.851h-3.687c-.178,0-.354,.018-.529,.044l-4.572-4.462,.314-.34c.295-.256,.738-.313,1.09-.138,.05,.024,1.315,.494,1.315,.494,.722,.267,1.479,.401,2.248,.401h3.819c.828,0,1.5-.672,1.5-1.5s-.672-1.5-1.5-1.5h-3.819c-.414,0-.822-.072-1.211-.216l-1.095-.403c-1.451-.685-3.261-.396-4.431,.701-.025,.024-.107,.11-.107,.11l-.167-.153c-1.209-1.1-3.028-1.352-4.538-.594l-.231,.126c-.513,.28-1.093,.429-1.677,.429H1.5c-.828,0-1.5,.672-1.5,1.5s.672,1.5,1.5,1.5h3.724c1.086,0,2.163-.275,3.114-.795l.183-.101c.312-.155,.817-.132,1.13,.153l.149,.135-1.227,1.325c-.676,.675-.767,1.72-.217,2.484,.33,.458,.841,.746,1.402,.791,.558,.042,1.109-.158,1.515-.565l1.021-1.04,3.28,3.201-2.707,2.112c-.492,.385-1.238,.385-1.73,0l-3.793-2.96c-.612-.479-1.377-.742-2.155-.742H1.5c-.828,0-1.5,.672-1.5,1.5s.672,1.5,1.5,1.5h3.687c.11,0,.22,.037,.308,.106l3.795,2.961c.771,.602,1.733,.933,2.711,.933s1.939-.331,2.711-.933l3.797-2.962c.086-.068,.195-.105,.306-.105h3.687c.828,0,1.5-.672,1.5-1.5s-.672-1.5-1.5-1.5Z"/>
</svg>
