<?xml version="1.0" encoding="UTF-8"?>
<svg xmlns="http://www.w3.org/2000/svg" id="Layer_1" data-name="Layer 1" viewBox="0 0 24 24">
  <path d="m12,12c3.309,0,6-2.691,6-6h.5c.829,0,1.5-.671,1.5-1.5s-.671-1.5-1.5-1.5h-1.312c-1.039-1.79-2.973-3-5.188-3-3.309,0-6,2.691-6,6s2.691,6,6,6Zm0-3c-1.654,0-3-1.346-3-3h6c0,1.654-1.346,3-3,3Zm8.971,13.401c.055.827-.571,1.541-1.397,1.596-.034.002-.067.003-.101.003-.783,0-1.443-.608-1.495-1.401-.101-1.521-.772-2.879-1.792-3.878l-.909,1.779c-.384.607-1.249.663-1.709.112l-1.569-2.112-1.569,2.112c-.46.552-1.324.495-1.709-.112l-.909-1.779c-1.02.999-1.691,2.357-1.792,3.878-.055.826-.769,1.457-1.596,1.397-.827-.055-1.452-.769-1.397-1.596.311-4.71,4.252-8.401,8.971-8.401s8.66,3.69,8.971,8.401Z"/>
</svg>
