<?xml version="1.0" encoding="UTF-8"?>
<svg xmlns="http://www.w3.org/2000/svg" id="Layer_1" data-name="Layer 1" viewBox="0 0 24 24">
  <path d="m14,1.5v19c0,1.826-1,3.5-3,3.5h-5.359c-.902,0-1.732-.453-2.22-1.211-.488-.758-.557-1.701-.183-2.521l1.767-3.888c.343-.754,1.234-1.086,1.986-.745.754.343,1.088,1.232.745,1.986l-1.536,3.379h2.799v-7.423c0-1.409.873-2.731,2-3.577V1.5c0-.829.671-1.5,1.5-1.5s1.5.671,1.5,1.5Zm3.894,16.5c-1.657,0-2.894,1.343-2.894,3s1.237,3,2.894,3,3-1.343,3-3-1.343-3-3-3Z"/>
</svg>
