<?xml version="1.0" encoding="UTF-8"?>
<svg xmlns="http://www.w3.org/2000/svg" id="Layer_1" data-name="Layer 1" viewBox="0 0 24 24">
  <path d="M24,19v1c0,2.206-1.794,4-4,4H4c-2.206,0-4-1.794-4-4v-1c0-2.206,1.794-4,4-4h1c.828,0,1.5,.672,1.5,1.5s-.672,1.5-1.5,1.5h-1c-.552,0-1,.448-1,1v1c0,.552,.448,1,1,1H20c.552,0,1-.448,1-1v-1c0-.552-.448-1-1-1h-1c-.828,0-1.5-.672-1.5-1.5s.672-1.5,1.5-1.5h1c2.206,0,4,1.794,4,4Zm0-15.5v1c0,1.93-1.57,3.5-3.5,3.5v.5c0,2.481-2.019,4.5-4.5,4.5h-2.5v2h1.257c.776,0,1.165,.939,.616,1.488l-2.757,2.757c-.34,.34-.892,.34-1.233,0l-2.757-2.757c-.549-.549-.16-1.488,.616-1.488h1.257v-2h-2.5c-2.481,0-4.5-2.019-4.5-4.5v-.5c-1.93,0-3.5-1.57-3.5-3.5v-1C0,1.57,1.57,0,3.5,0h3c1.93,0,3.5,1.57,3.5,3.5v1c0,1.93-1.57,3.5-3.5,3.5v.5c0,.827,.673,1.5,1.5,1.5h8c.827,0,1.5-.673,1.5-1.5v-.5c-1.93,0-3.5-1.57-3.5-3.5v-1c0-1.93,1.57-3.5,3.5-3.5h3c1.93,0,3.5,1.57,3.5,3.5ZM3.5,5h3c.275,0,.5-.224,.5-.5v-1c0-.276-.225-.5-.5-.5H3.5c-.275,0-.5,.224-.5,.5v1c0,.276,.225,.5,.5,.5Zm17.5-1.5c0-.276-.225-.5-.5-.5h-3c-.275,0-.5,.224-.5,.5v1c0,.276,.225,.5,.5,.5h3c.275,0,.5-.224,.5-.5v-1Z"/>
</svg>
