<?xml version="1.0" encoding="UTF-8"?>
<svg xmlns="http://www.w3.org/2000/svg" id="Layer_1" data-name="Layer 1" viewBox="0 0 24 24">
  <path d="m15.653,15.384c-.911.988-2.206,1.616-3.653,1.616s-2.742-.628-3.653-1.616c.622-1.402,2.021-2.384,3.653-2.384s3.032.981,3.653,2.384Zm6.753,2.592c-.277.483-.783.753-1.302.753-.253,0-.51-.064-.746-.2l-.541-.311c-1.537,1.929-3.771,3.271-6.317,3.656v.625c0,.829-.671,1.5-1.5,1.5s-1.5-.671-1.5-1.5v-.625c-2.547-.386-4.78-1.728-6.317-3.656l-.541.311c-.235.135-.492.2-.746.2-.52,0-1.025-.271-1.302-.753-.413-.718-.165-1.635.554-2.048l.54-.31c-.438-1.124-.688-2.341-.688-3.618s.25-2.494.688-3.618l-.54-.31c-.718-.413-.966-1.33-.554-2.048.413-.718,1.33-.965,2.048-.554l.541.311c1.537-1.929,3.771-3.271,6.317-3.656v-.625c0-.829.671-1.5,1.5-1.5s1.5.671,1.5,1.5v.625c2.547.386,4.78,1.728,6.317,3.656l.541-.311c.718-.413,1.635-.165,2.048.554.413.718.165,1.635-.554,2.048l-.54.31c.438,1.124.688,2.341.688,3.618s-.25,2.494-.688,3.618l.54.31c.718.413.966,1.33.554,2.048Zm-3.406-5.976c0-3.86-3.14-7-7-7s-7,3.14-7,7,3.14,7,7,7,7-3.14,7-7Zm-7,0c1.381,0,2.5-1.119,2.5-2.5s-1.119-2.5-2.5-2.5-2.5,1.119-2.5,2.5,1.119,2.5,2.5,2.5Z"/>
</svg>
