<?xml version="1.0" encoding="UTF-8"?>
<svg xmlns="http://www.w3.org/2000/svg" id="Layer_1" data-name="Layer 1" viewBox="0 0 24 24">
  <path d="m6,15.276v-4.776c0-.828-.671-1.5-1.5-1.5s-1.5.672-1.5,1.5v4.776c-1.742.621-3,2.271-3,4.224v2c0,1.379,1.122,2.5,2.5,2.5h4c1.378,0,2.5-1.121,2.5-2.5v-2c0-1.953-1.258-3.602-3-4.224Zm0,5.724h-3v-1.5c0-.827.673-1.5,1.5-1.5s1.5.673,1.5,1.5v1.5Zm15-5.724v-6.276C21,4.067,17.01.053,12.089.005c-.007,0-.014,0-.021-.001-.023,0-.045-.003-.068-.003-3.309,0-6,2.691-6,6s2.691,6,6,6c1.193,0,2.346-.35,3.334-1.012.688-.46.873-1.392.412-2.08-.461-.689-1.392-.875-2.081-.412-.493.329-1.069.504-1.666.504-1.654,0-3-1.346-3-3s1.346-3,3-3c3.309,0,6,2.691,6,6v6.276c-1.742.621-3,2.271-3,4.224v2c0,1.379,1.122,2.5,2.5,2.5h4c1.378,0,2.5-1.121,2.5-2.5v-2c0-1.953-1.258-3.602-3-4.224Zm0,5.724h-3v-1.5c0-.827.673-1.5,1.5-1.5s1.5.673,1.5,1.5v1.5Z"/>
</svg>
