<?xml version="1.0" encoding="UTF-8"?>
<svg xmlns="http://www.w3.org/2000/svg" id="Layer_1" data-name="Layer 1" viewBox="0 0 24 24">
  <path d="m20.833,14.466c-.356-1.172-1.223-2.082-2.378-2.495-.75-.269-1.603-.472-2.467-.622,1.273-1.566,2.012-3.691,2.012-5.349,0-3.309-2.691-6-6-6s-6,2.691-6,6c0,1.657.739,3.783,2.012,5.349-.864.15-1.717.353-2.467.622-1.155.414-2.021,1.323-2.378,2.495-.356,1.17-.144,2.407.584,3.392.757,1.026,1.409,2.069,1.988,3.142h-.239c-.828,0-1.5.671-1.5,1.5s.672,1.5,1.5,1.5h13c.828,0,1.5-.671,1.5-1.5s-.672-1.5-1.5-1.5h-.239c.579-1.073,1.231-2.116,1.988-3.142.728-.985.94-2.222.584-3.393ZM12,3c1.654,0,3,1.346,3,3,0,1.859-1.552,4.5-3,4.5s-3-2.641-3-4.5c0-1.654,1.346-3,3-3Zm-2.904,18c-.802-1.713-1.759-3.336-2.931-4.924-.218-.294-.174-.588-.128-.737.046-.15.174-.42.52-.544,1.533-.549,3.839-.795,5.443-.795s3.91.246,5.443.795c.346.124.474.394.52.544.046.149.09.443-.128.738-1.172,1.587-2.129,3.21-2.931,4.923h-5.808Z"/>
</svg>
