<?xml version="1.0" encoding="UTF-8"?>
<svg xmlns="http://www.w3.org/2000/svg" id="Layer_1" data-name="Layer 1" viewBox="0 0 24 24">
  <path d="m6.5,16c-.828,0-1.5-.672-1.5-1.5s.672-1.5,1.5-1.5,1.5.672,1.5,1.5-.672,1.5-1.5,1.5Zm0-8c.828,0,1.5-.672,1.5-1.5s-.672-1.5-1.5-1.5-1.5.672-1.5,1.5.672,1.5,1.5,1.5Zm17.5-2.5v13c0,3.033-2.467,5.5-5.5,5.5H5.5c-3.033,0-5.5-2.467-5.5-5.5V5.5C0,2.467,2.467,0,5.5,0h13c3.033,0,5.5,2.467,5.5,5.5Zm-3,0c0-1.378-1.122-2.5-2.5-2.5H5.5c-1.378,0-2.5,1.122-2.5,2.5v13c0,1.378,1.122,2.5,2.5,2.5h13c1.378,0,2.5-1.122,2.5-2.5V5.5Zm-9.5,9.5h-.5c-.829,0-1.5.671-1.5,1.5s.671,1.5,1.5,1.5h.5c.829,0,1.5-.671,1.5-1.5s-.671-1.5-1.5-1.5Zm0-8h-.5c-.829,0-1.5.671-1.5,1.5s.671,1.5,1.5,1.5h.5c.829,0,1.5-.671,1.5-1.5s-.671-1.5-1.5-1.5Zm5.5,7c-1.381,0-2.5,1.119-2.5,2.5s1.119,2.5,2.5,2.5,2.5-1.119,2.5-2.5-1.119-2.5-2.5-2.5Zm-10.5-5c-1.145,0-2.112.644-2.478,1.543-.09.222.108.457.375.457h4.205c.268,0,.466-.235.375-.457-.366-.899-1.333-1.543-2.478-1.543Zm0,8c-1.145,0-2.112.644-2.478,1.543-.09.222.108.457.375.457h4.205c.268,0,.466-.235.375-.457-.366-.899-1.333-1.543-2.478-1.543Zm8.872-6.088c-.106,0-.211-.033-.3-.1-.17-.127-.241-.348-.177-.55l.47-1.413-1.189-.967c-.16-.136-.218-.357-.146-.553.072-.197.26-.328.469-.328h1.5l.531-1.49c.073-.196.26-.325.469-.325s.396.13.469.325l.531,1.49h1.5c.21,0,.398.131.47.329s.013.419-.148.554l-1.183.964.489,1.396c.067.202,0,.424-.169.553-.169.129-.4.138-.578.023l-1.377-.897-1.354.906c-.084.056-.181.084-.278.084Z"/>
</svg>
