<?xml version="1.0" encoding="UTF-8"?>
<svg xmlns="http://www.w3.org/2000/svg" id="Layer_1" data-name="Layer 1" viewBox="0 0 24 24">
  <path d="M19.532,12h-.72c-.147-.474-.376-.926-.689-1.335-.809-1.059-2.036-1.665-3.366-1.665H4.243c-1.331,0-2.558,.606-3.366,1.665C.064,11.728-.201,13.078,.151,14.37c.526,1.938,1.247,3.832,2.142,5.634,1.642,3.303,4.147,3.996,5.961,3.996h2.493c1.613,0,3.772-.554,5.385-3h2.972c2.7,0,4.896-2.217,4.896-4.942,0-2.365-1.635-3.881-4.468-4.058Zm-3.578,1.583c-.475,1.747-1.126,3.458-1.934,5.085-1.039,2.09-2.366,2.332-3.274,2.332h-2.493c-.908,0-2.236-.242-3.274-2.331-.808-1.626-1.458-3.337-1.934-5.086-.104-.382-.025-.782,.215-1.096,.236-.31,.595-.487,.983-.487H14.757c.388,0,.747,.178,.983,.487,.24,.313,.318,.714,.215,1.096Zm3.149,4.417h-1.499c.404-.983,.757-1.985,1.057-3.001l.776-.002c1.563,.1,1.563,.701,1.563,1.061,0,1.071-.851,1.942-1.896,1.942ZM5.5,2.2c0-1.215,.895-2.2,2-2.2s2,.985,2,2.2c0-1.215,.895-2.2,2-2.2s2,.985,2,2.2c0,1.73-2.256,3.757-3.38,4.659-.362,.29-.879,.29-1.24,0-1.123-.902-3.38-2.929-3.38-4.659Z"/>
</svg>
