<?xml version="1.0" encoding="UTF-8"?>
<svg xmlns="http://www.w3.org/2000/svg" id="Layer_1" data-name="Layer 1" viewBox="0 0 24 24">
  <path d="m20.697,14.025c-1.32-1.319-3.621-1.322-4.945-.005l-.411.404c-2.586-1.199-4.48-3.101-5.754-5.777l.388-.395c.661-.661,1.025-1.54,1.025-2.475s-.364-1.814-.986-2.436l-2.152-2.317c-1.309-1.309-3.583-1.326-4.908-.041,0,0-1.067.93-1.092.954C.662,3.138,0,4.758,0,6.5c0,7.523,9.977,17.5,17.5,17.5,1.743,0,3.363-.662,4.562-1.863.024-.024.954-1.091.954-1.091,1.323-1.367,1.309-3.557-.082-4.946l-2.237-2.074Zm.156,4.941c-.024.024-.948,1.083-.948,1.083-.629.613-1.481.95-2.405.95-5.51,0-14.5-8.101-14.5-14.5,0-.924.337-1.776.95-2.405,0,0,1.06-.924,1.084-.948.127-.128.276-.146.353-.146s.226.019.314.106l2.152,2.317c.127.128.146.276.146.354,0,.077-.019.226-.155.362l-1.108,1.126c-.418.425-.545,1.058-.323,1.61,1.694,4.221,4.632,7.153,8.732,8.719.55.21,1.169.079,1.587-.332,0,0,1.133-1.114,1.136-1.117.127-.128.276-.146.353-.146s.226.019.394.186l2.237,2.074c.195.195.195.512,0,.707Zm-6.559-14.473c-.267-.226-.364-.594-.243-.922.12-.328.432-.546.782-.546h2.501l.885-2.483c.121-.326.433-.542.781-.542s.66.216.781.542l.885,2.483h2.501c.35,0,.663.219.783.548.12.329.022.698-.246.923l-1.971,1.606.815,2.484c.112.336-.002.706-.282.922-.281.216-.667.231-.964.038l-2.295-1.495-2.257,1.51c-.14.094-.302.141-.464.141-.176,0-.352-.056-.5-.166-.283-.212-.401-.58-.295-.917l.784-2.513-1.981-1.612Z"/>
</svg>
