<?xml version="1.0" encoding="UTF-8"?>
<svg xmlns="http://www.w3.org/2000/svg" id="Layer_1" data-name="Layer 1" viewBox="0 0 24 24">
  <path d="M23,11C23,4.935,18.065,0,12,0S1,4.935,1,11c0,3.639,1.104,7.641,1.876,10h-.376c-.829,0-1.5,.672-1.5,1.5s.671,1.5,1.5,1.5h2.47s0,0,.001,0h3.527c.769,0,1.483-.345,1.96-.947,.477-.601,.649-1.373,.474-2.118-.095-.409-.216-.9-.35-1.449-.592-2.417-1.583-6.463-1.583-8.485,0-1.654,1.346-3,3-3s3,1.346,3,3c0,2.022-.991,6.068-1.583,8.485-.134,.549-.255,1.04-.35,1.447-.175,.747-.002,1.52,.474,2.12,.477,.603,1.191,.947,1.96,.947h5.999c.829,0,1.5-.672,1.5-1.5s-.671-1.5-1.5-1.5h-.376c.63-1.923,1.876-6.308,1.876-10Zm-5.447-2.265l1.655-1.182c.502,1.046,.792,2.212,.792,3.448h-2c0-.802-.161-1.566-.447-2.265Zm-11.553,2.265h-2c0-1.236,.29-2.402,.792-3.448l1.655,1.182c-.286,.7-.447,1.464-.447,2.265Zm.046,10c-.49-1.392-1.37-4.144-1.798-7h2.063c.342,2.041,.903,4.34,1.359,6.199,.069,.283,.135,.552,.195,.801h-1.819Zm2.196-14.671l-1.668-1.191c1.078-.998,2.426-1.706,3.926-1.992v2.051c-.837,.216-1.604,.605-2.258,1.132Zm5.258-1.132V3.146c1.5,.286,2.848,.994,3.926,1.992l-1.668,1.191c-.654-.527-1.421-.915-2.258-1.132Zm2.635,15.803c.06-.249,.126-.517,.195-.801,.456-1.859,1.017-4.159,1.359-6.199h2.063c-.428,2.856-1.309,5.608-1.798,7h-1.819Z"/>
</svg>
