<?xml version="1.0" encoding="UTF-8"?>
<svg xmlns="http://www.w3.org/2000/svg" id="Layer_1" data-name="Layer 1" viewBox="0 0 24 24">
  <path d="M21,12.478c0-2.236-1.589-4.177-3.778-4.614-1.086-.217-1.979-.909-2.446-1.9-1.021-2.151-3.304-3.304-5.677-2.872-2.075,.38-3.767,2.104-4.114,4.194-.106,.639-.1,1.274,.02,1.888,.219,1.13-.198,2.335-1.088,3.145-.59,.536-.916,1.271-.916,2.068,0,.13,.011,.258,.03,.384,.127,.818-.434,1.586-1.252,1.713-.801,.129-1.589-.429-1.713-1.252-.295-1.886,.416-3.853,1.832-5.133,.115-.104,.181-.25,.161-.353-.188-.967-.199-1.959-.034-2.952C2.583,3.428,5.209,.754,8.558,.14c3.672-.665,7.343,1.195,8.93,4.539,.06,.128,.174,.213,.321,.243,3.588,.716,6.191,3.894,6.191,7.556,0,.828-.672,1.5-1.5,1.5s-1.5-.672-1.5-1.5Zm-2,.022v3c0,1.381-1.119,2.5-2.5,2.5s-2.5-1.119-2.5-2.5v-3c0-1.381,1.119-2.5,2.5-2.5s2.5,1.119,2.5,2.5Zm-1.6,0c0-.496-.404-.9-.9-.9s-.9,.404-.9,.9v3c0,.496,.404,.9,.9,.9s.9-.404,.9-.9v-3Zm-6.963-.895c.374-.025,.705,.181,.863,.489,.132,.258,.409,.409,.699,.409,.606,0,.989-.647,.703-1.181-.414-.771-1.222-1.3-2.154-1.317-1.401-.027-2.547,1.154-2.547,2.555v2.886c0,1.401,1.146,2.581,2.547,2.555,.932-.018,1.74-.546,2.154-1.317,.287-.534-.097-1.181-.703-1.181-.29,0-.567,.151-.699,.409-.158,.308-.488,.514-.863,.488-.478-.032-.838-.45-.838-.929v-2.936c0-.479,.36-.897,.838-.929Zm13.563,5.395c0-1.129-.935-2.039-2.073-1.999-.931,.033-1.684,.719-1.878,1.599-.002,.009-.004,.02-.006,.032-.057,.369,.233,.702,.607,.702h0c.356,0,.657-.247,.748-.592,.005-.018,.01-.032,.015-.042,.109-.21,.318-.359,.566-.366,.378-.011,.687,.291,.687,.666,0,1-2.667,1.84-2.667,3.346,0,.361,.293,.654,.654,.654h2.692c.361,0,.654-.293,.654-.654v-.025c0-.361-.293-.654-.654-.654h-1.346c.575-.526,2-1.244,2-2.667Zm-15.437,2.001h-1.563v-2.501c0-.828-.671-1.5-1.5-1.5s-1.5,.672-1.5,1.5v2.501h-1.563c-.863,0-1.295,1.043-.685,1.653l3.063,3.063c.378,.378,.991,.378,1.369,0l3.063-3.063c.61-.61,.178-1.653-.685-1.653Z"/>
</svg>
