<?xml version="1.0" encoding="UTF-8"?>
<svg xmlns="http://www.w3.org/2000/svg" id="Layer_1" data-name="Layer 1" viewBox="0 0 24 24">
  <path d="m11,0c-3.309,0-6,2.691-6,6s2.691,6,6,6,6-2.691,6-6S14.309,0,11,0Zm0,9c-1.654,0-3-1.346-3-3s1.346-3,3-3,3,1.346,3,3-1.346,3-3,3Zm2.97,6.948c-.164.813-.962,1.336-1.768,1.172-.394-.08-.798-.12-1.202-.12-3.15,0-5.78,2.459-5.986,5.598-.053.793-.712,1.402-1.495,1.402-.033,0-.066,0-.101-.003-.826-.054-1.452-.768-1.398-1.595.31-4.711,4.254-8.402,8.98-8.402.604,0,1.209.061,1.798.18.812.165,1.337.956,1.172,1.768Zm7.53,6.366v.687c0,.829-.672,1.5-1.5,1.5s-1.5-.671-1.5-1.5v-.585c-.955-.206-1.8-.8-2.299-1.663-.414-.717-.169-1.635.548-2.049.716-.415,1.634-.169,2.05.547.091.157.253.25.434.25h1.181c.323,0,.587-.263.587-.587,0-.242-.145-.456-.369-.545l-2.376-.95c-1.37-.548-2.255-1.855-2.255-3.331,0-1.597,1.056-2.937,2.5-3.4v-.687c0-.829.672-1.5,1.5-1.5s1.5.671,1.5,1.5v.585c.955.206,1.8.801,2.299,1.664.414.717.169,1.635-.548,2.049-.717.414-1.635.17-2.05-.547-.091-.157-.253-.251-.434-.251h-1.181c-.323,0-.587.263-.587.587,0,.242.145.456.369.545l2.376.95c1.37.548,2.255,1.855,2.255,3.331,0,1.597-1.056,2.937-2.5,3.4Z"/>
</svg>
