<?xml version="1.0" encoding="UTF-8"?>
<svg xmlns="http://www.w3.org/2000/svg" id="Layer_1" data-name="Layer 1" viewBox="0 0 24 24">
  <path d="m9,22.5c0,.828-.672,1.5-1.5,1.5h-2c-3.032,0-5.5-2.468-5.5-5.5V5.5C0,2.468,2.468,0,5.5,0h7c3.032,0,5.5,2.468,5.5,5.5v3c0,.828-.672,1.5-1.5,1.5s-1.5-.672-1.5-1.5v-3c0-1.379-1.121-2.5-2.5-2.5h-7c-1.379,0-2.5,1.121-2.5,2.5v13c0,1.379,1.121,2.5,2.5,2.5h2c.828,0,1.5.672,1.5,1.5ZM6.5,5c-.828,0-1.5.672-1.5,1.5s.672,1.5,1.5,1.5,1.5-.672,1.5-1.5-.672-1.5-1.5-1.5Zm3.5,1.5c0,.828.672,1.5,1.5,1.5s1.5-.672,1.5-1.5-.672-1.5-1.5-1.5-1.5.672-1.5,1.5Zm-3.5,3.5c-.828,0-1.5.672-1.5,1.5s.672,1.5,1.5,1.5,1.5-.672,1.5-1.5-.672-1.5-1.5-1.5Zm6.5,1.5c0-.828-.672-1.5-1.5-1.5s-1.5.672-1.5,1.5.672,1.5,1.5,1.5,1.5-.672,1.5-1.5Zm-6.5,3.5c-.828,0-1.5.672-1.5,1.5s.672,1.5,1.5,1.5,1.5-.672,1.5-1.5-.672-1.5-1.5-1.5Zm17.5,2.5v3c0,1.93-1.57,3.5-3.5,3.5h-6c-1.93,0-3.5-1.57-3.5-3.5v-3c0-1.758,1.308-3.204,3-3.449v-.051c0-1.103.897-2,2-2h3c1.103,0,2,.897,2,2v.051c1.692.245,3,1.691,3,3.449Zm-3,0c0-.275-.225-.5-.5-.5h-1.5v.5c0,.828-.672,1.5-1.5,1.5s-1.5-.672-1.5-1.5v-.5h-1.5c-.275,0-.5.225-.5.5v3c0,.275.225.5.5.5h6c.275,0,.5-.225.5-.5v-3Z"/>
</svg>
