<?xml version="1.0" encoding="UTF-8"?>
<svg xmlns="http://www.w3.org/2000/svg" id="Layer_1" data-name="Layer 1" viewBox="0 0 24 24">
  <path d="m24,22.5c0,.828-.671,1.5-1.5,1.5H5.5c-3.033,0-5.5-2.468-5.5-5.5V1.5C0,.672.671,0,1.5,0s1.5.672,1.5,1.5v12.085c2.874-5.056,8.532-8.585,14.879-8.585h1.121v-1.563c0-.863,1.043-1.295,1.653-.685l3.063,3.063c.378.378.378.991,0,1.369l-3.063,3.063c-.61.61-1.653.178-1.653-.685v-1.563h-1.121c-7.218,0-13.553,5.793-13.851,12.511.414.304.92.489,1.472.489h17c.829,0,1.5.672,1.5,1.5Z"/>
</svg>
