<?xml version="1.0" encoding="UTF-8"?>
<svg xmlns="http://www.w3.org/2000/svg" id="Layer_1" data-name="Layer 1" viewBox="0 0 24 24">
  <path d="M22.74,8.962l-5.995-5.971c-.964-.965-2.401-1.252-3.663-.734-1.26,.519-2.078,1.735-2.083,3.104v1.639h-1.5c-1.93,0-3.5,1.57-3.5,3.5v3c0,1.93,1.57,3.5,3.5,3.5h1.5v1.646c.006,1.363,.825,2.578,2.085,3.097,.416,.172,.852,.255,1.283,.255,.875,0,1.731-.342,2.375-.986l5.998-5.972s.001,0,.002-.002c1.673-1.675,1.672-4.399-.003-6.076Zm-2.119,3.955l-5.998,5.972c-.115,.116-.247,.142-.397,.08-.149-.062-.225-.175-.226-.329v-3.14c0-.828-.671-1.5-1.5-1.5h-3c-.271,0-.5-.229-.5-.5v-3c0-.276,.224-.5,.5-.5h3c.829,0,1.5-.671,1.5-1.5v-3.133c0-.162,.076-.275,.225-.336,.15-.062,.283-.034,.4,.083l5.995,5.971c.505,.505,.505,1.328,0,1.833Zm-11.621,9.583c0,.828-.671,1.5-1.5,1.5h-2.5c-2.757,0-5-2.243-5-5V5C0,2.243,2.243,0,5,0h2.5c.829,0,1.5,.671,1.5,1.5s-.671,1.5-1.5,1.5h-2.5c-1.103,0-2,.897-2,2v14c0,1.103,.897,2,2,2h2.5c.829,0,1.5,.672,1.5,1.5Z"/>
</svg>
