<?xml version="1.0" encoding="UTF-8"?>
<svg xmlns="http://www.w3.org/2000/svg" id="Layer_1" data-name="Layer 1" viewBox="0 0 24 24">
  <path d="M19.4,18c0,.772-.628,1.4-1.4,1.4s-1.4-.628-1.4-1.4,.628-1.4,1.4-1.4,1.4,.628,1.4,1.4Zm4.6,0c0,3.314-2.686,6-6,6s-6-2.686-6-6,2.686-6,6-6,6,2.686,6,6Zm-3.4-1.469l.65-.65c.312-.312,.312-.819,0-1.132-.312-.312-.819-.312-1.131,0l-.65,.65c-.436-.247-.932-.4-1.469-.4s-1.033,.153-1.469,.4l-.65-.65c-.312-.312-.819-.312-1.131,0-.313,.312-.313,.819,0,1.132l.65,.65c-.247,.436-.4,.932-.4,1.469s.153,1.033,.4,1.469l-.65,.65c-.312,.312-.312,.819,0,1.132,.312,.312,.819,.312,1.131,0l.65-.65c.436,.247,.932,.4,1.469,.4s1.033-.153,1.469-.4l.65,.65c.312,.312,.819,.312,1.131,0,.313-.312,.313-.819,0-1.132l-.65-.65c.247-.436,.4-.932,.4-1.469s-.153-1.033-.4-1.469ZM22.784,0h-4.914c-.774,0-1.162,.936-.615,1.484l1.569,1.569-2.732,2.732c-.317,.316-.869,.316-1.187,0l-2.692-2.692c-1.496-1.497-3.933-1.497-5.429,0L.439,9.439c-.586,.585-.586,1.536,0,2.121,.293,.293,.677,.439,1.061,.439s.768-.146,1.061-.439l6.346-6.346c.327-.327,.859-.327,1.187,0l2.692,2.692c1.496,1.497,3.933,1.497,5.429,0l2.732-2.732,1.569,1.569c.548,.548,1.484,.16,1.484-.615V1.216c0-.671-.544-1.216-1.216-1.216ZM2.5,14c-.829,0-1.5,.672-1.5,1.5v7c0,.828,.671,1.5,1.5,1.5s1.5-.672,1.5-1.5v-7c0-.828-.671-1.5-1.5-1.5Zm5-4c-.829,0-1.5,.671-1.5,1.5v11c0,.828,.671,1.5,1.5,1.5s1.5-.672,1.5-1.5V11.5c0-.829-.671-1.5-1.5-1.5Z"/>
</svg>
