<?xml version="1.0" encoding="utf-8"?>
<!-- Generator: Adobe Illustrator 26.5.3, SVG Export Plug-In . SVG Version: 6.00 Build 0)  -->
<svg xmlns="http://www.w3.org/2000/svg" xmlns:xlink="http://www.w3.org/1999/xlink" version="1.1" id="Layer_1" x="0px" y="0px" viewBox="0 0 24 24" style="enable-background:new 0 0 24 24;" xml:space="preserve">
<path d="M23,7.7C22,6.3,20.7,5.4,19,5.1C18.8,5,18.5,5,18.3,5c-0.6-1.7-1.7-3-2.6-3.7c-1.3-1-2.8-1.4-4.2-1.2c-1.6,0.3-3,1.1-4,2.5  C7.1,3,6.8,3.6,6.6,4.3C5.1,4.4,3.8,4.7,2.8,5.3C1.5,6.1,0.5,7.5,0.3,9c-0.3,1.6,0.1,3.3,1,4.6c0.3,0.5,0.7,0.9,1.2,1.3  c-0.6,1.8-0.7,3.6-0.3,5c0.5,1.6,1.5,2.8,2.8,3.5c1.5,0.7,3.2,0.8,4.7,0.3c0.6-0.2,1.3-0.6,1.9-1.1c1.6,0.9,3.1,1.4,4.4,1.4  c1.6,0,3.1-0.6,4.1-1.6c1.2-1.2,1.8-2.7,1.8-4.4c0-0.7-0.1-1.4-0.4-2.1c1.3-1.3,2-2.7,2.2-3.8C24,10.4,23.7,8.9,23,7.7L23,7.7z   M11.9,3c1.7-0.1,2.8,1.2,3.6,3.1c0,0.1-0.1,0.2-0.1,0.4c-1.8-1-3.8-1.7-5.7-2C10.2,3.6,11,3.1,11.9,3L11.9,3z M3.2,9.5  c0.4-1.9,2.4-2.4,4.4-2.3C6.1,8.6,4.7,10.3,3.8,12C3.3,11.3,3.1,10.4,3.2,9.5L3.2,9.5z M8.8,20.9c-1.5,0.5-3.2-0.1-3.7-1.8  c-0.3-0.9-0.1-2.3,0.5-3.9c0.8,2.3,2,4.1,3.5,5.5C9,20.8,8.9,20.8,8.8,20.9z M9.4,14c-0.6,0-1.1-0.4-1.2-0.9  C7.7,10.7,9.7,8.4,12,8.5c0.2,0,0.4,0,0.6,0.1c-1.5,0.8-2.3,2.5-2.1,4.2C10.5,13.4,10,14,9.4,14z M11.2,16.5  c1.6-0.8,2.4-2.5,2.3-4.3c0-0.7,0.5-1.2,1.2-1.2c1.3,0,1.3,1.4,1.3,1.6c0,2.2-1.8,4-3.9,4C11.7,16.5,11.4,16.5,11.2,16.5z   M17.9,20.3c-1.7,1.3-3.4,0.6-5.7-0.9c0.2,0,0.4,0,0.6,0c2.5-0.1,4.5-0.7,6.1-1.6C19,18.8,18.6,19.7,17.9,20.3z M20.8,11.5  c-0.1,0.6-0.8,1.9-2.2,3c0.4-1.2,0.4-2.6,0-3.9c0.2-0.9,0.3-1.7,0.3-2.6c0.7,0.2,1.2,0.7,1.6,1.3C20.8,9.8,20.9,10.6,20.8,11.5  L20.8,11.5z"/>
</svg>
