<?xml version="1.0" encoding="UTF-8"?>
<svg xmlns="http://www.w3.org/2000/svg" id="Layer_1" data-name="Layer 1" viewBox="0 0 24 24">
  <path d="m22.315,7.836l-1.315-1.283v-2.553c0-2.206-1.794-4-4-4H7C4.794,0,3,1.794,3,4v2.56l-1.306,1.267c-1.077,1.032-1.694,2.48-1.694,3.972v6.702c0,3.033,2.468,5.5,5.5,5.5h13c3.032,0,5.5-2.467,5.5-5.5v-6.702c0-1.492-.617-2.939-1.685-3.962ZM6,4c0-.551.448-1,1-1h10c.552,0,1,.449,1,1v6.958l-4.219,4.296c-.963.962-2.604.957-3.549.015l-4.232-4.233v-7.035Zm12.5,17H5.5c-1.379,0-2.5-1.122-2.5-2.5v-6.222l5.112,5.113c1.039,1.038,2.42,1.609,3.888,1.609s2.854-.577,3.912-1.634l5.088-5.181v6.316c0,1.378-1.121,2.5-2.5,2.5Zm-8.2-9.4c-1.819,0-3.3-1.48-3.3-3.3s1.48-3.3,3.3-3.3h4.65c1.131,0,2.05.919,2.05,2.05s-.919,2.05-2.05,2.05h-4.14c-.441,0-.8-.358-.8-.8s.358-.8.8-.8h4.14c.248,0,.45-.202.45-.45s-.202-.45-.45-.45h-4.65c-.938,0-1.7.763-1.7,1.7s.763,1.7,1.7,1.7h3.899c.441,0,.8.358.8.8s-.358.8-.8.8h-3.899Z"/>
</svg>
