<?xml version="1.0" encoding="UTF-8"?>
<svg xmlns="http://www.w3.org/2000/svg" id="Layer_1" data-name="Layer 1" viewBox="0 0 24 24">
  <path d="m9.42,18.012c-.139-.008-.279-.012-.42-.012-3.145,0-5.619,1.938-6.015,4.712-.107.748-.749,1.288-1.483,1.288-.071,0-.142-.005-.214-.015-.82-.117-1.39-.877-1.273-1.697.613-4.291,4.308-7.288,8.985-7.288.195,0,.388.006.58.016.828.044,1.462.751,1.418,1.578-.044.827-.762,1.453-1.578,1.418ZM1,6.5c0-.828.671-1.5,1.5-1.5h.5C3,2.407,4.973.276,7.5.025v2.475c0,.828.672,1.5,1.5,1.5s1.5-.672,1.5-1.5V.025c2.527.251,4.5,2.383,4.5,4.975h.5c.828,0,1.5.672,1.5,1.5s-.672,1.5-1.5,1.5h-.5c0,3.309-2.691,6-6,6s-6-2.691-6-6h-.5c-.829,0-1.5-.672-1.5-1.5Zm11,1.5h-6c0,1.654,1.346,3,3,3s3-1.346,3-3Zm10.5,13h-3c-.828,0-1.5.672-1.5,1.5s.672,1.5,1.5,1.5h3c.828,0,1.5-.672,1.5-1.5s-.672-1.5-1.5-1.5Zm-3-7h3c.828,0,1.5-.672,1.5-1.5s-.672-1.5-1.5-1.5h-3c-.828,0-1.5.672-1.5,1.5s.672,1.5,1.5,1.5Zm-5,7h-3c-.829,0-1.5.672-1.5,1.5s.671,1.5,1.5,1.5h3c.828,0,1.5-.672,1.5-1.5s-.672-1.5-1.5-1.5Zm2-5h-2c-.828,0-1.5.672-1.5,1.5s.672,1.5,1.5,1.5h2c.828,0,1.5-.672,1.5-1.5s-.672-1.5-1.5-1.5Zm6,0h-1c-.828,0-1.5.672-1.5,1.5s.672,1.5,1.5,1.5h1c.828,0,1.5-.672,1.5-1.5s-.672-1.5-1.5-1.5Z"/>
</svg>
