<?xml version="1.0" encoding="UTF-8"?>
<svg xmlns="http://www.w3.org/2000/svg" id="Layer_1" data-name="Layer 1" viewBox="0 0 24 24">
  <path d="M22.385,6.615c-.925-.926-2.124-1.456-3.407-1.568-.232-2.821-2.597-5.047-5.477-5.047H5.5c-1.465,0-2.846,.574-3.887,1.615C.573,2.656,0,4.037,0,5.502l.004,11.622c-.025,1.29,1.363,2.239,2.551,1.739l3.521-1.477c.426,2.611,2.692,4.613,5.422,4.613h5.5l4.443,1.863c1.188,.5,2.576-.45,2.551-1.738l.005-11.623c0-1.465-.573-2.846-1.614-3.887ZM6.698,14c-.199,0-.396,.04-.58,.117l-3.113,1.306-.004-9.922c0-.664,.261-1.291,.735-1.765,.475-.475,1.102-.736,1.765-.736H13.501c1.378,0,2.5,1.122,2.5,2.5v.991s0,.006,0,.009,0,.006,0,.009v4.991c0,1.379-1.122,2.5-2.501,2.5H6.698Zm14.296,6.423l-3.113-1.306c-.184-.077-.381-.117-.58-.117h-5.802c-1.208,0-2.218-.861-2.45-2h4.451c3.032,0,5.5-2.467,5.5-5.5h0s0-3.448,0-3.448c.473,.097,.91,.331,1.262,.684,.474,.475,.735,1.102,.735,1.765l-.004,9.922ZM8.983,6.973c-.137-1.136-1.135-1.973-2.279-1.973h-1.228c-.618,0-.976,.358-.976,.8v5.4c0,.442,.358,.8,.8,.8s.8-.358,.8-.8v-1.7h.413l.718,1.973c.115,.316,.416,.527,.752,.527,.555,0,.942-.552,.752-1.074l-.674-1.853c.636-.458,1.028-1.235,.923-2.1Zm-2.233,.927h-.65v-1.3h.65c.358,0,.65,.292,.65,.65s-.292,.65-.65,.65Zm5.268,4.088c-1.171-.117-2.018-1.19-2.018-2.367v-3.822c0-.442,.358-.8,.8-.8h0c.442,0,.8,.358,.8,.8v3.95c0,.358,.292,.65,.65,.65s.65-.292,.65-.65v-3.95c0-.442,.358-.8,.8-.8h0c.442,0,.8,.358,.8,.8v3.95c0,1.319-1.135,2.373-2.482,2.238Z"/>
</svg>
