<?xml version="1.0" encoding="UTF-8"?>
<svg xmlns="http://www.w3.org/2000/svg" id="Layer_1" data-name="Layer 1" viewBox="0 0 24 24">
  <path d="m6,0C2.691,0,0,2.691,0,6s2.691,6,6,6,6-2.691,6-6S9.309,0,6,0Zm0,2c1.105,0,2,.895,2,2s-.895,2-2,2-2-.895-2-2,.895-2,2-2Zm0,8c-1.181,0-2.233-.524-2.966-1.34.618-.993,1.71-1.66,2.966-1.66s2.348.667,2.966,1.66c-.733.816-1.784,1.34-2.966,1.34Zm12,2c-3.309,0-6,2.691-6,6s2.691,6,6,6,6-2.691,6-6-2.691-6-6-6Zm0,2c1.105,0,2,.895,2,2s-.895,2-2,2-2-.895-2-2,.895-2,2-2Zm0,8c-1.181,0-2.233-.524-2.966-1.34.618-.993,1.71-1.66,2.966-1.66s2.348.667,2.966,1.66c-.733.816-1.784,1.34-2.966,1.34ZM14,4.5c0-.829.672-1.5,1.5-1.5h.5c2.757,0,5,2.243,5,5v.5c0,.829-.672,1.5-1.5,1.5s-1.5-.671-1.5-1.5v-.5c0-1.103-.897-2-2-2h-.5c-.828,0-1.5-.671-1.5-1.5Zm-4,15c0,.829-.672,1.5-1.5,1.5h-.5c-2.757,0-5-2.243-5-5v-.5c0-.829.672-1.5,1.5-1.5s1.5.671,1.5,1.5v.5c0,1.103.897,2,2,2h.5c.828,0,1.5.671,1.5,1.5Z"/>
</svg>
