<?xml version="1.0" encoding="UTF-8"?>
<svg xmlns="http://www.w3.org/2000/svg" id="Layer_1" data-name="Layer 1" viewBox="0 0 24 24">
  <path d="M10.683,14c-.433,.91-.683,1.925-.683,3,0,.34,.033,.673,.08,1H1.846c-1.02,0-1.846-.827-1.846-1.846v-1.154c0-1.105,.895-2,2-2V5.5C2,2.467,4.467,0,7.5,0h9c3.033,0,5.5,2.467,5.5,5.5v4c0,.829-.671,1.5-1.5,1.5s-1.5-.671-1.5-1.5V5.5c0-1.378-1.122-2.5-2.5-2.5H7.5c-1.378,0-2.5,1.122-2.5,2.5v7.5h3.308l.923,1h1.452Zm12.878,9.561c-.293,.293-.677,.439-1.061,.439s-.768-.146-1.061-.439l-2.145-2.145c-.691,.361-1.463,.584-2.295,.584-2.757,0-5-2.243-5-5s2.243-5,5-5,5,2.243,5,5c0,.831-.223,1.604-.584,2.295l2.145,2.145c.586,.585,.586,1.536,0,2.121Zm-4.561-6.561c0-1.103-.897-2-2-2s-2,.897-2,2,.897,2,2,2,2-.897,2-2Z"/>
</svg>
