<?xml version="1.0" encoding="UTF-8"?>
<svg xmlns="http://www.w3.org/2000/svg" id="Layer_1" data-name="Layer 1" viewBox="0 0 24 24">
  <path d="M18,12c-3.314,0-6,2.686-6,6s2.686,6,6,6,6-2.686,6-6-2.686-6-6-6Zm2.731,7.493h0s-1.911,3.076-1.911,3.076c-.311,.45-.926,.566-1.379,.261-.462-.311-.58-.941-.262-1.398l1.471-2.429h-2.035c-.509,0-.994-.244-1.297-.652-.303-.409-.462-.969-.249-1.431,.314-.68,1.451-2.565,2.08-3.48,.315-.458,.937-.576,1.399-.268,.463,.309,.591,.933,.287,1.4l-1.469,2.431h2.029c.592,0,1.133,.324,1.413,.846,.28,.522,.25,1.151-.077,1.645ZM4,8v3c0,2.481,2.019,4.5,4.5,4.5,.828,0,1.5,.671,1.5,1.5v5.5c0,.829-.672,1.5-1.5,1.5s-1.5-.671-1.5-1.5v-4.151c-3.419-.697-6-3.727-6-7.349v-3.092c-.581-.207-1-.756-1-1.408,0-.829,.672-1.5,1.5-1.5h2.5V1.5c0-.829,.672-1.5,1.5-1.5s1.5,.671,1.5,1.5v3.5h3V1.5c0-.829,.672-1.5,1.5-1.5s1.5,.671,1.5,1.5v3.5h2.5c.828,0,1.5,.671,1.5,1.5,0,.652-.419,1.201-1,1.408v1.592c0,.829-.672,1.5-1.5,1.5s-1.5-.671-1.5-1.5v-1.5H4Z"/>
</svg>
