<?xml version="1.0" encoding="UTF-8"?>
<svg xmlns="http://www.w3.org/2000/svg" id="Layer_1" data-name="Layer 1" viewBox="0 0 24 24">
  <path d="M17.308,14.034c.395,.893-.006,1.927-.888,2.316-.468,.206-.997,.198-1.451-.02-.316-.187-2.968-1.549-2.968-1.549,0,0-2.964,1.516-3.149,1.61-.559,.232-1.3,.087-1.798-.414-.52-.533-.654-1.305-.359-1.948,.001-.003,3.734-7.03,3.734-7.03,.653-1.305,2.51-1.311,3.171-.01,0,0,3.032,5.476,3.71,7.045Zm6.692-2.034c0,6.617-5.383,12-12,12S0,18.617,0,12,5.383,0,12,0s12,5.383,12,12Zm-3,0c0-4.962-4.037-9-9-9S3,7.038,3,12s4.037,9,9,9,9-4.038,9-9Z"/>
</svg>
