<?xml version="1.0" encoding="UTF-8"?>
<svg xmlns="http://www.w3.org/2000/svg" id="Layer_1" data-name="Layer 1" viewBox="0 0 24 24">
  <path d="m9.746,21.599c-.4.816-1.232,1.382-2.198,1.4-1.401.027-2.548-1.154-2.548-2.556v-2.888c0-1.409,1.14-2.583,2.548-2.556.933.018,1.741.546,2.155,1.318.287.534-.097,1.182-.706,1.182-.291,0-.567-.171-.705-.427-.161-.298-.486-.496-.854-.471-.489.033-.855.47-.838.963.028.791.028,2.079,0,2.869-.018.493.349.931.838.963.367.025.691-.172.853-.469.14-.257.47-.428.762-.428.565,0,.941.592.693,1.099Zm5.187-2.055c.024-.014.753,2.423.753,2.423.156.514-.228,1.033-.765,1.033h-.063c-.356,0-.669-.235-.768-.577l-.705-2.423h-.784v2.2c0,.442-.358.8-.8.8h0c-.442,0-.8-.358-.8-.8v-6.2c0-.552.448-1,1-1h1.367c1.284,0,2.456.908,2.613,2.182.121.976-.324,1.854-1.047,2.362Zm-.533-2.044c0-.496-.404-.9-.9-.9h-.9v1.8h.9c.496,0,.9-.404.9-.9Zm9.6-12v6c0,.829-.672,1.5-1.5,1.5s-1.5-.671-1.5-1.5v-3.5H3v13.5c0,.828-.672,1.5-1.5,1.5s-1.5-.672-1.5-1.5V5.5C0,3.015,2.015,1,4.5,1h15c2.485,0,4.5,2.015,4.5,4.5Zm-18-1c0-.828-.672-1.5-1.5-1.5s-1.5.672-1.5,1.5.672,1.5,1.5,1.5,1.5-.672,1.5-1.5Zm5,0c0-.828-.672-1.5-1.5-1.5s-1.5.672-1.5,1.5.672,1.5,1.5,1.5,1.5-.672,1.5-1.5Zm11.505,10.5c-.342,0-.66.242-.841.64l-1.164,2.56-1.164-2.56c-.181-.398-.499-.64-.841-.64-.516,0-.945.295-.988,1l-.445,6.142c-.034.463.333.858.798.858.419,0,.768-.324.798-.742l.265-3.66.848,1.866c.284.625,1.172.625,1.457,0l.848-1.866.265,3.66c.03.418.379.742.798.742.465,0,.831-.394.798-.858l-.445-6.142c-.043-.705-.472-1-.988-1Z"/>
</svg>
