<?xml version="1.0" encoding="UTF-8"?>
<svg xmlns="http://www.w3.org/2000/svg" id="Layer_1" data-name="Layer 1" viewBox="0 0 24 24">
  <path d="m16.413,9h.861c.123.844.843,1.494,1.722,1.494s1.598-.65,1.722-1.494h.868c.746,0,1.438-.33,1.898-.905.449-.561.617-1.282.46-1.979l-.559-2.5c-.504-2.264-2.143-3.616-4.384-3.616-2.228,0-3.865,1.349-4.382,3.608-.187.819-.403,1.789-.564,2.511-.155.697.014,1.417.462,1.977.461.574,1.152.904,1.896.904Zm1.13-4.724c.257-1.125.881-1.276,1.457-1.276.58,0,1.207.151,1.456,1.269l.387,1.731h-3.688c.125-.562.264-1.177.389-1.724Zm3.154,9.749c-1.32-1.32-3.621-1.323-4.943-.006l-.412.405c-2.587-1.199-4.481-3.1-5.755-5.777l.388-.395c.661-.661,1.025-1.54,1.025-2.475s-.364-1.814-.986-2.434l-2.152-2.318c-1.309-1.308-3.583-1.325-4.908-.042,0,0-1.067.93-1.091.955C.662,3.137,0,4.757,0,6.5c0,7.523,9.977,17.5,17.5,17.5,1.743,0,3.363-.662,4.562-1.863.024-.024.955-1.091.955-1.091.635-.656.984-1.517.984-2.433,0-.935-.364-1.814-1.066-2.514l-2.237-2.074Zm.156,4.941c-.024.024-.948,1.084-.948,1.084-.629.612-1.481.949-2.405.949-5.51,0-14.5-8.101-14.5-14.5,0-.924.337-1.776.949-2.405,0,0,1.06-.924,1.084-.948.127-.127.276-.146.353-.146s.226.019.314.106l2.152,2.319c.127.127.146.276.146.353s-.019.226-.156.362l-1.108,1.127c-.418.425-.544,1.058-.322,1.611,1.694,4.22,4.632,7.153,8.732,8.717.549.209,1.169.079,1.586-.332l1.127-1.108s.006-.006.009-.009c.127-.127.276-.146.353-.146s.226.019.394.186l2.237,2.075c.127.127.146.276.146.353s-.019.226-.146.353Z"/>
</svg>
