<?xml version="1.0" encoding="UTF-8"?>
<svg xmlns="http://www.w3.org/2000/svg" id="Layer_1" data-name="Layer 1" viewBox="0 0 24 24">
  <path d="M18,12c-3.314,0-6,2.686-6,6s2.686,6,6,6,6-2.686,6-6-2.686-6-6-6Zm2.5,7h-1.5v1.5c0,.553-.447,1-1,1s-1-.447-1-1v-1.5h-1.5c-.553,0-1-.447-1-1s.447-1,1-1h1.5v-1.5c0-.553,.447-1,1-1s1,.447,1,1v1.5h1.5c.553,0,1,.447,1,1s-.447,1-1,1Zm3.5-11.5v2c0,.829-.672,1.5-1.5,1.5s-1.5-.671-1.5-1.5v-2c0-.171-.018-.338-.051-.5H3v9.5c0,1.379,1.122,2.5,2.5,2.5h3c.829,0,1.5,.672,1.5,1.5s-.671,1.5-1.5,1.5h-3c-3.033,0-5.5-2.468-5.5-5.5V5.5C0,2.467,2.467,0,5.5,0h2.528c.54,0,1.081,.127,1.564,.369l3.156,1.579c.068,.034,.146,.053,.224,.053h5.528c3.032,0,5.5,2.467,5.5,5.5Z"/>
</svg>
