<?xml version="1.0" encoding="UTF-8"?>
<svg xmlns="http://www.w3.org/2000/svg" id="Layer_1" data-name="Layer 1" viewBox="0 0 24 24">
  <path d="m3,12.5c0,.828-.671,1.5-1.5,1.5s-1.5-.672-1.5-1.5c0-2.481,2.019-4.5,4.5-4.5s4.5,2.019,4.5,4.5c0,.828-.671,1.5-1.5,1.5s-1.5-.672-1.5-1.5-.673-1.5-1.5-1.5-1.5.673-1.5,1.5Zm1.5-6.5c1.657,0,3-1.343,3-3S6.157,0,4.5,0,1.5,1.343,1.5,3s1.343,3,3,3Zm15,2c-2.481,0-4.5,2.019-4.5,4.5,0,.828.671,1.5,1.5,1.5s1.5-.672,1.5-1.5.673-1.5,1.5-1.5,1.5.673,1.5,1.5.671,1.5,1.5,1.5,1.5-.672,1.5-1.5c0-2.481-2.019-4.5-4.5-4.5Zm0-2c1.657,0,3-1.343,3-3s-1.343-3-3-3-3,1.343-3,3,1.343,3,3,3Zm.628,8.908c-.328-.328-.86-.328-1.188,0l-2.658,2.658c-.529.529-.154,1.434.594,1.434h1.125v.548c0,.827-.673,1.5-1.5,1.5H7.5c-.827,0-1.5-.673-1.5-1.5v-3.048c0-.828-.671-1.5-1.5-1.5s-1.5.672-1.5,1.5v3.048c0,2.481,2.019,4.5,4.5,4.5h9c2.481,0,4.5-2.019,4.5-4.5v-.548h1.192c.749,0,1.123-.905.594-1.434l-2.658-2.658Z"/>
</svg>
