<?xml version="1.0" encoding="UTF-8"?>
<svg xmlns="http://www.w3.org/2000/svg" id="Layer_1" data-name="Layer 1" viewBox="0 0 24 24">
  <path d="M19.5,8c.828,0,1.5,.672,1.5,1.5v1.087c-.927-.376-1.938-.587-3-.587v-.5c0-.828,.672-1.5,1.5-1.5Zm-10,10c-.828,0-1.5,.672-1.5,1.5s.672,1.5,1.5,1.5h1.087c-.376-.927-.587-1.938-.587-3h-.5ZM4.5,0C2.019,0,0,2.019,0,4.5c0,.829,.672,1.5,1.5,1.5s1.5-.671,1.5-1.5,.673-1.5,1.5-1.5,1.5-.671,1.5-1.5-.672-1.5-1.5-1.5ZM1.5,13c.828,0,1.5-.671,1.5-1.5v-2c0-.829-.672-1.5-1.5-1.5s-1.5,.671-1.5,1.5v2c0,.829,.672,1.5,1.5,1.5Zm3,5c-.827,0-1.5-.673-1.5-1.5s-.672-1.5-1.5-1.5-1.5,.672-1.5,1.5c0,2.481,2.019,4.5,4.5,4.5,.828,0,1.5-.672,1.5-1.5s-.672-1.5-1.5-1.5ZM16.5,3c.827,0,1.5,.673,1.5,1.5s.672,1.5,1.5,1.5,1.5-.671,1.5-1.5c0-2.481-2.019-4.5-4.5-4.5-.828,0-1.5,.671-1.5,1.5s.672,1.5,1.5,1.5Zm-3.5-1.5c0-.829-.672-1.5-1.5-1.5h-2c-.828,0-1.5,.671-1.5,1.5s.672,1.5,1.5,1.5h2c.828,0,1.5-.671,1.5-1.5Zm11,16.5c0,3.314-2.686,6-6,6s-6-2.686-6-6,2.686-6,6-6,6,2.686,6,6Zm-2,0c0-.552-.448-1-1-1h-2v-2c0-.552-.448-1-1-1s-1,.448-1,1v2h-2c-.552,0-1,.448-1,1s.448,1,1,1h2v2c0,.552,.448,1,1,1s1-.448,1-1v-2h2c.552,0,1-.448,1-1Z"/>
</svg>
