<?xml version="1.0" encoding="UTF-8"?>
<svg xmlns="http://www.w3.org/2000/svg" id="Layer_1" data-name="Layer 1" viewBox="0 0 24 24">
  <path d="M15.561,13.561l-1.439,1.439,1.439,1.439c.586,.586,.586,1.535,0,2.121-.293,.293-.677,.439-1.061,.439s-.768-.146-1.061-.439l-1.439-1.439-1.439,1.439c-.293,.293-.677,.439-1.061,.439s-.768-.146-1.061-.439c-.586-.586-.586-1.535,0-2.121l1.439-1.439-1.439-1.439c-.586-.586-.586-1.535,0-2.121s1.535-.586,2.121,0l1.439,1.439,1.439-1.439c.586-.586,1.535-.586,2.121,0s.586,1.535,0,2.121Zm6.439-5.403v10.343c0,3.032-2.468,5.5-5.5,5.5H7.5c-3.033,0-5.5-2.468-5.5-5.5V5.5C2,2.468,4.467,0,7.5,0h6.343c1.47,0,2.851,.572,3.89,1.611l2.656,2.656c1.039,1.039,1.611,2.42,1.611,3.89Zm-3,10.343V9h-4c-1.105,0-2-.895-2-2V3H7.5c-1.378,0-2.5,1.121-2.5,2.5v13c0,1.379,1.122,2.5,2.5,2.5h9c1.379,0,2.5-1.121,2.5-2.5Z"/>
</svg>
