<?xml version="1.0" encoding="UTF-8"?>
<svg xmlns="http://www.w3.org/2000/svg" id="Layer_1" data-name="Layer 1" viewBox="0 0 24 24">
  <path d="M23,1.5c0-.829-.671-1.5-1.5-1.5H2.5c-.829,0-1.5,.671-1.5,1.5,0,.693,.472,1.27,1.109,1.442l1.264,15.99c.224,2.842,2.633,5.067,5.483,5.067h6.288c2.85,0,5.259-2.226,5.482-5.067l1.264-15.991c.638-.173,1.11-.75,1.11-1.442Zm-5.364,17.197c-.007,.093-.031,.18-.048,.27l-3.48-3.48,3.133-3.122s.791,.752,.833,.786l-.438,5.547Zm-11.232,.23c-.014-.077-.035-.151-.041-.23l-.438-5.545c.042-.033,.828-.777,.828-.777l3.109,3.109-3.457,3.444ZM7.84,3l2.049,2.041-3.127,3.1s-1.292-1.256-1.335-1.29l-.304-3.851h2.717Zm1.043,7.263l3.131-3.104,3.101,3.09-3.129,3.118-3.103-3.103Zm9.693-3.462l-1.335,1.33-3.096-3.084,2.065-2.047h2.667l-.3,3.801Zm-9.721,14.199c-.088,0-.171-.016-.257-.025l3.384-3.371,3.375,3.375c-.072,.006-.141,.021-.214,.021h-6.288Z"/>
</svg>
