<?xml version="1.0" encoding="UTF-8"?>
<svg xmlns="http://www.w3.org/2000/svg" id="Layer_1" data-name="Layer 1" viewBox="0 0 24 24">
  <path d="m5.984,20.322c.118.82-.452,1.58-1.271,1.697-.664.096-1.232.516-1.521,1.124-.257.54-.795.856-1.356.856-.216,0-.435-.046-.643-.145-.748-.355-1.066-1.25-.712-1.999.722-1.519,2.145-2.568,3.806-2.806.816-.121,1.58.451,1.697,1.271Zm-1.484-9.322c-1.657,0-3,1.343-3,3s1.343,3,3,3,3-1.343,3-3-1.343-3-3-3Zm15.213,8.051c-.818-.119-1.581.451-1.697,1.271-.118.82.452,1.58,1.271,1.697.664.096,1.232.516,1.521,1.124.257.54.795.856,1.356.856.216,0,.435-.046.643-.145.748-.355,1.066-1.25.712-1.999-.722-1.519-2.145-2.568-3.806-2.806Zm2.787-5.051c0-1.657-1.343-3-3-3s-3,1.343-3,3,1.343,3,3,3,3-1.343,3-3Zm-7.5-3c0-1.657-1.343-3-3-3s-3,1.343-3,3,1.343,3,3,3,3-1.343,3-3Zm-3,5c-2.757,0-5,2.243-5,5v1.5c0,.828.672,1.5,1.5,1.5s1.5-.672,1.5-1.5v-1.5c0-1.103.897-2,2-2s2,.897,2,2v1.5c0,.828.672,1.5,1.5,1.5s1.5-.672,1.5-1.5v-1.5c0-2.757-2.243-5-5-5Zm11.339-9.65L15.527,1.079c-2.142-1.444-4.911-1.446-7.055,0L.661,6.35c-.687.463-.868,1.396-.404,2.082.463.687,1.397.868,2.082.404l7.812-5.271c1.123-.759,2.576-.757,3.699,0l7.812,5.271c.257.174.549.257.838.257.481,0,.955-.231,1.244-.661.464-.687.282-1.619-.404-2.082Z"/>
</svg>
