<?xml version="1.0" encoding="UTF-8"?>
<svg xmlns="http://www.w3.org/2000/svg" id="Layer_1" data-name="Layer 1" viewBox="0 0 24 24">
  <path d="M23.561,21.439l-4.138-4.138c4.519-5.127,5.741-9.832,3.419-13.32-.627-.94-1.507-1.702-2.544-2.2-2.28-1.099-4.858-.99-6.893,.29-.532,.334-1.003,.735-1.404,1.185-.401-.449-.873-.851-1.404-1.185-1.994-1.254-4.506-1.376-6.752-.348L2.561,.439C1.975-.146,1.025-.146,.439,.439S-.146,1.975,.439,2.561L21.439,23.561c.293,.293,.677,.439,1.061,.439s.768-.146,1.061-.439c.586-.586,.586-1.535,0-2.121ZM9,4.611c.925,.582,1.5,1.497,1.5,2.389,0,.828,.671,1.5,1.5,1.5s1.5-.672,1.5-1.5c0-.892,.575-1.807,1.5-2.389,1.173-.737,2.63-.783,3.997-.127,.561,.27,1.014,.66,1.348,1.16,1.92,2.883-.773,6.922-3.046,9.533L6.216,4.095c.981-.174,1.953-.005,2.783,.516Zm5.817,15.476c.357,.747,.041,1.643-.707,2-.668,.319-1.388,.476-2.104,.476-1.111,0-2.214-.376-3.101-1.103C4.975,18.244,.586,13.196,.056,8.675c-.097-.823,.492-1.568,1.315-1.665,.822-.09,1.568,.492,1.665,1.315,.426,3.638,4.452,8.099,7.77,10.813,.563,.461,1.352,.558,2.011,.241,.747-.358,1.643-.041,2,.707Z"/>
</svg>
