<?xml version="1.0" encoding="UTF-8"?>
<svg xmlns="http://www.w3.org/2000/svg" id="Layer_1" data-name="Layer 1" viewBox="0 0 24 24">
  <path d="m20.412.592c-2.105-.785-4.219-.785-6.324,0-.81.302-1.518.786-2.088,1.394-.57-.608-1.278-1.092-2.088-1.394C7.807-.193,5.693-.193,3.588.592,1.441,1.393,0,3.467,0,5.753v16.747c0,.829.672,1.5,1.5,1.5s1.5-.671,1.5-1.5v-.5h7.5v.5c0,.829.672,1.5,1.5,1.5s1.5-.671,1.5-1.5v-.5h7.5v.5c0,.829.672,1.5,1.5,1.5s1.5-.671,1.5-1.5V5.753c0-2.286-1.441-4.36-3.588-5.161Zm-5.275,2.811c1.432-.534,2.795-.534,4.227,0,.735.274,1.288.875,1.519,1.598h-7.265c.231-.723.784-1.323,1.519-1.598Zm-10.5,0c1.432-.534,2.795-.534,4.227,0,.735.274,1.288.875,1.519,1.598H3.118c.231-.723.784-1.323,1.519-1.598Zm-1.637,4.598h7.5v4h-1c-.828,0-1.5.671-1.5,1.5s.672,1.5,1.5,1.5h1v4H3v-11Zm10.5,11v-11h7.5v4h-1.5c-.828,0-1.5.671-1.5,1.5s.672,1.5,1.5,1.5h1.5v4h-7.5Z"/>
</svg>
