<?xml version="1.0" encoding="UTF-8"?>
<svg xmlns="http://www.w3.org/2000/svg" id="Layer_1" data-name="Layer 1" viewBox="0 0 24 24">
  <path d="m5.291,17.999c.553.617.501,1.565-.116,2.118-.287.257-.645.383-1,.383-.412,0-.822-.169-1.118-.499-1.972-2.201-3.057-5.043-3.057-8.001C0,5.383,5.383,0,12,0c5.549,0,10.343,3.76,11.657,9.145.196.805-.297,1.616-1.102,1.812-.808.196-1.617-.297-1.812-1.102-.985-4.036-4.581-6.855-8.743-6.855C7.037,3,3,7.037,3,12c0,2.219.813,4.35,2.291,5.999Zm5.709-11.499v4.634l-2.714,1.567c-.718.414-.963,1.331-.549,2.049.277.481.782.75,1.3.75.255,0,.513-.064.749-.201l3.464-2c.464-.268.75-.763.75-1.299v-5.5c0-.828-.672-1.5-1.5-1.5s-1.5.672-1.5,1.5Zm12.073,6.5h-4.145c-.825,0-1.239.998-.655,1.582l1.003,1.003-3.35,3.35c-.029.029-.074.028-.102,0l-1.029-1.029c-1.197-1.195-3.146-1.196-4.343,0l-3.532,3.532c-.586.586-.586,1.535,0,2.121.293.293.677.439,1.061.439s.768-.146,1.061-.439l3.531-3.531c.027-.028.072-.03.102,0l1.029,1.029c1.197,1.195,3.146,1.196,4.343,0l3.351-3.351,1.021,1.021c.584.584,1.582.17,1.582-.655v-4.145c0-.512-.415-.926-.927-.926Z"/>
</svg>
