<?xml version="1.0" encoding="UTF-8"?>
<svg xmlns="http://www.w3.org/2000/svg" id="Layer_1" data-name="Layer 1" viewBox="0 0 24 24">
  <path d="M0,8.5c0,.829,.671,1.5,1.5,1.5H11.5c.829,0,1.5-.671,1.5-1.5,0-.652-.419-1.202-1-1.408V3.908c.581-.207,1-.756,1-1.408,0-.829-.671-1.5-1.5-1.5H1.5c-.829,0-1.5,.671-1.5,1.5,0,.652,.419,1.202,1,1.408v3.184c-.581,.207-1,.756-1,1.408ZM8,4h1v3h-1v-3Zm-4,0h1v3h-1v-3Zm19.615,6.602l-.842-2.524c-.613-1.84-2.329-3.077-4.27-3.077h-1.004c-1.379,0-2.5,1.122-2.5,2.5v4.5H3.5c-1.93,0-3.5,1.57-3.5,3.5v5.077c0,1.381,1.119,2.5,2.5,2.5s2.5-1.119,2.5-2.5v-.577h1v.577c0,1.381,1.119,2.5,2.5,2.5s2.5-1.119,2.5-2.5v-.577h6v.577c0,1.381,1.119,2.5,2.5,2.5s2.5-1.119,2.5-2.5v-.928c1.178-.564,2-1.758,2-3.149v-3.526c0-.809-.13-1.607-.385-2.372Zm-8.615,6.398H3v-1.5c0-.275,.224-.5,.5-.5H15v2Zm6-4h-3v-5h.504c.647,0,1.219,.412,1.424,1.026l.842,2.525c.153,.458,.23,.938,.23,1.423v.026Z"/>
</svg>
