<?xml version="1.0" encoding="UTF-8"?>
<svg xmlns="http://www.w3.org/2000/svg" id="Layer_1" data-name="Layer 1" viewBox="0 0 24 24">
  <path d="m13.757,16.77c0,.442-.358.8-.8.8h-.951v5.601c0,.442-.358.8-.8.8s-.8-.358-.8-.8v-5.601h-.85c-.442,0-.8-.358-.8-.8s.358-.8.8-.8h3.4c.442,0,.8.358.8.8Zm9.443.8c.442,0,.8-.358.8-.8s-.358-.8-.8-.8h-1.9c-.442,0-.8.358-.8.8v6.4c0,.442.358.8.8.8h1.9c.442,0,.8-.358.8-.8s-.358-.8-.8-.8h-1.101v-1.551h1.101c.442,0,.8-.358.8-.8s-.358-.8-.8-.8h-1.101v-1.65h1.101Zm-4.662-1.6c-.442,0-.8.358-.8.8v4.931c0,.386-.314.7-.7.7s-.7-.314-.7-.7v-4.931c0-.442-.358-.8-.8-.8s-.8.358-.8.8v4.796c0,1.203.864,2.301,2.06,2.422,1.376.14,2.539-.94,2.539-2.288v-4.931c0-.442-.358-.8-.8-.8Zm-.038-13.97h-.5v-.5c0-.829-.672-1.5-1.5-1.5s-1.5.671-1.5,1.5v.5h-6v-.5c0-.829-.672-1.5-1.5-1.5s-1.5.671-1.5,1.5v.5h-.5C2.468,2,0,4.467,0,7.5v11c0,3.032,2.468,5.5,5.5,5.5h2c.828,0,1.5-.672,1.5-1.5s-.672-1.5-1.5-1.5h-2c-1.379,0-2.5-1.121-2.5-2.5v-9.5h18v3.5c0,.828.672,1.5,1.5,1.5s1.5-.672,1.5-1.5v-5c0-3.033-2.468-5.5-5.5-5.5Z"/>
</svg>
