<?xml version="1.0" encoding="UTF-8"?>
<svg xmlns="http://www.w3.org/2000/svg" id="Layer_1" data-name="Layer 1" viewBox="0 0 24 24">
  <path d="m9.846,17c.052.004-.051,0,0,0h0Zm14.154,1.5c0,.828-.671,1.5-1.5,1.5h-3.859s-3.93,3.067-3.93,3.067c-.771.602-1.733.933-2.711.933s-1.94-.332-2.711-.934l-3.794-2.96c-.088-.069-.197-.106-.308-.106H1.5c-.829,0-1.5-.671-1.5-1.5s.671-1.5,1.5-1.5h3.687c.776,0,1.541.263,2.153.741l3.794,2.961c.493.385,1.238.384,1.73,0l2.646-2.065-3.424-3.051-.807.835c-.377.377-.928.578-1.434.578-.56-.045-1.162-.34-1.491-.797-.55-.762-.458-1.807.218-2.483l1.235-1.317-.158-.144c-.312-.285-.802-.317-1.13-.154l-.739.405c-.589.322-1.249.491-1.921.491H1.5c-.828,0-1.5-.672-1.5-1.5s.672-1.5,1.5-1.5h4.617l.987-.54c-.693-.979-1.104-2.171-1.104-3.461,0-3.314,2.686-6,6-6s6,2.686,6,6c0,1.209-.361,2.332-.975,3.273l1.454.727h4.021c.828,0,1.5.672,1.5,1.5s-.672,1.5-1.5,1.5h-3.785c-.621,0-1.233-.145-1.789-.422l-1.447-.724c-.361-.18-.823-.113-1.117.164l-.838.831,4.658,4.151h4.318c.828,0,1.5.671,1.5,1.5Zm-10.92-8.7c1.091,0,2.046-.785,2.199-1.865.164-1.158-.613-2.217-1.725-2.439l-2.792-.559c-.304-.061-.514-.36-.449-.678.055-.272.309-.458.587-.458h2.307c.203,0,.387.087.515.226.154.167.437.274.664.274.655,0,1.01-.763.592-1.266-.422-.509-1.059-.833-1.77-.833h-.405v-.4c0-.442-.358-.8-.8-.8s-.8.358-.8.8v.4h-.28c-1.091,0-2.046.786-2.199,1.866-.163,1.158.613,2.216,1.725,2.439l2.791.559c.304.062.514.359.451.677-.054.273-.308.46-.586.46h-2.334c-.203,0-.387-.087-.515-.226-.154-.167-.437-.274-.664-.274-.655,0-1.01.763-.592,1.266.422.509,1.059.833,1.77.833h.431v.4c0,.442.358.8.8.8s.8-.358.8-.8v-.4h.28Z"/>
</svg>
