<?xml version="1.0" encoding="UTF-8"?>
<svg xmlns="http://www.w3.org/2000/svg" id="Layer_1" data-name="Layer 1" viewBox="0 0 24 24">
  <path d="M19.4,18c0,.772-.628,1.4-1.4,1.4s-1.4-.628-1.4-1.4,.628-1.4,1.4-1.4,1.4,.628,1.4,1.4Zm4.6,0c0,3.314-2.686,6-6,6s-6-2.686-6-6,2.686-6,6-6,6,2.686,6,6Zm-3.4-1.469l.65-.65c.312-.312,.312-.819,0-1.132-.312-.312-.819-.312-1.131,0l-.65,.65c-.436-.247-.932-.4-1.469-.4s-1.033,.153-1.469,.4l-.65-.65c-.312-.312-.819-.312-1.131,0-.313,.312-.313,.819,0,1.132l.65,.65c-.247,.436-.4,.932-.4,1.469s.153,1.033,.4,1.469l-.65,.65c-.312,.312-.312,.819,0,1.132,.312,.312,.819,.312,1.131,0l.65-.65c.436,.247,.932,.4,1.469,.4s1.033-.153,1.469-.4l.65,.65c.312,.312,.819,.312,1.131,0,.313-.312,.313-.819,0-1.132l-.65-.65c.247-.436,.4-.932,.4-1.469s-.153-1.033-.4-1.469Zm-4.092-7.033h5.84c.951,0,1.659-.875,1.475-1.808-.746-3.781-3.725-6.759-7.507-7.503-.933-.183-1.808,.524-1.808,1.475V7.499c0,1.105,.895,2,2,2Zm-5.508,4.001c.828,0,1.5-.671,1.5-1.5V5.673c0-1.068-.485-2.054-1.332-2.703-.863-.662-1.965-.881-3.024-.595C2.853,3.794-.543,8.795,.071,14.266c.549,4.894,4.331,8.842,9.197,9.602,.078,.012,.156,.018,.233,.018,.727,0,1.364-.528,1.48-1.269,.127-.818-.433-1.586-1.251-1.714-3.479-.543-6.287-3.475-6.68-6.971-.446-3.985,2.021-7.627,5.869-8.659,.207-.056,.354,.025,.421,.078,.105,.081,.158,.189,.158,.323v6.327c0,.829,.672,1.5,1.5,1.5Z"/>
</svg>
