<?xml version="1.0" encoding="UTF-8"?>
<svg xmlns="http://www.w3.org/2000/svg" id="Layer_1" data-name="Layer 1" viewBox="0 0 24 24">
  <path d="m23.921,19.469c-1.082-2.258-2.921-3.769-2.921-3.769,0,0,1.572-1.382,2.684-2.476.465-.458.365-1.235-.213-1.536-.739-.385-2.027-.839-3.47-1.144v-2.978c0-1.947-1.55-3.546-3.5-3.566-2.823,0-4.185,1.108-5.386,2.085-.829.675-1.644,1.316-3.114,1.658v-.234c0-1.407-.976-2.618-2.348-2.927-1.245-.28-3.327-.673-4.633-1.128-.647-.226-1.237.458-.94,1.076,1.082,2.258,2.921,3.77,2.921,3.77,0,0-1.571,1.382-2.683,2.476-.465.458-.365,1.234.213,1.536.739.385,2.027.839,3.47,1.144v2.978c0,1.947,1.55,3.546,3.5,3.566,2.855,0,4.226-1.036,5.435-1.95.83-.628,1.645-1.227,3.065-1.627v.068c0,1.407.976,2.618,2.349,2.927,1.245.28,3.326.673,4.632,1.128.647.226,1.237-.458.941-1.077Zm-12.796-3.812c-1.07.809-1.777,1.343-3.64,1.343-.258-.002-.485-.267-.485-.566v-5.498c3.26-.289,4.767-1.515,6.007-2.524,1.045-.85,1.736-1.412,3.507-1.412.258.002.485.267.485.566v5.586c-3.167.458-4.652,1.581-5.875,2.505Z"/>
</svg>
