<?xml version="1.0" encoding="UTF-8"?>
<svg xmlns="http://www.w3.org/2000/svg" id="Layer_1" data-name="Layer 1" viewBox="0 0 24 24">
  <path d="m8.5,21h-3c-1.378,0-2.5-1.122-2.5-2.5v-5c0-1.378,1.122-2.5,2.5-2.5h9c.575,0,1.115.189,1.562.548.646.518,1.59.413,2.109-.232.518-.646.414-1.591-.232-2.109-.291-.233-.609-.423-.938-.592v-1.615c0-3.86-3.14-7-7-7S3,3.14,3,7v1.607c-1.778.912-3,2.761-3,4.893v5c0,3.033,2.467,5.5,5.5,5.5h3c.829,0,1.5-.671,1.5-1.5s-.671-1.5-1.5-1.5Zm1.5-18c2.206,0,4,1.794,4,4v1H6v-1c0-2.206,1.794-4,4-4Zm.996,12.269l-.054.656c-.05.608-.558,1.075-1.168,1.075h-.601c-.647,0-1.172-.525-1.172-1.172v-.656c0-.647.525-1.172,1.172-1.172h.656c.686,0,1.225.586,1.168,1.269Zm12.004,1.731c.552,0,1-.448,1-1s-.448-1-1-1h-1.105l.099-.89c.061-.549-.334-1.043-.883-1.104-.544-.061-1.043.334-1.104.883l-.123,1.11h-2.988l.099-.89c.061-.549-.334-1.043-.883-1.104-.542-.061-1.043.334-1.104.883l-.123,1.11h-1.383c-.552,0-1,.448-1,1s.448,1,1,1h1.161l-.333,3h-1.327c-.552,0-1,.448-1,1s.448,1,1,1h1.105l-.099.89c-.061.549.334,1.043.883,1.104.038.004.075.006.112.006.502,0,.936-.378.992-.89l.123-1.11h2.988l-.099.89c-.061.549.334,1.043.883,1.104.038.004.075.006.112.006.502,0,.936-.378.992-.89l.123-1.11h1.383c.552,0,1-.448,1-1s-.448-1-1-1h-1.161l.333-3h1.327Zm-3.673,3h-2.988l.333-3h2.988l-.333,3Z"/>
</svg>
