<?xml version="1.0" encoding="UTF-8"?>
<svg xmlns="http://www.w3.org/2000/svg" id="Layer_1" data-name="Layer 1" viewBox="0 0 24 24">
  <path d="M16,12c0,.829-.672,1.5-1.5,1.5h-5c-.828,0-1.5-.671-1.5-1.5s.672-1.5,1.5-1.5h5c.828,0,1.5,.671,1.5,1.5Zm7.703,7.604c.339,.455,.392,1.062,.138,1.569-.255,.506-.773,.826-1.341,.826-3.614,0-5.879-1.495-7.699-2.695-1.104-.729-1.977-1.305-2.801-1.305s-1.696,.575-2.801,1.305c-1.82,1.2-4.085,2.695-7.699,2.695-.567,0-1.086-.32-1.341-.826-.254-.507-.201-1.114,.138-1.569l.919-1.235-.638-.688c-.767-.827-.767-2.122,0-2.949l.584-.629-.584-.63c-.765-.827-.765-2.121,0-2.947l.584-.63-.585-.63c-.765-.827-.765-2.121,0-2.947l.639-.689-.919-1.235C-.042,3.94-.095,3.333,.159,2.827c.255-.507,.773-.827,1.341-.827,3.614,0,5.879,1.495,7.699,2.696,1.104,.729,1.977,1.304,2.801,1.304s1.696-.576,2.801-1.304c1.82-1.201,4.085-2.696,7.699-2.696,.567,0,1.086,.32,1.341,.827,.254,.507,.201,1.114-.138,1.569l-.919,1.235,.638,.688c.766,.827,.766,2.121,0,2.947l-.585,.631,.584,.629c.765,.827,.765,2.121,0,2.946l-.584,.631,.584,.63c.767,.826,.767,2.121,0,2.948l-.638,.688,.919,1.235Zm-3.589-11.182l.584-.63-.587-.632c-.425-.46-.613-1.065-.566-1.653-1.174,.427-2.143,1.066-3.092,1.692-1.342,.885-2.729,1.8-4.453,1.8s-3.111-.915-4.453-1.8c-.949-.626-1.918-1.266-3.092-1.692,.048,.588-.141,1.192-.564,1.65l-.589,.635,.584,.63c.767,.826,.767,2.121,0,2.947l-.583,.629,.584,.63c.765,.824,.766,2.119,0,2.945l-.585,.632,.586,.632c.425,.461,.613,1.065,.566,1.653,1.174-.427,2.143-1.065,3.092-1.692,1.342-.885,2.729-1.8,4.453-1.8s3.111,.915,4.453,1.8c.949,.627,1.918,1.266,3.092,1.692-.048-.588,.141-1.191,.564-1.65l.588-.635-.583-.63c-.767-.828-.766-2.123,0-2.948l.583-.629-.584-.63c-.766-.826-.766-2.121,0-2.947Z"/>
</svg>
