<?xml version="1.0" encoding="UTF-8"?>
<svg xmlns="http://www.w3.org/2000/svg" id="Layer_1" data-name="Layer 1" viewBox="0 0 24 24">
  <path d="m18.5,13c-3.038,0-5.5,2.462-5.5,5.5s2.462,5.5,5.5,5.5,5.5-2.462,5.5-5.5-2.462-5.5-5.5-5.5Zm3.217,4.696l-2.641,2.743-.004.004c-.744.744-2.058.746-2.823-.019l-.974-1.025c-.368-.388-.366-.996.004-1.381.395-.41,1.052-.409,1.444.004l.946.994,2.614-2.714c.392-.403,1.038-.404,1.431-.002h0c.379.388.38,1.007.002,1.396Zm-9.717-5.696v1.5c0,1.379-1.122,2.5-2.5,2.5s-2.5-1.121-2.5-2.5v-3.492c-1.098.044-2.045.795-2.322,1.866l-.959,4.204c-.063.275-.202.527-.402.727l-.756.756c-.293.293-.677.439-1.061.439s-.768-.146-1.061-.439c-.586-.586-.586-1.535,0-2.121l.45-.45.874-3.824c.632-2.451,2.794-4.135,5.278-4.161.208-2.295,1.818-4.245,4.083-4.83l3.764-1.087.461-.551c.532-.634,1.478-.719,2.113-.187.635.532.718,1.478.187,2.113l-.755.902c-.191.229-.447.395-.734.478l-4.161,1.201v3.956h8.379l1.061-1.061c.586-.586,1.535-.586,2.121,0,.586.585.586,1.536,0,2.121l-1.5,1.5c-.281.281-.663.439-1.061.439h-9Zm0,8.5c0,.828-.671,1.5-1.5,1.5h-.379l-1.561,1.561c-.293.293-.677.439-1.061.439s-.768-.146-1.061-.439c-.586-.586-.586-1.535,0-2.121l1.707-1.707c.472-.473,1.1-.732,1.768-.732h.586c.829,0,1.5.672,1.5,1.5Z"/>
</svg>
