<?xml version="1.0" encoding="UTF-8"?>
<svg xmlns="http://www.w3.org/2000/svg" id="Layer_1" data-name="Layer 1" viewBox="0 0 24 24">
  <path d="m20.931,8.082c-.456-.055-.938-.082-1.431-.082-2.624,0-4.632,2.2-5.414,3.209-.485-.13-1.016-.209-1.586-.209-.895,0-1.739.199-2.51.505.047-.902-.01-1.733-.059-2.456-.02-.285-.041-.603-.05-.884l1.82-.52c.953-.272,1.646-1.094,1.776-2.057l.496-.166c.612-.204,1.025-.777,1.025-1.423,0-1.932-1.809-4-4.5-4-2.264,0-3.595,1.021-3.966,1.351C-.025,6.434-.014,13.52-.009,16.191c.003,1.352.542,2.62,1.517,3.571,1.622,1.583,5.143,4.237,10.492,4.237,4.534,0,7.733-1.179,9.617-2.168,1.47-.771,2.383-2.293,2.383-3.973v-6.302c0-1.775-1.32-3.27-3.069-3.476Zm.069,9.777c0,.561-.297,1.065-.776,1.316-1.586.832-4.301,1.824-8.224,1.824-4.287,0-7.102-2.12-8.396-3.385-.394-.384-.611-.892-.612-1.43-.007-3.871.723-8.893,5.542-12.599.027-.023.67-.587,1.967-.587.331,0,.597.068.807.17-.49.255-.807.765-.807,1.33v.369l-2.412.688c-.476.136-.854.498-1.011.968-.27.808-.209,1.697-.139,2.727.102,1.491.216,3.173-.652,4.84-.185.262-.286.589-.286.908,0,.682.46,1.278,1.12,1.451.599.157,1.229-.072,1.589-.563.711-.668,2.225-1.888,3.791-1.888,1.669,0,2.77,1.361,2.807,1.409.5.655,1.434.785,2.094.291.662-.497.797-1.438.3-2.101-.031-.041-.348-.455-.916-.94.657-.734,1.715-1.659,2.716-1.659.375,0,.737.021,1.078.061.24.028.422.242.422.497v6.302Z"/>
</svg>
