<?xml version="1.0" encoding="UTF-8"?>
<svg xmlns="http://www.w3.org/2000/svg" id="Layer_1" data-name="Layer 1" viewBox="0 0 24 24">
  <path d="m18,12c-3.314,0-6,2.686-6,6s2.686,6,6,6,6-2.686,6-6-2.686-6-6-6Zm-1,3c0-.553.448-1,1-1s1,.447,1,1v2c0,.553-.448,1-1,1s-1-.447-1-1v-2Zm1,7c-.828,0-1.5-.672-1.5-1.5s.672-1.5,1.5-1.5,1.5.672,1.5,1.5-.672,1.5-1.5,1.5Zm-7,.5c0,.828-.671,1.5-1.5,1.5h-4c-3.033,0-5.5-2.468-5.5-5.5v-8.614c0-1.83.906-3.534,2.423-4.559L8.924.941c1.868-1.262,4.284-1.262,6.153,0l6.923,4.701c1.212.958,1.847,2.156,1.977,3.736.067.825-.547,1.55-1.373,1.617-.811.054-1.55-.548-1.617-1.373-.068-.84-.354-1.312-1.088-1.808l-6.5-4.387c-.85-.574-1.947-.574-2.796,0l-6.5,4.386c-.689.466-1.102,1.24-1.102,2.072v8.614c0,1.379,1.122,2.5,2.5,2.5h4c.829,0,1.5.672,1.5,1.5Z"/>
</svg>
