<?xml version="1.0" encoding="UTF-8"?>
<svg xmlns="http://www.w3.org/2000/svg" id="Layer_1" data-name="Layer 1" viewBox="0 0 24 24">
  <path d="M21.979,12.245c-.13-1.595-.851-3.004-2.028-3.966-.576-.471-1.238-.812-1.951-1.025v-1.254c0-3.309-2.691-6-6-6S6,2.691,6,6v1.254c-.713,.213-1.375,.554-1.951,1.024-1.178,.962-1.898,2.371-2.028,3.966-.344,4.211,3.741,8.219,7.23,10.84,.809,.608,1.779,.912,2.749,.912s1.94-.304,2.75-.912c3.488-2.621,7.573-6.629,7.229-10.84ZM12,3c1.654,0,3,1.346,3,3v1.14c-1.16,.229-2.21,.753-3,1.532-.789-.779-1.84-1.303-3-1.532v-1.14c0-1.654,1.346-3,3-3Zm.948,17.687c-.568,.426-1.329,.426-1.896,0-4.019-3.02-6.221-6.007-6.042-8.198,.064-.787,.388-1.439,.937-1.888,.482-.394,1.11-.602,1.801-.602,.141,0,.283,.009,.428,.026,.831,.1,1.546,.488,1.959,1.064,.433,.604,1.13,.964,1.865,.964s1.433-.36,1.864-.963c.414-.577,1.128-.965,1.96-1.065,.854-.1,1.648,.102,2.229,.576,.549,.448,.872,1.101,.937,1.888,.179,2.19-2.023,5.178-6.041,8.198Zm1.052-5.187c0,.829-.672,1.5-1.5,1.5h-1c-.828,0-1.5-.671-1.5-1.5s.672-1.5,1.5-1.5h1c.828,0,1.5,.671,1.5,1.5Z"/>
</svg>
