<?xml version="1.0" encoding="UTF-8"?>
<svg xmlns="http://www.w3.org/2000/svg" id="Layer_1" data-name="Layer 1" viewBox="0 0 24 24">
  <path d="m14,16.5c0,.829-.671,1.5-1.5,1.5h-5.249c-1.747,0-3.239-1.306-3.469-3.038L2.245,3.434c-.033-.248-.246-.434-.496-.434h-.249c-.829,0-1.5-.671-1.5-1.5S.671,0,1.5,0h.249c1.747,0,3.239,1.306,3.469,3.038l.262,1.962h15.082c1.085,0,2.091.491,2.759,1.346.668.855.9,1.95.637,3.003l-.129.516c-.17.681-.782,1.136-1.454,1.136-.121,0-.243-.015-.365-.045-.804-.201-1.292-1.016-1.091-1.819l.129-.515c.051-.206-.035-.356-.091-.428-.056-.072-.182-.192-.394-.192H5.88l.875,6.566c.033.248.246.434.496.434h5.249c.829,0,1.5.671,1.5,1.5Zm-7,3.5c-1.105,0-2,.895-2,2s.895,2,2,2,2-.895,2-2-.895-2-2-2Zm12-8c-1.654,0-3,1.346-3,3s1.346,3,3,3,3-1.346,3-3-1.346-3-3-3Zm0,7c-2.28,0-4.218,1.403-4.927,3.358-.29.801.316,1.642,1.2,1.642h7.453c.884,0,1.49-.841,1.2-1.642-.708-1.955-2.647-3.358-4.927-3.358Z"/>
</svg>
