<?xml version="1.0" encoding="UTF-8"?>
<svg xmlns="http://www.w3.org/2000/svg" id="Layer_1" data-name="Layer 1" viewBox="0 0 24 24">
  <path d="m4,6c0-2.209,1.791-4,4-4s4,1.791,4,4-1.791,4-4,4-4-1.791-4-4Zm7.5,11c-.828,0-1.5.671-1.5,1.5v4c0,.829.672,1.5,1.5,1.5s1.5-.671,1.5-1.5v-4c0-.829-.672-1.5-1.5-1.5Zm6.76-6.307l-2.509,1.255c-.068.035-.146.053-.223.053H7.5c-3.032,0-5.5,2.467-5.5,5.5v5c0,.829.672,1.5,1.5,1.5s1.5-.671,1.5-1.5v-5c0-1.378,1.121-2.5,2.5-2.5h8.028c.54,0,1.081-.128,1.564-.369l2.578-1.289c.365-.183.622-.495.745-.852.094-.144.168-.302.187-.484l.624-6.005h-3.455l.488,4.693ZM19.95.111c-.254-.203-.639-.112-.761.189-.453,1.117.17,2.7-.881,2.7-.326,0-.284-.816-.308-1.254-.013-.235-.305-.332-.46-.154-.329.379-.763.972-.763,1.675,0,.662.246,1.261.639,1.733h4.166c.393-.472.639-1.071.639-1.733,0-1.356-1.34-2.41-2.272-3.156Z"/>
</svg>
