<?xml version="1.0" encoding="UTF-8"?>
<svg xmlns="http://www.w3.org/2000/svg" id="Layer_1" data-name="Layer 1" viewBox="0 0 24 24">
  <path d="m22.023,2.24c-1.256-1.048-2.897-1.481-4.547-1.181l-3.282.688c-.84.153-1.59.532-2.191,1.069-.595-.535-1.335-.912-2.16-1.062l-3.36-.702c-1.607-.295-3.252.14-4.507,1.188C.72,3.288,0,4.827,0,6.463v9.792c0,2.66,1.899,4.936,4.494,5.407l5.807,1.147c.561.102,1.125.153,1.693.153.573,0,1.149-.052,1.728-.157l5.763-1.139c2.616-.476,4.516-2.751,4.516-5.411V6.463c0-1.636-.721-3.175-1.977-4.223Zm-11.523,17.55l-5.447-1.076c-1.189-.216-2.053-1.25-2.053-2.459V6.463c0-.744.328-1.443.898-1.92.458-.382,1.03-.584,1.595-.584.139,0,.278.012.415.037l3.36.702c.713.13,1.231.75,1.231,1.476v13.617Zm10.5-3.536c0,1.209-.863,2.244-2.075,2.464l-5.425,1.072V6.173c0-.725.518-1.346,1.271-1.483l3.282-.688c.729-.13,1.479.064,2.049.54.571.477.898,1.176.898,1.92v9.792Zm-1.293-5.547l-.793.793.793.793c.391.391.391,1.023,0,1.414-.195.195-.451.293-.707.293s-.512-.098-.707-.293l-.793-.793-.793.793c-.195.195-.451.293-.707.293s-.512-.098-.707-.293c-.391-.391-.391-1.023,0-1.414l.793-.793-.793-.793c-.391-.391-.391-1.023,0-1.414s1.023-.391,1.414,0l.793.793.793-.793c.391-.391,1.023-.391,1.414,0s.391,1.023,0,1.414Zm-10.197-.597c.378.387.38,1.004.004,1.394l-1.82,1.883c-.796.823-2.118.817-2.905-.015l-.769-.813c-.367-.388-.364-.995.006-1.379.395-.411,1.054-.408,1.445.006l.777.821,1.828-1.892c.391-.405,1.04-.407,1.433-.004Z"/>
</svg>
