<?xml version="1.0" encoding="UTF-8"?>
<svg xmlns="http://www.w3.org/2000/svg" id="Layer_1" data-name="Layer 1" viewBox="0 0 24 24">
  <path d="m8.757,8.001c-.757,0-1.281.587-1.385,1.167l-1.2,5.975c-.089.443.25.857.702.857.345,0,.641-.246.704-.585l.166-.889h2.006l.157.883c.061.342.358.591.705.591h.01c.453,0,.793-.416.701-.86l-1.221-5.947c-.12-.668-.589-1.192-1.346-1.192Zm-.645,5l.624-3.295.638,3.295h-1.261Zm5.488-2.476v2.941c0,.469.346.879.813.924.498.047.906-.318.965-.789h-.078c-.442,0-.8-.358-.8-.8s.358-.8.8-.8h.9c.442,0,.8.358.8.8v.8h-.011c-.057,1.325-1.137,2.385-2.474,2.393-1.383.008-2.515-1.171-2.515-2.554v-2.889c0-1.402,1.147-2.582,2.548-2.556.933.018,1.741.546,2.155,1.318.287.534-.097,1.182-.703,1.182h0c-.29,0-.567-.151-.699-.409-.158-.308-.488-.514-.863-.489-.478.032-.838.45-.838.929Zm7.1-2.524c.442,0,.8.358.8.8s-.358.8-.8.8h-1.101v1.801h1.101c.442,0,.8.358.8.8s-.358.8-.8.8h-1.101v1.4h1.101c.442,0,.8.358.8.8s-.358.8-.8.8h-1.9c-.442,0-.8-.358-.8-.8v-6.4c0-.442.358-.8.8-.8h1.9Zm.698,12.571c-2.256,2.211-5.238,3.429-8.398,3.429-6.617,0-12-5.383-12-12S6.383,0,13,0c1.898,0,3.737.444,5.404,1.287l1.014-1.014c.584-.584,1.582-.17,1.582.655v4.145c0,.512-.415.927-.927.927h-4.145c-.825,0-1.239-.998-.655-1.582l.841-.841c-.991-.366-2.036-.577-3.114-.577-4.962,0-9,4.038-9,9s4.038,9,9,9c2.37,0,4.606-.913,6.298-2.571.592-.58,1.541-.571,2.121.021.58.591.57,1.541-.021,2.121Z"/>
</svg>
