<?xml version="1.0" encoding="UTF-8"?>
<svg xmlns="http://www.w3.org/2000/svg" id="Layer_1" data-name="Layer 1" viewBox="0 0 24 24">
  <path d="m19.5,1H4.5C2.015,1,0,3.015,0,5.5v12c0,2.515,1.7,4.707,4.135,5.329.125.032.25.047.373.047.669,0,1.279-.451,1.452-1.129.206-.803-.279-1.62-1.082-1.825-1.106-.283-1.878-1.279-1.878-2.422v-9.5h18v3.5c0,.829.671,1.5,1.5,1.5s1.5-.671,1.5-1.5v-6c0-2.485-2.015-4.5-4.5-4.5ZM4.5,6c-.828,0-1.5-.672-1.5-1.5s.672-1.5,1.5-1.5,1.5.672,1.5,1.5-.672,1.5-1.5,1.5Zm5,0c-.828,0-1.5-.672-1.5-1.5s.672-1.5,1.5-1.5,1.5.672,1.5,1.5-.672,1.5-1.5,1.5Zm14.5,9.8v6.4c0,.442-.358.8-.8.8s-.8-.358-.8-.8v-1.2h-1.4c-1.105,0-2-.895-2-2v-3.2c0-.442.358-.8.8-.8s.8.358.8.8v3.4c0,.111.09.2.2.2h1.601v-3.601c0-.442.358-.8.8-.8s.8.358.8.8Zm-12,0v6.4c0,.442-.358.8-.8.8s-.8-.358-.8-.8v-1.2h-1.4c-1.105,0-2-.895-2-2v-3.2c0-.442.358-.8.8-.8s.8.358.8.8v3.4c0,.111.09.2.2.2h1.601v-3.601c0-.442.358-.8.8-.8s.8.358.8.8Zm3.5-.8c-1.378,0-2.5,1.122-2.5,2.5v3c0,1.378,1.122,2.5,2.5,2.5s2.5-1.122,2.5-2.5v-3c0-1.378-1.122-2.5-2.5-2.5Zm.9,5.5c0,.496-.404.9-.9.9s-.9-.404-.9-.9v-3c0-.496.404-.9.9-.9s.9.404.9.9v3Z"/>
</svg>
