<?xml version="1.0" encoding="UTF-8"?>
<svg xmlns="http://www.w3.org/2000/svg" id="Layer_1" data-name="Layer 1" viewBox="0 0 24 24">
  <path d="M18,2.5c0-1.381,1.119-2.5,2.5-2.5s2.5,1.119,2.5,2.5-1.119,2.5-2.5,2.5-2.5-1.119-2.5-2.5Zm5.267,9.576l-1.869-1.112c.075-.159,.366-.689,.412-.851,.346-1.058,.218-2.078-.358-2.874-.571-.788-1.515-1.24-2.589-1.24-.126,0-.462,0-1.414,.301-.079,.025-6.648,3.362-6.648,3.362-.738,.376-1.032,1.279-.656,2.018,.376,.738,1.281,1.032,2.018,.656l3.659-1.863-1.524,2.921c-.658,1.493-.209,3.222,1.093,4.206,.115,.094,3.478,2.144,3.604,2.229l-.94,1.991c-.354,.75-.033,1.644,.716,1.997,.732,.351,1.642,.041,1.997-.716l1.113-2.359c.554-1.174,.139-2.573-.967-3.255l-2.154-1.328,1.277-2.516,1.696,1.009c.7,.419,1.63,.196,2.056-.522,.424-.712,.19-1.633-.522-2.056Zm-13.267,8.675c0,.974-.288,1.754-.856,2.317-.863,.856-2.066,.937-3.271,.937-.141,0-1.324-.002-1.324-.002-1.343,.009-2.729,.021-3.693-.935-.568-.563-.856-1.343-.856-2.317,0-2.364,3.282-6.614,5.989-7.556-.441-.465-.855-1.091-1.248-1.786-.392-.694-.006-1.572,.772-1.745l1.958-.435c.6-.133,1.221,.224,1.358,.823,.331,1.449,.13,2.758-.409,3.443,1.578,1.306,1.58,4.915,1.58,7.255Zm-3,0c0-2.839-.208-4.081-.381-4.623-1.26,.649-3.619,3.552-3.619,4.623,0,.08,.004,.139,.01,.182,.304,.081,1.497,.072,1.99,.068,0,0,1.686,.013,1.99-.068,.006-.042,.01-.102,.01-.182Zm7.671-1.592c-.74-.369-1.642-.069-2.013,.671l-1,2c-.37,.741-.07,1.642,.671,2.013,.215,.107,.444,.159,.67,.159,.55,0,1.08-.304,1.343-.83l1-2c.37-.741,.07-1.642-.671-2.013Z"/>
</svg>
