<?xml version="1.0" encoding="UTF-8"?>
<svg xmlns="http://www.w3.org/2000/svg" id="Layer_1" data-name="Layer 1" viewBox="0 0 24 24">
  <path d="M19,4.5c0-1.381,1.119-2.5,2.5-2.5s2.5,1.119,2.5,2.5-1.119,2.5-2.5,2.5-2.5-1.119-2.5-2.5Zm-3.5,6.5c-.828,0-1.5-.672-1.5-1.5v-.5h-4v.5c0,.828-.671,1.5-1.5,1.5s-1.5-.672-1.5-1.5V5.5c0-.652,.419-1.201,1-1.408v-1.092c0-1.654,1.346-3,3-3h2c1.654,0,3,1.346,3,3v1.092c.581,.207,1,.756,1,1.408v4c0,.828-.672,1.5-1.5,1.5ZM11,3v3h2V3h-2ZM2.5,7c1.381,0,2.5-1.119,2.5-2.5s-1.119-2.5-2.5-2.5S0,3.119,0,4.5s1.119,2.5,2.5,2.5Zm5,6h-1.048l-1.749-3.716c-.127-.27-.326-.482-.561-.629-.372-.347-.841-.587-1.376-.641-1.5-.152-2.766,.997-2.766,2.466v5.521c0,.815,.396,1.532,1,1.989v4.511c0,.828,.671,1.5,1.5,1.5s1.5-.672,1.5-1.5v-4.511c.604-.456,1-1.173,1-1.989v-.096c.159,.057,.325,.096,.5,.096h2c.829,0,1.5-.672,1.5-1.5s-.671-1.5-1.5-1.5Zm13.734-4.987c-.538,.054-1.008,.296-1.381,.646-.233,.147-.43,.357-.556,.625l-1.749,3.716h-1.048c-.828,0-1.5,.672-1.5,1.5s.672,1.5,1.5,1.5h2c.175,0,.341-.039,.5-.096v.096c0,.815,.396,1.532,1,1.989v4.511c0,.828,.672,1.5,1.5,1.5s1.5-.672,1.5-1.5v-4.511c.604-.456,1-1.173,1-1.989v-5.521c0-1.469-1.266-2.618-2.766-2.466Z"/>
</svg>
