<?xml version="1.0" encoding="UTF-8"?>
<svg xmlns="http://www.w3.org/2000/svg" id="Layer_1" data-name="Layer 1" viewBox="0 0 24 24">
  <path d="M21,17.5v5c0,.828-.672,1.5-1.5,1.5s-1.5-.672-1.5-1.5v-4.5h-4.5c-1.654,0-3.5-1.674-3.5-3.5v-4.785l-1.912,1.323,1.101,2.936c.291,.775-.102,1.64-.878,1.931-.772,.293-1.64-.102-1.931-.878l-1.215-3.238c-.4-1.068-.043-2.291,.867-2.975l2.815-1.947c.727-.546,1.686-.866,2.652-.866,1.93,0,3.5,1.57,3.5,3.5v5.5h3.5c1.379,0,2.5,1.121,2.5,2.5ZM12.5,5c1.381,0,2.5-1.119,2.5-2.5s-1.119-2.5-2.5-2.5-2.5,1.119-2.5,2.5,1.119,2.5,2.5,2.5Zm-1.646,14.038c-.768-.298-1.641,.079-1.943,.852l-.434,1.11h-3.977c-.828,0-1.5,.672-1.5,1.5s.672,1.5,1.5,1.5h4.317c1.036,0,1.95-.623,2.329-1.59l.559-1.429c.301-.771-.08-1.642-.852-1.943Z"/>
</svg>
