<?xml version="1.0" encoding="UTF-8"?>
<svg xmlns="http://www.w3.org/2000/svg" id="Layer_1" data-name="Layer 1" viewBox="0 0 24 24">
  <path d="m19.5,0H4.5C2.015,0,0,2.015,0,4.5v15c0,2.481,2.019,4.5,4.5,4.5h11.343c1.47,0,2.851-.572,3.89-1.611l2.656-2.656c1.039-1.039,1.611-2.42,1.611-3.89V4.5c0-2.485-2.015-4.5-4.5-4.5Zm-5.26,3h2.75c.345,0,.625.28.625.625s-.28.625-.625.625h-.75v4.194c0,.345-.28.625-.625.625s-.625-.28-.625-.625v-4.194h-.75c-.345,0-.625-.28-.625-.625s.28-.625.625-.625Zm-5.762.625c0-.345.28-.625.625-.625h1.342c1.109,0,2.012.891,2.012,1.985s-.902,1.985-2.012,1.985l-.717.003v1.471c0,.345-.28.625-.625.625s-.625-.28-.625-.625V3.625Zm-5.479,0c0-.345.28-.625.625-.625h1.342c1.109,0,2.012.891,2.012,1.985s-.902,1.985-2.012,1.985l-.717.003v1.471c0,.345-.28.625-.625.625s-.625-.28-.625-.625V3.625Zm0,15.875v-8.5h18v4h-4c-1.105,0-2,.895-2,2v4H4.5c-.827,0-1.5-.673-1.5-1.5Zm1.257-13.777l-.005-1.473h.715c.413,0,.762.336.762.735s-.349.735-.762.735l-.71.003Zm5.479,0l-.005-1.473h.715c.413,0,.762.336.762.735s-.349.735-.762.735l-.71.003Z"/>
</svg>
