<?xml version="1.0" encoding="UTF-8"?>
<svg xmlns="http://www.w3.org/2000/svg" id="Layer_1" data-name="Layer 1" viewBox="0 0 24 24">
  <path d="M15.261,24h-6.521c-2.313,.06-4.201-2.281-3.653-4.529l2.081-7.41c-1.76-1.68-2.535-4.177-1.994-6.634C5.746,2.826,7.885,.708,10.494,.158c2.108-.443,4.267,.066,5.914,1.404,1.647,1.336,2.592,3.318,2.592,5.438,0,1.925-.795,3.75-2.167,5.061l2.06,7.322c.579,2.343-1.271,4.652-3.632,4.618ZM12.007,2.999c-.294,0-.593,.031-.895,.095-1.476,.311-2.686,1.508-3.01,2.979-.364,1.655,.259,3.271,1.627,4.218,.526,.364,.764,1.023,.591,1.64l-2.324,8.264c.003,.469,.21,.745,.743,.805h6.521c.569-.085,.758-.321,.722-.894l-2.303-8.175c-.173-.617,.064-1.275,.591-1.64,1.083-.75,1.729-1.979,1.729-3.291,0-1.211-.54-2.344-1.482-3.108-.724-.587-1.593-.893-2.511-.893Z"/>
</svg>
