<?xml version="1.0" encoding="UTF-8"?>
<svg xmlns="http://www.w3.org/2000/svg" id="Layer_1" data-name="Layer 1" viewBox="0 0 24 24">
  <path d="M19.81,15.031l3.983-6.771c.42-.714,.182-1.634-.532-2.054-.714-.419-1.633-.182-2.054,.532l-4.859,8.261H7.644L2.465,6.705c-.438-.702-1.365-.916-2.067-.478s-.916,1.364-.478,2.067l4.21,6.742c-2.306,.192-4.13,2.108-4.13,4.463,0,2.481,2.019,4.5,4.5,4.5h15c2.481,0,4.5-2.019,4.5-4.5,0-2.375-1.855-4.306-4.19-4.469Zm-.31,5.969H4.5c-.827,0-1.5-.673-1.5-1.5s.673-1.5,1.5-1.5h15c.827,0,1.5,.673,1.5,1.5s-.673,1.5-1.5,1.5Zm-6.352-10.778c.765,.318,1.127,1.196,.809,1.961-.317,.764-1.192,1.127-1.961,.809-.188,.079-.384,.116-.576,.116-.586,0-1.143-.348-1.383-.924-.318-.765,.046-1.643,.811-1.962,.742-.309,1.559-.309,2.301,0Zm1.945-1.185c-1.789-1.357-4.398-1.357-6.188,0-.658,.499-1.602,.371-2.102-.289s-.371-1.601,.289-2.102c1.4-1.062,3.143-1.646,4.906-1.646s3.506,.585,4.906,1.646c.66,.501,.789,1.441,.289,2.102-.295,.389-.743,.594-1.196,.594-.316,0-.634-.1-.905-.305ZM3.82,4.838c-.512-.651-.398-1.595,.254-2.105C6.319,.971,9.134,0,12,0s5.681,.971,7.926,2.732c.652,.511,.766,1.454,.254,2.105-.296,.377-.736,.574-1.181,.574-.324,0-.65-.104-.925-.32-1.72-1.349-3.877-2.092-6.074-2.092s-4.354,.743-6.074,2.092c-.65,.512-1.593,.398-2.105-.254Z"/>
</svg>
