<?xml version="1.0" encoding="UTF-8"?>
<svg xmlns="http://www.w3.org/2000/svg" id="Layer_1" data-name="Layer 1" viewBox="0 0 24 24">
  <path d="m23.985,13.712c-.432,3.018-2.122,5.825-4.606,7.75l.825.825c.632.632.185,1.714-.71,1.714h-4.491c-.554,0-1.004-.449-1.004-1.004v-4.491c0-.894,1.081-1.342,1.714-.71l1.516,1.516c2.045-1.453,3.446-3.653,3.785-6.024.118-.819.88-1.389,1.697-1.273.82.117,1.391.878,1.273,1.697Zm-13.985,3.288v4c0,1.654-1.346,3-3,3H3c-1.654,0-3-1.346-3-3v-4c0-1.654,1.346-3,3-3h4c1.654,0,3,1.346,3,3Zm-2.998,4l-.002-4H3v4h4.002Zm5.998-15.5c0-3.032,2.468-5.5,5.5-5.5s5.5,2.468,5.5,5.5-2.468,5.5-5.5,5.5-5.5-2.468-5.5-5.5Zm3,0c0,1.379,1.121,2.5,2.5,2.5s2.5-1.121,2.5-2.5-1.121-2.5-2.5-2.5-2.5,1.121-2.5,2.5ZM8.996,0h-4.491c-.894,0-1.342,1.081-.71,1.713l.825.825C2.137,4.463.447,7.27.015,10.287c-.117.82.452,1.58,1.272,1.698.072.01.144.015.214.015.734,0,1.376-.54,1.483-1.287.339-2.372,1.741-4.573,3.785-6.025l1.516,1.516c.632.632,1.714.184,1.714-.71V1.004c0-.554-.449-1.004-1.004-1.004Z"/>
</svg>
