<?xml version="1.0" encoding="UTF-8"?>
<svg xmlns="http://www.w3.org/2000/svg" id="Layer_1" data-name="Layer 1" viewBox="0 0 24 24">
  <path d="m23.563,21.442l-2.549-2.561v-2.896c0-2.003-.779-3.886-2.196-5.304l-5.078-5.07c-1.039-1.039-2.419-1.611-3.887-1.611-1.041,0-2.032.301-2.894.839l-1.339-1.339.939-.939c.586-.585.586-1.536,0-2.121-.586-.586-1.535-.586-2.121,0L.439,4.439c-.586.585-.586,1.536,0,2.121.293.293.677.439,1.061.439s.768-.146,1.061-.439l.939-.939,1.343,1.343c-1.304,2.119-1.052,4.933.782,6.768l5.079,5.07c1.416,1.417,3.297,2.197,5.299,2.197h2.886l2.546,2.558c.294.294.679.442,1.063.442.383,0,.766-.146,1.059-.437.587-.584.589-1.534.005-2.121Zm-10.738-4.761l-5.079-5.07c-.974-.975-.974-2.562,0-3.537l.342-.343c.472-.472,1.098-.731,1.765-.731s1.292.26,1.766.733l.264.263-1.443,1.443c-.586.585-.586,1.536,0,2.121.293.293.677.439,1.061.439s.768-.146,1.061-.439l1.445-1.445,1.88,1.877-1.447,1.447c-.586.585-.586,1.536,0,2.121.293.293.677.439,1.061.439s.768-.146,1.061-.439l1.157-1.157c.188.5.297,1.031.297,1.582v2.015h-2.011c-1.2,0-2.328-.468-3.179-1.319Zm5.175-11.653c0-.801.312-1.554.871-2.113l1.43-1.63c.388-.38,1.009-.38,1.398,0l1.422,1.622c.566.566.879,1.319.879,2.121,0,1.015-.502,1.952-1.383,2.53-.956.627-2.244.632-3.207.017-.901-.576-1.41-1.523-1.41-2.547Z"/>
</svg>
