<?xml version="1.0" encoding="UTF-8"?>
<svg xmlns="http://www.w3.org/2000/svg" id="Layer_1" data-name="Layer 1" viewBox="0 0 24 24">
  <path d="M19.5,0H4.5C2.019,0,0,2.019,0,4.5v15c0,2.481,2.019,4.5,4.5,4.5H15.843c1.47,0,2.851-.572,3.89-1.611l2.656-2.657c1.039-1.039,1.611-2.42,1.611-3.889V4.5c0-2.481-2.019-4.5-4.5-4.5Zm-2.25,3.625c0,.345-.28,.625-.625,.625h-.625v4.125c0,.345-.28,.625-.625,.625s-.625-.28-.625-.625V4.25h-.625c-.345,0-.625-.28-.625-.625s.28-.625,.625-.625h2.5c.345,0,.625,.28,.625,.625Zm-4.75,0c0,.345-.28,.625-.625,.625h-1.125v1.47h1.125c.345,0,.625,.28,.625,.625s-.28,.625-.625,.625h-1.125v1.405c0,.345-.28,.625-.625,.625s-.625-.28-.625-.625V3.625c0-.345,.28-.625,.625-.625h1.75c.345,0,.625,.28,.625,.625Zm-4.5-.019v4.59c0,.444-.36,.804-.804,.804-.318,0-.606-.187-.735-.478l-1.23-2.772v2.635c0,.34-.276,.615-.615,.615h0c-.34,0-.615-.276-.615-.615V3.806c0-.445,.361-.806,.806-.806,.317,0,.605,.186,.735,.476l1.247,2.774V3.606c0-.335,.271-.606,.606-.606s.606,.271,.606,.606ZM3,19.5V11H21v4h-4c-1.105,0-2,.895-2,2v4H4.5c-.827,0-1.5-.673-1.5-1.5Z"/>
</svg>
