<?xml version="1.0" encoding="UTF-8"?>
<svg xmlns="http://www.w3.org/2000/svg" id="Layer_1" data-name="Layer 1" viewBox="0 0 24 24">
  <path d="M6.5,11c0,2.481,2.019,4.5,4.5,4.5s4.5-2.019,4.5-4.5-2.019-4.5-4.5-4.5-4.5,2.019-4.5,4.5Zm6,0c0,.827-.673,1.5-1.5,1.5s-1.5-.673-1.5-1.5,.673-1.5,1.5-1.5,1.5,.673,1.5,1.5Zm-1.008,9.604c-.081,.771-.731,1.344-1.49,1.344C4.077,21.231,0,16.649,0,11,0,4.935,4.935,0,11,0c4.541,0,8.556,2.727,10.229,6.947,.305,.77-.072,1.642-.842,1.947-.767,.307-1.642-.071-1.947-.842-1.217-3.069-4.137-5.053-7.44-5.053C6.589,3,3,6.589,3,11c0,4.108,3.077,7.529,7.156,7.956,.824,.087,1.422,.824,1.335,1.648Zm-1.49,1.344c.053,.005-.052,0,0,0h0Zm13.998-7.948v6c0,2.206-1.794,4-4,4-.864,0-1.66-.282-2.314-.75-.074-.04-4.369-4.02-4.369-4.02-.403-.377-.424-1.01-.047-1.413,.377-.404,1.011-.425,1.414-.048l1.317,1.232v-6.001c0-.553,.448-1,1-1s1,.447,1,1v4h1v-5c0-.553,.448-1,1-1s1,.447,1,1v5h1v-3c0-.553,.448-1,1-1s1,.447,1,1Z"/>
</svg>
