<?xml version="1.0" encoding="UTF-8"?>
<svg xmlns="http://www.w3.org/2000/svg" id="Layer_1" data-name="Layer 1" viewBox="0 0 24 24">
  <path d="M12,21c.688,0,1.356-.085,2-.232v3.051c-.652,.11-1.317,.181-2,.181v-3ZM12,0C5.383,0,0,5.383,0,12c0,4.43,2.419,8.297,6,10.376v-3.687c-1.836-1.649-3-4.033-3-6.689C3,7.038,7.038,3,12,3s9,4.038,9,9c0,1.479-.365,2.872-1,4.104v4.815c2.448-2.198,4-5.377,4-8.919C24,5.383,18.617,0,12,0Zm4.608,8.229c-.939,.85-2.486,3.027-2.606,6.102-.039,1.705,.469,3.601,1.998,5.462v3.207c0,.552,.447,1,1,1s1-.448,1-1V8.737c-.004-.629-.857-1.004-1.392-.507Zm-3.608,4.271v-3.5c0-.552-.448-1-1-1s-1,.448-1,1v3.5c0,.737-.405,1.375-1,1.722v-5.222c0-.552-.448-1-1-1s-1,.448-1,1v5.222c-.595-.347-1-.985-1-1.722v-3.5c0-.552-.448-1-1-1s-1,.448-1,1v3.5c0,1.858,1.28,3.411,3,3.858v6.642c0,.552,.448,1,1,1s1-.448,1-1v-6.642c1.72-.447,3-2,3-3.858Z"/>
</svg>
