<?xml version="1.0" encoding="UTF-8"?>
<svg xmlns="http://www.w3.org/2000/svg" id="Layer_1" data-name="Layer 1" viewBox="0 0 24 24">
  <path d="M4,2.5c0-1.381,1.119-2.5,2.5-2.5s2.5,1.119,2.5,2.5-1.119,2.5-2.5,2.5-2.5-1.119-2.5-2.5ZM22.454,21h-3.954c-.828,0-1.5,.672-1.5,1.5s.672,1.5,1.5,1.5h3.954c.828,0,1.5-.672,1.5-1.5s-.672-1.5-1.5-1.5Zm0-5h-3.954c-.828,0-1.5,.672-1.5,1.5s.672,1.5,1.5,1.5h3.954c.828,0,1.5-.672,1.5-1.5s-.672-1.5-1.5-1.5Zm0-5h-3.954c-.828,0-1.5,.672-1.5,1.5s.672,1.5,1.5,1.5h3.954c.828,0,1.5-.672,1.5-1.5s-.672-1.5-1.5-1.5Zm-8.954,10h-4c-.829,0-1.5,.672-1.5,1.5s.671,1.5,1.5,1.5h4c.828,0,1.5-.672,1.5-1.5s-.672-1.5-1.5-1.5Zm0-5h-.752l-1.211-3.632c-.272-.818-1.035-1.368-1.897-1.368h-1.64v-2h2.5c.829,0,1.5-.672,1.5-1.5s-.671-1.5-1.5-1.5H5.536c-1.089,0-2.122,.513-2.781,1.376L.387,9.994c-.556,.614-.508,1.562,.107,2.118,.612,.555,1.561,.509,2.119-.106l1.402-1.55-.013,1.82-1.438,4.794c-.238,.793,.212,1.629,1.005,1.867,.773,.237,1.632-.204,1.868-1.006l1.179-3.931h2.303l.667,2h-.086c-.829,0-1.5,.672-1.5,1.5s.671,1.5,1.5,1.5h4c.828,0,1.5-.672,1.5-1.5s-.672-1.5-1.5-1.5Zm-9,5H1.5c-.829,0-1.5,.672-1.5,1.5s.671,1.5,1.5,1.5h3c.829,0,1.5-.672,1.5-1.5s-.671-1.5-1.5-1.5ZM22.5,0c-.66,0-1.315,.128-1.926,.377l-3.095,1.259c-.639,.399-.639,1.329,0,1.729l3.521,1.693v3.443c0,.828,.672,1.5,1.5,1.5s1.5-.672,1.5-1.5V1.5c0-.828-.672-1.5-1.5-1.5Z"/>
</svg>
