<?xml version="1.0" encoding="UTF-8"?>
<svg xmlns="http://www.w3.org/2000/svg" id="Layer_1" data-name="Layer 1" viewBox="0 0 24 24">
  <path d="m24,22.5c0,.828-.671,1.5-1.5,1.5H1.5c-.829,0-1.5-.672-1.5-1.5s.671-1.5,1.5-1.5h7.851c-.261-.911-.967-2-2.851-2H1.5c-.829,0-1.5-.672-1.5-1.5s.671-1.5,1.5-1.5h5c3.034,0,4.735,1.704,5.5,3.553.765-1.849,2.466-3.553,5.5-3.553h5c.829,0,1.5.672,1.5,1.5s-.671,1.5-1.5,1.5h-5c-1.905,0-2.601,1.111-2.855,2h7.855c.829,0,1.5.672,1.5,1.5ZM.587,2.776c.384.494.716.92.883,1.588.057.226-.025.547-.164,1.051-.269.98-.675,2.462.293,4.288.485.913,1.066,1.419,1.534,1.826.491.427.737.641.911,1.335.17.681.782,1.136,1.454,1.136.12,0,.243-.015.365-.045.804-.201,1.292-1.015,1.091-1.819-.402-1.61-1.241-2.339-1.853-2.872-.365-.317-.629-.546-.852-.968-.411-.774-.275-1.269-.05-2.088.192-.701.431-1.572.18-2.572-.32-1.282-.959-2.103-1.426-2.703-.084-.108-.167-.214-.245-.32C2.221-.055,1.28-.2.614.29-.055.779-.2,1.718.29,2.386c.094.129.194.258.297.39Zm17.549,11.179c.122.03.245.045.365.045.672,0,1.284-.455,1.454-1.136.174-.694.42-.908.911-1.335.467-.407,1.049-.913,1.534-1.826.968-1.825.562-3.307.293-4.288-.138-.504-.22-.825-.164-1.052.167-.667.499-1.094.883-1.587.103-.132.203-.261.297-.39.49-.668.345-1.607-.324-2.096-.667-.49-1.607-.345-2.096.324-.078.105-.16.211-.245.32-.467.6-1.105,1.42-1.426,2.702-.25,1.001-.012,1.872.18,2.573.225.82.36,1.314-.05,2.088-.223.421-.487.65-.852.968-.612.532-1.45,1.261-1.853,2.872-.201.804.288,1.618,1.091,1.819Zm-7.597-1.74l.968.277.277.968c.206.72,1.225.72,1.431,0l.277-.968.968-.277c.72-.206.72-1.225,0-1.431l-.968-.277-.277-.968c-.206-.719-1.225-.719-1.431,0l-.277.968-.968.277c-.72.206-.72,1.225,0,1.431Zm-4-6l.968.277.277.968c.206.72,1.225.72,1.431,0l.277-.968.968-.277c.72-.206.72-1.225,0-1.431l-.968-.277-.277-.968c-.206-.719-1.225-.719-1.431,0l-.277.968-.968.277c-.72.206-.72,1.225,0,1.431Zm7-3l.968.277.277.968c.206.72,1.225.72,1.431,0l.277-.968.968-.277c.72-.206.72-1.225,0-1.431l-.968-.277-.277-.968c-.206-.719-1.225-.719-1.431,0l-.277.968-.968.277c-.72.206-.72,1.225,0,1.431Z"/>
</svg>
