<?xml version="1.0" encoding="UTF-8"?>
<svg xmlns="http://www.w3.org/2000/svg" id="Layer_1" data-name="Layer 1" viewBox="0 0 24 24">
  <path d="m4.017,20.202c.716-.415,1.635-.17,2.05.547.091.157.253.25.434.25h7c.275,0,.5-.224.5-.5v-1c0-.829.672-1.5,1.5-1.5h.609c1.257,0,2.323-.94,2.48-2.187l.315-2.501c.095-.75.732-1.313,1.488-1.313h.39c-.614-1.471-2.308-4.535-3.302-5.765-1.452-1.937-3.657-3.113-6.052-3.226-.827-.039-1.467-.741-1.428-1.569.038-.827.763-1.476,1.568-1.428,3.292.155,6.321,1.767,8.277,4.38,1.018,1.257,4.152,6.491,4.152,8.153,0,1.146-.799,2.363-2.283,2.45l-.15,1.193c-.309,2.452-2.217,4.365-4.593,4.743-.214,1.727-1.689,3.068-3.474,3.068h-7c-1.246,0-2.407-.67-3.031-1.749-.414-.717-.169-1.635.548-2.049ZM8,2v4c0,1.105-.895,2-2,2H2C.895,8,0,7.105,0,6V2C0,.895.895,0,2,0h4c1.105,0,2,.895,2,2Zm-1.285.11c-.394-.403-1.042-.401-1.433.004l-1.828,1.892-.777-.821c-.392-.414-1.05-.417-1.445-.006-.37.384-.372.992-.006,1.379l.769.813c.787.832,2.109.839,2.905.015l1.82-1.883c.376-.389.374-1.007-.004-1.394ZM0,12v4c0,1.105.895,2,2,2h4c1.105,0,2-.895,2-2v-4c0-1.105-.895-2-2-2H2C.895,10,0,10.895,0,12Z"/>
</svg>
