<?xml version="1.0" encoding="UTF-8"?>
<svg xmlns="http://www.w3.org/2000/svg" id="Layer_1" data-name="Layer 1" viewBox="0 0 24 24">
  <path d="M23.535,16.882l-.932-1.233c.153-.154,.283-.329,.385-.524,.375-.715,.31-1.561-.174-2.265l-1.181-1.624c.241-.189,.441-.429,.586-.708,.374-.721,.31-1.556-.17-2.236-.031-.044-3.321-3.555-3.321-3.555-.406-.46-1.026-.738-1.679-.738-.016,0-.03,.005-.046,.005L14.146,.964c-.541-.613-1.323-.964-2.146-.964s-1.605,.352-2.116,.931l-2.892,3.081c-.611,.03-1.185,.293-1.568,.727,0,0-3.291,3.511-3.321,3.555-.48,.68-.544,1.515-.17,2.236,.145,.279,.345,.519,.586,.708l-1.181,1.624c-.484,.703-.55,1.55-.174,2.265,.102,.194,.232,.37,.385,.524l-.932,1.233c-.556,.806-.618,1.845-.163,2.712,.455,.867,1.347,1.406,2.326,1.406h2.221v1.5c0,.829,.672,1.5,1.5,1.5s1.5-.671,1.5-1.5v-1.5h2.5v1.5c0,.829,.672,1.5,1.5,1.5s1.5-.671,1.5-1.5v-1.5h2.5v1.5c0,.829,.672,1.5,1.5,1.5s1.5-.671,1.5-1.5v-1.5h2.372c.979,0,1.871-.538,2.326-1.406,.455-.867,.393-1.906-.163-2.712Zm-11.535-2.882c-.828,0-1.5,.671-1.5,1.5v2.5h-2.918c-1.208,0-1.921-1.356-1.235-2.351l1.654-2.649c-1.007,0-1.64-.893-1.069-1.723l2.569-3.277h-.07c-.906,0-1.441-.913-.926-1.641l2.644-2.978c.449-.508,1.255-.508,1.704,0l2.644,2.978c.514,.728-.02,1.641-.926,1.641h-.07l2.49,3.277c.571,.829,.017,1.723-.99,1.723l1.654,2.649c.686,.995-.027,2.351-1.235,2.351h-2.918v-2.5c0-.829-.672-1.5-1.5-1.5Z"/>
</svg>
