<?xml version="1.0" encoding="UTF-8"?>
<svg xmlns="http://www.w3.org/2000/svg" id="Layer_1" data-name="Layer 1" viewBox="0 0 24 24">
  <path d="m5.938,10.5c.278.481.782.75,1.301.75.254,0,.512-.065.749-.201l.65-.375c.53.485,1.163.848,1.864,1.07v.755c0,.829.671,1.5,1.5,1.5s1.5-.671,1.5-1.5v-.755c.701-.222,1.334-.585,1.864-1.071l.649.375c.236.137.494.202.749.202.519,0,1.022-.269,1.3-.75.415-.717.168-1.635-.549-2.049l-.639-.369c.078-.35.125-.71.125-1.082s-.048-.733-.125-1.082l.638-.369c.717-.415.963-1.332.549-2.049-.414-.716-1.33-.962-2.049-.549l-.65.375c-.53-.485-1.163-.848-1.864-1.07v-.755c0-.829-.671-1.5-1.5-1.5s-1.5.671-1.5,1.5v.755c-.701.222-1.334.585-1.864,1.07l-.65-.375c-.718-.413-1.634-.167-2.049.549-.414.718-.168,1.635.549,2.049l.638.369c-.078.349-.125.71-.125,1.082s.048.733.125,1.082l-.638.369c-.717.415-.963,1.332-.549,2.049Zm6.062-5.5c1.103,0,2,.897,2,2s-.897,2-2,2-2-.897-2-2,.897-2,2-2Zm8.5,11H3.5c-1.93,0-3.5,1.57-3.5,3.5v1c0,1.93,1.57,3.5,3.5,3.5h17c1.93,0,3.5-1.57,3.5-3.5v-1c0-1.93-1.57-3.5-3.5-3.5ZM3,20.5v-1c0-.276.224-.5.5-.5h9.5v2H3.5c-.276,0-.5-.224-.5-.5Zm18,0c0,.276-.224.5-.5.5h-4.5v-2h4.5c.276,0,.5.224.5.5v1Z"/>
</svg>
