<?xml version="1.0" encoding="UTF-8"?>
<svg xmlns="http://www.w3.org/2000/svg" id="Layer_1" data-name="Layer 1" viewBox="0 0 24 24">
  <path d="M11,2.647C11,1.339,10.061,.146,8.761,.013c-1.495-.152-2.761,1.022-2.761,2.487l-.004,4.781c-1.206,.471-2.041,1.512-2.236,2.885l-.509,2.5-2.013,.357c-.717,.127-1.238,.75-1.238,1.477v5c0,.829,.672,1.5,1.5,1.5h3c3.584,0,6.5-2.916,6.5-6.495V2.647Zm-3,11.853c0,1.93-1.57,3.5-3.5,3.5h-1.5v-2.243l1.146-.203c.006,0,.011-.002,.017-.003,1.014-.191,1.764-.994,2.008-2.157l.544-2.72c.071-.491,.283-.674,.785-.674,.141,0,.508,.096,.513,.512l-.013,3.988Zm14.762,1.523l-2.02-.358-.488-2.416c-.205-1.433-1.044-2.491-2.25-2.966l-.004-4.783c0-1.465-1.265-2.639-2.761-2.487-1.301,.132-2.239,1.326-2.239,2.633v11.853c0,3.584,2.916,6.5,6.5,6.5h3c.828,0,1.5-.671,1.5-1.5v-5c0-.728-.521-1.35-1.238-1.477Zm-1.762,4.977h-1.5c-1.93,0-3.5-1.57-3.5-3.505l-.013-3.962c.005-.438,.372-.533,.513-.533,.502,0,.714,.183,.799,.757l.533,2.648c.241,1.152,.991,1.954,2.005,2.146,.006,0,.011,.002,.017,.003l1.146,.203v2.243Z"/>
</svg>
