<?xml version="1.0" encoding="UTF-8"?>
<svg xmlns="http://www.w3.org/2000/svg" id="Layer_1" data-name="Layer 1" viewBox="0 0 24 24">
  <path d="M18,12c-3.314,0-6,2.686-6,6s2.686,6,6,6,6-2.686,6-6-2.686-6-6-6Zm3,7h-6c-.552,0-1-.448-1-1s.448-1,1-1h6c.552,0,1,.448,1,1s-.448,1-1,1ZM4,8v3c0,2.481,2.019,4.5,4.5,4.5,.828,0,1.5,.672,1.5,1.5v5.5c0,.828-.672,1.5-1.5,1.5s-1.5-.672-1.5-1.5v-4.15c-3.419-.697-6-3.728-6-7.35v-3.092c-.581-.207-1-.756-1-1.408,0-.828,.672-1.5,1.5-1.5h2.5V1.5c0-.828,.672-1.5,1.5-1.5s1.5,.672,1.5,1.5v3.5h3V1.5c0-.828,.672-1.5,1.5-1.5s1.5,.672,1.5,1.5v3.5h2.5c.828,0,1.5,.672,1.5,1.5,0,.652-.419,1.201-1,1.408v1.592c0,.828-.672,1.5-1.5,1.5s-1.5-.672-1.5-1.5v-1.5H4Z"/>
</svg>
