<?xml version="1.0" encoding="UTF-8"?>
<svg xmlns="http://www.w3.org/2000/svg" id="Layer_1" data-name="Layer 1" viewBox="0 0 24 24">
  <path d="M8.854,22.133c-.257,.541-.795,.857-1.356,.857-.216,0-.435-.047-.643-.146C3.209,21.112,.692,17.698,.122,13.712c-.117-.82,.452-1.58,1.272-1.697,.813-.118,1.58,.452,1.697,1.272,.427,2.988,2.316,5.547,5.052,6.847,.749,.355,1.067,1.25,.711,1.999ZM2,7.997H6.586c.891,0,1.337-1.077,.707-1.707l-1.127-1.127c1.616-1.382,3.666-2.163,5.834-2.163,3.457,0,6.65,2.019,8.135,5.144,.257,.541,.795,.857,1.356,.857,.216,0,.435-.047,.643-.146,.749-.355,1.067-1.25,.711-1.999C20.866,2.691,16.609,0,12,0c-2.972,0-5.776,1.099-7.957,3.04l-1.336-1.336c-.63-.63-1.707-.184-1.707,.707V6.997c0,.552,.448,1,1,1Zm11.018,3.134c-.636-.264-1.353-.126-1.865,.388l-2.751,2.96c-.564,.607-.529,1.556,.077,2.12,.607,.564,1.557,.529,2.12-.077l.427-.459-.025,6.432c-.003,.829,.666,1.502,1.494,1.506h.006c.826,0,1.497-.668,1.5-1.494l.039-9.87c0-.657-.4-1.248-1.021-1.505Zm9.948,6.186c-.757-.836-1.838-1.316-2.966-1.316h-1v-2h3c.829,0,1.5-.671,1.5-1.5s-.671-1.5-1.5-1.5h-3.5c-1.378,0-2.5,1.122-2.5,2.5v3c0,1.378,1.122,2.5,2.5,2.5h1.5c.286,0,.55,.117,.742,.33,.111,.123,.292,.387,.252,.779-.049,.492-.56,.892-1.137,.892h-2.357c-.829,0-1.5,.671-1.5,1.5s.671,1.5,1.5,1.5h2.357c2.11,0,3.92-1.578,4.123-3.593,.112-1.128-.257-2.254-1.014-3.09Z"/>
</svg>
