<?xml version="1.0" encoding="UTF-8"?>
<svg xmlns="http://www.w3.org/2000/svg" id="Layer_1" data-name="Layer 1" viewBox="0 0 24 24">
  <path d="M13.5,18.5h0c0,.828-.672,1.5-1.5,1.5s-1.5-.672-1.5-1.5h0c0-.828,.672-1.5,1.5-1.5s1.5,.672,1.5,1.5Zm-.716-9.399c-.924-.239-1.879-.047-2.619,.526s-1.165,1.438-1.165,2.374c0,.552,.448,1,1,1s1-.448,1-1c0-.312,.142-.601,.389-.792,.146-.112,.456-.285,.894-.171,.324,.083,.597,.357,.681,.68,.148,.577-.178,1.021-.544,1.191-.809,.375-1.419,1.36-1.419,2.292,0,.552,.448,1,1,1s1-.448,1-1c0-.188,.175-.428,.26-.477,1.317-.609,2.006-2.084,1.64-3.505-.264-1.021-1.094-1.853-2.116-2.117Zm9.202,9.379c.005,1.473-.564,2.859-1.604,3.902-1.04,1.043-2.423,1.618-3.896,1.618H7.5c-3.033,0-5.5-2.467-5.5-5.5V5.5C2,2.467,4.467,0,7.5,0h6.343c1.469,0,2.85,.572,3.889,1.61l2.657,2.657c.815,.816,1.557,2.222,1.557,3.227s.04,10.985,.04,10.985Zm-3,.011l-.035-9.491h-3.951c-1.105,0-2-.895-2-2V3H7.5c-1.378,0-2.5,1.122-2.5,2.5v13c0,1.378,1.122,2.5,2.5,2.5h8.986c.669,0,1.298-.261,1.771-.735,.473-.474,.732-1.104,.729-1.774Z"/>
</svg>
