<?xml version="1.0" encoding="UTF-8"?>
<svg xmlns="http://www.w3.org/2000/svg" id="Layer_1" data-name="Layer 1" viewBox="0 0 24 24">
  <path d="m10.563,9.019c.551.551.855,1.283.855,2.063,0,.988-.488,1.899-1.345,2.461-.93.61-2.183.615-3.12.016-.876-.56-1.372-1.482-1.372-2.478,0-.779.304-1.512.847-2.056l1.341-1.728c.406-.397,1.055-.397,1.461,0l1.333,1.721Zm13.437,1.254v5.363c0,1.934-1.274,3.56-3.02,4.13.006.078.02.154.02.234,0,1.657-1.343,3-3,3s-3-1.343-3-3h-6c0,1.657-1.343,3-3,3s-3-1.343-3-3c0-.08.014-.156.02-.234-1.746-.57-3.02-2.196-3.02-4.13V6.318C0,3.386,2.386,1,5.318,1h6.363c2.475,0,4.542,1.707,5.133,4h1.867c2.933,0,5.318,2.365,5.318,5.273Zm-5.318-2.273h-1.682v3h4v-.727c0-1.274-1.019-2.273-2.318-2.273Zm-4.682,9V6.318c0-1.278-1.04-2.318-2.318-2.318h-6.363c-1.278,0-2.318,1.04-2.318,2.318v9.318c0,.752.612,1.364,1.364,1.364h9.636Zm7-1.364v-1.636h-4v3h2.636c.752,0,1.364-.612,1.364-1.364Z"/>
</svg>
