<?xml version="1.0" encoding="UTF-8"?>
<svg xmlns="http://www.w3.org/2000/svg" id="Layer_1" data-name="Layer 1" viewBox="0 0 24 24">
  <path d="M11.798,6.981c-.798,.127-1.591-.447-1.716-1.247-.16-1.01-.773-1.862-1.682-2.339-1.433-.794-3.803-.353-4.789,1.14-2.448,3.676,3.12,9.748,6.795,12.756,.633,.519,.764,1.473,.257,2.115-.542,.695-1.54,.781-2.179,.188C2.706,14.864-2.283,7.974,1.115,2.872,2.908,.119,7.045-.775,9.793,.738c.678,.355,1.268,.821,1.759,1.369,.491-.56,1.082-1.034,1.764-1.391,2.696-1.489,6.809-.559,8.569,2.155,1.062,1.595,1.903,4.331-.126,8.311-.378,.745-1.296,1.027-2.018,.654-.738-.376-1.031-1.279-.655-2.018,1.115-2.187,1.214-3.915,.302-5.283-.958-1.457-3.298-1.942-4.68-1.161-.894,.468-1.499,1.328-1.663,2.36-.105,.631-.617,1.14-1.247,1.247Zm11.764,14.458l-2.401-2.401,2.288-1.144c.343-.172,.558-.527,.551-.913-.007-.386-.235-.732-.586-.892,0,0-8.734-3.97-8.765-3.98-.728-.246-1.518-.066-2.062,.479-.545,.544-.728,1.334-.442,2.151l3.944,8.675c.159,.351,.506,.579,.892,.586h.019c.378,0,.725-.214,.895-.553l1.144-2.288,2.401,2.401c.586,.585,1.536,.585,2.122,0,.586-.586,.586-1.535,0-2.121Z"/>
</svg>
