<?xml version="1.0" encoding="UTF-8"?>
<svg xmlns="http://www.w3.org/2000/svg" id="Layer_1" data-name="Layer 1" viewBox="0 0 24 24">
  <path d="m18.5,0H5.5C2.467,0,0,2.467,0,5.5v1c0,.95.383,1.81,1,2.442v9.558c0,3.033,2.467,5.5,5.5,5.5h3c.829,0,1.5-.671,1.5-1.5s-.671-1.5-1.5-1.5h-3c-1.378,0-2.5-1.122-2.5-2.5v-8.5h16.5c1.93,0,3.5-1.57,3.5-3.5v-1c0-3.033-2.468-5.5-5.5-5.5Zm2.5,6.5c0,.276-.225.5-.5.5H3.5c-.276,0-.5-.224-.5-.5v-1c0-1.378,1.122-2.5,2.5-2.5h13c1.379,0,2.5,1.122,2.5,2.5v1Zm-3,5.5c-3.314,0-6,2.686-6,6s2.686,6,6,6,6-2.686,6-6-2.686-6-6-6Zm2.5,8.5c-.391.39-1.024.39-1.414,0l-1.793-1.793c-.188-.188-.293-.442-.293-.707v-3c0-.552.448-1,1-1h0c.552,0,1,.448,1,1v2.586l1.5,1.5c.391.39.391,1.024,0,1.414Z"/>
</svg>
