<?xml version="1.0" encoding="UTF-8"?>
<svg xmlns="http://www.w3.org/2000/svg" id="Layer_1" data-name="Layer 1" viewBox="0 0 24 24">
  <path d="M19.5,11H4.5c-2.481,0-4.5,2.019-4.5,4.5v2c0,1.557,.795,2.93,2,3.738v1.262c0,.828,.672,1.5,1.5,1.5s1.5-.672,1.5-1.5v-.5h14v.5c0,.828,.672,1.5,1.5,1.5s1.5-.672,1.5-1.5v-1.262c1.205-.808,2-2.182,2-3.738v-2c0-2.481-2.019-4.5-4.5-4.5ZM3,15.5c0-.827,.673-1.5,1.5-1.5h15c.827,0,1.5,.673,1.5,1.5v2c0,.827-.673,1.5-1.5,1.5H4.5c-.827,0-1.5-.673-1.5-1.5v-2ZM16.906,6.646c.66,.501,.789,1.441,.289,2.102-.503,.664-1.447,.786-2.102,.289-1.789-1.357-4.398-1.357-6.188,0-.657,.499-1.601,.371-2.102-.289-.5-.66-.371-1.601,.289-2.102,1.4-1.062,3.143-1.646,4.906-1.646s3.506,.585,4.906,1.646ZM3.82,4.838c-.512-.651-.398-1.595,.254-2.105C6.319,.971,9.134,0,12,0c2.924,0,5.783,1.006,8.052,2.831,.646,.52,.747,1.464,.229,2.109-.523,.648-1.468,.745-2.109,.229-1.737-1.398-3.929-2.169-6.171-2.169-2.197,0-4.354,.743-6.074,2.092-.651,.512-1.594,.398-2.105-.254Zm.18,11.662c0-.828,.672-1.5,1.5-1.5s1.5,.672,1.5,1.5-.672,1.5-1.5,1.5-1.5-.672-1.5-1.5Zm4,0c0-.828,.672-1.5,1.5-1.5s1.5,.672,1.5,1.5-.672,1.5-1.5,1.5-1.5-.672-1.5-1.5Z"/>
</svg>
