<?xml version="1.0" encoding="UTF-8"?>
<svg xmlns="http://www.w3.org/2000/svg" id="Layer_1" data-name="Layer 1" viewBox="0 0 24 24">
  <path d="m23,15.778v-2.278c0-2.481-2.019-4.5-4.5-4.5s-4.5,2.019-4.5,4.5v2.278c-.61.549-1,1.336-1,2.221v3c0,1.657,1.343,3,3,3h5c1.657,0,3-1.343,3-3v-3c0-.885-.39-1.672-1-2.221Zm-4.5-3.778c.827,0,1.5.673,1.5,1.5v1.5h-3v-1.5c0-.827.673-1.5,1.5-1.5Zm0,9c-.828,0-1.5-.672-1.5-1.5s.672-1.5,1.5-1.5,1.5.672,1.5,1.5-.672,1.5-1.5,1.5ZM3,9.886v8.614c0,1.379,1.122,2.5,2.5,2.5h4c.829,0,1.5.672,1.5,1.5s-.671,1.5-1.5,1.5h-4C2.467,24,0,21.532,0,18.5v-8.614C0,8.055.906,6.351,2.424,5.327L8.924.941c1.868-1.261,4.283-1.261,6.152,0l6.263,4.227c.687.463.868,1.396.404,2.082-.463.687-1.395.868-2.082.404l-6.263-4.226c-.85-.572-1.947-.573-2.797,0l-6.5,4.386c-.69.466-1.102,1.24-1.102,2.072Z"/>
</svg>
