<?xml version="1.0" encoding="UTF-8"?>
<svg xmlns="http://www.w3.org/2000/svg" id="Layer_1" data-name="Layer 1" viewBox="0 0 24 24">
  <path d="M16.331,14.968c.218,.454,.226,.983,.02,1.451-.389,.882-1.423,1.283-2.316,.888-1.568-.678-7.045-3.71-7.045-3.71-1.301-.661-1.295-2.518,.01-3.171,0,0,7.027-3.732,7.03-3.734,.643-.294,1.415-.161,1.948,.359,.501,.498,.646,1.239,.414,1.798-.094,.186-1.61,3.149-1.61,3.149,0,0,1.362,2.653,1.549,2.968Zm7.669-2.968c0,6.617-5.383,12-12,12S0,18.617,0,12,5.383,0,12,0s12,5.383,12,12Zm-3,0c0-4.962-4.038-9-9-9S3,7.038,3,12s4.038,9,9,9,9-4.037,9-9Z"/>
</svg>
