<?xml version="1.0" encoding="UTF-8"?>
<svg xmlns="http://www.w3.org/2000/svg" id="Layer_1" data-name="Layer 1" viewBox="0 0 24 24">
  <path d="M18.5,2H5.5C2.468,2,0,4.467,0,7.5v9c0,3.033,2.468,5.5,5.5,5.5h13c3.032,0,5.5-2.467,5.5-5.5V7.5c0-3.033-2.468-5.5-5.5-5.5Zm2.5,14.5c0,1.378-1.121,2.5-2.5,2.5H5.5c-1.379,0-2.5-1.122-2.5-2.5V7.5c0-1.378,1.121-2.5,2.5-2.5h13c1.379,0,2.5,1.122,2.5,2.5v9Zm-1.73-2.565c-.152,1.08-1.108,1.865-2.198,1.865h-.28v.4c0,.442-.358,.8-.8,.8s-.8-.358-.8-.8v-.4h-.2c-.712,0-1.348-.325-1.77-.833-.418-.504-.063-1.266,.592-1.266h.076c.227,0,.434,.107,.588,.274,.128,.139,.312,.226,.515,.226h2.103c.278,0,.532-.187,.586-.46,.063-.318-.146-.615-.451-.677l-2.791-.559c-1.112-.223-1.888-1.281-1.725-2.439,.152-1.08,1.108-1.866,2.199-1.866h.28v-.4c0-.442,.358-.8,.8-.8s.8,.358,.8,.8v.4h.2c.711,0,1.348,.324,1.77,.833,.418,.504,.063,1.266-.592,1.266-.249,0-.495-.091-.664-.274-.128-.139-.312-.226-.515-.226h-2.102c-.278,0-.532,.186-.587,.458-.064,.318,.146,.617,.449,.678l2.792,.559c1.112,.222,1.889,1.282,1.725,2.439Zm-8.27-4.435c0,.829-.672,1.5-1.5,1.5h-3c-.828,0-1.5-.671-1.5-1.5s.672-1.5,1.5-1.5h3c.828,0,1.5,.671,1.5,1.5Zm0,5c0,.829-.672,1.5-1.5,1.5h-3c-.828,0-1.5-.671-1.5-1.5s.672-1.5,1.5-1.5h3c.828,0,1.5,.671,1.5,1.5Z"/>
</svg>
