<?xml version="1.0" encoding="UTF-8"?>
<svg xmlns="http://www.w3.org/2000/svg" id="Layer_1" data-name="Layer 1" viewBox="0 0 24 24">
  <path d="m8.934,18.567c-.198.646-.792,1.06-1.433,1.06-.146,0-.294-.021-.441-.067C2.837,18.263,0,14.42,0,10,0,4.486,4.486,0,10,0c1.001,0,1.99.148,2.94.439.792.243,1.236,1.083.993,1.875-.242.792-1.081,1.235-1.874.994-.665-.204-1.357-.308-2.06-.308-3.86,0-7,3.14-7,7,0,3.095,1.985,5.785,4.94,6.693.792.243,1.237,1.083.993,1.874Zm14.638-1.617c-.58-.592-1.529-.6-2.121-.021l-2.45,2.401V1.5c0-.829-.672-1.5-1.5-1.5s-1.5.671-1.5,1.5v17.793l-2.396-2.396c-.586-.586-1.535-.586-2.121,0-.586.585-.586,1.536,0,2.121l4.25,4.25c.488.489,1.131.732,1.771.732.637,0,1.272-.241,1.753-.722l4.293-4.207c.592-.58.602-1.529.021-2.121Zm-10.289-5.016c.164-1.158-.613-2.217-1.725-2.439l-2.792-.559c-.304-.061-.514-.36-.449-.678.055-.272.309-.458.587-.458h2.101c.203,0,.387.087.515.226.154.167.361.274.588.274h.076c.654,0,1.01-.763.592-1.266-.422-.509-1.059-.833-1.77-.833h-.2v-.4c0-.442-.358-.8-.8-.8s-.8.358-.8.8v.4h-.28c-1.091,0-2.046.786-2.199,1.866-.163,1.158.613,2.216,1.725,2.439l2.791.559c.304.062.514.359.451.677-.054.273-.308.46-.586.46h-2.103c-.203,0-.387-.087-.515-.226-.154-.167-.361-.274-.588-.274h-.076c-.654,0-1.01.763-.592,1.266.422.509,1.059.833,1.77.833h.2v.4c0,.442.358.8.8.8s.8-.358.8-.8v-.4h.28c1.091,0,2.046-.785,2.199-1.865Z"/>
</svg>
