<?xml version="1.0" encoding="UTF-8"?>
<svg xmlns="http://www.w3.org/2000/svg" id="Layer_1" data-name="Layer 1" viewBox="0 0 24 24">
  <path d="M23.773,11.452c.302,.302,.302,.793,0,1.096l-2.451,2.451c-.488,.488-1.322,.142-1.322-.548v-.951h-.5c-.829,0-1.5-.671-1.5-1.5s.671-1.5,1.5-1.5h.5v-.951c0-.69,.834-1.036,1.322-.548l2.451,2.451Zm-5.273-5.452h1.5v.951c0,.69,.834,1.036,1.322,.548l2.451-2.451c.302-.303,.302-.793,0-1.096l-2.451-2.451c-.488-.488-1.322-.142-1.322,.548v.951h-1.5c-.829,0-1.5,.671-1.5,1.5s.671,1.5,1.5,1.5Zm2.822,10.502c-.488-.488-1.322-.142-1.322,.548v.951h-1.5c-.829,0-1.5,.671-1.5,1.5s.671,1.5,1.5,1.5h1.5v.951c0,.69,.834,1.036,1.322,.548l2.451-2.451c.302-.303,.302-.793,0-1.096l-2.451-2.451Zm-4.322-4.502c0,3.205-.963,5.818-1.771,7.446-.618,1.244-1.873,1.989-3.23,1.989-.292,0-.588-.034-.884-.105-4.546-1.095-7.942-4.655-9.971-6.782-1.415-1.284-1.546-3.491-.207-4.878t0,0C3.119,7.397,6.398,3.837,11.114,2.67c1.673-.401,3.364,.372,4.115,1.884,.808,1.627,1.771,4.241,1.771,7.445Zm-3.224-2.38c-1.024,.313-1.776,1.255-1.776,2.38s.752,2.068,1.776,2.38c.135-.738,.224-1.531,.224-2.38s-.089-1.642-.224-2.38Zm-1.235,8.493c.125-.251,.253-.54,.381-.846-2.266-.68-3.922-2.782-3.922-5.267s1.657-4.587,3.922-5.267c-.128-.306-.256-.594-.381-.845-.124-.25-.422-.375-.725-.301-3.687,.888-6.701,4.048-8.502,5.936-.389,.275-.388,.678,0,.953,1.801,1.888,4.815,5.048,8.502,5.936,.3,.071,.601-.051,.725-.3Z"/>
</svg>
