<?xml version="1.0" encoding="UTF-8"?>
<svg xmlns="http://www.w3.org/2000/svg" id="Layer_1" data-name="Layer 1" viewBox="0 0 24 24">
  <path d="m24,7.5v9.354c0,1.341-.488,2.633-1.375,3.638-.549.622-1.495.681-2.117.133-.621-.548-.681-1.496-.133-2.117.403-.457.625-1.044.625-1.653V7.5c0-1.378-1.121-2.5-2.5-2.5H5.5c-1.379,0-2.5,1.122-2.5,2.5v9c0,1.378,1.121,2.5,2.5,2.5h3c.828,0,1.5.671,1.5,1.5s-.672,1.5-1.5,1.5h-3c-3.032,0-5.5-2.467-5.5-5.5V7.5C0,4.467,2.468,2,5.5,2h13c3.032,0,5.5,2.467,5.5,5.5Zm-5,1c0-.829-.672-1.5-1.5-1.5H6.5c-.828,0-1.5.671-1.5,1.5s.672,1.5,1.5,1.5h11c.828,0,1.5-.671,1.5-1.5Zm.5,8c0,1.557-.795,2.93-2,3.738v3.109c0,.623-.791.89-1.169.395l-1.331-1.743-1.331,1.743c-.378.495-1.169.228-1.169-.395v-3.109c-1.205-.808-2-2.182-2-3.738,0-2.481,2.019-4.5,4.5-4.5s4.5,2.019,4.5,4.5Zm-6,0c0,.827.673,1.5,1.5,1.5s1.5-.673,1.5-1.5-.673-1.5-1.5-1.5-1.5.673-1.5,1.5Zm-7-4.5c-.828,0-1.5.671-1.5,1.5s.672,1.5,1.5,1.5h1c.828,0,1.5-.671,1.5-1.5s-.672-1.5-1.5-1.5h-1Z"/>
</svg>
