<?xml version="1.0" encoding="UTF-8"?>
<svg xmlns="http://www.w3.org/2000/svg" id="Layer_1" data-name="Layer 1" viewBox="0 0 24 24">
  <path d="m18.5,1H5.5C2.462,1,0,3.462,0,6.5v11c0,3.033,2.467,5.5,5.5,5.5h13c3.033,0,5.5-2.467,5.5-5.5V6.5c0-3.038-2.462-5.5-5.5-5.5Zm-9,2c.828,0,1.5.672,1.5,1.5s-.672,1.5-1.5,1.5-1.5-.672-1.5-1.5.672-1.5,1.5-1.5Zm-5,0c.828,0,1.5.672,1.5,1.5s-.672,1.5-1.5,1.5-1.5-.672-1.5-1.5.672-1.5,1.5-1.5Zm16.5,14.5c0,1.378-1.122,2.5-2.5,2.5H5.5c-1.378,0-2.5-1.122-2.5-2.5v-9.5h18v9.5ZM5,11.5c0-.829.671-1.5,1.5-1.5h5c.829,0,1.5.671,1.5,1.5s-.671,1.5-1.5,1.5h-5c-.829,0-1.5-.671-1.5-1.5Zm0,5c0-.829.671-1.5,1.5-1.5h5c.829,0,1.5.671,1.5,1.5s-.671,1.5-1.5,1.5h-5c-.829,0-1.5-.671-1.5-1.5Zm10,0v-5c0-.829.671-1.5,1.5-1.5h1c.829,0,1.5.671,1.5,1.5v5c0,.829-.671,1.5-1.5,1.5h-1c-.829,0-1.5-.671-1.5-1.5Z"/>
</svg>
