<?xml version="1.0" encoding="UTF-8"?>
<svg xmlns="http://www.w3.org/2000/svg" id="Layer_1" data-name="Layer 1" viewBox="0 0 24 24">
  <path d="m7,2.75c0-1.519,1.119-2.75,2.5-2.75s2.5,1.231,2.5,2.75c0-1.519,1.119-2.75,2.5-2.75s2.5,1.231,2.5,2.75c0,2.048-2.572,4.681-4.032,5.885-.59.486-1.432.486-2.022,0-1.461-1.204-3.946-3.837-3.946-5.885Zm5,8.25c-1.381,0-2.5,1.119-2.5,2.5s1.119,2.5,2.5,2.5,2.5-1.119,2.5-2.5-1.119-2.5-2.5-2.5Zm10.603.482c-.563-.61-1.514-.646-2.12-.084l-6.069,5.602h-4.826l-6.069-5.602c-.608-.561-1.557-.525-2.12.084-.562.609-.523,1.558.085,2.12l6.5,6c.005.005.012.006.018.011v2.887c0,.829.672,1.5,1.5,1.5s1.5-.671,1.5-1.5v-2.5h2v2.5c0,.829.672,1.5,1.5,1.5s1.5-.671,1.5-1.5v-2.887c.005-.005.012-.006.018-.011l6.5-6c.608-.562.646-1.511.085-2.12Z"/>
</svg>
