<?xml version="1.0" encoding="UTF-8"?>
<svg xmlns="http://www.w3.org/2000/svg" id="Layer_1" data-name="Layer 1" viewBox="0 0 24 24">
  <path d="m24,21c0,1.657-1.343,3-3,3s-3-1.343-3-3c0-.695.246-1.326.642-1.835l-.629-2.656-1.141,1.427c-1.05,1.312-2.615,2.064-4.295,2.064h-4.761c.112.314.184.647.184,1,0,1.657-1.343,3-3,3s-3-1.343-3-3c0-.353.072-.686.184-1h-.684c-.828,0-1.5-.671-1.5-1.5s.672-1.5,1.5-1.5h11.077c.764,0,1.476-.342,1.953-.938l2.606-3.257-1.866-7.881c-.269-1.133-1.269-1.924-2.433-1.924h-.337c-.828,0-1.5-.671-1.5-1.5s.672-1.5,1.5-1.5h.337c2.561,0,4.762,1.74,5.353,4.232l3.271,13.815c1.437.223,2.539,1.455,2.539,2.954Z"/>
</svg>
