<?xml version="1.0" encoding="UTF-8"?>
<svg xmlns="http://www.w3.org/2000/svg" id="Layer_1" data-name="Layer 1" viewBox="0 0 24 24">
  <path d="M24,18.2c0,.442-.358,.8-.8,.8h-2.133c-.442,0-.8-.358-.8-.8v-6.401c0-.442,.358-.8,.8-.8h0c.442,0,.8,.358,.8,.8v5.601s.577,0,1.331,0c.442,0,.802,.358,.802,.8Zm-4.852-.168c.312,.312,.312,.818,0,1.13s-.818,.312-1.13,0l-.432-.432c-.453,.224-.973,.331-1.537,.226-1.209-.224-2.065-1.313-2.065-2.542v-2.916c0-1.411,1.168-2.548,2.59-2.498,1.354,.048,2.408,1.202,2.408,2.557v2.939c0,.398-.101,.768-.267,1.102l.432,.432Zm-1.765-4.534c0-.496-.404-.9-.9-.9s-.9,.404-.9,.9v2.999c0,.496,.404,.9,.9,.9s.9-.404,.9-.9v-2.999Zm-6.438,4.004c-.381,0-.754-.107-1.07-.298-.285-.172-.651-.124-.886,.11l-.002,.002c-.329,.328-.269,.872,.118,1.129,.539,.357,1.176,.553,1.84,.553,1.221,0,2.245-.853,2.436-2.028,.143-.882-.224-2.036-1.685-2.627-.56-.227-1.084-.467-1.366-.595-.099-.045-.428-.173-.433-.615-.002-.131,.103-.441,.515-.577,.427-.138,.832-.046,1.137,.088,.304,.133,.66,.038,.863-.225,.278-.36,.165-.887-.24-1.093-.549-.279-1.313-.48-2.152-.203-.796,.263-1.359,.951-1.471,1.796-.106,.818,.23,1.565,.921,2.049,.003,0,.838,.409,1.753,.78,.214,.086,.905,.409,.817,.959-.065,.391-.492,.795-1.096,.795Zm7.444-13.236l-2.657-2.657c-1.039-1.039-2.42-1.611-3.889-1.611H5.5C2.467,0,0,2.467,0,5.5v13c0,3.033,2.467,5.5,5.5,5.5H15.5c.712,0,1.406-.135,2.063-.401,.768-.311,1.138-1.186,.827-1.953s-1.184-1.138-1.954-.827c-.297,.12-.612,.181-.937,.181H5.5c-1.378,0-2.5-1.122-2.5-2.5V5.5c0-1.378,1.122-2.5,2.5-2.5h5.5v4c0,1.105,.895,2,2,2h5.393c.915,0,1.669-.93,1.533-1.747-.19-1.137-.721-2.168-1.536-2.985Z"/>
</svg>
