<?xml version="1.0" encoding="UTF-8"?>
<svg xmlns="http://www.w3.org/2000/svg" id="Layer_1" data-name="Layer 1" viewBox="0 0 24 24">
  <path d="m13.04,7.209l-.002-5.207c0-1.104.895-2,1.999-2.001l4-.002c1.105,0,2.001.895,2.001,2v2.002c0,1.104-.894,1.999-1.998,2l-2.497.003-2.288,1.87c-.526.336-1.215-.041-1.215-.665Zm-8.042-1.207l2.497.003,2.288,1.87c.526.336,1.215-.041,1.215-.665l.002-5.207c0-1.104-.895-2-1.999-2.001l-4-.002c-1.105,0-2.001.895-2.001,2v2.002c0,1.104.894,1.999,1.998,2Zm17.502,10.998h-3.687c-.178,0-.354.018-.529.044l-4.572-4.461.315-.341c.295-.256.74-.312,1.089-.138.049.024.1.047.152.065l1.163.429c.722.267,1.479.401,2.248.401h3.819c.829,0,1.5-.672,1.5-1.5s-.671-1.5-1.5-1.5h-3.819c-.415,0-.822-.072-1.211-.216l-1.094-.403c-1.453-.686-3.262-.396-4.432.702-.025.023-.049.048-.073.073l-.033.036-.168-.153c-1.208-1.099-3.031-1.351-4.537-.594l-.231.126c-.514.28-1.095.429-1.679.429H1.5c-.829,0-1.5.672-1.5,1.5s.671,1.5,1.5,1.5h3.723c1.085,0,2.163-.275,3.115-.795l.184-.102c.311-.153.817-.131,1.129.154l.149.136-1.227,1.325c-.676.676-.768,1.72-.218,2.484.33.458.841.746,1.401.791.56.042,1.11-.158,1.516-.565l1.02-1.04,3.28,3.201-2.707,2.113c-.492.385-1.238.385-1.73,0l-3.794-2.961c-.612-.478-1.377-.741-2.153-.741H1.5c-.829,0-1.5.672-1.5,1.5s.671,1.5,1.5,1.5h3.687c.11,0,.22.038.308.106l3.794,2.961c.771.602,1.734.933,2.711.933s1.94-.331,2.711-.933l3.794-2.961c.088-.068.197-.106.308-.106h3.687c.829,0,1.5-.672,1.5-1.5s-.671-1.5-1.5-1.5Z"/>
</svg>
