<?xml version="1.0" encoding="UTF-8"?>
<svg xmlns="http://www.w3.org/2000/svg" id="Layer_1" data-name="Layer 1" viewBox="0 0 24 24">
  <path d="m11.855,14.739l-3.944,8.675c-.159.351-.506.579-.892.586h-.019c-.378,0-.725-.214-.895-.553l-1.144-2.288-2.401,2.401c-.293.293-.677.439-1.061.439s-.768-.146-1.061-.439c-.586-.586-.586-1.535,0-2.121l2.401-2.401-2.288-1.144C.208,17.722-.007,17.367,0,16.981s.235-.732.586-.892c0,0,8.734-3.97,8.765-3.98.728-.246,1.518-.066,2.062.479.545.544.728,1.334.442,2.151Zm12.145-2.739c0,6.617-5.383,12-12,12,0,0,0,0,0,0s0,0,0,0c0,0,0,0-.001,0-.834,0-1.492-.5-1.492-1.442,0-.682.334-1.009.352-1.029.035-.041,3.643-4.375,3.643-9.528,0-3.267-1.429-6.178-2.497-7.899-.753,1.215-1.686,3.017-2.172,5.112-.16.692-.777,1.161-1.46,1.161-.112,0-.226-.013-.34-.039-.807-.187-1.31-.992-1.122-1.8.446-1.924,1.194-3.616,1.92-4.948-3.401,1.286-5.829,4.567-5.829,8.412,0,.828-.672,1.5-1.5,1.5s-1.5-.672-1.5-1.5C0,5.425,5.5,0,12,0s12,5.427,12,12ZM15.17,3.587c.965,1.767,1.959,4.176,2.243,6.913h3.452c-.537-3.183-2.746-5.798-5.694-6.913Zm5.694,9.913h-3.452c-.283,2.737-1.278,5.145-2.243,6.913,2.948-1.115,5.157-3.729,5.694-6.913Z"/>
</svg>
