<?xml version="1.0" encoding="UTF-8"?>
<svg xmlns="http://www.w3.org/2000/svg" id="Layer_1" data-name="Layer 1" viewBox="0 0 24 24">
  <path d="M6.658,10.68c.746,.73,1.939,.73,2.685,0l2.193-2.144c.945-.944,1.465-2.2,1.465-3.536s-.52-2.592-1.465-3.536c-.945-.944-2.201-1.464-3.535-1.464s-2.592,.52-3.535,1.464c-.945,.944-1.465,2.2-1.465,3.536s.52,2.592,1.475,3.545l2.183,2.135Zm1.342-7.68c1.105,0,2,.895,2,2s-.895,2-2,2-2-.895-2-2,.895-2,2-2ZM24,7s-2.007,4.037-2,4.5c.009,.575,0,1.5,0,2.5,0,.5-.34,.805-.55,1.17-.378,.657-1.004,1.39-1.355,2.059-.042,.079-.074,.172-.095,.27-.056,.255-.045,.551,.039,.767,.257,.656,.58,1.265,.915,1.89,.14,.261,.251,.529,.309,.813,.109,.532-.293,1.031-.836,1.031h-.017c-.279,0-.537-.132-.7-.354-.345-.469-.711-1.141-.711-1.647,0-1-1.383-1-2-1-.419,0-.662,.175-.804,.379-.274,.394-.73,.621-1.21,.621h-.987c-.331,.24-.907,1.978-1.356,3-.328,.745-1.319,.872-1.828,.255-.324-.391-.635-1.355-.816-1.716-.169-.339-.731-.469-1.216-.517-.601-.048-1.047-.492-1.284-1.021-.508-.896-2.423-1.821-4-2-.406-.076-.765,.167-1.151,.19-.339,0-.666-.187-.837-.499-.813-1.482-1.511-3.467-1.511-5.171-.011-.445,0-1.782,.08-2.126,.08-.753,.71-1.342,1.484-1.342,.828,0,1.5,.672,1.5,1.5-.068,.465-.073,1.493-.064,1.968,0,.681,.208,1.576,.559,2.477,.093,.005,.186,.012,.279,.023,1.739,.197,4.679,1.193,6.046,3.145,.543,.122,.992,.304,1.363,.52,.268-.447,.578-.813,.992-1.114,.512-.371,1.128-.571,1.76-.571h.32c.714-.643,1.653-1,2.68-1,.121,0,.239,.002,.355,.006,.027-.058,1.594-2.496,1.647-2.578,0,0,.002-.642,.002-.729-.236,.045-.472,.069-.703,.069-1.85,0-3.3-1.435-3.3-3.268l.057-.285c-.371-.273-.615-.709-.615-1.205,0-.828,.672-1.5,1.5-1.5,.125,0,.619,.103,.731,.133,.782,.205,1.327,.911,1.327,1.72v1.138c.068,.559,.911,.128,1.125-.096,.35-.371,1.061-1.307,1.499-1.895,.198-.266,.465-.473,.775-.59,.365-.138,.568-.442,.601-.918,.015-.217-.006-.842-.013-1.35-.004-.357,.284-.648,.639-.648,.004,0,.008,0,.012,0,.005,0,.009,0,.014,0,.232,.004,.443,.133,.552,.337,.344,.649,.795,1.78,.795,1.78v.88Z"/>
</svg>
