<?xml version="1.0" encoding="UTF-8"?>
<svg xmlns="http://www.w3.org/2000/svg" id="Layer_1" data-name="Layer 1" viewBox="0 0 24 24">
  <path d="M.065,2.039C-.176,1.561,.02,.976,.507,.752,1.827,.146,4.808-.653,7.633,.905c1.534,.846,2.181,2.64,1.624,4.222,.149,.396,.279,.82,.381,1.286,.41-.378,.874-.705,1.354-.995-.071-1.214,.698-2.412,1.91-2.941,2.029-.885,4.363-.339,5.482,.111,.502,.202,.721,.789,.478,1.272-.773,1.541-2.225,2.952-3.709,3.781-1.102,.616-2.431,.402-3.302-.422-.981,.64-1.73,1.533-1.979,2.154-.154,.383-.525,.627-.927,.627-.057,0-.113-.005-.171-.015-.465-.08-.81-.474-.829-.944-.04-.98-.164-1.835-.357-2.559-.308-.862-1.431-2.378-1.498-2.498-1.629-1.727-3.629-1.985-3.629-1.985,2.179,2.49,3,3.5,3.471,5.484-.605,.008-1.218-.121-1.784-.433C2.24,5.999,.935,3.771,.065,2.039ZM22.976,14.468l-5.196,5.943c-1.993,2.28-4.874,3.589-7.904,3.589H4.462C1.98,24-.038,21.981-.038,19.5v-4C-.038,13.019,1.98,11,4.462,11h7.858c.942,0,1.802,.36,2.449,.949l2.438-2.68c.697-.767,1.653-1.217,2.689-1.265,1.046-.052,2.03,.31,2.797,1.008,1.565,1.428,1.692,3.875,.282,5.455Zm-2.303-3.238c-.173-.158-.4-.236-.636-.229-.235,.011-.452,.113-.611,.288l-3.498,3.844c-.219,1.586-1.476,2.885-3.094,3.115l-5.161,.737c-.818,.111-1.58-.454-1.697-1.273-.117-.82,.453-1.58,1.273-1.697l5.161-.737c.314-.044,.551-.317,.551-.635,0-.354-.288-.643-.642-.643H4.462c-.827,0-1.5,.673-1.5,1.5v4c0,.827,.673,1.5,1.5,1.5h5.414c2.164,0,4.222-.935,5.646-2.563l5.206-5.954c.33-.371,.302-.928-.055-1.252Z"/>
</svg>
