<?xml version="1.0" encoding="UTF-8"?>
<svg xmlns="http://www.w3.org/2000/svg" id="Layer_1" data-name="Layer 1" viewBox="0 0 24 24">
  <path d="m1.5,4c0-1.105.895-2,2-2s2,.895,2,2-.895,2-2,2-2-.895-2-2Zm10.5,0c1.105,0,2-.895,2-2s-.895-2-2-2-2,.895-2,2,.895,2,2,2Zm8.5,2c1.105,0,2-.895,2-2s-.895-2-2-2-2,.895-2,2,.895,2,2,2Zm-1.444,11.225l-6.056-1.705v-4.926c0-.704-.447-1.368-1.129-1.543-1.001-.256-1.884.492-1.884,1.449v9.269l-1.64-1.296c-.866-.722-2.153-.604-2.874.261-.722.866-.605,2.153.261,2.874l1.68,1.483c.663.585,1.516.908,2.4.908h.762c1.338,0,2.423-1.085,2.423-2.423v-2.94l5.219,1.469c1.065.319,1.781,1.281,1.781,2.395,0,.828.672,1.5,1.5,1.5s1.5-.672,1.5-1.5c0-2.448-1.575-4.565-3.944-5.275ZM6.948,9.027c-.506-1.159-1.859-1.989-3.448-1.989S.558,7.868.052,9.027c-.216.496.28,1.011.922,1.011h5.052c.642,0,1.139-.516.922-1.011Zm2.525-1.027h5.052c.642,0,1.139-.516.922-1.011-.506-1.159-1.859-1.989-3.448-1.989s-2.942.83-3.448,1.989c-.216.496.28,1.011.922,1.011Zm14.475.989c-.506-1.159-1.859-1.989-3.448-1.989s-2.942.83-3.448,1.989c-.216.496.28,1.011.922,1.011h5.052c.642,0,1.139-.516.922-1.011Z"/>
</svg>
