<?xml version="1.0" encoding="UTF-8"?>
<svg xmlns="http://www.w3.org/2000/svg" id="Layer_1" data-name="Layer 1" viewBox="0 0 24 24">
  <path d="M22.138,17.625c-.285,.251-.639,.375-.992,.375-.416,0-.829-.172-1.125-.508-.548-.621-.489-1.569,.133-2.117,.608-.536,.912-1.312,.835-2.126-.108-1.133-.914-1.996-1.989-2.202-.025,.807-.687,1.453-1.5,1.453-.829,0-1.5-.672-1.5-1.5v-.5c0-1.179,.822-2.163,1.921-2.426-.447-2.869-2.928-5.074-5.921-5.074s-5.474,2.205-5.921,5.074c1.099,.263,1.921,1.247,1.921,2.426v.5c0,.828-.671,1.5-1.5,1.5-.813,0-1.475-.646-1.5-1.453-1.075,.205-1.88,1.069-1.988,2.203-.078,.814,.227,1.589,.834,2.125,.622,.548,.681,1.496,.133,2.117-.297,.336-.71,.508-1.125,.508-.353,0-.707-.124-.992-.375C.525,16.445-.144,14.747,.026,12.965c.185-1.94,1.361-3.534,2.994-4.357C3.227,3.828,7.17,0,12,0s8.773,3.828,8.98,8.608c1.633,.823,2.809,2.417,2.995,4.357,.169,1.782-.5,3.48-1.837,4.66Zm-4.138,.375c0,3.314-2.686,6-6,6s-6-2.686-6-6,2.686-6,6-6,6,2.686,6,6Zm-5.233,2.888l-3.656-3.655c-.066,.246-.112,.5-.112,.767,0,1.654,1.346,3,3,3,.267,0,.521-.046,.767-.112Zm2.233-2.888c0-1.654-1.346-3-3-3-.267,0-.521,.046-.767,.112l3.656,3.655c.066-.246,.112-.5,.112-.767Z"/>
</svg>
