<?xml version="1.0" encoding="UTF-8"?>
<svg xmlns="http://www.w3.org/2000/svg" id="Layer_1" data-name="Layer 1" viewBox="0 0 24 24">
  <path d="m23.547,20.075l-3.293,3.207c-.479.479-1.112.719-1.749.719-.641,0-1.283-.244-1.772-.733l-3.279-3.193c-.593-.578-.605-1.528-.027-2.121s1.526-.605,2.121-.028l1.453,1.415V1.5c0-.829.672-1.5,1.5-1.5s1.5.671,1.5,1.5v17.841l1.453-1.415c.596-.577,1.543-.565,2.121.028s.565,1.543-.027,2.121ZM12,6c0,.873-.19,1.699-.525,2.448.148.15.269.33.346.541.119.329.18.669.18,1.011v10.25c0,2.173-2.523,3.75-6,3.75s-6-1.577-6-3.75v-10.25c0-.342.061-.683.18-1.011.076-.211.198-.391.346-.541-.335-.748-.526-1.575-.526-2.448C0,2.686,2.686,0,6,0s6,2.686,6,6Zm-3,7.495c-.873.322-1.891.505-3,.505s-2.127-.183-3-.505v1.505c.077.263,1.121,1,3,1s2.915-.732,3-1.014v-1.491Zm-4.548-6.99l2.791.559c.304.062.514.359.451.677-.054.273-.308.46-.586.46h-2.103c-.203,0-.387-.087-.515-.226-.154-.167-.361-.274-.588-.274h-.076c-.654,0-1.01.763-.592,1.266.422.509,1.059.833,1.77.833h.2v.4c0,.441.358.799.799.8,0,0,.001,0,.002,0,.441,0,.798-.358.798-.799v-.4h.28c1.091,0,2.046-.785,2.199-1.865.164-1.158-.613-2.217-1.725-2.439l-2.792-.559c-.304-.061-.514-.36-.449-.678.055-.272.309-.458.587-.458h2.102c.203,0,.387.087.515.226.154.167.361.274.588.274h.076c.654,0,1.01-.763.592-1.266-.422-.509-1.059-.833-1.77-.833h-.2v-.4c0-.442-.358-.8-.8-.8s-.8.358-.8.8v.4h-.28c-1.091,0-2.046.786-2.199,1.866-.163,1.158.613,2.216,1.725,2.439Zm4.548,13.657v-1.667c-.873.322-1.891.505-3,.505s-2.127-.183-3-.505v1.667c.217.275,1.275.838,3,.838s2.783-.563,3-.838Z"/>
</svg>
