<?xml version="1.0" encoding="UTF-8"?>
<svg xmlns="http://www.w3.org/2000/svg" id="Layer_1" data-name="Layer 1" viewBox="0 0 24 24">
  <path d="M22.313,10.594c-.987-1.33-1.288-2.028-1.313-2.094v-3.229c0-2.505-1.81-4.588-4.303-4.952C13.809-.104,10.192-.104,7.303,.319,4.81,.684,3,2.766,3,5.271l.007,3.139c-.033,.156-.333,.853-1.321,2.186-.449,.606-.686,1.325-.686,2.081v5.824c0,3.033,2.467,5.5,5.5,5.5h11c3.032,0,5.5-2.467,5.5-5.5v-5.824c0-.754-.236-1.474-.687-2.082ZM13.836,3.06l-1.836,5.05-1.837-5.05c.598-.033,1.204-.06,1.837-.06s1.238,.027,1.836,.06ZM4,18.5v-5.824c0-.109,.032-.208,.096-.294,1.688-2.276,1.904-3.27,1.904-3.881v-3.229c0-.783,.449-1.459,1.125-1.789l3.375,9.282v8.236H6.5c-1.378,0-2.5-1.122-2.5-2.5Zm16,0c0,1.378-1.121,2.5-2.5,2.5h-4V12.764l3.376-9.282c.675,.33,1.124,1.005,1.124,1.789v3.229c0,.394,0,1.317,1.903,3.88,.063,.086,.097,.188,.097,.296v5.824Zm-1-3.237c0,.857-.964,1.908-1.642,2.494-.376,.325-.931,.325-1.307,0-.679-.586-1.642-1.637-1.642-2.494,0-.697,.514-1.263,1.148-1.263s1.148,.565,1.148,1.263c0-.697,.514-1.263,1.148-1.263s1.148,.565,1.148,1.263Z"/>
</svg>
