<?xml version="1.0" encoding="UTF-8"?>
<svg xmlns="http://www.w3.org/2000/svg" id="Layer_1" data-name="Layer 1" viewBox="0 0 24 24">
  <path d="M5.184,8h.816l.488,.488-.57,.57c-.559,.559-.558,1.464,0,2.023s1.464,.559,2.023,0l.57-.569,.488,.488v.816c0,.654,.53,1.184,1.184,1.184,.261,0,.52-.079,.723-.242,1.238-.993,2.065-2.402,2.065-4.108,2.002-2.214,3.205-4.811,3.949-6.874,.105-.291,.105-.609,0-.899-.248-.689-1.008-1.046-1.697-.798-2.05,.739-4.609,1.896-6.841,3.921-1.737,0-3.149,.851-4.142,2.094-.162,.203-.241,.462-.241,.722h0c0,.655,.53,1.185,1.184,1.185Zm5.316-3c.828,0,1.5,.672,1.5,1.5s-.672,1.5-1.5,1.5-1.5-.671-1.5-1.5,.672-1.5,1.5-1.5Zm12.515,12.468l-5.396,6.032c-.555,.619-1.502,.669-2.118,.118-.617-.553-.67-1.501-.118-2.118l5.396-6.03c.319-.358,.291-.915-.065-1.239-.357-.329-.932-.299-1.248,.059l-3.511,3.858c-.224,1.577-1.468,2.871-3.08,3.101l-5.161,.737c-.818,.11-1.58-.454-1.697-1.273-.117-.82,.453-1.58,1.273-1.697l5.161-.737c.314-.044,.551-.317,.551-.635,0-.354-.288-.643-.643-.643H4.5c-.827,0-1.5,.673-1.5,1.5v4c0,.828-.672,1.5-1.5,1.5s-1.5-.672-1.5-1.5v-4c0-2.481,2.019-4.5,4.5-4.5h7.857c.942,0,1.794,.369,2.441,.958l2.446-2.688c1.376-1.572,3.969-1.699,5.488-.256,1.564,1.427,1.691,3.875,.281,5.455Z"/>
</svg>
