<?xml version="1.0" encoding="UTF-8"?>
<svg xmlns="http://www.w3.org/2000/svg" id="Layer_1" data-name="Layer 1" viewBox="0 0 24 24">
  <path d="m19.5,1H4.5C2.015,1,0,3.015,0,5.5v12c0,3.033,2.467,5.5,5.5,5.5h13c3.033,0,5.5-2.467,5.5-5.5V5.5c0-2.485-2.015-4.5-4.5-4.5Zm-10,2c.828,0,1.5.672,1.5,1.5s-.672,1.5-1.5,1.5-1.5-.672-1.5-1.5.672-1.5,1.5-1.5Zm-5,0c.828,0,1.5.672,1.5,1.5s-.672,1.5-1.5,1.5-1.5-.672-1.5-1.5.672-1.5,1.5-1.5Zm16.5,14.5c0,1.378-1.122,2.5-2.5,2.5H5.5c-1.378,0-2.5-1.122-2.5-2.5v-9.5h18v9.5Zm-8.145-4.645l.543-.543-.543-.543c-.391-.391-.391-1.023,0-1.414s1.023-.391,1.414,0l.543.543.543-.543c.391-.391,1.023-.391,1.414,0s.391,1.023,0,1.414l-.543.543.543.543c.391.391.391,1.023,0,1.414-.195.195-.451.293-.707.293s-.512-.098-.707-.293l-.543-.543-.543.543c-.195.195-.451.293-.707.293s-.512-.098-.707-.293c-.391-.391-.391-1.023,0-1.414Zm-5.625,0l.543-.543-.543-.543c-.391-.391-.391-1.023,0-1.414s1.023-.391,1.414,0l.543.543.543-.543c.391-.391,1.023-.391,1.414,0s.391,1.023,0,1.414l-.543.543.543.543c.391.391.391,1.023,0,1.414-.195.195-.451.293-.707.293s-.512-.098-.707-.293l-.543-.543-.543.543c-.195.195-.451.293-.707.293s-.512-.098-.707-.293c-.391-.391-.391-1.023,0-1.414Zm1.897,3.754c1.948-.814,3.828-.81,5.774.012.509.215.748.801.533,1.31-.161.382-.532.612-.922.612-.129,0-.261-.025-.388-.079-1.453-.612-2.771-.616-4.226-.009-.511.213-1.096-.028-1.308-.538-.213-.51.028-1.095.538-1.308Z"/>
</svg>
