<?xml version="1.0" encoding="UTF-8"?>
<svg xmlns="http://www.w3.org/2000/svg" id="Layer_1" data-name="Layer 1" viewBox="0 0 24 24">
  <path d="m15,6.5v1c0,.828-.672,1.5-1.5,1.5h-5c-.828,0-1.5-.672-1.5-1.5v-1c0-.828.672-1.5,1.5-1.5h5c.828,0,1.5.672,1.5,1.5Zm-6.5,4.5c-.828,0-1.5.672-1.5,1.5s.672,1.5,1.5,1.5,1.5-.672,1.5-1.5-.672-1.5-1.5-1.5Zm5,0c-.828,0-1.5.672-1.5,1.5s.672,1.5,1.5,1.5,1.5-.672,1.5-1.5-.672-1.5-1.5-1.5Zm-5,5c-.828,0-1.5.672-1.5,1.5s.672,1.5,1.5,1.5,1.5-.672,1.5-1.5-.672-1.5-1.5-1.5Zm5,0c-.828,0-1.5.672-1.5,1.5s.672,1.5,1.5,1.5,1.5-.672,1.5-1.5-.672-1.5-1.5-1.5Zm8.5-10.5v13c0,.828-.672,1.5-1.5,1.5h-.713c-.655,2.305-2.775,4-5.287,4h-7c-3.033,0-5.5-2.468-5.5-5.5V5.5C2,2.468,4.467,0,7.5,0h7c2.512,0,4.631,1.695,5.287,4h.713c.828,0,1.5.672,1.5,1.5Zm-5,13V5.5c0-1.379-1.121-2.5-2.5-2.5h-7c-1.378,0-2.5,1.121-2.5,2.5v13c0,1.379,1.122,2.5,2.5,2.5h7c1.379,0,2.5-1.121,2.5-2.5Z"/>
</svg>
