<?xml version="1.0" encoding="UTF-8"?>
<svg xmlns="http://www.w3.org/2000/svg" id="Layer_1" data-name="Layer 1" viewBox="0 0 24 24">
  <path d="m11.826,2.108C6.984,3.274,3.14,7.306.974,9.577c-1.298,1.358-1.298,3.487,0,4.846,2.166,2.271,6.01,6.303,10.853,7.469.308.074.617.11.921.11,1.415,0,2.723-.775,3.366-2.071.861-1.735,1.887-4.52,1.887-7.931s-1.026-6.195-1.887-7.93c-.781-1.574-2.544-2.382-4.288-1.962Zm1.6,16.489c-.155.312-.525.466-.897.378-3.983-.96-7.448-4.593-9.386-6.625-.191-.2-.191-.501,0-.701,1.938-2.032,5.403-5.665,9.385-6.625.373-.088.743.065.898.379.147.297.3.639.45,1.006-2.281.864-3.876,3.046-3.876,5.59s1.596,4.726,3.876,5.59c-.15.367-.303.71-.45,1.007Zm1.307-3.886c-1.03-.48-1.733-1.517-1.733-2.712s.703-2.232,1.733-2.712c.161.836.267,1.741.267,2.712s-.106,1.876-.267,2.712Zm9.267-2.712c0,6.54-2.594,11.065-2.704,11.255-.279.479-.781.745-1.297.745-.256,0-.516-.065-.754-.204-.716-.417-.958-1.335-.541-2.051.021-.037,2.296-4.053,2.296-9.745s-2.275-9.708-2.298-9.748c-.413-.717-.168-1.634.547-2.048.714-.416,1.63-.176,2.047.541.11.189,2.704,4.715,2.704,11.255Z"/>
</svg>
