<?xml version="1.0" encoding="UTF-8"?>
<svg xmlns="http://www.w3.org/2000/svg" id="Layer_1" data-name="Layer 1" viewBox="0 0 24 24">
  <path d="m10,2c0-1.105.895-2,2-2s2,.895,2,2-.895,2-2,2-2-.895-2-2Zm8.5,8c0,1.105.895,2,2,2s2-.895,2-2-.895-2-2-2-2,.895-2,2Zm-15,2c1.105,0,2-.895,2-2s-.895-2-2-2-2,.895-2,2,.895,2,2,2Zm10.5,6c0-1.105-.895-2-2-2s-2,.895-2,2,.895,2,2,2,2-.895,2-2Zm-2-13c-1.603,0-2.957.966-3.469,2.315-.127.333.151.685.525.685h5.887c.375,0,.652-.352.525-.685-.512-1.348-1.866-2.315-3.469-2.315Zm0,16c-1.603,0-2.957.966-3.469,2.315-.127.333.151.685.525.685h5.887c.375,0,.652-.352.525-.685-.512-1.348-1.866-2.315-3.469-2.315Zm11.969-5.685c-.512-1.348-1.866-2.315-3.469-2.315s-2.957.966-3.469,2.315c-.127.333.151.685.525.685h1.444v1.5c0,.827-.673,1.5-1.5,1.5s-1.5.672-1.5,1.5.671,1.5,1.5,1.5c2.481,0,4.5-2.019,4.5-4.5v-1.5h1.444c.375,0,.652-.352.525-.685Zm-17.469,3.685c-.827,0-1.5-.673-1.5-1.5v-1.5h1.444c.375,0,.652-.352.525-.685-.512-1.348-1.866-2.315-3.469-2.315S.543,13.966.031,15.315c-.127.333.151.685.525.685h1.444v1.5c0,2.481,2.019,4.5,4.5,4.5.829,0,1.5-.672,1.5-1.5s-.671-1.5-1.5-1.5Zm10-14h1c.635,0,1.204.401,1.415,1,.218.615.796,1,1.415,1,.166,0,.334-.027.5-.086.781-.275,1.191-1.133.915-1.914-.634-1.794-2.339-3-4.244-3h-1c-.829,0-1.5.672-1.5,1.5s.671,1.5,1.5,1.5Zm-13.329,1.914c.165.059.333.086.5.086.618,0,1.197-.385,1.415-1,.211-.599.78-1,1.415-1h1c.829,0,1.5-.672,1.5-1.5s-.671-1.5-1.5-1.5h-1c-1.904,0-3.609,1.206-4.244,3-.276.781.134,1.639.915,1.914Z"/>
</svg>
