<?xml version="1.0" encoding="UTF-8"?>
<svg xmlns="http://www.w3.org/2000/svg" id="Layer_1" data-name="Layer 1" viewBox="0 0 24 24">
  <path d="M19.388,12.188c-.265-2.843-.619-5.573-.884-7.459-.378-2.696-2.72-4.729-5.446-4.729h-.558c-.829,0-1.5,.671-1.5,1.5s.671,1.5,1.5,1.5h.558c1.239,0,2.303,.923,2.475,2.146,.116,.827,.25,1.823,.385,2.916-1.783,.139-4.542,.559-7.104,1.789l-.673-1.851h.358c.829,0,1.5-.671,1.5-1.5s-.671-1.5-1.5-1.5H4.5c-.829,0-1.5,.671-1.5,1.5s.671,1.5,1.5,1.5h.449l1.274,3.502c-1.14,.943-2.113,2.141-2.783,3.657-1.969,.48-3.44,2.246-3.44,4.36,0,2.481,2.019,4.5,4.5,4.5s4.5-2.019,4.5-4.5c0-1.716-.977-3.193-2.393-3.952,2.182-3.531,7.145-4.346,9.653-4.523,.042,.398,.082,.799,.12,1.204-2.523,.709-4.38,3.025-4.38,5.772,0,3.309,2.691,6,6,6s6-2.691,6-6c0-2.83-1.972-5.203-4.612-5.831ZM4.5,21.02c-.827,0-1.5-.673-1.5-1.5s.672-1.499,1.498-1.5c0,0,.001,0,.002,0,0,0,.001,0,.002,0,.826,.001,1.498,.673,1.498,1.5s-.673,1.5-1.5,1.5Zm13.5,0c-1.654,0-3-1.346-3-3s1.346-3,3-3,3,1.346,3,3-1.346,3-3,3Z"/>
</svg>
