<?xml version="1.0" encoding="UTF-8"?>
<svg xmlns="http://www.w3.org/2000/svg" id="Layer_1" data-name="Layer 1" viewBox="0 0 24 24">
  <path d="m8.922,1.194C7.6.143,5.882-.239,4.21.149,2.203.612.609,2.208.147,4.214c-.521,2.269.379,4.562,2.294,5.843.345.23.559.678.559,1.169v.774c0,1.103.897,2,2,2h1c1.103,0,2-.897,2-2v-.774c0-.491.214-.939.558-1.169,1.529-1.021,2.442-2.725,2.442-4.557,0-1.686-.758-3.256-2.078-4.306Zm-2.03,6.368c-.594.396-1.067.938-1.392,1.568-.325-.63-.799-1.171-1.392-1.568-.692-.463-1.329-1.409-1.037-2.676.203-.882.932-1.611,1.813-1.815.208-.048.415-.072.618-.072.566,0,1.103.185,1.552.542.601.478.945,1.192.945,1.958,0,.828-.414,1.599-1.108,2.062Zm15.03,3.632c-1.322-1.051-3.042-1.432-4.712-1.045-2.007.463-3.601,2.059-4.062,4.065-.521,2.269.379,4.562,2.294,5.843.345.23.559.678.559,1.169v.774c0,1.103.897,2,2,2h1c1.103,0,2-.897,2-2v-.774c0-.491.214-.939.558-1.169,1.529-1.021,2.442-2.725,2.442-4.557,0-1.686-.758-3.256-2.078-4.306Zm-2.03,6.368c-.594.396-1.067.938-1.392,1.568-.325-.63-.799-1.171-1.392-1.568-.692-.463-1.329-1.409-1.037-2.676.203-.882.932-1.611,1.813-1.815.208-.048.415-.072.618-.072.566,0,1.103.185,1.552.542.601.478.945,1.192.945,1.958,0,.828-.414,1.599-1.108,2.062Zm-8.892,4.938c0,.829-.672,1.5-1.5,1.5h-2c-1.93,0-3.5-1.57-3.5-3.5v-.5h-1.53c-.863,0-1.295-1.043-.685-1.653l3.063-3.063c.378-.378.991-.378,1.369,0l3.063,3.063c.61.61.178,1.653-.685,1.653h-1.597v.5c0,.276.225.5.5.5h2c.828,0,1.5.671,1.5,1.5ZM13,1.5c0-.829.672-1.5,1.5-1.5h2c1.93,0,3.5,1.57,3.5,3.5v.5h1.597c.863,0,1.295,1.043.685,1.653l-3.063,3.063c-.378.378-.991.378-1.369,0l-3.063-3.063c-.61-.61-.178-1.653.685-1.653h1.53v-.5c0-.276-.225-.5-.5-.5h-2c-.828,0-1.5-.671-1.5-1.5Z"/>
</svg>
