<?xml version="1.0" encoding="UTF-8"?>
<svg xmlns="http://www.w3.org/2000/svg" id="Layer_1" data-name="Layer 1" viewBox="0 0 24 24">
  <path d="m13.5,16.5c0,.828-.672,1.5-1.5,1.5s-1.5-.672-1.5-1.5.672-1.5,1.5-1.5,1.5.672,1.5,1.5Zm-1.5-7.5c.828,0,1.5-.672,1.5-1.5s-.672-1.5-1.5-1.5-1.5.672-1.5,1.5.672,1.5,1.5,1.5Zm12-3.5v13c0,3.033-2.468,5.5-5.5,5.5H5.5c-3.032,0-5.5-2.467-5.5-5.5V5.5C0,2.467,2.468,0,5.5,0h13c3.032,0,5.5,2.467,5.5,5.5Zm-3,0c0-1.378-1.121-2.5-2.5-2.5H5.5c-1.379,0-2.5,1.122-2.5,2.5v13c0,1.378,1.121,2.5,2.5,2.5h13c1.379,0,2.5-1.122,2.5-2.5V5.5Zm-5.5,5h-7c-.828,0-1.5.671-1.5,1.5s.672,1.5,1.5,1.5h7c.828,0,1.5-.671,1.5-1.5s-.672-1.5-1.5-1.5Z"/>
</svg>
