<?xml version="1.0" encoding="UTF-8"?>
<svg xmlns="http://www.w3.org/2000/svg" id="Layer_1" data-name="Layer 1" viewBox="0 0 24 24">
  <path d="M19.461,2c-1.129-1.267-2.737-2-4.461-2-1.061,0-2.086,.281-3,.818-.914-.537-1.939-.818-3-.818-1.724,0-3.332,.733-4.461,2-2.479-.016-4.539,2.006-4.539,4.5,0,2.481,2.019,4.5,4.5,4.5,.339,0,.677-.04,1.01-.12,.849,.607,1.854,.953,2.883,1.055,.588,.509,2.107,2.104,2.107,5.065,0,.138-.011,.267-.021,.396-1.413-.2-2.252-.644-2.452-.893,.021-.026,.056-.061,.108-.104,.426-.352,.487-.981,.137-1.408-.352-.427-.98-.488-1.408-.137-.714,.589-.864,1.22-.864,1.646,0,1.541,1.739,2.455,3.825,2.817-.876,1.214-2.417,1.586-3.472,1.689-.824,.082-1.427,.816-1.346,1.641,.082,.825,.83,1.431,1.641,1.346,1.967-.195,4.014-.982,5.353-2.564,1.339,1.582,3.386,2.369,5.353,2.564,.05,.005,.1,.007,.149,.007,.762,0,1.414-.578,1.491-1.353,.081-.824-.521-1.559-1.346-1.641-1.055-.104-2.596-.475-3.472-1.689,2.085-.363,3.825-1.276,3.825-2.817,0-.426-.15-1.057-.864-1.646-.428-.352-1.057-.29-1.408,.137-.351,.427-.289,1.057,.137,1.408,.053,.043,.087,.077,.108,.104-.2,.249-1.038,.692-2.452,.893-.01-.129-.021-.257-.021-.396,0-2.935,1.492-4.526,2.084-5.046,1.044-.103,2.052-.463,2.906-1.074,.333,.08,.671,.12,1.01,.12,2.481,0,4.5-2.019,4.5-4.5,0-2.494-1.998-4.526-4.539-4.5Zm-.425,5.917c-.719-.254-1.518-.102-2.136,.404-1.021,.835-2.54,.901-3.631,.111-.38-.276-.825-.414-1.271-.414s-.888,.138-1.266,.412c-1.097,.795-2.613,.727-3.634-.109-.618-.506-1.416-.659-2.135-.404-.993,.349-1.965-.437-1.965-1.417,0-.827,.673-1.5,1.5-1.5,.099,0,.214,.017,.354,.051,.622,.149,1.275-.111,1.621-.652,.558-.876,1.501-1.399,2.525-1.399,.619,0,1.218,.197,1.732,.569,.758,.549,1.777,.549,2.535,0,.515-.373,1.113-.569,1.732-.569,1.024,0,1.968,.523,2.525,1.399,.347,.542,.998,.803,1.621,.652,.14-.034,.255-.051,.354-.051,.827,0,1.5,.673,1.5,1.5,0,.98-.978,1.767-1.964,1.417Z"/>
</svg>
