<?xml version="1.0" encoding="UTF-8"?>
<svg xmlns="http://www.w3.org/2000/svg" id="Layer_1" data-name="Layer 1" viewBox="0 0 24 24">
  <path d="m8.58,13.555c-.575.889-1.54,3.199,1.901,5.422,1.161.75,2.122,1.031,2.909,1.031,1.4,0,2.254-.887,2.711-1.594.874-1.352,1.413-5.308,1.658-7.552l5.968-8.499c.477-.678.312-1.613-.365-2.089-.678-.475-1.612-.313-2.09.366l-5.876,8.369c-2.033,1.032-5.897,3.123-6.816,4.548Zm1.68,1.085c.362-.56,1.867-1.545,3.567-2.514l-3.041,4.585c-1.179-1.048-.736-1.745-.526-2.071Zm4.162,2.688c-.238.37-.661.986-1.946.45l2.931-4.42c-.282,1.801-.632,3.423-.986,3.97Zm9.044-5.134c.556,1.004.684,2.167.36,3.273-.676,2.314-1.902,4.403-3.547,6.04-1.59,1.584-3.834,2.493-6.157,2.493h-4.244c-2.323,0-4.567-.909-6.157-2.493-1.645-1.637-2.871-3.726-3.547-6.04-.382-1.308-.134-2.682.682-3.769.337-.449.75-.812,1.212-1.091-.039-.242-.067-.485-.067-.733,0-1.539.78-2.96,2.021-3.81.212-2.202,2.019-3.945,4.247-4.06.818-1.234,2.204-2.006,3.732-2.006s2.925.778,3.741,2.02c.714.115,1.259.734,1.259,1.48,0,.829-.672,1.5-1.5,1.5-.098,0-.206.014-.33.042-.755.17-1.516-.263-1.756-.999-.202-.624-.771-1.042-1.414-1.042s-1.212.419-1.414,1.042c-.24.736-1.003,1.17-1.756.999-.124-.028-.232-.042-.33-.042-.827,0-1.5.673-1.5,1.5,0,.073.016.142.026.212.106.703-.293,1.402-.961,1.648-.647.239-1.042.958-1.042,1.64h1.477c.828,0,1.5.671,1.5,1.5s-.672,1.5-1.5,1.5h-2.248c-.542,0-.856.312-.996.498-.243.324-.317.736-.202,1.129.526,1.803,1.515,3.491,2.784,4.754,1.032,1.029,2.505,1.619,4.04,1.619h4.244c1.535,0,3.008-.59,4.04-1.618,1.27-1.264,2.258-2.952,2.785-4.755.097-.333.06-.68-.106-.979-.162-.294-.436-.513-.748-.602-.798-.225-1.262-1.054-1.036-1.851.225-.796,1.056-1.261,1.851-1.036,1.078.304,2.011,1.046,2.559,2.035Z"/>
</svg>
