<?xml version="1.0" encoding="UTF-8"?>
<svg xmlns="http://www.w3.org/2000/svg" id="Layer_1" data-name="Layer 1" viewBox="0 0 24 24">
  <path d="M24,7.5c0-3.033-2.467-5.5-5.5-5.5H4.121L2.561,.439C1.975-.146,1.025-.146,.439,.439-.146,1.025-.146,1.975,.439,2.561L21.439,23.561c.293,.293,.677,.439,1.061,.439s.768-.146,1.061-.439c.586-.585,.586-1.536,0-2.121l-1.117-1.117c.98-1.012,1.556-2.374,1.556-3.822V7.5Zm-5.385,8.994c.237-.265,.385-.611,.385-.994,0-.829-.671-1.5-1.5-1.5h-1.379l-2-2h3.379c.829,0,1.5-.671,1.5-1.5s-.671-1.5-1.5-1.5h-6.379L7.121,5h11.379c1.378,0,2.5,1.122,2.5,2.5v9c0,.642-.256,1.241-.682,1.697l-1.703-1.703Zm-3.615,4.006c0,.829-.671,1.5-1.5,1.5H5.5c-3.033,0-5.5-2.467-5.5-5.5V8.5c0-.829,.671-1.5,1.5-1.5s1.5,.671,1.5,1.5v8c0,1.378,1.122,2.5,2.5,2.5H13.5c.829,0,1.5,.671,1.5,1.5Zm-8.5-3.5c-.829,0-1.5-.671-1.5-1.5s.671-1.5,1.5-1.5h2c.829,0,1.5,.671,1.5,1.5s-.671,1.5-1.5,1.5h-2Z"/>
</svg>
