<?xml version="1.0" encoding="UTF-8"?>
<svg xmlns="http://www.w3.org/2000/svg" id="Layer_1" data-name="Layer 1" viewBox="0 0 24 24">
  <path d="m17.5,0H6.5C4.019,0,2,2.019,2,4.5v5c0,2.481,2.019,4.5,4.5,4.5h3.997l-.009,5.336-1.439-1.409c-.592-.579-1.542-.569-2.121.023-.58.592-.569,1.542.022,2.121l3.266,3.196c.489.49,1.133.733,1.773.733.636,0,1.268-.24,1.745-.717l3.309-3.207c.595-.577.61-1.526.033-2.121-.578-.595-1.526-.61-2.121-.033l-1.467,1.422.009-5.345h4.003c2.481,0,4.5-2.019,4.5-4.5v-5c0-2.481-2.019-4.5-4.5-4.5Zm1.5,9.5c0,.827-.673,1.5-1.5,1.5H6.5c-.827,0-1.5-.673-1.5-1.5v-5c0-.827.673-1.5,1.5-1.5h11c.827,0,1.5.673,1.5,1.5v5Zm-4-2.5c0,1.657-1.343,3-3,3s-3-1.343-3-3,1.343-3,3-3,3,1.343,3,3Z"/>
</svg>
