<?xml version="1.0" encoding="UTF-8"?>
<svg xmlns="http://www.w3.org/2000/svg" id="Layer_1" data-name="Layer 1" viewBox="0 0 24 24">
  <path d="M6.804,10.065c.555,.597,1.574,.606,2.139,.018l.749-.749,2.223,2.284,1.325,2.619c.505,.87,1.697,1.026,2.409,.315l1.403-1.403c.711-.711,.556-1.904-.314-2.408l-3.147-1.702-1.777-1.825,.664-.664c.579-.579,.587-1.515,.018-2.104l-3.167-3.272c-1.511-1.512-4.147-1.511-5.657,0-1.546,1.474-1.55,4.17-.018,5.639l3.149,3.255Zm-1.01-6.772c.357-.383,1.043-.385,1.396-.018l2.124,2.195-1.414,1.414-2.106-2.177c-.388-.372-.388-1.042,0-1.414Zm18.207,14.207c0,2.481-2.019,4.5-4.5,4.5-2.92,0-6.388-.93-9.447-1.751-2.395-.642-4.657-1.249-6.053-1.249-.551,0-1,.449-1,1s.449,1,1,1h1c.829,0,1.5,.671,1.5,1.5s-.671,1.5-1.5,1.5h-1c-2.206,0-4-1.794-4-4s1.794-4,4-4c1.792,0,4.127,.626,6.831,1.352,2.88,.773,6.145,1.648,8.669,1.648,.827,0,1.5-.673,1.5-1.5s-.673-1.5-1.5-1.5-1.5-.671-1.5-1.5,.672-1.5,1.5-1.5c2.481,0,4.5,2.019,4.5,4.5Z"/>
</svg>
