<?xml version="1.0" encoding="UTF-8"?>
<svg xmlns="http://www.w3.org/2000/svg" id="Layer_1" data-name="Layer 1" viewBox="0 0 24 24">
  <path d="m24,8.5c0,.829-.672,1.5-1.5,1.5h-1.211c-.141.545-.349,1.062-.629,1.538l.851.85c.586.586.586,1.536,0,2.122-.292.293-.677.439-1.061.439s-.768-.146-1.061-.439l-.854-.853c-.475.28-.984.511-1.536.653v1.189c0,.829-.672,1.5-1.5,1.5s-1.5-.671-1.5-1.5v-1.606c0-1.197.862-2.225,2.05-2.444,1.42-.262,2.45-1.502,2.45-2.95,0-1.27-.804-2.407-2-2.83-.781-.276-1.19-1.133-.914-1.914s1.136-1.191,1.914-.914c.368.13.71.305,1.039.498l.851-.851c.586-.585,1.535-.585,2.121,0s.586,1.536,0,2.122l-.856.855c.281.477.496.99.637,1.534h1.208c.828,0,1.5.671,1.5,1.5Zm-10.017-3.608c-.446,5.239-1.758,11.679-1.983,12.765v2.344c0,2.206-1.794,4-4,4h-2c-2.206,0-4-1.794-4-4v-2.344C1.774,16.571.463,10.13.017,4.892c-.107-1.257.319-2.51,1.172-3.438.849-.924,2.056-1.455,3.312-1.455h5c1.256,0,2.463.53,3.312,1.455.853.927,1.279,2.18,1.172,3.437Zm-10.979-.254c.35,4.095,1.279,9.113,1.723,11.362h4.545c.443-2.25,1.373-7.268,1.723-11.363.036-.428-.104-.838-.393-1.153-.287-.312-.679-.484-1.103-.484h-5c-.424,0-.815.172-1.103.484-.289.315-.429.725-.393,1.154Zm5.995,14.362h-4v1c0,.551.448,1,1,1h2c.552,0,1-.449,1-1v-1Z"/>
</svg>
