<?xml version="1.0" encoding="UTF-8"?>
<svg xmlns="http://www.w3.org/2000/svg" id="Layer_1" data-name="Layer 1" viewBox="0 0 24 24">
  <path d="m14.645,21h7.855c.829,0,1.5.672,1.5,1.5s-.671,1.5-1.5,1.5H1.5c-.829,0-1.5-.672-1.5-1.5s.671-1.5,1.5-1.5h7.851c-.261-.911-.967-2-2.851-2H1.5c-.829,0-1.5-.672-1.5-1.5s.671-1.5,1.5-1.5h5c3.034,0,4.735,1.704,5.5,3.553.765-1.849,2.466-3.553,5.5-3.553h5c.829,0,1.5.672,1.5,1.5s-.671,1.5-1.5,1.5h-5c-1.905,0-2.601,1.111-2.855,2Zm-2.153-8.492l-.277-.968c-.206-.719-1.225-.719-1.431,0l-.277.968-.968.277c-.72.206-.72,1.225,0,1.431l.968.277.277.968c.206.72,1.225.72,1.431,0l.277-.968.968-.277c.72-.206.72-1.225,0-1.431l-.968-.277Zm7.048-8.293l.968.277.277.968c.206.72,1.225.72,1.431,0l.277-.968.968-.277c.72-.206.72-1.225,0-1.431l-.968-.277-.277-.968c-.206-.719-1.225-.719-1.431,0l-.277.968-.968.277c-.72.206-.72,1.225,0,1.431ZM.54,7.215l.968.277.277.968c.206.72,1.225.72,1.431,0l.277-.968.968-.277c.72-.206.72-1.225,0-1.431l-.968-.277-.277-.968c-.206-.719-1.225-.719-1.431,0l-.277.968-.968.277c-.72.206-.72,1.225,0,1.431Zm6.49.552c.184.29.53.434.865.36l2.44-.586,1.496,2.111c.2.284.558.411.893.316.174-.049.323-.153.428-.291.096-.126.156-.28.166-.446l.118-1.89,7.961,6.328c.74.562,1.8.389,2.322-.379.533-.784.282-1.857-.543-2.323l-8.786-4.72,1.63-.579c.327-.117.545-.427.545-.775-.001-.348-.223-.657-.552-.77l-2.426-.844-.079-2.497c-.016-.344-.246-.641-.574-.743-.328-.102-.686.012-.895.285l-1.491,1.953-2.467-.789c-.327-.1-.682.015-.889.286-.207.272-.224.644-.042.933l1.412,2.172-1.491,1.953c-.208.273-.224.647-.04.936Z"/>
</svg>
