<?xml version="1.0" encoding="UTF-8"?>
<svg xmlns="http://www.w3.org/2000/svg" id="Layer_1" data-name="Layer 1" viewBox="0 0 24 24">
  <path d="m22.5,20c.828,0,1.5-.672,1.5-1.5s-.672-1.5-1.5-1.5h-4.5v-1h3.5c.828,0,1.5-.672,1.5-1.5s-.672-1.5-1.5-1.5h-3.297l.45-.54c.514-.616.451-1.527-.141-2.068-.593-.542-1.506-.522-2.072.047l-2.561,2.561h-2.879v-4.5c0-1.5-.449-1.877-1-2.442V1.5c0-.829-.672-1.5-1.5-1.5s-1.5.671-1.5,1.5v3.5h-3V1.5c0-.829-.672-1.5-1.5-1.5s-1.5.671-1.5,1.5v4.558c-.617.631-1,1.492-1,2.442v8c0,4.142,3.358,7.5,7.5,7.5h14c.828,0,1.5-.672,1.5-1.5s-.672-1.5-1.5-1.5h-3.5v-1h4.5Zm-11.361-3.982l.02-.018h3.841v3.521l-3.861-3.503Zm-7.488,2.779c-.404-.675-.652-1.455-.652-2.297v-.199l5-4.57v2.769c0,.101.011.2.03.296l-4.378,4.001Zm-.652-10.297c0-.276.225-.5.5-.5h4c.039,0,.074.014.111.022l-4.611,4.214v-3.737Zm2.993,12.221l2.923-2.671,3.251,2.95h-4.667c-.531,0-1.034-.109-1.507-.279Z"/>
</svg>
