<?xml version="1.0" encoding="UTF-8"?>
<svg xmlns="http://www.w3.org/2000/svg" id="Layer_1" data-name="Layer 1" viewBox="0 0 24 24">
  <path d="m13.98,10.182c-.158-1.274-1.33-2.182-2.613-2.182h-1.367c-.552,0-1,.448-1,1v6.2c0,.442.358.8.8.8h0c.442,0,.8-.358.8-.8v-2.2h.784l.705,2.423c.099.342.476.577.832.577.537,0,.922-.519.765-1.033,0,0-.729-2.437-.753-2.423.723-.508,1.168-1.386,1.047-2.362Zm-2.48,1.218h-.9v-1.8h.9c.496,0,.9.404.9.9s-.404.9-.9.9ZM3.429,5.55c-.58-.592-.57-1.542.021-2.121C5.674,1.25,8.79,0,12,0c2.301,0,4.521.657,6.43,1.871l1.12-1.12c.535-.535,1.45-.156,1.45.601v3.8c0,.469-.38.849-.849.849h-3.8c-.757,0-1.136-.915-.601-1.45l.485-.485c-1.292-.691-2.74-1.065-4.235-1.065-2.396,0-4.807.961-6.45,2.571-.292.286-.671.429-1.05.429-.389,0-.777-.15-1.071-.45Zm17.143,12.9c.58.592.57,1.541-.021,2.121-2.224,2.179-5.34,3.429-8.55,3.429-2.3,0-4.52-.657-6.429-1.871l-1.121,1.121c-.535.535-1.45.156-1.45-.601v-3.8c0-.469.38-.849.849-.849h3.8c.757,0,1.136.915.601,1.45l-.485.485c1.293.691,2.74,1.066,4.235,1.066,2.396,0,4.807-.961,6.45-2.571.592-.579,1.541-.569,2.121.021ZM3,13.444v-2.888c0-1.409,1.14-2.583,2.548-2.556.933.018,1.741.546,2.155,1.318.287.534-.097,1.182-.706,1.182-.291,0-.567-.171-.705-.427-.161-.298-.486-.496-.854-.471-.489.033-.855.47-.838.963.028.791.028,2.079,0,2.869-.018.493.349.931.838.963.367.025.691-.172.853-.469.14-.257.47-.428.762-.428.565,0,.941.592.693,1.099-.4.816-1.232,1.382-2.198,1.4-1.401.027-2.548-1.154-2.548-2.556Zm18.498,1.698c.034.463-.333.858-.798.858-.419,0-.768-.324-.798-.742l-.265-3.66-.848,1.866c-.284.625-1.172.625-1.457,0l-.848-1.866-.265,3.66c-.03.418-.379.742-.798.742-.465,0-.831-.394-.798-.858l.445-6.142c.043-.705.472-1,.988-1,.342,0,.66.242.841.64l1.164,2.56,1.164-2.56c.181-.398.499-.64.841-.64.516,0,.945.295.988,1l.445,6.142Z"/>
</svg>
