<?xml version="1.0" encoding="UTF-8"?>
<svg xmlns="http://www.w3.org/2000/svg" id="Layer_1" data-name="Layer 1" viewBox="0 0 24 24">
  <path d="M14.5,11c-.828,0-1.5-.671-1.5-1.5s.672-1.5,1.5-1.5h1.5v-1c0-2.206-1.794-4-4-4s-4,1.794-4,4v1h1.5c.828,0,1.5,.671,1.5,1.5s-.672,1.5-1.5,1.5h-1.5v1c0,1.782,1.196,3.365,2.908,3.85,.797,.226,1.261,1.054,1.035,1.852-.187,.661-.788,1.092-1.442,1.092-.136,0-.272-.019-.409-.057-2.998-.848-5.092-3.618-5.092-6.736V7C5,3.14,8.141,0,12,0s7,3.14,7,7v2.5c0,.829-.672,1.5-1.5,1.5h-3Zm-4,10c-4.136,0-7.5-3.364-7.5-7.5v-.5c0-.829-.672-1.5-1.5-1.5s-1.5,.671-1.5,1.5v.5c0,5.79,4.71,10.5,10.5,10.5,.828,0,1.5-.671,1.5-1.5s-.672-1.5-1.5-1.5Zm12-9.5c-.828,0-1.5,.671-1.5,1.5v.5c0,.829,.672,1.5,1.5,1.5s1.5-.671,1.5-1.5v-.5c0-.829-.672-1.5-1.5-1.5Zm.02,5.731l-6.156-3.944c-1.003-.642-2.319,.078-2.319,1.268v7.888c0,1.191,1.316,1.911,2.319,1.268l6.156-3.944c.925-.593,.925-1.944,0-2.537Z"/>
</svg>
