<?xml version="1.0" encoding="UTF-8"?>
<svg xmlns="http://www.w3.org/2000/svg" id="Layer_1" data-name="Layer 1" viewBox="0 0 24 24">
  <path d="M19,10V5.021c0-1.072-.572-2.062-1.5-2.598L14,.402c-.928-.536-2.072-.536-3,0l-3.5,2.021c-.928,.536-1.5,1.526-1.5,2.598v4.979h-2c-.551,0-1-.449-1-1s.449-1,1-1v-3c-2.228-.008-3.953,1.827-4,4v11c0,2.206,1.794,4,4,4h15c2.757,0,5-2.243,5-5v-4c0-2.757-2.243-5-5-5Zm-3.5-4.989h2c.276,0,.5,.224,.5,.5s-.224,.5-.5,.5h-.5v3.489c0,.276-.224,.5-.5,.5s-.5-.224-.5-.5v-3.489h-.5c-.276,0-.5-.224-.5-.5s.224-.5,.5-.5Zm-4,.489c0-.276,.224-.5,.5-.5h1.5c.276,0,.5,.224,.5,.5s-.224,.5-.5,.5h-1v1.007l1.001,.003c.276,0,.499,.225,.499,.501,0,.276-.225,.499-.501,.499l-.999-.003v1.493c0,.276-.224,.5-.5,.5s-.5-.224-.5-.5V5.5Zm-4.5,4v-3.895c0-.334,.271-.605,.605-.605,.22,0,.422,.119,.529,.311l1.366,2.464v-2.275c0-.276,.224-.5,.5-.5s.5,.224,.5,.5v3.927c0,.316-.256,.573-.573,.573-.208,0-.4-.113-.501-.295l-1.427-2.573v2.368c0,.276-.224,.5-.5,.5s-.5-.224-.5-.5Zm14,9.5c0,1.103-.897,2-2,2H4c-.551,0-1-.449-1-1v-7.126c.32,.083,.655,.126,1,.126h15c1.103,0,2,.897,2,2v4Zm-2-2c0,.828-.672,1.5-1.5,1.5s-1.5-.672-1.5-1.5,.672-1.5,1.5-1.5,1.5,.672,1.5,1.5Zm3.5-9h-1.5v-3h1.5c.829,0,1.5,.671,1.5,1.5s-.671,1.5-1.5,1.5Z"/>
</svg>
