<?xml version="1.0" encoding="UTF-8"?>
<svg xmlns="http://www.w3.org/2000/svg" id="Layer_1" data-name="Layer 1" viewBox="0 0 24 24">
  <path d="m18,12c-3.314,0-6,2.686-6,6s2.686,6,6,6,6-2.686,6-6-2.686-6-6-6Zm1,9c0,.552-.448,1-1,1s-1-.448-1-1v-2c0-.552.448-1,1-1s1,.448,1,1v2Zm-1-4c-.828,0-1.5-.672-1.5-1.5s.672-1.5,1.5-1.5,1.5.672,1.5,1.5-.672,1.5-1.5,1.5Zm-8.5,4h-5c-.827,0-1.5-.673-1.5-1.5s.673-1.5,1.5-1.5h4c.829,0,1.5-.671,1.5-1.5,0-.652-.419-1.202-1-1.408V3h7.5c1.378,0,2.5,1.122,2.5,2.5v3c0,.829.671,1.5,1.5,1.5s1.5-.671,1.5-1.5v-3c0-3.033-2.467-5.5-5.5-5.5H5.5C2.467,0,0,2.467,0,5.5v14c0,.104.011.205.031.303.159,2.338,2.092,4.197,4.469,4.197h5c.829,0,1.5-.671,1.5-1.5s-.671-1.5-1.5-1.5ZM5.5,3h.5v12h-1.5c-.529,0-1.029.108-1.5.276V5.5c0-1.378,1.122-2.5,2.5-2.5Z"/>
</svg>
