<?xml version="1.0" encoding="UTF-8"?>
<svg xmlns="http://www.w3.org/2000/svg" id="Layer_1" data-name="Layer 1" viewBox="0 0 24 24">
  <path d="m24,20.029c0,1.015-.502,1.952-1.383,2.53-.956.627-2.244.632-3.207.017-.901-.576-1.41-1.523-1.41-2.547,0-.801.312-1.554.871-2.113l1.372-1.607c.421-.411,1.093-.411,1.513,0l1.364,1.599c.566.566.879,1.319.879,2.121Zm-4.134-6.029h-3.537l-.716,3.579c-.512,2.562-2.78,4.421-5.393,4.421h-4.721c-3.033,0-5.5-2.467-5.5-5.5v-5.969c0-2.271.884-4.406,2.49-6.011l2.308-2.308c.782-.782,1.821-1.212,2.926-1.212h.007c1.108.002,2.149.436,2.93,1.222l3.942,3.778h5.397c1.175,0,2.286.514,3.048,1.41.762.895,1.089,2.08.898,3.251-.31,1.904-2.064,3.339-4.08,3.339Zm0-3c.553,0,1.044-.361,1.119-.821.067-.412-.111-.694-.223-.826-.191-.224-.469-.353-.763-.353h-11c-.829,0-1.5-.671-1.5-1.5s.671-1.5,1.5-1.5h1.268l-1.708-1.638c-.241-.242-.528-.362-.833-.362h-.002c-.304,0-.59.118-.806.333l-2.308,2.308c-1.039,1.039-1.611,2.42-1.611,3.889v5.969c0,1.378,1.122,2.5,2.5,2.5h4.721c1.188,0,2.219-.845,2.452-2.01l.957-4.785c.14-.701.756-1.206,1.471-1.206h4.766Z"/>
</svg>
