<?xml version="1.0" encoding="UTF-8"?>
<svg xmlns="http://www.w3.org/2000/svg" id="Layer_1" data-name="Layer 1" viewBox="0 0 24 24">
  <path d="M24,12.477c0,1.498-.46,2.999-1.331,4.34-.451,.695-1.381,.891-2.074,.441-.695-.451-.893-1.38-.441-2.075,.546-.841,.847-1.802,.847-2.706,0-2.236-1.589-4.176-3.777-4.613-1.087-.217-1.979-.91-2.447-1.901-1.02-2.151-3.3-3.306-5.677-2.872-2.075,.38-3.767,2.104-4.114,4.193-.106,.639-.1,1.274,.02,1.889,.219,1.129-.198,2.334-1.088,3.144-.582,.53-.916,1.284-.916,2.069,0,.609,.235,1.231,.661,1.752,.525,.641,.431,1.586-.21,2.111-.637,.522-1.584,.433-2.111-.21-.864-1.055-1.339-2.353-1.339-3.652,0-1.629,.692-3.192,1.898-4.289,.114-.104,.181-.25,.161-.353-.188-.966-.199-1.959-.034-2.952C2.583,3.427,5.209,.753,8.558,.14c3.667-.673,7.341,1.195,8.929,4.54,.06,.127,.174,.213,.321,.242,3.588,.715,6.191,3.893,6.191,7.555Zm-9.178,.513c.536,.08,1.056-.298,1.133-.848,.029-.209,.045-.424,.045-.642,0-2.481-2.019-4.5-4.5-4.5-.965,0-1.889,.316-2.65,.871l-.666-.666c-.437-.437-1.184-.128-1.184,.49v2.594c0,.393,.318,.711,.711,.711h2.594c.618,0,.927-.747,.49-1.184l-.499-.499c.365-.201,.776-.317,1.204-.317,1.378,0,2.5,1.122,2.5,2.5,0,.122-.008,.241-.025,.358-.078,.546,.302,1.053,.848,1.132Zm3.178,4.01v3.5c0,1.93-1.57,3.5-3.5,3.5h-5c-1.93,0-3.5-1.57-3.5-3.5v-4.5c0-1.654,1.346-3,3-3h1.286c.266,0,.526,.07,.756,.204l1.364,.796h2.595c1.654,0,3,1.346,3,3Zm-3,0h-6v3.5c0,.276,.224,.5,.5,.5h5c.275,0,.5-.224,.5-.5v-3.5Z"/>
</svg>
