<?xml version="1.0" encoding="UTF-8"?>
<svg xmlns="http://www.w3.org/2000/svg" id="Layer_1" data-name="Layer 1" viewBox="0 0 24 24">
  <path d="m17.958,2.269C16.029.549,13.552-.236,10.977.06,6.924.527,3.61,3.844,3.097,7.946c-.372,2.969.643,5.834,2.782,7.863.951.901,1.143,2.187,1.143,3.969v.153c0,2.243,1.805,4.068,4.022,4.068h1.956c2.218,0,4.021-1.825,4.021-4.068v-.523c0-1.669.15-2.708.942-3.415,1.943-1.734,3.058-4.233,3.058-6.857s-1.116-5.131-3.063-6.867Zm-1.992,11.486c-1.36,1.215-1.774,2.748-1.896,4.245h-4.136c-.171-1.576-.662-3.109-1.991-4.368-1.44-1.365-2.122-3.301-1.87-5.313.344-2.748,2.551-4.968,5.247-5.278.236-.027.472-.041.705-.041,1.454,0,2.831.523,3.937,1.508,1.309,1.167,2.06,2.854,2.06,4.628s-.749,3.454-2.056,4.619Zm-.466-6.255v.987c-.489-.148-.977-.237-1.25-.237-.69,0-1.25.56-1.25,1.25,0,.69.56,1.25,1.25,1.25.273,0,.761-.088,1.25-.237v.987c0,.552-.448,1-1,1h-4c-.552,0-1-.448-1-1v-.8c-.368.089-.704.14-.917.14-.74,0-1.34-.6-1.34-1.34,0-.74.6-1.34,1.34-1.34.213,0,.549.052.917.14v-.801c0-.552.448-1,1-1h.816c-.091-.373-.143-.714-.143-.93,0-.74.6-1.34,1.34-1.34.74,0,1.34.6,1.34,1.34,0,.216-.052.556-.143.93h.791c.552,0,1,.448,1,1Z"/>
</svg>
