<?xml version="1.0" encoding="UTF-8"?>
<svg xmlns="http://www.w3.org/2000/svg" id="Layer_1" data-name="Layer 1" viewBox="0 0 24 24">
  <path d="M23.752,19.641c-.019-.038-2.78-4.572-2.78-4.572l1.633-.874c.847-.453,1.373-1.33,1.373-2.29s-.526-1.838-1.374-2.292l-1.812-.967,1.976-3.544c.409-.81,.273-1.761-.347-2.424-.619-.663-1.559-.863-2.396-.505l-3.925,1.68-1.323-2.479c-.452-.848-1.33-1.375-2.292-1.375h0c-.962,0-1.84,.528-2.292,1.377l-1.21,2.274L4.442,1.279c-.936-.498-2.058-.317-2.79,.449-.732,.767-.861,1.896-.277,2.877l2.696,4.031-2.766,1.277C.483,10.318-.016,11.139,.003,12.055c.02,.916,.552,1.715,1.424,2.1l2.717,1.121s-1.473,2.898-1.494,2.954c-.326,.889-.118,1.861,.544,2.538,.663,.676,1.631,.907,2.569,.583l3.195-1.208,1.329,2.482c.455,.85,1.332,1.374,2.294,1.374h.024c.972-.009,1.85-.552,2.292-1.417l1.161-2.27,4.589,2.443c.895,.441,1.968,.264,2.672-.442,.703-.706,.877-1.78,.432-2.673Zm-6.169-4.366l2.213,3.629-3.672-1.956c-.355-.189-.772-.227-1.154-.107-.384,.121-.703,.39-.886,.748l-1.51,2.95-1.591-2.973c-.268-.5-.784-.792-1.323-.792-.177,0-.356,.031-.53,.097l-3.012,1.139,1.437-2.82c.19-.373,.216-.809,.07-1.201-.145-.393-.447-.707-.834-.867l-2.79-1.151,2.921-1.348c.398-.184,.696-.533,.815-.955s.047-.876-.197-1.241l-2.208-3.298,3.578,1.87c.73,.381,1.631,.103,2.019-.625l1.555-2.922,1.615,3.027c.365,.687,1.199,.979,1.913,.673l2.858-1.223-1.444,2.589c-.195,.352-.242,.767-.129,1.153,.114,.386,.378,.71,.732,.9l2.494,1.332-2.368,1.267c-.364,.194-.632,.53-.74,.928s-.048,.823,.166,1.175Z"/>
</svg>
