<?xml version="1.0" encoding="UTF-8"?>
<svg xmlns="http://www.w3.org/2000/svg" id="Layer_1" data-name="Layer 1" viewBox="0 0 24 24">
  <path d="m18.682,5h-1.867c-.591-2.293-2.658-4-5.133-4h-6.823C2.905,1,1.113,2.067.182,3.785c-.396.728-.125,1.639.603,2.034.727.394,1.639.125,2.034-.603.407-.75,1.188-1.215,2.04-1.215h6.823c1.278,0,2.318,1.04,2.318,2.318v10.682H4.231c-.599,0-1.121-.383-1.301-.952-.249-.79-1.092-1.227-1.883-.979-.79.25-1.228,1.093-.979,1.883.449,1.422,1.569,2.47,2.946,2.867-.004.061-.015.119-.015.181,0,1.657,1.343,3,3,3s3-1.343,3-3h6c0,1.657,1.343,3,3,3s3-1.343,3-3c0-.08-.014-.155-.02-.233,1.746-.57,3.02-2.195,3.02-4.13v-5.364c0-2.908-2.386-5.273-5.318-5.273Zm2.318,5.273v.727h-4v-3h1.682c1.3,0,2.318.999,2.318,2.273Zm-1.363,6.727h-2.637v-3h4v1.637c0,.752-.611,1.363-1.363,1.363ZM4.499,7.744v1.256h5.501c.828,0,1.5.671,1.5,1.5s-.672,1.5-1.5,1.5h-5.501v1.256c0,.776-.939,1.165-1.487.616L.255,11.116c-.34-.34-.34-.892,0-1.232l2.756-2.756c.549-.549,1.487-.16,1.487.616Z"/>
</svg>
