<?xml version="1.0" encoding="UTF-8"?>
<svg xmlns="http://www.w3.org/2000/svg" id="Layer_1" data-name="Layer 1" viewBox="0 0 24 24">
  <path d="m10.1,6.6v1.801h1.101c.442,0,.8.358.8.8s-.358.8-.8.8h-1.101v2.2c0,.442-.358.8-.8.8s-.8-.358-.8-.8v-6.4c0-.442.358-.8.8-.8h1.9c.442,0,.8.358.8.8s-.358.8-.8.8h-1.101Zm5.601,0c.442,0,.8-.358.8-.8s-.358-.8-.8-.8h-1.9c-.442,0-.8.358-.8.8v6.4c0,.442.358.8.8.8h1.9c.442,0,.8-.358.8-.8s-.358-.8-.8-.8h-1.101v-1.4h1.101c.442,0,.8-.358.8-.8s-.358-.8-.8-.8h-1.101v-1.801h1.101Zm4.5,3.4c.442,0,.8-.358.8-.8s-.358-.8-.8-.8h-1.101v-1.801h1.101c.442,0,.8-.358.8-.8s-.358-.8-.8-.8h-1.9c-.442,0-.8.358-.8.8v6.4c0,.442.358.8.8.8h1.9c.442,0,.8-.358.8-.8s-.358-.8-.8-.8h-1.101v-1.4h1.101Zm-.699,5h-.001c-.828,0-1.499.671-1.5,1.499l-.003,3.571-1.83-.916c-.45-.224-.98-.209-1.416.039l-2.752,1.573-2.752-1.573c-.435-.247-.965-.262-1.416-.039l-1.828.915V5.001c0-1.102.896-1.999,1.995-2h8c.439,0,.871.115,1.249.335.716.416,1.635.173,2.051-.543.417-.716.173-1.634-.543-2.051-.834-.484-1.786-.741-2.755-.743H7.997C5.243.003,3.003,2.247,3.003,5.001v17.496c0,.52.269,1.003.711,1.276.444.273.996.297,1.46.065l3.281-1.642,2.799,1.6c.461.264,1.027.264,1.488,0l2.799-1.6,3.281,1.642c.212.105.442.158.671.158.274,0,.547-.075.788-.224.442-.272.711-.755.712-1.275l.005-5.997c0-.828-.67-1.5-1.499-1.501Z"/>
</svg>
