<?xml version="1.0" encoding="UTF-8"?>
<svg xmlns="http://www.w3.org/2000/svg" id="Layer_1" data-name="Layer 1" viewBox="0 0 24 24">
  <path d="m17,12c0,.829-.672,1.5-1.5,1.5h-7c-.828,0-1.5-.671-1.5-1.5s.672-1.5,1.5-1.5h7c.828,0,1.5.671,1.5,1.5Zm-5-3c.828,0,1.5-.672,1.5-1.5s-.672-1.5-1.5-1.5-1.5.672-1.5,1.5.672,1.5,1.5,1.5Zm0,6c-.828,0-1.5.672-1.5,1.5s.672,1.5,1.5,1.5,1.5-.672,1.5-1.5-.672-1.5-1.5-1.5Zm12-3c0,6.617-5.383,12-12,12S0,18.617,0,12,5.383,0,12,0s12,5.383,12,12Zm-3,0c0-4.962-4.037-9-9-9S3,7.038,3,12s4.037,9,9,9,9-4.038,9-9Z"/>
</svg>
