<?xml version="1.0" encoding="UTF-8"?>
<svg xmlns="http://www.w3.org/2000/svg" id="Layer_1" data-name="Layer 1" viewBox="0 0 24 24">
  <path d="M18,0c-3.939,0-6,6.037-6,12s2.061,12,6,12,6-6.037,6-12S21.939,0,18,0Zm0,21c-1.058,0-3-3.417-3-9s1.942-9,3-9c.586,0,1.442,1.052,2.09,2.936-1.312,2.077-3.09,5.353-3.09,6.606,0,1.146,.799,2.362,2.283,2.449l.15,1.193c.088,.698,.315,1.344,.639,1.929-.646,1.852-1.492,2.887-2.072,2.887ZM5.882,3.329c1.252,1.546,4.118,7.856,4.118,9.428,0,1.146-.798,2.363-2.283,2.45l-.151,1.193c-.309,2.443-2.203,4.351-4.566,4.739v1.36c0,.828-.671,1.5-1.5,1.5s-1.5-.672-1.5-1.5v-2.788c0-.828,.671-1.5,1.5-1.5h.609c1.257,0,2.323-.94,2.48-2.187l.316-2.501c.095-.75,.732-1.312,1.488-1.312h.441c-.565-1.721-2.361-5.855-3.319-7.04-.748-.997-1.677-1.793-2.72-2.348C.064,2.436-.213,1.527,.175,.796,.564,.066,1.472-.212,2.204,.176c1.43,.76,2.702,1.85,3.678,3.153Z"/>
</svg>
