<?xml version="1.0" encoding="UTF-8"?>
<svg xmlns="http://www.w3.org/2000/svg" id="Layer_1" data-name="Layer 1" viewBox="0 0 24 24">
  <path d="m24,7.5v8c0,.829-.672,1.5-1.5,1.5s-1.5-.671-1.5-1.5v-6.5H3v9.5c0,1.378,1.122,2.5,2.5,2.5h6c.829,0,1.5.671,1.5,1.5s-.671,1.5-1.5,1.5h-6c-3.033,0-5.5-2.467-5.5-5.5V7.5C0,4.467,2.467,2,5.5,2h.5v-.5c0-.829.671-1.5,1.5-1.5s1.5.671,1.5,1.5v.5h6v-.5c0-.829.672-1.5,1.5-1.5s1.5.671,1.5,1.5v.5h.5c3.032,0,5.5,2.467,5.5,5.5Zm-1.636,12.263c-.446-.446-1.17-.446-1.616,0l-1.036,1.025c-2.071-.791-3.599-2.256-4.5-4.5l1.025-1.036c.446-.446.446-1.17,0-1.616l-1.208-1.302c-.446-.446-1.17-.446-1.616,0l-.6.522c-.552.551-.813,1.277-.813,2,0,4,5.429,9.143,9.143,9.143.723,0,1.449-.261,2-.813l.522-.6c.446-.446.446-1.17,0-1.616l-1.302-1.208Z"/>
</svg>
