<?xml version="1.0" encoding="UTF-8"?>
<svg xmlns="http://www.w3.org/2000/svg" id="Layer_1" data-name="Layer 1" viewBox="0 0 24 24">
  <path d="M23.629,14.25c-.414-.719-1.332-.965-2.049-.549l-.676,.39c-.412-.352-.884-.629-1.404-.815v-.776c0-.829-.672-1.5-1.5-1.5s-1.5,.671-1.5,1.5v.776c-.521,.186-.992,.463-1.404,.815l-.676-.39c-.717-.414-1.635-.17-2.049,.549-.414,.718-.168,1.635,.549,2.049l.663,.383c-.049,.266-.083,.538-.083,.819s.034,.552,.083,.819l-.663,.383c-.717,.414-.963,1.331-.549,2.049,.277,.481,.781,.75,1.3,.75,.255,0,.513-.064,.749-.201l.676-.39c.412,.352,.884,.629,1.404,.815v.776c0,.828,.672,1.5,1.5,1.5s1.5-.672,1.5-1.5v-.776c.521-.186,.992-.463,1.404-.815l.676,.39c.236,.137,.494,.201,.749,.201,.518,0,1.022-.269,1.3-.75,.414-.718,.168-1.635-.549-2.049l-.663-.383c.049-.266,.083-.538,.083-.819s-.034-.552-.083-.819l.663-.383c.717-.414,.963-1.331,.549-2.049Zm-5.629,4.75c-.827,0-1.5-.673-1.5-1.5s.673-1.5,1.5-1.5,1.5,.673,1.5,1.5-.673,1.5-1.5,1.5Zm6-11.5v2c0,.829-.672,1.5-1.5,1.5s-1.5-.671-1.5-1.5v-2c0-.171-.018-.338-.051-.5H3v9.5c0,1.379,1.121,2.5,2.5,2.5h3c.828,0,1.5,.672,1.5,1.5s-.672,1.5-1.5,1.5h-3c-3.032,0-5.5-2.468-5.5-5.5V5.5C0,2.467,2.468,0,5.5,0h2.528c.54,0,1.081,.128,1.564,.369l3.156,1.578c.068,.035,.146,.053,.223,.053h5.528c3.032,0,5.5,2.467,5.5,5.5Z"/>
</svg>
