<?xml version="1.0" encoding="UTF-8"?>
<svg xmlns="http://www.w3.org/2000/svg" id="Layer_1" data-name="Layer 1" viewBox="0 0 24 24">
  <path d="m24,12.5c0,.829-.671,1.5-1.5,1.5h-.196c-.843,4.352-4.382,7.743-8.804,8.38v.12c0,.829-.671,1.5-1.5,1.5s-1.5-.671-1.5-1.5v-.12c-4.421-.637-7.96-4.028-8.804-8.38h-.196c-.829,0-1.5-.671-1.5-1.5s.671-1.5,1.5-1.5h.051c.185-1.973.916-3.831,2.147-5.419.508-.655,1.451-.773,2.105-.266.654.508.773,1.45.266,2.105-.819,1.055-1.315,2.28-1.488,3.581h.918c.829,0,1.5.671,1.5,1.5s-.671,1.5-1.5,1.5h-.721c.747,2.694,2.956,4.785,5.721,5.349v-.849c0-.829.671-1.5,1.5-1.5s1.5.671,1.5,1.5v.849c2.765-.563,4.974-2.655,5.721-5.349h-.721c-.829,0-1.5-.671-1.5-1.5s.671-1.5,1.5-1.5h.918c-.173-1.3-.669-2.525-1.488-3.581-.507-.655-.388-1.597.266-2.105.654-.507,1.597-.389,2.105.266,1.232,1.588,1.962,3.446,2.147,5.419h.051c.829,0,1.5.671,1.5,1.5Zm-14.953-3.629l2.953-1.342,2.953,1.342c1.264.574,2.493-.88,1.794-2.123L13.441.868C13.118.291,12.56.003,12,0c-.56.002-1.118.29-1.441.867l-3.305,5.879c-.699,1.244.529,2.698,1.794,2.123Z"/>
</svg>
