<?xml version="1.0" encoding="UTF-8"?>
<svg xmlns="http://www.w3.org/2000/svg" id="Layer_1" data-name="Layer 1" viewBox="0 0 24 24">
  <path d="M24,7.5v2c0,.828-.671,1.5-1.5,1.5s-1.5-.672-1.5-1.5v-2c0-.171-.018-.338-.051-.5H3v9.5c0,1.379,1.122,2.5,2.5,2.5h3c.829,0,1.5,.672,1.5,1.5s-.671,1.5-1.5,1.5h-3c-3.033,0-5.5-2.468-5.5-5.5V5.5C0,2.468,2.467,0,5.5,0h2.528c.54,0,1.081,.128,1.564,.369l3.156,1.578c.068,.034,.146,.053,.224,.053h5.528c3.033,0,5.5,2.468,5.5,5.5Zm0,10.474h0c0,3.208-2.507,5.831-5.669,6.016-2.642,.155-4.939-1.57-5.956-4.014-.95-2.283,.052-4.425,1.125-5.752,.28-.346,.827-.283,1.007,.123,.254,.575,.17,1.505,.708,1.505,1.137,0,.876-3.27,2.145-5.416,.225-.381,.748-.455,1.078-.161,2.05,1.829,5.562,4.532,5.562,7.699Zm-4.655,.479h0l-.894-.894c-.249-.249-.652-.249-.901,0l-.894,.894c-.763,.763-.899,2.015-.197,2.835,.813,.948,2.271,.948,3.083,0,.703-.819,.566-2.072-.197-2.835Z"/>
</svg>
