<?xml version="1.0" encoding="UTF-8"?>
<svg xmlns="http://www.w3.org/2000/svg" id="Layer_1" data-name="Layer 1" viewBox="0 0 24 24">
  <path d="M9.046,12c3.309,0,6-2.691,6-6S12.355,0,9.046,0,3.046,2.691,3.046,6s2.691,6,6,6Zm0-9c1.654,0,3,1.346,3,3s-1.346,3-3,3-3-1.346-3-3,1.346-3,3-3Zm14.524,18.449l-2.11-2.15c.362-.692,.586-1.466,.586-2.299,0-2.757-2.243-5-5-5s-5,2.243-5,5,2.243,5,5,5c.83,0,1.601-.222,2.29-.582l2.092,2.132c.293,.299,.682,.449,1.07,.449,.379,0,.759-.143,1.051-.429,.591-.581,.6-1.53,.02-2.122Zm-6.523-2.449c-1.103,0-2-.897-2-2s.897-2,2-2,2,.897,2,2-.897,2-2,2Zm-7.051-3.588c.059,.827-.562,1.544-1.389,1.604-2.975,.213-5.367,2.614-5.564,5.584-.053,.792-.712,1.4-1.495,1.4-.033,0-.067,0-.101-.003-.826-.055-1.452-.77-1.397-1.596,.296-4.456,3.883-8.058,8.343-8.377,.829-.052,1.544,.562,1.604,1.389Z"/>
</svg>
