<?xml version="1.0" encoding="UTF-8"?>
<svg xmlns="http://www.w3.org/2000/svg" id="Layer_1" data-name="Layer 1" viewBox="0 0 24 24">
  <path d="m18.919,12.466c.571.6.549,1.549-.052,2.12-.29.276-.662.414-1.034.414-.396,0-.791-.156-1.086-.466l-3.247-3.409v11.374c0,.828-.671,1.5-1.5,1.5s-1.5-.672-1.5-1.5v-11.374l-3.248,3.409c-.572.598-1.521.621-2.121.051-.6-.571-.623-1.521-.051-2.121l4.066-4.268c1.559-1.562,4.17-1.538,5.682-.025l4.091,4.294ZM12,0C5.579,0,.313,5.021.013,11.43c-.039.828.601,1.53,1.428,1.568.841.05,1.53-.6,1.569-1.428.225-4.806,4.174-8.57,8.99-8.57s8.765,3.765,8.99,8.57c.037.804.701,1.43,1.497,1.43.827-.038,1.538-.742,1.499-1.57-.3-6.409-5.565-11.43-11.986-11.43Z"/>
</svg>
