<?xml version="1.0" encoding="UTF-8"?>
<svg xmlns="http://www.w3.org/2000/svg" id="Layer_1" data-name="Layer 1" viewBox="0 0 24 24">
  <path d="m0,7.5c0-.829.672-1.5,1.5-1.5h21c.828,0,1.5.671,1.5,1.5s-.672,1.5-1.5,1.5H1.5c-.828,0-1.5-.671-1.5-1.5Zm21.76,5.909c.72.41,1.636.156,2.045-.564s.156-1.636-.564-2.045c-.057-.032-.111-.068-.165-.109-1.201-.916-2.948-.916-4.151,0-.529.403-1.317.404-1.849,0-1.201-.916-2.948-.916-4.151,0-.529.403-1.317.404-1.849,0-1.201-.916-2.948-.916-4.151,0-.529.403-1.317.404-1.849,0-1.203-.917-2.949-.916-4.152.001-.052.039-.106.075-.163.107-.721.409-.974,1.324-.564,2.045s1.325.973,2.045.564c.176-.1.344-.211.501-.332.137-.104.382-.103.517,0,1.584,1.208,3.901,1.208,5.483,0,.138-.104.383-.103.517,0,1.584,1.208,3.901,1.208,5.483,0,.137-.104.382-.103.517,0,.792.604,1.74.923,2.742.923s1.95-.319,2.741-.922c.136-.103.382-.103.516-.001.159.122.327.233.503.333ZM1.5,15c-.828,0-1.5.672-1.5,1.5s.672,1.5,1.5,1.5,1.5-.672,1.5-1.5-.672-1.5-1.5-1.5Zm5,3c-.828,0-1.5.672-1.5,1.5s.672,1.5,1.5,1.5,1.5-.672,1.5-1.5-.672-1.5-1.5-1.5Zm11,0c-.828,0-1.5.672-1.5,1.5s.672,1.5,1.5,1.5,1.5-.672,1.5-1.5-.672-1.5-1.5-1.5Zm-5.5-3c-.828,0-1.5.672-1.5,1.5s.672,1.5,1.5,1.5,1.5-.672,1.5-1.5-.672-1.5-1.5-1.5Zm10.5,0c-.828,0-1.5.672-1.5,1.5s.672,1.5,1.5,1.5,1.5-.672,1.5-1.5-.672-1.5-1.5-1.5ZM1.5,21c-.828,0-1.5.672-1.5,1.5s.672,1.5,1.5,1.5,1.5-.672,1.5-1.5-.672-1.5-1.5-1.5Zm10.5,0c-.828,0-1.5.672-1.5,1.5s.672,1.5,1.5,1.5,1.5-.672,1.5-1.5-.672-1.5-1.5-1.5Zm10.5,0c-.828,0-1.5.672-1.5,1.5s.672,1.5,1.5,1.5,1.5-.672,1.5-1.5-.672-1.5-1.5-1.5Z"/>
</svg>
