<?xml version="1.0" encoding="UTF-8"?>
<svg xmlns="http://www.w3.org/2000/svg" id="Layer_1" data-name="Layer 1" viewBox="0 0 24 24">
  <path d="m24,1.216v4.914c0,.774-.936,1.162-1.484.615l-1.569-1.569-2.732,2.732c-1.496,1.496-3.932,1.497-5.43,0l-2.691-2.693c-.328-.327-.859-.327-1.188,0l-6.346,6.346c-.293.293-.677.439-1.061.439s-.768-.146-1.061-.439c-.586-.585-.586-1.535,0-2.121L6.785,3.093c1.496-1.496,3.932-1.497,5.43,0l2.691,2.693c.328.327.859.327,1.188,0l2.732-2.732-1.569-1.569c-.548-.548-.16-1.484.615-1.484h4.914c.671,0,1.216.544,1.216,1.216Zm-2.315,15.051l-3.04-.506c-.374-.062-.645-.382-.645-.761,0-.552.448-1,1-1h2.268c.356,0,.688.191.867.501.274.478.885.643,1.366.364.478-.276.642-.888.364-1.366-.534-.924-1.53-1.499-2.598-1.499h-.268v-1c0-.552-.447-1-1-1s-1,.448-1,1v1c-1.654,0-3,1.346-3,3,0,1.359.974,2.51,2.315,2.733l3.04.506c.374.062.645.382.645.761,0,.552-.448,1-1,1h-2.268c-.356,0-.688-.191-.867-.501-.275-.479-.888-.645-1.366-.364-.478.276-.642.888-.364,1.366.534.925,1.53,1.499,2.598,1.499h.268v1c0,.553.447,1,1,1s1-.447,1-1v-1c1.654,0,3-1.346,3-3,0-1.359-.974-2.51-2.315-2.733ZM2.5,14c-.828,0-1.5.672-1.5,1.5v7c0,.828.672,1.5,1.5,1.5s1.5-.672,1.5-1.5v-7c0-.828-.672-1.5-1.5-1.5Zm5-4c-.828,0-1.5.671-1.5,1.5v11c0,.828.672,1.5,1.5,1.5s1.5-.672,1.5-1.5v-11c0-.829-.672-1.5-1.5-1.5Zm5,1c-.828,0-1.5.671-1.5,1.5v10c0,.828.672,1.5,1.5,1.5s1.5-.672,1.5-1.5v-10c0-.829-.672-1.5-1.5-1.5Z"/>
</svg>
