<?xml version="1.0" encoding="UTF-8"?>
<svg xmlns="http://www.w3.org/2000/svg" id="Layer_1" data-name="Layer 1" viewBox="0 0 24 24">
  <path d="m20.938,10.081c-.457-.054-.938-.081-1.429-.081-2.88,0-5.262,2.087-6.214,3.056-.253-.033-.513-.056-.786-.056-.874,0-1.732.152-2.53.401.009-.116.016-.231.021-.345.014-.368.008-.754-.005-1.145,2.836-.476,5.006-2.941,5.006-5.911,0-3.309-2.691-6-6-6S3,2.691,3,6c0,.324.033.64.083.95C1.121,10.138-.004,13.491,0,16.191c.003,1.351.542,2.619,1.517,3.572,1.622,1.583,5.142,4.237,10.492,4.237,4.534,0,7.733-1.179,9.618-2.168,1.469-.771,2.382-2.293,2.382-3.972v-4.302c0-1.774-1.319-3.268-3.071-3.477ZM9,3c1.654,0,3,1.346,3,3s-1.346,3-3,3-3-1.346-3-3,1.346-3,3-3Zm12.009,14.86c0,.561-.298,1.064-.776,1.316-1.586.832-4.301,1.824-8.224,1.824-4.288,0-7.101-2.12-8.396-3.384-.394-.384-.611-.893-.612-1.43-.003-1.692.622-3.84,1.708-6.001.63.646,1.405,1.146,2.27,1.457.026.452.038.892.023,1.302-.035.942-.33,1.971-.808,2.82-.367.651-.198,1.473.396,1.927.594.455,1.432.402,1.963-.122.642-.631,2.224-1.569,3.957-1.569,1.669,0,2.77,1.362,2.807,1.409.295.387.742.591,1.194.591.313,0,.629-.098.899-.3.662-.497.797-1.438.3-2.1-.039-.051-.508-.661-1.342-1.277.818-.645,1.957-1.323,3.141-1.323.374,0,.737.021,1.077.061.241.028.423.242.423.497v4.302Z"/>
</svg>
