<?xml version="1.0" encoding="UTF-8"?>
<svg xmlns="http://www.w3.org/2000/svg" id="Layer_1" data-name="Layer 1" viewBox="0 0 24 24">
  <path d="M21.5,15h-2.382L23.929,1.752c.31-.952-.451-1.752-1.278-1.752-.304,0-.617,.108-.888,.357l-7.829,8.811-3.518-6.604c-.276-.39-.676-.564-1.072-.564-.679,0-1.344,.513-1.344,1.333v7.577l-5.295-1.839c-.145-.049-.287-.071-.424-.071-.946,0-1.637,1.072-1.083,1.969l3.613,5.031H2.404c-1.19,0-1.838,1.389-1.073,2.301l4.783,4.814c.563,.567,1.329,.886,2.128,.886h8.099c.973,0,1.885-.472,2.448-1.265l3.892-5.491c.654-.95-.026-2.243-1.179-2.243Zm-5.16,6H8.241l-1.987-2h2.151c.942,0,1.488-1.066,.939-1.831l-2.504-3.486,2.166,.752c.975,.339,1.994-.386,1.994-1.418v-2.976l1.031,1.935c.621,1.167,2.216,1.356,3.094,.368l2.987-3.361-2.548,7.017c-.353,.972,.367,2,1.401,2h1.502l-2.126,3Zm7.66,1.5c0,.828-.672,1.5-1.5,1.5h-2.181l2.064-3h.117c.828,0,1.5,.672,1.5,1.5ZM1.5,21l2.883,3H1.5c-.828,0-1.5-.672-1.5-1.5s.672-1.5,1.5-1.5Z"/>
</svg>
