<?xml version="1.0" encoding="UTF-8"?>
<svg xmlns="http://www.w3.org/2000/svg" id="Layer_1" data-name="Layer 1" viewBox="0 0 24 24">
  <path d="m1.5,14c-.828,0-1.5-.672-1.5-1.5v-1.5C0,4.935,4.935,0,11,0c1.817,0,3.62.455,5.213,1.315.729.394,1.001,1.304.606,2.032-.394.729-1.306,1.001-2.032.606-1.156-.624-2.466-.954-3.787-.954C6.589,3,3,6.589,3,11v1.5c0,.828-.672,1.5-1.5,1.5ZM11,5c-.687,0-1.359.115-2.001.342-.781.275-1.19,1.133-.914,1.914.276.78,1.135,1.191,1.914.914.319-.112.656-.17,1.001-.17,1.27,0,2.407.804,2.83,2,.218.616.796,1,1.414,1,.166,0,.335-.027.5-.086.781-.276,1.19-1.133.914-1.914-.846-2.393-3.12-4-5.658-4Zm8,6v.492c-.006.828.662,1.503,1.491,1.508h.008c.825,0,1.495-.666,1.5-1.492v-.508c0-1.397-.26-2.761-.773-4.054-.306-.771-1.179-1.146-1.947-.84-.771.306-1.146,1.178-.84,1.947.372.938.562,1.93.562,2.946Zm-11.001.506c.003-.828-.666-1.503-1.494-1.506h-.006c-.826,0-1.497.668-1.5,1.494-.01,2.385-.173,3.771-1.003,4.271-.179.106-.417.182-.688.217-.821.105-1.402.856-1.296,1.679.097.757.742,1.309,1.485,1.309.687-.088,1.5-.309,2.04-.631,2.439-1.465,2.452-4.567,2.461-6.832Zm3.007-1.506h-.007c-.825,0-1.496.667-1.5,1.493-.014,3.048-.365,6.409-2.879,8.229-.671.485-.821,1.423-.335,2.095.293.405.751.62,1.216.62.305,0,.612-.093.879-.285,4.086-2.957,4.109-8.345,4.119-10.645.004-.829-.665-1.503-1.493-1.507Zm-7.508,8.969c-.065.009.063,0,0,0h0Zm18.101,5.031h-9.198c-1.203,0-1.952-1.305-1.346-2.343l4.599-7.884c.601-1.031,2.091-1.031,2.692,0l4.599,7.884c.606,1.039-.143,2.343-1.346,2.343Zm-3.599-2c0-.552-.448-1-1-1s-1,.448-1,1,.448,1,1,1,1-.448,1-1Zm0-5c0-.552-.448-1-1-1s-1,.448-1,1v2c0,.552.448,1,1,1s1-.448,1-1v-2Z"/>
</svg>
