<?xml version="1.0" encoding="UTF-8"?>
<svg xmlns="http://www.w3.org/2000/svg" id="Layer_1" data-name="Layer 1" viewBox="0 0 24 24">
  <path d="m6,2.5c0-1.381,1.119-2.5,2.5-2.5s2.5,1.119,2.5,2.5-1.119,2.5-2.5,2.5-2.5-1.119-2.5-2.5Zm-.459,6.5h5.919c.61,0,.995-.698.631-1.187-.816-1.099-2.116-1.813-3.591-1.813s-2.775.714-3.591,1.813c-.363.489.022,1.187.631,1.187Zm17.474,5.468l-5.196,5.943c-1.993,2.28-4.874,3.589-7.904,3.589h-5.414c-2.481,0-4.5-2.019-4.5-4.5v-4c0-2.481,2.019-4.5,4.5-4.5h7.857c.942,0,1.802.359,2.449.949l2.438-2.68c.699-.768,1.654-1.217,2.69-1.266,1.032-.047,2.029.311,2.798,1.01,1.564,1.427,1.691,3.874.281,5.454Zm-2.303-3.237c-.174-.159-.388-.248-.636-.229-.236.011-.453.113-.612.288l-3.497,3.843c-.218,1.586-1.475,2.885-3.094,3.116l-5.161.737c-.817.108-1.579-.454-1.697-1.273-.117-.82.453-1.58,1.273-1.697l5.161-.737c.314-.044.551-.317.551-.635,0-.354-.288-.643-.643-.643h-7.857c-.827,0-1.5.673-1.5,1.5v4c0,.827.673,1.5,1.5,1.5h5.414c2.164,0,4.222-.935,5.646-2.563l5.206-5.954c.33-.371.302-.928-.055-1.252Z"/>
</svg>
