<?xml version="1.0" encoding="UTF-8"?>
<svg xmlns="http://www.w3.org/2000/svg" id="Layer_1" data-name="Layer 1" viewBox="0 0 24 24">
  <path d="M19.5,0H4.5C2.019,0,0,2.019,0,4.5v6.437c0,1.486,.928,2.806,2.309,3.285,1.609,.557,2.691,2.075,2.691,3.778v4.5c0,.828,.671,1.5,1.5,1.5s1.5-.672,1.5-1.5v-4.5c0-2.206,1.794-4,4-4s4,1.794,4,4v4.5c0,.828,.671,1.5,1.5,1.5s1.5-.672,1.5-1.5v-4.5c0-1.703,1.082-3.222,2.69-3.778,1.381-.479,2.31-1.798,2.31-3.285V4.5c0-2.481-2.019-4.5-4.5-4.5Zm1.5,4.5v.5h-4V3h2.5c.827,0,1.5,.673,1.5,1.5Zm-11,.5V3h4v2h-4ZM4.5,3h2.5v2H3v-.5c0-.827,.673-1.5,1.5-1.5ZM20.709,11.386c-1.302,.45-2.392,1.271-3.204,2.306-1.283-1.635-3.271-2.692-5.506-2.692s-4.223,1.057-5.506,2.692c-.811-1.035-1.902-1.855-3.204-2.306-.171-.059-.29-.244-.29-.449v-2.937H21v2.937c0,.206-.119,.39-.291,.449Z"/>
</svg>
