<?xml version="1.0" encoding="UTF-8"?>
<svg xmlns="http://www.w3.org/2000/svg" id="Layer_1" data-name="Layer 1" viewBox="0 0 24 24">
  <path d="M12,0C5.373,0,0,5.373,0,12s5.373,12,12,12,12-5.373,12-12S18.627,0,12,0Zm1.5,3.135c2.117,.357,3.983,1.451,5.325,3.014l-1.745,1.049c-.948-1.002-2.185-1.726-3.579-2.032V3.135Zm-3,0v2.03c-1.394,.306-2.631,1.03-3.579,2.032l-1.745-1.049c1.342-1.563,3.208-2.656,5.325-3.014ZM3,12c0-1.159,.228-2.263,.628-3.281l1.744,1.048c-.237,.702-.372,1.452-.372,2.233s.134,1.531,.372,2.233l-1.744,1.048c-.4-1.018-.628-2.122-.628-3.281Zm7.5,8.865c-2.117-.357-3.983-1.45-5.324-3.013l1.746-1.049c.948,1.002,2.185,1.725,3.579,2.031v2.031Zm-2.5-8.865c0-2.206,1.794-4,4-4s4,1.794,4,4-1.794,4-4,4-4-1.794-4-4Zm5.5,8.865v-2.031c1.394-.306,2.631-1.029,3.579-2.031l1.746,1.049c-1.342,1.563-3.208,2.656-5.324,3.013Zm6.872-5.584l-1.744-1.048c.237-.702,.372-1.452,.372-2.233s-.134-1.531-.372-2.233l1.744-1.048c.401,1.018,.628,2.123,.628,3.281s-.228,2.263-.628,3.281Z"/>
</svg>
