<?xml version="1.0" encoding="UTF-8"?>
<svg xmlns="http://www.w3.org/2000/svg" id="Layer_1" data-name="Layer 1" viewBox="0 0 24 24">
  <path d="m20.991,6.5h.009l-8.5-1.09-1.415-3.511c-.437-1.237.893-2.355,2.036-1.712l10.148,5.042c.974.565.974,1.972,0,2.538l-10.148,5.044c-1.143.643-2.473-.475-2.036-1.712l1.415-3.512,8.491-1.089ZM2.5,21h-1c-.829,0-1.5.672-1.5,1.5s.671,1.5,1.5,1.5h1c.829,0,1.5-.672,1.5-1.5s-.671-1.5-1.5-1.5Zm17-6H6.5c-1.93,0-3.5-1.57-3.5-3.5s1.57-3.5,3.5-3.5h1c.829,0,1.5-.672,1.5-1.5s-.671-1.5-1.5-1.5h-1C2.916,5,0,7.916,0,11.5s2.916,6.5,6.5,6.5h13c.827,0,1.5.673,1.5,1.5s-.673,1.5-1.5,1.5h-6c-.829,0-1.5.672-1.5,1.5s.671,1.5,1.5,1.5h6c2.481,0,4.5-2.019,4.5-4.5s-2.019-4.5-4.5-4.5Zm-11,6h-1c-.829,0-1.5.672-1.5,1.5s.671,1.5,1.5,1.5h1c.829,0,1.5-.672,1.5-1.5s-.671-1.5-1.5-1.5Z"/>
</svg>
