<?xml version="1.0" encoding="UTF-8"?>
<svg xmlns="http://www.w3.org/2000/svg" id="Layer_1" data-name="Layer 1" viewBox="0 0 24 24">
  <path d="M17.977,12c-3.314,0-6,2.686-6,6s2.686,6,6,6,6-2.686,6-6-2.686-6-6-6Zm3.301,7.935c-.153,1.08-1.108,1.865-2.199,1.865h-.28v.408c0,.437-.353,.792-.79,.792h-.02c-.436,0-.789-.356-.789-.792v-.408h-.2c-.711,0-1.348-.325-1.77-.833-.418-.504-.063-1.266,.592-1.266,.227,0,.51,.107,.664,.274,.128,.139,.312,.226,.515,.226h2.103c.278,0,.532-.187,.586-.46,.063-.318-.146-.615-.451-.677l-2.791-.559c-1.112-.223-1.888-1.281-1.725-2.439,.152-1.08,1.108-1.866,2.199-1.866h.28v-.4c0-.442,.358-.8,.8-.8s.8,.358,.8,.8v.4h.2c.711,0,1.348,.324,1.77,.833,.418,.504,.063,1.266-.592,1.266-.227,0-.51-.107-.664-.274-.128-.139-.312-.226-.515-.226h-2.102c-.278,0-.532,.186-.587,.458-.064,.318,.146,.617,.449,.678l2.792,.559c1.112,.222,1.889,1.282,1.725,2.439ZM24,1.216V6.129c0,.774-.936,1.162-1.484,.615l-1.569-1.569-2.732,2.732c-1.496,1.496-3.932,1.497-5.43,0l-2.692-2.693c-.327-.327-.859-.327-1.187,0L2.561,11.561c-.293,.293-.677,.439-1.061,.439s-.768-.146-1.061-.439c-.586-.585-.586-1.536,0-2.121L6.786,3.093c1.496-1.497,3.933-1.497,5.429,0l2.692,2.692c.328,.327,.859,.327,1.188,0l2.732-2.732-1.569-1.569c-.548-.548-.16-1.484,.615-1.484h4.914c.671,0,1.216,.544,1.216,1.216ZM4,15.5v7c0,.828-.671,1.5-1.5,1.5s-1.5-.672-1.5-1.5v-7c0-.828,.671-1.5,1.5-1.5s1.5,.672,1.5,1.5Zm5-4v11c0,.828-.671,1.5-1.5,1.5s-1.5-.672-1.5-1.5V11.5c0-.829,.671-1.5,1.5-1.5s1.5,.671,1.5,1.5Z"/>
</svg>
