<?xml version="1.0" encoding="UTF-8"?>
<svg xmlns="http://www.w3.org/2000/svg" id="Layer_1" data-name="Layer 1" viewBox="0 0 24 24">
  <path d="m24,18.664v.336c0,1.214-1.082,2.176-2.335,1.973-.984-.16-1.665-1.083-1.665-2.079v-.23l.854-2.42-1.854-.348v6.105h2c.552,0,1,.447,1,1s-.448,1-1,1h-6c-.552,0-1-.447-1-1s.448-1,1-1h2v-6.48l-1.752-.328.861,2.406v.575h-.013c-.129,1.162-1.226,2.032-2.466,1.783-.97-.194-1.63-1.112-1.63-2.101v-.244l1.097-3.496c.23-.734.972-1.18,1.728-1.04l2.175.404v-.48c0-.553.448-1,1-1s1,.447,1,1v.851l2.665.494c.517.096.945.459,1.123.954l1.212,3.364Zm-10.896-8.904c.144.817.926,1.365,1.737,1.218.816-.144,1.361-.922,1.218-1.737,0,0-.665-3.779-.698-3.952-.579-3.064-3.265-5.288-6.387-5.288C5.895,0,3.216,2.188,2.605,5.2c-.066.325-1.106,6.031-1.106,6.031-.108.592.148,1.191.652,1.522.25.164.537.246.824.246.29,0,.581-.084.833-.252.733-.489,1.587-.748,2.47-.748h2.697c.233,0,.462-.013.688-.039.823-.095,1.414-.839,1.319-1.661-.095-.824-.835-1.413-1.662-1.319-.114.013-.229.02-.346.02-1.654,0-3-1.346-3-3,0,0,0-.002,0-.002,1.896-.054,3.695-.958,4.871-2.445.795.505,1.384,1.315,1.568,2.294.033.173.69,3.913.69,3.913Zm-3.392,4.327c-.4-.058-.808-.087-1.213-.087C3.813,14,0,17.813,0,22.5c0,.828.671,1.5,1.5,1.5s1.5-.672,1.5-1.5c0-3.032,2.467-5.5,5.5-5.5.263,0,.528.019.787.056.824.124,1.58-.451,1.698-1.271.118-.82-.452-1.58-1.272-1.697Z"/>
</svg>
