<?xml version="1.0" encoding="UTF-8"?>
<svg xmlns="http://www.w3.org/2000/svg" id="Layer_1" data-name="Layer 1" viewBox="0 0 24 24">
  <path d="M24,18.5c0,3.032-2.467,5.5-5.5,5.5h-5c-.829,0-1.5-.672-1.5-1.5s.671-1.5,1.5-1.5h5c1.378,0,2.5-1.121,2.5-2.5s-1.122-2.5-2.5-2.5H5c-2.757,0-5-2.243-5-5S2.243,6,5,6h4.5c.829,0,1.5,.672,1.5,1.5s-.671,1.5-1.5,1.5H5c-1.103,0-2,.897-2,2s.897,2,2,2h13.5c3.033,0,5.5,2.468,5.5,5.5Zm-15.5,2.5h-1c-.829,0-1.5,.672-1.5,1.5s.671,1.5,1.5,1.5h1c.829,0,1.5-.672,1.5-1.5s-.671-1.5-1.5-1.5Zm-6,0H1.5c-.829,0-1.5,.672-1.5,1.5s.671,1.5,1.5,1.5h1c.829,0,1.5-.672,1.5-1.5s-.671-1.5-1.5-1.5ZM13,6.5c0,1.381,1.119,2.5,2.5,2.5s2.5-1.119,2.5-2.5c0-.45-.128-.867-.337-1.232l1.526-.916,.341,.625c-.328,.423-.53,.947-.53,1.523,0,1.381,1.119,2.5,2.5,2.5s2.5-1.119,2.5-2.5-1.119-2.5-2.5-2.5c-.073,0-.142,.015-.213,.021l-1.103-2.021h.815c.552,0,1-.447,1-1s-.448-1-1-1h-1.372c-.595,0-1.132,.306-1.436,.817-.335,.554-.303,1.233,.038,1.778l-.888,.533-.695-1.158c-.36-.599-1.017-.97-1.714-.97h-.934c-.552,0-1,.447-1,1s.448,1,1,1h.934l.602,1.004c-.012,0-.024-.004-.036-.004-1.381,0-2.5,1.119-2.5,2.5Z"/>
</svg>
