<?xml version="1.0" encoding="UTF-8"?>
<svg xmlns="http://www.w3.org/2000/svg" id="Layer_1" data-name="Layer 1" viewBox="0 0 24 24">
  <path d="M23.163,9.212c-.57-.659-1.363-1.058-2.216-1.165C20.464,3.53,16.637,0,12,0S3.534,3.532,3.053,8.05c-.842,.113-1.623,.51-2.186,1.161C.202,9.981-.096,11,.052,12.008l1.006,6.863c.429,2.924,2.981,5.129,5.937,5.129h10.039c2.956,0,5.508-2.205,5.937-5.129l1.006-6.863c.148-1.006-.149-2.026-.814-2.796ZM12,3c2.964,0,5.426,2.166,5.908,5H6.092c.482-2.834,2.944-5,5.908-5Zm8.003,15.435c-.215,1.462-1.491,2.565-2.969,2.565H6.995c-1.478,0-2.754-1.103-2.969-2.565l-1.006-6.862c-.029-.197,.061-.335,.116-.4,.056-.064,.179-.173,.378-.173H20.514c.199,0,.323,.108,.379,.173,.056,.064,.145,.202,.116,.399l-1.006,6.863Zm-4.003-2.435c0,.829-.671,1.5-1.5,1.5h-5c-.829,0-1.5-.671-1.5-1.5s.671-1.5,1.5-1.5h5c.829,0,1.5,.671,1.5,1.5Z"/>
</svg>
