<?xml version="1.0" encoding="UTF-8"?>
<svg xmlns="http://www.w3.org/2000/svg" id="Layer_1" data-name="Layer 1" viewBox="0 0 24 24">
  <path d="M6.5,11c.828,0,1.5,.672,1.5,1.5s-.672,1.5-1.5,1.5-1.5-.672-1.5-1.5,.672-1.5,1.5-1.5ZM24,6.5v6c0,.829-.672,1.5-1.5,1.5s-1.5-.671-1.5-1.5v-3.5H3v4.5c0,1.378,1.122,2.5,2.5,2.5h2c.829,0,1.5,.671,1.5,1.5s-.671,1.5-1.5,1.5h-2c-3.033,0-5.5-2.467-5.5-5.5V6.5C0,3.467,2.467,1,5.5,1h13c3.032,0,5.5,2.467,5.5,5.5ZM3.051,6H20.949c-.232-1.14-1.242-2-2.449-2H5.5c-1.207,0-2.217,.86-2.449,2Zm20.286,12.759c.282,.455,.282,1.027,0,1.482-.897,1.446-2.874,3.759-6.337,3.759s-5.439-2.314-6.336-3.759c-.282-.455-.282-1.027,0-1.482,.898-1.446,2.874-3.759,6.336-3.759s5.439,2.312,6.337,3.759Zm-4.337,.741c0-1.105-.895-2-2-2s-2,.895-2,2,.895,2,2,2,2-.895,2-2Z"/>
</svg>
