<?xml version="1.0" encoding="UTF-8"?>
<svg xmlns="http://www.w3.org/2000/svg" id="Layer_1" data-name="Layer 1" viewBox="0 0 24 24">
  <path d="M22.93,5.163c-.652-.912-1.325-1.717-1.999-2.391-.533-.533-1.129-1.055-1.772-1.55-2.514-1.94-6.034-1.53-8.015,.933l-3.088,3.843c-.882,1.097-1.18,2.475-.945,3.77L1.318,15.561c-.837,.837-1.318,1.997-1.318,3.182v2.258c0,1.654,1.345,3,3,3h2c1.654,0,3-1.346,3-2.999h.501c.829,0,1.5-.672,1.5-1.5v-.5h1.027c.392,0,.768-.153,1.048-.427l1.8-1.758c.399,.107,.806,.181,1.218,.181,1.013,0,2.029-.326,2.879-.989l3.813-2.976c2.438-1.9,2.94-5.357,1.145-7.87Zm-12.513,10.838h-1.917c-.829,0-1.5,.672-1.5,1.5v.5h-.501c-.829,0-1.5,.672-1.5,1.5v1.499h-2v-2.258c0-.395,.161-.781,.439-1.061l5.197-5.197,2.658,2.658-.878,.858Zm9.523-5.333l-3.813,2.976c-.669,.521-1.626,.464-2.226-.137l-3.385-3.385c-.609-.608-.661-1.573-.121-2.245l3.088-3.843c.957-1.19,2.654-1.358,3.845-.436,.541,.417,1.04,.853,1.482,1.296,.558,.558,1.123,1.234,1.68,2.013,.857,1.2,.616,2.852-.549,3.761Zm-1.379-3.229c.586,.586,.586,1.535,0,2.121-.293,.293-.677,.439-1.061,.439s-.768-.146-1.061-.439l-2-2c-.586-.586-.586-1.535,0-2.121s1.535-.586,2.121,0l2,2Z"/>
</svg>
