<?xml version="1.0" encoding="UTF-8"?>
<svg xmlns="http://www.w3.org/2000/svg" id="Layer_1" data-name="Layer 1" viewBox="0 0 24 24">
  <path d="M12.835,.029C9.366-.216,5.961,1.066,3.508,3.521,1.056,5.977-.211,9.378,.029,12.853c.441,6.354,6.032,11.147,13.005,11.147h5.647c2.933,0,5.318-2.386,5.318-5.318v-6.357C24,5.854,19.096,.453,12.835,.029Zm8.165,18.652c0,1.278-1.04,2.318-2.318,2.318h-5.647c-5.465,0-9.676-3.514-10.012-8.354-.181-2.61,.77-5.163,2.609-7.005,1.694-1.696,3.992-2.64,6.383-2.64,.205,0,.411,.007,.617,.021,4.692,.318,8.368,4.404,8.368,9.303v6.357Zm-3.56-8.062c.13,.36,.02,.77-.27,1.02l-2.17,1.77,.9,2.73c.12,.37,0,.78-.31,1.01-.31,.24-.73,.25-1.06,.04l-2.52-1.64-2.48,1.66c-.15,.1-.33,.15-.51,.15v-.01c-.19,0-.39-.06-.55-.18-.31-.23-.44-.64-.32-1.01l.86-2.76-2.18-1.77c-.29-.25-.4-.65-.27-1.01s.48-.6,.86-.6h2.75l.97-2.61c.13-.36,.48-.6,.86-.6s.73,.24,.86,.6l.97,2.61h2.75c.38,0,.73,.24,.86,.6Z"/>
</svg>
