<?xml version="1.0" encoding="UTF-8"?>
<svg xmlns="http://www.w3.org/2000/svg" id="Layer_1" data-name="Layer 1" viewBox="0 0 24 24">
  <path d="m24,7.5v11c0,3.033-2.467,5.5-5.5,5.5H5.5c-2.511,0-4.701-1.697-5.327-4.126-.207-.802.276-1.62,1.079-1.827.804-.208,1.62.277,1.827,1.079.284,1.104,1.28,1.874,2.421,1.874h13c1.378,0,2.5-1.122,2.5-2.5v-9.5H3v.5c0,.829-.671,1.5-1.5,1.5s-1.5-.671-1.5-1.5v-2C0,4.467,2.467,2,5.5,2h.5v-.5c0-.829.671-1.5,1.5-1.5s1.5.671,1.5,1.5v.5h6v-.5c0-.829.671-1.5,1.5-1.5s1.5.671,1.5,1.5v.5h.5c3.033,0,5.5,2.467,5.5,5.5Zm-15.346,10.748l3.063-3.063c.378-.378.378-.991,0-1.369l-3.063-3.063c-.61-.61-1.653-.178-1.653.685v1.563H1.5c-.829,0-1.5.671-1.5,1.5s.671,1.5,1.5,1.5h5.501v1.563c0,.863,1.043,1.295,1.653.685Z"/>
</svg>
