<?xml version="1.0" encoding="UTF-8"?>
<svg xmlns="http://www.w3.org/2000/svg" id="Layer_1" data-name="Layer 1" viewBox="0 0 24 24">
  <path d="m17,13.5v4.538c0,.793.621,1.438,1.401,1.49.516-.908,1.48-1.528,2.599-1.528,1.657,0,3,1.343,3,3s-1.343,3-3,3c-1.095,0-2.043-.593-2.567-1.469-2.45-.037-4.433-2.035-4.433-4.493v-4.538h-.5c-.828,0-1.5-.672-1.5-1.5s.672-1.5,1.5-1.5h.5v-4.462c0-2.444,1.96-4.428,4.389-4.489.513-.92,1.483-1.549,2.611-1.549,1.657,0,3,1.343,3,3s-1.343,3-3,3c-1.09,0-2.034-.587-2.56-1.456-.799.032-1.44.687-1.44,1.494v4.462h1.395c.514-.914,1.482-1.539,2.605-1.539,1.657,0,3,1.343,3,3s-1.343,3-3,3c-1.092,0-2.038-.589-2.563-1.461h-1.437Zm-5.92-2.701l-.663.383c.049.266.083.538.083.819s-.034.552-.083.819l.663.383c.717.414.963,1.331.549,2.049-.277.481-.782.75-1.3.75-.255,0-.513-.064-.749-.201l-.676-.39c-.412.352-.884.629-1.404.815v.776c0,.828-.672,1.5-1.5,1.5s-1.5-.672-1.5-1.5v-.776c-.521-.186-.992-.463-1.404-.815l-.676.39c-.236.137-.494.201-.749.201-.519,0-1.022-.269-1.3-.75-.414-.718-.168-1.635.549-2.049l.663-.383c-.049-.266-.083-.538-.083-.819s.034-.552.083-.819l-.663-.383c-.717-.414-.963-1.331-.549-2.049.414-.719,1.332-.963,2.049-.549l.676.39c.412-.352.884-.629,1.404-.815v-.776c0-.828.672-1.5,1.5-1.5s1.5.672,1.5,1.5v.776c.521.186.992.463,1.404.815l.676-.39c.717-.416,1.635-.17,2.049.549.414.718.168,1.635-.549,2.049Zm-3.58,1.201c0-.827-.673-1.5-1.5-1.5s-1.5.673-1.5,1.5.673,1.5,1.5,1.5,1.5-.673,1.5-1.5Z"/>
</svg>
