<?xml version="1.0" encoding="UTF-8"?>
<svg xmlns="http://www.w3.org/2000/svg" id="Layer_1" data-name="Layer 1" viewBox="0 0 24 24">
  <path d="M20.5,9c-.828,0-1.5,.671-1.5,1.5v2.5H3V7.5c0-1.378,1.121-2.5,2.5-2.5H13.5c.828,0,1.5-.671,1.5-1.5s-.672-1.5-1.5-1.5H5.5C2.468,2,0,4.467,0,7.5v11c0,3.038,2.462,5.5,5.5,5.5h11c3.038,0,5.5-2.462,5.5-5.5V10.5c0-.829-.672-1.5-1.5-1.5ZM7.268,21h-.059c-.281,0-.524-.195-.586-.469l-.12-.531h-2.035l-.131,.541c-.065,.269-.306,.459-.584,.459-.386,0-.672-.359-.585-.735l.936-4.074c.142-.77,.778-1.159,1.414-1.159,.641,0,1.283,.395,1.417,1.193l.918,4.042c.085,.376-.2,.734-.586,.734Zm3.651-2.03h-.669v1.405c0,.345-.28,.625-.625,.625s-.625-.28-.625-.625v-4.75c0-.345,.28-.625,.625-.625h1.342c1.12,0,2.024,.928,1.984,2.057-.038,1.076-.955,1.913-2.031,1.913Zm5,0h-.669v1.405c0,.345-.28,.625-.625,.625s-.625-.28-.625-.625v-4.75c0-.345,.28-.625,.625-.625h1.342c1.12,0,2.024,.928,1.984,2.057-.038,1.076-.955,1.913-2.031,1.913ZM24,3.5c0,1.93-1.57,3.5-3.5,3.5s-3.5-1.57-3.5-3.5,1.57-3.5,3.5-3.5,3.5,1.57,3.5,3.5ZM5.709,16.467l.514,2.283h-1.451l.552-2.279c-.038-.236,.421-.251,.385-.004Zm10.993,.518c0,.406-.329,.735-.735,.735l-.715,.003v-1.473h.716c.406,0,.735,.329,.735,.735Zm-5,0c0,.406-.329,.735-.735,.735l-.715,.003v-1.473h.716c.406,0,.735,.329,.735,.735Z"/>
</svg>
