<?xml version="1.0" encoding="UTF-8"?>
<svg xmlns="http://www.w3.org/2000/svg" id="Layer_1" data-name="Layer 1" viewBox="0 0 24 24">
  <path d="m6.5,0C2.91,0,0,2.91,0,6.5s2.91,6.5,6.5,6.5,6.5-2.91,6.5-6.5S10.09,0,6.5,0Zm1.315,11h-.315c0,.552-.448,1-1,1s-1-.448-1-1c-1.113,0-2.087-.61-2.605-1.513-.38-.662.11-1.487.874-1.487.359,0,.686.196.869.506.174.296.495.494.862.494h2.35c.334,0,.629-.251.649-.585.02-.324-.206-.602-.52-.655l-3.286-.548c-1.277-.213-2.203-1.312-2.192-2.61.011-1.451,1.234-2.603,2.685-2.603h.315c0-.552.448-1,1-1s1,.448,1,1c1.113,0,2.087.61,2.605,1.513.38.662-.11,1.487-.874,1.487-.359,0-.686-.196-.869-.506-.174-.295-.495-.494-.862-.494h-2.376c-.36,0-.649.305-.622.67.021.292.255.525.544.574l3.261.544c1.277.213,2.203,1.312,2.193,2.61-.011,1.451-1.234,2.603-2.685,2.603Zm15.181,2.62l-5,2.857-5-2.857,3.511-2.007c.922-.527,2.055-.527,2.977,0l3.511,2.007Zm-10.996,1.803l5,2.857v5.72l-3.489-1.994c-.935-.534-1.511-1.528-1.511-2.605v-3.979Zm7,2.857l5-2.857v3.979c0,1.077-.577,2.07-1.511,2.605l-3.489,1.994v-5.72Zm-9.323.507c.375.375.375.983,0,1.358l-3.038,3.038c-.605.605-1.639.176-1.639-.679v-1.504h-.5c-2.481,0-4.5-2.019-4.5-4.5,0-.828.671-1.5,1.5-1.5s1.5.672,1.5,1.5.673,1.5,1.5,1.5h.5v-1.571c0-.855,1.034-1.284,1.639-.679l3.038,3.038Zm4.646-13.575c-.375-.375-.375-.983,0-1.358l3.038-3.038c.605-.605,1.639-.177,1.639.679v1.504h.5c2.481,0,4.5,2.019,4.5,4.5,0,.828-.671,1.5-1.5,1.5s-1.5-.672-1.5-1.5-.673-1.5-1.5-1.5h-.5v1.571c0,.856-1.034,1.284-1.639.679l-3.038-3.038Z"/>
</svg>
