<?xml version="1.0" encoding="UTF-8"?>
<svg xmlns="http://www.w3.org/2000/svg" id="Layer_1" data-name="Layer 1" viewBox="0 0 24 24">
  <path d="m16.488,10.726c.158,1.78-1.24,3.274-2.988,3.274h-3.294c-.812,0-1.402-.791-1.144-1.562.538-1.612,1.533-3.949,3.727-4.371,1.755-.338,3.542.879,3.7,2.659Zm1.678-1.48l5.126-5.126c.943-.942.945-2.47.003-3.413-.941-.942-2.467-.943-3.409-.002-.032.032-4.953,5.53-4.953,5.53,1.491.45,2.686,1.564,3.232,3.011Zm4.334-.246c-.828,0-1.5.672-1.5,1.5v3c0,1.379-1.121,2.5-2.5,2.5H5.5c-1.378,0-2.5-1.121-2.5-2.5v-6c0-1.379,1.122-2.5,2.5-2.5h7c.828,0,1.5-.672,1.5-1.5s-.672-1.5-1.5-1.5h-7C2.467,2,0,4.468,0,7.5v6c0,3.032,2.467,5.5,5.5,5.5h5v2h-3c-.829,0-1.5.672-1.5,1.5s.671,1.5,1.5,1.5h9c.828,0,1.5-.672,1.5-1.5s-.672-1.5-1.5-1.5h-3v-2h5c3.032,0,5.5-2.468,5.5-5.5v-3c0-.828-.672-1.5-1.5-1.5Z"/>
</svg>
