<?xml version="1.0" encoding="UTF-8"?>
<svg xmlns="http://www.w3.org/2000/svg" id="Layer_1" data-name="Layer 1" viewBox="0 0 24 24">
  <path d="M16,2.5c0-1.381,1.119-2.5,2.5-2.5s2.5,1.119,2.5,2.5-1.119,2.5-2.5,2.5-2.5-1.119-2.5-2.5Zm6.5,7.5h-1.601l-.587-1.095c-.959-1.792-2.817-2.905-4.849-2.905h-4.483c-.763,0-1.475,.342-1.952,.938l-1.7,2.125c-.518,.647-.413,1.591,.234,2.108s1.592,.412,2.108-.234l1.55-1.937h1.99s-1.937,2.997-1.972,3.084c-.646,1.574-.07,3.377,1.427,4.322l4.334,2.467v3.627c0,.829,.672,1.5,1.5,1.5s1.5-.671,1.5-1.5v-3.918c0-.897-.484-1.729-1.264-2.173l-3.169-1.803,2.41-3.708,.418,.781c.436,.815,1.28,1.321,2.204,1.321h1.901c.828,0,1.5-.671,1.5-1.5s-.672-1.5-1.5-1.5ZM3.5,4h6c.829,0,1.5-.671,1.5-1.5s-.671-1.5-1.5-1.5H3.5c-.829,0-1.5,.671-1.5,1.5s.671,1.5,1.5,1.5Zm0,7H1.5c-.829,0-1.5,.671-1.5,1.5s.671,1.5,1.5,1.5H3.5c.829,0,1.5-.671,1.5-1.5s-.671-1.5-1.5-1.5Zm1-5H2.5c-.829,0-1.5,.671-1.5,1.5s.671,1.5,1.5,1.5h2c.829,0,1.5-.671,1.5-1.5s-.671-1.5-1.5-1.5Zm7.333,11.743c-.611-.357-1.371-.232-1.839,.257h-2.495c-.829,0-1.5,.671-1.5,1.5s.671,1.5,1.5,1.5h3.308c.533,0,1.026-.283,1.295-.744l.27-.461c.417-.715,.176-1.634-.539-2.052Z"/>
</svg>
