<?xml version="1.0" encoding="UTF-8"?>
<svg xmlns="http://www.w3.org/2000/svg" id="Layer_1" data-name="Layer 1" viewBox="0 0 24 24">
  <path d="m24,12.477c0,2.174-.925,4.224-2.539,5.649-.622.547-1.57.488-2.117-.133-.548-.621-.489-1.568.132-2.117.969-.854,1.524-2.085,1.524-3.376,0-2.259-1.588-4.199-3.777-4.636-1.085-.216-1.977-.908-2.447-1.899-1.021-2.154-3.304-3.308-5.678-2.874-2.075.38-3.767,2.104-4.114,4.193-.106.639-.1,1.274.02,1.889.219,1.129-.198,2.334-1.088,3.144-.557.506-.916,1.363-.916,2.183,0,.908.495,1.747,1.291,2.188.724.402.985,1.315.583,2.039-.274.494-.786.772-1.313.772-.246,0-.496-.061-.727-.188-1.749-.971-2.834-2.814-2.834-4.812,0-1.676.709-3.322,1.898-4.402.114-.104.181-.25.161-.353-.188-.966-.199-1.959-.034-2.952C2.583,3.427,5.209.753,8.558.14c3.668-.669,7.342,1.194,8.929,4.54.06.126.174.212.322.242,3.587.716,6.191,3.893,6.191,7.555Zm-5.244,8.86c.689,1.181-.163,2.663-1.53,2.663H6.773c-1.367,0-2.218-1.483-1.53-2.663l5.227-8.96c.683-1.171,2.376-1.171,3.059,0l5.227,8.96Zm-5.756.663c0-.552-.448-1-1-1s-1,.448-1,1,.448,1,1,1,1-.448,1-1Zm0-6c0-.552-.448-1-1-1s-1,.448-1,1v3c0,.552.448,1,1,1s1-.448,1-1v-3Z"/>
</svg>
