<?xml version="1.0" encoding="UTF-8"?>
<svg xmlns="http://www.w3.org/2000/svg" id="Layer_1" data-name="Layer 1" viewBox="0 0 24 24">
  <path d="m23.458,11.887c-.59-.689-1.554-1.432-2.458-1.93v-3.814c0-2.11-1.578-3.921-3.593-4.122-.624-.061-1.242.037-1.815.253-.647-1.34-2.007-2.273-3.592-2.273s-2.95.936-3.596,2.279c-.318-.125-.647-.224-.997-.259-1.135-.112-2.255.257-3.091,1.014-.837.757-1.316,1.838-1.316,2.966v3.956c-.908.499-1.876,1.242-2.465,1.93-.468.547-.638,1.258-.467,1.952.173.702.686,1.283,1.368,1.556,1.275.508,1.524,1.084,1.564,1.204.052,4.091,3.396,7.402,7.499,7.402h3c4.104,0,7.447-3.312,7.499-7.403.039-.12.287-.695,1.559-1.204.684-.274,1.194-.856,1.367-1.559.17-.692,0-1.402-.467-1.947Zm-5.458,4.613c0,2.481-2.019,4.5-4.5,4.5h-3c-2.481,0-4.5-2.019-4.5-4.5,0-.227-.075-2.036-2.385-3.379.483-.359,1.021-.67,1.341-.772.622-.198,1.044-.776,1.044-1.429v-4.92c0-.286.117-.549.329-.742.123-.112.389-.296.779-.253.491.049.892.56.892,1.137v3.357c0,.829.672,1.5,1.5,1.5s1.5-.671,1.5-1.5v-5.5c0-.551.448-1,1-1s1,.449,1,1v5.5c0,.829.672,1.5,1.5,1.5s1.5-.671,1.5-1.5v-3.5c0-.286.117-.549.329-.742.123-.111.39-.296.779-.252.492.049.892.559.892,1.137v4.777c0,.653.422,1.231,1.044,1.429.318.101.853.412,1.336.772-2.305,1.343-2.38,3.152-2.38,3.379Zm-6-3.5c-1.937,0-3.15,1.171-3.811,2.11-.378.537-.378,1.243,0,1.78.661.939,1.873,2.11,3.811,2.11s3.15-1.171,3.811-2.11c.378-.537.378-1.243,0-1.78-.661-.939-1.874-2.11-3.811-2.11Zm0,4.5c-.828,0-1.5-.672-1.5-1.5s.672-1.5,1.5-1.5,1.5.672,1.5,1.5-.672,1.5-1.5,1.5Z"/>
</svg>
