<?xml version="1.0" encoding="UTF-8"?>
<svg xmlns="http://www.w3.org/2000/svg" id="Layer_1" data-name="Layer 1" viewBox="0 0 24 24">
  <path d="M24,14.5v4c0,3.032-2.468,5.5-5.5,5.5H5.5c-3.032,0-5.5-2.468-5.5-5.5V8.5C0,5.467,2.468,3,5.5,3h3c.828,0,1.5,.671,1.5,1.5s-.672,1.5-1.5,1.5h-3c-.956,0-1.779,.546-2.199,1.336l6.932,6.932c.943,.945,2.593,.944,3.534,0l.331-.331c.588-.585,1.538-.582,2.122,.003,.585,.587,.583,1.537-.003,2.122l-.329,.328c-1.036,1.037-2.418,1.609-3.888,1.609s-2.852-.572-3.89-1.612L3,11.277v7.223c0,1.379,1.121,2.5,2.5,2.5h13c1.379,0,2.5-1.121,2.5-2.5v-4c0-.828,.672-1.5,1.5-1.5s1.5,.672,1.5,1.5ZM12,6c0-3.314,2.686-6,6-6s6,2.686,6,6-2.686,6-6,6-6-2.686-6-6Zm2,0c0,.552,.448,1,1,1h2v2c0,.552,.448,1,1,1s1-.448,1-1v-2h2c.552,0,1-.448,1-1s-.448-1-1-1h-2V3c0-.552-.448-1-1-1s-1,.448-1,1v2h-2c-.552,0-1,.448-1,1Z"/>
</svg>
