<?xml version="1.0" encoding="UTF-8"?>
<svg xmlns="http://www.w3.org/2000/svg" id="Layer_1" data-name="Layer 1" viewBox="0 0 24 24">
  <circle cx="10" cy="2" r="2"/>
  <circle cx="3.5" cy="2" r="2"/>
  <circle cx="16.5" cy="2" r="2"/>
  <path d="m20,8.5c.005.026,0-.076,0,0h0Z"/>
  <path d="m21.685,16.267l-3.041-.506c-.373-.062-.644-.382-.644-.761,0-.552.449-1,1-1h2.268c.356,0,.688.191.867.501.277.479.89.644,1.366.364.479-.276.642-.888.365-1.366-.535-.925-1.531-1.499-2.598-1.499h-.268v-1c0-.552-.448-1-1-1s-1,.448-1,1v1c-1.654,0-3,1.346-3,3,0,1.359.974,2.51,2.315,2.733l3.041.506c.373.062.644.382.644.761,0,.552-.449,1-1,1h-2.268c-.356,0-.688-.191-.867-.501-.277-.478-.89-.643-1.366-.364-.479.276-.642.888-.365,1.366.535.925,1.531,1.499,2.598,1.499h.268v1c0,.552.448,1,1,1s1-.448,1-1v-1c1.654,0,3-1.346,3-3,0-1.359-.974-2.51-2.315-2.733Z"/>
  <path d="m11.572,15.534l-.592.466h-1.961l-5.066-3.987c-.605-.477-.953-1.192-.953-1.964v-.058l15.499.009h0c.828,0,1.5-.671,1.5-1.499,0,0,0,0,0,0h0c0-2-1.67-3.5-3.5-3.5-1.393,0-2.585.82-3.149,1.997h-.203c-.564-1.178-1.756-1.997-3.149-1.997s-2.582.818-3.147,1.993h-.207c-.564-1.176-1.755-1.993-3.147-1.993-1.826,0-3.5,1.5-3.5,3.49v1.559c0,1.697.765,3.272,2.098,4.321l4.902,3.858v2.332c0,.727.411,1.391,1.06,1.716l3.19,1.595c.804.402,1.749-.183,1.749-1.081v-4.561l.428-.337c.651-.513.763-1.455.251-2.106s-1.456-.764-2.106-.251Z"/>
</svg>
