<?xml version="1.0" encoding="UTF-8"?>
<svg xmlns="http://www.w3.org/2000/svg" id="Layer_1" data-name="Layer 1" viewBox="0 0 24 24">
  <path d="M12,13v-4.25c0-.32-.195-.597-.498-.706-.301-.107-.63-.015-.848,.252l-1.154,1.704-1.231-1.675c-.425-.421-1.124-.411-1.579,.045l-1.19,1.63-1.253-1.792c-.186-.221-.528-.245-.812-.121-.268,.124-.434,.385-.434,.681v4.232c-1.654,0-3,1.346-3,3v4.5c0,1.93,1.57,3.5,3.5,3.5H11.5c1.93,0,3.5-1.57,3.5-3.5v-4.5c0-1.654-1.346-3-3-3ZM3,20.5v-4.5h3v5H3.5c-.275,0-.5-.224-.5-.5Zm9,0c0,.276-.225,.5-.5,.5h-2.5v-5h3v4.5Zm.819-18.154c-.362-.719-.029-1.667,.703-2.001,.843-.404,1.793-.456,2.676-.146,.882,.31,1.591,.945,1.995,1.789l.532,1.108c-.016-.175-.025-.328-.025-.445,0-.911,.739-1.65,1.65-1.65s1.65,.739,1.65,1.65c0,.797-.362,1.52-.823,2.12,.69-.048,1.411,.04,2.029,.416,.779,.473,1.027,1.488,.554,2.267-.473,.779-1.488,1.027-2.267,.554-.158-.096-.383-.263-.628-.454l.79,1.646c.834,1.74,.098,3.834-1.641,4.669-.721,.363-1.666,.03-2.002-.703L12.819,2.346ZM0,2.46c.005-.255,.165-.482,.404-.573l1.082-.41L1.92,.393C2.106-.122,2.894-.122,3.08,.393l.436,1.09,1.09,.436c.515,.186,.515,.975,0,1.161l-1.09,.436-.436,1.09c-.186,.515-.975,.515-1.161,0l-.438-1.097-1.099-.463C.147,2.948-.004,2.715,0,2.46Zm7,2c.005-.255,.165-.482,.404-.573l1.082-.41,.433-1.084c.186-.515,.975-.515,1.161,0l.436,1.09,1.09,.436c.515,.186,.515,.975,0,1.161l-1.09,.436-.436,1.09c-.186,.515-.975,.515-1.161,0l-.438-1.097-1.099-.463c-.236-.099-.387-.332-.382-.587Zm17,15.54c0,.307-.187,.583-.472,.697l-1.308,.523-.523,1.308c-.223,.618-1.17,.618-1.393,0l-.526-1.316-1.318-.556c-.614-.235-.597-1.181,.026-1.392l1.299-.492,.52-1.301c.223-.618,1.17-.618,1.393,0l.523,1.308,1.308,.523c.285,.114,.472,.39,.472,.697Z"/>
</svg>
