<?xml version="1.0" encoding="UTF-8"?>
<svg xmlns="http://www.w3.org/2000/svg" id="Layer_1" data-name="Layer 1" viewBox="0 0 24 24">
  <path d="M23.414,14.414l-1.828-1.828c-.375-.375-.884-.586-1.414-.586h-5.172c-1.657,0-3,1.343-3,3v6c0,1.657,1.343,3,3,3h6c1.657,0,3-1.343,3-3v-5.172c0-.53-.211-1.039-.586-1.414Zm-5.414,7.586c-1.105,0-2-.895-2-2s.895-2,2-2,2,.895,2,2-.895,2-2,2Zm1-6h-3c-.552,0-1-.448-1-1s.448-1,1-1h3c.552,0,1,.448,1,1s-.448,1-1,1Zm-13.583-1.519l.757-2.524c.171-.569,.694-.958,1.287-.958s1.117,.389,1.287,.958l.757,2.524c.227,.757-.34,1.519-1.13,1.519h-1.829c-.79,0-1.357-.762-1.13-1.519Zm7.544-5.481c-1.105,0-2-.895-2-2V3h-2v1.5c0,.828-.671,1.5-1.5,1.5s-1.5-.672-1.5-1.5v-1.5h-.5c-1.378,0-2.5,1.121-2.5,2.5v13c0,1.379,1.122,2.5,2.5,2.5h3.077c.829,0,1.5,.672,1.5,1.5s-.671,1.5-1.5,1.5h-3.077C2.429,24-.039,21.532-.039,18.5V5.5C-.039,2.468,2.429,0,5.461,0h6.343c1.468,0,2.85,.572,3.889,1.611l2.657,2.656c.815,.816,1.347,1.849,1.536,2.985,.136,.817-.387,1.747-1.425,1.747h-5.5Zm-7-.5c0-.828,.672-1.5,1.5-1.5s1.5,.672,1.5,1.5-.672,1.5-1.5,1.5-1.5-.672-1.5-1.5Z"/>
</svg>
