<?xml version="1.0" encoding="UTF-8"?>
<svg xmlns="http://www.w3.org/2000/svg" id="Layer_1" data-name="Layer 1" viewBox="0 0 24 24">
  <path d="M.362,9.221c.252-1.032,.643-2.004,1.135-2.908-.296-.514-.478-1.101-.478-1.736,0-1.933,1.567-3.5,3.5-3.5,.635,0,1.223,.182,1.736,.478,.904-.493,1.875-.883,2.908-1.135,.807-.2,1.617,.296,1.813,1.101,.197,.805-.296,1.617-1.101,1.813-.674,.165-1.306,.419-1.908,.722,.026,.171,.053,.343,.053,.522,0,1.933-1.567,3.5-3.5,3.5-.179,0-.35-.027-.522-.053-.303,.602-.557,1.234-.722,1.908-.193,.811-1.03,1.3-1.813,1.101-.805-.196-1.298-1.008-1.101-1.813Zm9.513,11.6c-.674-.165-1.306-.419-1.908-.722,.026-.171,.053-.343,.053-.522,0-1.933-1.567-3.5-3.5-3.5-.179,0-.35,.027-.522,.053-.303-.602-.557-1.234-.722-1.908-.196-.805-1.006-1.299-1.813-1.101-.805,.196-1.298,1.008-1.101,1.813,.252,1.032,.643,2.004,1.135,2.908-.296,.514-.478,1.101-.478,1.736,0,1.933,1.567,3.5,3.5,3.5,.635,0,1.223-.182,1.736-.478,.904,.493,1.875,.883,2.908,1.135,.783,.199,1.62-.291,1.813-1.101,.197-.805-.296-1.617-1.101-1.813Zm12.7-7.7c-.806-.198-1.616,.297-1.812,1.101-.164,.67-.422,1.303-.73,1.907-.169-.025-.337-.052-.513-.052-1.933,0-3.5,1.567-3.5,3.5,0,.176,.027,.344,.052,.513-.604,.309-1.237,.567-1.907,.73-.806,.196-1.298,1.008-1.102,1.813,.193,.81,1.029,1.3,1.812,1.101,1.032-.252,2.004-.643,2.908-1.136,.514,.296,1.101,.478,1.737,.478,1.933,0,3.5-1.567,3.5-3.5,0-.635-.182-1.223-.478-1.736,.493-.904,.883-1.875,1.135-2.908,.196-.805-.296-1.617-1.102-1.813ZM14.164,3.333c.669,.164,1.303,.421,1.907,.73-.025,.169-.052,.337-.052,.513,0,1.933,1.567,3.5,3.5,3.5,.176,0,.344-.027,.513-.052,.309,.604,.567,1.238,.73,1.907,.193,.81,1.029,1.3,1.812,1.101,.806-.196,1.298-1.008,1.102-1.813-.252-1.032-.643-2.004-1.135-2.908,.296-.514,.478-1.101,.478-1.736,0-1.933-1.567-3.5-3.5-3.5-.635,0-1.223,.182-1.737,.478-.904-.493-1.875-.883-2.908-1.136-.807-.198-1.616,.297-1.812,1.101-.197,.805,.296,1.617,1.102,1.813Zm2.836,7.417c0-1.519-1.119-2.75-2.5-2.75s-2.5,1.231-2.5,2.75c0-1.519-1.119-2.75-2.5-2.75s-2.5,1.231-2.5,2.75c0,2.023,2.467,4.71,3.935,5.879,.622,.495,1.507,.495,2.129,0,1.468-1.169,3.935-3.856,3.935-5.879Z"/>
</svg>
