<?xml version="1.0" encoding="UTF-8"?>
<svg xmlns="http://www.w3.org/2000/svg" id="Layer_1" data-name="Layer 1" viewBox="0 0 24 24">
  <path d="m22,1.5c0,.829-.671,1.5-1.5,1.5h-7c-1.378,0-2.5,1.122-2.5,2.5v14.599l4.414-4.634c.571-.6,1.521-.622,2.121-.051.6.571.623,1.521.051,2.121l-4.879,5.12c-.875.876-2.004,1.345-3.207,1.345s-2.333-.469-3.182-1.318l-4.904-5.146c-.571-.601-.548-1.55.051-2.121.6-.57,1.549-.548,2.121.051l4.414,4.633V5.5c0-3.033,2.467-5.5,5.5-5.5h7c.829,0,1.5.671,1.5,1.5Z"/>
</svg>
