<?xml version="1.0" encoding="UTF-8"?>
<svg xmlns="http://www.w3.org/2000/svg" id="Layer_1" data-name="Layer 1" viewBox="0 0 24 24">
  <path d="M22.385,6.615c-.931-.931-2.137-1.463-3.429-1.57-.106-1.295-.637-2.504-1.566-3.434-1.039-1.039-2.42-1.611-3.89-1.611H5.5c-1.465,0-2.846,.574-3.887,1.615C.572,2.656,0,4.037,0,5.502l.005,11.622c-.025,1.291,1.363,2.239,2.551,1.739l3.522-1.477c.426,2.612,2.692,4.613,5.422,4.613h5.5l4.443,1.863c1.188,.5,2.576-.449,2.551-1.739l.005-11.623c0-1.465-.572-2.846-1.613-3.887ZM3,5.501c0-.664,.261-1.291,.735-1.765,.474-.475,1.101-.736,1.765-.736H13.5c.668,0,1.296,.26,1.769,.732,.472,.472,.731,1.1,.731,1.768v6c0,1.378-1.121,2.5-2.5,2.5H6.697c-.199,0-.396,.04-.58,.117l-3.113,1.305-.004-9.921Zm17.994,14.921l-3.113-1.305c-.184-.077-.381-.117-.58-.117h-5.802c-1.208,0-2.218-.861-2.45-2h4.451c3.032,0,5.5-2.467,5.5-5.5v-3.448c.474,.097,.911,.331,1.263,.684,.475,.475,.735,1.102,.735,1.765l-.004,9.921ZM5.8,12c-.442,0-.8-.358-.8-.8V6c0-.552,.448-1,1-1h1.7c.442,0,.8,.358,.8,.8s-.358,.8-.8,.8h-1.101v1.101h1.101c.442,0,.8,.358,.8,.8s-.358,.8-.8,.8h-1.101v1.9c0,.442-.358,.8-.8,.8Zm4.5,0c.442,0,.8-.358,.8-.8v-1.7h.413l.718,1.973c.115,.316,.416,.527,.752,.527,.555,0,.942-.552,.752-1.074l-.674-1.853c.636-.458,1.028-1.235,.923-2.1-.137-1.136-1.135-1.973-2.279-1.973h-1.047c-.71,0-1.157,.448-1.157,1v5.2c0,.442,.358,.8,.8,.8Zm.8-5.4h.65c.358,0,.65,.292,.65,.65s-.292,.65-.65,.65h-.65v-1.3Z"/>
</svg>
