<?xml version="1.0" encoding="UTF-8"?>
<svg xmlns="http://www.w3.org/2000/svg" id="Layer_1" data-name="Layer 1" viewBox="0 0 24 24">
  <path d="m20.693,5.109c-2.731,4.647-9.967,13.024-18.97,14.375-.076.012-.15.017-.225.017-.73,0-1.37-.533-1.481-1.277-.123-.819.441-1.583,1.261-1.706,7.74-1.161,14.21-8.674,16.643-12.624l-1.618-.71c-.665-.292-.646-1.242.031-1.506L20.372.101c.599-.234,1.273.062,1.507.661l1.575,4.038c.264.677-.422,1.335-1.087,1.043l-1.674-.734ZM0,6C0,2.691,2.691,0,6,0s6,2.691,6,6-2.691,6-6,6S0,9.309,0,6Zm4-2c0,1.105.895,2,2,2s2-.895,2-2-.895-2-2-2-2,.895-2,2Zm-.966,4.66c.733.816,1.784,1.34,2.966,1.34s2.233-.524,2.966-1.34c-.618-.993-1.71-1.66-2.966-1.66s-2.348.667-2.966,1.66Zm19.466.34c-.829,0-1.5.672-1.5,1.5v12c0,.828.671,1.5,1.5,1.5s1.5-.672,1.5-1.5v-12c0-.828-.671-1.5-1.5-1.5Zm-5,4c-.829,0-1.5.672-1.5,1.5v8c0,.828.671,1.5,1.5,1.5s1.5-.672,1.5-1.5v-8c0-.828-.671-1.5-1.5-1.5Zm-5,4c-.829,0-1.5.672-1.5,1.5v4c0,.828.671,1.5,1.5,1.5s1.5-.672,1.5-1.5v-4c0-.828-.671-1.5-1.5-1.5Zm-5,3c-.829,0-1.5.672-1.5,1.5v1c0,.828.671,1.5,1.5,1.5s1.5-.672,1.5-1.5v-1c0-.828-.671-1.5-1.5-1.5Zm-6.5,2.5c0,.828.672,1.5,1.5,1.5s1.5-.672,1.5-1.5-.672-1.5-1.5-1.5-1.5.672-1.5,1.5Z"/>
</svg>
