<?xml version="1.0" encoding="UTF-8"?>
<svg xmlns="http://www.w3.org/2000/svg" id="Layer_1" data-name="Layer 1" viewBox="0 0 24 24">
  <path d="M24,12.5v3c0,.828-.672,1.5-1.5,1.5h-.089c-.673,1.657-1.886,3.035-3.419,3.922,.001,.026,.008,.051,.008,.078,0,1.654-1.346,3-3,3-1.302,0-2.402-.839-2.816-2h-2.369c-.414,1.161-1.514,2-2.816,2-1.654,0-3-1.346-3-3,0-.027,.006-.051,.008-.078-2.391-1.385-4.008-3.966-4.008-6.922,0-1.28,.312-2.514,.877-3.623-1.123-.709-1.877-1.953-1.877-3.377,0-1.251,.598-2.448,1.6-3.2,.662-.497,1.603-.363,2.1,.299,.497,.662,.363,1.603-.299,2.1-.254,.191-.4,.483-.4,.8,0,.471,.334,.848,.772,.954,.04-.034,.075-.073,.115-.107,.637-.53,1.583-.443,2.112,.194,.53,.637,.443,1.583-.194,2.112-1.147,.954-1.806,2.356-1.806,3.847,0,2.757,2.243,5,5,5h6c2.757,0,5-2.243,5-5,0-2.444-1.818-4.569-4.229-4.941-.819-.126-1.38-.893-1.254-1.711,.098-.637,.587-1.114,1.182-1.236,.586-1.967,1.929-2.809,3.088-3.085,.621-.148,1.212,.34,1.212,.978v3.738c1.072,.853,1.906,1.973,2.42,3.258h.08c.828,0,1.5,.671,1.5,1.5Zm-6,0c0-.828-.672-1.5-1.5-1.5s-1.5,.672-1.5,1.5,.672,1.5,1.5,1.5,1.5-.672,1.5-1.5ZM6.056,3.322C6.336,1.616,7.767,.248,9.482,.033c.669-.084,1.308-.003,1.901,.208,1.322,.469,2.316,1.664,2.555,3.046,.29,1.677-.467,3.202-1.722,4.038-.433,.289-.716,.754-.716,1.274v.401c0,.552-.448,1-1,1h-1c-.552,0-1-.448-1-1v-.403c0-.517-.277-.982-.708-1.268-1.251-.83-2.01-2.341-1.736-4.008Zm2.694,.678c0,.69,.56,1.25,1.25,1.25s1.25-.56,1.25-1.25-.56-1.25-1.25-1.25-1.25,.56-1.25,1.25Z"/>
</svg>
