<?xml version="1.0" encoding="UTF-8"?>
<svg xmlns="http://www.w3.org/2000/svg" id="Layer_1" data-name="Layer 1" viewBox="0 0 24 24">
  <path d="m19,13c1.379,0,2.5,1.121,2.5,2.5s-1.121,2.5-2.5,2.5-2.5-1.121-2.5-2.5,1.121-2.5,2.5-2.5Zm4.969,9.75c-.561-2.173-2.649-3.75-4.969-3.75s-4.408,1.577-4.969,3.75c-.077.299-.011.618.179.862.189.244.48.387.79.387h8c.31,0,.601-.143.79-.387.189-.245.256-.563.179-.862Zm-13.469-1.75h-5c-1.379,0-2.5-1.121-2.5-2.5V5.5c0-1.379,1.121-2.5,2.5-2.5h7c1.379,0,2.5,1.121,2.5,2.5v4c0,.828.672,1.5,1.5,1.5s1.5-.672,1.5-1.5v-4c0-3.032-2.468-5.5-5.5-5.5h-7C2.468,0,0,2.468,0,5.5v13c0,3.032,2.468,5.5,5.5,5.5h5c.828,0,1.5-.672,1.5-1.5s-.672-1.5-1.5-1.5ZM6.5,5c-.828,0-1.5.672-1.5,1.5s.672,1.5,1.5,1.5,1.5-.672,1.5-1.5-.672-1.5-1.5-1.5Zm5,0c-.828,0-1.5.672-1.5,1.5s.672,1.5,1.5,1.5,1.5-.672,1.5-1.5-.672-1.5-1.5-1.5Zm-5,5c-.828,0-1.5.672-1.5,1.5s.672,1.5,1.5,1.5,1.5-.672,1.5-1.5-.672-1.5-1.5-1.5Zm5,0c-.828,0-1.5.672-1.5,1.5s.672,1.5,1.5,1.5,1.5-.672,1.5-1.5-.672-1.5-1.5-1.5Zm-5,5c-.828,0-1.5.672-1.5,1.5s.672,1.5,1.5,1.5,1.5-.672,1.5-1.5-.672-1.5-1.5-1.5Zm5,0c-.828,0-1.5.672-1.5,1.5s.672,1.5,1.5,1.5,1.5-.672,1.5-1.5-.672-1.5-1.5-1.5Z"/>
</svg>
