<?xml version="1.0" encoding="UTF-8"?>
<svg xmlns="http://www.w3.org/2000/svg" id="Layer_1" data-name="Layer 1" viewBox="0 0 24 24">
  <path d="m7.757,14.757c-.293.293-.677.439-1.061.439s-.768-.146-1.061-.439c-.586-.585-.586-1.536,0-2.121,1.834-1.835,4.377-2.792,6.963-2.616.827.055,1.453.77,1.398,1.596-.055.827-.771,1.452-1.596,1.397-1.727-.112-3.42.521-4.644,1.744Zm9.623-7.596c.755.344,1.644.008,1.985-.746.343-.754.01-1.643-.745-1.986C12.584,1.688,5.376,2.997.687,7.687l-.272.278c-.572.6-.549,1.549.05,2.121.291.277.664.415,1.036.415.396,0,.791-.156,1.085-.464l.222-.228c3.811-3.812,9.668-4.874,14.572-2.646Zm6.181.278c-.586-.586-1.535-.586-2.121,0l-8.672,8.672c-.246-.065-.5-.112-.767-.112-1.657,0-3,1.343-3,3s1.343,3,3,3,3-1.343,3-3c0-.267-.046-.521-.112-.767l8.672-8.672c.586-.585.586-1.536,0-2.121Z"/>
</svg>
