<?xml version="1.0" encoding="UTF-8"?>
<svg xmlns="http://www.w3.org/2000/svg" id="Layer_1" data-name="Layer 1" viewBox="0 0 24 24">
  <path d="M22.385,6.615c-.931-.931-2.137-1.463-3.429-1.57-.106-1.295-.637-2.504-1.566-3.434-1.039-1.039-2.42-1.611-3.89-1.611H5.5c-1.465,0-2.846,.574-3.887,1.615C.572,2.656,0,4.037,0,5.502l.005,11.622c-.025,1.291,1.363,2.239,2.551,1.739l3.522-1.477c.426,2.612,2.692,4.613,5.422,4.613h5.5l4.443,1.863c1.188,.5,2.576-.449,2.551-1.739l.005-11.623c0-1.465-.572-2.846-1.613-3.887ZM3,5.501c0-.664,.261-1.291,.735-1.765,.474-.475,1.101-.736,1.765-.736H13.5c.668,0,1.296,.26,1.769,.732,.472,.472,.731,1.1,.731,1.768v6c0,1.378-1.121,2.5-2.5,2.5H6.697c-.199,0-.396,.04-.58,.117l-3.113,1.305-.004-9.921Zm17.994,14.921l-3.113-1.305c-.184-.077-.381-.117-.58-.117h-5.802c-1.208,0-2.218-.861-2.45-2h4.451c3.032,0,5.5-2.467,5.5-5.5v-3.448c.474,.097,.911,.331,1.263,.684,.475,.475,.735,1.102,.735,1.765l-.004,9.921ZM7.7,12h-1.7c-.552,0-1-.448-1-1V6c0-.552,.448-1,1-1h1.7c.442,0,.8,.358,.8,.8s-.358,.8-.8,.8h-1.101v1.101h1.101c.442,0,.8,.358,.8,.8s-.358,.8-.8,.8h-1.101v1.101h1.101c.442,0,.8,.358,.8,.8s-.358,.8-.8,.8Zm2.076-.966c-.33-.294-.36-.799-.066-1.129,.294-.332,.799-.36,1.129-.067,.271,.238,.864,.619,1.289,.619,.075,0,.739-.015,.739-.534,0-.253-.308-.44-1.042-.792-.815-.39-1.933-.925-1.933-2.208,0-1.172,.939-2.056,2.185-2.056,.938,0,1.877,.757,2.056,.908,.337,.286,.378,.791,.092,1.128-.285,.336-.788,.377-1.126,.093-.298-.25-.791-.53-1.021-.53-.06,0-.585,.013-.585,.457,0,.256,.405,.469,1.024,.765,.823,.394,1.95,.934,1.95,2.235,0,1.386-1.205,2.133-2.339,2.133-1.168,0-2.234-.917-2.352-1.022Z"/>
</svg>
