<?xml version="1.0" encoding="UTF-8"?>
<svg xmlns="http://www.w3.org/2000/svg" id="Layer_1" data-name="Layer 1" viewBox="0 0 24 24">
  <path d="m19,6.005c0-.555-.45-1.005-1.005-1.005h-3.262c-.652,0-.978.788-.517,1.249l.707.707-1.573,1.573c-1.377-.961-3.047-1.529-4.85-1.529C3.813,7,0,10.813,0,15.5s3.813,8.5,8.5,8.5,8.5-3.813,8.5-8.5c0-1.803-.568-3.473-1.529-4.85l1.573-1.573.707.707c.461.461,1.249.134,1.249-.517v-3.262Zm-10.5,14.995c-3.033,0-5.5-2.468-5.5-5.5s2.467-5.5,5.5-5.5,5.5,2.468,5.5,5.5-2.467,5.5-5.5,5.5Zm15.5-12.5c0,2.237-.862,4.35-2.429,5.948-.294.3-.683.45-1.071.45-.379,0-.758-.143-1.05-.429-.592-.58-.602-1.529-.021-2.121,1.014-1.034,1.571-2.401,1.571-3.849,0-3.032-2.468-5.5-5.5-5.5-1.49,0-2.885.587-3.929,1.651-.579.592-1.528.603-2.121.021-.592-.579-.602-1.529-.021-2.121,1.612-1.646,3.769-2.552,6.071-2.552,4.687,0,8.5,3.813,8.5,8.5Z"/>
</svg>
