<?xml version="1.0" encoding="UTF-8"?>
<svg xmlns="http://www.w3.org/2000/svg" id="Layer_1" data-name="Layer 1" viewBox="0 0 24 24">
  <path d="M22.732,9.013c-1.518-1.437-4.112-1.317-5.487,.257l-2.438,2.679c-.646-.589-1.507-.949-2.449-.949H4.5c-2.481,0-4.5,2.019-4.5,4.5v4c0,2.481,2.019,4.5,4.5,4.5h5.414c3.029,0,5.91-1.308,7.904-3.589l5.196-5.943c1.41-1.581,1.283-4.027-.282-5.455Zm-1.966,3.469l-5.206,5.955c-1.425,1.629-3.482,2.563-5.646,2.563H4.5c-.827,0-1.5-.673-1.5-1.5v-4c0-.827,.673-1.5,1.5-1.5h7.857c.354,0,.643,.288,.643,.642,0,.317-.237,.591-.551,.636l-5.161,.737c-.82,.117-1.391,.877-1.273,1.697,.117,.82,.877,1.39,1.697,1.273l5.162-.737c1.618-.231,2.875-1.531,3.093-3.115l3.497-3.843c.759-.855,2.089,.343,1.303,1.193ZM2,7.5V3.5C2,1.57,3.57,0,5.5,0h3.672c.935,0,1.813,.364,2.475,1.025l2.328,2.328c.661,.661,1.025,1.54,1.025,2.475v1.671c0,.829-.672,1.5-1.5,1.5s-1.5-.671-1.5-1.5v-1.5h-1.5c-.828,0-1.5-.672-1.5-1.5v-1.5h-3.5c-.275,0-.5,.224-.5,.5V7.5c0,.829-.672,1.5-1.5,1.5s-1.5-.671-1.5-1.5Z"/>
</svg>
