<?xml version="1.0" encoding="UTF-8"?>
<svg xmlns="http://www.w3.org/2000/svg" id="Layer_1" data-name="Layer 1" viewBox="0 0 24 24">
  <path d="m6.434,5.065c-.534-.622-.563-1.532-.071-2.188l1.558-2.077c.378-.504.971-.8,1.6-.8h1.605l-1.126,3h4l-1.126-3h1.606c.63,0,1.222.296,1.6.8l1.558,2.077c.492.656.462,1.565-.071,2.188l-5.568,5.935,2.06-6h-4.121l2.06,6-5.566-5.935Zm15.066-1.065c-1.379,0-2.5,1.122-2.5,2.5v3.605c-1.239-.278-2.589.055-3.551,1.017l-3.482,3.482c-.155-.177-.313-.354-.486-.526l-2.877-2.876c-.987-.987-2.349-1.362-3.604-1.099v-3.603c0-1.378-1.121-2.5-2.5-2.5S0,5.122,0,6.5v11.015c0,2.003.78,3.887,2.197,5.304l.742.742c.293.293.677.439,1.061.439s.768-.146,1.061-.439c.586-.586.586-1.535,0-2.121l-.742-.742c-.851-.851-1.318-1.98-1.318-3.183v-1.12l2.443,2.426c.587.583,1.538.581,2.121-.008.584-.588.58-1.537-.008-2.121l-2.449-2.432c-.102-.167-.141-.362-.11-.559.024-.158.105-.383.35-.556.312-.223.812-.146,1.137.178l2.877,2.876c1.095,1.095,1.627,2.237,1.627,3.491v2.81c0,.828.672,1.5,1.5,1.5s1.5-.672,1.5-1.5v-2.81c0-.843-.148-1.655-.429-2.436l4.012-4.012c.324-.322.849-.323,1.175,0,.271.27.317.693.122,1.016l-2.424,2.405c-.588.583-.592,1.533-.008,2.121.293.296.679.443,1.064.443.382,0,.764-.145,1.057-.436l2.443-2.424v1.145c0,1.202-.468,2.332-1.318,3.183l-.742.742c-.586.586-.586,1.535,0,2.121.293.293.677.439,1.061.439s.768-.146,1.061-.439l.742-.742c1.417-1.417,2.197-3.301,2.197-5.304V6.5c0-1.378-1.121-2.5-2.5-2.5Z"/>
</svg>
