<?xml version="1.0" encoding="UTF-8"?>
<svg xmlns="http://www.w3.org/2000/svg" id="Layer_1" data-name="Layer 1" viewBox="0 0 24 24">
  <path d="M21.794,7.342c-1.26-1.112-1.707-1.736-1.794-3.537V.724c0-.495-.491-.844-.96-.684-.937,.319-1.662,1.213-1.924,2.177-4.617,1.103-4.616,5.783-4.616,5.783v.185c-.585,.87-1.647,1.815-3,1.815-1.168,0-2.167,.376-2.935,1.005-1.575,.034-4.865,.393-5.542,4.236-.144,.815,.401,1.594,1.217,1.737,.088,.016,.176,.022,.262,.022,.714,0,1.347-.512,1.475-1.24,.111-.63,.289-1.165,1.036-1.474-.003,.072-.019,.137-.019,.21,0,1.771,1.055,3.401,1.786,4.318l-.82,2.187h-.461c-.829,0-1.5,.672-1.5,1.5s.671,1.5,1.5,1.5h13c.829,0,1.5-.672,1.5-1.5s-.671-1.5-1.5-1.5H9.164l.553-1.476c1.267-.739,2.149-1.601,2.616-2.153,1.204-.266,3.751-1.075,5.094-3.23l1.167,.583-.297,.743-.06,.035c-.713,.421-.951,1.341-.53,2.054,.28,.475,.78,.738,1.293,.738,.259,0,.521-.067,.761-.208l.5-.295c.286-.169,.507-.427,.63-.735l1-2.5c.29-.724-.024-1.55-.722-1.898l-3.171-1.585v-1.967l2.669,.838c.794,.225,1.618-.244,1.831-1.041,.2-.708-.154-1.074-.706-1.561Zm-10.477,7.168c-.426,.053-.816,.295-1.059,.648-.006,.009-.493,.702-1.424,1.383-.422-.604-.84-1.379-.84-2.044,.002-1.498,1.134-1.498,1.506-1.498,2.403,0,4.38-1.457,5.5-3.139v2.499c-.89,1.763-3.659,2.148-3.683,2.151Z"/>
</svg>
