<?xml version="1.0" encoding="UTF-8"?>
<svg xmlns="http://www.w3.org/2000/svg" id="Layer_1" data-name="Layer 1" viewBox="0 0 24 24">
  <path d="M1,3.5c0-1.381,1.119-2.5,2.5-2.5s2.5,1.119,2.5,2.5-1.119,2.5-2.5,2.5S1,4.881,1,3.5ZM23.732,12.645c-.471-.68-1.407-.848-2.088-.377l-13,9.021c-.681,.473-.85,1.407-.377,2.088,.475,.686,1.415,.845,2.088,.377l13-9.021c.681-.473,.85-1.407,.377-2.088Zm-13.732,4.855v-1.5c0-1.103-.897-2-2-2h-2v-3h.672c.935,0,1.813-.364,2.475-1.025l1.914-1.914c.586-.586,.586-1.535,0-2.121s-1.535-.586-2.121,0l-1.914,1.914c-.094,.093-.222,.146-.354,.146H3.5c-1.381,0-2.5,1.119-2.5,2.5v9.115c0,.063-.013,.127-.035,.185L.107,21.942c-.308,.77,.066,1.643,.835,1.95,.749,.305,1.643-.058,1.95-.835l.859-2.147c.164-.415,.248-.851,.248-1.295v-2.615h3v.5c0,.828,.672,1.5,1.5,1.5s1.5-.672,1.5-1.5Zm1.986-11.5c0-3.309,2.691-6,6-6s6,2.691,6,6-2.691,6-6,6-6-2.691-6-6Zm3,0c0,1.654,1.346,3,3,3s3-1.346,3-3-1.346-3-3-3-3,1.346-3,3Z"/>
</svg>
