<?xml version="1.0" encoding="UTF-8"?>
<svg xmlns="http://www.w3.org/2000/svg" id="Layer_1" data-name="Layer 1" viewBox="0 0 24 24">
  <path d="m12.863,21.972c-.191,1.175-1.215,2.028-2.436,2.028-.664,0-1.3-.195-1.839-.552-.388-.257-.448-.802-.119-1.131.236-.235.603-.283.888-.111.316.191.688.297,1.069.297.604,0,1.031-.404,1.096-.795.089-.55-.602-.873-.816-.959-.915-.371-1.751-.78-1.753-.78-.692-.484-1.027-1.231-.921-2.049.111-.845.674-1.534,1.471-1.796.839-.277,1.603-.076,2.152.203.405.205.518.733.238,1.095l-.011.014c-.195.253-.539.347-.831.216-.308-.138-.72-.237-1.156-.096-.412.136-.517.447-.516.577.005.442.335.57.433.615.282.128.806.368,1.366.595,1.461.591,1.828,1.745,1.685,2.627Zm10.337-5.98h-3.4c-.442,0-.8.358-.8.8s.358.8.8.8h.851v5.601c0,.442.358.8.8.8s.8-.358.8-.8v-5.601h.95c.442,0,.8-.358.8-.8s-.358-.8-.8-.8Zm-4.7-13.992h-.5v-.5c0-.828-.672-1.5-1.5-1.5s-1.5.672-1.5,1.5v.5h-6v-.5c0-.828-.671-1.5-1.5-1.5s-1.5.672-1.5,1.5v.5h-.5C2.467,2,0,4.468,0,7.5v11.126c0,2.511,1.697,4.701,4.126,5.326.125.033.251.048.375.048.668,0,1.277-.449,1.452-1.126.207-.802-.276-1.62-1.079-1.826-1.104-.284-1.874-1.28-1.874-2.422v-9.626h18v3.5c0,.828.672,1.5,1.5,1.5s1.5-.672,1.5-1.5v-5c0-3.032-2.468-5.5-5.5-5.5Zm-.572,15.619l1.142,5.435c.102.483-.267.937-.761.937-.368,0-.729-.258-.804-.617l-.165-.782h-2.379l-.175.79c-.079.356-.394.61-.759.61-.494,0-.863-.456-.76-.939l1.165-5.479c.116-.58.568-1.581,1.742-1.581s1.618.959,1.753,1.627Zm-.924,3.373l-.641-3.044c-.047-.231-.144-.334-.168-.349l-.017-.006c-.071.042-.146.146-.176.296l-.686,3.104h1.688Z"/>
</svg>
