<?xml version="1.0" encoding="UTF-8"?>
<svg xmlns="http://www.w3.org/2000/svg" id="Layer_1" data-name="Layer 1" viewBox="0 0 24 24">
  <path d="m4,9c-1.105,0-2-.895-2-2v-2.05C.625,4.67-.34,3.264.113,1.737.349.939,1.017.302,1.821.09c.944-.25,1.832.042,2.429.628.451-.443,1.068-.718,1.75-.718s1.299.275,1.75.718c.597-.586,1.484-.878,2.429-.628.804.213,1.472.85,1.709,1.647.453,1.527-.512,2.933-1.887,3.213v2.05c0,1.105-.895,2-2,2h-4Zm15,3.5c0-.828-.672-1.5-1.5-1.5h-7c-.829,0-1.5.672-1.5,1.5s.671,1.5,1.5,1.5h7c.828,0,1.5-.672,1.5-1.5Zm-5.5-3.5h4c.828,0,1.5-.672,1.5-1.5s-.672-1.5-1.5-1.5h-4c-.829,0-1.5.672-1.5,1.5s.671,1.5,1.5,1.5Zm-3,7c-.829,0-1.5.672-1.5,1.5s.671,1.5,1.5,1.5h1c.829,0,1.5-.672,1.5-1.5s-.671-1.5-1.5-1.5h-1ZM18.5,0h-3c-.828,0-1.5.672-1.5,1.5s.672,1.5,1.5,1.5h3c1.379,0,2.5,1.121,2.5,2.5v9.5h-4c-1.105,0-2,.895-2,2v4h-5.5c-1.378,0-2.5-1.121-2.5-2.5v-6c0-.828-.671-1.5-1.5-1.5s-1.5.672-1.5,1.5v6c0,3.032,2.467,5.5,5.5,5.5h6.343c1.47,0,2.851-.572,3.89-1.611l2.656-2.656c1.039-1.039,1.611-2.42,1.611-3.89V5.5c0-3.032-2.468-5.5-5.5-5.5Z"/>
</svg>
