<?xml version="1.0" encoding="UTF-8"?>
<svg xmlns="http://www.w3.org/2000/svg" id="Layer_1" data-name="Layer 1" viewBox="0 0 24 24">
  <path d="m19.4,10.3v3.4c0,.386-.314.7-.7.7s-.7,0-.7,0v-4.802s.314,0,.7,0,.7.314.7.7Zm-14.301-.7h-.5v1.8h.5c.496,0,.9-.404.9-.9s-.404-.9-.9-.9Zm4.512,3.401h1.261l-.638-3.295-.624,3.295Zm14.388-4.001v6c0,1.052-.543,1.974-1.363,2.509-1.999,3.849-6.009,6.491-10.637,6.491s-8.639-2.642-10.637-6.491c-.819-.536-1.363-1.458-1.363-2.509v-6c0-1.052.543-1.974,1.363-2.509C3.361,2.642,7.371,0,12,0s8.639,2.642,10.637,6.491c.819.536,1.363,1.458,1.363,2.509ZM5.312,6h13.377c-1.646-1.838-4.031-3-6.688-3s-5.042,1.162-6.688,3Zm9.289,2c-.442,0-.8.358-.8.8v6.4c0,.442.358.8.8.8s.8-.358.8-.8v-6.4c0-.442-.358-.8-.8-.8Zm-2.998,1.193c-.12-.668-.589-1.192-1.346-1.192s-1.281.587-1.385,1.167l-1.2,5.976c-.089.443.25.857.702.857.345,0,.641-.246.704-.585l.166-.889h2.006l.157.883c.061.342.358.591.705.591h.01c.453,0,.793-.416.701-.86l-1.221-5.947Zm-6.503,3.807c1.365,0,2.474-1.093,2.5-2.452.026-1.401-1.154-2.548-2.556-2.548h-1.244c-.442,0-.8.358-.8.8v6.4c0,.442.358.8.8.8s.8-.358.8-.8v-2.2h.5Zm13.589,5H5.312c1.646,1.838,4.031,3,6.688,3s5.042-1.162,6.688-3Zm2.312-7.7c0-1.27-1.03-2.3-2.3-2.3h-1.5c-.442,0-.8.358-.8.8v6.4c0,.442.358.8.8.8h1.5c1.27,0,2.3-1.03,2.3-2.3v-3.4Z"/>
</svg>
