<?xml version="1.0" encoding="UTF-8"?>
<svg xmlns="http://www.w3.org/2000/svg" id="Layer_1" data-name="Layer 1" viewBox="0 0 24 24">
  <path d="m3.5,20c-1.105,0-2-.895-2-2s.895-2,2-2,2,.895,2,2-.895,2-2,2Zm0-16c1.105,0,2-.895,2-2S4.605,0,3.5,0,1.5.895,1.5,2s.895,2,2,2Zm17,0c1.105,0,2-.895,2-2s-.895-2-2-2-2,.895-2,2,.895,2,2,2Zm-2,14c0,1.105.895,2,2,2s2-.895,2-2-.895-2-2-2-2,.895-2,2Zm-1.241-2.447c-.266,1.419-1.505,2.447-2.949,2.447h-5.289c-1.116,0-2.021-.905-2.021-2.021v-3.958c0-1.116.905-2.021,2.021-2.021l1.754-3.319c.144-.281.343-.491.546-.575.169-.07.342-.106.512-.106.545,0,.995.357,1.145.909.018.064.04.212-.005.479l-.464,2.612h4.027c.808,0,1.464.655,1.464,1.464,0,.091-.741,4.089-.741,4.089Zm-2.574-2.553h-4.685v2h4.31l.375-2ZM3.5,5c-1.503,0-2.795.793-3.419,1.945-.262.485.143,1.055.735,1.055h5.368c.592,0,.997-.57.735-1.055-.623-1.152-1.915-1.945-3.419-1.945Zm14.316,3h5.368c.592,0,.997-.57.735-1.055-.623-1.152-1.915-1.945-3.419-1.945s-2.795.793-3.419,1.945c-.262.485.143,1.055.735,1.055ZM3.5,21c-1.503,0-2.795.793-3.419,1.945-.262.485.143,1.055.735,1.055h5.368c.592,0,.997-.57.735-1.055-.623-1.152-1.915-1.945-3.419-1.945Zm17,0c-1.503,0-2.795.793-3.419,1.945-.262.485.143,1.055.735,1.055h5.368c.592,0,.997-.57.735-1.055-.623-1.152-1.915-1.945-3.419-1.945Z"/>
</svg>
