<?xml version="1.0" encoding="UTF-8"?>
<svg xmlns="http://www.w3.org/2000/svg" id="Layer_1" data-name="Layer 1" viewBox="0 0 24 24">
  <path d="m23.004,9.594h0l-2.003-2.003v-1.091c0-1.93-1.57-3.5-3.5-3.5h-1.091l-2.003-2.003c-1.285-1.285-3.528-1.285-4.812,0l-2.003,2.003h-1.091c-1.93,0-3.5,1.57-3.5,3.5v1.091l-2.004,2.003c-1.326,1.327-1.326,3.485,0,4.812l2.003,2.003v1.091c0,1.93,1.57,3.5,3.5,3.5h1.091l2.003,2.003c.643.643,1.497.997,2.406.997s1.764-.354,2.406-.997l2.003-2.003h1.091c1.93,0,3.5-1.57,3.5-3.5v-1.091l2.004-2.003c1.326-1.327,1.326-3.485,0-4.812Zm-2.122,2.691l-2.443,2.442c-.281.281-.439.663-.439,1.061v1.712c0,.275-.224.5-.5.5h-1.712c-.398,0-.779.158-1.061.439l-2.442,2.442c-.195.195-.375.195-.57,0l-2.443-2.442c-.281-.281-.663-.439-1.061-.439h-1.712c-.276,0-.5-.225-.5-.5v-1.712c0-.397-.158-.779-.439-1.061l-2.442-2.442c-.157-.157-.157-.413,0-.57l2.443-2.442c.281-.281.439-.663.439-1.061v-1.712c0-.275.224-.5.5-.5h1.712c.398,0,.779-.158,1.061-.439l2.443-2.442c.194-.195.374-.195.569,0l2.442,2.442c.281.281.663.439,1.061.439h1.712c.276,0,.5.225.5.5v1.712c0,.397.158.779.439,1.061l2.442,2.442c.157.157.157.413,0,.57Z"/>
</svg>
