<?xml version="1.0" encoding="UTF-8"?>
<svg xmlns="http://www.w3.org/2000/svg" id="Layer_1" data-name="Layer 1" viewBox="0 0 24 24">
  <path d="m23,20c0-.786.572-1.448.602-1.482.402-.436.51-1.067.275-1.612-.237-.55-.778-.905-1.377-.905h-5.191c1.641-1.131,2.691-3.126,2.691-5.5,0-3.213-1.919-5.738-4.634-6.353.544-.18,1.101-.446,1.541-.862.781-.738,1.031-1.782,1.107-2.493.047-.442-.322-.812-.764-.773-.753.066-1.887.297-2.685,1.051-.776.734-1.069,1.815-1.183,2.568-.197-1.24-.606-2.005-.929-2.603l-.124-.23c-.384-.735-1.29-1.018-2.025-.634-.734.384-1.017,1.291-.633,2.024l.143.268c.246.454.467.873.588,1.537h-.472c-3.381,0-5.93,2.796-5.93,6.5,0,2.374,1.05,4.369,2.691,5.5h-2.691c-2.206,0-4,1.794-4,4s1.794,4,4,4h18.5c.592,0,1.123-.355,1.364-.896s.135-1.18-.261-1.62c-.006-.007-.603-.68-.603-1.483ZM9.931,7h4.138c1.726,0,2.931,1.439,2.931,3.5s-1.206,3.5-2.932,3.5c-.284,0-.563-.044-.833-.13-.404-.129-.819-.193-1.234-.193s-.833.064-1.24.194c-.267.085-.546.129-.83.129-1.726,0-2.932-1.439-2.932-3.5s1.206-3.499,2.931-3.5Zm10.177,14H4c-.551,0-1-.448-1-1s.449-1,1-1h16.107c-.067.312-.107.647-.107,1s.041.688.107,1Z"/>
</svg>
