<?xml version="1.0" encoding="UTF-8"?>
<svg xmlns="http://www.w3.org/2000/svg" id="Layer_1" data-name="Layer 1" viewBox="0 0 24 24">
  <path d="M0,7.5c0-1.381,1.119-2.5,2.5-2.5s2.5,1.119,2.5,2.5-1.119,2.5-2.5,2.5S0,8.881,0,7.5Zm21.5,2.5c1.381,0,2.5-1.119,2.5-2.5s-1.119-2.5-2.5-2.5-2.5,1.119-2.5,2.5,1.119,2.5,2.5,2.5Zm-7,9h-5c-1.379,0-2.5,1.122-2.5,2.5v1c0,.829,.672,1.5,1.5,1.5s1.5-.671,1.5-1.5v-.5h4v.5c0,.829,.672,1.5,1.5,1.5s1.5-.671,1.5-1.5v-1c0-1.378-1.121-2.5-2.5-2.5ZM7.094,4.024c.363-1.895,1.864-3.457,3.733-3.889,1.523-.35,3.083-.005,4.284,.95,1.2,.955,1.889,2.382,1.889,3.915,0,1.722-.875,3.298-2.341,4.217-.094,.059-.159,.211-.159,.37v.413c0,1.103-.897,2-2,2h-1c-1.103,0-2-.897-2-2v-.414c0-.165-.077-.316-.201-.395-1.729-1.108-2.595-3.136-2.205-5.167Zm3.823,2.64c.446,.286,.812,.665,1.078,1.103,.265-.439,.627-.814,1.07-1.092,.585-.367,.935-.993,.935-1.676,0-.613-.275-1.184-.757-1.566-.487-.388-1.104-.521-1.74-.375-.721,.167-1.322,.796-1.464,1.532-.19,.993,.329,1.723,.878,2.074Zm-3.417,10.335h2c.828,0,1.5-.671,1.5-1.5s-.672-1.5-1.5-1.5h-1.56l-4.034-2.589c-.365-.189-.729-.35-1.148-.398-1.496-.15-2.758,1.021-2.758,2.487v8.5c0,1.105,.895,2,2,2h1c1.105,0,2-.895,2-2v-6.322l1.689,1.084c.242,.155,.523,.238,.811,.238Zm13.742-5.987c-.419,.048-.784,.208-1.148,.398l-4.034,2.589h-1.56c-.828,0-1.5,.671-1.5,1.5s.672,1.5,1.5,1.5h2c.287,0,.568-.083,.811-.238l1.689-1.084v6.322c0,1.105,.895,2,2,2h1c1.105,0,2-.895,2-2V13.5c0-1.466-1.261-2.637-2.758-2.487Z"/>
</svg>
