<?xml version="1.0" encoding="UTF-8"?>
<svg xmlns="http://www.w3.org/2000/svg" id="Layer_1" data-name="Layer 1" viewBox="0 0 24 24">
  <path d="m8.5,20h-3c-1.378,0-2.5-1.121-2.5-2.5v-5c0-1.378,1.122-2.5,2.5-2.5h9.354c.61,0,1.197.222,1.653.625.62.548,1.569.49,2.117-.132.548-.621.489-1.569-.132-2.117-.446-.393-.954-.694-1.493-.923v-.452c0-3.86-3.14-7-7-7S3,3.14,3,7v.607c-1.778.912-3,2.761-3,4.893v5c0,3.032,2.467,5.5,5.5,5.5h3c.829,0,1.5-.672,1.5-1.5s-.671-1.5-1.5-1.5Zm1.5-17c2.206,0,4,1.794,4,4H6c0-2.206,1.794-4,4-4Zm8,9c-3.314,0-6,2.686-6,6s2.686,6,6,6,6-2.686,6-6-2.686-6-6-6Zm3.683,5.712l-2.703,2.614c-.452.446-1.052.671-1.653.671s-1.203-.225-1.663-.674l-1.354-1.332c-.395-.387-.4-1.02-.014-1.414.386-.395,1.019-.401,1.414-.014l1.354,1.331c.144.142.38.139.522-.002l2.713-2.624c.397-.381,1.031-.37,1.414.029.382.398.369,1.031-.029,1.414Zm-12.183-3.712h1.582c-.525.904-.877,1.918-1.013,3h-.569c-.829,0-1.5-.672-1.5-1.5s.671-1.5,1.5-1.5Z"/>
</svg>
