<?xml version="1.0" encoding="UTF-8"?>
<svg xmlns="http://www.w3.org/2000/svg" id="Layer_1" data-name="Layer 1" viewBox="0 0 24 24">
  <path d="M8.772,22.14c-.256,.542-.795,.86-1.357,.86-.215,0-.433-.046-.64-.144C3.114,21.128,.587,17.71,.016,13.712c-.118-.82,.452-1.58,1.271-1.697,.827-.12,1.58,.453,1.698,1.272,.429,2.996,2.324,5.56,5.071,6.856,.749,.354,1.069,1.248,.716,1.997ZM2,7.997H6.586c.891,0,1.337-1.077,.707-1.707l-1.127-1.127c1.617-1.382,3.666-2.163,5.834-2.163,3.458,0,6.65,2.019,8.134,5.144,.257,.541,.795,.857,1.356,.857,.216,0,.435-.047,.643-.146,.748-.355,1.066-1.25,.711-1.999C20.866,2.691,16.609,0,12,0c-2.971,0-5.776,1.099-7.957,3.04l-1.336-1.336c-.63-.63-1.707-.184-1.707,.707V6.997c0,.552,.448,1,1,1Zm22,7.003v5c0,2.206-1.794,4-4,4s-4-1.794-4-4v-5c0-2.206,1.794-4,4-4s4,1.794,4,4Zm-3,0c0-.551-.448-1-1-1s-1,.449-1,1v5c0,.551,.448,1,1,1s1-.449,1-1v-5Zm-7.984-3.87c-.636-.262-1.353-.124-1.862,.389l-2.752,2.96c-.564,.607-.529,1.556,.077,2.12,.606,.563,1.555,.53,2.12-.077l.426-.459-.024,6.432c-.003,.829,.666,1.502,1.494,1.506h.006c.826,0,1.497-.668,1.5-1.494l.038-9.87c0-.658-.401-1.25-1.022-1.506Z"/>
</svg>
