<?xml version="1.0" encoding="UTF-8"?>
<svg xmlns="http://www.w3.org/2000/svg" id="Layer_1" data-name="Layer 1" viewBox="0 0 24 24">
  <path d="m14.269,6.481L20.103.673c.953-.953,2.534-.894,3.409.176.761.93.598,2.317-.252,3.167l-5.741,5.715c-.813.813-1.915,1.269-3.064,1.269h-.955c-.276,0-.5-.224-.5-.5v-.955c0-1.149.457-2.252,1.269-3.064Zm9.731,13.019v.5c0,2.206-1.794,4-4,4h-11c-2.206,0-4-1.794-4-4v-12h-1.5c-1.93,0-3.5-1.57-3.5-3.5v-.5C0,1.898,1.635.158,3.697,0h10.803c.828,0,1.5.672,1.5,1.5s-.672,1.5-1.5,1.5h-6.642c.084.322.142.653.142,1v16c0,.552.448,1,1,1s1-.448,1-1v-.5c0-1.93,1.57-3.5,3.5-3.5h3.5v-2.5c0-.828.672-1.5,1.5-1.5s1.5.672,1.5,1.5v2.5h.5c1.93,0,3.5,1.57,3.5,3.5ZM5,4c0-.552-.448-1-1-1s-1,.448-1,1v.5c0,.275.225.5.5.5h1.5v-1Zm16,15.5c0-.275-.225-.5-.5-.5h-7c-.275,0-.5.225-.5.5v.5c0,.345-.044.681-.127,1h7.127c.552,0,1-.448,1-1v-.5Z"/>
</svg>
