<?xml version="1.0" encoding="UTF-8"?>
<svg xmlns="http://www.w3.org/2000/svg" id="Layer_1" data-name="Layer 1" viewBox="0 0 24 24">
  <path d="m22.5,21h-3.879l-5.121-5.121V7.621l1.733-1.733c.246.065.5.112.767.112,1.657,0,3-1.343,3-3s-1.343-3-3-3-3,1.343-3,3c0,.267.046.521.112.767l-4.672,4.672c-.586.586-.586,1.535,0,2.121.293.293.677.439,1.061.439.36,0,.715-.141,1-.399v5.278l-5.121,5.121H1.5c-.829,0-1.5.672-1.5,1.5s.671,1.5,1.5,1.5h21c.828,0,1.5-.672,1.5-1.5s-.672-1.5-1.5-1.5Zm-10.5-2.379l2.379,2.379h-4.758l2.379-2.379Z"/>
</svg>
