<?xml version="1.0" encoding="UTF-8"?>
<svg xmlns="http://www.w3.org/2000/svg" id="Layer_1" data-name="Layer 1" viewBox="0 0 24 24">
  <path d="m7.757,22.672c-.288.441-.768.682-1.259.682-.28,0-.564-.078-.817-.243-1.435-.934-2.34-2.447-2.482-4.153l-1.08-12.957h-.62c-.829,0-1.5-.672-1.5-1.5s.671-1.5,1.5-1.5h4.776c.621-1.742,2.271-3,4.224-3h3c1.953,0,3.602,1.258,4.224,3h4.776c.829,0,1.5.672,1.5,1.5s-.671,1.5-1.5,1.5h-.62l-.219,2.625c-.065.783-.662,1.452-1.619,1.37-.826-.069-1.439-.794-1.37-1.62l.198-2.375H5.13l1.059,12.707c.065.776.477,1.465,1.129,1.89.694.451.891,1.381.439,2.075Zm6.743-1.672h-1.387c-.024,0-.065,0-.096-.057-.032-.057-.01-.092.002-.111l.644-1.045c.435-.705.215-1.629-.49-2.064-.707-.433-1.63-.216-2.064.49l-.645,1.046c-.59.959-.616,2.165-.067,3.148.549.982,1.589,1.593,2.715,1.593h1.387c.829,0,1.5-.672,1.5-1.5s-.671-1.5-1.5-1.5Zm8.372-2.798c-.44-.7-1.366-.913-2.068-.473-.702.44-.913,1.367-.472,2.068l.648,1.033c.014.021.035.055.003.112-.032.057-.071.057-.097.057h-1.387c-.829,0-1.5.672-1.5,1.5s.671,1.5,1.5,1.5h1.387c1.131,0,2.174-.615,2.722-1.605.548-.99.514-2.201-.088-3.159l-.649-1.033Zm-2.984-1.932c.702-.441.913-1.367.472-2.068l-.763-1.215c-.575-.917-1.553-1.443-2.646-1.457-1.082.004-2.067.557-2.636,1.479l-.742,1.204c-.434.706-.215,1.63.491,2.064.245.151.517.223.785.223.503,0,.995-.253,1.279-.713l.741-1.204c.011-.019.033-.053.094-.053.062.007.082.033.094.052l.764,1.216c.44.702,1.366.912,2.068.473Z"/>
</svg>
