<?xml version="1.0" encoding="UTF-8"?>
<svg xmlns="http://www.w3.org/2000/svg" id="Layer_1" data-name="Layer 1" viewBox="0 0 24 24">
  <path d="m8.5,4v-2c0-1.105.895-2,2-2h3c1.105,0,2,.895,2,2v2c0,1.105-.895,2-2,2h-3c-1.105,0-2-.895-2-2Zm-3.5,14h-3c-1.105,0-2,.895-2,2v2c0,1.105.895,2,2,2h3c1.105,0,2-.895,2-2v-2c0-1.105-.895-2-2-2Zm8.5,0h-3c-1.105,0-2,.895-2,2v2c0,1.105.895,2,2,2h3c1.105,0,2-.895,2-2v-2c0-1.105-.895-2-2-2Zm8.5,0h-3c-1.105,0-2,.895-2,2v2c0,1.105.895,2,2,2h3c1.105,0,2-.895,2-2v-2c0-1.105-.895-2-2-2Zm-18.5-1c.829,0,1.5-.672,1.5-1.5v-.5c0-.827.673-1.5,1.5-1.5h4v2c0,.828.671,1.5,1.5,1.5s1.5-.672,1.5-1.5v-2h4c.827,0,1.5.673,1.5,1.5v.5c0,.828.672,1.5,1.5,1.5s1.5-.672,1.5-1.5v-.5c0-2.481-2.019-4.5-4.5-4.5h-4v-2c0-.828-.671-1.5-1.5-1.5s-1.5.672-1.5,1.5v2h-4c-2.481,0-4.5,2.019-4.5,4.5v.5c0,.828.671,1.5,1.5,1.5Z"/>
</svg>
