<?xml version="1.0" encoding="UTF-8"?>
<svg xmlns="http://www.w3.org/2000/svg" id="Layer_1" data-name="Layer 1" viewBox="0 0 24 24">
  <path d="M20.5,10h-1.5V4.5c0-2.481-2.019-4.5-4.5-4.5h-5c-2.481,0-4.5,2.019-4.5,4.5v5.5h-1.5c-1.93,0-3.5,1.57-3.5,3.5v6c0,2.481,2.019,4.5,4.5,4.5h15c2.481,0,4.5-2.019,4.5-4.5v-6c0-1.93-1.57-3.5-3.5-3.5Zm-12.5,3h2.5v8h-2.5V13Zm5.5,0h2.5v8h-2.5V13ZM9.5,3h5c.827,0,1.5,.673,1.5,1.5v5.5H8V4.5c0-.827,.673-1.5,1.5-1.5ZM3,19.5v-6c0-.275,.225-.5,.5-.5h1.5v8h-.5c-.827,0-1.5-.673-1.5-1.5Zm18,0c0,.827-.673,1.5-1.5,1.5h-.5V13h1.5c.275,0,.5,.225,.5,.5v6Z"/>
</svg>
