<?xml version="1.0" encoding="UTF-8"?>
<svg xmlns="http://www.w3.org/2000/svg" id="Layer_1" data-name="Layer 1" viewBox="0 0 24 24">
  <path d="m24,22.5c0,.828-.672,1.5-1.5,1.5H3.5c-1.93,0-3.5-1.57-3.5-3.5V1.5C0,.672.672,0,1.5,0s1.5.672,1.5,1.5v19c0,.275.225.5.5.5h19c.828,0,1.5.672,1.5,1.5Zm-1-20.5h-5.047c-.848,0-1.272,1.025-.673,1.624l1.471,1.471-2.812,2.759c-.128.127-.276.146-.354.146s-.226-.019-.353-.146c-.061-.061-1.277-.93-1.277-.93-1.332-1.229-3.597-1.151-4.806.062l-3.672,3.414c-.606.564-.642,1.514-.077,2.12.296.317.696.479,1.099.479.366,0,.732-.133,1.021-.401l3.712-3.453c.127-.127.275-.146.353-.146s.226.02.354.146c.061.061,1.276.929,1.276.929,1.33,1.228,3.565,1.177,4.835-.09l2.823-2.769,1.503,1.503c.599.599,1.624.175,1.624-.673V3c0-.552-.448-1-1-1Zm-.624,10.281l-1.487,1.487-1.328-1.328c-.586-.586-1.535-.586-2.121,0s-.586,1.535,0,2.121l1.328,1.328-1.487,1.487c-.599.599-.175,1.624.673,1.624h5.047c.552,0,1-.448,1-1v-5.047c0-.848-1.025-1.272-1.624-.673Z"/>
</svg>
