<?xml version="1.0" encoding="UTF-8"?>
<svg xmlns="http://www.w3.org/2000/svg" id="Layer_1" data-name="Layer 1" viewBox="0 0 24 24">
  <path d="M21.223,13.17c.371-.744,.371-1.597,0-2.341-.615-1.231-3.98-5.83-9.223-5.83S3.392,9.598,2.777,10.831c-.371,.744-.371,1.597,0,2.342,.615,1.231,3.982,5.828,9.223,5.828s8.608-4.598,9.223-5.83Zm-9.223,2.83c-3.441,0-5.863-3.043-6.444-4,.581-.958,3.001-4,6.444-4s5.862,3.042,6.444,4c-.582,.958-3.002,4-6.444,4Zm2.5-4c0,1.381-1.119,2.5-2.5,2.5s-2.5-1.119-2.5-2.5,1.119-2.5,2.5-2.5,2.5,1.119,2.5,2.5ZM0,6.5v-1C0,2.467,2.467,0,5.5,0h2c.829,0,1.5,.671,1.5,1.5s-.671,1.5-1.5,1.5h-2c-1.378,0-2.5,1.122-2.5,2.5v1c0,.829-.671,1.5-1.5,1.5s-1.5-.671-1.5-1.5ZM9,22.5c0,.829-.671,1.5-1.5,1.5h-2c-3.033,0-5.5-2.467-5.5-5.5v-1c0-.829,.671-1.5,1.5-1.5s1.5,.671,1.5,1.5v1c0,1.378,1.122,2.5,2.5,2.5h2c.829,0,1.5,.671,1.5,1.5Zm15-5v1c0,3.033-2.467,5.5-5.5,5.5h-2c-.829,0-1.5-.671-1.5-1.5s.671-1.5,1.5-1.5h2c1.378,0,2.5-1.122,2.5-2.5v-1c0-.829,.671-1.5,1.5-1.5s1.5,.671,1.5,1.5Zm0-12v1c0,.829-.671,1.5-1.5,1.5s-1.5-.671-1.5-1.5v-1c0-1.378-1.122-2.5-2.5-2.5h-2c-.829,0-1.5-.671-1.5-1.5s.671-1.5,1.5-1.5h2c3.033,0,5.5,2.467,5.5,5.5Z"/>
</svg>
