<?xml version="1.0" encoding="UTF-8"?>
<svg xmlns="http://www.w3.org/2000/svg" id="Layer_1" data-name="Layer 1" viewBox="0 0 24 24">
  <path d="M21.5,11.163V5.019c.085,.058,.154,.118,.243,.175,.696,.451,1.624,.249,2.074-.446,.449-.695,.25-1.624-.446-2.073-1.404-.907-2.108-1.98-2.112-1.986-.063-.097-.515-.689-1.259-.689s-1.195,.59-1.255,.682c-.003,.005-.008,.009-.011,.014-.087,.135-2.182,3.304-6.733,3.304S5.263,.695,5.259,.689c-.063-.097-.259-.689-1.259-.689s-1.263,.691-1.267,.696c-.007,.011-.7,1.071-2.104,1.979-.696,.449-.896,1.378-.446,2.073,.45,.695,1.376,.897,2.074,.446,.089-.057,.158-.117,.243-.175v6.144c-1.441,.434-2.5,1.757-2.5,3.337v1.437c0,1.477,.937,2.8,2.333,3.294,1.499,.528,2.558,1.865,2.699,3.406,.07,.772,.718,1.363,1.494,1.363h0c.776,0,1.423-.593,1.493-1.365,.187-2.072,1.898-3.635,3.98-3.635s3.793,1.562,3.98,3.635c.07,.772,.717,1.365,1.493,1.365h0c.775,0,1.423-.591,1.494-1.363,.141-1.541,1.2-2.878,2.7-3.407,1.395-.493,2.332-1.816,2.332-3.293v-1.437c0-1.58-1.059-2.903-2.5-3.337Zm-3-6.137v5.974h-5V6.906c2.117-.258,3.768-1.035,5-1.881Zm-8,1.881v4.094H5.5V5.026c1.232,.846,2.883,1.623,5,1.881Zm10.5,9.03c0,.211-.13,.394-.331,.464-1.272,.449-2.363,1.239-3.174,2.245-1.282-1.623-3.268-2.646-5.495-2.646s-4.213,1.022-5.495,2.646c-.811-1.006-1.9-1.796-3.173-2.244-.202-.071-.332-.254-.332-.465v-1.437c0-.275,.224-.5,.5-.5H20.5c.276,0,.5,.225,.5,.5v1.437Z"/>
</svg>
