<?xml version="1.0" encoding="UTF-8"?>
<svg xmlns="http://www.w3.org/2000/svg" id="Layer_1" data-name="Layer 1" viewBox="0 0 24 24">
  <path d="M19.817,5.808c-.368-3.311-3.147-5.808-6.466-5.808h-2.703c-3.319,0-6.099,2.497-6.465,5.807-.122,1.094-.184,2.168-.184,3.193,0,3.119,.73,7.469,1.343,10.57,.507,2.566,2.776,4.43,5.396,4.43h2.524c2.619,0,4.889-1.863,5.396-4.431,.612-3.103,1.342-7.456,1.342-10.569,0-1.02-.062-2.094-.183-3.192Zm-12.651,.331c.197-1.79,1.694-3.139,3.482-3.139h2.703c1.787,0,3.285,1.35,3.483,3.139,.084,.76,.126,1.497,.146,2.215-2.391,.429-6.46,1.514-9.744,4.136-.144-1.251-.236-2.454-.236-3.49,0-.914,.056-1.876,.166-2.861Zm6.097,14.861h-2.524c-1.19,0-2.222-.846-2.452-2.012-.286-1.445-.597-3.169-.842-4.889l3.447,1.231c1.244,.444,2.63-.004,3.378-1.092l2.685-3.906c-.159,2.726-.739,6.117-1.24,8.656-.23,1.166-1.262,2.012-2.452,2.012Zm-3.763-14.5c0-1.381,1.119-2.5,2.5-2.5s2.5,1.119,2.5,2.5-1.119,2.5-2.5,2.5-2.5-1.119-2.5-2.5Z"/>
</svg>
