<?xml version="1.0" encoding="UTF-8"?>
<svg xmlns="http://www.w3.org/2000/svg" id="Layer_1" data-name="Layer 1" viewBox="0 0 24 24">
  <path d="M22,16v-7.5c0-3.033-2.468-5.5-5.5-5.5H7.5c-3.032,0-5.5,2.467-5.5,5.5v7.5c-1.105,0-2,.895-2,2v1.154c0,1.02,.827,1.846,1.846,1.846H22.154c1.02,0,1.846-.827,1.846-1.846v-1.154c0-1.105-.895-2-2-2Zm-7.231,1h-5.538l-.923-1h-3.308v-7.5c0-1.378,1.121-2.5,2.5-2.5h9c1.379,0,2.5,1.122,2.5,2.5v7.5h-3.308l-.923,1Zm3.731-8.36v4.576c0,.433-.351,.784-.784,.784h0c-.303,0-.579-.174-.708-.448l-1.228-2.592v2.401c0,.353-.287,.64-.64,.64h0c-.353,0-.64-.287-.64-.64v-4.576c0-.433,.351-.784,.784-.784,.303,0,.579,.175,.708,.449l1.228,2.598v-2.407c0-.353,.287-.64,.64-.64h0c.353,0,.64,.286,.64,.64Zm-6.533-.64h-.842c-.345,0-.625,.28-.625,.625v4.75c0,.345,.28,.625,.625,.625s.625-.28,.625-.625v-1.402l.217-.003c1.109,0,2.012-.891,2.012-1.985s-.902-1.985-2.012-1.985Zm0,2.72l-.21,.003-.005-1.473h.215c.413,0,.762,.336,.762,.735s-.349,.735-.762,.735Zm-2.166-1.978l-.83,4.077c-.094,.485-.471,1.181-1.221,1.181s-1.132-.727-1.214-1.148l-.876-4.104c-.082-.385,.211-.748,.605-.748h.041c.294,0,.547,.206,.606,.494l.838,4.057,.838-4.057c.059-.287,.312-.494,.606-.494,.391,0,.684,.359,.606,.742Z"/>
</svg>
