<?xml version="1.0" encoding="UTF-8"?>
<svg xmlns="http://www.w3.org/2000/svg" id="Layer_1" data-name="Layer 1" viewBox="0 0 24 24">
  <path d="M24,5s0-1-1-1h-2V1c0-1-1-1-1-1-1.657,0-3,1.343-3,3v.051c-2.078,.234-3.716,1.872-3.949,3.949h-.551c-2.31,0-4.197,1.756-4.449,4h-.551c-2.355,0-4.271,1.824-4.463,4.13-1.742,.433-3.037,1.995-3.037,3.87,0,0,0,1,1,1H3v3c0,1,1,1,1,1,1.657,0,3-1.343,3-3v-.051c2.078-.234,3.716-1.872,3.949-3.949h.551c2.31,0,4.197-1.756,4.449-4h.551c2.355,0,4.271-1.824,4.463-4.13,1.742-.433,3.037-1.995,3.037-3.87ZM8,16.5c0,.827-.673,1.5-1.5,1.5h-.5v-2.5c0-.827,.673-1.5,1.5-1.5h.5v2.5Zm5-4c0,.827-.673,1.5-1.5,1.5h-.5v-2.5c0-.827,.673-1.5,1.5-1.5h.5v2.5Zm3.5-2.5h-.5v-2.5c0-.827,.673-1.5,1.5-1.5h.5v2.5c0,.827-.673,1.5-1.5,1.5Z"/>
</svg>
