<?xml version="1.0" encoding="UTF-8"?>
<svg xmlns="http://www.w3.org/2000/svg" id="Layer_1" data-name="Layer 1" viewBox="0 0 24 24">
  <path d="M24,14.5v4c0,3.033-2.468,5.5-5.5,5.5H5.5c-3.032,0-5.5-2.467-5.5-5.5V8.5C0,5.467,2.468,3,5.5,3h3c.828,0,1.5,.671,1.5,1.5s-.672,1.5-1.5,1.5h-3c-.956,0-1.779,.546-2.199,1.336l6.932,6.932c.943,.944,2.592,.944,3.535,0l.33-.33c.586-.585,1.535-.584,2.121,.001,.585,.586,.585,1.536-.002,2.122l-.329,.329c-1.037,1.038-2.418,1.61-3.888,1.61s-2.851-.572-3.889-1.611L3,11.277v7.223c0,1.378,1.121,2.5,2.5,2.5h13c1.379,0,2.5-1.122,2.5-2.5v-4c0-.829,.672-1.5,1.5-1.5s1.5,.671,1.5,1.5ZM22.464,.765l-.625,.625c-1.058-.883-2.404-1.39-3.839-1.39-3.309,0-6,2.691-6,6s2.691,6,6,6c1.369,0,2.709-.474,3.771-1.333,.645-.521,.744-1.465,.223-2.109-.52-.644-1.466-.744-2.109-.223-.538,.436-1.19,.666-1.885,.666-1.654,0-3-1.346-3-3s1.346-3,3-3c.621,0,1.207,.195,1.697,.532l-.932,.932c-.567,.567-.165,1.536,.636,1.536h3.244c.748,0,1.354-.606,1.354-1.354V1.402c0-.802-.969-1.203-1.536-.636Z"/>
</svg>
