<?xml version="1.0" encoding="UTF-8"?>
<svg xmlns="http://www.w3.org/2000/svg" id="Layer_1" data-name="Layer 1" viewBox="0 0 24 24">
  <path d="m18.5,0H5.5C2.467,0,0,2.468,0,5.5v13c0,3.032,2.467,5.5,5.5,5.5h13c3.033,0,5.5-2.468,5.5-5.5V5.5c0-3.032-2.467-5.5-5.5-5.5Zm2.5,18.5c0,1.379-1.122,2.5-2.5,2.5H5.5c-1.378,0-2.5-1.121-2.5-2.5V5.5c0-1.379,1.122-2.5,2.5-2.5h13c1.378,0,2.5,1.121,2.5,2.5v13ZM12.05,6c0,.69-.56,1.25-1.25,1.25h-.8c-.414,0-.75.337-.75.75v3h.5c.69,0,1.25.56,1.25,1.25s-.56,1.25-1.25,1.25h-.5v4.3c0,.69-.56,1.25-1.25,1.25s-1.25-.56-1.25-1.25v-4.3h-.5c-.69,0-1.25-.56-1.25-1.25s.56-1.25,1.25-1.25h.5v-3c0-1.792,1.458-3.25,3.25-3.25h.8c.69,0,1.25.56,1.25,1.25Zm6.476,6.915l-1.452,2.085,1.452,2.085c.395.567.255,1.346-.312,1.74-.218.152-.467.225-.713.225-.395,0-.784-.187-1.027-.535l-.924-1.327-.924,1.327c-.243.349-.632.535-1.027.535-.247,0-.496-.072-.713-.225-.566-.395-.706-1.173-.312-1.74l1.452-2.085-1.452-2.085c-.395-.567-.255-1.346.312-1.74.566-.396,1.345-.256,1.74.311l.924,1.327.924-1.327c.395-.565,1.174-.706,1.74-.311.566.395.706,1.173.312,1.74Z"/>
</svg>
