<?xml version="1.0" encoding="UTF-8"?>
<svg xmlns="http://www.w3.org/2000/svg" id="Layer_1" data-name="Layer 1" viewBox="0 0 24 24">
  <path d="m0,12.5v-4C0,5.467,2.467,3,5.5,3h13.501v-1.563c0-.863,1.043-1.295,1.653-.685l3.063,3.063c.378.378.378.991,0,1.369l-3.063,3.063c-.61.61-1.653.178-1.653-.685v-1.563H5.5c-1.378,0-2.5,1.122-2.5,2.5v4c0,.829-.671,1.5-1.5,1.5s-1.5-.671-1.5-1.5Zm22.5-2.5c-.829,0-1.5.671-1.5,1.5v4c0,1.378-1.122,2.5-2.5,2.5H4.999v-1.563c0-.863-1.043-1.295-1.653-.685l-3.063,3.063c-.378.378-.378.991,0,1.369l3.063,3.063c.61.61,1.653.178,1.653-.685v-1.563h13.501c3.033,0,5.5-2.467,5.5-5.5v-4c0-.829-.671-1.5-1.5-1.5Zm-13.5,2c0,1.657,1.343,3,3,3s3-1.343,3-3-1.343-3-3-3-3,1.343-3,3Zm-4-2.5c0,.828.672,1.5,1.5,1.5s1.5-.672,1.5-1.5-.672-1.5-1.5-1.5-1.5.672-1.5,1.5Zm11,5c0,.828.672,1.5,1.5,1.5s1.5-.672,1.5-1.5-.672-1.5-1.5-1.5-1.5.672-1.5,1.5Z"/>
</svg>
