<?xml version="1.0" encoding="UTF-8"?>
<svg xmlns="http://www.w3.org/2000/svg" id="Layer_1" data-name="Layer 1" viewBox="0 0 24 24">
  <path d="m11.939,6.061c-.586-.585-.586-1.536,0-2.121l1.5-1.5c.586-.586,1.535-.586,2.121,0,.586.585.586,1.536,0,2.121l-1.5,1.5c-.293.293-.677.439-1.061.439s-.768-.146-1.061-.439Zm-9,0c.293.293.677.439,1.061.439s.768-.146,1.061-.439c.586-.585.586-1.536,0-2.121l-1.5-1.5c-.586-.586-1.535-.586-2.121,0-.586.585-.586,1.536,0,2.121l1.5,1.5Zm5.561-.061c.828,0,1.5-.671,1.5-1.5V1.5c0-.829-.672-1.5-1.5-1.5s-1.5.671-1.5,1.5v3c0,.829.672,1.5,1.5,1.5Zm12.867,10.636l-3.994-7.094,4.16-3.954c.601-.571.625-1.521.054-2.121-.571-.602-1.521-.625-2.12-.054l-10.563,10.041c-.027.026-.075.071-.172.029-.096-.043-.094-.108-.093-.142,0,0,.104-3.518.088-3.612-.134-.835-.845-1.697-1.944-1.729-1.127-.037-1.882.831-2.038,1.701-.01.057-.319,5.012-.319,5.012-.072.408-.19,1.468.186,2.85L.479,21.401c-.607.564-.643,1.513-.078,2.12.295.318.696.479,1.099.479.366,0,.732-.133,1.021-.401l4.844-4.5c.462-.429.606-1.099.362-1.679-.202-.483-.302-.913-.347-1.259.042.021.084.042.128.061,1.167.521,2.526.292,3.46-.591l4.163-3.958,3.623,6.435c.418.742.319,1.668-.2,2.257l-1.043,1.08c-.575.596-.559,1.545.037,2.121.291.281.667.421,1.042.421.393,0,.785-.153,1.079-.458l1.087-1.128c1.411-1.594,1.657-3.911.611-5.766Z"/>
</svg>
