<?xml version="1.0" encoding="UTF-8"?>
<svg xmlns="http://www.w3.org/2000/svg" id="Layer_1" data-name="Layer 1" viewBox="0 0 24 24">
  <path d="M21.97,8.67v-.188c.094-2.407-2.066-4.537-4.47-4.482h-.5c-1.839,0-3.418,1.111-4.116,2.695-.34-.713-.777-1.429-1.384-1.967v-.228C11.5,2.019,9.481,0,7,0h-.5C4.019,0,2,2.019,2,4.5v.204C.721,5.967,0,7.677,0,9.5v13c0,.829,.671,1.5,1.5,1.5s1.5-.671,1.5-1.5V11.294c.825,1.032,2.079,1.706,3.5,1.706h.5c1.421,0,2.675-.675,3.5-1.706v11.206c0,.829,.671,1.5,1.5,1.5s1.5-.671,1.5-1.5v-7.206c.825,1.032,2.079,1.706,3.5,1.706h.5c1.211,0,2.343-.474,3.188-1.333,.118-.12,.21-.258,.312-.388v7.222c0,.829,.671,1.5,1.5,1.5s1.5-.671,1.5-1.5V13.5c0-1.794-.755-3.559-2.03-4.83Zm-6.47-.17c0-.827,.673-1.5,1.5-1.5h.5c.787-.013,1.5,.65,1.47,1.455v4.026c.005,.294-.073,.572-.216,.811-.382-.179-.803-.292-1.254-.292h-.5c-.456,0-.881,.114-1.266,.297-.146-.231-.234-.503-.234-.797v-4ZM5,4.5c0-.827,.673-1.5,1.5-1.5h.5c.827,0,1.5,.673,1.5,1.5v4c0,.293-.088,.565-.234,.797-.385-.183-.81-.297-1.266-.297h-.5c-.456,0-.881,.114-1.266,.297-.146-.231-.234-.503-.234-.797V4.5Z"/>
</svg>
