<?xml version="1.0" encoding="UTF-8"?>
<svg xmlns="http://www.w3.org/2000/svg" id="Layer_1" data-name="Layer 1" viewBox="0 0 24 24">
  <path d="M18,13.5v-3c0-1.93-1.57-3.5-3.5-3.5h-1.5v-1.646c-.007-1.363-.825-2.579-2.085-3.097-1.262-.519-2.697-.231-3.658,.731L1.26,8.959s-.002,.002-.002,.002c-1.674,1.674-1.674,4.398,.002,6.077l5.995,5.97c.646,.646,1.503,.989,2.378,.989,.432,0,.867-.083,1.284-.254,1.261-.519,2.078-1.736,2.083-3.105v-1.639h1.5c1.93,0,3.5-1.57,3.5-3.5Zm-3,0c0,.276-.225,.5-.5,.5h-3c-.828,0-1.5,.671-1.5,1.5v3.133c0,.162-.076,.275-.226,.336-.15,.063-.283,.035-.399-.083L3.38,12.916c-.505-.505-.505-1.328,0-1.833l5.998-5.972c.114-.115,.249-.142,.396-.08,.149,.062,.226,.175,.227,.329v3.14c0,.829,.672,1.5,1.5,1.5h3c.271,0,.5,.229,.5,.5v3ZM24,5v14c0,2.757-2.243,5-5,5h-2.5c-.828,0-1.5-.671-1.5-1.5s.672-1.5,1.5-1.5h2.5c1.103,0,2-.897,2-2V5c0-1.103-.897-2-2-2h-2.5c-.828,0-1.5-.671-1.5-1.5s.672-1.5,1.5-1.5h2.5c2.757,0,5,2.243,5,5Z"/>
</svg>
