<?xml version="1.0" encoding="UTF-8"?>
<svg xmlns="http://www.w3.org/2000/svg" id="Layer_1" data-name="Layer 1" viewBox="0 0 24 24">
  <path d="M14.044,15.481c.227,.757-.34,1.519-1.13,1.519h-1.829c-.79,0-1.357-.762-1.13-1.519l.757-2.524c.171-.569,.694-.958,1.287-.958s1.117,.389,1.287,.958l.757,2.524Zm7.956-9.981v13c0,3.032-2.468,5.5-5.5,5.5H7.5c-3.032,0-5.5-2.468-5.5-5.5V5.5C2,2.467,4.468,0,7.5,0h9c3.032,0,5.5,2.467,5.5,5.5Zm-3,0c0-.114-.019-.223-.034-.333-.589,.519-1.481,.511-2.043-.052-.572-.572-.576-1.487-.03-2.076-.129-.021-.258-.04-.393-.04H7.5c-.135,0-.264,.019-.393,.04,.546,.588,.542,1.503-.03,2.076-.563,.563-1.454,.57-2.043,.052-.015,.11-.034,.219-.034,.333v13c0,1.379,1.121,2.5,2.5,2.5h9c1.379,0,2.5-1.121,2.5-2.5V5.5Zm-7,5.5c.828,0,1.5-.672,1.5-1.5s-.672-1.5-1.5-1.5-1.5,.672-1.5,1.5,.672,1.5,1.5,1.5Zm2.106-5.181l-.166,.166c-.586,.586-.586,1.535,0,2.121s1.535,.586,2.121,0l.166-.166c.586-.586,.586-1.535,0-2.121s-1.535-.586-2.121,0Zm-4.045,.166l-.166-.166c-.586-.586-1.535-.586-2.121,0s-.586,1.535,0,2.121l.166,.166c.586,.586,1.535,.586,2.121,0s.586-1.535,0-2.121Z"/>
</svg>
