<?xml version="1.0" encoding="UTF-8"?>
<svg xmlns="http://www.w3.org/2000/svg" id="Layer_1" data-name="Layer 1" viewBox="0 0 24 24">
  <path d="m8.532,13.027c.371.782.081,1.722-.673,2.148-1.496.846-2.898,1.904-2.898,3.883.024,1.271.774,2.996,1.332,4.221.203.446-.283.902-.702.648-2.055-1.243-3.724-4.363-3.527-6.654.199-1.726,1.523-3.192,2.686-4.062.454-.338,1.001-.664,1.505-.94.83-.453,1.872-.099,2.277.755Zm14.467,5.889c-.028-1.544-.83-3.199-2.386-4.922-1.4-1.55-2.829-4.668-3.871-6.944l-.42-.912c-.942-2.03-1.218-2.704-1.297-4.698-.034-.827-.72-1.483-1.559-1.438-.828.033-1.472.731-1.439,1.56.104,2.573.558,3.65,1.575,5.841l.413.897c1.124,2.454,2.663,5.814,4.373,7.707,1.041,1.151,1.613,2.215,1.613,2.994,0,.006.052.778-.325,1.213-.404.466-1.219.722-2.336.768-1.029-.049-1.622-.524-2.475-1.245-.489-.414-1.043-.883-1.729-1.271-1.214-.688-2.154-.534-2.729-.282-.691.301-1.028.824-1.115.978-.086.152-.362.71-.266,1.458.08.622.43,1.508,1.643,2.195,1.949,1.105,3.992,1.181,6.318,1.187.004,0,.513,0,.783,0,1.846-.128,3.248-.756,4.172-1.821,1.125-1.297,1.098-2.796,1.057-3.263Zm-2.999.084c-.01-.07,0,.071,0,0h0Z"/>
</svg>
