<?xml version="1.0" encoding="UTF-8"?>
<svg xmlns="http://www.w3.org/2000/svg" id="Layer_1" data-name="Layer 1" viewBox="0 0 24 24">
  <path d="M13.379,20.97c-.19,1.174-1.214,2.026-2.434,2.026-.663,0-1.299-.195-1.837-.551-.388-.257-.448-.802-.119-1.13,.236-.235,.602-.283,.887-.111,.316,.191,.688,.297,1.068,.297,.603,0,1.03-.404,1.095-.794,.088-.55-.602-.872-.816-.958-.914-.37-1.749-.779-1.752-.779-.691-.484-1.026-1.23-.921-2.047,.111-.844,.674-1.532,1.469-1.794,.838-.277,1.601-.075,2.15,.203,.405,.205,.518,.732,.24,1.092-.203,.263-.558,.357-.862,.224-.305-.133-.709-.226-1.136-.088-.412,.136-.517,.446-.515,.577,.005,.442,.335,.57,.433,.615,.282,.128,.805,.367,1.364,.595,1.459,.591,1.827,1.743,1.683,2.625Zm9.819,.43c-.754,0-1.331,0-1.331,0v-5.601c0-.442-.358-.8-.8-.8h0c-.442,0-.8,.358-.8,.8v6.401c0,.442,.358,.8,.8,.8h2.133c.442,0,.8-.358,.8-.8s-.36-.8-.802-.8Zm-4.032,.634c.312,.312,.312,.819,0,1.131-.312,.312-.819,.312-1.131,0l-.433-.433c-.453,.224-.973,.331-1.537,.226-1.209-.224-2.065-1.314-2.065-2.543v-2.917c0-1.365,1.093-2.474,2.452-2.5,1.401-.027,2.548,1.154,2.548,2.556v2.944c0,.398-.101,.769-.267,1.102l.433,.433Zm-1.766-4.535c0-.496-.404-.9-.9-.9s-.9,.404-.9,.9v3c0,.496,.404,.9,.9,.9s.9-.404,.9-.9v-3ZM2.997,13.006v1.471c0,.008,.003,.015,.003,.023,.051,.107,.73,.82,2.799,1.242,.812,.165,1.336,.957,1.17,1.769-.145,.711-.77,1.201-1.468,1.201-.099,0-.2-.01-.301-.031-.821-.167-1.557-.392-2.201-.666v1.484c.051,.107,.731,.82,2.8,1.242,.812,.165,1.336,.957,1.17,1.769-.145,.711-.77,1.201-1.468,1.201-.099,0-.2-.01-.301-.031-3.256-.663-5.201-2.226-5.201-4.181V4.5C0,1.546,4.276,0,8.5,0s8.5,1.546,8.5,4.5v5c0,4.332-9.117,5.576-14.003,3.506Zm11.009-3.553l-.002-1.454c-1.554,.66-3.532,1.001-5.504,1.001s-3.951-.341-5.505-1.002c0,0,.005,1.463,.005,1.502,.157,.394,2.036,1.5,5.5,1.5s5.343-1.106,5.506-1.547ZM3.015,4.518c.199,.406,2.066,1.482,5.485,1.482,3.401,0,5.263-1.063,5.485-1.518-.199-.406-2.066-1.482-5.485-1.482-3.401,0-5.263,1.063-5.485,1.518Z"/>
</svg>
