<?xml version="1.0" encoding="UTF-8"?>
<svg xmlns="http://www.w3.org/2000/svg" id="Layer_1" data-name="Layer 1" viewBox="0 0 24 24">
  <path d="M24,5.12s-.451-1.13-.795-1.78c-.108-.205-.32-.333-.552-.337-.005,0-.009,0-.014,0-.004,0-.008,0-.013,0-.356,0-.644,.29-.639,.648,.006,.508,.028,1.133,.013,1.35-.033,.476-.235,.78-.601,.918-.31,.117-.577,.325-.775,.59-.439,.588-1.149,1.524-1.499,1.895-.213,.224-1.057,.655-1.125,.096v-1.138c0-.808-.545-1.514-1.327-1.72-.837-.22-1.901-.488-2.673-.642-2.5-.5-7.5-1-9-1H3c-.552,0-1,.448-1,1h-.241c-.453,0-.849,.305-.966,.743-.293,1.096-.792,3.164-.792,4.52v1.256c0,1.703,.698,3.689,1.511,5.171,.229,.419,.739,.609,1.174,.436,.253-.101,.536-.158,.815-.126,1.577,.179,3.492,1.104,4,2,.237,.53,.682,.974,1.284,1.021,.485,.048,1.047,.178,1.216,.517,.181,.361,.492,1.325,.816,1.716,.509,.617,1.5,.49,1.828-.255,.449-1.022,1.025-2.76,1.356-3h.987c.48,0,.936-.227,1.21-.621,.141-.204,.385-.379,.803-.379,.617,0,2,0,2,1,0,.507,.366,1.178,.711,1.647,.163,.222,.421,.353,.7,.354h.017c.542,0,.944-.499,.836-1.031-.058-.285-.169-.552-.309-.813-.335-.625-.658-1.234-.915-1.89-.114-.296-.098-.737,.056-1.037,.351-.669,.977-1.402,1.355-2.059,.21-.365,.55-.67,.55-1.17,0-1,.009-1.925,0-2.5-.007-.463,2-4.5,2-4.5v-.88Zm-4.999,7.308c-.053,.081-1.62,2.52-1.647,2.578-.115-.004-.233-.006-.355-.006-1.027,0-1.966,.357-2.68,1h-.32c-.632,0-1.248,.2-1.76,.571-.414,.3-.724,.666-.992,1.114-.372-.216-.821-.398-1.363-.52-1.367-1.952-4.308-2.948-6.046-3.145-.094-.011-.187-.018-.279-.023-.351-.901-.559-1.796-.559-2.477v-1.256c0-.541,.151-1.493,.409-2.614,.313-.167,.593-.387,.827-.649h.764c1.295,0,6.123,.484,8.412,.942,.396,.079,.936,.204,1.588,.368v.19c0,1.832,1.449,3.268,3.3,3.268,.231,0,.468-.024,.703-.069,0,.088-.002,.729-.002,.729Z"/>
</svg>
