<?xml version="1.0" encoding="UTF-8"?>
<svg xmlns="http://www.w3.org/2000/svg" id="Layer_1" data-name="Layer 1" viewBox="0 0 24 24">
  <path d="M22.5,11H7.069l15.275-3.604c.799-.188,1.298-.985,1.119-1.787l-.467-2.09c-.485-2.395-3.056-4.005-5.427-3.398L3.479,3.539C1.084,4.098-.428,6.504,.113,8.921l.887,3.754v5.825c0,3.032,2.468,5.5,5.5,5.5h12c3.032,0,5.5-2.468,5.5-5.5v-6c0-.828-.672-1.5-1.5-1.5ZM14.141,4.04l-1.663,2.602-3.715,.876,1.645-2.572,3.733-.905Zm5.929,.134l.144,.644-3.543,.836,1.676-2.623c.087-.016,.175-.031,.262-.031,.681-.01,1.324,.503,1.461,1.174ZM4.173,6.458l2.021-.49-1.624,2.539-1.395,.329-.139-.587c-.179-.8,.325-1.603,1.136-1.791Zm16.827,12.042c0,1.379-1.121,2.5-2.5,2.5H6.5c-1.379,0-2.5-1.121-2.5-2.5v-4.5H21v4.5Z"/>
</svg>
