<?xml version="1.0" encoding="UTF-8"?>
<svg xmlns="http://www.w3.org/2000/svg" id="Layer_1" data-name="Layer 1" viewBox="0 0 24 24">
  <path d="m18.976,5.024c-.243-2.81-2.604-5.024-5.476-5.024H5.5C2.468,0,0,2.467,0,5.5v8c0,2.872,2.214,5.233,5.024,5.476.243,2.81,2.604,5.024,5.476,5.024h8c3.032,0,5.5-2.467,5.5-5.5v-8c0-2.872-2.214-5.233-5.024-5.476Zm-2.976.476v3.086l-4.75,4.75-2.086-2.086,6.659-6.659c.111.282.177.588.177.909Zm0,5.914v2.086c0,1.378-1.121,2.5-2.5,2.5h-2.086l4.586-4.586ZM10.414,3h3.086c.321,0,.626.066.909.177l-3.409,3.409-2.086-2.086,1.5-1.5Zm-7.414,2.5c0-1.378,1.121-2.5,2.5-2.5h2.086L3,7.586v-2.086Zm0,8v-3.086l4.5-4.5,2.086,2.086-6.409,6.409c-.111-.282-.177-.588-.177-.909Zm2.5,2.5c-.321,0-.626-.066-.909-.177l3.159-3.159,2.086,2.086-1.25,1.25h-3.086Zm15.5,2.5c0,1.378-1.121,2.5-2.5,2.5h-8c-1.208,0-2.217-.86-2.449-2h5.449c3.032,0,5.5-2.467,5.5-5.5v-5.449c1.14.232,2,1.242,2,2.449v8Z"/>
</svg>
