<?xml version="1.0" encoding="UTF-8"?>
<svg xmlns="http://www.w3.org/2000/svg" id="Layer_1" data-name="Layer 1" viewBox="0 0 24 24">
  <path d="M23,17.187v4.52c0,.705-.852,1.058-1.35,.559l-1.492-1.492c-2.2,2.042-5.103,3.225-8.158,3.225C6.066,24,.96,19.577,.121,13.712c-.117-.82,.453-1.58,1.273-1.697,.812-.118,1.579,.453,1.697,1.273,.628,4.396,4.458,7.712,8.908,7.712,2.254,0,4.4-.856,6.041-2.342l-1.308-1.308c-.498-.498-.145-1.35,.559-1.35h4.52c.656,0,1.187,.531,1.187,1.187Zm.879-6.899C23.04,4.423,17.934,0,12,0,8.945,0,6.042,1.183,3.842,3.225l-1.491-1.491c-.498-.498-1.35-.145-1.35,.559V6.813c0,.656,.531,1.187,1.187,1.187H6.707c.705,0,1.058-.852,.559-1.35l-1.307-1.308c1.64-1.486,3.787-2.342,6.041-2.342,4.45,0,8.28,3.315,8.908,7.712,.107,.748,.749,1.288,1.483,1.288,.07,0,.143-.005,.214-.015,.82-.117,1.391-.877,1.273-1.697ZM13.301,5.232c-.697-.442-1.626-.235-2.069,.467,0,0-3.102,4.945-3.141,5.075-.193,.638-.07,1.337,.326,1.873,.397,.535,1.032,.854,1.698,.854h2.148l-2.03,3.195c-.443,.699-.237,1.627,.462,2.071,.25,.158,.528,.233,.804,.233,.496,0,.981-.246,1.268-.695l2.882-4.539c.429-.647,.467-1.474,.1-2.157-.366-.684-1.077-1.108-1.853-1.108h-2.148l2.021-3.199c.442-.701,.233-1.627-.468-2.069Z"/>
</svg>
