<?xml version="1.0" encoding="UTF-8"?>
<svg xmlns="http://www.w3.org/2000/svg" id="Layer_1" data-name="Layer 1" viewBox="0 0 24 24">
  <path d="m18,2.5c0-1.381,1.119-2.5,2.5-2.5s2.5,1.119,2.5,2.5-1.119,2.5-2.5,2.5-2.5-1.119-2.5-2.5ZM3.5,12c1.381,0,2.5-1.119,2.5-2.5s-1.119-2.5-2.5-2.5-2.5,1.119-2.5,2.5,1.119,2.5,2.5,2.5Zm14.5,5.5c0,1.381,1.119,2.5,2.5,2.5s2.5-1.119,2.5-2.5-1.119-2.5-2.5-2.5-2.5,1.119-2.5,2.5Zm-1.9-7.521c-.564-.608-1.512-.642-2.12-.079l-3.338,3.1h-1.141c-.829,0-1.5.672-1.5,1.5s.671,1.5,1.5,1.5h1.141l3.338,3.1c.289.268.655.4,1.021.4.402,0,.804-.161,1.1-.479.563-.606.528-1.556-.079-2.12l-2.585-2.4,2.585-2.4c.607-.564.643-1.514.079-2.12Zm-12.6,3.021c-1.621,0-2.994.878-3.461,2.089-.174.451.254.911.827.911h5.267c.573,0,1.001-.46.827-.911-.467-1.212-1.84-2.089-3.461-2.089Zm14.366-4.192h5.267c.573,0,1.001-.46.827-.911-.467-1.211-1.84-2.089-3.461-2.089s-2.994.878-3.461,2.089c-.174.451.254.911.827.911Zm2.634,12.192c-1.621,0-2.994.878-3.461,2.089-.174.451.254.911.827.911h5.267c.573,0,1.001-.46.827-.911-.467-1.212-1.84-2.089-3.461-2.089Z"/>
</svg>
