<?xml version="1.0" encoding="UTF-8"?>
<svg xmlns="http://www.w3.org/2000/svg" id="Layer_1" data-name="Layer 1" viewBox="0 0 24 24">
  <path d="m22.723,19.604l-3.525,3.525c-.386.386-1.011.386-1.397,0l-3.525-3.525c-.592-.592-.173-1.604.664-1.604h2.059v-9.25c0-.965-.785-1.75-1.75-1.75s-1.75.785-1.75,1.75v6.5c0,2.619-2.131,4.75-4.75,4.75s-4.75-2.131-4.75-4.75V6H1.941c-.837,0-1.256-1.012-.664-1.604L4.802.871c.386-.386,1.011-.386,1.397,0l3.525,3.525c.592.592.173,1.604-.664,1.604h-2.059v9.25c0,.965.785,1.75,1.75,1.75s1.75-.785,1.75-1.75v-6.5c0-2.619,2.131-4.75,4.75-4.75s4.75,2.131,4.75,4.75v9.25h2.059c.837,0,1.256,1.012.664,1.604Z"/>
</svg>
