<?xml version="1.0" encoding="UTF-8"?>
<svg xmlns="http://www.w3.org/2000/svg" id="Layer_1" data-name="Layer 1" viewBox="0 0 24 24">
  <path d="m6.5,10c.828,0,1.5.672,1.5,1.5s-.672,1.5-1.5,1.5-1.5-.672-1.5-1.5.672-1.5,1.5-1.5Zm17.5-4.5v4c0,.829-.672,1.5-1.5,1.5s-1.5-.671-1.5-1.5v-1.5H3v4.5c0,1.378,1.121,2.5,2.5,2.5h7c.828,0,1.5.671,1.5,1.5s-.672,1.5-1.5,1.5h-7c-3.032,0-5.5-2.467-5.5-5.5v-7C0,2.467,2.468,0,5.5,0h13c3.032,0,5.5,2.467,5.5,5.5Zm-20.949-.5h17.899c-.232-1.14-1.242-2-2.449-2H5.5c-1.208,0-2.217.86-2.449,2Zm15.949,14c-2.28,0-4.218,1.403-4.927,3.358-.29.801.316,1.642,1.2,1.642h7.453c.884,0,1.49-.841,1.2-1.642-.708-1.955-2.647-3.358-4.927-3.358Zm3-4c0-1.654-1.346-3-3-3s-3,1.346-3,3,1.346,3,3,3,3-1.346,3-3Z"/>
</svg>
