<?xml version="1.0" encoding="UTF-8"?>
<svg xmlns="http://www.w3.org/2000/svg" id="Layer_1" data-name="Layer 1" viewBox="0 0 24 24">
  <path d="m17,18v-3c0-1.654-1.346-3-3-3h-4c-1.654,0-3,1.346-3,3v5.5c0,1.93,1.57,3.5,3.5,3.5h5c.151,0,.295-.029.432-.071.183.043.372.071.568.071,1.378,0,2.5-1.121,2.5-2.5v-1.5c0-1.103-.897-2-2-2Zm-7,2.5v-5.5h4v6h-3.5c-.276,0-.5-.225-.5-.5Zm-1-17.5c0-1.657,1.343-3,3-3s3,1.343,3,3c0,1.108-.607,2.064-1.5,2.584v2.916c0,.828-.671,1.5-1.5,1.5s-1.5-.672-1.5-1.5v-2.916c-.893-.52-1.5-1.476-1.5-2.584Zm15,3c0,1.657-1.343,3-3,3-.195,0-.385-.022-.57-.057l-1.804,2.049c-.297.337-.71.509-1.126.509-.352,0-.706-.123-.991-.374-.622-.548-.682-1.495-.135-2.117l1.799-2.043c-.104-.305-.173-.626-.173-.966,0-1.657,1.343-3,3-3s3,1.343,3,3ZM7.491,11.126c-.285.251-.639.374-.991.374-.416,0-.83-.172-1.126-.509l-1.804-2.049c-.185.036-.375.057-.57.057-1.657,0-3-1.343-3-3s1.343-3,3-3,3,1.343,3,3c0,.34-.069.661-.173.966l1.799,2.043c.547.622.487,1.569-.135,2.117Z"/>
</svg>
