<?xml version="1.0" encoding="UTF-8"?>
<svg xmlns="http://www.w3.org/2000/svg" id="Layer_1" data-name="Layer 1" viewBox="0 0 24 24">
  <path d="m23.689,18l-1.732-3c-.357-.619-1.018-1-1.732-1h-3.464c-.715,0-1.375.381-1.732,1l-1.732,3c-.357.619-.357,1.381,0,2l1.732,3c.357.619,1.018,1,1.732,1h3.464c.715,0,1.375-.381,1.732-1l1.732-3c.357-.619.357-1.381,0-2Zm-5.189,3c-1.105,0-2-.895-2-2s.895-2,2-2,2,.895,2,2-.895,2-2,2ZM9.879,0H2.121C.949,0,0,.949,0,2.121c0,.563.224,1.103.622,1.501l1.378,1.375v13.346c0,1.469.572,2.85,1.611,3.889l1.329,1.329c.293.293.677.439,1.061.439s.768-.146,1.061-.439l1.329-1.329c1.039-1.039,1.611-2.419,1.611-3.889V5.022l1.387-1.403c.393-.397.613-.933.613-1.491v-.008c0-1.171-.949-2.121-2.121-2.121Zm-4.879,11.914l2-2v2.819l-2,2v-2.819Zm2-4.828l-2,2v-4.076l2,.006v2.07Zm-.732,13.025l-.268.268-.268-.268c-.465-.465-.732-1.109-.732-1.768v-.782l2-2v2.782c0,.658-.267,1.302-.732,1.768Z"/>
</svg>
