<?xml version="1.0" encoding="UTF-8"?>
<svg xmlns="http://www.w3.org/2000/svg" id="Layer_1" data-name="Layer 1" viewBox="0 0 24 24">
  <path d="m24,8.454v10.046c0,3.033-2.467,5.5-5.5,5.5-.829,0-1.5-.671-1.5-1.5s.671-1.5,1.5-1.5c1.378,0,2.5-1.122,2.5-2.5v-10.046c0-1.104-.709-2.064-1.765-2.389l-.604-.186-1.876,2.388c-.865,1.101-2.553,1.035-3.33-.13l-1.425-2.137,2.493-3h-4.999l2.506,3-1.425,2.137c-.777,1.165-2.465,1.231-3.33.13l-1.876-2.388-.604.186c-1.056.325-1.765,1.285-1.765,2.389v10.046c0,1.378,1.122,2.5,2.5,2.5.829,0,1.5.671,1.5,1.5s-.671,1.5-1.5,1.5c-3.033,0-5.5-2.467-5.5-5.5v-10.046c0-2.38,1.503-4.448,3.748-5.203l2.069-2.076C6.566.423,7.585,0,8.647-.001l6.687-.005c1.062,0,2.081.421,2.831,1.172l2.085,2.085c2.245.754,3.749,2.822,3.749,5.204Zm-10.219,2.519c-.163-.855-.781-1.974-1.781-1.974s-1.618,1.119-1.781,1.974l-1.422,8.381c-.186.976.123,1.98.826,2.683l1.67,1.67c.391.391,1.024.391,1.414,0l1.67-1.67c.702-.702,1.012-1.707.826-2.683l-1.422-8.381Z"/>
</svg>
