<?xml version="1.0" encoding="UTF-8"?>
<svg xmlns="http://www.w3.org/2000/svg" id="Layer_1" data-name="Layer 1" viewBox="0 0 24 24">
  <path d="m7,18.5c0,.828-.672,1.5-1.5,1.5s-1.5-.672-1.5-1.5.672-1.5,1.5-1.5,1.5.672,1.5,1.5Zm11.5-1.5c-.828,0-1.5.672-1.5,1.5s.672,1.5,1.5,1.5,1.5-.672,1.5-1.5-.672-1.5-1.5-1.5Zm-6.5-5c-1.657,0-3,1.343-3,3s1.343,3,3,3,3-1.343,3-3-1.343-3-3-3Zm-6.5-2c-.828,0-1.5.672-1.5,1.5s.672,1.5,1.5,1.5,1.5-.672,1.5-1.5-.672-1.5-1.5-1.5Zm13,0c-.828,0-1.5.672-1.5,1.5s.672,1.5,1.5,1.5,1.5-.672,1.5-1.5-.672-1.5-1.5-1.5Zm4-2c-.829,0-1.5.671-1.5,1.5v9c0,1.378-1.122,2.5-2.5,2.5H5.5c-1.378,0-2.5-1.122-2.5-2.5v-7c0-1.378,1.122-2.5,2.5-2.5h7c.829,0,1.5-.671,1.5-1.5s-.671-1.5-1.5-1.5h-7c-3.033,0-5.5,2.467-5.5,5.5v7c0,3.033,2.467,5.5,5.5,5.5h13c3.033,0,5.5-2.467,5.5-5.5v-9c0-.829-.671-1.5-1.5-1.5Zm-8.063-3.001h1.563v2.501c0,.829.671,1.5,1.5,1.5s1.5-.671,1.5-1.5v-2.501h1.563c.863,0,1.295-1.043.685-1.653l-3.063-3.063c-.378-.378-.991-.378-1.369,0l-3.063,3.063c-.61.61-.178,1.653.685,1.653Z"/>
</svg>
