<?xml version="1.0" encoding="UTF-8"?>
<svg xmlns="http://www.w3.org/2000/svg" id="Layer_1" data-name="Layer 1" viewBox="0 0 24 24">
  <path d="m14.5,13.5c0,1.381-1.119,2.5-2.5,2.5s-2.5-1.119-2.5-2.5,1.119-2.5,2.5-2.5,2.5,1.119,2.5,2.5Zm8.102-2.018c-.561-.607-1.51-.647-2.12-.084l-6.069,5.602h-4.827l-6.069-5.602c-.609-.562-1.558-.523-2.12.084-.562.609-.524,1.558.084,2.12l6.5,6c.005.005.012.006.018.011v2.887c0,.829.671,1.5,1.5,1.5s1.5-.671,1.5-1.5v-2.5h2v2.5c0,.829.671,1.5,1.5,1.5s1.5-.671,1.5-1.5v-2.887c.005-.005.012-.006.018-.011l6.5-6c.608-.562.646-1.511.084-2.12Zm-13.327-5.376l-.784,2.513c-.106.337.012.705.295.917.148.111.323.166.5.166.161,0,.323-.047.463-.141l2.257-1.51,2.295,1.495c.296.193.682.177.964-.038.281-.216.394-.586.282-.922l-.815-2.484,1.971-1.606c.268-.225.366-.594.246-.923-.12-.329-.433-.548-.783-.548h-2.501l-.885-2.483c-.121-.326-.433-.542-.781-.542s-.66.216-.781.542l-.885,2.483h-2.501c-.349,0-.662.218-.782.546-.121.328-.024.696.243.922l1.981,1.612Z"/>
</svg>
