<?xml version="1.0" encoding="UTF-8"?>
<svg xmlns="http://www.w3.org/2000/svg" id="Layer_1" data-name="Layer 1" viewBox="0 0 24 24">
  <path d="m22.609,13.726c.897-1.107,1.391-2.315,1.391-3.516,0-3.636-2.899-5.317-5.017-6.545-1.5-.87-2.483-1.491-2.483-2.164,0-.829-.672-1.5-1.5-1.5s-1.5.671-1.5,1.5c0,.673-.983,1.294-2.483,2.164-.967.561-2.096,1.22-3.038,2.113-.117-1.883-1.667-4.234-2.23-4.936C5.32.308,4.684,0,4,0h-.002c-.683,0-1.319.305-1.747.836C1.667,1.561,0,4.065,0,6v13c0,2.757,2.243,5,5,5h14c2.757,0,5-2.243,5-5v-2.5c0-1.134-.551-2.134-1.391-2.774Zm-10.088-7.466c.849-.492,1.749-1.014,2.479-1.668.729.654,1.63,1.176,2.479,1.668,2.191,1.271,3.521,2.171,3.521,3.95,0,.856-.751,1.901-1.975,2.791h-8.05c-1.224-.889-1.975-1.934-1.975-2.791,0-1.779,1.33-2.679,3.521-3.95ZM3.998,3.575c.55.907,1.002,1.958,1.002,2.425v1h-2v-1c0-.506.472-1.557.998-2.425Zm-.998,15.425v-9h2v11c-1.103,0-2-.897-2-2Zm18,0c0,1.103-.897,2-2,2v-1.5c0-.829-.672-1.5-1.5-1.5s-1.5.671-1.5,1.5v1.5h-3v-1.5c0-.829-.672-1.5-1.5-1.5s-1.5.671-1.5,1.5v1.5h-2v-5h12.5c.275,0,.5.224.5.5v2.5Z"/>
</svg>
