<?xml version="1.0" encoding="UTF-8"?>
<svg xmlns="http://www.w3.org/2000/svg" id="Layer_1" data-name="Layer 1" viewBox="0 0 24 24">
  <path d="m2.5,2.5c0-1.381,1.119-2.5,2.5-2.5s2.5,1.119,2.5,2.5-1.119,2.5-2.5,2.5-2.5-1.119-2.5-2.5Zm11.5.5c-1.105,0-2,.895-2,2s.895,2,2,2,2-.895,2-2-.895-2-2-2Zm0,7c-1.105,0-2,.895-2,2s.895,2,2,2,2-.895,2-2-.895-2-2-2Zm0,7c-1.105,0-2,.895-2,2s.895,2,2,2,2-.895,2-2-.895-2-2-2Zm-4-6.5v3c0,1.557-.795,2.93-2,3.738v5.262c0,.829-.671,1.5-1.5,1.5h-3c-.829,0-1.5-.671-1.5-1.5v-5.262c-1.205-.808-2-2.182-2-3.738v-3c0-2.481,2.019-4.5,4.5-4.5h1c2.481,0,4.5,2.019,4.5,4.5Zm-7,3c0,.827.673,1.5,1.5,1.5h1c.827,0,1.5-.673,1.5-1.5v-3c0-.827-.673-1.5-1.5-1.5h-1c-.827,0-1.5.673-1.5,1.5v3Zm16.5-7h3c.828,0,1.5-.671,1.5-1.5s-.672-1.5-1.5-1.5h-3c-.828,0-1.5.671-1.5,1.5s.672,1.5,1.5,1.5Zm3,4h-3c-.828,0-1.5.671-1.5,1.5s.672,1.5,1.5,1.5h3c.828,0,1.5-.671,1.5-1.5s-.672-1.5-1.5-1.5Zm0,7h-3c-.828,0-1.5.671-1.5,1.5s.672,1.5,1.5,1.5h3c.828,0,1.5-.671,1.5-1.5s-.672-1.5-1.5-1.5Z"/>
</svg>
