<?xml version="1.0" encoding="UTF-8"?>
<svg xmlns="http://www.w3.org/2000/svg" id="Layer_1" data-name="Layer 1" viewBox="0 0 24 24">
  <path d="m18.867,16.414c.601.571.623,1.521.052,2.12l-4.065,4.268c-.781.782-1.785,1.198-2.854,1.198s-2.072-.416-2.828-1.172l-4.091-4.294c-.571-.6-.549-1.549.052-2.12.599-.57,1.547-.55,2.12.052l3.247,3.409v-11.374c0-.829.672-1.5,1.5-1.5s1.5.671,1.5,1.5v11.375l3.247-3.409c.573-.601,1.521-.622,2.12-.052ZM12,0C5.579,0,.313,5.021.014,11.43c-.039.828.601,1.53,1.428,1.569.858.033,1.53-.601,1.568-1.428.226-4.806,4.174-8.57,8.99-8.57s8.765,3.765,8.99,8.57c.037.804.701,1.43,1.497,1.43.023,0,.047,0,.071-.001.827-.039,1.467-.741,1.428-1.569-.3-6.409-5.565-11.43-11.986-11.43Z"/>
</svg>
