<?xml version="1.0" encoding="UTF-8"?>
<svg xmlns="http://www.w3.org/2000/svg" id="Layer_1" data-name="Layer 1" viewBox="0 0 24 24">
  <path d="M24,5c0,.552-.447,1-1,1h-2.7c-.541,0-1.023-.323-1.23-.823-.206-.5-.093-1.069,.29-1.451l1.727-1.727h-1.086c-.553,0-1-.448-1-1s.447-1,1-1h2.7c.541,0,1.023,.323,1.23,.823,.206,.5,.093,1.069-.29,1.451l-1.727,1.727h1.086c.553,0,1,.448,1,1ZM.222,18.529c-.037-.061,.029,.064,0,0H.222Zm23.778-3.529c0,4.963-4.037,9-9,9h-3c-4.135,0-9.575-2.002-11.778-5.471-.274-.608-.296-1.288-.061-1.913,.236-.624,.701-1.119,1.311-1.395s1.289-.296,1.912-.061c.593,.224,1.068,.654,1.351,1.217,2.577,4.288,7.357,4.622,8.766,4.622h1.5c3.309,0,6-2.691,6-6s-2.691-6-6-6h-.122c.067,.356,.106,.722,.106,1.098,0,.711-.133,1.39-.364,2.021,.259-.04,.518-.081,.781-.099,.817-.064,1.541,.571,1.596,1.398,.054,.827-.572,1.541-1.398,1.596-1.904,.125-3.652,1.167-4.676,2.787-.286,.452-.772,.699-1.27,.699-.274,0-.552-.075-.8-.231-.701-.443-.91-1.369-.468-2.069,.05-.079,.11-.149,.163-.226-1.857-.167-3.466-1.198-4.427-2.687-.009-.013-.021-.021-.029-.034L1.303,8.956c-.399-.648-.406-1.419-.039-2.043,.368-.625,1.053-.993,1.77-.958l1.777,.081c.601-.632,1.339-1.128,2.167-1.446l.651-1.455c.295-.661,.928-1.103,1.651-1.15,.712-.043,1.354,.278,1.741,.85l2.353,3.166h1.626c4.963,0,9,4.038,9,9Zm-12-5c0-1.657-1.343-3-3-3s-3,1.343-3,3,1.343,3,3,3,3-1.343,3-3Z"/>
</svg>
