<?xml version="1.0" encoding="UTF-8"?>
<svg xmlns="http://www.w3.org/2000/svg" id="Layer_1" data-name="Layer 1" viewBox="0 0 24 24">
  <path d="M11,22.5c0,.829-.671,1.5-1.5,1.5H4.59c-1.655,0-3.173-.825-3.961-2.154-.417-.704-.629-1.493-.629-2.346,0-3.515,3.374-7.369,6.205-9.983,.513-.474,.795-1.123,.795-1.827V3h-.5c-.829,0-1.5-.671-1.5-1.5s.671-1.5,1.5-1.5h10c.829,0,1.5,.671,1.5,1.5s-.671,1.5-1.5,1.5h-.5V7.69c0,.281,.046,.557,.137,.82,.271,.783-.144,1.637-.927,1.908-.782,.271-1.637-.145-1.908-.927-.2-.579-.302-1.185-.302-1.8V3h-3V7.69c0,1.529-.642,2.999-1.76,4.031-.837,.773-1.585,1.537-2.239,2.279h2.5c.829,0,1.5,.671,1.5,1.5s-.671,1.5-1.5,1.5H3.811c-.527,.952-.811,1.803-.811,2.5,0,.312,.068,.578,.209,.815,.247,.416,.789,.685,1.381,.685h4.91c.829,0,1.5,.671,1.5,1.5Zm12.629-1.75c-.278,.481-.782,.75-1.3,.75-.254,0-.512-.065-.749-.202l-.676-.39c-.413,.352-.884,.629-1.404,.815v.776c0,.829-.671,1.5-1.5,1.5s-1.5-.671-1.5-1.5v-.776c-.521-.186-.992-.463-1.404-.815l-.676,.39c-.236,.137-.494,.202-.749,.202-.519,0-1.022-.269-1.3-.75-.415-.717-.168-1.635,.549-2.049l.663-.383c-.049-.266-.083-.538-.083-.818s.033-.552,.083-.818l-.663-.383c-.717-.414-.963-1.332-.549-2.049,.415-.717,1.331-.964,2.049-.549l.676,.39c.413-.352,.884-.629,1.404-.815v-.776c0-.829,.671-1.5,1.5-1.5s1.5,.671,1.5,1.5v.776c.521,.186,.992,.463,1.404,.815l.676-.39c.718-.415,1.635-.168,2.049,.549,.415,.717,.168,1.635-.549,2.049l-.663,.383c.049,.266,.083,.538,.083,.818s-.033,.552-.083,.818l.663,.383c.717,.414,.963,1.332,.549,2.049Zm-4.129-3.25c0-.827-.673-1.5-1.5-1.5s-1.5,.673-1.5,1.5,.673,1.5,1.5,1.5,1.5-.673,1.5-1.5Z"/>
</svg>
