<?xml version="1.0" encoding="UTF-8"?>
<svg xmlns="http://www.w3.org/2000/svg" id="Layer_1" data-name="Layer 1" viewBox="0 0 24 24">
  <path d="m22,14.351v-.851c0-.829-.672-1.5-1.5-1.5s-1.5.671-1.5,1.5v.5h-2v-.5c0-.829-.672-1.5-1.5-1.5s-1.5.671-1.5,1.5v.851c-1.178.564-2,1.758-2,3.149v3c0,1.93,1.57,3.5,3.5,3.5h5c1.93,0,3.5-1.57,3.5-3.5v-3c0-1.391-.822-2.585-2-3.149Zm-1.5,6.649h-5c-.275,0-.5-.224-.5-.5v-2.5h6v2.5c0,.276-.225.5-.5.5Zm-8.5-10.5c0,.568-.321,1.087-.829,1.342l-3,1.5c-.216.107-.444.159-.67.159-.55,0-1.08-.304-1.343-.83-.37-.741-.07-1.642.671-2.013l2.171-1.085v-3.073c0-.829.672-1.5,1.5-1.5s1.5.671,1.5,1.5v4Zm-2.037,9.109c-.158.696-.776,1.168-1.462,1.168-.109,0-.221-.012-.333-.038C3.358,19.649,0,15.438,0,10.5,0,4.71,4.71,0,10.5,0c4.937,0,9.148,3.359,10.24,8.168.184.808-.323,1.611-1.131,1.795-.81.186-1.611-.323-1.795-1.131-.779-3.434-3.787-5.832-7.314-5.832-4.136,0-7.5,3.364-7.5,7.5,0,3.472,2.453,6.547,5.832,7.314.808.183,1.314.987,1.131,1.795Z"/>
</svg>
