<?xml version="1.0" encoding="UTF-8"?>
<svg xmlns="http://www.w3.org/2000/svg" id="Layer_1" data-name="Layer 1" viewBox="0 0 24 24">
  <path d="M17.5,15c-.828,0-1.5-.672-1.5-1.5s.672-1.5,1.5-1.5,1.5,.672,1.5,1.5-.672,1.5-1.5,1.5Zm2.5-10H4c-.552,0-1-.448-1-1h0c0-.552,.448-1,1-1H22.5c.828,0,1.5-.671,1.5-1.5s-.672-1.5-1.5-1.5H4C1.887,0,.012,1.674-.013,3.603v3.897c0,.788,.562,1.517,1.347,1.595,.812,.081,1.504-.488,1.629-1.248,.333,.09,.676,.154,1.037,.154H20c.552,0,1,.448,1,1v9c0,.552-.448,1-1,1h-3.5c-.828,0-1.5,.671-1.5,1.5s.672,1.5,1.5,1.5h3.5c2.209,0,4-1.791,4-4V9c0-2.209-1.791-4-4-4ZM1.5,21c-.828,0-1.5,.672-1.5,1.5s.672,1.5,1.5,1.5,1.5-.672,1.5-1.5-.672-1.5-1.5-1.5Zm0-5c-.828,0-1.5,.671-1.5,1.5s.672,1.5,1.5,1.5c1.93,0,3.5,1.57,3.5,3.5,0,.829,.672,1.5,1.5,1.5s1.5-.671,1.5-1.5c0-3.584-2.916-6.5-6.5-6.5Zm0-5c-.828,0-1.5,.671-1.5,1.5s.672,1.5,1.5,1.5c4.687,0,8.5,3.813,8.5,8.5,0,.829,.672,1.5,1.5,1.5s1.5-.671,1.5-1.5c0-6.341-5.159-11.5-11.5-11.5Z"/>
</svg>
