<?xml version="1.0" encoding="UTF-8"?>
<svg xmlns="http://www.w3.org/2000/svg" id="Layer_1" data-name="Layer 1" viewBox="0 0 24 24">
  <path d="m18.5,0H5.5C2.467,0,0,2.467,0,5.5v13c0,3.033,2.467,5.5,5.5,5.5h4c.829,0,1.5-.671,1.5-1.5s-.671-1.5-1.5-1.5h-4c-1.378,0-2.5-1.122-2.5-2.5v-1.5h5.5c.829,0,1.5-.671,1.5-1.5,0-.652-.419-1.202-1-1.408v-4.092h5.5c.829,0,1.5-.671,1.5-1.5s-.671-1.5-1.5-1.5h-.5V3h4.5c1.378,0,2.5,1.122,2.5,2.5v3c0,.829.671,1.5,1.5,1.5s1.5-.671,1.5-1.5v-3c0-3.033-2.467-5.5-5.5-5.5ZM6,14h-3v-4h3v4Zm5-7H3v-1.5c0-1.378,1.122-2.5,2.5-2.5h5.5v4Zm7.438,3.276c-.33-.294-.853-.22-1.078.161-1.269,2.147-1.008,5.416-2.145,5.416-.539,0-.454-.931-.708-1.505-.18-.406-.727-.469-1.007-.123-1.073,1.327-2.076,3.469-1.125,5.752,1.017,2.444,3.314,4.169,5.956,4.014,3.162-.185,5.669-2.808,5.669-6.015h0c0-3.168-3.512-5.871-5.562-7.7Zm1.104,11.013c-.813.948-2.271.948-3.083,0-.703-.82-.566-2.072.197-2.835l.894-.894c.249-.249.652-.249.901,0l.894.894h0c.763.763.899,2.016.197,2.835Z"/>
</svg>
