<?xml version="1.0" encoding="UTF-8"?>
<svg xmlns="http://www.w3.org/2000/svg" id="Layer_1" data-name="Layer 1" viewBox="0 0 24 24">
  <path d="m22,5h-12c-1.105,0-2,.895-2,2v6c0,1.105.895,2,2,2h12c1.105,0,2-.895,2-2v-6c0-1.105-.895-2-2-2Zm-11.5,9c-.828,0-1.5-.672-1.5-1.5s.672-1.5,1.5-1.5,1.5.672,1.5,1.5-.672,1.5-1.5,1.5Zm0-5c-.828,0-1.5-.672-1.5-1.5s.672-1.5,1.5-1.5,1.5.672,1.5,1.5-.672,1.5-1.5,1.5Zm5.5,4c-1.657,0-3-1.343-3-3s1.343-3,3-3,3,1.343,3,3-1.343,3-3,3Zm5.5,1c-.828,0-1.5-.672-1.5-1.5s.672-1.5,1.5-1.5,1.5.672,1.5,1.5-.672,1.5-1.5,1.5Zm0-5c-.828,0-1.5-.672-1.5-1.5s.672-1.5,1.5-1.5,1.5.672,1.5,1.5-.672,1.5-1.5,1.5Zm-7,9H3V5.5c0-1.379,1.122-2.5,2.5-2.5h6c.829,0,1.5-.672,1.5-1.5s-.671-1.5-1.5-1.5h-6C2.467,0,0,2.468,0,5.5v13.5c0,2.761,2.239,5,5,5h6c2.366,0,4.663-1.779,5-4.5,0-.828-.671-1.5-1.5-1.5Zm-5.003,3.01c0,.827-.671,1.498-1.498,1.498h0c-.827,0-1.498-.671-1.498-1.498v-.004c0-.827.671-1.498,1.498-1.498h0c.827,0,1.498.671,1.498,1.498v.004Z"/>
</svg>
