<?xml version="1.0" encoding="UTF-8"?>
<svg xmlns="http://www.w3.org/2000/svg" id="Layer_1" data-name="Layer 1" viewBox="0 0 24 24">
  <path d="M24,7.5c0,.829-.671,1.5-1.5,1.5s-1.5-.671-1.5-1.5c0-2.481-2.019-4.5-4.5-4.5-.829,0-1.5-.671-1.5-1.5s.671-1.5,1.5-1.5c4.136,0,7.5,3.364,7.5,7.5Zm-8,.5c.275,.788,1.153,1.189,1.913,.914,.781-.275,1.191-1.132,.916-1.914-.303-.86-.97-1.527-1.83-1.83-.782-.276-1.638,.135-1.914,.916s.134,1.638,.915,1.914Zm-5,.5c-.828,0-1.5,.672-1.5,1.5s.672,1.5,1.5,1.5,1.5-.672,1.5-1.5-.672-1.5-1.5-1.5Zm1.5,4.5c0,.828,.672,1.5,1.5,1.5s1.5-.672,1.5-1.5-.672-1.5-1.5-1.5-1.5,.672-1.5,1.5Zm-4.5-1.5c-.828,0-1.5,.672-1.5,1.5s.672,1.5,1.5,1.5,1.5-.672,1.5-1.5-.672-1.5-1.5-1.5Zm3,6c.828,0,1.5-.672,1.5-1.5s-.672-1.5-1.5-1.5-1.5,.672-1.5,1.5,.672,1.5,1.5,1.5Zm6.671-7.38c-.762,.325-1.116,1.207-.792,1.968,.242,.567,.117,1.215-.318,1.649l-6.837,6.823c-.567,.566-1.554,.566-2.122,0l-4.179-4.178c-.584-.585-.584-1.537,0-2.12l6.838-6.823c.436-.436,1.083-.562,1.65-.319,.761,.323,1.644-.029,1.968-.792,.325-.762-.029-1.643-.792-1.968-1.699-.725-3.643-.349-4.948,.957L1.303,12.14c-1.754,1.755-1.754,4.61,0,6.364l4.178,4.178c.85,.85,1.98,1.318,3.182,1.318s2.332-.468,3.181-1.317l6.837-6.822c1.307-1.307,1.683-3.249,.958-4.949-.326-.763-1.209-1.115-1.968-.792Z"/>
</svg>
