<?xml version="1.0" encoding="UTF-8"?>
<svg xmlns="http://www.w3.org/2000/svg" id="Layer_1" data-name="Layer 1" viewBox="0 0 24 24">
  <path d="m13,9c-1.105,0-2-.895-2-2V3h-5.5c-1.379,0-2.5,1.122-2.5,2.5v13c0,1.379,1.121,2.5,2.5,2.5h4c.828,0,1.5.672,1.5,1.5s-.672,1.5-1.5,1.5h-4c-3.032,0-5.5-2.468-5.5-5.5V5.5C0,2.467,2.468,0,5.5,0h6.343c1.47,0,2.851.572,3.89,1.611l2.656,2.657c.816.815,1.348,1.848,1.536,2.986,0,0,.075.464.075,1.246s-.672,1.5-1.5,1.5c-.652,0-1.201-.419-1.408-1h-4.092Zm11,9c0,3.314-2.686,6-6,6s-6-2.686-6-6,2.686-6,6-6,6,2.686,6,6Zm-4.586,0l1.293-1.293c.391-.391.391-1.023,0-1.414s-1.023-.391-1.414,0l-1.293,1.293-1.293-1.293c-.391-.391-1.023-.391-1.414,0s-.391,1.023,0,1.414l1.293,1.293-1.293,1.293c-.391.391-.391,1.023,0,1.414.195.195.451.293.707.293s.512-.098.707-.293l1.293-1.293,1.293,1.293c.195.195.451.293.707.293s.512-.098.707-.293c.391-.391.391-1.023,0-1.414l-1.293-1.293Z"/>
</svg>
