<?xml version="1.0" encoding="UTF-8"?>
<svg xmlns="http://www.w3.org/2000/svg" id="Layer_1" data-name="Layer 1" viewBox="0 0 24 24">
  <path d="m17,8.75c0,2.163-2.82,4.851-4.225,5.978-.452.363-1.099.363-1.551,0-1.404-1.127-4.225-3.815-4.225-5.978,0-1.519,1.119-2.75,2.5-2.75s2.5,1.231,2.5,2.75c0-1.519,1.119-2.75,2.5-2.75s2.5,1.231,2.5,2.75Zm7-3.25v9c0,3.032-2.468,5.5-5.5,5.5h-1.172l-3.708,3.065c-.448.398-1.024.601-1.606.601-.595,0-1.196-.21-1.675-.636l-3.599-3.03h-1.24c-3.032,0-5.5-2.468-5.5-5.5V5.5C0,2.468,2.468,0,5.5,0h13c3.032,0,5.5,2.468,5.5,5.5Zm-3,0c0-1.379-1.121-2.5-2.5-2.5H5.5c-1.379,0-2.5,1.121-2.5,2.5v9c0,1.379,1.121,2.5,2.5,2.5h1.788c.354,0,.696.125.966.353l3.75,3.158,3.828-3.167c.27-.222.607-.344.956-.344h1.712c1.379,0,2.5-1.121,2.5-2.5V5.5Z"/>
</svg>
