<?xml version="1.0" encoding="UTF-8"?>
<svg xmlns="http://www.w3.org/2000/svg" id="Layer_1" data-name="Layer 1" viewBox="0 0 24 24">
  <path d="m13.998,22.418c.039.827-.6,1.529-1.428,1.568-.189.009-.379.014-.57.014C5.383,24,0,18.617,0,12S5.383,0,12,0c3.058,0,5.96,1.181,8.16,3.223l1.49-1.49c.498-.498,1.35-.145,1.35.559v4.52c0,.656-.531,1.187-1.187,1.187h-4.52c-.705,0-1.058-.852-.559-1.35l1.309-1.309c-1.64-1.486-3.786-2.341-6.042-2.341C7.037,3,3,7.037,3,12s4.037,9,9,9c.145,0,.287-.003.43-.01.806-.039,1.53.601,1.568,1.428Zm2.805-7.674c.411-.719.161-1.636-.559-2.047l-2.744-1.567v-3.63c0-.828-.672-1.5-1.5-1.5s-1.5.672-1.5,1.5v4.5c0,.538.288,1.035.756,1.303l3.5,2c.234.134.49.197.743.197.521,0,1.026-.271,1.304-.756Zm5.697-4.244c-.828,0-1.5.672-1.5,1.5s.672,1.5,1.5,1.5,1.5-.672,1.5-1.5-.672-1.5-1.5-1.5Zm-5.24,9.106c-.828,0-1.5.672-1.5,1.5s.672,1.5,1.5,1.5,1.5-.672,1.5-1.5-.672-1.5-1.5-1.5Zm3.827-3.856c-.828,0-1.5.672-1.5,1.5s.672,1.5,1.5,1.5,1.5-.672,1.5-1.5-.672-1.5-1.5-1.5Z"/>
</svg>
