<?xml version="1.0" encoding="UTF-8"?>
<svg xmlns="http://www.w3.org/2000/svg" id="Layer_1" data-name="Layer 1" viewBox="0 0 24 24">
  <path d="M12,0C5.383,0,0,5.383,0,12s5.383,12,12,12,12-5.383,12-12S18.617,0,12,0Zm0,21c-4.962,0-9-4.038-9-9S7.038,3,12,3s9,4.038,9,9-4.037,9-9,9Zm1.862-9.001l2.467-2.017c.426-.374,.671-.914,.672-1.48,.002-.567-.24-1.108-.664-1.484l-2.969-2.64c-.419-.372-1.019-.463-1.529-.233-.51,.229-.839,.739-.839,1.298v4.218l-2.367-1.934c-.428-.349-1.057-.286-1.407,.142-.35,.428-.286,1.058,.142,1.407l3.344,2.718-3.344,2.733c-.428,.35-.491,.979-.142,1.407,.35,.427,.98,.491,1.407,.142l2.367-1.936v4.219c0,.559,.33,1.069,.839,1.298,.187,.084,.385,.125,.583,.125,.342,0,.681-.123,.946-.359l2.972-2.642c.423-.376,.664-.917,.663-1.482,0-.565-.244-1.104-.697-1.504l-2.443-1.996Zm-.862-5.297l2.036,1.755-2.036,1.665v-3.42Zm0,10.572v-3.421l2.011,1.634-2.011,1.788Z"/>
</svg>
