<?xml version="1.0" encoding="UTF-8"?>
<svg xmlns="http://www.w3.org/2000/svg" id="Layer_1" data-name="Layer 1" viewBox="0 0 24 24">
  <path d="M6.096,11.975c1.228,1.229,1.904,2.861,1.904,4.597v5.929c0,.828-.671,1.5-1.5,1.5s-1.5-.672-1.5-1.5v-5.929c0-.935-.364-1.814-1.025-2.476l-.772-.772-1.357,1.357c-.681,.681-1.845,.199-1.845-.764v-4.836c0-.597,.484-1.081,1.081-1.081H5.917c.963,0,1.445,1.164,.764,1.845l-1.357,1.357,.772,.772Zm10.027-7.793L12.753,.812c-.416-.416-1.09-.416-1.506,0l-3.37,3.37c-.671,.671-.196,1.818,.753,1.818h1.87V22.5c0,.828,.671,1.5,1.5,1.5s1.5-.672,1.5-1.5V6h1.87c.949,0,1.424-1.147,.753-1.818Zm6.796,3.818h-4.836c-.963,0-1.445,1.164-.764,1.845l1.357,1.357-.772,.772c-1.229,1.228-1.904,2.86-1.904,4.597v5.929c0,.828,.672,1.5,1.5,1.5s1.5-.672,1.5-1.5v-5.929c0-.935,.364-1.814,1.025-2.476l.772-.772,1.357,1.357c.681,.681,1.845,.199,1.845-.764v-4.836c0-.597-.484-1.081-1.081-1.081Z"/>
</svg>
