<?xml version="1.0" encoding="UTF-8"?>
<svg xmlns="http://www.w3.org/2000/svg" id="Layer_1" data-name="Layer 1" viewBox="0 0 24 24">
  <path d="m21,8.051v-1.551c0-3.584-2.916-6.5-6.5-6.5h-5C5.916,0,3,2.916,3,6.5v1.551c-1.14.232-2,1.242-2,2.449v6c0,1.557.795,2.93,2,3.738v2.262c0,.829.671,1.5,1.5,1.5s1.5-.671,1.5-1.5v-1.5h12v1.5c0,.829.671,1.5,1.5,1.5s1.5-.671,1.5-1.5v-2.262c1.205-.808,2-2.182,2-3.738v-6c0-1.207-.86-2.217-2-2.449Zm-1,8.449c0,.827-.673,1.5-1.5,1.5H5.5c-.827,0-1.5-.673-1.5-1.5v-.5h16v.5ZM6,6.5c0-1.93,1.57-3.5,3.5-3.5h5c1.93,0,3.5,1.57,3.5,3.5v6.5H6v-6.5Z"/>
</svg>
