<?xml version="1.0" encoding="UTF-8"?>
<svg xmlns="http://www.w3.org/2000/svg" id="Layer_1" data-name="Layer 1" viewBox="0 0 24 24">
  <path d="M22,22.5c0,.829-.671,1.5-1.5,1.5h-7c-3.033,0-5.5-2.467-5.5-5.5V3.901L3.586,8.535c-.572,.6-1.521,.622-2.121,.051-.6-.571-.623-1.521-.051-2.121L6.293,1.344c.875-.876,2.004-1.344,3.207-1.344s2.333,.468,3.182,1.319l4.904,5.146c.571,.6,.548,1.549-.051,2.121-.291,.277-.663,.414-1.035,.414-.396,0-.791-.156-1.086-.465L11,3.901v14.599c0,1.378,1.122,2.5,2.5,2.5h7c.829,0,1.5,.671,1.5,1.5Z"/>
</svg>
