<?xml version="1.0" encoding="UTF-8"?>
<svg xmlns="http://www.w3.org/2000/svg" id="Layer_1" data-name="Layer 1" viewBox="0 0 24 24">
  <path d="M15,2.5c0-1.381,1.119-2.5,2.5-2.5s2.5,1.119,2.5,2.5-1.119,2.5-2.5,2.5-2.5-1.119-2.5-2.5Zm8.258,9.327l-3.629-2.125c.1-1.052-.174-2.04-.778-2.724-.556-.63-1.35-.977-2.236-.977-.126,0-1.589,.365-1.671,.41l-4.537,2.438-6.078-2.431c-.307-.185-1.449-.416-1.47-.416-.873,0-1.687,.391-2.232,1.073C.081,7.755-.122,8.635,.07,9.484l1.164,5.201c.175,.777,.644,1.437,1.32,1.856,.259,.161,.537,.269,.824,.343l1.446,5.968c.167,.686,.78,1.147,1.457,1.147,.117,0,.235-.014,.354-.042,.805-.195,1.299-1.006,1.104-1.812l-1.478-6.099c.14-.151,.268-.315,.376-.497,.409-.684,.523-1.485,.323-2.254l-.751-2.898,3.733,1.493c.414,.166,.877,.139,1.267-.071l3.251-1.747-.791,2.654c-.444,1.49,.162,3.114,1.471,3.95l3.604,2.301,1.332,3.996c.209,.629,.794,1.026,1.423,1.026,.157,0,.317-.025,.474-.078,.786-.262,1.211-1.111,.949-1.897l-1.5-4.5c-.108-.326-.326-.605-.616-.79l-2.689-1.717,.685-2.325,2.939,1.721c.238,.14,.5,.206,.757,.206,.515,0,1.017-.265,1.296-.742,.418-.715,.179-1.633-.536-2.052ZM2.5,5c1.381,0,2.5-1.119,2.5-2.5S3.881,0,2.5,0,0,1.119,0,2.5s1.119,2.5,2.5,2.5Zm11.557,12.28c-.795-.235-1.629,.215-1.866,1.009l-1.128,3.783c-.237,.794,.215,1.629,1.009,1.866,.143,.042,.287,.063,.429,.063,.646,0,1.243-.421,1.437-1.072l1.128-3.783c.237-.794-.215-1.629-1.009-1.866Z"/>
</svg>
