<?xml version="1.0" encoding="UTF-8"?>
<svg xmlns="http://www.w3.org/2000/svg" id="Layer_1" data-name="Layer 1" viewBox="0 0 24 24">
  <path d="m19,8.607v-1.607c0-3.859-3.141-7-7-7s-7,3.141-7,7v1.607c-1.778.912-3,2.761-3,4.893v5.535c0,1.998,1.086,3.842,2.835,4.812.23.128.48.188.727.188.527,0,1.039-.278,1.312-.772.402-.725.141-1.638-.584-2.039-.796-.441-1.29-1.28-1.29-2.188v-5.535c0-1.379,1.121-2.5,2.5-2.5h9c1.379,0,2.5,1.121,2.5,2.5v5.535c0,.89-.479,1.72-1.251,2.166-.717.415-.962,1.333-.548,2.05.415.717,1.334.962,2.05.548,1.695-.981,2.749-2.807,2.749-4.764v-5.535c0-2.132-1.222-3.98-3-4.893Zm-11-.607v-1c0-2.206,1.794-4,4-4s4,1.794,4,4v1h-8Zm7.513,8c0-1.483-1.084-2.71-2.5-2.949v-.051c0-.553-.447-1-1-1s-1,.447-1,1h-.5c-.827,0-1.5.673-1.5,1.5v7c0,.827.673,1.5,1.5,1.5h.5c0,.553.447,1,1,1s1-.447,1-1c1.654,0,3-1.346,3-3,0-.909-.406-1.725-1.047-2.275.345-.488.547-1.083.547-1.725Zm-4.5-1h1.5c.552,0,1,.448,1,1s-.448,1-1,1h-1.5v-2Zm2,6h-2v-2h2c.552,0,1,.448,1,1s-.448,1-1,1Z"/>
</svg>
