<?xml version="1.0" encoding="UTF-8"?>
<svg xmlns="http://www.w3.org/2000/svg" id="Layer_1" data-name="Layer 1" viewBox="0 0 24 24">
  <path d="m8,12c3.309,0,6-2.691,6-6S11.309,0,8,0,2,2.691,2,6s2.691,6,6,6Zm0-9c1.654,0,3,1.346,3,3s-1.346,3-3,3-3-1.346-3-3,1.346-3,3-3Zm14,16h1.91c-.422,2.511-2.399,4.488-4.91,4.91v-1.91c0-.552-.448-1-1-1s-1,.448-1,1v1.91c-2.511-.422-4.488-2.399-4.91-4.91h1.91c.552,0,1-.448,1-1s-.448-1-1-1h-1.91c.422-2.511,2.399-4.488,4.91-4.91v1.91c0,.552.448,1,1,1s1-.448,1-1v-1.91c2.511.422,4.488,2.399,4.91,4.91h-1.91c-.552,0-1,.448-1,1s.448,1,1,1Zm-12.004-3.375c-.059.826-.777,1.453-1.603,1.39-.13-.009-.261-.015-.394-.015-2.757,0-5,2.243-5,5v.5c0,.828-.671,1.5-1.5,1.5s-1.5-.672-1.5-1.5v-.5c0-4.411,3.589-8,8-8,.204,0,.406.008.606.022.826.059,1.448.776,1.39,1.603Z"/>
</svg>
