<?xml version="1.0" encoding="UTF-8"?>
<svg xmlns="http://www.w3.org/2000/svg" id="Layer_1" data-name="Layer 1" viewBox="0 0 24 24">
  <path d="M14.06,18.948c.586,.586,.586,1.535,0,2.121-.293,.293-.677,.439-1.061,.439s-.768-.146-1.061-.439l-3.441-3.441-5.936,5.941c-.586,.586-1.536,.586-2.122,0-.586-.585-.586-1.535,0-2.121l5.937-5.942-3.437-3.437c-.586-.585-.586-1.536,0-2.121,.586-.586,1.535-.586,2.121,0l9,9Zm9.5,4.621c-.586,.586-1.535,.586-2.121,0L.439,2.569C-.147,1.983-.147,1.033,.439,.448,1.025-.138,1.974-.138,2.56,.448l5.966,5.966c.949-.079,1.899-.003,2.824,.238l2.752-2.752-.522-.524c-.85-.853-.766-2.289,.254-3.026,.8-.578,1.923-.408,2.621,.292l6.965,6.984c.85,.853,.766,2.289-.254,3.026-.8,.578-1.923,.408-2.621-.292l-.452-.454-2.757,2.758c.227,.901,.347,1.844,.272,2.831l5.953,5.953c.586,.586,.586,1.535,0,2.121ZM14.64,11.117l3.334-3.335-1.754-1.759-3.353,3.353c-.257,.258-.597,.402-.951,.429l2.288,2.288c.02-.363,.171-.713,.435-.976Z"/>
</svg>
