<?xml version="1.0" encoding="UTF-8"?>
<svg xmlns="http://www.w3.org/2000/svg" id="Layer_1" data-name="Layer 1" viewBox="0 0 24 24">
  <path d="m7.025,4.975c-.586-.585-.586-1.536,0-2.121.586-.586,1.535-.586,2.121,0l2,2c.127.127.276.146.354.146s.226-.019.353-.146L16.46.419c.597-.576,1.546-.557,2.121.041.574.597.556,1.546-.041,2.121l-4.586,4.414c-.64.641-1.519,1.005-2.454,1.005s-1.814-.364-2.475-1.025l-2-2Zm14.475-.975c-1.379,0-2.5,1.122-2.5,2.5v3.605c-1.239-.278-2.589.055-3.551,1.017l-3.482,3.482c-.155-.177-.313-.354-.486-.527l-2.876-2.876c-.987-.988-2.35-1.363-3.605-1.099v-3.602c0-1.378-1.122-2.5-2.5-2.5S0,5.122,0,6.5v11.015c0,2.003.78,3.887,2.197,5.303l.743.743c.293.293.677.439,1.061.439s.768-.146,1.061-.439c.586-.585.586-1.536,0-2.121l-.743-.743c-.85-.85-1.318-1.98-1.318-3.182v-1.119l2.443,2.425c.587.583,1.538.58,2.122-.008.583-.588.58-1.538-.008-2.122l-2.45-2.431c-.102-.167-.14-.362-.11-.558.025-.158.105-.383.35-.557.313-.224.813-.146,1.137.178l2.876,2.876c1.095,1.095,1.627,2.237,1.627,3.492v2.81c0,.829.671,1.5,1.5,1.5s1.5-.671,1.5-1.5v-2.81c0-.843-.148-1.654-.429-2.436l4.012-4.012c.324-.323.85-.324,1.174,0,.271.271.317.694.123,1.017l-2.424,2.405c-.588.583-.592,1.533-.008,2.122.293.295.679.443,1.064.443.382,0,.764-.145,1.057-.435l2.443-2.424v1.144c0,1.203-.468,2.333-1.318,3.182l-.742.743c-.586.586-.586,1.536,0,2.122.293.292.677.439,1.061.439s.769-.146,1.061-.439l.742-.742c1.417-1.416,2.197-3.299,2.197-5.304V6.5c0-1.378-1.121-2.5-2.5-2.5Z"/>
</svg>
