<?xml version="1.0" encoding="UTF-8"?>
<svg xmlns="http://www.w3.org/2000/svg" id="Layer_1" data-name="Layer 1" viewBox="0 0 24 24">
  <path d="m18.337,13H5c-2.757,0-5-2.243-5-5S2.243,3,5,3h14v-1.784c0-.773.934-1.159,1.48-.613l3.253,3.253c.356.356.356.933,0,1.289l-3.253,3.253c-.546.546-1.48.159-1.48-.613v-1.784H5c-1.103,0-2,.897-2,2s.897,2,2,2h13.337c1.921,0,3.694,1.121,4.518,2.856.355.749.037,1.643-.711,1.999-.208.099-.427.146-.643.146-.561,0-1.099-.316-1.356-.857-.33-.695-1.04-1.144-1.808-1.144Zm-15.337,4h-1c-1.105,0-2,.895-2,2v1c0,1.105.895,2,2,2h1c1.105,0,2-.895,2-2v-1c0-1.105-.895-2-2-2Zm19,0h-1c-1.105,0-2,.895-2,2v1c0,1.105.895,2,2,2h1c1.105,0,2-.895,2-2v-1c0-1.105-.895-2-2-2Zm-8.52-1.397c-.546-.546-1.48-.159-1.48.613v1.792l-3.497-.008h-.003c-.827,0-1.498.669-1.5,1.497-.002.828.668,1.501,1.497,1.503l3.503.008v1.776c0,.772.934,1.159,1.48.613l3.253-3.253c.356-.356.356-.933,0-1.289l-3.253-3.253Z"/>
</svg>
