<?xml version="1.0" encoding="UTF-8"?>
<svg xmlns="http://www.w3.org/2000/svg" id="Layer_1" data-name="Layer 1" viewBox="0 0 24 24">
  <path d="m23.89,13.667l-1.386-9.003c-.415-2.703-2.701-4.664-5.436-4.664h-1.068c-.828,0-1.5.672-1.5,1.5s.672,1.5,1.5,1.5h1.068c1.243,0,2.282.892,2.471,2.12l1.213,7.88h-2.252c-1.704,0-3.229.779-4.239,2h-4.522c-1.01-1.221-2.535-2-4.239-2h-2.252l1.213-7.881c.188-1.228,1.228-2.119,2.471-2.119h1.068c.828,0,1.5-.672,1.5-1.5s-.672-1.5-1.5-1.5h-1.068C4.197,0,1.911,1.961,1.496,4.663L.11,13.669c-.073.478-.11.963-.11,1.442v3.389c0,3.032,2.468,5.5,5.5,5.5s5.5-2.468,5.5-5.5c0-.169-.01-.335-.025-.5h2.051c-.015.165-.025.331-.025.5,0,3.032,2.468,5.5,5.5,5.5s5.5-2.468,5.5-5.5v-3.389c0-.479-.037-.965-.11-1.444Zm-18.39,7.333c-1.118,0-2.055-.741-2.374-1.755l3.972-2.652c.547.459.902,1.138.902,1.907,0,1.379-1.121,2.5-2.5,2.5Zm15.5-2.5c0,1.379-1.121,2.5-2.5,2.5-1.117,0-2.054-.741-2.373-1.753l4.873-3.247h0v2.5Z"/>
</svg>
