<?xml version="1.0" encoding="UTF-8"?>
<svg xmlns="http://www.w3.org/2000/svg" id="Layer_1" data-name="Layer 1" viewBox="0 0 24 24">
  <path d="m10.757,5.223l-.005-1.473h.715c.413,0,.762.336.762.735s-.349.735-.762.735l-.71.003Zm13.243-.723v11.343c0,1.47-.572,2.851-1.611,3.89l-2.657,2.656c-1.039,1.039-2.42,1.611-3.889,1.611H4.5c-2.481,0-4.5-2.019-4.5-4.5V4.5C0,2.019,2.019,0,4.5,0h15c2.481,0,4.5,2.019,4.5,4.5Zm-9.722.473c0,.828.671,1.499,1.499,1.5h1.23v1.472c0,.345.28.625.625.625s.625-.28.625-.625V3.126c0-.345-.28-.625-.625-.625h-.004c-.345,0-.625.279-.625.624l-.003,2.099-.969-.002c-.277,0-.501-.226-.499-.504.003-.45.009-1.072.014-1.586.004-.348-.277-.632-.625-.632h-.018c-.345,0-.625.28-.625.625v1.847Zm-4.778,2.971c0,.345.28.625.625.625s.625-.28.625-.625v-1.471l.717-.003c1.109,0,2.012-.891,2.012-1.985s-.902-1.985-2.012-1.985h-1.342c-.345,0-.625.28-.625.625v4.819Zm-6.453-.026c-.025.352.253.651.605.651.318,0,.582-.246.605-.563l.201-2.776.644,1.416c.216.474.889.474,1.105,0l.644-1.416.201,2.776c.023.317.287.563.605.563.352,0,.631-.299.605-.651l-.338-4.659c-.032-.535-.358-.759-.749-.759-.26,0-.501.184-.638.486l-.883,1.942-.883-1.942c-.137-.302-.378-.486-.638-.486-.391,0-.717.224-.749.759l-.338,4.659Zm1.453,13.082h10.5v-4c0-1.105.895-2,2-2h4v-4H3v8.5c0,.827.673,1.5,1.5,1.5Z"/>
</svg>
