<?xml version="1.0" encoding="UTF-8"?>
<svg xmlns="http://www.w3.org/2000/svg" id="Layer_1" data-name="Layer 1" viewBox="0 0 24 24">
  <path d="m18.5,0H5.5C2.468,0,0,2.467,0,5.5v9c0,3.033,2.468,5.5,5.5,5.5h2.013c.828,0,1.5-.671,1.5-1.5s-.672-1.5-1.5-1.5h-2.013c-1.379,0-2.5-1.122-2.5-2.5V6.202l5.239,5.24c1.004,1.004,2.339,1.558,3.761,1.558s2.757-.553,3.761-1.558l5.239-5.24v3.298c0,.829.672,1.5,1.5,1.5s1.5-.671,1.5-1.5v-4c0-3.033-2.468-5.5-5.5-5.5Zm-4.861,9.321c-.438.438-1.038.657-1.639.657-.601,0-1.202-.219-1.639-.657L4.339,3.299c.349-.185.74-.299,1.161-.299h13c.421,0,.812.115,1.161.299l-6.022,6.022Zm9.624,4.564c.981.982.981,2.581,0,3.562l-5.37,5.37c-.787.787-1.821,1.18-2.855,1.18s-2.067-.393-2.854-1.18c-.763-.762-1.183-1.776-1.183-2.855s.42-2.092,1.183-2.855l4.11-4.11c.391-.391,1.023-.391,1.414,0s.391,1.023,0,1.414l-4.11,4.11c-.385.385-.597.897-.597,1.441s.212,1.056.597,1.441c.796.794,2.088.793,2.882,0l5.37-5.37c.202-.202.202-.532,0-.734-.195-.195-.537-.196-.734,0l-4.907,4.907c-.391.391-1.023.391-1.414,0s-.391-1.023,0-1.414l4.907-4.907c.951-.95,2.609-.952,3.562,0Z"/>
</svg>
