<?xml version="1.0" encoding="UTF-8"?>
<svg xmlns="http://www.w3.org/2000/svg" id="Layer_1" data-name="Layer 1" viewBox="0 0 24 24">
  <path d="m20.98,22.5c0,.828-.672,1.5-1.5,1.5H4.48c-.828,0-1.5-.672-1.5-1.5s.672-1.5,1.5-1.5h15c.828,0,1.5.672,1.5,1.5Zm-3.407-12.271l-13.687,5.894c-.761.328-1.111,1.21-.784,1.972.245.567.798.906,1.379.906.197,0,.399-.039.593-.122l13.686-5.894c1.382-.595,2.24-1.93,2.24-3.484s-.858-2.889-2.239-3.483L5.074.123c-.763-.33-1.644.024-1.972.784-.327.761.023,1.643.784,1.971l13.688,5.895c.396.17.426.6.426.728s-.03.558-.427.729Z"/>
</svg>
