<?xml version="1.0" encoding="UTF-8"?>
<svg xmlns="http://www.w3.org/2000/svg" id="Layer_1" data-name="Layer 1" viewBox="0 0 24 24">
  <path d="m15.899,6.754c-.274-.478-.887-.643-1.365-.368l-.136.078c-.391-.37-.87-.642-1.398-.801v-.163c0-.552-.447-1-1-1s-1,.448-1,1v.163c-.529.159-1.007.431-1.398.801l-.136-.078c-.479-.275-1.091-.11-1.365.368-.276.479-.111,1.09.367,1.366l.134.077c-.061.259-.102.526-.102.803s.041.544.102.803l-.134.077c-.479.276-.644.887-.367,1.366.185.321.521.501.867.501.169,0,.341-.043.498-.133l.136-.078c.391.37.87.642,1.398.801v.163c0,.552.447,1,1,1s1-.448,1-1v-.163c.529-.159,1.007-.431,1.398-.801l.136.078c.157.09.329.133.498.133.346,0,.683-.18.867-.501.276-.479.111-1.09-.367-1.366l-.134-.077c.061-.259.102-.526.102-.803s-.041-.544-.102-.803l.134-.077c.479-.276.644-.887.367-1.366Zm-3.899,3.746c-.827,0-1.5-.673-1.5-1.5s.673-1.5,1.5-1.5,1.5.673,1.5,1.5-.673,1.5-1.5,1.5Zm5.958-8.231C16.028.549,13.551-.236,10.977.06,6.924.527,3.61,3.844,3.097,7.946c-.372,2.969.643,5.834,2.782,7.863.951.901,1.143,2.187,1.143,3.969v.153c0,2.243,1.805,4.068,4.022,4.068h1.956c2.218,0,4.021-1.825,4.021-4.068v-.523c0-1.669.15-2.708.942-3.415,1.943-1.734,3.058-4.233,3.058-6.857s-1.116-5.131-3.063-6.867Zm-1.992,11.486c-1.36,1.215-1.774,2.748-1.896,4.245h-4.136c-.171-1.576-.662-3.109-1.991-4.368-1.44-1.365-2.122-3.301-1.87-5.313.344-2.748,2.551-4.968,5.247-5.278.236-.027.472-.041.705-.041,1.454,0,2.831.523,3.937,1.508,1.309,1.167,2.06,2.854,2.06,4.628s-.749,3.454-2.056,4.619Z"/>
</svg>
