<?xml version="1.0" encoding="UTF-8"?>
<svg xmlns="http://www.w3.org/2000/svg" id="Layer_1" data-name="Layer 1" viewBox="0 0 24 24">
  <path d="M16.508,9.499c-1.105,0-2-.895-2-2V1.663c0-.951,.874-1.659,1.808-1.475,3.782,.743,6.762,3.721,7.507,7.503,.184,.933-.524,1.808-1.475,1.808h-5.84Zm-3.008,2.001h-1V5.673c0-1.068-.485-2.054-1.332-2.703-.862-.662-1.964-.88-3.024-.595C2.853,3.794-.542,8.795,.071,14.266c.558,4.973,4.563,9.03,9.524,9.647,.468,.058,.938,.087,1.405,.087,.583,0,1.163-.045,1.734-.136,.818-.129,1.376-.898,1.247-1.716s-.901-1.382-1.716-1.247c-.751,.12-1.526,.13-2.299,.034-3.601-.447-6.508-3.393-6.913-7.004-.447-3.985,2.021-7.626,5.868-8.659,.207-.055,.353,.025,.421,.078,.105,.081,.158,.189,.158,.323v7.327c0,.829,.671,1.5,1.5,1.5h2.5c.829,0,1.5-.671,1.5-1.5s-.671-1.5-1.5-1.5Zm8.185,5.767l-3.042-.507c-.373-.062-.644-.382-.644-.76,0-.551,.449-1,1-1h2.268c.356,0,.688,.192,.867,.5,.277,.479,.889,.643,1.366,.365,.479-.277,.642-.888,.365-1.366-.535-.925-1.53-1.499-2.598-1.499h-.268c0-.553-.448-1-1-1s-1,.448-1,1c-1.654,0-3,1.346-3,3,0,1.36,.974,2.51,2.315,2.733l3.042,.507c.373,.062,.644,.382,.644,.76,0,.551-.449,1-1,1h-2.268c-.356,0-.688-.192-.867-.5-.276-.479-.889-.643-1.366-.365-.479,.277-.642,.888-.365,1.366,.535,.925,1.53,1.499,2.598,1.499h.268c0,.553,.448,1,1,1s1-.448,1-1c1.654,0,3-1.346,3-3,0-1.36-.974-2.51-2.315-2.733Z"/>
</svg>
