<?xml version="1.0" encoding="UTF-8"?>
<svg xmlns="http://www.w3.org/2000/svg" id="Layer_1" data-name="Layer 1" viewBox="0 0 24 24">
  <path d="M23.263,14.759c-.52-.545-1.244-.818-2.001-.748-3.686,.344-6.137,1.766-7.762,3.327v-2.054c.911-.236,1.769-.661,2.483-1.297,1.045-.928,1.718-2.188,1.934-3.521,.111-1.655,.417-3.797,.847-5.127,.065-.25,.125-.478,.173-.674,.158-.647,.014-1.319-.397-1.842-.41-.522-1.026-.822-1.69-.822h-.013c.083-.276,.159-.505,.191-.733,.107-.767-.568-1.401-1.325-1.242-.924,.194-2.462,.754-3.663,1.475C10.837,.779,9.299,.219,8.375,.025c-.758-.159-1.432,.475-1.325,1.242,.033,.233,.111,.467,.196,.75-.611-.028-1.201,.186-1.637,.633-.53,.544-.73,1.309-.536,2.046l.163,.593c.302,1.079,.758,2.709,.765,4.153,.013,2.8,1.904,5.174,4.5,5.847v2.047c-1.625-1.56-4.076-2.983-7.763-3.327-.743-.066-1.48,.202-2,.748-.545,.573-.802,1.396-.688,2.203,.812,5.672,6.596,7.108,10.559,7.108,.499,0,.963-.026,1.392-.065,.428,.04,.892,.065,1.392,.065,3.963,0,9.747-1.436,10.559-7.108,.114-.807-.143-1.629-.688-2.202ZM15.753,5c-.215,.834-.468,1.883-.621,3.001-.601-1.155-1.345-2.17-2.145-3.001h2.766Zm-6.753,4.428c-.007-1.404-.31-2.818-.606-3.958,.169,.065,.349,.137,.537,.214,1.775,.728,3.914,3.355,4.496,6.457-.541,.294-1.162,.412-1.8,.336-1.466-.173-2.62-1.513-2.627-3.049Zm-5.873,7.649c3.682,.534,5.604,2.468,6.562,3.956-2.319-.136-5.772-.871-6.562-3.956Zm11.185,3.956c.957-1.488,2.88-3.422,6.562-3.956-.789,3.085-4.242,3.82-6.562,3.956Z"/>
</svg>
