<?xml version="1.0" encoding="UTF-8"?>
<svg xmlns="http://www.w3.org/2000/svg" id="Layer_1" data-name="Layer 1" viewBox="0 0 24 24">
  <path d="M14,12c0,1.105-.895,2-2,2s-2-.895-2-2,.895-2,2-2,2,.895,2,2Zm1-2h4.574c.823,0,1.236-.995,.653-1.578l-1.264-1.264,4.597-4.597c.586-.585,.586-1.536,0-2.121-.586-.586-1.535-.586-2.121,0l-4.597,4.597-1.264-1.264c-.582-.582-1.578-.17-1.578,.653v4.574c0,.552,.448,1,1,1ZM8.422,3.773l-1.264,1.264L2.561,.439C1.975-.146,1.025-.146,.439,.439-.146,1.025-.146,1.975,.439,2.561L5.037,7.158l-1.264,1.264c-.582,.582-.17,1.578,.654,1.578h4.574c.552,0,1-.448,1-1V4.426c0-.823-.995-1.236-1.578-.653Zm10.541,13.069l1.264-1.264c.582-.582,.17-1.578-.653-1.578h-4.574c-.552,0-1,.448-1,1v4.574c0,.823,.995,1.236,1.578,.654l1.264-1.264,4.597,4.597c.293,.293,.677,.439,1.061,.439s.768-.146,1.061-.439c.586-.586,.586-1.535,0-2.121l-4.597-4.597Zm-9.963-2.842H4.426c-.823,0-1.236,.995-.654,1.578l1.264,1.264L.439,21.439c-.586,.586-.586,1.535,0,2.121,.293,.293,.677,.439,1.061,.439s.768-.146,1.061-.439l4.597-4.597,1.264,1.264c.582,.582,1.578,.17,1.578-.654v-4.574c0-.552-.448-1-1-1Z"/>
</svg>
