<?xml version="1.0" encoding="UTF-8"?>
<svg xmlns="http://www.w3.org/2000/svg" id="Layer_1" data-name="Layer 1" viewBox="0 0 24 24">
  <path d="m21.5,19c-.253,0-.493.049-.724.119l-2.31-1.68c.95-.648,1.534-1.726,1.534-2.885v-5.107c0-1.159-.584-2.237-1.533-2.886l2.309-1.68c.231.07.47.119.724.119,1.381,0,2.5-1.119,2.5-2.5s-1.119-2.5-2.5-2.5c-1.367,0-2.474,1.099-2.496,2.461l-3.377,2.456-1.89-1.08c-1.071-.613-2.402-.612-3.473,0l-1.891,1.081-3.377-2.456c-.022-1.362-1.129-2.461-2.496-2.461C1.119,0,0,1.119,0,2.5s1.119,2.5,2.5,2.5c.253,0,.493-.049.724-.119l2.31,1.68c-.95.648-1.534,1.726-1.534,2.885v5.107c0,1.159.584,2.237,1.533,2.886l-2.309,1.68c-.231-.07-.47-.119-.724-.119-1.381,0-2.5,1.119-2.5,2.5s1.119,2.5,2.5,2.5c1.367,0,2.474-1.099,2.496-2.461l3.377-2.456,1.89,1.08c.536.307,1.136.46,1.737.46s1.201-.153,1.736-.459l1.891-1.081,3.377,2.456c.022,1.362,1.129,2.461,2.496,2.461,1.381,0,2.5-1.119,2.5-2.5s-1.119-2.5-2.5-2.5ZM11.752,6.441h0c.076-.044.162-.066.248-.066.085,0,.171.022.248.066l3.58,2.045-3.828,2.188-3.828-2.188,3.58-2.046Zm-4.5,8.547c-.156-.09-.252-.256-.252-.435v-4.433l4,2.286v4.723l-3.748-2.141Zm5.748,2.141v-4.723l4-2.286v4.433c0,.179-.097.345-.252.434l-3.748,2.142Z"/>
</svg>
