<?xml version="1.0" encoding="UTF-8"?>
<svg xmlns="http://www.w3.org/2000/svg" id="Layer_1" data-name="Layer 1" viewBox="0 0 24 24">
  <path d="m20.742,16.078c-.793.604-1.741.922-2.742.922s-1.949-.318-2.741-.922c-.138-.104-.383-.104-.517,0-1.586,1.207-3.899,1.207-5.483,0-.139-.104-.383-.104-.517,0-1.586,1.207-3.899,1.207-5.483,0-.138-.104-.383-.104-.517,0-.159.121-.324.229-.497.329-.716.409-1.634.161-2.047-.559-.41-.719-.161-1.636.559-2.047.06-.033.115-.071.169-.111,1.202-.917,2.948-.914,4.15,0,.529.404,1.317.404,1.849,0,1.201-.916,2.948-.916,4.151,0,.529.404,1.317.404,1.849,0,1.201-.916,2.948-.916,4.151,0,.529.404,1.317.404,1.849,0,1.201-.916,2.948-.916,4.151,0,.052.04.108.077.168.11.72.411.97,1.328.559,2.047-.412.72-1.329.968-2.047.559-.173-.1-.339-.209-.496-.328-.137-.104-.383-.105-.518,0Zm-19.242,1.922c-.828,0-1.5.672-1.5,1.5s.672,1.5,1.5,1.5,1.5-.672,1.5-1.5-.672-1.5-1.5-1.5Zm5,3c-.828,0-1.5.672-1.5,1.5s.672,1.5,1.5,1.5,1.5-.672,1.5-1.5-.672-1.5-1.5-1.5Zm11,0c-.828,0-1.5.672-1.5,1.5s.672,1.5,1.5,1.5,1.5-.672,1.5-1.5-.672-1.5-1.5-1.5Zm-5.5-3c-.828,0-1.5.672-1.5,1.5s.672,1.5,1.5,1.5,1.5-.672,1.5-1.5-.672-1.5-1.5-1.5Zm10.5,0c-.828,0-1.5.672-1.5,1.5s.672,1.5,1.5,1.5,1.5-.672,1.5-1.5-.672-1.5-1.5-1.5Zm-14.035-8.471c-.944-.944-1.465-2.2-1.465-3.535s.521-2.592,1.465-3.536l1.782-1.743c.967-.945,2.539-.945,3.506,0l1.771,1.732c.956.955,1.477,2.211,1.477,3.547s-.521,2.591-1.465,3.535-2.2,1.465-3.535,1.465-2.591-.521-3.535-1.465Zm1.535-3.535c0,.534.208,1.036.586,1.414.756.756,2.072.756,2.828,0,.378-.378.586-.88.586-1.414s-.208-1.036-.586-1.413l-1.414-1.385-1.426,1.396c-.366.366-.574.868-.574,1.402ZM1.5,12h3c.828,0,1.5-.672,1.5-1.5s-.672-1.5-1.5-1.5H1.5c-.828,0-1.5.672-1.5,1.5s.672,1.5,1.5,1.5Zm18,0h3c.828,0,1.5-.672,1.5-1.5s-.672-1.5-1.5-1.5h-3c-.828,0-1.5.672-1.5,1.5s.672,1.5,1.5,1.5Z"/>
</svg>
