<?xml version="1.0" encoding="UTF-8"?>
<svg xmlns="http://www.w3.org/2000/svg" id="Layer_1" data-name="Layer 1" viewBox="0 0 24 24">
  <path d="M16,2.5c0-1.381,1.119-2.5,2.5-2.5s2.5,1.119,2.5,2.5-1.119,2.5-2.5,2.5-2.5-1.119-2.5-2.5ZM5.5,5c1.381,0,2.5-1.119,2.5-2.5S6.881,0,5.5,0,3,1.119,3,2.5s1.119,2.5,2.5,2.5Zm2.119,9.5c-.289,.322-.687,.5-1.119,.5h-2c-.827,0-1.5-.673-1.5-1.5v-3c0-.827,.673-1.5,1.5-1.5s1.5-.672,1.5-1.5-.672-1.5-1.5-1.5C2.019,6,0,8.019,0,10.5v3c0,1.557,.795,2.93,2,3.738v5.262c0,.828,.672,1.5,1.5,1.5s1.5-.672,1.5-1.5v-4.5h1v4.5c0,.828,.672,1.5,1.5,1.5s1.5-.672,1.5-1.5v-5.277c.309-.207,.602-.441,.854-.723,.552-.617,.5-1.565-.118-2.118s-1.565-.498-2.117,.118ZM19.5,6c-.828,0-1.5,.672-1.5,1.5s.672,1.5,1.5,1.5,1.5,.673,1.5,1.5v3c0,.827-.673,1.5-1.5,1.5h-2c-.433,0-.83-.178-1.119-.5-.552-.617-1.5-.671-2.117-.118-.618,.553-.67,1.501-.118,2.118,.253,.282,.545,.516,.854,.723v5.277c0,.828,.672,1.5,1.5,1.5s1.5-.672,1.5-1.5v-4.5h1v4.5c0,.828,.672,1.5,1.5,1.5s1.5-.672,1.5-1.5v-5.262c1.205-.808,2-2.182,2-3.738v-3c0-2.481-2.019-4.5-4.5-4.5Zm-3.5,2.123c0-1.215-.895-2.2-2-2.2s-2,.985-2,2.2c0-1.215-.895-2.2-2-2.2s-2,.985-2,2.2c0,1.73,2.256,3.757,3.38,4.659,.362,.29,.879,.29,1.24,0,1.123-.902,3.38-2.929,3.38-4.659Z"/>
</svg>
