<?xml version="1.0" encoding="UTF-8"?>
<svg xmlns="http://www.w3.org/2000/svg" id="Layer_1" data-name="Layer 1" viewBox="0 0 24 24">
  <path d="M18.438,8.054c-.306-.77,.07-1.642,.84-1.948,.771-.306,1.643,.07,1.948,.84,.223,.562,.401,1.146,.528,1.738,.174,.81-.34,1.608-1.15,1.782-.106,.023-.213,.034-.317,.034-.691,0-1.313-.481-1.465-1.185-.093-.429-.222-.854-.384-1.262ZM3,12.5v-1.5C3,6.589,6.589,3,11,3c1.321,0,2.631,.33,3.787,.955,.729,.393,1.639,.122,2.033-.606,.394-.729,.122-1.639-.606-2.033-1.593-.86-3.396-1.315-5.213-1.315C4.935,0,0,4.935,0,11v1.5c0,.828,.671,1.5,1.5,1.5s1.5-.672,1.5-1.5ZM11,5c-.686,0-1.359,.115-2.001,.342-.781,.276-1.19,1.133-.914,1.915,.276,.781,1.133,1.191,1.915,.914,.319-.113,.656-.17,1-.17,1.27,0,2.407,.804,2.83,2,.218,.616,.796,1,1.414,1,.166,0,.335-.028,.5-.086,.781-.276,1.19-1.133,.914-1.914-.846-2.393-3.12-4-5.658-4Zm1.501,7.506l-.002-1.001c.003-.828-.671-1.502-1.5-1.505-.826,0-1.497,.668-1.5,1.495l.002,.999c-.003,.828,.666,1.503,1.494,1.506,.826,0,1.502-.668,1.506-1.494Zm11.499,5.494c0,3.314-2.686,6-6,6s-6-2.686-6-6,2.686-6,6-6,6,2.686,6,6Zm-2.288-1.702c-.383-.399-1.017-.41-1.414-.029l-2.713,2.624c-.143,.141-.379,.144-.522,.002l-1.354-1.331c-.396-.388-1.028-.381-1.414,.014-.387,.395-.381,1.027,.014,1.414l1.354,1.332c.46,.449,1.062,.674,1.663,.674s1.201-.225,1.653-.671l2.703-2.614c.398-.383,.411-1.016,.029-1.414ZM6.499,10c-.826,0-1.497,.667-1.5,1.494-.009,2.385-.172,3.771-1.004,4.271-.178,.106-.416,.182-.686,.217-.822,.105-1.402,.856-1.297,1.679,.097,.757,.743,1.309,1.486,1.309,.707,0,1.5-.309,2.039-.631,2.441-1.465,2.453-4.567,2.462-6.832,.003-.829-.666-1.502-1.494-1.506h-.006Zm.92,8.959c-1.212,1.259-2.906,2.041-4.419,2.041-.829,0-1.5,.672-1.5,1.5s.671,1.5,1.5,1.5c2.335,0,4.795-1.106,6.581-2.959,.575-.597,.557-1.547-.04-2.121-.596-.575-1.546-.558-2.121,.039Z"/>
</svg>
