<?xml version="1.0" encoding="UTF-8"?>
<svg xmlns="http://www.w3.org/2000/svg" id="Layer_1" data-name="Layer 1" viewBox="0 0 24 24">
  <path d="m2.939,5.061c-.586-.586-.586-1.535,0-2.121s1.535-.586,2.121,0l1.5,1.5c.586.586.586,1.535,0,2.121-.293.293-.677.439-1.061.439s-.768-.146-1.061-.439l-1.5-1.5Zm6.561-.061c.829,0,1.5-.672,1.5-1.5V1.5c0-.828-.671-1.5-1.5-1.5s-1.5.672-1.5,1.5v2c0,.828.671,1.5,1.5,1.5ZM1.5,11h2c.829,0,1.5-.672,1.5-1.5s-.671-1.5-1.5-1.5H1.5c-.829,0-1.5.672-1.5,1.5s.671,1.5,1.5,1.5Zm18.061,6.439c-.586-.586-1.535-.586-2.121,0s-.586,1.535,0,2.121l1.5,1.5c.293.293.677.439,1.061.439s.768-.146,1.061-.439c.586-.586.586-1.535,0-2.121l-1.5-1.5Zm-5.061,1.561c-.829,0-1.5.672-1.5,1.5v2c0,.828.671,1.5,1.5,1.5s1.5-.672,1.5-1.5v-2c0-.828-.671-1.5-1.5-1.5Zm8-6h-2c-.829,0-1.5.672-1.5,1.5s.671,1.5,1.5,1.5h2c.829,0,1.5-.672,1.5-1.5s-.671-1.5-1.5-1.5Zm-10.939,1.561l-.159.159c.361.699.574,1.47.574,2.28,0,1.336-.52,2.592-1.464,3.535l-1.968,1.993c-.951.951-2.207,1.472-3.542,1.472s-2.591-.521-3.536-1.465c-.944-.943-1.464-2.199-1.464-3.535s.521-2.592,1.465-3.536l1.967-1.992c.951-.951,2.207-1.472,3.542-1.472.823,0,1.604.219,2.312.591l.152-.152c.586-.586,1.535-.586,2.121,0s.586,1.535,0,2.121Zm-2.602,2.602l-.398.398c-.293.293-.677.439-1.061.439s-.768-.146-1.061-.439c-.586-.586-.586-1.535,0-2.121l.429-.429c-.494.026-.956.223-1.307.576l-1.968,1.993c-.385.385-.593.887-.593,1.421s.208,1.036.585,1.413c.757.758,2.073.757,2.828,0l1.969-1.993c.345-.345.538-.786.576-1.258Zm4.541-5.162c-.384,0-.768-.146-1.061-.439-.586-.586-.586-1.535,0-2.121l.143-.143c-.367-.704-.582-1.48-.582-2.296,0-1.336.52-2.592,1.464-3.535l2-2c1.949-1.949,5.122-1.949,7.071,0,.944.943,1.464,2.199,1.464,3.535s-.52,2.592-1.464,3.535l-2,2c-.975.975-2.255,1.462-3.536,1.462-.792,0-1.575-.209-2.294-.582l-.145.145c-.293.293-.677.439-1.061.439Zm1.513-5.134l.426-.426c.586-.586,1.535-.586,2.121,0s.586,1.535,0,2.121l-.425.425c.466-.031.924-.216,1.279-.572l2-2c.377-.378.585-.88.585-1.414s-.208-1.036-.585-1.414c-.39-.39-.902-.585-1.415-.585s-1.024.195-1.415.585l-2,2c-.345.346-.54.797-.572,1.28Z"/>
</svg>
