<?xml version="1.0" encoding="UTF-8"?>
<svg xmlns="http://www.w3.org/2000/svg" id="Layer_1" data-name="Layer 1" viewBox="0 0 24 24">
  <path d="m23.86,15.792c-.261-.487-.77-.792-1.322-.792h-5.144l2.611-12.186c.174-.81-.343-1.607-1.152-1.781-.812-.171-1.606.342-1.781,1.152l-2.746,12.814h-.787V1.5C13.538.671,12.866,0,12.038,0s-1.5.671-1.5,1.5v13.5h-.787L7.005,2.186c-.175-.811-.97-1.324-1.781-1.152-.81.174-1.326.971-1.152,1.781l2.611,12.186H1.538c-.553,0-1.062.305-1.322.792-.262.488-.232,1.08.074,1.54l.219.329c.893,1.337,2.171,2.325,3.633,2.867-.226.255-.44.524-.633.813l-.219.328c-.46.689-.273,1.621.416,2.08.688.459,1.62.274,2.08-.416l.219-.328c.837-1.255,2.237-2.004,3.745-2.004h4.577c1.509,0,2.908.749,3.744,2.004l.219.328c.289.434.765.668,1.249.668.286,0,.575-.082.831-.252.689-.459.876-1.391.416-2.08l-.219-.328c-.192-.289-.406-.557-.632-.813,1.462-.542,2.74-1.529,3.632-2.867l.219-.328c.307-.46.336-1.052.074-1.54Z"/>
</svg>
