<?xml version="1.0" encoding="UTF-8"?>
<svg xmlns="http://www.w3.org/2000/svg" id="Layer_1" data-name="Layer 1" viewBox="0 0 24 24">
  <path d="m24,14.731c0,.69-.56,1.25-1.25,1.25s-1.25-.56-1.25-1.25.56-1.25,1.25-1.25,1.25.56,1.25,1.25Zm-4.5-5.5c0-.69-.56-1.25-1.25-1.25s-1.25.56-1.25,1.25.56,1.25,1.25,1.25,1.25-.56,1.25-1.25Zm-1.156,6.75c.27,0,.522-.136.67-.363l4.178-6.4c.347-.532-.034-1.237-.67-1.237-.27,0-.522.136-.67.363l-4.178,6.4c-.347.532.034,1.237.67,1.237Zm-.052,2.447c-1.694,1.659-3.93,2.572-6.293,2.572-4.963,0-9-4.037-9-9S7.037,3,12,3c2.363,0,4.599.914,6.293,2.572.59.579,1.54.571,2.121-.022.579-.592.569-1.542-.023-2.121C18.133,1.217,15.152,0,12,0,5.383,0,0,5.383,0,12s5.383,12,12,12c3.152,0,6.133-1.218,8.391-3.428.593-.58.603-1.529.023-2.121-.58-.595-1.531-.603-2.121-.023Zm-4.793-4.027h-1.7c-.441,0-.8.358-.8.8s.358.8.8.8h1.7c1.379,0,2.5-1.121,2.5-2.5s-1.121-2.5-2.5-2.5h-.9v-1.2c0-.11.09-.2.2-.2h1.9c.441,0,.8-.358.8-.8s-.358-.8-.8-.8h-1.9c-.992,0-1.8.807-1.8,1.8v1.5c0,.717.583,1.3,1.3,1.3h1.2c.496,0,.9.404.9.9s-.404.9-.9.9Zm-7.789,1.499c.123.068.256.101.388.101.281,0,.554-.147.7-.411l3.045-5.472c.229-.457.206-.988-.062-1.423s-.733-.694-1.244-.694h-2.737c-.441,0-.8.358-.8.8s.358.8.8.8h2.502l-2.901,5.212c-.215.386-.076.873.311,1.088Z"/>
</svg>
