<?xml version="1.0" encoding="UTF-8"?>
<svg xmlns="http://www.w3.org/2000/svg" id="Layer_1" data-name="Layer 1" viewBox="0 0 24 24">
  <path d="m4.001,7.5v-2.5C4.001,2.243,6.244,0,9.001,0h7.5c.828,0,1.5.671,1.5,1.5s-.672,1.5-1.5,1.5h-7.5c-1.103,0-2,.897-2,2v2.5c0,.828-.672,1.5-1.5,1.5s-1.5-.672-1.5-1.5Zm14.5,4.5c-.828,0-1.5.672-1.5,1.5v5.5c0,1.103-.897,2-2,2h-6c-.989,0-1.84-.736-1.98-1.713-.117-.821-.883-1.394-1.697-1.271-.82.117-1.39.877-1.271,1.697.35,2.444,2.478,4.287,4.949,4.287h6c2.757,0,5-2.243,5-5v-5.5c0-.828-.672-1.5-1.5-1.5Zm-7.5,5c-.553,0-1,.447-1,1s.447,1,1,1h2c.553,0,1-.447,1-1s-.447-1-1-1h-2Zm12.092-11.094l-2.658-2.658c-.529-.529-1.434-.154-1.434.594v1.125h-1.5c-.828,0-1.5.672-1.5,1.5s.672,1.5,1.5,1.5h1.5v1.191c0,.749.905,1.123,1.434.594l2.658-2.658c.328-.328.328-.86,0-1.188ZM5.001,16.125v-1.125h1.5c.828,0,1.5-.672,1.5-1.5s-.672-1.5-1.5-1.5h-1.5v-1.191c0-.749-.905-1.123-1.434-.594l-2.658,2.658c-.328.328-.328.86,0,1.188l2.658,2.658c.529.529,1.434.154,1.434-.594Zm10.278-4.19c.164-1.158-.613-2.217-1.725-2.439l-2.792-.559c-.304-.061-.514-.36-.449-.678.055-.272.309-.458.587-.458h2.102c.203,0,.387.087.515.226.154.167.324.274.664.274.715,0,1.01-.763.592-1.266-.422-.509-1.059-.833-1.77-.833h-.2v-.4c0-.442-.358-.8-.8-.8s-.8.358-.8.8v.4h-.28c-1.091,0-2.046.786-2.199,1.866-.163,1.158.613,2.216,1.725,2.439l2.791.559c.304.062.514.359.451.677-.054.273-.308.46-.586.46h-2.103c-.203,0-.387-.087-.515-.226-.154-.167-.34-.274-.664-.274-.822,0-1.01.763-.592,1.266.422.509,1.059.833,1.77.833h.2v.4c0,.442.358.8.8.8s.8-.358.8-.8v-.4h.28c1.091,0,2.046-.785,2.199-1.865Z"/>
</svg>
