<?xml version="1.0" encoding="UTF-8"?>
<svg xmlns="http://www.w3.org/2000/svg" id="Layer_1" data-name="Layer 1" viewBox="0 0 24 24">
  <path d="m19,15.5c0,.828-.672,1.5-1.5,1.5s-1.5-.672-1.5-1.5.672-1.5,1.5-1.5,1.5.672,1.5,1.5Zm3.5-8.5c-.828,0-1.5.671-1.5,1.5v12c0,.276-.224.5-.5.5H5.5c-1.381,0-2.5-1.119-2.5-2.5v-9.105c.758.386,1.607.605,2.5.605h7c.828,0,1.5-.671,1.5-1.5s-.672-1.5-1.5-1.5h-7c-.801,0-1.527-.378-1.992-.995.457-.607,1.176-1.005,1.992-1.005h5c.828,0,1.5-.671,1.5-1.5s-.672-1.5-1.5-1.5h-5C2.462,2,0,4.462,0,7.5v11c0,3.038,2.462,5.5,5.5,5.5h15c1.933,0,3.5-1.567,3.5-3.5v-12c0-.829-.672-1.5-1.5-1.5Zm-8.063-2.001h1.563v2.501c0,.829.672,1.5,1.5,1.5s1.5-.671,1.5-1.5v-2.501h1.563c.863,0,1.295-1.043.685-1.653l-3.063-3.063c-.378-.378-.991-.378-1.369,0l-3.063,3.063c-.61.61-.178,1.653.685,1.653Z"/>
</svg>
