<?xml version="1.0" encoding="UTF-8"?>
<svg xmlns="http://www.w3.org/2000/svg" id="Layer_1" data-name="Layer 1" viewBox="0 0 24 24">
  <path d="m10,2c0-1.105.895-2,2-2s2,.895,2,2c0,.738-.405,1.376-1,1.723v3.277c0,.553-.447,1-1,1s-1-.447-1-1v-3.277c-.595-.346-1-.984-1-1.723Zm10.5,13c-.338,0-.651.092-.93.24l-2.539-1.587c-.469-.295-1.086-.151-1.378.317-.293.469-.15,1.086.317,1.378l2.537,1.586c0,.023-.007.044-.007.067,0,1.105.895,2,2,2s2-.895,2-2-.895-2-2-2Zm-.282-10.147l-2.988-1.663c-.726-.404-1.637-.144-2.04.581-.403.724-.143,1.638.581,2.04l2.045,1.138-5.816,3.324-5.816-3.324,2.045-1.138c.724-.402.984-1.316.581-2.04-.403-.725-1.315-.985-2.04-.581l-3.003,1.671c-1.398.8-2.268,2.297-2.268,3.907v2.732c0,.828.672,1.5,1.5,1.5s1.5-.672,1.5-1.5v-2.058l6,3.429v6.999l-1.756-1.003c-.719-.407-1.635-.161-2.047.559-.411.72-.16,1.636.559,2.047l2.511,1.434c.666.381,1.233.594,2.233.594s1.567-.213,2.232-.593l2.512-1.435c.719-.411.97-1.327.559-2.047s-1.326-.966-2.047-.559l-1.756,1.003v-7l6-3.429v2.058c0,.828.672,1.5,1.5,1.5s1.5-.672,1.5-1.5v-2.732c0-1.61-.869-3.107-2.282-3.915Zm-12.188,10.495c.468-.292.61-.909.317-1.378s-.909-.612-1.378-.317l-2.539,1.587c-.279-.148-.592-.24-.93-.24-1.105,0-2,.895-2,2s.895,2,2,2,2-.895,2-2c0-.023-.006-.044-.007-.067l2.537-1.586Z"/>
</svg>
