<?xml version="1.0" encoding="UTF-8"?>
<svg xmlns="http://www.w3.org/2000/svg" id="Layer_1" data-name="Layer 1" viewBox="0 0 24 24">
  <path d="M24.011,9.5c0,3.398-1.764,6.619-4.603,8.405-.603,.379-1.084,1.062-1.433,2.027-.445,1.239-1.272,2.291-2.392,3.04-1.034,.692-2.23,1.037-3.425,1.037-1.287,0-2.573-.4-3.654-1.195-.667-.491-.811-1.429-.32-2.097,.49-.668,1.43-.812,2.097-.32,1.055,.774,2.548,.808,3.634,.082,.582-.39,1.01-.93,1.237-1.562,.58-1.612,1.475-2.806,2.657-3.551,1.944-1.223,3.2-3.525,3.2-5.866,0-2.045-.934-3.93-2.562-5.172-1.632-1.246-3.747-1.636-5.801-1.071-.801,.22-1.542,.603-2.2,1.14-.643,.523-1.588,.427-2.11-.215-.523-.642-.427-1.587,.215-2.11,.984-.802,2.095-1.377,3.302-1.708,2.964-.813,6.032-.237,8.413,1.58,2.379,1.814,3.743,4.569,3.743,7.558Zm-9.5-1.5c.827,0,1.5,.673,1.5,1.5s.672,1.5,1.5,1.5,1.5-.671,1.5-1.5c0-2.481-2.019-4.5-4.5-4.5s-4.5,2.019-4.5,4.5v1.501c0,.544,.203,1.046,.57,1.413,.544,.543,1.229,.586,1.427,.586h.002c0,.03-.021,.076-.04,.101-.755,.291-1.146,1.132-.874,1.899,.218,.616,.796,1,1.414,1,.166,0,.335-.028,.5-.086,1.177-.417,1.999-1.615,1.999-2.914s-.835-2.415-1.999-2.828v-.672c0-.827,.672-1.5,1.499-1.5ZM5.868,4.939c-.586-.586-1.535-.586-2.121,0-.586,.585-.586,1.536,0,2.121,2.999,3,2.999,7.879,0,10.879-.586,.585-.586,1.536,0,2.121,.293,.293,.677,.439,1.061,.439s.768-.146,1.061-.439c4.169-4.169,4.169-10.952,0-15.121Zm-3.308,4.085c-.586-.585-1.536-.585-2.122,0-.585,.586-.585,1.536,0,2.122,.362,.361,.561,.842,.561,1.353s-.199,.992-.561,1.353c-.586,.586-.586,1.536,0,2.122,.293,.293,.677,.439,1.061,.439s.768-.146,1.061-.439c.928-.928,1.439-2.162,1.439-3.475s-.511-2.547-1.439-3.475Z"/>
</svg>
