<?xml version="1.0" encoding="UTF-8"?>
<svg xmlns="http://www.w3.org/2000/svg" id="Layer_1" data-name="Layer 1" viewBox="0 0 24 24">
  <path d="m23.287,13.69c-.521-.51-1.235-.759-1.956-.674-.918.104-1.78.32-2.576.632-.351-1.647-1.099-3.147-2.352-4.728-.926-1.169-2.881-1.169-3.807,0-1.244,1.571-1.987,3.069-2.332,4.718-.796-.314-1.658-.53-2.577-.634-.718-.084-1.435.164-1.957.675-.525.515-.789,1.229-.721,1.959.473,5.158,4.109,8.363,9.49,8.363s9.037-3.2,9.51-8.352c.066-.73-.197-1.444-.723-1.958Zm-8.787-2.31c.939,1.327,1.384,2.527,1.48,3.986-.567.516-1.059,1.106-1.475,1.757-.412-.648-.898-1.237-1.458-1.751.085-1.468.523-2.671,1.454-3.992Zm-6.402,4.727c2.475.538,4.2,2.288,4.73,4.735-1.845-.359-4.143-1.473-4.73-4.735Zm8.075,4.736c.533-2.441,2.265-4.187,4.749-4.725-.589,3.257-2.897,4.368-4.749,4.725Zm-10.693,1.905c-.123.733-.758,1.251-1.478,1.251-.083,0-.166-.006-.25-.021-2.174-.365-3.751-2.231-3.751-4.438v-8.042c0-2.481,2.019-4.5,4.5-4.5h3c.515,0,1.021.086,1.501.257.781.277,1.189,1.134.912,1.915-.276.78-1.134,1.189-1.915.912-.158-.056-.326-.084-.499-.084h-3c-.827,0-1.5.673-1.5,1.5v8.042c0,.736.525,1.358,1.249,1.479.817.137,1.368.911,1.231,1.728ZM3.588,3.588c0-.659.59-1.845,1.186-2.877.548-.948,1.905-.948,2.453,0,.596,1.032,1.186,2.218,1.186,2.877,0,1.332-1.08,2.412-2.412,2.412s-2.412-1.08-2.412-2.412Z"/>
</svg>
