<?xml version="1.0" encoding="UTF-8"?>
<svg xmlns="http://www.w3.org/2000/svg" id="Layer_1" data-name="Layer 1" viewBox="0 0 24 24">
  <path d="M23,17.187v4.02c0,.705-.852,1.058-1.35,.559l-1.239-1.239c-2.227,2.193-5.236,3.473-8.41,3.473C6.067,24,.96,19.577,.122,13.712c-.117-.82,.453-1.58,1.272-1.697,.819-.117,1.58,.452,1.697,1.273,.628,4.396,4.458,7.712,8.909,7.712,2.374,0,4.624-.954,6.293-2.59l-1.06-1.06c-.498-.498-.145-1.35,.559-1.35h4.02c.656,0,1.187,.531,1.187,1.187Zm.879-6.899C23.04,4.423,17.934,0,12,0,8.825,0,5.816,1.28,3.589,3.472l-1.239-1.239c-.498-.498-1.35-.145-1.35,.559V6.813c0,.656,.531,1.187,1.187,1.187H6.207c.705,0,1.058-.852,.559-1.35l-1.06-1.06c1.669-1.636,3.919-2.59,6.293-2.59,4.45,0,8.28,3.315,8.908,7.712,.107,.748,.749,1.288,1.483,1.288,.07,0,.143-.005,.214-.015,.82-.117,1.391-.877,1.273-1.697Zm-13.879,6.712c-1.105,0-2-.895-2-2v-6c0-1.105,.895-2,2-2h4c1.105,0,2,.895,2,2v6c0,1.105-.895,2-2,2h-4Zm0-7c0,.552,.448,1,1,1h2c.552,0,1-.448,1-1s-.448-1-1-1h-2c-.552,0-1,.448-1,1Zm0,4c0,.552,.448,1,1,1h1c.552,0,1-.448,1-1s-.448-1-1-1h-1c-.552,0-1,.448-1,1Z"/>
</svg>
