<?xml version="1.0" encoding="UTF-8"?>
<svg xmlns="http://www.w3.org/2000/svg" id="Layer_1" data-name="Layer 1" viewBox="0 0 24 24">
  <path d="m23.561,21.439l-5.514-5.514c1.225-1.66,1.959-3.703,1.959-5.92C20.006,4.492,15.52.006,10.006.006S.006,4.492.006,10.006s4.486,10,10,10c2.217,0,4.26-.734,5.92-1.959l5.514,5.514c.293.293.677.439,1.061.439s.768-.146,1.061-.439c.586-.585.586-1.536,0-2.121Zm-13.555-4.434c-3.859,0-7-3.14-7-7s3.141-7,7-7,7,3.14,7,7-3.141,7-7,7Zm3.555-8.445l-1.439,1.439,1.439,1.439c.586.585.586,1.536,0,2.121-.293.293-.677.439-1.061.439s-.768-.146-1.061-.439l-1.439-1.439-1.439,1.439c-.293.293-.677.439-1.061.439s-.768-.146-1.061-.439c-.586-.585-.586-1.536,0-2.121l1.439-1.439-1.439-1.439c-.586-.585-.586-1.536,0-2.121.586-.586,1.535-.586,2.121,0l1.439,1.439,1.439-1.439c.586-.586,1.535-.586,2.121,0,.586.585.586,1.536,0,2.121Z"/>
</svg>
