<?xml version="1.0" encoding="UTF-8"?>
<svg xmlns="http://www.w3.org/2000/svg" id="Layer_1" data-name="Layer 1" viewBox="0 0 24 24">
  <path d="M18.5,11c1.378,0,2.5-1.121,2.5-2.5v-.5h1c.552,0,1-.448,1-1v-3c0-.552-.448-1-1-1h-.073l.415-.829c.232-.465,.208-1.018-.066-1.46-.273-.441-.756-.711-1.276-.711H6.5C4.019,0,2,2.019,2,4.5v2c0,2.481,2.019,4.5,4.5,4.5h2.836l-1.267,3.378c-.364,.97-1.305,1.622-2.341,1.622H3v-1.5c0-.828-.671-1.5-1.5-1.5s-1.5,.672-1.5,1.5v6c0,.828,.671,1.5,1.5,1.5s1.5-.672,1.5-1.5v-1.5h2.728c2.28,0,4.349-1.435,5.149-3.569l1.662-4.431h5.961ZM5,6.5v-2c0-.827,.673-1.5,1.5-1.5h12.073l-.415,.829c-.104,.208-.158,.438-.158,.671v3.5H6.5c-.827,0-1.5-.673-1.5-1.5Zm18.713,12.046c-.954-1.449-2.903-3.546-6.2-3.546s-5.246,2.096-6.2,3.546c-.383,.582-.383,1.327,0,1.909,.954,1.448,2.904,3.546,6.2,3.546s5.247-2.097,6.2-3.546c.383-.582,.383-1.326,0-1.909Zm-6.2,2.954c-1.105,0-2-.895-2-2s.895-2,2-2,2,.895,2,2-.895,2-2,2Z"/>
</svg>
