<?xml version="1.0" encoding="UTF-8"?>
<svg xmlns="http://www.w3.org/2000/svg" id="Layer_1" data-name="Layer 1" viewBox="0 0 24 24">
  <path d="M8.326,16.689c.692,.456,1.674-.039,1.672-.915l.002-6.771c0-1.657-1.342-3-2.999-3.001H3.001s0-.001,0-.001c-1.657,0-3,1.343-3,3v2.999c0,1.657,1.343,3,3,3h2.872l2.454,1.69ZM2.997,9.001h.004s3.999,0,3.999,0v3.218c-.357-.144-.739-.22-1.128-.22H3l-.003-2.999ZM21,0h-4c-1.657,.002-3,1.345-2.999,3.002l.002,6.771c-.002,.876,.98,1.371,1.672,.915l2.454-1.69h2.872c1.657,0,3-1.343,3-3V3.001C24,1.344,22.657,0,21,0Zm0,5.999h-2.872c-.388,0-.771,.075-1.127,.22V3.002s3.999-.001,3.999-.001v2.999Zm-2.5,5c-.829,0-1.5,.672-1.5,1.5v5.5H6.908c-.207-.581-.756-1-1.408-1-.829,0-1.5,.672-1.5,1.5v.5c0,2.761,2.239,5,5,5h6c2.761,0,5-2.239,5-5v-6.5c0-.828-.671-1.5-1.5-1.5Zm-5.501,11.008h-2c-.552,0-1-.448-1-1s.448-1,1-1h2c.552,0,1,.448,1,1s-.448,1-1,1ZM5.375,3.492c-.548-.621-.489-1.569,.133-2.117,1.005-.887,2.297-1.375,3.638-1.375h1.354c.829,0,1.5,.672,1.5,1.5s-.671,1.5-1.5,1.5h-1.354c-.609,0-1.196,.222-1.653,.625-.619,.546-1.567,.49-2.117-.133Z"/>
</svg>
