<?xml version="1.0" encoding="UTF-8"?>
<svg xmlns="http://www.w3.org/2000/svg" id="Layer_1" data-name="Layer 1" viewBox="0 0 24 24">
  <path d="M15,16.5c0,.828-.671,1.5-1.5,1.5H7.251c-1.747,0-3.239-1.306-3.469-3.037L2.245,3.434c-.033-.248-.246-.434-.496-.434h-.249c-.829,0-1.5-.671-1.5-1.5S.671,0,1.5,0h.249c1.747,0,3.239,1.306,3.469,3.038l.262,1.962h2.02c.829,0,1.5,.671,1.5,1.5s-.671,1.5-1.5,1.5h-1.62l.875,6.566c.033,.247,.246,.434,.496,.434h6.249c.829,0,1.5,.672,1.5,1.5Zm-8,3.5c-1.105,0-2,.895-2,2s.895,2,2,2,2-.895,2-2-.895-2-2-2Zm10,0c-1.105,0-2,.895-2,2s.895,2,2,2,2-.895,2-2-.895-2-2-2Zm7-14.515v4.041c0,1.072-.572,2.062-1.5,2.598l-3.5,2.021c-.928,.536-2.072,.536-3,0l-3.5-2.021c-.928-.536-1.5-1.526-1.5-2.598V5.485c0-1.072,.572-2.062,1.5-2.598l3.5-2.021c.928-.536,2.072-.536,3,0l3.5,2.021c.928,.536,1.5,1.526,1.5,2.598Zm-8.5,.015c0-.276-.224-.5-.5-.5s-.5,.224-.5,.5v2.275l-1.376-2.481c-.101-.182-.293-.295-.501-.295h-.051c-.316,0-.573,.256-.573,.573v3.927c0,.276,.224,.5,.5,.5s.5-.224,.5-.5v-2.368l1.427,2.573c.101,.182,.293,.295,.501,.295,.316,0,.573-.256,.573-.573v-3.927Zm2,1.507v-1.007h1c.276,0,.5-.224,.5-.5s-.224-.5-.5-.5h-1.5c-.276,0-.5,.224-.5,.5v4c0,.276,.224,.5,.5,.5s.5-.224,.5-.5v-1.493l.999,.003c.276,0,.501-.222,.501-.499,0-.276-.222-.501-.499-.501l-1.001-.003Zm5.5-1.496c0-.276-.224-.5-.5-.5h-2c-.276,0-.5,.224-.5,.5s.224,.5,.5,.5h.5v3.489c0,.276,.224,.5,.5,.5s.5-.224,.5-.5v-3.489h.5c.276,0,.5-.224,.5-.5Z"/>
</svg>
