<?xml version="1.0" encoding="UTF-8"?>
<svg xmlns="http://www.w3.org/2000/svg" id="Layer_1" data-name="Layer 1" viewBox="0 0 24 24">
  <path d="m11,10v7.5c0,2.379-1.044,5.312-3.976,6.405-.173.064-.35.095-.524.095-.608,0-1.18-.372-1.405-.976-.29-.776.104-1.64.881-1.93,1.927-.719,2.024-3.121,2.024-3.595v-.26c-.715.479-1.576.76-2.5.76s-1.784-.282-2.5-.762v2.262c0,.828-.671,1.5-1.5,1.5s-1.5-.672-1.5-1.5v-6.739c0-1.134.344-2.225.994-3.153L7.271.64c.476-.679,1.409-.844,2.089-.368.679.475.844,1.41.369,2.089l-5.729,8.184v2.956c0,.827.673,1.5,1.5,1.5s1.5-.673,1.5-1.5v-3.5c0-.983.748-2,2-2s2,1.017,2,2Z"/>
  <path d="m24,12.761v6.739c0,.828-.671,1.5-1.5,1.5s-1.5-.672-1.5-1.5v-2.262c-.716.48-1.575.762-2.5.762s-1.785-.28-2.5-.76v.26c0,.474.098,2.876,2.024,3.595.776.29,1.17,1.153.881,1.93-.225.604-.797.976-1.405.976-.174,0-.352-.03-.524-.095-2.931-1.094-3.976-4.026-3.976-6.405v-7.5c0-.983.748-2,2-2s2,1.017,2,2v3.5c0,.827.673,1.5,1.5,1.5s1.5-.673,1.5-1.5v-2.956L14.271,2.36c-.475-.679-.31-1.614.369-2.089.678-.476,1.614-.311,2.089.368l6.277,8.967c.65.93.994,2.021.994,3.154Z"/>
</svg>
