<?xml version="1.0" encoding="UTF-8"?>
<svg xmlns="http://www.w3.org/2000/svg" id="Layer_1" data-name="Layer 1" viewBox="0 0 24 24">
  <path d="m24,12c0,.553-.447,1-1,1h-1v1c0,.553-.447,1-1,1s-1-.447-1-1v-1h-1c-.553,0-1-.447-1-1s.447-1,1-1h1v-1c0-.553.447-1,1-1s1,.447,1,1v1h1c.553,0,1,.447,1,1Zm-11.984-1.408c.452-.214.952-.342,1.484-.342,1.93,0,3.5,1.57,3.5,3.5s-1.57,3.5-3.5,3.5c-2,0-3.5-1.5-3.5-3.25v-3.25c0-2.206,1.794-4,4-4h1c.553,0,1,.447,1,1s-.447,1-1,1h-1c-1.049,0-1.902.815-1.984,1.842Zm-.016,3.158c0,.827.673,1.5,1.5,1.5s1.5-.673,1.5-1.5-.673-1.5-1.5-1.5-1.5.673-1.5,1.5Zm9.177,3.572c-.65-.513-1.594-.402-2.107.248-1.72,2.18-4.297,3.43-7.069,3.43-4.963,0-9-4.037-9-9S7.037,3,12,3c2.772,0,5.35,1.25,7.069,3.43.514.65,1.457.761,2.107.248.649-.514.761-1.457.248-2.107C19.132,1.666,15.697,0,12,0,5.383,0,0,5.383,0,12s5.383,12,12,12c3.697,0,7.132-1.666,9.425-4.57.513-.65.401-1.594-.248-2.107Zm-13.177-.322c.553,0,1-.447,1-1v-7.693c0-.542-.326-1.019-.83-1.216-.504-.198-1.067-.068-1.439.334l-1.732,1.901c-.372.408-.343,1.041.065,1.413.41.373,1.042.342,1.413-.065l.523-.575v5.901c0,.553.447,1,1,1Z"/>
</svg>
