<?xml version="1.0" encoding="UTF-8"?>
<svg xmlns="http://www.w3.org/2000/svg" id="Layer_1" data-name="Layer 1" viewBox="0 0 24 24">
  <path d="M18.5,1H5.5C2.467,1,0,3.467,0,6.5v6c0,3.033,2.467,5.5,5.5,5.5h5v2h-3c-.829,0-1.5,.671-1.5,1.5s.671,1.5,1.5,1.5h9c.829,0,1.5-.671,1.5-1.5s-.671-1.5-1.5-1.5h-3v-2h5c3.033,0,5.5-2.467,5.5-5.5V6.5c0-3.033-2.467-5.5-5.5-5.5Zm2.5,11.5c0,1.378-1.122,2.5-2.5,2.5H5.5c-1.378,0-2.5-1.122-2.5-2.5V6.5c0-1.378,1.122-2.5,2.5-2.5h13c1.378,0,2.5,1.122,2.5,2.5v6Zm-2-5.417v3.512c0,.824-.997,1.237-1.579,.654l-.775-.775-1.398,1.398c-.548,.548-1.269,.823-1.989,.823s-1.44-.274-1.989-.823l-1.755-1.755-1.957,1.945c-.589,.583-1.538,.581-2.122-.006-.584-.588-.581-1.538,.006-2.122l2.09-2.077c1.097-1.089,2.879-1.087,3.972,.006l1.755,1.755,1.266-1.266-.752-.752c-.583-.583-.17-1.579,.654-1.579h3.512c.586,0,1.061,.475,1.061,1.061Z"/>
</svg>
