<?xml version="1.0" encoding="UTF-8"?>
<svg xmlns="http://www.w3.org/2000/svg" id="Layer_1" data-name="Layer 1" viewBox="0 0 24 24">
  <path d="M10.991,22.609c-.084,.768-.734,1.335-1.489,1.335C4.18,23.357,0,18.861,0,13.5v-.5c0-.829,.671-1.5,1.5-1.5s1.5,.671,1.5,1.5v.5c0,3.83,2.865,7.034,6.665,7.454,.824,.091,1.417,.832,1.326,1.655Zm13.009-4.609c0,3.314-2.686,6-6,6s-6-2.686-6-6,2.686-6,6-6,6,2.686,6,6Zm-5.233,2.888l-3.655-3.656c-.066,.246-.112,.5-.112,.767,0,1.654,1.346,3,3,3,.267,0,.521-.046,.767-.112Zm2.233-2.888c0-1.654-1.346-3-3-3-.267,0-.521,.046-.767,.112l3.655,3.656c.066-.246,.112-.5,.112-.767Zm-11.498,5.945c-.055,0,.056,.006,0,0h0Zm-.002-15.945h-1.5v-1c0-2.206,1.794-4,4-4s4,1.794,4,4v1h-1.5c-.828,0-1.5,.671-1.5,1.5s.672,1.5,1.5,1.5h3c.828,0,1.5-.671,1.5-1.5v-2.5c0-3.86-3.141-7-7-7S5,3.14,5,7v5c0,2.275,1.111,4.416,2.974,5.727,.262,.185,.563,.273,.862,.273,.472,0,.936-.222,1.228-.637,.477-.677,.314-1.613-.363-2.09-1.064-.75-1.7-1.973-1.7-3.273v-1h1.5c.829,0,1.5-.671,1.5-1.5s-.671-1.5-1.5-1.5Z"/>
</svg>
