<?xml version="1.0" encoding="UTF-8"?>
<svg xmlns="http://www.w3.org/2000/svg" id="Layer_1" data-name="Layer 1" viewBox="0 0 24 24">
  <path d="m16,2.5c0-1.381,1.119-2.5,2.5-2.5s2.5,1.119,2.5,2.5-1.119,2.5-2.5,2.5-2.5-1.119-2.5-2.5Zm3.5,3.5h-3.298L11.652.54c-.531-.637-1.476-.723-2.112-.192s-.723,1.477-.192,2.112l5,6c.285.343.707.54,1.152.54h4c.827,0,1.5.673,1.5,1.5v3c0,.827-.673,1.5-1.5,1.5h-1.5v-2.5c0-.828-.672-1.5-1.5-1.5s-1.5.672-1.5,1.5v10c0,.828.672,1.5,1.5,1.5s1.5-.672,1.5-1.5v-4.5h1v4.5c0,.828.672,1.5,1.5,1.5s1.5-.672,1.5-1.5v-5.262c1.205-.808,2-2.182,2-3.738v-3c0-2.481-2.019-4.5-4.5-4.5Zm-9.419,3.227c-.302-.302-.793-.302-1.096,0l-2.451,2.451c-.488.488-.142,1.323.548,1.323h.917v9.5c0,.828.672,1.5,1.5,1.5s1.5-.672,1.5-1.5v-9.5h.984c.69,0,1.036-.834.548-1.323l-2.451-2.451Zm-6,5c-.302-.302-.793-.302-1.096,0l-2.451,2.451c-.488.488-.142,1.323.548,1.323h.917v4.5c0,.828.672,1.5,1.5,1.5s1.5-.672,1.5-1.5v-4.5h.984c.69,0,1.036-.834.548-1.323l-2.451-2.451Z"/>
</svg>
