<?xml version="1.0" encoding="UTF-8"?>
<svg xmlns="http://www.w3.org/2000/svg" id="Layer_1" data-name="Layer 1" viewBox="0 0 24 24">
  <path d="m16,2c0-1.105.895-2,2-2s2,.895,2,2c0-1.105.895-2,2-2s2,.895,2,2c0,1.595-1.87,3.718-3.052,4.666-.556.446-1.339.446-1.895,0-1.183-.948-3.052-3.071-3.052-4.666Zm8,10.558v5.302c0,1.679-.913,3.201-2.382,3.972-1.885.989-5.084,2.168-9.618,2.168-5.35,0-8.87-2.654-10.492-4.237C.532,18.811-.006,17.542-.009,16.191-.017,11.412.939,4.966,5.529,1.354c.366-.326,1.698-1.354,3.971-1.354,2.691,0,4.5,2.068,4.5,4,0,.646-.413,1.219-1.025,1.423l-.496.166c-.13.964-.824,1.785-1.776,2.057l-1.274.445c.031.369.093.823.143,1.198.13.964.281,2.094.265,3.28.812-.341,1.71-.568,2.665-.568.57,0,1.101.079,1.586.208.782-1.008,2.79-3.208,5.414-3.208.491,0,.972.027,1.429.081,1.752.208,3.071,1.703,3.071,3.477Zm-3,0c0-.255-.182-.469-.423-.497-.34-.04-.703-.061-1.077-.061-1.001,0-2.059.925-2.716,1.659.568.485.885.899.916.941.497.663.362,1.603-.3,2.1-.66.495-1.594.365-2.094-.291-.037-.047-1.138-1.409-2.807-1.409-1.566,0-3.079,1.218-3.79,1.887-.359.491-.989.721-1.59.564-.66-.173-1.12-.769-1.12-1.451,0-.316.1-.641.281-.902.824-1.632.543-3.721.316-5.41-.173-1.283-.31-2.297-.021-3.162.146-.441.49-.79.93-.942l1.993-.694v-.39c0-.565.316-1.075.807-1.331-.21-.102-.476-.169-.807-.169-1.297,0-2.052.66-2.079.684-3.868,3.008-4.436,9.124-4.43,12.502,0,.538.219,1.046.612,1.43,1.295,1.264,4.109,3.384,8.396,3.384,3.923,0,6.638-.992,8.224-1.824.479-.251.776-.755.776-1.316v-5.302Z"/>
</svg>
