<?xml version="1.0" encoding="UTF-8"?>
<svg xmlns="http://www.w3.org/2000/svg" id="Layer_1" data-name="Layer 1" viewBox="0 0 24 24">
  <path d="m12.614,20.88c.606.564.642,1.513.078,2.12-.295.318-.697.479-1.1.479-.365,0-.731-.133-1.021-.401-.717-.666-1.58-1.554-2.121-2.033h0C4.565,17.645,0,12.699,0,8.171,0,4.15,2.855,1,6.5,1c.669,0,1.331.106,1.967.314.787.258,1.216,1.105.958,1.893-.207.632-.794,1.033-1.425,1.033-.155,0-.312-.024-.468-.075-.334-.109-.682-.165-1.033-.165-1.962,0-3.5,1.833-3.5,4.171,0,2.616,2.687,6.468,7.371,10.566.01.009,1.507,1.458,2.244,2.142Zm1.405-5.254c-.59-.582-1.54-.575-2.121.015s-.575,1.54.015,2.122l2.522,2.485c.292.288.673.432,1.053.432.425,0,.848-.179,1.15-.536.517-.611.399-1.542-.171-2.104l-2.448-2.413Zm3.231-14.626c-1.956,0-3.81.909-5.1,2.497l-4.653,4.641c-.975.975-.975,2.561,0,3.537.487.486,1.127.729,1.767.729s1.281-.244,1.768-.73l1.016-1.016c1.385,1.698,3.248,3.624,5.378,5.822l.472.486c.294.304.686.457,1.077.457.376,0,.752-.14,1.043-.422.596-.576.611-1.526.034-2.121l-.472-.487c-2.188-2.259-4.086-4.221-5.398-5.869l4.288-4.288c1.455.578,2.53,2.146,2.53,3.936,0,.784-.24,1.687-.716,2.683-.356.748-.039,1.643.709,2,.208.099.428.146.645.146.561,0,1.098-.315,1.355-.855.668-1.403,1.007-2.74,1.007-3.974,0-3.954-3.028-7.171-6.75-7.171Z"/>
</svg>
