<?xml version="1.0" encoding="UTF-8"?>
<svg xmlns="http://www.w3.org/2000/svg" id="Layer_1" data-name="Layer 1" viewBox="0 0 24 24">
  <path d="m15.312,11.835c.401.725.14,1.638-.585,2.039-.23.128-.479.188-.726.188-.528,0-1.04-.278-1.313-.772-.441-.796-1.279-1.29-2.188-1.29h-5c-1.378,0-2.5,1.121-2.5,2.5v4.5c0,1.103.897,2,2,2h2.5c.829,0,1.5.672,1.5,1.5s-.671,1.5-1.5,1.5h-2.5c-2.757,0-5-2.243-5-5v-4.5c0-1.704.779-3.229,2-4.239v-1.261c0-1.103.897-2,2-2h1.184c-.112-.314-.184-.647-.184-1,0-1.657,1.343-3,3-3s3,1.343,3,3c0,.353-.072.686-.184,1h1.184c1.103,0,2,.897,2,2v1.268c.522.431.973.956,1.312,1.567Zm-.312-11.835c-1.657,0-3,1.343-3,3s1.343,3,3,3,3-1.343,3-3-1.343-3-3-3Zm1.8,16h0c-.442,0-.8.358-.8.8v6.4c0,.442.358.8.8.8h0c.442,0,.8-.358.8-.8v-6.4c0-.442-.358-.8-.8-.8Zm-2.5,0h-4.5c-.442,0-.8.358-.8.8s.358.8.8.8h1.4v5.593c0,.441.358.8.8.8s.8-.358.8-.8v-5.593h1.5c.442,0,.8-.358.8-.8s-.358-.8-.8-.8Zm9.7,2.5c0,1.381-1.119,2.5-2.5,2.5h-.9v2.2c0,.442-.358.8-.8.8s-.8-.358-.8-.8v-6.4c0-.442.358-.8.8-.8h1.7c1.381,0,2.5,1.119,2.5,2.5Zm-1.6,0c0-.497-.403-.9-.9-.9h-.9v1.801h.9c.497,0,.9-.403.9-.9Z"/>
</svg>
