<?xml version="1.0" encoding="UTF-8"?>
<svg xmlns="http://www.w3.org/2000/svg" id="Layer_1" data-name="Layer 1" viewBox="0 0 24 24">
  <path d="M23.629,14.25c-.413-.718-1.332-.964-2.049-.549l-.676,.39c-.413-.352-.884-.629-1.404-.815v-.776c0-.828-.671-1.5-1.5-1.5s-1.5,.672-1.5,1.5v.776c-.521,.186-.992,.463-1.404,.815l-.676-.39c-.716-.415-1.634-.169-2.049,.549-.414,.718-.168,1.635,.55,2.049l.662,.382c-.049,.266-.083,.539-.083,.819s.033,.553,.083,.819l-.662,.382c-.718,.414-.964,1.331-.55,2.049,.278,.481,.782,.75,1.301,.75,.254,0,.512-.064,.748-.201l.676-.39c.413,.352,.884,.629,1.404,.815v.776c0,.828,.671,1.5,1.5,1.5s1.5-.672,1.5-1.5v-.776c.521-.186,.992-.463,1.404-.815l.676,.39c.236,.137,.494,.201,.748,.201,.519,0,1.023-.269,1.301-.75,.414-.718,.168-1.635-.55-2.049l-.662-.382c.049-.266,.083-.539,.083-.819s-.033-.553-.083-.819l.662-.382c.718-.414,.964-1.331,.55-2.049Zm-5.629,4.75c-.827,0-1.5-.673-1.5-1.5s.673-1.5,1.5-1.5,1.5,.673,1.5,1.5-.673,1.5-1.5,1.5Zm-8.5,2H5.5c-1.378,0-2.5-1.121-2.5-2.5v-6.5h7.272c.749,0,1.464-.287,2.018-.79,1.508-1.372,3.51-2.21,5.71-2.21,2.285,0,4.356,.907,5.883,2.374-.488-2.333-2.464-4.108-4.883-4.33v-2.254c0-.854-.421-1.871-1.025-2.475l-1.29-1.29c-.661-.661-1.54-1.025-2.475-1.025h-5.21c-2.206,0-4,1.794-4,4v1.025C2.203,5.279,.004,7.633,0,10.493c0,.002,0,.004,0,.007v8c0,3.032,2.467,5.5,5.5,5.5h4c.829,0,1.5-.672,1.5-1.5s-.671-1.5-1.5-1.5Zm-1.5-17c0-.552,.449-1,1-1h5v1c0,.552,.448,1,1,1h1v2h-3.028c-.078,0-.154-.018-.223-.053l-3.156-1.578c-.485-.243-1.021-.369-1.564-.369h-.029v-1Z"/>
</svg>
