<?xml version="1.0" encoding="UTF-8"?>
<svg xmlns="http://www.w3.org/2000/svg" id="Layer_1" data-name="Layer 1" viewBox="0 0 24 24">
  <path d="m2,5.5c0-.829.671-1.5,1.5-1.5h.5v-.5c0-.829.671-1.5,1.5-1.5s1.5.671,1.5,1.5v.5h.5c.829,0,1.5.671,1.5,1.5s-.671,1.5-1.5,1.5h-.5v.5c0,.829-.671,1.5-1.5,1.5s-1.5-.671-1.5-1.5v-.5h-.5c-.829,0-1.5-.671-1.5-1.5Zm10.5-.5h.5v.5c0,.829.671,1.5,1.5,1.5s1.5-.671,1.5-1.5v-.5h.5c.829,0,1.5-.671,1.5-1.5s-.671-1.5-1.5-1.5h-.5v-.5c0-.829-.671-1.5-1.5-1.5s-1.5.671-1.5,1.5v.5h-.5c-.829,0-1.5.671-1.5,1.5s.671,1.5,1.5,1.5Zm10.515,9.468l-5.196,5.943c-1.994,2.28-4.875,3.589-7.905,3.589h-5.414c-2.481,0-4.5-2.019-4.5-4.5v-4c0-2.481,2.019-4.5,4.5-4.5h7.858c.942,0,1.802.36,2.449.949l2.438-2.68c.698-.767,1.654-1.217,2.69-1.265,1.037-.051,2.029.31,2.796,1.008,1.566,1.427,1.692,3.875.282,5.455Zm-2.303-3.238c-.175-.159-.402-.237-.636-.229-.236.011-.453.113-.612.288l-3.498,3.844c-.218,1.585-1.475,2.884-3.094,3.115l-5.16.737c-.819.109-1.58-.453-1.697-1.273-.117-.82.453-1.58,1.273-1.697l5.161-.737c.314-.044.551-.317.551-.635,0-.354-.288-.643-.642-.643h-7.858c-.827,0-1.5.673-1.5,1.5v4c0,.827.673,1.5,1.5,1.5h5.414c2.165,0,4.223-.935,5.646-2.563l5.206-5.954c.331-.371.302-.928-.054-1.252Z"/>
</svg>
