<?xml version="1.0" encoding="UTF-8"?>
<svg xmlns="http://www.w3.org/2000/svg" id="Layer_1" data-name="Layer 1" viewBox="0 0 24 24">
  <path d="m7,7.5c0,.828-.672,1.5-1.5,1.5s-1.5-.672-1.5-1.5.672-1.5,1.5-1.5,1.5.672,1.5,1.5Zm13,0c0-.828-.672-1.5-1.5-1.5s-1.5.672-1.5,1.5.672,1.5,1.5,1.5,1.5-.672,1.5-1.5Zm-14.5,5.5c-.828,0-1.5.672-1.5,1.5s.672,1.5,1.5,1.5,1.5-.672,1.5-1.5-.672-1.5-1.5-1.5ZM18.5,2H5.5C2.468,2,0,4.467,0,7.5v7c0,3.032,2.468,5.5,5.5,5.5h5c.828,0,1.5-.672,1.5-1.5s-.672-1.5-1.5-1.5h-5c-1.379,0-2.5-1.121-2.5-2.5v-7c0-1.378,1.121-2.5,2.5-2.5h13c1.379,0,2.5,1.122,2.5,2.5v4c0,.829.672,1.5,1.5,1.5s1.5-.671,1.5-1.5v-4c0-3.033-2.468-5.5-5.5-5.5Zm4,19c-.828,0-1.5.672-1.5,1.5s.672,1.5,1.5,1.5,1.5-.672,1.5-1.5-.672-1.5-1.5-1.5Zm-5.5-4.5c0-.828-.672-1.5-1.5-1.5s-1.5.672-1.5,1.5.672,1.5,1.5,1.5,1.5-.672,1.5-1.5Zm5.46-1.152c-.636-.529-1.581-.445-2.112.192l-5,6c-.53.636-.444,1.582.192,2.112.28.233.62.348.959.348.43,0,.856-.184,1.153-.54l5-6c.53-.636.444-1.582-.192-2.112Zm-7.46-4.348c0-1.657-1.343-3-3-3s-3,1.343-3,3,1.343,3,3,3,3-1.343,3-3Z"/>
</svg>
