<?xml version="1.0" encoding="UTF-8"?>
<svg xmlns="http://www.w3.org/2000/svg" id="Layer_1" data-name="Layer 1" viewBox="0 0 24 24">
  <path d="m18,12c-3.314,0-6,2.686-6,6s2.686,6,6,6,6-2.686,6-6-2.686-6-6-6Zm2.707,7.293c.391.391.391,1.023,0,1.414-.195.195-.451.293-.707.293s-.512-.098-.707-.293l-1.293-1.293-1.293,1.293c-.195.195-.451.293-.707.293s-.512-.098-.707-.293c-.391-.391-.391-1.023,0-1.414l1.293-1.293-1.293-1.293c-.391-.391-.391-1.023,0-1.414s1.023-.391,1.414,0l1.293,1.293,1.293-1.293c.391-.391,1.023-.391,1.414,0s.391,1.023,0,1.414l-1.293,1.293,1.293,1.293ZM3,9.886v8.614c0,1.379,1.121,2.5,2.5,2.5h4c.828,0,1.5.672,1.5,1.5s-.672,1.5-1.5,1.5h-4c-3.032,0-5.5-2.468-5.5-5.5v-8.614c0-1.83.906-3.534,2.424-4.559L8.924.941c1.867-1.262,4.284-1.262,6.153,0l6.923,4.707c1.12.922,1.833,2.246,1.975,3.707.08.824-.524,1.558-1.349,1.638-.813.081-1.558-.524-1.638-1.349-.072-.745-.469-1.412-1.09-1.83l-6.5-4.387c-.85-.574-1.948-.574-2.796,0l-6.501,4.386c-.689.466-1.102,1.24-1.102,2.072Z"/>
</svg>
