<?xml version="1.0" encoding="UTF-8"?>
<svg xmlns="http://www.w3.org/2000/svg" id="Layer_1" data-name="Layer 1" viewBox="0 0 24 24">
  <path d="m11,10.5v3c0,1.381,1.119,2.5,2.5,2.5s2.5-1.119,2.5-2.5v-3c0-1.381-1.119-2.5-2.5-2.5s-2.5,1.119-2.5,2.5Zm3.4,0v3c0,.496-.404.9-.9.9s-.9-.404-.9-.9v-3c0-.496.404-.9.9-.9s.9.404.9.9Zm9.6,4.231c0,.69-.56,1.25-1.25,1.25s-1.25-.56-1.25-1.25.56-1.25,1.25-1.25,1.25.56,1.25,1.25Zm-5.75-4.25c-.69,0-1.25-.56-1.25-1.25s.56-1.25,1.25-1.25,1.25.56,1.25,1.25-.56,1.25-1.25,1.25Zm-.576,4.263l4.178-6.4c.148-.226.4-.363.67-.363.635,0,1.017.705.67,1.237l-4.178,6.4c-.148.226-.4.363-.67.363-.635,0-1.017-.705-.67-1.237Zm2.739,3.708c.58.592.569,1.541-.022,2.121-2.258,2.21-5.238,3.428-8.391,3.428C5.383,24,0,18.617,0,12S5.383,0,12,0c3.153,0,6.133,1.217,8.391,3.428.592.579.602,1.529.022,2.121-.578.592-1.529.602-2.121.022-1.694-1.658-3.929-2.572-6.292-2.572C7.038,3,3,7.038,3,12s4.038,9,9,9c2.363,0,4.598-.913,6.292-2.572.592-.579,1.542-.57,2.121.023ZM7.8,9.6h.9c.442,0,.8-.358.8-.8s-.358-.8-.8-.8h-.9c-1.544,0-2.8,1.256-2.8,2.8v2.7c0,1.379,1.122,2.5,2.5,2.5s2.5-1.121,2.5-2.5-1.122-2.5-2.5-2.5c-.318,0-.62.065-.9.174v-.375c0-.662.539-1.2,1.2-1.2Zm-.3,3c.497,0,.9.404.9.9s-.404.9-.9.9-.9-.404-.9-.9.404-.9.9-.9Z"/>
</svg>
