<?xml version="1.0" encoding="UTF-8"?>
<svg xmlns="http://www.w3.org/2000/svg" id="Layer_1" data-name="Layer 1" viewBox="0 0 24 24">
  <path d="M14.5,13c-1.381,0-2.5,1.119-2.5,2.5v3c0,1.381,1.119,2.5,2.5,2.5s2.5-1.119,2.5-2.5v-3c0-1.381-1.119-2.5-2.5-2.5Zm.9,5.5c0,.496-.404,.9-.9,.9s-.9-.404-.9-.9v-3c0-.496,.404-.9,.9-.9s.9,.404,.9,.9v3Zm-7.801-2.966v2.936c0,.479,.36,.897,.838,.929,.374,.025,.705-.18,.863-.488,.132-.258,.409-.409,.699-.409,.606,0,.989,.647,.703,1.181-.414,.771-1.222,1.3-2.154,1.317-1.401,.027-2.547-1.154-2.547-2.555v-2.886c0-1.401,1.146-2.581,2.547-2.555,.932,.018,1.74,.546,2.154,1.317,.287,.534-.097,1.181-.703,1.181-.29,0-.567-.151-.699-.409-.158-.308-.488-.514-.863-.489-.478,.032-.838,.45-.838,.929Zm12.401,7.133h1.346c.361,0,.654,.293,.654,.654v.025c0,.361-.293,.654-.654,.654h-2.692c-.361,0-.654-.293-.654-.654,0-1.506,2.667-2.346,2.667-3.346,0-.375-.31-.678-.687-.666-.248,.007-.457,.157-.566,.366-.005,.01-.01,.024-.015,.042-.091,.344-.392,.592-.748,.592h0c-.374,0-.664-.332-.607-.702,.002-.012,.004-.023,.006-.032,.194-.88,.948-1.566,1.878-1.599,1.138-.04,2.073,.87,2.073,1.999,0,1.423-1.425,2.141-2,2.667Zm3.897-10.189c0,1.263-.336,2.555-.972,3.734-.392,.729-1.301,1.003-2.032,.608-.729-.393-1.001-1.303-.608-2.032,.401-.744,.613-1.543,.613-2.311,0-2.236-1.589-4.177-3.777-4.613-1.086-.218-1.978-.909-2.446-1.897-1.021-2.155-3.305-3.312-5.678-2.875-2.076,.38-3.768,2.104-4.114,4.193-.106,.639-.1,1.274,.02,1.888,.219,1.13-.198,2.335-1.088,3.145-.59,.536-.916,1.271-.916,2.069,0,.73,.335,1.471,.918,2.031,.598,.573,.617,1.522,.043,2.121-.574,.598-1.524,.616-2.121,.043C.568,17.459-.103,15.93-.103,14.387c0-1.629,.691-3.192,1.897-4.289,.115-.104,.181-.25,.161-.353-.188-.967-.199-1.959-.034-2.952C2.481,3.427,5.106,.753,8.456,.141c3.674-.671,7.343,1.194,8.929,4.54,.06,.126,.175,.212,.324,.242,3.585,.715,6.189,3.892,6.189,7.555Z"/>
</svg>
