<?xml version="1.0" encoding="UTF-8"?>
<svg xmlns="http://www.w3.org/2000/svg" id="Layer_1" data-name="Layer 1" viewBox="0 0 24 24">
  <path d="M13.295,7.481L20.103,.673c.953-.953,2.534-.894,3.409,.176,.761,.93,.598,2.317-.252,3.167l-6.715,6.715c-.813,.813-1.915,1.269-3.064,1.269h-.955c-.276,0-.5-.224-.5-.5v-.955c0-1.149,.457-2.252,1.269-3.064Zm9.205,1.019c-.828,0-1.5,.671-1.5,1.5v4.5c0,1.379-1.121,2.5-2.5,2.5h-1.712c-.349,0-.687,.122-.956,.344l-3.828,3.167-3.75-3.158c-.27-.228-.612-.353-.966-.353h-1.788c-1.379,0-2.5-1.121-2.5-2.5V5.5c0-1.378,1.121-2.5,2.5-2.5H14.5c.828,0,1.5-.671,1.5-1.5s-.672-1.5-1.5-1.5H5.5C2.468,0,0,2.467,0,5.5V14.5c0,3.032,2.468,5.5,5.5,5.5h1.24l3.599,3.03c.479,.426,1.08,.636,1.675,.636,.582,0,1.158-.202,1.606-.601l3.708-3.065h1.172c3.032,0,5.5-2.468,5.5-5.5v-4.5c0-.829-.672-1.5-1.5-1.5Z"/>
</svg>
