<?xml version="1.0" encoding="UTF-8"?>
<svg xmlns="http://www.w3.org/2000/svg" id="Layer_1" data-name="Layer 1" viewBox="0 0 24 24">
  <path d="M15,15.5c0,1.381-1.119,2.5-2.5,2.5s-2.5-1.119-2.5-2.5,1.119-2.5,2.5-2.5,2.5,1.119,2.5,2.5Zm-12.5,3.5c-1.381,0-2.5,1.119-2.5,2.5s1.119,2.5,2.5,2.5,2.5-1.119,2.5-2.5-1.119-2.5-2.5-2.5Zm5.485-3.322c.118-.82-.452-1.58-1.272-1.697-.977-.141-1.713-.992-1.713-1.98,0-1.103,.897-2,2-2h6.5c.828,0,1.5-.671,1.5-1.5s-.672-1.5-1.5-1.5H7c-2.757,0-5,2.243-5,5,0,2.472,1.843,4.6,4.287,4.949,.072,.011,.144,.016,.215,.016,.734,0,1.375-.539,1.483-1.287Zm11.515-1.678h-1c-.828,0-1.5,.672-1.5,1.5s.672,1.5,1.5,1.5h1c.827,0,1.5,.673,1.5,1.5s-.673,1.5-1.5,1.5H8.5c-.829,0-1.5,.672-1.5,1.5s.671,1.5,1.5,1.5h11c2.481,0,4.5-2.019,4.5-4.5s-2.019-4.5-4.5-4.5Zm-1-4c.828,0,1.5-.671,1.5-1.5v-3.443l3.521-1.693c.639-.399,.639-1.329,0-1.729l-3.095-1.259c-.612-.249-1.266-.377-1.926-.377-.828,0-1.5,.671-1.5,1.5v7c0,.829,.672,1.5,1.5,1.5Z"/>
</svg>
