<?xml version="1.0" encoding="UTF-8"?>
<svg xmlns="http://www.w3.org/2000/svg" id="Layer_1" data-name="Layer 1" viewBox="0 0 24 24">
  <path d="m12,8.25v5.25c0,2.17-1.985,3.885-4.235,3.425-1.636-.335-2.765-1.854-2.765-3.525v-5.15c0-.69.56-1.25,1.25-1.25s1.25.56,1.25,1.25v5.083c0,.643.357,1.167,1,1.167s1-.523,1-1.167v-5.083c0-.69.56-1.25,1.25-1.25s1.25.56,1.25,1.25Zm12-2.75v13c0,3.033-2.468,5.5-5.5,5.5H5.5c-3.032,0-5.5-2.467-5.5-5.5V5.5C0,2.467,2.468,0,5.5,0h13c3.032,0,5.5,2.467,5.5,5.5Zm-3,0c0-1.378-1.121-2.5-2.5-2.5H5.5c-1.379,0-2.5,1.122-2.5,2.5v13c0,1.378,1.121,2.5,2.5,2.5h13c1.379,0,2.5-1.122,2.5-2.5V5.5Zm-1.928,3.314c.42-.831-.184-1.814-1.116-1.814-.647,0-1.037.265-1.25.686l-.706,1.397-.006.012-.006-.012-.706-1.397c-.213-.421-.609-.686-1.25-.686-.932,0-1.536.982-1.116,1.814l1.604,3.174.006.012-1.61,3.186c-.42.831.184,1.814,1.116,1.814.695,0,1.037-.265,1.25-.686l.712-1.409.712,1.409c.213.421.596.686,1.25.686.932,0,1.536-.982,1.116-1.814l-1.61-3.186.006-.012,1.604-3.174Z"/>
</svg>
