<?xml version="1.0" encoding="UTF-8"?>
<svg xmlns="http://www.w3.org/2000/svg" id="Layer_1" data-name="Layer 1" viewBox="0 0 24 24">
  <path d="M20,15.051v-1.551c0-.828-.672-1.5-1.5-1.5h-1c-.828,0-1.5,.672-1.5,1.5v1.5h-2v-1.5c0-.828-.672-1.5-1.5-1.5h-1c-.828,0-1.5,.672-1.5,1.5v1.5h-2v-1.5c0-.828-.672-1.5-1.5-1.5h-1c-.828,0-1.5,.672-1.5,1.5v1.551c-2.244,.252-4,2.139-4,4.449,0,2.485,2.015,4.5,4.5,4.5h14.827c2.284,0,4.334-1.628,4.633-3.892,.34-2.58-1.522-4.783-3.96-5.057Zm-15.5,5.949c-.827,0-1.5-.673-1.5-1.5s.673-1.5,1.5-1.5,1.5,.673,1.5,1.5-.673,1.5-1.5,1.5Zm10.776,0h-6.553c.168-.471,.276-.971,.276-1.5s-.108-1.029-.276-1.5h6.553c-.168,.471-.276,.971-.276,1.5s.108,1.029,.276,1.5Zm4.224,0c-.827,0-1.5-.673-1.5-1.5s.673-1.5,1.5-1.5,1.5,.673,1.5,1.5-.673,1.5-1.5,1.5ZM0,1.5C0,.671,.671,0,1.5,0H22.5c.829,0,1.5,.671,1.5,1.5s-.671,1.5-1.5,1.5H7v1.248l8.947,1.627c1.189,.216,2.053,1.251,2.053,2.459v.861c0,.444-.36,.804-.804,.804-.36,0-.687-.235-.773-.585-.104-.421-.349-.915-.923-.915s-.819,.494-.923,.915c-.086,.349-.413,.585-.773,.585-.444,0-.804-.36-.804-.804v-.807l-6.537-1.188c-1.427-.259-2.463-1.502-2.463-2.952v-1.248H1.5c-.829,0-1.5-.671-1.5-1.5Z"/>
</svg>
