<?xml version="1.0" encoding="UTF-8"?>
<svg xmlns="http://www.w3.org/2000/svg" id="Layer_1" data-name="Layer 1" viewBox="0 0 24 24">
  <path d="m20.5,11h-3c-.171,0-.335.027-.5.051v-4.551c0-1.93-1.57-3.5-3.5-3.5h-3c-1.93,0-3.5,1.57-3.5,3.5v2.551c-.165-.024-.329-.051-.5-.051h-3c-1.93,0-3.5,1.57-3.5,3.5v5c0,1.93,1.57,3.5,3.5,3.5h17c1.93,0,3.5-1.57,3.5-3.5v-3c0-1.93-1.57-3.5-3.5-3.5ZM3,17.5v-5c0-.275.225-.5.5-.5h3c.275,0,.5.225.5.5v5.5h-3.5c-.275,0-.5-.225-.5-.5Zm7-11c0-.275.225-.5.5-.5h3c.275,0,.5.225.5.5v11.5h-4V6.5Zm11,11c0,.275-.225.5-.5.5h-3.5v-3.5c0-.275.225-.5.5-.5h3c.275,0,.5.225.5.5v3Z"/>
</svg>
