<?xml version="1.0" encoding="UTF-8"?>
<svg xmlns="http://www.w3.org/2000/svg" id="Layer_1" data-name="Layer 1" viewBox="0 0 24 24">
  <path d="M12,0C5.383,0,0,5.383,0,12s5.383,12,12,12,12-5.383,12-12S18.617,0,12,0Zm8.302,15.472l-1.449-.606c-.457-.191-.986-.019-1.236,.409-.14,.241-.296,.472-.467,.693-.303,.393-.263,.948,.086,1.3l1.105,1.111c-.83,.825-1.82,1.487-2.918,1.941l-.598-1.451c-.189-.458-.685-.709-1.164-.582-.264,.07-.533,.122-.805,.158-.492,.064-.857,.486-.857,.983v1.573c-1.224,0-2.391-.248-3.455-.692l.604-1.448c.191-.458,.018-.987-.411-1.236-.241-.14-.473-.295-.694-.466-.393-.302-.949-.262-1.3,.089l-1.11,1.108c-.827-.829-1.492-1.818-1.947-2.916l1.481-.612c.451-.186,.696-.668,.592-1.145-.061-.28-.111-.572-.151-.833-.074-.49-.493-.85-.988-.85h-1.62c0-1.242,.253-2.426,.71-3.503l1.447,.612c.456,.193,.986,.023,1.238-.404,.141-.24,.298-.47,.469-.691,.305-.391,.268-.947-.081-1.3l-1.1-1.115c.833-.822,1.826-1.481,2.926-1.93l.591,1.452c.187,.459,.681,.712,1.161,.588,.262-.068,.528-.119,.801-.154,.498-.064,.867-.493,.861-.995l-.018-1.559c1.234,0,2.411,.252,3.482,.704l-.609,1.448c-.192,.457-.021,.986,.407,1.237,.24,.141,.471,.297,.692,.468,.392,.304,.947,.266,1.3-.083l1.113-1.102c.823,.831,1.484,1.822,1.935,2.921l-1.451,.595c-.459,.188-.71,.684-.584,1.164,.068,.26,.12,.524,.155,.791,.065,.492,.486,.857,.983,.857h1.573c0,1.23-.249,2.403-.698,3.472Zm-4.741-4.911l-1.439,1.439,1.439,1.439c.586,.586,.586,1.535,0,2.121-.293,.293-.677,.439-1.061,.439s-.768-.146-1.061-.439l-1.439-1.439-1.439,1.439c-.293,.293-.677,.439-1.061,.439s-.768-.146-1.061-.439c-.586-.586-.586-1.535,0-2.121l1.439-1.439-1.439-1.439c-.586-.585-.586-1.536,0-2.121,.586-.586,1.535-.586,2.121,0l1.439,1.439,1.439-1.439c.586-.586,1.535-.586,2.121,0,.586,.585,.586,1.536,0,2.121Z"/>
</svg>
