<?xml version="1.0" encoding="UTF-8"?>
<svg xmlns="http://www.w3.org/2000/svg" id="Layer_1" data-name="Layer 1" viewBox="0 0 24 24">
  <path d="M20.744,4.336L14.249,.599c-1.388-.799-3.111-.796-4.499,.006L3.245,4.372c-1.385,.802-2.245,2.294-2.245,3.895v7.521c0,1.611,.868,3.108,2.267,3.907l6.496,3.713c1.381,.79,3.097,.787,4.477-.006l6.505-3.743c1.392-.8,2.256-2.295,2.256-3.9v-7.521c0-1.606-.864-3.101-2.256-3.901Zm-.744,11.422c0,.535-.288,1.033-.752,1.3l-6.505,3.743c-.459,.265-1.031,.266-1.492,.002l-6.496-3.713c-.466-.266-.755-.765-.755-1.302v-7.521c0-.534,.287-1.031,.749-1.298l6.505-3.766h0c.462-.268,1.037-.269,1.499-.002l6.495,3.737c.464,.267,.752,.765,.752,1.3v7.521Zm-7.75-5.508v1.47h1.125c.345,0,.625,.28,.625,.625s-.28,.625-.625,.625h-1.125v1.405c0,.345-.28,.625-.625,.625s-.625-.28-.625-.625v-4.75c0-.345,.28-.625,.625-.625h1.75c.345,0,.625,.28,.625,.625s-.28,.625-.625,.625h-1.125Zm-2.75-.644v4.59c0,.444-.36,.804-.804,.804-.318,0-.606-.187-.735-.478l-1.23-2.772v2.635c0,.34-.276,.615-.615,.615h0c-.34,0-.615-.276-.615-.615v-4.579c0-.445,.361-.806,.806-.806,.317,0,.605,.186,.735,.476l1.247,2.774v-2.644c0-.335,.271-.606,.606-.606s.606,.271,.606,.606Zm9.25,.019c0,.345-.28,.625-.625,.625h-.625v4.125c0,.345-.28,.625-.625,.625s-.625-.28-.625-.625v-4.125h-.625c-.345,0-.625-.28-.625-.625s.28-.625,.625-.625h2.5c.345,0,.625,.28,.625,.625Z"/>
</svg>
