<?xml version="1.0" encoding="UTF-8"?>
<svg xmlns="http://www.w3.org/2000/svg" id="Layer_1" data-name="Layer 1" viewBox="0 0 24 24">
  <path d="m1.289,11.985c-.82-.118-1.391-.878-1.273-1.697C.854,4.423,6.007,0,12.001,0c3.215,0,6.261,1.294,8.508,3.559l.992-.992c.554-.554,1.501-.161,1.501.622v3.932c0,.485-.394.879-.879.879h-3.933c-.783,0-1.175-.947-.622-1.501l.822-.822c-1.686-1.703-3.974-2.677-6.389-2.677-4.511,0-8.387,3.315-9.015,7.712-.107.748-.749,1.288-1.483,1.288-.07,0-.143-.005-.214-.015Zm21.424.029c-.816-.114-1.579.454-1.697,1.273-.628,4.396-4.504,7.712-9.015,7.712-2.411,0-4.708-.989-6.387-2.679l.82-.82c.554-.554.162-1.501-.622-1.501H1.88c-.485,0-.879.394-.879.879v3.932c0,.783.947,1.175,1.501.622l.994-.994c2.236,2.247,5.296,3.561,8.505,3.561,5.994,0,11.146-4.423,11.985-10.288.117-.819-.453-1.579-1.273-1.697Zm-3.712-.014c0,3.866-3.134,7-7,7s-7-3.134-7-7,3.134-7,7-7,7,3.134,7,7Zm-5.447-.505l-2.792-.559c-.304-.061-.514-.36-.449-.678.055-.272.309-.458.587-.458h2.102c.203,0,.387.087.515.226.154.167.311.274.664.274.654,0,1.01-.763.592-1.266-.422-.509-1.059-.833-1.77-.833h-.2v-.4c0-.442-.358-.8-.8-.8s-.8.358-.8.8v.4h-.28c-1.091,0-2.046.786-2.199,1.866-.163,1.158.613,2.216,1.725,2.439l2.791.559c.304.062.514.359.451.677-.054.273-.308.46-.586.46h-2.103c-.203,0-.387-.087-.515-.226-.154-.167-.332-.274-.664-.274-.591,0-1.01.763-.592,1.266.422.509,1.059.833,1.77.833h.2v.4c0,.442.358.8.8.8s.8-.358.8-.8v-.4h.28c1.091,0,2.046-.785,2.199-1.865.164-1.158-.613-2.217-1.725-2.439Z"/>
</svg>
