<?xml version="1.0" encoding="UTF-8"?>
<svg xmlns="http://www.w3.org/2000/svg" id="Layer_1" data-name="Layer 1" viewBox="0 0 24 24">
  <path d="M15.422,11.194c-1.32-1.051-3.04-1.431-4.712-1.046-2.005,.463-3.6,2.059-4.062,4.065-.522,2.27,.378,4.562,2.294,5.843,.344,.23,.558,.678,.558,1.169v.774c0,1.103,.897,2,2,2h1c1.103,0,2-.897,2-2v-.774c0-.491,.214-.938,.558-1.169,1.529-1.021,2.442-2.725,2.442-4.557,0-1.686-.758-3.255-2.078-4.306Zm-2.03,6.368c-.593,.396-1.067,.938-1.392,1.567-.325-.63-.798-1.171-1.392-1.567-.693-.463-1.329-1.408-1.037-2.675,.244-1.1,1.313-1.915,2.432-1.888,1.339-.03,2.526,1.159,2.497,2.5,0,.828-.414,1.599-1.108,2.062Zm10.047-3.964c.403,.73,.618,1.552,.618,2.401,0,1.833-1.029,3.52-2.619,4.385-.646,1.369-1.49,2.329-2.567,2.927-.725,.401-1.639,.141-2.039-.584-.402-.725-.141-1.638,.584-2.039,.593-.329,1.078-.979,1.483-1.984,.157-.389,.469-.694,.861-.843,.788-.298,1.297-1.028,1.297-1.861,0-.512-.199-1.002-.561-1.379-.281-.293-.432-.688-.417-1.093,.015-.406,.193-.788,.495-1.061,.3-.313,.515-.787,.531-1.422,0-.486-.141-1.122-1.235-1.738-.473-.266-.765-.766-.765-1.308v-1c0-.791-.981-1-1.5-1-.828,0-1.5-.672-1.5-1.5,0-.728-.398-1.5-1.137-1.5-.627,0-1.295,.35-1.469,.744v2.756c0,.828-.671,1.5-1.5,1.5s-1.5-.672-1.5-1.5V3.764c-.154-.426-.731-.764-1.356-.764-.738,0-1.136,.772-1.136,1.5,0,.828-.671,1.5-1.5,1.5-.519,0-1.5,.209-1.5,1v1c0,.542-.292,1.042-.765,1.308-1.095,.615-1.235,1.252-1.235,1.738,.017,.643,.234,1.114,.539,1.431,.298,.272,.474,.654,.486,1.058,.013,.404-.137,.796-.417,1.087-.361,.377-.56,.866-.56,1.379,0,.833,.509,1.563,1.297,1.861,.392,.148,.704,.454,.861,.843,.409,1.016,.899,1.668,1.501,1.994,.728,.395,.998,1.306,.603,2.033-.271,.501-.787,.785-1.32,.785-.241,0-.486-.059-.714-.182-1.098-.596-1.956-1.563-2.61-2.95C1.085,19.52,.056,17.832,.056,16c0-.85,.215-1.672,.618-2.401C.236,12.815,.007,11.947,.007,11.046,.007,9.926,.376,8.411,2.007,7.188v-.188c0-1.868,1.299-3.36,3.179-3.839,.512-1.85,2.068-3.161,3.957-3.161,1.087,0,2.102,.363,2.883,.972,.866-.639,1.959-.972,2.942-.972,1.89,0,3.445,1.312,3.958,3.161,1.88,.479,3.179,1.971,3.179,3.839v.188c1.631,1.223,2,2.738,2,3.857,0,.901-.229,1.77-.667,2.553Z"/>
</svg>
