<?xml version="1.0" encoding="UTF-8"?>
<svg xmlns="http://www.w3.org/2000/svg" id="Layer_1" data-name="Layer 1" viewBox="0 0 24 24">
  <path d="M8.5,12c3.032,0,5.5-2.467,5.5-5.5S11.532,1,8.5,1,3,3.467,3,6.5s2.468,5.5,5.5,5.5Zm0-8c1.379,0,2.5,1.122,2.5,2.5s-1.121,2.5-2.5,2.5-2.5-1.122-2.5-2.5,1.121-2.5,2.5-2.5Zm15.297,16.7c.323,.729,.258,1.563-.177,2.232-.435,.669-1.17,1.068-1.968,1.068h-6.152c-.828,0-1.5-.671-1.5-1.5s.672-1.5,1.5-1.5h5.044s-1.286-2.35-1.375-2.494c-1.471-2.377-4.651-3.195-7.405-1.907-.546,.256-1.035,.543-1.505,.847l1.651,4.541c.368,.954-.394,2.03-1.41,2.013-.613,0-1.188-.378-1.41-.988l-1.311-3.605c-.249,.225-.493,.445-.755,.689l-3.486,3.336c-.721,.623-1.65,.729-2.423,.321-.773-.408-1.211-1.232-1.114-2.102L1.011,13.319c.101-.822,.845-1.409,1.67-1.309,.822,.1,1.408,.848,1.309,1.67l-.709,5.848,1.683-1.612c1.767-1.649,3.286-2.984,5.529-4.034,4.13-1.936,8.958-.626,11.228,3.045,.134,.216,2.06,3.734,2.077,3.772Zm-2.877-13.306c.095-.237,.325-.393,.58-.393s.485,.156,.58,.393l.436,1.09,1.09,.436c.237,.095,.393,.325,.393,.58s-.156,.485-.393,.58l-1.09,.436-.436,1.09c-.095,.237-.325,.393-.58,.393s-.486-.156-.58-.393l-.438-1.097-1.099-.463c-.236-.099-.387-.332-.382-.587,.005-.255,.165-.482,.404-.573l1.082-.41,.433-1.084ZM15,2.952c.006-.307,.198-.579,.484-.687l1.299-.492,.52-1.301c.114-.285,.39-.472,.697-.472s.583,.187,.697,.472l.523,1.308,1.308,.523c.285,.114,.472,.39,.472,.697s-.187,.583-.472,.697l-1.308,.523-.523,1.308c-.114,.285-.39,.472-.697,.472s-.583-.187-.697-.472l-.526-1.316-1.318-.556c-.283-.119-.464-.398-.459-.705Z"/>
</svg>
