<?xml version="1.0" encoding="UTF-8"?>
<svg xmlns="http://www.w3.org/2000/svg" id="Layer_1" data-name="Layer 1" viewBox="0 0 24 24">
  <path d="M23.111,18.802c-.312,.358-.693,.636-1.111,.839v2.859c0,.828-.671,1.5-1.5,1.5s-1.5-.672-1.5-1.5v-2.5h-.5c-.829,0-1.5-.672-1.5-1.5s.671-1.5,1.5-1.5h1.974c.198,0,.321-.107,.377-.171,.056-.064,.146-.201,.119-.397l-.817-5.988c-.112-.823-.823-1.443-1.653-1.443s-1.5-.672-1.5-1.5,.671-1.5,1.5-1.5c2.323,0,4.312,1.736,4.625,4.038l.817,5.988c.136,1.003-.167,2.014-.832,2.775ZM4.5,9h2c.829,0,1.5-.672,1.5-1.5s-.671-1.5-1.5-1.5h-2C2.019,6,0,8.019,0,10.5v3c0,1.557,.795,2.93,2,3.738v5.262c0,.828,.671,1.5,1.5,1.5s1.5-.672,1.5-1.5v-4.5h1.5c.829,0,1.5-.672,1.5-1.5s-.671-1.5-1.5-1.5h-2c-.827,0-1.5-.673-1.5-1.5v-3c0-.827,.673-1.5,1.5-1.5ZM21,2.5c0-1.381-1.119-2.5-2.5-2.5s-2.5,1.119-2.5,2.5,1.119,2.5,2.5,2.5,2.5-1.119,2.5-2.5ZM5.5,0c-1.381,0-2.5,1.119-2.5,2.5s1.119,2.5,2.5,2.5,2.5-1.119,2.5-2.5S6.881,0,5.5,0ZM14.912,5.292l-1.66-1.763,.934-1.013c.562-.609,.522-1.559-.086-2.12-.61-.562-1.558-.521-2.12,.087l-1.881,2.041c-.534,.579-.529,1.472,.011,2.045l1.65,1.751-1.65,1.752c-.544,.577-.544,1.479,0,2.057l1.649,1.751-1.649,1.751c-.544,.577-.544,1.479,0,2.057l1.65,1.753-1.65,1.751c-.545,.578-.544,1.48,.001,2.059l2.164,2.291c.295,.312,.692,.47,1.091,.47,.369,0,.74-.136,1.029-.409,.603-.569,.629-1.519,.061-2.121l-1.192-1.262,1.648-1.75c.544-.577,.544-1.479,0-2.057l-1.65-1.753,1.649-1.751c.544-.577,.544-1.479,0-2.057l-1.649-1.751,1.65-1.752c.544-.577,.544-1.479,0-2.057Z"/>
</svg>
