<?xml version="1.0" encoding="UTF-8"?>
<svg xmlns="http://www.w3.org/2000/svg" id="Layer_1" data-name="Layer 1" viewBox="0 0 24 24">
  <path d="M4.781,10.282l-1.309-.912-1.305,.912c-.498,.374-1.231-.167-1.022-.753l.465-1.456-1.219-.849c-.537-.349-.254-1.261,.388-1.24h1.595l.371-1.421c.168-.738,1.294-.737,1.462,0l.371,1.421h1.585c.64-.021,.922,.885,.387,1.234l-1.221,.853,.476,1.447c.216,.589-.524,1.138-1.025,.763Zm19.199-3.775c-.069-.305-.341-.522-.654-.522h-1.585l-.371-1.421c-.168-.738-1.294-.738-1.462,0l-.371,1.421h-1.595c-.642-.021-.924,.891-.388,1.24l1.219,.849-.465,1.456c-.21,.587,.524,1.127,1.022,.753l1.305-.912,1.309,.912c.502,.374,1.241-.175,1.025-.763l-.476-1.447,1.221-.853c.228-.159,.334-.442,.266-.712ZM8.92,3.225l1.219,.849-.465,1.456c-.209,.587,.524,1.127,1.022,.753l1.305-.912,1.309,.912c.502,.374,1.241-.175,1.025-.763l-.476-1.447,1.221-.853c.535-.349,.253-1.255-.387-1.234h-1.585l-.371-1.421c-.168-.738-1.294-.738-1.462,0l-.371,1.421h-1.595c-.642-.021-.924,.891-.388,1.24Zm3.08,13.775c-3.207,0-6.06,2.088-6.939,5.077-.234,.795,.221,1.628,1.016,1.862,.794,.232,1.628-.221,1.862-1.017,.506-1.721,2.176-2.923,4.061-2.923s3.555,1.202,4.061,2.923c.192,.654,.79,1.077,1.438,1.077,.14,0,.282-.02,.423-.061,.795-.234,1.25-1.067,1.016-1.862-.879-2.989-3.732-5.077-6.939-5.077Zm0-1c2.209,0,4-1.791,4-4s-1.791-4-4-4-4,1.791-4,4,1.791,4,4,4Z"/>
</svg>
