<?xml version="1.0" encoding="UTF-8"?>
<svg xmlns="http://www.w3.org/2000/svg" id="Layer_1" data-name="Layer 1" viewBox="0 0 24 24">
  <path d="M15,22.5c0,.828-.672,1.5-1.5,1.5h-2.219c-1.149,0-2.146-.779-2.425-1.894l-.811-3.242c-.254-.912,.509-1.889,1.455-1.864,.528-.013,2.318-.238,2.486-2.606,.059-.826,.784-1.454,1.603-1.39,.826,.059,1.448,.776,1.39,1.603-.215,3.026-1.995,4.474-3.641,5.059l.334,1.335h1.829c.828,0,1.5,.672,1.5,1.5ZM21.223,2.256c-.695-.329-1.444-.367-2.12-.18l-1.197-1.197c-.976-.976-2.458-1.139-3.603-.488-.366,.208-.401,.727-.104,1.024l1.232,1.232c.527,.527,1.202,.804,1.891,.857-2.553,3.615-6.518,4.465-6.927,4.498-3.995,.055-7.353,3.192-7.667,7.189-.119,1.507-.271,3.135-.454,4.838-.055,.506-.447,.901-.954,.963-.822,.1-1.408,.848-1.309,1.67,.093,.761,.74,1.319,1.487,1.319,1.97-.125,3.552-1.677,3.757-3.632,.186-1.731,.342-3.388,.463-4.923,.196-2.554,2.403-4.491,4.947-4.435,.145-.016,2.576-.314,5.334-2.141v1.983c0,1.481,.892,2.82,2.218,3.332,.894,.345,1.634,1.036,1.762,1.643,.166,.816,.986,1.333,1.775,1.16,.811-.17,1.33-.965,1.16-1.775-.408-1.949-2.136-3.254-3.618-3.826-.172-.066-.297-.291-.297-.533v-3.226c1.552,.695,4.189,1.525,4.836,.158,.619-1.309-.578-4.545-2.613-5.509Z"/>
</svg>
