<?xml version="1.0" encoding="UTF-8"?>
<svg xmlns="http://www.w3.org/2000/svg" id="Layer_1" data-name="Layer 1" viewBox="0 0 24 24">
  <path d="m15.54,14.785l.968-.277.277-.968c.206-.719,1.225-.719,1.431,0l.277.968.968.277c.72.206.72,1.225,0,1.431l-.968.277-.277.968c-.206.72-1.225.72-1.431,0l-.277-.968-.968-.277c-.72-.206-.72-1.225,0-1.431Zm-10.135-5.789c.816.059,1.547-.555,1.61-1.382.197-2.587,2.387-4.614,4.985-4.614s4.788,2.027,4.985,4.614c.061.788.718,1.386,1.494,1.386,1.021,0,1.561-.788,1.498-1.614-.316-4.142-3.82-7.386-7.978-7.386s-7.661,3.244-7.978,7.386c-.062.826.556,1.546,1.382,1.609Zm10.516-1.794c-.376-1.855-2.024-3.202-3.92-3.202s-3.544,1.347-3.92,3.202c-.165.812.359,1.604,1.172,1.769.803.162,1.604-.36,1.768-1.172.094-.463.507-.798.98-.798s.887.335.98.798c.144.711.77,1.202,1.468,1.202.1,0,.199-.01.3-.03.812-.165,1.337-.957,1.172-1.769Zm-11.38,7.014l.968.277.277.968c.206.72,1.225.72,1.431,0l.277-.968.968-.277c.72-.206.72-1.225,0-1.431l-.968-.277-.277-.968c-.206-.719-1.225-.719-1.431,0l-.277.968-.968.277c-.72.206-.72,1.225,0,1.431ZM22.5,5c-.828,0-1.5.671-1.5,1.5v10.793c0,1.208-.863,2.243-2.075,2.464l-5.425,1.072v-8.328c0-.829-.672-1.5-1.5-1.5s-1.5.671-1.5,1.5v8.328l-5.447-1.075c-1.189-.217-2.053-1.251-2.053-2.46V6.5c0-.829-.672-1.5-1.5-1.5s-1.5.671-1.5,1.5v10.793c0,2.659,1.899,4.935,4.493,5.407l5.809,1.147c.561.102,1.125.153,1.692.153.573,0,1.149-.052,1.728-.157l5.763-1.139c2.616-.476,4.516-2.752,4.516-5.411V6.5c0-.829-.672-1.5-1.5-1.5Z"/>
</svg>
