<?xml version="1.0" encoding="UTF-8"?>
<svg xmlns="http://www.w3.org/2000/svg" id="Layer_1" data-name="Layer 1" viewBox="0 0 24 24">
  <path d="M17,15.5c0,1.381-1.119,2.5-2.5,2.5h-5.674c-1.009,0-1.826-.818-1.826-1.826,0-.968,.755-1.752,1.707-1.814-.127-.348-.207-.718-.207-1.109,0-1.795,1.455-3.25,3.25-3.25,1.726,0,3.124,1.349,3.23,3.048,1.151,.224,2.02,1.235,2.02,2.452Zm5-7.343v10.343c0,3.032-2.468,5.5-5.5,5.5H7.5c-3.033,0-5.5-2.468-5.5-5.5V5.5C2,2.468,4.467,0,7.5,0h6.343c1.47,0,2.851,.572,3.89,1.611l2.656,2.656c1.039,1.039,1.611,2.42,1.611,3.89Zm-3,10.343V9h-4c-1.105,0-2-.895-2-2V3H7.5c-1.378,0-2.5,1.121-2.5,2.5v13c0,1.379,1.122,2.5,2.5,2.5h9c1.379,0,2.5-1.121,2.5-2.5Z"/>
</svg>
