<?xml version="1.0" encoding="UTF-8"?>
<svg xmlns="http://www.w3.org/2000/svg" id="Layer_1" data-name="Layer 1" viewBox="0 0 24 24">
  <path d="m23.072,9.4l-2.951-5.5c-.96-1.789-2.817-2.899-4.847-2.899h-6.532c-2.025,0-3.88,1.107-4.842,2.891L.934,9.395c-.879,1.635-.879,3.586.002,5.219l2.965,5.497c.962,1.782,2.816,2.889,4.841,2.889h6.533c2.029,0,3.887-1.111,4.847-2.899,0,0,0,0,0,0l2.949-5.5c.874-1.628.874-3.572,0-5.2Zm-2.645,3.782l-2.95,5.5c-.437.813-1.28,1.318-2.203,1.318h-6.533c-.92,0-1.764-.503-2.2-1.313l-2.965-5.497c-.4-.743-.4-1.63,0-2.373l2.966-5.503c.438-.811,1.28-1.314,2.201-1.314h6.532c.923,0,1.768.505,2.203,1.318l2.951,5.5c.396.74.396,1.624,0,2.364Zm-3.428-1.182c0,.829-.672,1.5-1.5,1.5h-7c-.828,0-1.5-.671-1.5-1.5s.672-1.5,1.5-1.5h7c.828,0,1.5.671,1.5,1.5Zm-6.5-4.5c0-.828.672-1.5,1.5-1.5s1.5.672,1.5,1.5-.672,1.5-1.5,1.5-1.5-.672-1.5-1.5Zm3,9c0,.828-.672,1.5-1.5,1.5s-1.5-.672-1.5-1.5.672-1.5,1.5-1.5,1.5.672,1.5,1.5Z"/>
</svg>
