<?xml version="1.0" encoding="UTF-8"?>
<svg xmlns="http://www.w3.org/2000/svg" id="Layer_1" data-name="Layer 1" viewBox="0 0 24 24">
  <path d="m6.286,5s-.109-.029,0,0h0Zm16.798,11.004h-2.751l-.974-2.732c-.133-.359-.476-.597-.859-.597s-.726.238-.859.597l-.974,2.732h-2.751c-.384,0-.728.24-.86.601-.133.361-.026.766.267,1.015l2.179,1.773-.862,2.765c-.116.371.013.776.325,1.009.162.122.356.183.55.183.178,0,.355-.051.51-.155l2.482-1.661,2.524,1.644c.326.212.751.195,1.06-.042.309-.238.433-.645.311-1.014l-.897-2.732,2.169-1.767c.294-.248.403-.654.271-1.016-.132-.362-.476-.602-.861-.602Zm-3.583-11.004h-1.784c1.215-.911,1.645-2.685.734-3.9-.911-1.215-2.634-1.461-3.849-.55-1.673,1.255-2.429,3.463-2.601,4.449-.172-.986-.928-3.194-2.601-4.449-1.215-.911-2.938-.665-3.849.55-.911,1.215-.479,2.989.736,3.9h-1.786C2.019,5,0,7.019,0,9.5v1c0,1.207.86,2.217,2,2.449v5.551c0,3.033,2.468,5.5,5.5,5.5h3c.828,0,1.5-.671,1.5-1.5s-.672-1.5-1.5-1.5h-3c-1.379,0-2.5-1.122-2.5-2.5v-5.5h9.5c.828,0,1.5-.671,1.5-1.5s-.672-1.5-1.5-1.5H3v-.5c0-.827.673-1.5,1.5-1.5h15c.827,0,1.5.673,1.5,1.5v1c0,.829.672,1.5,1.5,1.5s1.5-.671,1.5-1.5v-1c0-2.481-2.019-4.5-4.5-4.5Zm-1.784,0s.108-.029,0,0h0Z"/>
</svg>
