<?xml version="1.0" encoding="UTF-8"?>
<svg xmlns="http://www.w3.org/2000/svg" id="Layer_1" data-name="Layer 1" viewBox="0 0 24 24">
  <path d="M14.014,6.552l2.476-2.476c.586-.586,1.535-.586,2.121,0,.586,.585,.586,1.535,0,2.121l-2.476,2.476c-.293,.293-.677,.439-1.061,.439s-.768-.146-1.061-.439c-.586-.585-.586-1.535,0-2.121Zm2.476,5.302c.293,.293,.677,.439,1.061,.439s.768-.146,1.061-.439l2.829-2.829c.586-.585,.586-1.535,0-2.121s-1.535-.586-2.121,0l-2.829,2.829c-.586,.585-.586,1.535,0,2.121Zm-5.276-6.258c.542,.675,1.562,.703,2.174,.09l1.688-1.611c.586-.586,.586-1.536,0-2.121s-1.536-.586-2.121,0l-1.686,1.609c-.548,.548-.564,1.408-.074,2.009,.007,.008,.013,.016,.019,.024Zm7.829,7.241c-.586,.585-.586,1.536,0,2.121,.293,.293,.677,.439,1.061,.439s.768-.146,1.061-.439l2.397-2.397c.586-.585,.586-1.536,0-2.121-.586-.586-1.535-.586-2.121,0l-2.397,2.397Zm3.88,4.262c-.793-.234-1.628,.223-1.861,1.018-.456,1.558-1.408,2.507-2.994,2.986-.793,.24-1.242,1.077-1.002,1.87,.195,.648,.791,1.067,1.435,1.067,.144,0,.29-.021,.435-.064,2.539-.767,4.27-2.501,5.006-5.014,.233-.795-.223-1.628-1.018-1.861Zm-4.879-1.143c-.586-.585-1.535-.585-2.121,0l-1.646,1.646c-.748,.749-1.684,1.291-2.704,1.569-1.679,.458-3.108,1.242-4.133,2.268-.586,.586-.586,1.536,0,2.122,.293,.292,.677,.439,1.061,.439s.768-.146,1.061-.439c.657-.657,1.625-1.173,2.801-1.494,1.523-.416,2.919-1.226,4.036-2.342l1.646-1.646c.586-.586,.586-1.536,0-2.122ZM1.078,6.939c.141,.042,.283,.061,.423,.061,.648,0,1.247-.424,1.438-1.079,.438-1.494,1.474-2.527,2.994-2.986,.793-.24,1.242-1.077,1.002-1.87-.239-.793-1.078-1.241-1.869-1.002C2.564,.819,.787,2.6,.061,5.078c-.233,.795,.223,1.628,1.018,1.861Zm8.954,3.86c1.021,.478,2.236,.038,2.714-.982,.478-1.021,.038-2.236-.982-2.714l-2.324-1.627c-1.005-.561-2.244-.661-3.261-.136-.797,.466-1.371,1.211-1.624,2.149l-1.93,5.865c-.098,.297-.264,.568-.486,.789l-1.699,1.699c-.281,.281-.439,.663-.439,1.061,0,1.336,1.616,2.006,2.561,1.061l1.874-1.874c.692-.692,1.196-1.548,1.465-2.489l1.298-4.541,2.835,1.74Z"/>
</svg>
