<?xml version="1.0" encoding="UTF-8"?>
<svg xmlns="http://www.w3.org/2000/svg" id="Layer_1" data-name="Layer 1" viewBox="0 0 24 24">
  <path d="m16,12.5c0,.828-.672,1.5-1.5,1.5s-1.5-.672-1.5-1.5.672-1.5,1.5-1.5,1.5.672,1.5,1.5Zm2,0c0,.828.672,1.5,1.5,1.5s1.5-.672,1.5-1.5-.672-1.5-1.5-1.5-1.5.672-1.5,1.5ZM10,1.5c0-.829.671-1.5,1.5-1.5,1.344,0,2.518.807,3.022,2h7.978c.478,0,.927.228,1.209.612s.365.881.223,1.337l-1.129,3.599c-.461,1.467-1.803,2.452-3.34,2.452h-3.568c-1.709,0-3.159-1.222-3.449-2.905l-.668-3.862c-.023-.135-.141-.233-.278-.233-.829,0-1.5-.671-1.5-1.5Zm5.128,3.5l.274,1.585c.041.241.248.415.492.415h3.568c.22,0,.411-.141.477-.351l.518-1.649h-5.329Zm8.123,9.202c-.717-.415-1.635-.17-2.05.547-.446.771-1.276,1.251-2.166,1.251H5.5c-1.378,0-2.5-1.122-2.5-2.5v-6c0-1.378,1.122-2.5,2.5-2.5h1c.829,0,1.5-.671,1.5-1.5s-.671-1.5-1.5-1.5h-1C2.467,2,0,4.467,0,7.5v6c0,3.033,2.467,5.5,5.5,5.5h5v2h-2.5c-.829,0-1.5.671-1.5,1.5s.671,1.5,1.5,1.5h8c.828,0,1.5-.671,1.5-1.5s-.672-1.5-1.5-1.5h-2.5v-2h5.535c1.958,0,3.783-1.053,4.764-2.749.414-.717.169-1.635-.548-2.049Z"/>
</svg>
