<?xml version="1.0" encoding="UTF-8"?>
<svg xmlns="http://www.w3.org/2000/svg" id="Layer_1" data-name="Layer 1" viewBox="0 0 24 24">
  <path d="M22.335,13.833c-.612,2.453-2.807,4.167-5.335,4.167H7.188c-1.747,0-3.239-1.306-3.469-3.037L2.182,3.434c-.033-.247-.246-.434-.496-.434h-.187c-.829,0-1.5-.672-1.5-1.5S.671,0,1.5,0h.187c1.747,0,3.239,1.306,3.469,3.037l.262,1.963h5.083c.829,0,1.5,.672,1.5,1.5s-.671,1.5-1.5,1.5H5.817l.875,6.566c.033,.247,.246,.434,.496,.434h9.812c1.149,0,2.146-.778,2.425-1.894,.2-.804,1.012-1.294,1.818-1.092,.804,.2,1.293,1.015,1.092,1.818Zm1.665-8.833c0,2.761-2.239,5-5,5s-5-2.239-5-5S16.239,0,19,0s5,2.239,5,5Zm-3,.586l-1-1v-1.586c0-.552-.448-1-1-1h0c-.552,0-1,.448-1,1v2c0,.265,.105,.52,.293,.707l1.293,1.293c.391,.39,1.024,.39,1.414,0,.391-.391,.391-1.024,0-1.414ZM7,20c-1.105,0-2,.895-2,2s.895,2,2,2,2-.895,2-2-.895-2-2-2Zm10,0c-1.105,0-2,.895-2,2s.895,2,2,2,2-.895,2-2-.895-2-2-2Z"/>
</svg>
