<?xml version="1.0" encoding="UTF-8"?>
<svg xmlns="http://www.w3.org/2000/svg" id="Layer_1" data-name="Layer 1" viewBox="0 0 24 24">
  <path d="M3.811,5.698c-.64-.644-1.594-.836-2.432-.489-.838,.345-1.379,1.154-1.379,2.061v9.458c0,.907,.542,1.717,1.381,2.062,.276,.113,.565,.169,.851,.169,.583,0,1.153-.229,1.581-.662l4.32-4.36c.551-.492,.868-1.198,.868-1.938s-.315-1.45-.803-1.885L3.811,5.698Zm-.811,9.158v-5.719l2.838,2.855-2.838,2.863ZM22.621,5.209c-.838-.346-1.792-.153-2.432,.49l-4.325,4.356c-.549,.493-.864,1.202-.864,1.943s.316,1.445,.802,1.875l4.384,4.423c.429,.433,.999,.662,1.582,.662,.286,0,.575-.056,.851-.169,.839-.346,1.381-1.155,1.381-2.062V7.27c0-.906-.542-1.716-1.379-2.061Zm-1.621,9.648l-2.839-2.86,2.839-2.858v5.719ZM13.5,1.5V22.5c0,.828-.671,1.5-1.5,1.5s-1.5-.672-1.5-1.5V1.5c0-.828,.671-1.5,1.5-1.5s1.5,.672,1.5,1.5Z"/>
</svg>
