<?xml version="1.0" encoding="UTF-8"?>
<svg xmlns="http://www.w3.org/2000/svg" id="Layer_1" data-name="Layer 1" viewBox="0 0 24 24">
  <path d="m23.559,13.178l-8.68,8.643c-1.43,1.43-3.333,2.218-5.357,2.218s-3.928-.788-5.359-2.22l-2.228-2.24c-1.247-1.248-1.936-2.94-1.936-4.704v-6.836c0-1.215,1.07-2.176,2.323-1.973.983.16,1.664,1.083,1.664,2.08v1.451L13.12.477c.587-.585,1.536-.585,2.121.001s.585,1.536-.002,2.122L4.48,13.344c-1.254,1.254-1.254,3.296,0,4.551l1.803,1.803c.865.865,2.015,1.341,3.238,1.341s2.373-.476,3.238-1.341l8.682-8.645c.588-.584,1.536-.582,2.121.004.585.587.583,1.537-.004,2.121Zm-12.067-2.664c.293.293.678.44,1.062.44s.767-.146,1.06-.438l6.972-6.956c.586-.585.588-1.535.002-2.122-.584-.585-1.533-.588-2.121-.002l-6.972,6.956c-.586.585-.587,1.535-.002,2.122Zm3.253,3.099c.293.294.677.44,1.062.44.383,0,.767-.146,1.06-.438l6.666-6.65c.586-.585.588-1.535.002-2.122-.584-.585-1.534-.588-2.121-.002l-6.666,6.65c-.586.585-.588,1.535-.002,2.121Zm-3.495-.613c-.966,0-1.75.674-1.75,1.718,0-1.044-.784-1.718-1.75-1.718s-1.75.846-1.75,1.89c0,1.386,1.717,2.994,2.746,3.833.441.36,1.068.36,1.509,0,1.029-.839,2.746-2.447,2.746-3.833,0-1.044-.784-1.89-1.75-1.89Z"/>
</svg>
