<?xml version="1.0" encoding="UTF-8"?>
<svg xmlns="http://www.w3.org/2000/svg" id="Layer_1" data-name="Layer 1" viewBox="0 0 24 24">
  <path d="M24,18c0,3.314-2.686,6-6,6s-6-2.686-6-6,2.686-6,6-6,6,2.686,6,6Zm-5.233,2.888l-3.656-3.655c-.066,.246-.112,.5-.112,.767,0,1.654,1.346,3,3,3,.267,0,.521-.046,.767-.112Zm2.233-2.888c0-1.654-1.346-3-3-3-.267,0-.521,.046-.767,.112l3.656,3.655c.066-.246,.112-.5,.112-.767ZM5.5,11h4c.587,0,1.094-.059,1.543-.158,.155,.663,.747,1.158,1.457,1.158,.829,0,1.5-.671,1.5-1.5v-3.5C14,3.14,10.86,0,7,0,4.357,0,1.968,1.462,.764,3.817c-.377,.738-.085,1.642,.652,2.019,.738,.377,1.642,.084,2.019-.652,.688-1.347,2.055-2.183,3.565-2.183,2.206,0,4,1.794,4,4,0,.748,0,1-1.5,1H5.5c-3.033,0-5.5,2.467-5.5,5.5v5c0,3.032,2.467,5.5,5.5,5.5h4c.829,0,1.5-.672,1.5-1.5s-.671-1.5-1.5-1.5H5.5c-1.378,0-2.5-1.121-2.5-2.5v-5c0-1.378,1.122-2.5,2.5-2.5Z"/>
</svg>
