<?xml version="1.0" encoding="UTF-8"?>
<svg xmlns="http://www.w3.org/2000/svg" id="Layer_1" data-name="Layer 1" viewBox="0 0 24 24">
  <path d="m17.5,16c0,.829-.671,1.5-1.5,1.5s-1.5-.671-1.5-1.5.671-1.5,1.5-1.5,1.5.671,1.5,1.5Zm6.061,7.561c-.293.293-.677.439-1.061.439s-.768-.146-1.061-.439l-2.398-2.398c-.893.528-1.931.837-3.042.837-3.308,0-6-2.692-6-6s2.692-6,6-6,6,2.692,6,6c0,1.111-.309,2.148-.837,3.042l2.398,2.398c.586.586.586,1.535,0,2.121Zm-3.82-6.731c.334-.501.334-1.157,0-1.659-.632-.949-1.82-2.171-3.741-2.171-1.97,0-3.168,1.284-3.787,2.241-.294.454-.294,1.064,0,1.518.62.957,1.819,2.241,3.787,2.241,1.922,0,3.109-1.222,3.741-2.171Zm-10.241,4.171h-4c-1.378,0-2.5-1.121-2.5-2.5V5.5c0-1.379,1.122-2.5,2.5-2.5h5.5v4c0,1.105.895,2,2,2h5.5v-.009c.064-.002.127-.001.191-.012.816-.136,1.369-.908,1.233-1.726-.188-1.138-.72-2.17-1.536-2.986l-2.656-2.656c-1.023-1.024-2.441-1.611-3.889-1.611h-6.343C2.467,0,0,2.468,0,5.5v13c0,3.032,2.467,5.5,5.5,5.5h4c.829,0,1.5-.672,1.5-1.5s-.671-1.5-1.5-1.5Z"/>
</svg>
