<?xml version="1.0" encoding="UTF-8"?>
<svg xmlns="http://www.w3.org/2000/svg" id="Layer_1" data-name="Layer 1" viewBox="0 0 24 24">
  <path d="M20.17,2L14.902,.243c-2.87-.879-5.947,.73-6.864,3.62l-.041,.137h-2.497C2.468,4,0,6.467,0,9.5v9c0,3.032,2.468,5.5,5.5,5.5h5c1.721,0,3.258-.796,4.268-2.037,.234,.03,.468,.047,.7,.047,2.383,0,4.555-1.553,5.245-3.904l3.086-9.308c.844-2.875-.799-5.929-3.629-6.797Zm-7.17,16.5c0,1.379-1.121,2.5-2.5,2.5H5.5c-1.379,0-2.5-1.121-2.5-2.5V9.5c0-1.378,1.121-2.5,2.5-2.5h5c1.379,0,2.5,1.122,2.5,2.5v9Zm7.936-10.598l-3.086,9.309c-.267,.911-1.003,1.546-1.872,1.732,.012-.147,.022-.294,.022-.443V9.5c0-2.774-2.067-5.069-4.74-5.441,.607-.852,1.703-1.272,2.727-.959l5.268,1.757c1.302,.4,2.049,1.788,1.681,3.045Z"/>
</svg>
