<?xml version="1.0" encoding="UTF-8"?>
<svg xmlns="http://www.w3.org/2000/svg" id="Layer_1" data-name="Layer 1" viewBox="0 0 24 24">
  <path d="m13.5,19c3.033,0,5.5-2.467,5.5-5.5V5.5c0-3.033-2.467-5.5-5.5-5.5H5.5C2.467,0,0,2.467,0,5.5v8c0,3.033,2.467,5.5,5.5,5.5h8ZM3,13.5V5.5c0-1.378,1.122-2.5,2.5-2.5h8c1.378,0,2.5,1.122,2.5,2.5v8c0,1.378-1.122,2.5-2.5,2.5H5.5c-1.378,0-2.5-1.122-2.5-2.5Zm21-6v11c0,3.033-2.467,5.5-5.5,5.5H6.5c-.829,0-1.5-.671-1.5-1.5s.671-1.5,1.5-1.5h12c1.378,0,2.5-1.122,2.5-2.5V7.5c0-.829.671-1.5,1.5-1.5s1.5.671,1.5,1.5Zm-17.5,3.5c-.829,0-1.5-.671-1.5-1.5s.671-1.5,1.5-1.5h1.5v-1.5c0-.829.671-1.5,1.5-1.5s1.5.671,1.5,1.5v1.5h1.5c.829,0,1.5.671,1.5,1.5s-.671,1.5-1.5,1.5h-1.5v1.5c0,.829-.671,1.5-1.5,1.5s-1.5-.671-1.5-1.5v-1.5h-1.5Z"/>
</svg>
