<?xml version="1.0" encoding="UTF-8"?>
<svg xmlns="http://www.w3.org/2000/svg" id="Layer_1" data-name="Layer 1" viewBox="0 0 24 24">
  <path d="m22.396,3.242c-.976-.421-2.104-.221-2.875.508l-5.2,4.912-2.235-4.999c-.723-1.618-2.335-2.663-4.108-2.663h-.478c-1.93,0-3.5,1.57-3.5,3.5v4.5c-2.206,0-4,1.794-4,4,0,1.025.399,1.952,1.035,2.661-.637.776-1.035,1.757-1.035,2.839,0,2.485,2.015,4.5,4.5,4.5h6c2.485,0,4.5-2.015,4.5-4.5,0-1.083-.398-2.063-1.035-2.839.637-.709,1.035-1.635,1.035-2.661v-.854l6-5.666v4.899l-3.407,3.407c-.541.54-.701,1.346-.408,2.052s.975,1.162,1.739,1.162h1.576c1.93,0,3.5-1.57,3.5-3.5V5.68c0-1.061-.63-2.018-1.604-2.438Zm-15.396,1.258c0-.276.224-.5.5-.5h.478c.591,0,1.128.349,1.37.888l1.838,4.112h-4.186v-4.5Zm-3,7.5h8v1c0,.551-.449,1-1,1h-7c-.551,0-1-.449-1-1s.449-1,1-1Zm.5,8c-.828,0-1.5-.672-1.5-1.5s.672-1.5,1.5-1.5,1.5.672,1.5,1.5-.672,1.5-1.5,1.5Zm6,0c-.828,0-1.5-.672-1.5-1.5s.672-1.5,1.5-1.5,1.5.672,1.5,1.5-.672,1.5-1.5,1.5Z"/>
</svg>
