<?xml version="1.0" encoding="UTF-8"?>
<svg xmlns="http://www.w3.org/2000/svg" id="Layer_1" data-name="Layer 1" viewBox="0 0 24 24">
  <path d="M18,5h-4v-1.5c0-1.93-1.57-3.5-3.5-3.5h-1c-1.93,0-3.5,1.57-3.5,3.5v2.372c-2.376,1.26-4,3.757-4,6.628v6c0,3.032,2.467,5.5,5.5,5.5h9c3.033,0,5.5-2.468,5.5-5.5V9c0-2.206-1.794-4-4-4Zm1,4v7h-1c-.551,0-1-.448-1-1v-7h1c.551,0,1,.448,1,1ZM9,5v-1.5c0-.275,.224-.5,.5-.5h1c.276,0,.5,.225,.5,.5v1.5h-2Zm7.5,16H7.5c-1.207,0-2.217-.86-2.449-2h4.449c.829,0,1.5-.672,1.5-1.5v-3c0-.828-.671-1.5-1.5-1.5H5v-.5c0-2.481,2.019-4.5,4.5-4.5h4.5v7c0,2.206,1.794,4,4,4h.949c-.232,1.14-1.242,2-2.449,2Z"/>
</svg>
