<?xml version="1.0" encoding="UTF-8"?>
<svg xmlns="http://www.w3.org/2000/svg" id="Layer_1" data-name="Layer 1" viewBox="0 0 24 24">
  <path d="M15.617,8.873l-2.58,3.127h.663c.442,0,.8,.358,.8,.8s-.358,.8-.8,.8h-.9v.8h.9c.442,0,.8,.358,.8,.8s-.358,.8-.8,.8h-.9v.2c0,.442-.358,.8-.8,.8s-.8-.358-.8-.8v-.2h-.9c-.442,0-.8-.358-.8-.8s.358-.8,.8-.8h.9v-.8h-.9c-.442,0-.8-.358-.8-.8s.358-.8,.8-.8h.663l-2.58-3.127c-.281-.341-.233-.845,.108-1.126,.342-.282,.846-.232,1.126,.108l2.383,2.889,2.383-2.889c.281-.341,.784-.39,1.126-.108,.341,.281,.389,.786,.108,1.126Zm7.475-5.967L20.434,.248c-.529-.529-1.434-.154-1.434,.594v1.158h-7C6.486,2,2,6.486,2,12c0,1.001,.148,1.99,.439,2.94,.198,.646,.792,1.06,1.434,1.06,.146,0,.294-.021,.441-.066,.792-.243,1.237-1.082,.994-1.874-.204-.664-.308-1.357-.308-2.06,0-3.86,3.14-7,7-7h7v1.158c0,.749,.905,1.123,1.434,.594l2.658-2.658c.328-.328,.328-.86,0-1.188Zm-3.406,5.16c-.792,.243-1.237,1.083-.994,1.875,.204,.665,.308,1.357,.308,2.06,0,3.859-3.14,7-7,7H5v-1.158c0-.749-.905-1.123-1.434-.594l-2.658,2.658c-.328,.328-.328,.86,0,1.188l2.658,2.658c.529,.529,1.434,.154,1.434-.594v-1.158h7c5.514,0,10-4.486,10-10,0-1.001-.148-1.99-.439-2.94-.244-.791-1.08-1.237-1.875-.994Z"/>
</svg>
