<?xml version="1.0" encoding="UTF-8"?>
<svg xmlns="http://www.w3.org/2000/svg" id="Layer_1" data-name="Layer 1" viewBox="0 0 24 24">
  <path d="m22.637,10.202l-.858-.624c-.82-.597-1.857-.728-2.778-.404v-3.114c0-1.056-.51-2.056-1.363-2.676l-3.859-2.807c-1.063-.773-2.492-.773-3.557,0l-3.858,2.806c-.854.621-1.363,1.621-1.363,2.677v3.114c-.92-.324-1.958-.193-2.778.404l-.859.625c-.853.621-1.362,1.622-1.362,2.677v6.121c0,2.757,2.243,5,5,5h14c2.757,0,5-2.243,5-5v-6.121c0-1.055-.509-2.056-1.363-2.677Zm-14.509-4.392l3.887-2.806,3.859,2.807c.08.058.127.151.127.25v14.939h-2v-3c0-1.105-.895-2-2-2s-2,.895-2,2v3h-2V6.061c0-.099.047-.192.127-.25Zm-5.127,13.189v-6.121c0-.099.048-.193.127-.25l.887-.624.986.717v8.278c-1.103,0-2-.897-2-2Zm18,0c0,1.103-.897,2-2,2v-8.27l1.015-.725.857.624c.08.058.128.152.128.251v6.121Zm-11.818-7.91l.654-1.09-.654-1.09c-.213-.355.043-.807.457-.807h1.336l.568-.946c.207-.345.707-.345.914,0l.568.946h1.336c.414,0,.67.452.457.807l-.654,1.09.654,1.09c.213.355-.043.807-.457.807h-1.336l-.568.946c-.207.345-.707.345-.914,0l-.568-.946h-1.336c-.414,0-.67-.452-.457-.807Z"/>
</svg>
