<?xml version="1.0" encoding="UTF-8"?>
<svg xmlns="http://www.w3.org/2000/svg" id="Layer_1" data-name="Layer 1" viewBox="0 0 24 24">
  <path d="M16.5,12.475c0,1.947-2.538,4.365-3.802,5.38-.407,.327-.989,.327-1.396,0-1.264-1.015-3.802-3.433-3.802-5.38,0-1.367,1.007-2.475,2.25-2.475,1.095,0,2.042,.86,2.243,2h0c.201-1.14,1.162-2,2.257-2,1.243,0,2.25,1.108,2.25,2.475Zm7.5-3.975v9c0,3.033-2.468,5.5-5.5,5.5H5.5c-3.032,0-5.5-2.467-5.5-5.5V6.5C0,3.467,2.468,1,5.5,1h2.528c.54,0,1.081,.128,1.564,.369l3.156,1.578c.068,.035,.146,.053,.223,.053h5.528c3.032,0,5.5,2.467,5.5,5.5Zm-3,0c0-.171-.018-.338-.051-.5H3v9.5c0,1.378,1.121,2.5,2.5,2.5h13c1.379,0,2.5-1.122,2.5-2.5V8.5Z"/>
</svg>
