<?xml version="1.0" encoding="UTF-8"?>
<svg xmlns="http://www.w3.org/2000/svg" id="Layer_1" data-name="Layer 1" viewBox="0 0 24 24">
  <path d="m6.8,11c-.442,0-.8.358-.8.8v6.4c0,.442.358.8.8.8s.8-.358.8-.8v-2.2h.5c1.365,0,2.474-1.093,2.5-2.452.026-1.401-1.154-2.548-2.556-2.548h-1.244Zm2.2,2.5c0,.496-.404.9-.9.9h-.5v-1.8h.5c.496,0,.9.404.9.9Zm9.401-1.7v6.4c0,.442-.358.8-.8.8s-.8-.358-.8-.8v-6.4c0-.442.358-.8.8-.8s.8.358.8.8Zm3.3-.8h-1.5c-.442,0-.8.358-.8.8v6.4c0,.442.358.8.8.8h1.5c1.27,0,2.3-1.03,2.3-2.3v-3.4c0-1.27-1.03-2.3-2.3-2.3Zm.7,5.7c0,.386-.314.7-.7.7s-.7,0-.7,0v-4.802s.314,0,.7,0,.7.314.7.7v3.4Zm-9.144-5.699c-.757,0-1.281.587-1.385,1.167l-1.2,5.976c-.089.443.25.857.702.857.345,0,.641-.246.704-.585l.166-.889h2.006l.157.883c.061.342.358.591.705.591h.01c.453,0,.793-.416.701-.86l-1.221-5.947c-.12-.668-.589-1.192-1.346-1.192Zm-.645,5l.624-3.295.638,3.295h-1.261Zm6.079-7.001c-.065.011-5.691,0-5.691,0-1.105,0-2-.895-2-2V3h-5.5c-1.378,0-2.5,1.122-2.5,2.5v13c0,1.378,1.122,2.5,2.5,2.5h11c.828,0,1.5.671,1.5,1.5s-.672,1.5-1.5,1.5H5.5c-3.033,0-5.5-2.467-5.5-5.5V5.5C0,2.467,2.467,0,5.5,0h6.343c1.448,0,2.866.587,3.889,1.611l2.656,2.657c.816.815,1.348,1.848,1.536,2.986.136.817-.417,1.61-1.233,1.746Z"/>
</svg>
