<?xml version="1.0" encoding="UTF-8"?>
<svg xmlns="http://www.w3.org/2000/svg" id="Layer_1" data-name="Layer 1" viewBox="0 0 24 24">
  <path d="m18,12c-3.314,0-6,2.686-6,6s2.686,6,6,6,6-2.686,6-6-2.686-6-6-6Zm-1,3c0-.553.448-1,1-1s1,.447,1,1v2c0,.553-.448,1-1,1s-1-.447-1-1v-2Zm1,7c-.828,0-1.5-.672-1.5-1.5s.672-1.5,1.5-1.5,1.5.672,1.5,1.5-.672,1.5-1.5,1.5Zm-7.039,1.171c-.263.525-.792.829-1.343.829-.226,0-.454-.051-.669-.158C6.849,22.792-.002,18.861-.002,12.342l.002-5.297C0,4.768,1.454,2.754,3.617,2.036L9.528.076c.307-.102.638-.102.944,0l5.911,1.96c2.163.718,3.617,2.731,3.617,5.01v1.454c0,.828-.671,1.5-1.5,1.5s-1.5-.672-1.5-1.5v-1.454c0-.983-.627-1.853-1.561-2.162l-5.439-1.804-5.439,1.804c-.934.31-1.561,1.179-1.561,2.162l-.002,5.297c0,4.798,5.582,7.961,7.292,8.815.741.37,1.042,1.271.671,2.013Z"/>
</svg>
