<?xml version="1.0" encoding="UTF-8"?>
<svg xmlns="http://www.w3.org/2000/svg" id="Layer_1" data-name="Layer 1" viewBox="0 0 24 24">
  <path d="m7.5,12c3.032,0,5.5-2.467,5.5-5.5S10.532,1,7.5,1,2,3.467,2,6.5s2.468,5.5,5.5,5.5Zm0-8c1.379,0,2.5,1.122,2.5,2.5s-1.121,2.5-2.5,2.5-2.5-1.122-2.5-2.5,1.121-2.5,2.5-2.5Zm7.5,17.5v1c0,.829-.672,1.5-1.5,1.5s-1.5-.671-1.5-1.5v-1c0-2.481-2.019-4.5-4.5-4.5s-4.5,2.019-4.5,4.5v1c0,.829-.672,1.5-1.5,1.5s-1.5-.671-1.5-1.5v-1c0-4.136,3.364-7.5,7.5-7.5s7.5,3.364,7.5,7.5ZM21.999,0l-5.999.002c-1.1,0-2,.901-2,2.001v7.352c.002,1.069,1.206,1.695,2.081,1.081l2.047-1.436h3.872c1.105,0,2-.895,2-2V2C24,.895,23.104,0,21.999,0Zm-.016,4.24l-2.084,2.147c-.796.823-2.118.817-2.905-.015l-.769-.813c-.367-.388-.364-.995.006-1.379.395-.411,1.054-.408,1.445.006l.777.821,2.092-2.156c.391-.405,1.04-.407,1.433-.004.378.387.38,1.004.004,1.394Z"/>
</svg>
