<?xml version="1.0" encoding="UTF-8"?>
<svg xmlns="http://www.w3.org/2000/svg" id="Layer_1" data-name="Layer 1" viewBox="0 0 24 24">
  <path d="m18.5,10.5c0,.496-.404.9-.9.9h-.5v-1.8h.5c.496,0,.9.404.9.9Zm5.5,1.5c0,1.38-.537,2.678-1.514,3.654l-6.832,6.832c-1.008,1.007-2.331,1.511-3.654,1.511s-2.646-.503-3.654-1.51L1.514,15.654c-.977-.976-1.514-2.273-1.514-3.654s.537-2.678,1.514-3.654L8.346,1.514c2.016-2.015,5.293-2.014,7.309,0l6.832,6.833c.977.976,1.514,2.273,1.514,3.654Zm-15.898-6h7.797l-2.365-2.365c-.846-.845-2.221-.845-3.066,0l-2.365,2.365Zm5.198,2c-.442,0-.8.358-.8.8v6.4c0,.442.358.8.8.8s.8-.358.8-.8v-6.4c0-.442-.358-.8-.8-.8Zm-5.531,4.8l1.164,2.56c.181.398.499.64.841.64.516,0,.945-.295.988-1l.445-6.142c.034-.463-.333-.858-.798-.858-.419,0-.768.324-.798.742l-.265,3.66-.848-1.866c-.284-.625-1.172-.625-1.457,0l-.848,1.866-.265-3.66c-.03-.418-.379-.742-.798-.742-.465,0-.831.394-.798.858l.445,6.142c.043.705.472,1,.988,1,.342,0,.66-.242.841-.64l1.164-2.56Zm8.129,5.2h-7.797l2.365,2.365c.846.845,2.221.845,3.066,0l2.365-2.365Zm4.188-7.758c-.13-1.301-1.322-2.242-2.63-2.242h-1.157c-.442,0-.8.358-.8.8v6.4c0,.442.358.8.8.8s.8-.358.8-.8v-2.2h.5c1.466,0,2.637-1.261,2.487-2.758Z"/>
</svg>
