<?xml version="1.0" encoding="UTF-8"?>
<svg xmlns="http://www.w3.org/2000/svg" id="Layer_1" data-name="Layer 1" viewBox="0 0 24 24">
  <path d="M18,18.5h-6.189c-.675,2.63-3.058,4.5-5.81,4.5-3.252,0-6-2.748-6-6,0-1.479,.543-2.899,1.528-4,.009-.01,1.203-1.059,1.901-1.382,1.005-.465,1.999,.7,1.438,1.655-.484,.824-.912,1.515-1.103,1.728-.493,.55-.764,1.26-.764,1.999,0,1.598,1.402,3,3,3,1.444,0,2.684-1.028,2.948-2.444,.223-1.191,1.254-2.056,2.453-2.056h6.598c.829,0,1.5,.671,1.5,1.5s-.671,1.5-1.5,1.5Zm-13.286-2.272c-.426,.71-.196,1.632,.514,2.058,.242,.145,.508,.214,.771,.214,.51,0,1.006-.26,1.288-.728l3.22-5.366c.615-1.025,.402-2.358-.504-3.168-.853-.763-1.189-1.901-.898-3.046,.255-1.007,1.069-1.825,2.073-2.084,1.102-.282,2.215,.017,2.979,.806,.206,.213,.925,1.346,1.74,2.674,.598,.975,2.105,.557,2.105-.587,0-2.641-1.679-4.163-1.689-4.174-1.525-1.574-3.724-2.184-5.884-1.624-2.049,.529-3.71,2.198-4.231,4.251-.53,2.088,.056,4.258,1.53,5.756l-3.011,5.018Zm19.153-.502c-.488-2.343-2.405-4.203-4.77-4.627-.942-.168-1.903-.117-2.801,.147l-3.01-5.017c-.426-.71-1.348-.941-2.058-.515-.71,.426-.941,1.348-.515,2.058l3.218,5.364c.615,1.025,1.895,1.465,3.04,1.045,.507-.185,1.046-.229,1.597-.129,1.153,.207,2.125,1.147,2.362,2.287,.194,.931-.02,1.837-.602,2.553-.573,.705-1.422,1.109-2.329,1.109h-2.487c-1.178,0-1.58,1.535-.577,2.154,1.372,.846,3.043,.846,3.065,.846,1.814,0,3.511-.808,4.657-2.217s1.587-3.252,1.21-5.058Z"/>
</svg>
