<?xml version="1.0" encoding="UTF-8"?>
<svg xmlns="http://www.w3.org/2000/svg" id="Layer_1" data-name="Layer 1" viewBox="0 0 24 24">
  <path d="M12,7c-2.761,0-5,2.239-5,5s2.239,5,5,5,5-2.239,5-5-2.239-5-5-5Zm0,9h0c-.552,0-1-.448-1-1h0c0-.552,.448-1,1-1h0c.552,0,1,.448,1,1h0c0,.552-.448,1-1,1Zm0-3h0c-.552,0-1-.448-1-1v-3c0-.552,.448-1,1-1h0c.552,0,1,.448,1,1v3c0,.552-.448,1-1,1Zm0,8c-5.971,0-9.474-3.715-11.031-5.93-1.291-1.837-1.291-4.305,.002-6.142C2.525,6.715,6.026,3,12,3s9.475,3.715,11.03,5.93c1.292,1.835,1.292,4.304,0,6.141-1.555,2.214-5.057,5.929-11.029,5.929Zm0-15c-4.617,0-7.354,2.916-8.575,4.654-.567,.806-.567,1.887-.002,2.692,1.223,1.738,3.962,4.654,8.577,4.654s7.354-2.916,8.575-4.654c.567-.805,.567-1.886,.002-2.69-1.222-1.739-3.96-4.655-8.577-4.655Z"/>
</svg>
