<?xml version="1.0" encoding="UTF-8"?>
<svg xmlns="http://www.w3.org/2000/svg" id="Layer_1" data-name="Layer 1" viewBox="0 0 24 24">
  <path d="M7,22c0,1.105-.895,2-2,2s-2-.895-2-2,.895-2,2-2,2,.895,2,2ZM17.5,5c1.381,0,2.5-1.119,2.5-2.5s-1.119-2.5-2.5-2.5-2.5,1.119-2.5,2.5,1.119,2.5,2.5,2.5Zm-2.521,13.02c-.819-.139-1.589,.421-1.723,1.238l-.491,3c-.134,.817,.421,1.589,1.238,1.723,.082,.014,.164,.02,.244,.02,.722,0,1.358-.522,1.479-1.258l.491-3c.134-.817-.421-1.589-1.238-1.723Zm-6.649-4.527l-1.06-.911c-1.2-.93-2.924-.722-3.869,.466l-2.798,3.52c-.937,1.179-.762,2.89,.395,3.855l.239,.275c.544-1.565,2.017-2.697,3.764-2.697,.986,0,1.877,.372,2.575,.965l1.232-1.773c.953-1.21,.739-2.757-.479-3.7Zm14.222,4.269c-.03-.092-.068-.182-.115-.267-.202-.364-.494-.675-.844-.896l-2.517-1.602,.318-2.544,2.363,1.35c.235,.134,.49,.197,.743,.197,.521,0,1.027-.271,1.304-.756,.411-.72,.161-1.636-.558-2.047l-3.513-2.007c-.049-.748-.335-1.467-.839-2.037-.479-.543-1.125-.89-1.817-1.033-.115-.048-.803-.111-1.006-.049-.838,.062-1.66,.398-2.263,1.052l-3.855,4.386c-.547,.622-.486,1.57,.136,2.117,.622,.546,1.569,.486,2.117-.137l2.299-2.616-.305,2.136c-.195,1.359,.428,2.713,1.585,3.448l4.021,2.559,1.269,3.943c.205,.636,.793,1.04,1.427,1.04,.152,0,.307-.023,.46-.072,.789-.254,1.222-1.099,.968-1.888l-1.377-4.278Z"/>
</svg>
