<?xml version="1.0" encoding="UTF-8"?>
<svg xmlns="http://www.w3.org/2000/svg" id="Layer_1" data-name="Layer 1" viewBox="0 0 24 24">
  <path d="M6.5,13c3.067,0,5.638-2.138,6.318-5h6.682c.828,0,1.5-.671,1.5-1.5s-.672-1.5-1.5-1.5h-6.682C12.138,2.138,9.567,0,6.5,0,2.916,0,0,2.916,0,6.5s2.916,6.5,6.5,6.5Zm0-10c1.93,0,3.5,1.57,3.5,3.5s-1.57,3.5-3.5,3.5-3.5-1.57-3.5-3.5,1.57-3.5,3.5-3.5Zm3.455,19.015c-.427,1.157-1.565,1.985-2.9,1.985H2.946c-1.336,0-2.473-.827-2.9-1.985-.182-.494,.207-1.015,.746-1.015H9.209c.539,0,.928,.522,.746,1.015Zm12.545-9.015h-2.592c.056-.157,.092-.324,.092-.5,0-.829-.672-1.5-1.5-1.5h-2c-.828,0-1.5,.671-1.5,1.5,0,.176,.036,.343,.092,.5h-2.592c-.828,0-1.5,.672-1.5,1.5,0,.652,.419,1.201,1,1.408v5.092c0,1.654,1.346,3,3,3h5c1.654,0,3-1.346,3-3v-5.092c.581-.207,1-.756,1-1.408,0-.828-.672-1.5-1.5-1.5Zm-2.5,8h-5v-5h5v5Zm-10.045-2.985c-.427,1.157-1.565,1.985-2.9,1.985H2.946c-1.336,0-2.473-.827-2.9-1.985-.182-.494,.207-1.015,.746-1.015H9.209c.539,0,.928,.522,.746,1.015Z"/>
</svg>
