<?xml version="1.0" encoding="UTF-8"?>
<svg xmlns="http://www.w3.org/2000/svg" id="Layer_1" data-name="Layer 1" viewBox="0 0 24 24">
  <path d="M.013,4.758c-.15-1.496,1.021-2.758,2.487-2.758,.187,0,.556,0,.556,0,.232-1.14,1.235-2,2.444-2s2.212,.86,2.444,2c0,0,.369,0,.556,0,1.466,0,2.637,1.261,2.487,2.758-.13,1.301-1.322,2.242-2.63,2.242h-.857l-1.379,2.068c-.296,.443-.947,.443-1.243,0l-1.379-2.068h-.857C1.335,7,.143,6.059,.013,4.758Zm23.987,4.742v9c0,3.032-2.467,5.5-5.5,5.5H4.369c-1.617,0-2.822-.469-3.583-1.394-.712-.865-.947-2.04-.68-3.396,1.029-5.219,4.769-8.211,10.263-8.211h10.631v-1.5c0-2.481-2.019-4.5-4.5-4.5h-2c-.829,0-1.5-.672-1.5-1.5s.671-1.5,1.5-1.5h2c4.136,0,7.5,3.364,7.5,7.5Zm-3,4.5H10.369c-4.099,0-6.562,1.948-7.319,5.79-.083,.421-.062,.77,.054,.911,.119,.145,.514,.299,1.266,.299h14.131c1.378,0,2.5-1.121,2.5-2.5v-4.5Z"/>
</svg>
