<?xml version="1.0" encoding="UTF-8"?>
<svg xmlns="http://www.w3.org/2000/svg" id="Layer_1" data-name="Layer 1" viewBox="0 0 24 24">
  <path d="M22.5,13.008c.829,0,1.5-.671,1.5-1.5V7.508c0-.829-.671-1.5-1.5-1.5-.46,0-.866,.211-1.141,.536-.332-.697-.781-1.334-1.343-1.867-.845-.799-1.875-1.319-3.016-1.543V1.508C17,.68,16.329,.008,15.5,.008s-1.5,.671-1.5,1.5v1.661l-5.922,.685c-.779-1.164-2.133-1.829-3.506-1.845C1.987,1.893-.215,4.342,.01,6.9l.4,5.782c.091,1.305,1.187,2.326,2.495,2.326h.595v1c0,.553,.448,1,1,1s1-.447,1-1v-1h.571c1.302,0,2.397-1.018,2.493-2.317l.025-.339,2.979,.406c.247,.034,.433,.247,.433,.496v5.754H1.5C.672,19.008,0,19.68,0,20.508s.671,1.5,1.5,1.5H22.5c.829,0,1.5-.672,1.5-1.5s-.671-1.5-1.5-1.5h-.5v-6.092c.157,.056,.324,.092,.5,.092Zm-16.894-1H3.372l-.368-5.312c-.057-.878,.597-1.702,1.536-1.688,.849-.007,1.529,.853,1.457,1.683l-.39,5.316Zm9.394,7v-5.754c0-1.742-1.301-3.233-3.027-3.468l-3.164-.431,.18-2.449s0-.007,0-.01c.003-.043-.006-.085-.005-.128l6.6-.765c.892-.048,1.734,.253,2.37,.855,.674,.637,1.045,1.523,1.045,2.494v9.656h-4Z"/>
</svg>
