<?xml version="1.0" encoding="UTF-8"?>
<svg xmlns="http://www.w3.org/2000/svg" id="Layer_1" data-name="Layer 1" viewBox="0 0 24 24">
  <path d="M3.557,3.321c-.422-.712-.187-1.632,.526-2.055,.712-.422,1.633-.188,2.055,.526l.593,1c.422,.712,.187,1.632-.526,2.055-.24,.142-.503,.209-.763,.209-.512,0-1.012-.262-1.292-.735l-.593-1ZM21.185,14.331c-1.698,2.154-5.122,4.669-9.185,4.669-4.147,0-7.541-2.49-9.188-4.623-1.075-1.392-1.072-3.324,.008-4.697,1.698-2.159,5.121-4.68,9.18-4.68,4.125,0,7.529,2.493,9.19,4.628,1.083,1.391,1.081,3.325-.005,4.703Zm-2.362-2.86c-1.003-1.289-3.569-3.471-6.823-3.471-3.19,0-5.789,2.222-6.822,3.534-.232,.296-.229,.702,.009,1.009,.991,1.284,3.542,3.457,6.813,3.457,3.196,0,5.796-2.216,6.828-3.526,.23-.291,.228-.704-.005-1.003Zm-6.823-2.471c-1.657,0-3,1.343-3,3s1.343,3,3,3,3-1.343,3-3-1.343-3-3-3Zm0-5c.829,0,1.5-.671,1.5-1.5V1.5c0-.829-.671-1.5-1.5-1.5s-1.5,.671-1.5,1.5v1c0,.829,.671,1.5,1.5,1.5Zm5.795,.847c.24,.142,.503,.209,.763,.209,.512,0,1.012-.263,1.292-.735l.593-1c.422-.712,.187-1.632-.526-2.055-.71-.42-1.632-.187-2.055,.526l-.593,1c-.422,.712-.187,1.632,.526,2.055Zm2.055,14.832c-.422-.713-1.342-.948-2.055-.526-.713,.423-.948,1.343-.526,2.055l.593,1c.28,.473,.78,.735,1.292,.735,.26,0,.523-.067,.763-.209,.713-.423,.948-1.343,.526-2.055l-.593-1Zm-7.85,.321c-.829,0-1.5,.671-1.5,1.5v1c0,.829,.671,1.5,1.5,1.5s1.5-.671,1.5-1.5v-1c0-.829-.671-1.5-1.5-1.5Zm-5.795-.847c-.711-.422-1.631-.187-2.055,.526l-.593,1c-.422,.712-.187,1.632,.526,2.055,.24,.142,.503,.209,.763,.209,.512,0,1.012-.263,1.292-.735l.593-1c.422-.712,.187-1.632-.526-2.055Z"/>
</svg>
