<?xml version="1.0" encoding="UTF-8"?>
<svg xmlns="http://www.w3.org/2000/svg" id="Layer_1" data-name="Layer 1" viewBox="0 0 24 24">
  <path d="m20.5,16h-.5v-2.5c0-.829-.672-1.5-1.5-1.5s-1.5.671-1.5,1.5v2.5h-3.5c-1.93,0-3.5,1.57-3.5,3.5v.5c0,.551-.448,1-1,1s-1-.449-1-1V4c0-.347-.058-.678-.142-1h3.642c.828,0,1.5-.671,1.5-1.5s-.672-1.5-1.5-1.5h-7.5c-.104,0-.205.011-.303.031C1.635.188,0,1.898,0,4v.5c0,1.93,1.57,3.5,3.5,3.5h1.5v12c0,2.206,1.794,4,4,4h11c2.206,0,4-1.794,4-4v-.5c0-1.93-1.57-3.5-3.5-3.5ZM5,5h-1.5c-.275,0-.5-.224-.5-.5v-.5c0-.551.448-1,1-1s1,.449,1,1v1Zm16,15c0,.551-.448,1-1,1h-7.127c.083-.32.127-.655.127-1v-.5c0-.276.225-.5.5-.5h7c.275,0,.5.224.5.5v.5Zm-10.435-9.227c.194-1.587.986-5.454,4.208-8.057C17.653.39,21.203-.003,22.97,0c.664.001,1.162.611.999,1.255-.451,1.784-1.86,5.247-4.796,7.619-1.495,1.207-3.036,1.879-4.4,2.251.612-2.125,3.089-5.89,5.228-8.241-3.62,2.004-6.464,5.629-7.588,8.647-.224.572-.405,1.147-.563,1.72-.121.44-.512.749-.968.749-.661,0-1.146-.628-.97-1.265.179-.645.391-1.302.652-1.962Z"/>
</svg>
