<?xml version="1.0" encoding="UTF-8"?>
<svg xmlns="http://www.w3.org/2000/svg" id="Layer_1" data-name="Layer 1" viewBox="0 0 24 24">
  <path d="m17.5,11c-3.59,0-6.5,2.91-6.5,6.5s2.91,6.5,6.5,6.5,6.5-2.91,6.5-6.5-2.91-6.5-6.5-6.5Zm4.217,7.185l-3.063,3.063c-.61.61-1.653.178-1.653-.685v-1.563h-2.501c-.828,0-1.5-.671-1.5-1.5s.672-1.5,1.5-1.5h2.501v-1.563c0-.863,1.043-1.295,1.653-.685l3.063,3.063c.378.378.378.991,0,1.369Zm-11.717,4.315c0,.828-.671,1.5-1.5,1.5h-3c-3.033,0-5.5-2.468-5.5-5.5V5.5C0,2.467,2.467,0,5.5,0h7c3.033,0,5.5,2.467,5.5,5.5v2c0,.829-.671,1.5-1.5,1.5s-1.5-.671-1.5-1.5v-2c0-1.378-1.122-2.5-2.5-2.5h-7c-1.378,0-2.5,1.122-2.5,2.5v13c0,1.379,1.122,2.5,2.5,2.5h3c.829,0,1.5.672,1.5,1.5Zm-2-16c0,.828-.672,1.5-1.5,1.5s-1.5-.672-1.5-1.5.672-1.5,1.5-1.5,1.5.672,1.5,1.5Zm3.5,1.5c-.828,0-1.5-.672-1.5-1.5s.672-1.5,1.5-1.5,1.5.672,1.5,1.5-.672,1.5-1.5,1.5Zm-3.5,3.5c0,.828-.672,1.5-1.5,1.5s-1.5-.672-1.5-1.5.672-1.5,1.5-1.5,1.5.672,1.5,1.5Zm0,5c0,.828-.672,1.5-1.5,1.5s-1.5-.672-1.5-1.5.672-1.5,1.5-1.5,1.5.672,1.5,1.5Z"/>
</svg>
