<?xml version="1.0" encoding="UTF-8"?>
<svg xmlns="http://www.w3.org/2000/svg" id="Layer_1" data-name="Layer 1" viewBox="0 0 24 24">
  <path d="M24,20.5c0,.828-.672,1.5-1.5,1.5H1.5c-.828,0-1.5-.672-1.5-1.5s.672-1.5,1.5-1.5H9.518c-.66-.129-1.29-.447-1.801-.958L2.455,12.124c-.449-.509-.615-1.181-.615-1.854,0-2.116,2.379-2.27,2.429-2.27H13.5c.828,0,1.5,.671,1.5,1.5s-.672,1.5-1.5,1.5h-5.346l3.481,3.793,3.262-3.376c.108-.112,.233-.207,.371-.28l5.524-2.959c.73-.39,1.639-.116,2.03,.614,.392,.73,.116,1.639-.614,2.03l-5.317,2.848s-3.673,3.877-4.205,4.354c-.839,.823-1.251,.866-1.819,.977h11.634c.828,0,1.5,.672,1.5,1.5ZM3.5,7c1.381,0,2.5-1.119,2.5-2.5s-1.119-2.5-2.5-2.5S1,3.119,1,4.5s1.119,2.5,2.5,2.5Z"/>
</svg>
