<?xml version="1.0" encoding="UTF-8"?>
<svg xmlns="http://www.w3.org/2000/svg" id="Layer_1" data-name="Layer 1" viewBox="0 0 24 24">
  <path d="M12.5,13.5c0,.828-.671,1.5-1.5,1.5H5.5c-3.033,0-5.5-2.468-5.5-5.5v-2C0,4.468,2.467,2,5.5,2h13c3.032,0,5.5,2.468,5.5,5.5,0,.828-.672,1.5-1.5,1.5s-1.5-.672-1.5-1.5c0-1.379-1.121-2.5-2.5-2.5H5.5c-1.378,0-2.5,1.121-2.5,2.5v2c0,1.379,1.122,2.5,2.5,2.5h5.5c.829,0,1.5,.672,1.5,1.5Zm11.5,4.5v3c0,1.657-1.343,3-3,3h-5c-1.657,0-3-1.343-3-3v-3c0-.885,.39-1.672,1-2.221v-2.279c0-2.481,2.019-4.5,4.5-4.5s4.5,2.019,4.5,4.5v2.279c.61,.549,1,1.336,1,2.221Zm-7-4.5v1.5h3v-1.5c0-.827-.673-1.5-1.5-1.5s-1.5,.673-1.5,1.5Zm3,6c0-.828-.672-1.5-1.5-1.5s-1.5,.672-1.5,1.5,.672,1.5,1.5,1.5,1.5-.672,1.5-1.5ZM11.029,10.457c.195,.195,.451,.293,.707,.293s.512-.098,.707-.293l2.5-2.5c.391-.391,.391-1.023,0-1.414s-1.023-.391-1.414,0l-.543,.543-.543-.543c-.391-.391-1.023-.391-1.414,0s-.391,1.023,0,1.414l.543,.543-.543,.543c-.391,.391-.391,1.023,0,1.414Zm-1.836-3.914c-.391-.391-1.023-.391-1.414,0l-.543,.543-.543-.543c-.391-.391-1.023-.391-1.414,0s-.391,1.023,0,1.414l.543,.543-.543,.543c-.391,.391-.391,1.023,0,1.414,.195,.195,.451,.293,.707,.293s.512-.098,.707-.293l.543-.543,.543,.543c.195,.195,.451,.293,.707,.293s.512-.098,.707-.293c.391-.391,.391-1.023,0-1.414l-.543-.543,.543-.543c.391-.391,.391-1.023,0-1.414Z"/>
</svg>
