<?xml version="1.0" encoding="UTF-8"?>
<svg xmlns="http://www.w3.org/2000/svg" id="Layer_1" data-name="Layer 1" viewBox="0 0 24 24">
  <path d="M18.5,4H5.5C2.467,4,0,6.468,0,9.5v5c0,3.032,2.467,5.5,5.5,5.5h13c3.033,0,5.5-2.468,5.5-5.5v-5c0-3.032-2.467-5.5-5.5-5.5Zm2.5,10.5c0,1.379-1.122,2.5-2.5,2.5H5.5c-1.378,0-2.5-1.121-2.5-2.5v-5c0-1.379,1.122-2.5,2.5-2.5h13c1.378,0,2.5,1.121,2.5,2.5v5Zm-2.224-2.726l-1.953,1.92c-.455,.455-1.193,.455-1.648,0l-1.953-1.92c-.474-.467-.144-1.274,.522-1.274h4.51c.666,0,.996,.807,.522,1.274Z"/>
</svg>
