<?xml version="1.0" encoding="UTF-8"?>
<svg xmlns="http://www.w3.org/2000/svg" id="Layer_1" data-name="Layer 1" viewBox="0 0 24 24">
  <path d="m18,18c0,3.309-2.691,6-6,6s-6-2.691-6-6c0-.223.013-.443.036-.66.088-.823.82-1.425,1.651-1.331.823.088,1.42.827,1.331,1.651-.012.111-.019.225-.019.34,0,1.654,1.346,3,3,3s3-1.346,3-3c0-1.302-.839-2.402-2-2.816v1.27c0,.452-.534.693-.873.394l-2.71-2.389c-.556-.48-.556-1.32,0-1.8l2.71-2.389c.339-.299.873-.058.873.394v1.426c2.833.478,5,2.942,5,5.91Zm-.19-13.055c-.148-.03-.263-.115-.322-.243C15.9,1.358,12.226-.507,8.559.163,5.21.775,2.584,3.449,2.024,6.817c-.164.99-.152,1.983.034,2.95.02.103-.046.249-.162.354-1.188,1.081-1.896,2.727-1.896,4.402,0,1.341.488,2.633,1.375,3.638.297.336.71.508,1.126.508.353,0,.706-.124.991-.375.621-.548.681-1.496.133-2.117-.403-.457-.625-1.044-.625-1.653,0-.82.359-1.677.915-2.183.891-.809,1.308-2.013,1.089-3.143-.119-.616-.126-1.252-.021-1.889.348-2.09,2.039-3.814,4.115-4.194,2.367-.433,4.656.72,5.677,2.872.468.99,1.359,1.683,2.447,1.901,2.188.437,3.777,2.376,3.777,4.636,0,.89-.259,1.75-.749,2.487-.459.69-.271,1.621.418,2.08s1.621.271,2.08-.418c.818-1.231,1.251-2.666,1.251-4.172,0-3.662-2.604-6.84-6.19-7.555Z"/>
</svg>
