<?xml version="1.0" encoding="UTF-8"?>
<svg xmlns="http://www.w3.org/2000/svg" id="Layer_1" data-name="Layer 1" viewBox="0 0 24 24">
  <path d="m8.5,16h-.5v-.5c0-.828-.672-1.5-1.5-1.5h-2c-.828,0-1.5.672-1.5,1.5v.5h-.5c-1.381,0-2.5,1.119-2.5,2.5v3c0,1.381,1.119,2.5,2.5,2.5h6c1.381,0,2.5-1.119,2.5-2.5v-3c0-1.381-1.119-2.5-2.5-2.5Zm-2,4h-2c-.552,0-1-.448-1-1s.448-1,1-1h2c.552,0,1,.448,1,1s-.448,1-1,1Zm17.5-2.5c0,2.481-2.019,4.5-4.5,4.5h-5c-.829,0-1.5-.672-1.5-1.5s.671-1.5,1.5-1.5h5c.827,0,1.5-.673,1.5-1.5s-.673-1.5-1.5-1.5h-5c-2.481,0-4.5-2.019-4.5-4.5,0-1.942,1.262-3.799,3-4.414.778-.275,1.638.132,1.914.914.276.781-.133,1.638-.914,1.914-.551.195-1,.906-1,1.586,0,.827.673,1.5,1.5,1.5h5c2.481,0,4.5,2.019,4.5,4.5Zm-7-9V1.5c0-.828.671-1.5,1.5-1.5.66,0,1.315.128,1.926.377l3.095,1.259c.639.399.639,1.329,0,1.729l-3.521,1.693v3.443c0,.828-.671,1.5-1.5,1.5s-1.5-.672-1.5-1.5Z"/>
</svg>
