<?xml version="1.0" encoding="UTF-8"?>
<svg xmlns="http://www.w3.org/2000/svg" id="Layer_1" data-name="Layer 1" viewBox="0 0 24 24">
  <path d="M14.4,10.25c0,.358-.292,.65-.65,.65h-.65v-1.3h.65c.358,0,.65,.292,.65,.65Zm9.6-1.25v5c0,2.209-1.791,4-4,4H4c-2.209,0-4-1.791-4-4v-5c0-2.209,1.791-4,4-4H20c2.209,0,4,1.791,4,4Zm-16.5-.2c0-.442-.358-.8-.8-.8H3.3c-.442,0-.8,.358-.8,.8s.358,.8,.8,.8h.862v4.601c0,.442,.358,.8,.8,.8s.8-.358,.8-.8v-4.601h.939c.442,0,.8-.358,.8-.8Zm2.6,0c0-.442-.358-.8-.8-.8s-.8,.358-.8,.8v5.4c0,.442,.358,.8,.8,.8s.8-.358,.8-.8v-5.4Zm5.889,1.682c.135-1.347-.919-2.482-2.238-2.482h-1.45c-.442,0-.8,.358-.8,.8v5.4c0,.442,.358,.8,.8,.8s.8-.358,.8-.8v-1.7h.522c1.177,0,2.249-.847,2.367-2.018Zm5.396,2.471c0-1.303-1.128-1.842-1.951-2.235-.618-.296-1.023-.509-1.023-.765,0-.443,.525-.456,.585-.456,.115,0,.296,.07,.486,.171,.333,.178,.741,.117,.985-.171l.028-.033c.317-.375,.217-.95-.214-1.185-.37-.202-.827-.381-1.285-.381-1.245,0-2.185,.884-2.185,2.056,0,1.283,1.117,1.817,1.933,2.208,.734,.352,1.042,.539,1.042,.792,0,.519-.664,.534-.739,.534-.238,0-.528-.119-.785-.266-.32-.183-.727-.101-.972,.174-.333,.373-.252,.969,.182,1.216,.428,.244,.989,.476,1.575,.476,1.134,0,2.339-.748,2.339-2.134Z"/>
</svg>
