<?xml version="1.0" encoding="UTF-8"?>
<svg xmlns="http://www.w3.org/2000/svg" id="Layer_1" data-name="Layer 1" viewBox="0 0 24 24">
  <path d="M21.804,15l-.843-1.311c-.276-.429-.751-.689-1.262-.689h-2.399c-.51,0-.986,.26-1.262,.689l-.843,1.311h0c-1.213,0-2.196,.983-2.196,2.196v4.607c0,1.213,.983,2.196,2.196,2.196h6.607c1.213,0,2.196-.983,2.196-2.196v-4.607c0-1.213-.983-2.196-2.196-2.196Zm-3.304,6.5c-1.105,0-2-.895-2-2s.895-2,2-2,2,.895,2,2-.895,2-2,2Zm5.5-14v3c0,.829-.672,1.5-1.5,1.5s-1.5-.671-1.5-1.5v-3c0-.171-.018-.338-.051-.5H3v9.5c0,1.378,1.122,2.5,2.5,2.5h4c.829,0,1.5,.671,1.5,1.5s-.671,1.5-1.5,1.5H5.5c-3.033,0-5.5-2.467-5.5-5.5V5.5C0,2.467,2.467,0,5.5,0h2.528c.54,0,1.081,.127,1.564,.369l3.156,1.579c.068,.034,.146,.053,.224,.053h5.528c3.032,0,5.5,2.467,5.5,5.5Z"/>
</svg>
