<?xml version="1.0" encoding="UTF-8"?>
<svg xmlns="http://www.w3.org/2000/svg" id="Layer_1" data-name="Layer 1" viewBox="0 0 24 24">
  <path d="M12,0C5.383,0,0,5.383,0,12s5.383,12,12,12,12-5.383,12-12S18.617,0,12,0Zm3.168,20.413c.301-.551,.605-1.157,.89-1.823,.326-.761-.026-1.643-.788-1.969-.766-.327-1.643,.026-1.97,.789-.418,.976-.887,1.823-1.302,2.492-.413-.666-.88-1.512-1.3-2.492-.326-.761-1.207-1.115-1.97-.789-.762,.326-1.114,1.208-.788,1.969,.285,.666,.59,1.272,.89,1.823-2.949-1.115-5.159-3.73-5.696-6.913h.365c.828,0,1.5-.671,1.5-1.5s-.672-1.5-1.5-1.5h-.365c.538-3.184,2.747-5.799,5.696-6.913-.301,.551-.605,1.157-.89,1.823-.326,.761,.026,1.643,.788,1.969,.763,.325,1.643-.027,1.97-.789,.418-.976,.887-1.823,1.302-2.492,.413,.666,.88,1.512,1.3,2.492,.244,.569,.798,.91,1.38,.91,.196,0,.397-.039,.59-.122,.762-.326,1.114-1.208,.788-1.969-.285-.666-.59-1.272-.89-1.823,2.953,1.116,5.165,3.737,5.698,6.927-.765,.068-1.367,.704-1.367,1.487s.602,1.418,1.367,1.487c-.534,3.19-2.745,5.811-5.698,6.927Zm3.332-10.773v4.576c0,.433-.351,.784-.784,.784h0c-.303,0-.579-.174-.708-.448l-1.228-2.592v2.401c0,.353-.287,.64-.64,.64h0c-.353,0-.64-.287-.64-.64v-4.576c0-.433,.351-.784,.784-.784,.303,0,.579,.175,.708,.449l1.228,2.598v-2.407c0-.353,.287-.64,.64-.64h0c.353,0,.64,.286,.64,.64Zm-6.533-.64h-.842c-.345,0-.625,.28-.625,.625v4.75c0,.345,.28,.625,.625,.625s.625-.28,.625-.625v-1.402l.217-.003c1.109,0,2.012-.891,2.012-1.985s-.902-1.985-2.012-1.985Zm0,2.72l-.21,.003-.005-1.473h.215c.413,0,.762,.336,.762,.735s-.349,.735-.762,.735Zm-2.166-1.978l-.83,4.077c-.094,.485-.523,1.181-1.221,1.181s-1.132-.727-1.214-1.148l-.876-4.104c-.082-.385,.211-.748,.605-.748h.041c.294,0,.547,.206,.606,.494l.838,4.057,.838-4.057c.059-.287,.312-.494,.606-.494,.391,0,.684,.359,.606,.742Z"/>
</svg>
