<?xml version="1.0" encoding="UTF-8"?>
<svg xmlns="http://www.w3.org/2000/svg" id="Layer_1" data-name="Layer 1" viewBox="0 0 24 24">
  <path d="m20.797,21.03c.766-1.131,1.203-2.351,1.203-3.53,0-4.388-3.83-6.322-6.364-7.601-.702-.355-1.716-.869-2.068-1.204-.116-.334-.246-.883-.309-1.728,1.1-.126,2.056-.714,2.667-1.573.202-.285-.038-.671-.383-.619-.175.026-.354.04-.537.04-2.111,0-3.822-1.711-3.822-3.822,0-.183.014-.362.04-.537.052-.345-.334-.585-.619-.383-1.051.747-1.708,2.009-1.593,3.422.099,1.212.78,2.262,1.755,2.89-.036,1.18-.195,1.904-.336,2.308-.352.335-1.366.849-2.068,1.204-2.534,1.279-6.364,3.213-6.364,7.601,0,1.179.437,2.399,1.203,3.53-.686.138-1.203.743-1.203,1.47,0,.829.672,1.5,1.5,1.5h17c.828,0,1.5-.671,1.5-1.5,0-.727-.517-1.332-1.203-1.47Zm-11.081-8.453c.825-.416,1.63-.823,2.284-1.299.654.476,1.459.883,2.284,1.299,2.761,1.395,4.716,2.563,4.716,4.923,0,1.11-.921,2.477-2.318,3.5H7.318c-1.397-1.023-2.318-2.39-2.318-3.5,0-2.36,1.955-3.529,4.716-4.923Z"/>
</svg>
