<?xml version="1.0" encoding="UTF-8"?>
<svg xmlns="http://www.w3.org/2000/svg" id="Layer_1" data-name="Layer 1" viewBox="0 0 24 24">
  <path d="m24,12c0,.828-.671,1.5-1.5,1.5h-11.374l3.409,3.247c.6.571.623,1.521.051,2.12-.294.31-.69.466-1.086.466-.372,0-.744-.138-1.035-.414l-4.268-4.065c-.782-.781-1.198-1.785-1.198-2.854s.416-2.072,1.172-2.828l4.293-4.091c.6-.57,1.549-.549,2.121.052.572.6.548,1.549-.051,2.12l-3.409,3.247h11.374c.829,0,1.5.672,1.5,1.5Zm-12.43,8.99c-4.806-.226-8.57-4.174-8.57-8.99S6.765,3.235,11.57,3.01c.827-.038,1.467-.74,1.428-1.568-.039-.827-.73-1.46-1.569-1.428C5.021.313,0,5.579,0,12s5.021,11.687,11.43,11.986c.024,0,.048.002.071.002.796,0,1.46-.626,1.498-1.43.039-.828-.601-1.53-1.428-1.568Z"/>
</svg>
