<?xml version="1.0" encoding="UTF-8"?>
<svg xmlns="http://www.w3.org/2000/svg" id="Layer_1" data-name="Layer 1" viewBox="0 0 24 24">
  <path d="m24,14.731c0,.69-.56,1.25-1.25,1.25s-1.25-.56-1.25-1.25.56-1.25,1.25-1.25,1.25.56,1.25,1.25Zm-4.5-5.5c0-.69-.56-1.25-1.25-1.25s-1.25.56-1.25,1.25.56,1.25,1.25,1.25,1.25-.56,1.25-1.25Zm-1.156,6.75c.27,0,.522-.136.67-.363l4.178-6.4c.347-.532-.034-1.237-.67-1.237-.27,0-.522.136-.67.363l-4.178,6.4c-.347.532.034,1.237.67,1.237Zm-.052,2.447c-1.694,1.658-3.93,2.572-6.293,2.572-4.962,0-9-4.038-9-9S7.038,3,12,3c2.363,0,4.599.914,6.293,2.572.59.579,1.541.57,2.121-.022.579-.592.569-1.542-.023-2.121C18.133,1.217,15.152,0,12,0,5.383,0,0,5.383,0,12s5.383,12,12,12c3.152,0,6.133-1.217,8.391-3.428.593-.579.603-1.529.023-2.121-.581-.593-1.531-.603-2.121-.022Zm-8.279-7.828c0-1.434-1.128-2.6-2.514-2.6s-2.514,1.167-2.514,2.6c0,.442.358.8.8.8s.8-.358.8-.8c0-.552.41-1,.915-1s.915.449.915,1c0,.562-.841,1.188-1.584,1.739-.914.679-1.859,1.382-1.859,2.411,0,.606.431,1.25,1.229,1.25h3c.442,0,.8-.358.8-.8s-.358-.8-.8-.8h-2.378c.268-.26.691-.575.963-.777.993-.738,2.229-1.657,2.229-3.023Zm3.486,3.8h-1.7c-.442,0-.8.358-.8.8s.358.8.8.8h1.7c1.379,0,2.5-1.122,2.5-2.5s-1.121-2.5-2.5-2.5h-.9v-1.2c0-.11.09-.2.2-.2h1.9c.441,0,.8-.358.8-.8s-.358-.8-.8-.8h-1.9c-.993,0-1.8.807-1.8,1.8v1.5c0,.717.583,1.3,1.3,1.3h1.2c.496,0,.9.404.9.9s-.404.9-.9.9Z"/>
</svg>
