<?xml version="1.0" encoding="UTF-8"?>
<svg xmlns="http://www.w3.org/2000/svg" id="Layer_1" data-name="Layer 1" viewBox="0 0 24 24">
  <path d="M24,7.5v2c0,.829-.671,1.5-1.5,1.5s-1.5-.671-1.5-1.5v-.5H3v9.5c0,1.379,1.122,2.5,2.5,2.5h3.963c.829,0,1.5,.672,1.5,1.5s-.671,1.5-1.5,1.5h-3.963c-3.033,0-5.5-2.468-5.5-5.5V7.5C0,4.467,2.467,2,5.5,2h.5v-.5c0-.829,.671-1.5,1.5-1.5s1.5,.671,1.5,1.5v.5h6v-.5c0-.829,.671-1.5,1.5-1.5s1.5,.671,1.5,1.5v.5h.5c3.033,0,5.5,2.467,5.5,5.5Zm-4.5,9c0-.386-.314-.7-.7-.7h-1.95v1.4h1.95c.386,0,.7-.314,.7-.7Zm-.2,2.3h-2.45v1.4h2.45c.386,0,.7-.314,.7-.7s-.314-.7-.7-.7Zm4.7-.8c0,3.314-2.686,6-6,6s-6-2.686-6-6,2.686-6,6-6,6,2.686,6,6Zm-2.401,1.533c.01-.732-.323-1.388-.848-1.816,.221-.354,.349-.771,.349-1.217,0-1.269-1.032-2.3-2.3-2.3v-.4c0-.442-.358-.8-.8-.8s-.8,.358-.8,.8v.4h-1.15c-.442,0-.8,.358-.8,.8v6c0,.442,.358,.8,.8,.8h1.15v.4c0,.442,.358,.8,.8,.8s.8-.358,.8-.8v-.4h.443c1.267,0,2.338-1,2.356-2.267Z"/>
</svg>
