<?xml version="1.0" encoding="UTF-8"?>
<svg xmlns="http://www.w3.org/2000/svg" id="Layer_1" data-name="Layer 1" viewBox="0 0 24 24">
  <path d="M16,11.342v4.517c0,1.015-1.227,1.523-1.944,.805l-1.359-1.359c-1.161,1.049-1.697,1.905-1.697,2.695,.017,.588,.295,2,2.5,2,.829,0,1.5,.672,1.5,1.5s-.671,1.5-1.5,1.5c-4.035,0-5.5-2.99-5.5-5,0-1.877,1.077-3.438,2.571-4.821l-1.235-1.235c-.718-.718-.209-1.944,.805-1.944h4.517c.741,0,1.342,.601,1.342,1.342Zm2.5-8.342h-5.528c-.078,0-.155-.019-.224-.053l-3.156-1.579c-.483-.241-1.024-.369-1.564-.369h-2.528C2.467,1,0,3.467,0,6.5v11c0,3.032,2.467,5.5,5.5,5.5,.829,0,1.5-.672,1.5-1.5s-.671-1.5-1.5-1.5c-1.378,0-2.5-1.121-2.5-2.5V8H20.949c.033,.162,.051,.329,.051,.5v9c0,1.379-1.122,2.5-2.5,2.5-.829,0-1.5,.672-1.5,1.5s.671,1.5,1.5,1.5c3.033,0,5.5-2.468,5.5-5.5V8.5c0-3.033-2.467-5.5-5.5-5.5Z"/>
</svg>
