<?xml version="1.0" encoding="UTF-8"?>
<svg xmlns="http://www.w3.org/2000/svg" id="Layer_1" data-name="Layer 1" viewBox="0 0 24 24">
  <path d="M15.5,1h-6c-.828,0-1.5,.672-1.5,1.5s.672,1.5,1.5,1.5h6c3.032,0,5.5,2.468,5.5,5.5v.5H10.369C4.876,10,1.135,12.992,.106,18.211c-.267,1.355-.031,2.53,.681,3.396,.76,.925,1.966,1.394,3.582,1.394h14.131c3.032,0,5.5-2.468,5.5-5.5V9.5c0-4.687-3.813-8.5-8.5-8.5Zm5.5,16.5c0,1.379-1.121,2.5-2.5,2.5H4.369c-.752,0-1.146-.154-1.266-.299-.116-.142-.137-.49-.054-.911,.758-3.842,3.22-5.79,7.319-5.79h10.631v4.5Zm-10-1c0-.828,.672-1.5,1.5-1.5s1.5,.672,1.5,1.5-.672,1.5-1.5,1.5-1.5-.672-1.5-1.5Z"/>
</svg>
