<?xml version="1.0" encoding="UTF-8"?>
<svg xmlns="http://www.w3.org/2000/svg" id="Layer_1" data-name="Layer 1" viewBox="0 0 24 24">
  <path d="m22.385,6.615c-.925-.926-2.124-1.456-3.407-1.568-.232-2.821-2.597-5.047-5.477-5.047H5.5c-1.465,0-2.846.574-3.887,1.615C.573,2.656,0,4.037,0,5.502l.004,11.622c0,1.032.838,1.872,1.868,1.872.184,0,.366-.027.542-.081.048-.015,3.663-1.528,3.663-1.528.426,2.612,2.692,4.613,5.422,4.613h5.5s4.537,1.9,4.585,1.915c.176.054.358.081.542.081,1.03,0,1.868-.839,1.868-1.871l.005-11.623c0-1.465-.573-2.846-1.614-3.887ZM3,5.501c0-.664.261-1.291.735-1.765.475-.475,1.102-.736,1.765-.736h8c1.378,0,2.5,1.122,2.5,2.5v5.999c0,1.379-1.123,2.5-2.501,2.5h-6.802c-.199,0-.396.04-.58.117l-3.113,1.306-.004-9.921Zm17.994,14.921l-3.113-1.306c-.184-.077-.381-.117-.58-.117h-5.802c-1.207,0-2.217-.86-2.449-2h4.45c3.032,0,5.5-2.467,5.5-5.5h0s0-3.448,0-3.448c.473.097.91.331,1.262.684.474.475.735,1.102.735,1.765l-.004,9.921ZM6.243,11.519c-.736-.206-1.243-.864-1.243-1.613v-3.227c0-1.115,1.09-1.92,2.185-1.613l.986.276c.491.137.829.576.829,1.076v5.761c-.264,0-.528-.036-.785-.108l-1.972-.551Zm4.542.551c-.257.072-.521.108-.785.108v-5.761c0-.499.338-.938.829-1.076l.986-.276c1.095-.306,2.185.499,2.185,1.613v3.227c0,.749-.507,1.408-1.243,1.613l-1.972.551Z"/>
</svg>
