<?xml version="1.0" encoding="UTF-8"?>
<svg xmlns="http://www.w3.org/2000/svg" id="Layer_1" data-name="Layer 1" viewBox="0 0 24 24">
  <path d="M20.5,6h-2.5c0-3.309-2.691-6-6-6S6,2.691,6,6H3.5c-1.93,0-3.5,1.57-3.5,3.5v9c0,3.033,2.467,5.5,5.5,5.5h6c.829,0,1.5-.671,1.5-1.5s-.671-1.5-1.5-1.5H5.5c-1.378,0-2.5-1.122-2.5-2.5V9.5c0-.276,.224-.5,.5-.5h2.5v1.5c0,.829,.671,1.5,1.5,1.5s1.5-.671,1.5-1.5v-1.5h6v1.5c0,.829,.671,1.5,1.5,1.5s1.5-.671,1.5-1.5v-1.5h2.5c.276,0,.5,.224,.5,.5v4c0,.829,.671,1.5,1.5,1.5s1.5-.671,1.5-1.5v-4c0-1.93-1.57-3.5-3.5-3.5Zm-11.5,0c0-1.654,1.346-3,3-3s3,1.346,3,3h-6Zm15,13.5c0,.829-.671,1.5-1.5,1.5h-6c-.829,0-1.5-.671-1.5-1.5s.671-1.5,1.5-1.5h6c.829,0,1.5,.671,1.5,1.5Z"/>
</svg>
