<?xml version="1.0" encoding="UTF-8"?>
<svg xmlns="http://www.w3.org/2000/svg" id="Layer_1" data-name="Layer 1" viewBox="0 0 24 24">
  <path d="m11,9.5v3c0,.398-.158.779-.439,1.061l-2,2c-.293.293-.677.439-1.061.439s-.768-.146-1.061-.439c-.586-.585-.586-1.536,0-2.121l1.561-1.561v-2.379c0-.829.671-1.5,1.5-1.5s1.5.671,1.5,1.5Zm1.749,8.631c-.982.568-2.106.869-3.249.869-3.584,0-6.5-2.916-6.5-6.5s2.916-6.5,6.5-6.5c.829,0,1.5-.671,1.5-1.5s-.671-1.5-1.5-1.5C4.262,3,0,7.262,0,12.5s4.262,9.5,9.5,9.5c1.669,0,3.312-.44,4.751-1.272.717-.415.962-1.333.548-2.049-.415-.717-1.334-.961-2.05-.547Zm7.251-5.345v9.713c0,.829-.672,1.5-1.5,1.5s-1.5-.671-1.5-1.5v-9.713c-2.305-.655-4-2.775-4-5.287,0-2.644,2.088-7.5,5.5-7.5s5.5,4.856,5.5,7.5c0,2.512-1.695,4.632-4,5.287Zm1-5.287c0-1.767-1.519-4.5-2.5-4.5s-2.5,2.733-2.5,4.5c0,1.378,1.121,2.5,2.5,2.5s2.5-1.122,2.5-2.5Z"/>
</svg>
