<?xml version="1.0" encoding="UTF-8"?>
<svg xmlns="http://www.w3.org/2000/svg" id="Layer_1" data-name="Layer 1" viewBox="0 0 24 24">
  <path d="M14.5,18H3V5.5c0-1.378,1.121-2.5,2.5-2.5h7.5c.828,0,1.5-.671,1.5-1.5s-.672-1.5-1.5-1.5H5.5C2.468,0,0,2.467,0,5.5v13.5c0,2.761,2.239,5,5,5h6c2.593,0,4.749-1.973,5-4.5,.016-.164,0-1.5-1.5-1.5Zm-5.5,4h-2c-.552,0-1-.448-1-1s.448-1,1-1h2c.552,0,1,.448,1,1s-.448,1-1,1ZM24,7.559h0c0-.527-.288-1.012-.751-1.265l-4.82-2.629c-.579-.316-1.28-.316-1.859,0l-4.819,2.628c-.463,.253-.751,.738-.751,1.265,0,.641,.421,1.178,1,1.365v4.168c-.581,.207-1,.756-1,1.408,0,.829,.672,1.5,1.5,1.5h10c.828,0,1.5-.671,1.5-1.5,0-.652-.419-1.201-1-1.408v-4.168c.579-.187,1-.724,1-1.365Zm-8,5.441h-1v-4h1v4Zm4,0h-1v-4h1v4Z"/>
</svg>
