<?xml version="1.0" encoding="UTF-8"?>
<svg xmlns="http://www.w3.org/2000/svg" id="Layer_1" data-name="Layer 1" viewBox="0 0 24 24">
  <path d="m19.78,3.238c-2.078-2.088-4.841-3.238-7.78-3.238s-5.703,1.15-7.781,3.238C-.065,7.543-.065,14.548,4.262,18.894l3.734,3.466c1.076,1.057,2.498,1.64,4.004,1.64s2.928-.583,3.973-1.61l3.808-3.537c4.284-4.305,4.284-11.31,0-15.615Zm-2.084,13.458l-3.796,3.525c-1.021,1.005-2.748,1.034-3.832-.029l-3.723-3.455c-3.124-3.138-3.124-8.245,0-11.383,1.511-1.518,3.519-2.354,5.654-2.354s4.144.836,5.653,2.354c3.124,3.138,3.124,8.245.043,11.342Zm-7.696-8.896v6.4c0,.442-.358.8-.8.8h0c-.442,0-.8-.358-.8-.8v-6.4c0-.442.358-.8.8-.8h0c.442,0,.8.358.8.8Zm4-.8h-1.7c-.442,0-.8.358-.8.8v6.4c0,.442.358.8.8.8s.8-.358.8-.8v-2.2h.9c1.381,0,2.5-1.119,2.5-2.5s-1.119-2.5-2.5-2.5Zm0,3.4h-.9v-1.801h.9c.497,0,.9.403.9.9s-.403.9-.9.9Z"/>
</svg>
