<?xml version="1.0" encoding="UTF-8"?>
<svg xmlns="http://www.w3.org/2000/svg" id="Layer_1" data-name="Layer 1" viewBox="0 0 24 24">
  <path d="M15,2.475c0-1.367,1.007-2.475,2.25-2.475s2.25,1.108,2.25,2.475c0-1.367,1.007-2.475,2.25-2.475s2.25,1.108,2.25,2.475c0,1.947-2.538,4.227-3.802,5.241-.407,.327-.989,.327-1.396,0-1.264-1.015-3.802-3.295-3.802-5.241Zm7.5,6.525c-.828,0-1.5,.672-1.5,1.5v8c0,1.379-1.121,2.5-2.5,2.5H5.5c-1.378,0-2.5-1.121-2.5-2.5v-7.223l5.111,5.111c1.039,1.039,2.42,1.611,3.889,1.611,1.451,0,2.816-.558,3.85-1.572l2.636-2.297c.625-.544,.689-1.491,.146-2.116-.546-.626-1.492-.691-2.116-.146,0,0-2.724,2.374-2.748,2.399-.941,.943-2.588,.944-3.535,0L3.301,7.336c.42-.791,1.243-1.336,2.199-1.336h6c.829,0,1.5-.672,1.5-1.5s-.671-1.5-1.5-1.5H5.5C2.467,3,0,5.468,0,8.5v10c0,3.032,2.467,5.5,5.5,5.5h13c3.032,0,5.5-2.468,5.5-5.5V10.5c0-.828-.672-1.5-1.5-1.5Z"/>
</svg>
