<?xml version="1.0" encoding="UTF-8"?>
<svg xmlns="http://www.w3.org/2000/svg" id="Layer_1" data-name="Layer 1" viewBox="0 0 24 24">
  <path d="M19.686,15c-1.6,0-2.835,.917-3.686,1.861-.851-.944-2.086-1.861-3.686-1.861-2.379,0-4.314,2.019-4.314,4.5s1.935,4.5,4.314,4.5c1.6,0,2.835-.917,3.686-1.861,.851,.944,2.086,1.861,3.686,1.861,2.379,0,4.314-2.019,4.314-4.5s-1.935-4.5-4.314-4.5Zm-7.372,6c-.725,0-1.314-.673-1.314-1.5s.589-1.5,1.314-1.5,1.472,.802,1.95,1.501c-.474,.692-1.228,1.499-1.95,1.499Zm7.372,0c-.722,0-1.472-.802-1.95-1.501,.474-.692,1.228-1.499,1.95-1.499s1.314,.673,1.314,1.5-.589,1.5-1.314,1.5Zm-13.733,1.874c-.174,.677-.784,1.126-1.452,1.126-.124,0-.25-.015-.375-.048-2.429-.625-4.126-2.815-4.126-5.326V5.5C0,2.467,2.467,0,5.5,0h6.343c1.469,0,2.85,.572,3.889,1.611l2.657,2.657c1.039,1.039,1.611,2.419,1.611,3.889v3.343c0,.829-.671,1.5-1.5,1.5s-1.5-.671-1.5-1.5v-2.5h-4c-1.105,0-2-.895-2-2V3H5.5c-1.378,0-2.5,1.122-2.5,2.5v13.126c0,1.142,.771,2.138,1.874,2.422,.802,.206,1.285,1.024,1.079,1.826Z"/>
</svg>
