<?xml version="1.0" encoding="UTF-8"?>
<svg xmlns="http://www.w3.org/2000/svg" id="Layer_1" data-name="Layer 1" viewBox="0 0 24 24">
  <path d="M11.653,16.606l2.221,2.221c-1.084,2.016-1.685,2.765-2.072,3.151-2.696,2.696-7.082,2.696-9.777,0-1.306-1.306-2.025-3.042-2.025-4.889s.719-3.583,2.025-4.889c.386-.387,1.135-.987,3.151-2.072l2.222,2.221c-2.317,1.192-3.035,1.755-3.251,1.971-1.479,1.479-1.479,4.057,0,5.535,1.526,1.525,4.009,1.525,5.535,0,.216-.216,.78-.935,1.971-3.251Zm-6.061,1.805c.79,.79,2.07,.79,2.86,0,.282-.282,1.058-1.755,1.782-3.223l-1.419-1.419c-1.468,.724-2.941,1.5-3.223,1.782-.79,.79-.79,2.07,0,2.86ZM21.975,2.025c-1.306-1.306-3.042-2.025-4.889-2.025s-3.583,.719-4.889,2.025c-.387,.386-.987,1.135-2.072,3.151l2.221,2.222c1.192-2.317,1.755-3.035,1.971-3.251,1.479-1.479,4.057-1.479,5.535,0,1.525,1.526,1.525,4.009,0,5.535-.216,.216-.935,.78-3.251,1.971l2.221,2.221c2.016-1.084,2.765-1.685,3.151-2.072,2.696-2.696,2.696-7.082,0-9.777Zm-3.567,3.567c-.79-.79-2.07-.79-2.86,0-.282,.282-1.058,1.755-1.782,3.223l1.419,1.419c1.468-.724,2.941-1.5,3.223-1.782,.79-.79,.79-2.07,0-2.86Zm-8.847,1.847c-.586-.586-1.535-.586-2.121,0-.586,.585-.586,1.536,0,2.121l7,7c.586,.586,1.535,.586,2.121,0s.586-1.535,0-2.121l-7-7Z"/>
</svg>
