<?xml version="1.0" encoding="UTF-8"?>
<svg xmlns="http://www.w3.org/2000/svg" id="Layer_1" data-name="Layer 1" viewBox="0 0 24 24">
  <path d="M15,9c1.654,0,3-1.346,3-3V3c0-1.654-1.346-3-3-3s-3,1.346-3,3v3c0,1.654,1.346,3,3,3Zm-1-6c0-.551,.448-1,1-1s1,.449,1,1v3c0,.551-.448,1-1,1s-1-.449-1-1V3Zm-6,6c1.654,0,3-1.346,3-3,0-.775-.302-1.472-.787-2.002,.253-.401,.412-.865,.412-1.373,0-1.447-1.178-2.625-2.625-2.625s-2.625,1.178-2.625,2.625c0,.508,.16,.972,.412,1.373-.485,.529-.787,1.227-.787,2.002,0,1.654,1.346,3,3,3Zm0-7c.345,0,.625,.28,.625,.625s-.28,.625-.625,.625-.625-.28-.625-.625,.28-.625,.625-.625Zm0,3c.551,0,1,.449,1,1s-.449,1-1,1-1-.449-1-1,.449-1,1-1Zm13.51,5H2.49c-.939,0-1.517,.398-1.836,.732C.207,11.201-.03,11.872,.003,12.57c.301,6.409,5.571,11.43,11.997,11.43s11.696-5.021,11.997-11.429c.033-.699-.204-1.37-.651-1.838-.319-.334-.896-.732-1.836-.732Zm-9.51,11c-4.629,0-8.458-3.47-8.956-8h5.098c.446,1.722,1.997,3,3.859,3s3.412-1.278,3.858-3h5.098c-.498,4.53-4.327,8-8.956,8Zm7.806-12.914c-.232-.255-.213-.65,.043-.882h0c.255-.232,.65-.213,.882,.042h0c.286,.316,.736,.504,1.204,.504,.448,0,.764-.265,.81-.521,.062-.345-.451-.562-.61-.621-.752-.277-1.43-.58-1.43-.58-.6-.382-.864-.969-.777-1.579,.094-.649,.568-1.178,1.239-1.38,1.317-.397,2.407,.499,2.452,.537l.003,.002c.263,.221,.297,.613,.076,.876l-.005,.005c-.221,.263-.613,.297-.875,.076-.025-.021-.633-.495-1.29-.299-.293,.088-.351,.282-.362,.361-.008,.059-.013,.206,.13,.302,.016,0,.614,.263,1.272,.506,1.223,.451,1.529,1.336,1.408,2.014-.16,.899-1.019,1.552-2.04,1.552-.826,0-1.603-.333-2.13-.914Z"/>
</svg>
