<?xml version="1.0" encoding="UTF-8"?>
<svg xmlns="http://www.w3.org/2000/svg" id="Layer_1" data-name="Layer 1" viewBox="0 0 24 24">
  <path d="M17.308,9.966c-.678,1.568-3.71,7.045-3.71,7.045-.661,1.301-2.518,1.295-3.171-.01,0,0-3.732-7.027-3.734-7.03-.294-.643-.161-1.415,.359-1.948,.498-.501,1.239-.646,1.798-.414,.186,.094,3.149,1.61,3.149,1.61,0,0,2.653-1.362,2.968-1.549,.454-.218,.983-.226,1.451-.02,.882,.389,1.283,1.423,.888,2.316Zm6.692,2.034c0,6.617-5.383,12-12,12S0,18.617,0,12,5.383,0,12,0s12,5.383,12,12Zm-3,0c0-4.962-4.037-9-9-9S3,7.038,3,12s4.037,9,9,9,9-4.038,9-9Z"/>
</svg>
