<?xml version="1.0" encoding="UTF-8"?>
<svg xmlns="http://www.w3.org/2000/svg" id="Layer_1" data-name="Layer 1" viewBox="0 0 24 24">
  <path d="m17.611,6.389C16.489,2.696,13.054,0,9,0,4.038,0,0,4.038,0,9c0,4.054,2.696,7.489,6.389,8.611,1.122,3.693,4.556,6.389,8.611,6.389,4.962,0,9-4.038,9-9,0-4.054-2.696-7.489-6.389-8.611Zm-14.611,2.611c0-3.309,2.691-6,6-6,2.232,0,4.179,1.227,5.213,3.04-4.334.378-7.794,3.838-8.173,8.173-1.813-1.034-3.04-2.981-3.04-5.213Zm12,12c-2.232,0-4.179-1.227-5.213-3.04,4.334-.378,7.794-3.838,8.173-8.173,1.813,1.034,3.04,2.981,3.04,5.213,0,3.309-2.691,6-6,6Z"/>
</svg>
