<?xml version="1.0" encoding="UTF-8"?>
<svg xmlns="http://www.w3.org/2000/svg" id="Layer_1" data-name="Layer 1" viewBox="0 0 24 24">
  <path d="M5.636,18.364c.586,.586,.586,1.535,0,2.121-.293,.293-.677,.439-1.061,.439s-.768-.146-1.061-.439C-1.164,15.807-1.164,8.193,3.515,3.515c.585-.586,1.535-.586,2.121,0s.586,1.535,0,2.121c-3.509,3.51-3.509,9.219,0,12.729ZM20.485,3.515c-.586-.586-1.535-.586-2.121,0s-.586,1.535,0,2.121c3.509,3.51,3.509,9.219,0,12.729-.586,.586-.586,1.535,0,2.121,.293,.293,.677,.439,1.061,.439s.768-.146,1.061-.439c4.679-4.679,4.679-12.292,0-16.971Zm-1.485,8.485c0,3.859-3.14,7-7,7s-7-3.141-7-7,3.14-7,7-7,7,3.141,7,7Zm-8-1c0,.552,.448,1,1,1s1-.448,1-1v-3c0-.552-.448-1-1-1s-1,.448-1,1v3Zm2.5,4c0-.828-.672-1.5-1.5-1.5s-1.5,.672-1.5,1.5,.672,1.5,1.5,1.5,1.5-.672,1.5-1.5Z"/>
</svg>
