<?xml version="1.0" encoding="UTF-8"?>
<svg xmlns="http://www.w3.org/2000/svg" id="Layer_1" data-name="Layer 1" viewBox="0 0 24 24">
  <path d="M17.091,21.668c.202,1.249-.761,2.332-1.973,2.332H1.5c-.828,0-1.5-.672-1.5-1.5s.672-1.5,1.5-1.5H3.696l-2.296-2.48c-.563-.608-.526-1.558,.082-2.12,.608-.563,1.558-.525,2.12,.081l3.156,3.41c.836,.498,1.697-.679,.918-1.39l-3.769-3.769c-.473-.472-1.101-.732-1.768-.732h-.638c-.829,0-1.5-.672-1.5-1.5s.671-1.5,1.5-1.5h.638c1.468,0,2.85,.572,3.889,1.611l3.769,3.769c.991,.992,1.367,2.361,1.099,3.62h4.105c1,0,1.931,.681,2.091,1.668Zm-5.896-5.795c.467,.387,1.145,.387,1.612,0,1.12-.928,3.012-2.725,3.012-4.273,0-1.16-.855-2.1-1.909-2.1s-1.909,.94-1.909,2.1c0-1.16-.855-2.1-1.909-2.1s-1.909,.94-1.909,2.1c0,1.548,1.892,3.345,3.012,4.273Zm11.306-5.873h-.638c-.667,0-1.295-.261-1.768-.732l-3.769-3.769c-.779-.712,.083-1.886,.918-1.39l3.156,3.41c.562,.605,1.511,.646,2.12,.081,.608-.562,.645-1.512,.082-2.12l-2.296-2.48h2.196c.828,0,1.5-.672,1.5-1.5s-.672-1.5-1.5-1.5H9c-1.212,0-2.175,1.083-1.973,2.332,.159,.987,1.09,1.668,2.09,1.668h3.987c-.268,1.259,.107,2.628,1.099,3.62l3.769,3.769c1.04,1.039,2.421,1.611,3.889,1.611h.638c.829,0,1.5-.672,1.5-1.5s-.671-1.5-1.5-1.5Z"/>
</svg>
