<?xml version="1.0" encoding="UTF-8"?>
<svg xmlns="http://www.w3.org/2000/svg" id="Layer_1" data-name="Layer 1" viewBox="0 0 24 24">
  <path d="m22,5.5v13c0,3.033-2.467,5.5-5.5,5.5H7.5c-3.033,0-5.5-2.467-5.5-5.5V5.5C2,2.989,3.697.798,6.126.173c.803-.206,1.62.276,1.826,1.079.207.802-.276,1.62-1.079,1.826-1.103.284-1.874,1.28-1.874,2.421v13c0,1.378,1.122,2.5,2.5,2.5h9c1.378,0,2.5-1.122,2.5-2.5V5.5c0-.44-.115-.872-.333-1.249-.415-.717-.17-1.635.547-2.049.717-.414,1.635-.169,2.049.547.482.833.737,1.785.737,2.751Zm-15,12c0,.829.671,1.5,1.5,1.5h7c.829,0,1.5-.671,1.5-1.5s-.671-1.5-1.5-1.5h-7c-.829,0-1.5.671-1.5,1.5Zm3-6.5c.552,0,1-.448,1-1v-6c0-1.103.897-2,2-2s2,.897,2,2v7.5c0,.276-.224.5-.5.5s-.5-.224-.5-.5v-6.5c0-.552-.448-1-1-1s-1,.448-1,1v6.5c0,1.378,1.122,2.5,2.5,2.5s2.5-1.122,2.5-2.5v-7.5c0-2.206-1.794-4-4-4s-4,1.794-4,4v6c0,.552.448,1,1,1Z"/>
</svg>
