<?xml version="1.0" encoding="UTF-8"?>
<svg xmlns="http://www.w3.org/2000/svg" id="Layer_1" data-name="Layer 1" viewBox="0 0 24 24">
  <path d="M23.103,7.711c-.583-.531-1.364-.782-2.14-.692-4.731,.56-7.477,3.44-8.963,6.477-1.486-3.037-4.232-5.917-8.962-6.477-.775-.09-1.557,.16-2.141,.692-.59,.538-.917,1.301-.897,2.095,0,0,0,0,0,0,.087,3.385,1.192,6.071,3.283,7.985,2.363,2.162,5.393,2.757,7.216,2.911v1.797c0,.828,.672,1.5,1.5,1.5s1.5-.672,1.5-1.5v-1.797c1.823-.154,4.853-.749,7.216-2.911,2.091-1.914,3.196-4.601,3.283-7.985,0,0,0,0,0,0,.02-.793-.308-1.557-.897-2.095ZM5.295,15.565c-1.397-1.287-2.165-3.144-2.283-5.523,5.122,.777,6.748,5.169,7.26,7.621-1.405-.177-3.438-.682-4.977-2.098Zm13.41,0c-1.541,1.419-3.58,1.924-4.984,2.099,.5-2.451,2.112-6.842,7.268-7.622-.118,2.379-.886,4.236-2.283,5.523ZM8.038,3.742L11.54,.193c.253-.256,.667-.256,.92,0l3.502,3.548c.461,.467,.13,1.259-.526,1.259h-1.936v2.499c0,.829-.672,1.5-1.5,1.5s-1.5-.671-1.5-1.5v-2.499h-1.936c-.657,0-.988-.792-.526-1.259Z"/>
</svg>
