<?xml version="1.0" encoding="UTF-8"?>
<svg xmlns="http://www.w3.org/2000/svg" id="Layer_1" data-name="Layer 1" viewBox="0 0 24 24">
  <path d="M18.383,2.036L12.472,.076c-.015-.005-.032-.003-.047-.008-.136-.04-.276-.069-.425-.069s-.29,.028-.425,.069c-.015,.005-.032,.003-.047,.008l-5.911,1.96c-2.163,.718-3.617,2.731-3.617,5.01v5.106c0,6.518,6.852,10.45,8.952,11.5,0,0,.642,.348,1.05,.348s.954-.267,.954-.267c2.122-.854,9.043-4.21,9.043-11.581V7.046c0-2.279-1.454-4.293-3.617-5.01Zm.617,5.01v2.954h-5.5V3.577l3.939,1.306c.933,.31,1.561,1.178,1.561,2.162ZM6.561,4.884l3.939-1.306v6.422H5v-2.954c0-.983,.627-1.853,1.561-2.162Zm-1.502,8.116h5.441v6.945c-2.115-1.349-4.996-3.737-5.441-6.945Zm8.441,7.153v-7.153h5.449c-.398,3.713-3.344,5.987-5.449,7.153Z"/>
</svg>
