<?xml version="1.0" encoding="UTF-8"?>
<svg xmlns="http://www.w3.org/2000/svg" id="Layer_1" data-name="Layer 1" viewBox="0 0 24 24">
  <path d="M5.5,3c0-1.654,1.346-3,3-3s3,1.346,3,3-1.346,3-3,3-3-1.346-3-3Zm14,17h-.484l-1.12-2.8c-.534-1.336-1.811-2.2-3.25-2.2h-3.146c-.827,0-1.5-.673-1.5-1.5v-.5h4.5c.828,0,1.5-.671,1.5-1.5s-.672-1.5-1.5-1.5h-4.5v-1.5c0-.829-.671-1.5-1.5-1.5s-1.5,.671-1.5,1.5v5c0,2.481,2.019,4.5,4.5,4.5h3.146c.206,0,.389,.124,.465,.314l1.497,3.743c.228,.569,.779,.943,1.393,.943h1.5c.828,0,1.5-.671,1.5-1.5s-.672-1.5-1.5-1.5ZM13.079,7.175c.208,.501,.692,.825,1.235,.825h2.686c.553,0,1-.448,1-1s-.447-1-1-1h-1.086l1.719-1.718c.383-.384,.496-.956,.288-1.457-.208-.501-.692-.825-1.235-.825h-2.686c-.553,0-1,.448-1,1s.447,1,1,1h1.086l-1.719,1.718c-.383,.384-.496,.956-.288,1.457Zm9.944-3.175h-1.085l1.718-1.718c.383-.384,.496-.956,.288-1.457-.208-.501-.692-.825-1.234-.825h-2.687c-.553,0-1,.448-1,1s.447,1,1,1h1.086l-1.716,1.716c-.385,.384-.499,.956-.292,1.458,.208,.502,.693,.826,1.236,.826h2.686c.553,0,1-.448,1-1s-.447-1-1-1ZM9.987,20.251c-.737,.49-1.598,.749-2.487,.749-2.481,0-4.5-2.019-4.5-4.5,0-1.278,.547-2.501,1.5-3.354,.617-.553,.669-1.501,.117-2.118-.553-.618-1.502-.67-2.118-.117-1.588,1.422-2.499,3.459-2.499,5.59,0,4.136,3.364,7.5,7.5,7.5,1.482,0,2.917-.432,4.147-1.25,.69-.458,.878-1.39,.419-2.08-.458-.689-1.389-.877-2.08-.419Z"/>
</svg>
