<?xml version="1.0" encoding="UTF-8"?>
<svg xmlns="http://www.w3.org/2000/svg" id="Layer_1" data-name="Layer 1" viewBox="0 0 24 24">
  <path d="m23.561,21.439c.586.585.586,1.536,0,2.121-.293.293-.677.439-1.061.439s-.768-.146-1.061-.439L.439,2.561C-.146,1.975-.146,1.025.439.439,1.025-.146,1.975-.146,2.561.439l1.373,1.373c1.612-1.171,3.545-1.813,5.566-1.813,3.145,0,6.081,1.553,7.854,4.155.467.684.29,1.618-.395,2.084-.259.176-.553.261-.844.261-.479,0-.95-.229-1.24-.655-1.215-1.781-3.225-2.845-5.376-2.845-1.219,0-2.393.341-3.41.969l2.643,2.643c.999-.264,2.105-.017,2.888.766s1.03,1.889.766,2.888l6.385,6.385c.661-.825,1.179-1.725,1.551-2.669-1.846-.094-3.323-1.613-3.323-3.482,0-1.93,1.57-3.5,3.5-3.5,1.826,0,3.313,1.411,3.469,3.197.02.098.031.199.031.303,0,3-1.1,5.901-3.101,8.278l2.662,2.662Zm-9.526-1.358c-1.038.465-2.058.768-3.034.899v-2.13c.651-.23,1.078-.887.988-1.599-.103-.822-.854-1.404-1.675-1.302-.267.033-.538.05-.813.05-3.584,0-6.5-2.916-6.5-6.5,0-.277.018-.55.051-.818.101-.822-.485-1.571-1.308-1.671-.816-.101-1.569.485-1.671,1.307-.048.395-.072.792-.072,1.182,0,4.727,3.474,8.647,8,9.37v2.258c0,.819.352,1.603.965,2.149.524.468,1.2.723,1.893.723.107,0,.215-.006.322-.019,1.333-.154,2.707-.546,4.083-1.164.756-.339,1.094-1.227.754-1.983-.34-.756-1.227-1.095-1.982-.754Z"/>
</svg>
