<?xml version="1.0" encoding="UTF-8"?>
<svg xmlns="http://www.w3.org/2000/svg" id="Layer_1" data-name="Layer 1" viewBox="0 0 24 24">
  <path d="M16.5,3h-1.051c-.245-1.692-1.691-3-3.449-3s-3.204,1.308-3.449,3h-1.051C3.916,3,1,5.916,1,9.5v6c0,3.584,2.916,6.5,6.5,6.5h.5v.5c0,.828,.671,1.5,1.5,1.5s1.5-.672,1.5-1.5v-.5h2v.5c0,.828,.672,1.5,1.5,1.5s1.5-.672,1.5-1.5v-.5h.5c3.584,0,6.5-2.916,6.5-6.5v-6c0-3.584-2.916-6.5-6.5-6.5Zm0,16H7.5c-1.93,0-3.5-1.57-3.5-3.5v-3.5H12.5c.828,0,1.5-.671,1.5-1.5s-.672-1.5-1.5-1.5H4.051c.245-1.692,1.691-3,3.449-3h9c1.758,0,3.204,1.308,3.449,3h-2.449c-.828,0-1.5,.671-1.5,1.5s.672,1.5,1.5,1.5h2.5v2h-2.5c-.828,0-1.5,.672-1.5,1.5s.672,1.5,1.5,1.5h2.149c-.564,1.178-1.758,2-3.149,2Z"/>
</svg>
