<?xml version="1.0" encoding="UTF-8"?>
<svg xmlns="http://www.w3.org/2000/svg" id="Layer_1" data-name="Layer 1" viewBox="0 0 24 24">
  <path d="m20.697,14.025c-1.32-1.32-3.621-1.322-4.945-.005l-.411.404c-2.587-1.199-4.481-3.1-5.755-5.777l.388-.395c.661-.661,1.025-1.54,1.025-2.475s-.364-1.814-.986-2.434l-2.152-2.318c-1.309-1.309-3.583-1.325-4.908-.042,0,0-1.067.93-1.091.955C.662,3.137,0,4.757,0,6.5c0,7.523,9.977,17.5,17.5,17.5,1.743,0,3.363-.662,4.562-1.863.024-.024.954-1.091.954-1.091,1.323-1.367,1.309-3.557-.082-4.946l-2.237-2.074Zm.156,4.941c-.024.024-.948,1.083-.948,1.083-.629.613-1.481.95-2.405.95-5.51,0-14.5-8.101-14.5-14.5,0-.924.337-1.776.949-2.405,0,0,1.06-.924,1.084-.948.127-.127.276-.146.353-.146s.226.019.314.106l2.152,2.319c.127.127.146.276.146.353s-.019.226-.156.362l-1.108,1.127c-.418.425-.544,1.058-.322,1.611,1.694,4.22,4.632,7.152,8.732,8.718.55.209,1.169.079,1.587-.332l1.127-1.108s.006-.006.009-.009c.127-.128.276-.146.353-.146s.226.019.394.186l2.237,2.074c.195.195.195.512,0,.707Zm-2.354-7.967c3.038,0,5.5-2.462,5.5-5.5S21.538,0,18.5,0s-5.5,2.462-5.5,5.5,2.462,5.5,5.5,5.5Zm-1-8c0-.552.448-1,1-1s1,.448,1,1v2.086l1.5,1.5c.391.39.391,1.024,0,1.414-.391.39-1.024.39-1.414,0l-1.5-1.5c-.375-.375-.586-.884-.586-1.414v-2.086Z"/>
</svg>
