<?xml version="1.0" encoding="UTF-8"?>
<svg xmlns="http://www.w3.org/2000/svg" id="Layer_1" data-name="Layer 1" viewBox="0 0 24 24">
  <path d="m24,6.5v3.171c0,1.878-.697,3.675-1.964,5.06,0,0-4.897,5.322-5.007,5.392-.9.91-1.81,1.479-2.003,1.594-.321.192-.675.283-1.023.283-.681,0-1.345-.348-1.719-.975-.565-.947-.258-2.172.687-2.739.848-.516,2.03-1.635,2.03-2.286v-.5c0-1.379-1.121-2.5-2.5-2.5s-2.5,1.121-2.5,2.5v7c0,.828-.672,1.5-1.5,1.5s-1.5-.672-1.5-1.5v-7c0-3.032,2.468-5.5,5.5-5.5,2.781,0,5.081,2.078,5.444,4.761l1.877-2.054c.76-.831,1.179-1.909,1.179-3.036v-3.171c0-1.379-1.121-2.5-2.5-2.5H3.5c-.828,0-1.5-.672-1.5-1.5s.672-1.5,1.5-1.5h15c3.032,0,5.5,2.468,5.5,5.5Zm-13.974.404c.776-.291,1.169-1.155.878-1.931s-1.157-1.17-1.931-.878L.974,7.096c-.776.291-1.169,1.155-.878,1.931.226.603.797.974,1.404.974.175,0,.354-.03.526-.096l8-3Zm.423,3.062c.646-.517.753-1.461.235-2.108-.517-.646-1.46-.752-2.108-.235l-3.25,2.596c-.686.548-1.236,1.262-1.594,2.063l-1.604,3.608c-.336.757.005,1.644.762,1.98.198.088.405.129.608.129.575,0,1.123-.332,1.372-.891l1.603-3.608c.163-.364.413-.689.726-.938l3.25-2.596Z"/>
</svg>
