<?xml version="1.0" encoding="UTF-8"?>
<svg xmlns="http://www.w3.org/2000/svg" id="Layer_1" data-name="Layer 1" viewBox="0 0 24 24">
  <path d="M18.471,6.376c-.631-.536-1.578-.459-2.114,.172s-.459,1.578,.172,2.114c.74,.628,1.324,1.396,1.743,2.244l-4.633,.927c-1.12,.224-2.272,.224-3.392,0l-4.529-.906c.419-.856,1.008-1.631,1.754-2.264,.631-.536,.708-1.483,.172-2.114-.536-.631-1.484-.708-2.114-.172-2.243,1.905-3.529,4.684-3.529,7.624,0,5.514,4.486,10,10,10s10-4.486,10-10c0-2.94-1.286-5.719-3.529-7.624ZM5.015,14.298l2.376,.461c.944,.189,1.754,.787,2.213,1.634l.505,.933c.256,.473,.391,1.003,.391,1.542v1.966c-3.046-.668-5.348-3.325-5.485-6.536Zm8.485,6.536v-1.966c0-.538,.134-1.068,.391-1.542l.505-.933c.458-.846,1.269-1.445,2.213-1.634l2.376-.461c-.136,3.211-2.439,5.867-5.485,6.536ZM8.252,3.347L11.315,.284c.378-.378,.991-.378,1.369,0l3.063,3.063c.61,.61,.178,1.653-.685,1.653h-1.563v3.5c0,.829-.671,1.5-1.5,1.5s-1.5-.671-1.5-1.5v-3.5h-1.563c-.863,0-1.295-1.043-.685-1.653Z"/>
</svg>
