<?xml version="1.0" encoding="UTF-8"?>
<svg xmlns="http://www.w3.org/2000/svg" id="Layer_1" data-name="Layer 1" viewBox="0 0 24 24">
  <path d="M19.193,3.448c-4.801-.596-9.584-.596-14.388,0C2.066,3.789,0,6.136,0,8.905v6.189c0,2.77,2.066,5.116,4.807,5.457,2.4,.298,4.821,.448,7.193,.448s4.793-.15,7.195-.448c2.739-.341,4.805-2.688,4.805-5.457v-6.189c0-2.77-2.066-5.116-4.807-5.457Zm1.807,11.646c0,1.26-.936,2.326-2.175,2.48-4.558,.564-9.094,.564-13.649,0-1.241-.154-2.176-1.221-2.176-2.48v-6.189c0-1.26,.936-2.326,2.175-2.48,2.279-.282,4.575-.425,6.825-.425s4.546,.143,6.824,.425c1.241,.154,2.176,1.221,2.176,2.48v6.189Zm-2.5-5.455v4.576c0,.433-.351,.784-.784,.784h0c-.303,0-.579-.174-.708-.448l-1.228-2.592v2.401c0,.353-.286,.64-.64,.64s-.64-.287-.64-.64v-4.576c0-.433,.351-.784,.784-.784,.303,0,.579,.175,.708,.449l1.228,2.598v-2.407c0-.353,.287-.64,.64-.64s.64,.286,.64,.64Zm-6.533-.64h-.842c-.345,0-.625,.28-.625,.625v4.75c0,.345,.28,.625,.625,.625s.625-.28,.625-.625v-1.402l.217-.003c1.109,0,2.012-.891,2.012-1.985s-.902-1.985-2.012-1.985Zm0,2.72l-.21,.003-.005-1.473h.215c.413,0,.762,.336,.762,.735s-.349,.735-.762,.735Zm-2.312-1.978l-.83,4.077c-.094,.485-.412,1.181-1.221,1.181s-1.132-.727-1.214-1.148l-.876-4.104c-.082-.385,.211-.748,.605-.748h.041c.293,0,.547,.206,.606,.494l.838,4.057,.838-4.057c.059-.287,.312-.494,.606-.494,.391,0,.684,.359,.606,.742Z"/>
</svg>
