<?xml version="1.0" encoding="UTF-8"?>
<svg xmlns="http://www.w3.org/2000/svg" id="Layer_1" data-name="Layer 1" viewBox="0 0 24 24">
  <path d="M20.5,12h-7v-2h1.5c2.206,0,4-1.794,4-4v-2c0-2.206-1.794-4-4-4h-6c-2.206,0-4,1.794-4,4v2c0,2.206,1.794,4,4,4h1.5v2H1.5c-.828,0-1.5,.671-1.5,1.5s.672,1.5,1.5,1.5h.5v7.5c0,.828,.672,1.5,1.5,1.5s1.5-.672,1.5-1.5v-7.5H14v5.5c0,1.93,1.57,3.5,3.5,3.5h3c1.93,0,3.5-1.57,3.5-3.5v-5c0-1.93-1.57-3.5-3.5-3.5ZM9,7c-.552,0-1-.449-1-1v-2c0-.551,.448-1,1-1h6c.552,0,1,.449,1,1v2c0,.551-.448,1-1,1h-6Zm12,13.5c0,.275-.225,.5-.5,.5h-3c-.275,0-.5-.225-.5-.5v-5.5h3.5c.275,0,.5,.225,.5,.5v5Z"/>
</svg>
