<?xml version="1.0" encoding="UTF-8"?>
<svg xmlns="http://www.w3.org/2000/svg" id="Layer_1" data-name="Layer 1" viewBox="0 0 24 24">
  <path d="M21.011,18.744l-4.181,1.266,4.181,1.266c.74,.224,1.159,1.005,.935,1.746-.183,.604-.738,.995-1.339,.995-.135,0-.271-.02-.406-.061l-8.2-2.483-8.2,2.483c-.135,.041-.271,.061-.406,.061-.601,0-1.156-.39-1.339-.995-.225-.74,.194-1.521,.935-1.746l4.181-1.266-4.181-1.266c-.74-.224-1.159-1.005-.935-1.746,.224-.74,1.01-1.157,1.745-.934l8.2,2.483,8.2-2.483c.735-.223,1.521,.193,1.745,.934,.225,.74-.194,1.521-.935,1.746Zm-12.011-3.244v-.5h-.5c-1.381,0-2.5-1.119-2.5-2.5v-1.292c0-3.049,2.187-5.77,5.212-6.158,3.659-.469,6.788,2.382,6.788,5.949v1.5c0,1.381-1.119,2.5-2.5,2.5h-.5v.5c0,.828-.672,1.5-1.5,1.5h-3c-.828,0-1.5-.672-1.5-1.5Zm4-4c0,.828,.672,1.5,1.5,1.5s1.5-.672,1.5-1.5-.672-1.5-1.5-1.5-1.5,.672-1.5,1.5Zm-3.5,1.5c.828,0,1.5-.672,1.5-1.5s-.672-1.5-1.5-1.5-1.5,.672-1.5,1.5,.672,1.5,1.5,1.5Zm-5.497,.077c0-.458,.027-1.719,.023-1.868,0,0-.145-1.14-.331-1.558-.818-1.844-1.008-3.637-.039-5.091,.327-.493,1.344-1.568,3.154-1.568,.817,0,1.619,.233,2.33,.547,.577-.225,1.183-.39,1.817-.472,1.336-.173,2.671,.004,3.897,.473,.712-.315,1.645-.542,2.562-.542,1.582,0,2.599,1.069,2.926,1.562,.969,1.454,.779,3.247-.039,5.091-.177,.399-.304,1.318-.304,1.35,0,0-.003,1.619-.003,2.077,0,1.962,1.213,.962,1.213,.962,2.662-3.779,3.844-7.82,1.631-11.142-.625-.939-1.505-1.701-2.544-2.201C19.448,.287,18.534,.054,17.581,.002c-2.199-.114-4.227,.823-5.581,1.678C10.646,.825,8.618-.112,6.419,.002c-.953,.052-1.867,.285-2.716,.694-1.039,.5-1.919,1.262-2.544,2.201C-1.054,6.219,.128,10.26,2.79,14.039c0,0,1.213,1,1.213-.962Z"/>
</svg>
