<?xml version="1.0" encoding="UTF-8"?>
<svg xmlns="http://www.w3.org/2000/svg" id="Layer_1" data-name="Layer 1" viewBox="0 0 24 24">
  <path d="M3,19.5c0,.828-.672,1.5-1.5,1.5s-1.5-.672-1.5-1.5,.672-1.5,1.5-1.5,1.5,.672,1.5,1.5Zm2.5-1.5c-.828,0-1.5,.672-1.5,1.5s.672,1.5,1.5,1.5,1.5-.672,1.5-1.5-.672-1.5-1.5-1.5Zm4,0c-.828,0-1.5,.672-1.5,1.5s.672,1.5,1.5,1.5,1.5-.672,1.5-1.5-.672-1.5-1.5-1.5ZM24,6.212v10.788c0,.605-.364,1.151-.923,1.385-.187,.077-.383,.115-.577,.115-.388,0-.769-.15-1.056-.434l-2.566-2.541-2.201,4.282c-.389,.755-1.163,1.19-1.962,1.19-.328,0-.66-.073-.972-.229-.53-.266-.921-.72-1.105-1.279-.184-.559-.139-1.156,.128-1.681l2.196-4.331-3.662-.493c-.594-.079-1.084-.506-1.245-1.083-.161-.578,.037-1.195,.504-1.571L18.74,3.746c.927-.796,2.24-.979,3.393-.449,1.151,.53,1.867,1.647,1.867,2.915Zm-3,0c0-.04,0-.134-.121-.189-.121-.055-.191,.006-.223,.031l-5.496,4.425,2.84,.382c.323,.043,.623,.19,.855,.42l2.145,2.124V6.212Z"/>
</svg>
