<?xml version="1.0" encoding="UTF-8"?>
<svg xmlns="http://www.w3.org/2000/svg" id="Layer_1" data-name="Layer 1" viewBox="0 0 24 24">
  <path d="m16,8.5V3.5c0-.829.671-1.5,1.5-1.5h2c.829,0,1.5.671,1.5,1.5s-.671,1.5-1.5,1.5h-.5v3.5c0,.829-.671,1.5-1.5,1.5s-1.5-.671-1.5-1.5Zm-9.5.5c-.828,0-1.5.672-1.5,1.5s.672,1.5,1.5,1.5,1.5-.672,1.5-1.5-.672-1.5-1.5-1.5Zm17.5-.5v10c0,1.93-1.57,3.5-3.5,3.5H3.5c-1.93,0-3.5-1.57-3.5-3.5v-10C0,4.916,2.916,2,6.5,2h6c.829,0,1.5.671,1.5,1.5s-.671,1.5-1.5,1.5h-.532c.65,1.012,1.032,2.211,1.032,3.5v10c0,.171-.027.335-.051.5h7.551c.276,0,.5-.224.5-.5v-10c0-.236-.023-.472-.07-.703-.165-.812.361-1.603,1.173-1.768.808-.167,1.603.36,1.768,1.173.086.426.13.862.13,1.297Zm-14,0c0-1.93-1.57-3.5-3.5-3.5s-3.5,1.57-3.5,3.5v10c0,.276.224.5.5.5h6c.276,0,.5-.224.5-.5v-10Z"/>
</svg>
