<?xml version="1.0" encoding="UTF-8"?>
<svg xmlns="http://www.w3.org/2000/svg" id="Layer_1" data-name="Layer 1" viewBox="0 0 24 24">
  <path d="m11.757,5.654l-.005-1.473h.715c.413,0,.762.336.762.735s-.349.735-.762.735l-.71.003Zm12.243,4.346s0,0,0,0v5.843c0,1.469-.572,2.85-1.611,3.889l-2.657,2.657c-1.038,1.038-2.419,1.61-3.889,1.61H4.5C2.018,24,0,21.981,0,19.5v-10s0,0,0,0v-4.999C0,2.015,2.015,0,4.5,0h15C21.985,0,24,2.015,24,4.5v5.5Zm-13.5-1.625c0,.345.28.625.625.625s.625-.28.625-.625v-1.471l.717-.003c1.109,0,2.012-.891,2.012-1.985s-.902-1.985-2.012-1.985h-1.342c-.345,0-.625.28-.625.625v4.819Zm-2.5.024c0,.331.268.599.599.599s.599-.269.599-.599V3.6c0-.331-.268-.599-.599-.599s-.599.269-.599.599v4.8ZM3,3.6c0,.331.268.599.599.599h1.686l-2.151,3.452c-.169.271-.178.613-.023.892.155.279.45.452.769.452h2.27c.331,0,.599-.269.599-.599s-.268-.599-.599-.599h-1.695l2.163-3.47c.167-.267.175-.605.022-.88-.153-.275-.444-.446-.759-.446h-2.282c-.331,0-.599.269-.599.599Zm1.5,17.4h10.5v-4c0-1.105.895-2,2-2h4v-4H3v8.5c0,.827.673,1.5,1.5,1.5Z"/>
</svg>
