<?xml version="1.0" encoding="UTF-8"?>
<svg xmlns="http://www.w3.org/2000/svg" id="Layer_1" data-name="Layer 1" viewBox="0 0 24 24">
  <path d="M7.175,6.106l-1.694-.885,1.034,1.544c.244,.365,.316,.818,.197,1.241s-.417,.771-.815,.955l-1.627,.751,1.513,.624c.387,.16,.689,.474,.835,.867,.145,.393,.119,.828-.071,1.201l-.751,1.475,1.589-.601c.704-.265,1.497,.031,1.853,.696l1.163,2.173c.395-.165,.855-.161,1.264,.047,.737,.377,1.03,1.281,.652,2.019-.402,.786-1.201,1.28-2.083,1.289h-.023c-.875,0-1.672-.477-2.086-1.249l-.911-1.702-2.247,.849c-.864,.296-1.752,.088-2.361-.533-.608-.621-.8-1.514-.501-2.33,.021-.056,.044-.111,.072-.165l.959-1.882-1.813-.748C.514,11.385,.022,10.647,.004,9.801c-.019-.846,.442-1.604,1.201-1.979l1.839-.849-1.909-2.855c-.542-.911-.424-1.952,.252-2.66,.676-.708,1.711-.875,2.576-.415l3.282,1.715,.801-1.505C8.458,.48,9.256,0,10.13,0h.001c.874,0,1.672,.479,2.084,1.25l1.357,2.544c.39,.731,.114,1.64-.617,2.029-.73,.39-1.639,.113-2.029-.617l-.794-1.488-.938,1.763c-.388,.728-1.289,1.007-2.019,.625Zm11.325-1.106c1.381,0,2.5-1.119,2.5-2.5s-1.119-2.5-2.5-2.5-2.5,1.119-2.5,2.5,1.119,2.5,2.5,2.5Zm5.5,5.5v3c0,1.557-.795,2.93-2,3.738v5.262c0,.829-.671,1.5-1.5,1.5s-1.5-.671-1.5-1.5v-4.5h-1v4.5c0,.829-.671,1.5-1.5,1.5s-1.5-.671-1.5-1.5v-5.262c-1.205-.808-2-2.182-2-3.738v-3c0-2.481,2.019-4.5,4.5-4.5h2c2.481,0,4.5,2.019,4.5,4.5Zm-8,3c0,.827,.673,1.5,1.5,1.5h2c.827,0,1.5-.673,1.5-1.5v-3c0-.827-.673-1.5-1.5-1.5h-2c-.827,0-1.5,.673-1.5,1.5v3Z"/>
</svg>
