<?xml version="1.0" encoding="UTF-8"?>
<svg xmlns="http://www.w3.org/2000/svg" id="Layer_1" data-name="Layer 1" viewBox="0 0 24 24">
  <path d="m17.5,13h-2.411c1.362-1.933,2.911-4.645,2.911-7,0-3.309-2.691-6-6-6s-6,2.691-6,6c0,2.355,1.549,5.067,2.911,7h-2.411c-.828,0-1.5.671-1.5,1.5s.672,1.5,1.5,1.5h4v6.5c0,.829.672,1.5,1.5,1.5s1.5-.671,1.5-1.5v-6.5h4c.828,0,1.5-.671,1.5-1.5s-.672-1.5-1.5-1.5ZM12,3c1.654,0,3,1.346,3,3,0,1.668-1.56,4.251-3,6.141-1.44-1.89-3-4.473-3-6.141,0-1.654,1.346-3,3-3Z"/>
</svg>
