<?xml version="1.0" encoding="UTF-8"?>
<svg xmlns="http://www.w3.org/2000/svg" id="Layer_1" data-name="Layer 1" viewBox="0 0 24 24">
  <path d="M19,0H5C2.243,0,0,2.243,0,5v13.5c0,3.032,2.468,5.5,5.5,5.5h13c3.032,0,5.5-2.468,5.5-5.5V5c0-2.757-2.243-5-5-5Zm2,18.5c0,1.379-1.121,2.5-2.5,2.5H5.5c-1.379,0-2.5-1.121-2.5-2.5V5c0-.366,.106-.705,.278-1H20.722c.172,.295,.278,.634,.278,1v13.5ZM5,7.5c0-.829,.672-1.5,1.5-1.5h1c.828,0,1.5,.671,1.5,1.5s-.672,1.5-1.5,1.5h-1c-.828,0-1.5-.671-1.5-1.5Zm9,5c0,.828-.672,1.5-1.5,1.5h-4c-.828,0-1.5-.672-1.5-1.5s.672-1.5,1.5-1.5h4c.828,0,1.5,.671,1.5,1.5Zm0,5c0,.828-.672,1.5-1.5,1.5H6.5c-.828,0-1.5-.672-1.5-1.5s.672-1.5,1.5-1.5h6c.828,0,1.5,.672,1.5,1.5Zm5.5,.5c0,1.105-.895,2-2,2s-2-.895-2-2c0-.738,.405-1.376,1-1.723v-7.777h-1.777c-.346,.595-.984,1-1.723,1-1.105,0-2-.895-2-2s.895-2,2-2c.738,0,1.376,.405,1.723,1h1.777c1.103,0,2,.897,2,2v7.777c.595,.346,1,.984,1,1.723Z"/>
</svg>
