<?xml version="1.0" encoding="UTF-8"?>
<svg xmlns="http://www.w3.org/2000/svg" id="Layer_1" data-name="Layer 1" viewBox="0 0 24 24">
  <path d="m22.5,12c-.828,0-1.5.672-1.5,1.5v.5h-5.462l-4.538-4.16V3h.5c.829,0,1.5-.672,1.5-1.5s-.671-1.5-1.5-1.5h-6C2.467,0,0,2.468,0,5.5v13c0,3.032,2.467,5.5,5.5,5.5h13c3.032,0,5.5-2.468,5.5-5.5v-5c0-.828-.672-1.5-1.5-1.5ZM5.5,3h2.5v6.573l-5,2.5v-6.573c0-1.379,1.122-2.5,2.5-2.5Zm-2.5,15.5v-3.073l6.248-3.124,4.291,3.934-3.175,4.763h-4.864c-1.378,0-2.5-1.121-2.5-2.5Zm15.5,2.5h-4.531l2.667-4h4.364v1.5c0,1.379-1.121,2.5-2.5,2.5Zm-.387-9.874c.493.482,1.281.482,1.774,0l2.648-2.59c1.953-1.953,1.953-5.118,0-7.071C21.559.488,20.28,0,19,0c-1.28,0-2.559.488-3.536,1.464-1.953,1.953-1.953,5.118,0,7.071l2.648,2.59Zm.887-7.572c.828,0,1.5.672,1.5,1.5s-.672,1.5-1.5,1.5-1.5-.672-1.5-1.5.672-1.5,1.5-1.5Z"/>
</svg>
