<?xml version="1.0" encoding="UTF-8"?>
<svg xmlns="http://www.w3.org/2000/svg" id="Layer_1" data-name="Layer 1" viewBox="0 0 24 24">
  <path d="m1.749,10.759l7.876,3.711c.754.355,1.562.532,2.369.532.812,0,1.626-.18,2.382-.539l7.883-3.74c1.058-.501,1.741-1.576,1.741-2.738s-.687-2.242-1.748-2.742l-7.884-3.714c-1.504-.709-3.231-.709-4.737,0L1.748,5.244c-1.062.5-1.748,1.577-1.748,2.773,0,1.166.687,2.242,1.749,2.742Zm9.16-6.516c.347-.163.719-.245,1.091-.245s.744.082,1.09.245l5.847,2.796-6.937,3.269-6.981-3.289,5.89-2.776Zm13.097,12.008c0,.858-.502,1.651-1.279,2.021l-8.391,3.711c-.731.347-1.526.522-2.326.522-.81,0-1.624-.179-2.383-.539l-8.305-3.677C.508,17.902.006,17.109.006,16.251c0-.771.39-1.478,1.044-1.891.656-.417,1.468-.463,2.169-.13l8.781,3.919,8.824-3.935c.671-.318,1.481-.27,2.139.146.653.413,1.043,1.12,1.043,1.89Z"/>
</svg>
