<?xml version="1.0" encoding="UTF-8"?>
<svg xmlns="http://www.w3.org/2000/svg" id="Layer_1" data-name="Layer 1" viewBox="0 0 24 24">
  <path d="m23.561,21.439l-5.514-5.514c1.225-1.66,1.959-3.703,1.959-5.92C20.006,4.492,15.52.006,10.006.006S.006,4.492.006,10.006s4.486,10,10,10c2.217,0,4.26-.734,5.92-1.959l5.514,5.514c.293.293.677.439,1.061.439s.768-.146,1.061-.439c.586-.585.586-1.536,0-2.121Zm-13.555-4.434c-3.86,0-7-3.14-7-7s3.14-7,7-7,7,3.14,7,7-3.141,7-7,7Zm4.764-8.213c.391.391.391,1.023,0,1.414-.195.195-.451.293-.707.293s-.512-.098-.707-.293l-.543-.543-.543.543c-.195.195-.451.293-.707.293s-.512-.098-.707-.293c-.391-.391-.391-1.023,0-1.414l.543-.543-.543-.543c-.391-.391-.391-1.023,0-1.414s1.023-.391,1.414,0l.543.543.543-.543c.391-.391,1.023-.391,1.414,0s.391,1.023,0,1.414l-.543.543.543.543Zm-8.125,1.414c-.195.195-.451.293-.707.293s-.512-.098-.707-.293c-.391-.391-.391-1.023,0-1.414l.543-.543-.543-.543c-.391-.391-.391-1.023,0-1.414s1.023-.391,1.414,0l.543.543.543-.543c.391-.391,1.023-.391,1.414,0s.391,1.023,0,1.414l-.543.543.543.543c.391.391.391,1.023,0,1.414-.195.195-.451.293-.707.293s-.512-.098-.707-.293l-.543-.543-.543.543Zm6.79,3.725c-.161.382-.532.612-.922.612-.129,0-.261-.025-.388-.079-1.452-.612-2.771-.616-4.226-.009-.509.213-1.095-.028-1.308-.538-.213-.51.028-1.095.538-1.308,1.948-.813,3.829-.808,5.774.012.509.215.747.801.533,1.31Z"/>
</svg>
