<?xml version="1.0" encoding="UTF-8"?>
<svg xmlns="http://www.w3.org/2000/svg" id="Layer_1" data-name="Layer 1" viewBox="0 0 24 24">
  <path d="m23.336,5.022l-1.487-2.1c-1.058-1.497-3.07-1.96-4.68-1.079l-8.596,4.716C7.567,3.463,5.145,1.467,1.695,1.013.876.907.121,1.483.013,2.305s.471,1.574,1.292,1.683c2.504.33,4.031,1.699,4.573,4.051,0,0-2.973,1.635-3.02,1.668C1.382,10.751.401,12.309.098,14.091c-.305,1.782.104,3.576,1.147,5.052,1.045,1.476,2.603,2.456,4.385,2.76.386.066.771.099,1.154.099,1.228,0,2.42-.353,3.48-.997,1.01,1.218,2.534,1.996,4.235,1.996,3.032,0,5.5-2.468,5.5-5.5,0-1.469-.583-2.802-1.524-3.79l4.338-3.928c1.353-1.225,1.577-3.271.522-4.76ZM6.135,18.945c-.992-.169-1.859-.715-2.441-1.537-.581-.821-.809-1.82-.639-2.812.165-.966.687-1.813,1.473-2.395l.154-.084,4.321,6.125-.122.11c-.809.547-1.776.76-2.745.593Zm8.365,1.055c-1.379,0-2.5-1.121-2.5-2.5s1.121-2.5,2.5-2.5,2.5,1.121,2.5,2.5-1.121,2.5-2.5,2.5Zm6.3-12.441l-5.026,4.553c-.012.011-.016.026-.027.037-.401-.094-.817-.148-1.246-.148-1.883,0-3.547.952-4.538,2.399l-2.634-3.734,11.284-6.19c.271-.147.609-.07.789.182l1.487,2.101c.178.25.141.595-.088.802Z"/>
</svg>
