<?xml version="1.0" encoding="UTF-8"?>
<svg xmlns="http://www.w3.org/2000/svg" id="Layer_1" data-name="Layer 1" viewBox="0 0 24 24">
  <path d="m24,10.587v7.9c0,3.032-2.467,5.5-5.5,5.5l-.981.013h-.02c-.819,0-1.489-.659-1.5-1.481-.01-.828.653-1.508,1.481-1.519l1-.013c1.397,0,2.519-1.121,2.519-2.5v-7.9c0-.774-.35-1.492-.959-1.969l-6.5-5.087c-.907-.711-2.175-.712-3.082,0l-6.5,5.087c-.609.477-.959,1.194-.959,1.969v7.9c0,1.379,1.122,2.5,2.5,2.5l1.019.013c.828.011,1.491.69,1.481,1.519-.011.822-.68,1.481-1.5,1.481h-.02l-1-.013c-3.014,0-5.481-2.468-5.481-5.5v-7.9c0-1.704.769-3.282,2.11-4.332L8.61,1.168c1.996-1.561,4.783-1.561,6.779,0l6.5,5.087c1.341,1.05,2.11,2.628,2.11,4.332Zm-12,9.413c-.828,0-1.5.672-1.5,1.5s.672,1.5,1.5,1.5,1.5-.672,1.5-1.5-.672-1.5-1.5-1.5Zm3.902-3.699c-2.297-1.726-5.506-1.729-7.804,0-.662.498-.795,1.438-.298,2.101.498.662,1.439.796,2.101.298,1.235-.93,2.962-.929,4.198,0,.27.203.586.301.9.301.455,0,.905-.206,1.2-.599.498-.662.365-1.603-.297-2.101Zm1.198-1.602c.271.203.587.301.901.301.455,0,.905-.206,1.2-.599.498-.662.365-1.603-.297-2.101-4.064-3.056-9.741-3.058-13.805-.002-.662.498-.795,1.438-.297,2.101.497.663,1.438.796,2.1.298,3.003-2.258,7.197-2.258,10.199.002Z"/>
</svg>
