<?xml version="1.0" encoding="UTF-8"?>
<svg xmlns="http://www.w3.org/2000/svg" id="Layer_1" data-name="Layer 1" viewBox="0 0 24 24">
  <path d="M23.031,8.932c-1.556-2.215-5.057-5.932-11.031-5.932S2.525,6.714,.972,8.927c-1.293,1.836-1.295,4.306-.002,6.145,1.558,2.214,5.062,5.929,11.03,5.929s9.474-3.714,11.029-5.928c1.293-1.838,1.293-4.306,.002-6.14Zm-2.456,4.415c-1.222,1.737-3.96,4.653-8.575,4.653s-7.354-2.916-8.576-4.654c-.566-.806-.565-1.887,.002-2.693,1.221-1.737,3.957-4.652,8.574-4.652s7.355,2.917,8.577,4.657c.565,.803,.564,1.884-.002,2.689ZM12,7c-2.761,0-5,2.239-5,5,0,.338,.036,.667,.099,.986l1.693-1.693c.391-.391,1.023-.391,1.414,0l.793,.793,.849-.849-.664-.664c-.396-.396-.115-1.072,.444-1.072h2.76c.337,0,.611,.273,.611,.611v2.76c0,.56-.677,.84-1.072,.444l-.664-.664-1.556,1.556c-.391,.391-1.023,.391-1.414,0l-.793-.793-1.526,1.526c.91,1.243,2.368,2.06,4.026,2.06,2.761,0,5-2.239,5-5s-2.239-5-5-5Z"/>
</svg>
