<?xml version="1.0" encoding="UTF-8"?>
<svg xmlns="http://www.w3.org/2000/svg" id="Layer_1" data-name="Layer 1" viewBox="0 0 24 24">
  <path d="M22.287,18.757c-.02-.055-1.274-2.505-1.274-2.505,.328-.986,.951-2.985,.951-5.233C21.963,4.391,15.037,.966,13.647,.347,13.115,.109,12.551-.011,11.962-.013c-.581,.002-1.146,.122-1.678,.359C8.895,.966,1.968,4.391,1.968,11.019c0,2.229,.612,4.212,.952,5.236,0,0-1.19,2.458-1.207,2.502-.322,.857-.256,1.811,.181,2.616,.437,.805,1.199,1.38,2.093,1.578,.04,.01,7.139,.988,7.139,.988,.295,.053,.563,.073,.81,.073,.294,0,.56-.029,.807-.063,0,0,7.23-.988,7.271-.998,.894-.198,1.657-.773,2.093-1.578,.437-.806,.502-1.759,.181-2.616Zm-2.818,1.186c-.018,.034-.044,.058-.077,.071l-5.909,.807v-5.267c1.472-.947,3.486-2.532,3.486-4.12,0-1.5-1-2.5-2.5-2.5-.541,0-1.077,.249-1.5,.616l-1,1.124-1-1.124c-.423-.368-.959-.616-1.5-.616-1.5,0-2.5,1-2.5,2.5,0,1.598,2.04,3.193,3.514,4.138v5.252l-5.874-.809c-.033-.014-.06-.037-.078-.071-.018-.032-.023-.065-.018-.1l1.11-2.287c.365-.614,.443-1.351,.202-2.073-.278-.829-.857-2.554-.857-4.464,0-4.876,5.868-7.634,6.536-7.932,.303-.135,.635-.127,.922,0,.669,.298,6.537,3.056,6.537,7.932,0,1.91-.579,3.635-.87,4.503-.232,.692-.149,1.435,.225,2.052l1.169,2.278c.003,.031-.003,.062-.019,.091Z"/>
</svg>
