<?xml version="1.0" encoding="UTF-8"?>
<svg xmlns="http://www.w3.org/2000/svg" id="Layer_1" data-name="Layer 1" viewBox="0 0 24 24">
  <path d="M12.381,13.704l-2.506,4.296c-.349,.014-.722-.042-1.06-.042-2.745-.342-4.814-2.688-4.814-5.458v-2.595c-.64,1.068-1,2.299-1,3.595v9c0,.829-.671,1.5-1.5,1.5s-1.5-.671-1.5-1.5V13.5c0-3.179,1.488-6.094,4-7.98v-.02C4,2.467,6.467,0,9.5,0h1c3.033,0,5.5,2.467,5.5,5.5v.02c1.675,1.258,2.874,2.98,3.496,4.928-.677-.603-1.551-.95-2.496-.95-1.356,0-2.574,.699-3.257,1.871l-.743,1.273V5.5c0-1.378-1.122-2.5-2.5-2.5h-1c-1.378,0-2.5,1.122-2.5,2.5v7c0,.491,.147,.951,.395,1.341,.734-.527,1.631-.841,2.605-.841,.88,0,1.69,.266,2.381,.704Zm9.846,10.296H11.773c-1.367,0-2.218-1.483-1.53-2.663l5.227-8.96c.683-1.171,2.376-1.171,3.059,0l5.226,8.96c.689,1.181-.163,2.663-1.53,2.663Zm-4.227-2c0-.552-.448-1-1-1s-1,.448-1,1,.448,1,1,1,1-.448,1-1Zm0-6c0-.552-.448-1-1-1s-1,.448-1,1v3c0,.552,.448,1,1,1s1-.448,1-1v-3Z"/>
</svg>
