<?xml version="1.0" encoding="UTF-8"?>
<svg xmlns="http://www.w3.org/2000/svg" id="Layer_1" data-name="Layer 1" viewBox="0 0 24 24">
  <path d="M24,2.5c0-1.381-1.119-2.5-2.5-2.5s-2.5,1.119-2.5,2.5c0,.815,.396,1.532,1,1.989v5.011c0,.827-.673,1.5-1.5,1.5h-.5v-2C18,4.038,13.963,0,9,0S0,4.038,0,9v9.5c0,3.033,2.468,5.5,5.5,5.5h7c3.032,0,5.5-2.467,5.5-5.5v-4.5h.5c2.481,0,4.5-2.019,4.5-4.5V4.489c.604-.456,1-1.173,1-1.989ZM8,14v-3h2v3h-2Zm-5,0v-3h2v3H3Zm10-3h2v3h-2v-3ZM9,3c2.967,0,5.431,2.167,5.91,5H3.09c.478-2.833,2.942-5,5.91-5Zm3.5,18H5.5c-1.379,0-2.5-1.122-2.5-2.5v-1.5H15v1.5c0,1.378-1.121,2.5-2.5,2.5Z"/>
</svg>
