<?xml version="1.0" encoding="UTF-8"?>
<svg xmlns="http://www.w3.org/2000/svg" id="Layer_1" data-name="Layer 1" viewBox="0 0 24 24">
  <path d="M10,10.685v-1.185c0-.828-.672-1.5-1.5-1.5,0-.828-.672-1.5-1.5-1.5s-1.5,.672-1.5,1.5c-.828,0-1.5,.672-1.5,1.5v1.185C1.639,11.812,0,14.215,0,17c0,3.859,3.14,7,7,7s7-3.141,7-7c0-2.785-1.639-5.188-4-6.315Zm-3,10.315c-2.206,0-4-1.794-4-4s1.794-4,4-4,4,1.794,4,4-1.794,4-4,4ZM10.5,1.5c0-.828,.672-1.5,1.5-1.5s1.5,.672,1.5,1.5-.672,1.5-1.5,1.5-1.5-.672-1.5-1.5Zm4,2.5c0-.828,.672-1.5,1.5-1.5s1.5,.672,1.5,1.5-.672,1.5-1.5,1.5-1.5-.672-1.5-1.5Zm-8,0c0-.828,.672-1.5,1.5-1.5s1.5,.672,1.5,1.5-.672,1.5-1.5,1.5-1.5-.672-1.5-1.5Zm17.5,13c0,3.859-3.141,7-7,7-.426,0-.854-.039-1.271-.115-.814-.15-1.354-.932-1.204-1.747,.149-.814,.931-1.354,1.747-1.204,.238,.044,.483,.066,.729,.066,2.206,0,4-1.794,4-4s-1.794-4-4-4c-.245,0-.49,.022-.729,.066-.774,.139-1.509-.339-1.712-1.083-.361-.778-.56-1.622-.56-2.483,0-.828,.672-1.5,1.5-1.5,0-.828,.672-1.5,1.5-1.5s1.5,.672,1.5,1.5c.828,0,1.5,.672,1.5,1.5v1.185c2.361,1.126,4,3.53,4,6.315Z"/>
</svg>
