<?xml version="1.0" encoding="UTF-8"?>
<svg xmlns="http://www.w3.org/2000/svg" id="Layer_1" data-name="Layer 1" viewBox="0 0 24 24">
  <path d="m24,13v2c0,1.103-.897,2-2,2h-.089c-.744,1.83-2.146,3.319-3.911,4.183v.317c0,1.379-1.121,2.5-2.5,2.5-1.208,0-2.217-.86-2.449-2h-4.101c-.232,1.14-1.242,2-2.449,2-1.378,0-2.5-1.121-2.5-2.5v-.582C1.613,19.532,0,16.953,0,14,0,12.592.372,11.248,1.043,10.065.442,9.122.089,7.963.015,6.58c-.044-.827.59-1.533,1.417-1.578.821-.032,1.534.591,1.579,1.418.024.448.098.836.199,1.19.642-.402,1.495-.268,1.972.342.51.653.395,1.596-.258,2.105-.327.256-.946.984-.955.993-.622.846-.97,1.868-.97,2.95,0,2.757,2.243,5,5,5h6.5c2.757,0,5-2.243,5-5s-2.243-5-5-5c-.828,0-1.5-.672-1.5-1.5,0-.697.478-1.278,1.122-1.446.333-1.429,1.378-2.65,2.737-3.022.573-.157,1.14.283,1.14.877v2.909c1.765.864,3.167,2.353,3.911,4.183h.089c1.103,0,2,.897,2,2Zm-7-.5c0-.828-.672-1.5-1.5-1.5s-1.5.672-1.5,1.5.672,1.5,1.5,1.5,1.5-.672,1.5-1.5ZM5.5,6h1.5v1.5c0,.828.671,1.5,1.5,1.5s1.5-.672,1.5-1.5v-1.5h1.5c.829,0,1.5-.672,1.5-1.5s-.671-1.5-1.5-1.5h-1.5v-1.5c0-.828-.671-1.5-1.5-1.5s-1.5.672-1.5,1.5v1.5h-1.5c-.829,0-1.5.672-1.5,1.5s.671,1.5,1.5,1.5Z"/>
</svg>
