<?xml version="1.0" encoding="UTF-8"?>
<svg xmlns="http://www.w3.org/2000/svg" id="Layer_1" data-name="Layer 1" viewBox="0 0 24 24">
  <path d="m13.5,19.5c0,.828-.672,1.5-1.5,1.5s-1.5-.672-1.5-1.5.672-1.5,1.5-1.5,1.5.672,1.5,1.5Zm-7,1.5c-.828,0-1.5.672-1.5,1.5s.672,1.5,1.5,1.5,1.5-.672,1.5-1.5-.672-1.5-1.5-1.5Zm-5-3c-.828,0-1.5.672-1.5,1.5s.672,1.5,1.5,1.5,1.5-.672,1.5-1.5-.672-1.5-1.5-1.5Zm22.5-7.5c0,.828-.671,1.5-1.5,1.5h-.635c.08.451.135.933.135,1.5,0,2.482-2.018,4.5-4.5,4.5-.113,0-.228-.004-.343-.013-2.451-.183-4.148-2.528-4.148-4.986,0-.344.021-.674.045-1.001h-2.238c.109.628.185,1.111.185,1.5,0,2.482-2.018,4.5-4.5,4.5-.238,0-.48-.019-.725-.057-2.271-.357-3.771-2.469-3.771-4.768,0-.409.026-.791.049-1.175h-.554c-.829,0-1.5-.672-1.5-1.5s.671-1.5,1.5-1.5h1.012C4.065,3.046,9.197.823,14.1.037c.764,0,1.265.779.741,1.398-.508.601-4.841,1.565-4.841,6.065,0,.503.073,1.004.165,1.5h3.481c1.48-4.387,5.326-6.799,8.918-7.903.127-.039.253-.057.374-.057.75,0,1.318.7.953,1.441-.24.488-2.891,2.019-2.891,4.519,0,.786.068,1.43.167,2h1.333c.829,0,1.5.672,1.5,1.5Zm-16,3c0-.183-.337-1.951-.438-2.364-.25-1.016-.562-2.279-.562-3.636,0-.355.018-.695.052-1.022-1.39,1.639-2.048,3.844-2.048,6.697,0,.781.433,1.678,1.236,1.804.088.014.175.021.26.021.827,0,1.5-.673,1.5-1.5Zm11,0c0-.792-.151-1.354-.36-2.131-.272-1.011-.607-2.257-.638-4.1-1.191,1.388-1.994,3.246-1.994,5.732,0,1.008.641,1.94,1.371,1.994.04.003.081.005.12.005.827,0,1.5-.673,1.5-1.5Zm-1.5,7.5c-.828,0-1.5.672-1.5,1.5s.672,1.5,1.5,1.5,1.5-.672,1.5-1.5-.672-1.5-1.5-1.5ZM14.1.037c.063-.01-.06,0,0,0h0Zm8.4,17.963c-.828,0-1.5.672-1.5,1.5s.672,1.5,1.5,1.5,1.5-.672,1.5-1.5-.672-1.5-1.5-1.5Z"/>
</svg>
