<?xml version="1.0" encoding="UTF-8"?>
<svg xmlns="http://www.w3.org/2000/svg" id="Layer_1" data-name="Layer 1" viewBox="0 0 24 24">
  <path d="m22.732,9.013c-.767-.699-1.761-1.059-2.796-1.008-1.037.048-1.992.498-2.69,1.265l-2.438,2.68c-.647-.589-1.507-.949-2.449-.949h-7.858c-2.481,0-4.5,2.019-4.5,4.5v4c0,2.481,2.019,4.5,4.5,4.5h5.414c3.03,0,5.912-1.309,7.905-3.589l5.196-5.943c1.41-1.581,1.284-4.028-.282-5.455Zm-1.967,3.47l-5.206,5.954c-1.424,1.629-3.482,2.563-5.646,2.563h-5.414c-.827,0-1.5-.673-1.5-1.5v-4c0-.827.673-1.5,1.5-1.5h7.858c.354,0,.642.288.642.643,0,.317-.237.591-.551.635l-5.161.737c-.82.117-1.39.877-1.273,1.697.117.82.879,1.383,1.697,1.273l5.16-.737c1.619-.231,2.876-1.53,3.094-3.115l3.498-3.844c.159-.174.376-.276.612-.288.234-.008.461.07.636.229.356.325.384.881.054,1.252ZM9.535,2.677L11.986.227c.303-.302.793-.302,1.096,0l2.451,2.451c.488.488.142,1.323-.548,1.323h-.984v3.5c0,.829-.671,1.5-1.5,1.5s-1.5-.671-1.5-1.5v-3.5h-.917c-.69,0-1.036-.834-.548-1.323Zm-7,2l2.451-2.451c.303-.302.793-.302,1.096,0l2.451,2.451c.488.488.142,1.323-.548,1.323h-.984v1.5c0,.829-.671,1.5-1.5,1.5s-1.5-.671-1.5-1.5v-1.5h-.917c-.69,0-1.036-.834-.548-1.323Z"/>
</svg>
