<?xml version="1.0" encoding="UTF-8"?>
<svg xmlns="http://www.w3.org/2000/svg" id="Layer_1" data-name="Layer 1" viewBox="0 0 24 24">
  <path d="m22.757,1.102C21.966.35,20.882-.053,19.8.005L4.806.755C2.583.866.786,2.551.533,4.77L.009,9.542c-.045.412.083.825.352,1.14.056.065,9.608,6.054,9.608,6.054.885.551,2.031-.086,2.031-1.128v-3.934l7.271.323c.069.003.138.004.207.004,1.17,0,2.273-.442,3.125-1.256.901-.862,1.397-2.024,1.397-3.271v-3.472c0-1.09-.453-2.147-1.243-2.898Zm-1.757,6.371c0,.421-.167.813-.472,1.104s-.709.434-1.124.422l-16.239-.721.349-3.174c.085-.746.691-1.315,1.441-1.353l14.995-.75c.281-.021.539.083.739.274.201.19.311.448.311.725v3.472Zm-11.355,11.47l-3.837,1.535,3.339,2.172c.654.49.162,1.524-.631,1.326l-4.386-1.33c-1.265-.383-2.13-1.549-2.13-2.871,0-1.157.343-2.288.984-3.251l.868-1.302,5.793,3.72Z"/>
</svg>
