<?xml version="1.0" encoding="UTF-8"?>
<svg xmlns="http://www.w3.org/2000/svg" id="Layer_1" data-name="Layer 1" viewBox="0 0 24 24">
  <path d="m24,12c0,.553-.447,1-1,1h-1v1c0,.553-.447,1-1,1s-1-.447-1-1v-1h-1c-.553,0-1-.447-1-1s.447-1,1-1h1v-1c0-.553.447-1,1-1s1,.447,1,1v1h1c.553,0,1,.447,1,1Zm-10,3h-2c-.553,0-1,.447-1,1s.447,1,1,1h2c1.654,0,3-1.346,3-3,0-.911-.416-1.718-1.059-2.268.349-.49.559-1.086.559-1.732,0-1.654-1.346-3-3-3h-1.5c-.553,0-1,.447-1,1s.447,1,1,1h1.5c.552,0,1,.448,1,1s-.448,1-1,1h-.5c-.553,0-1,.447-1,1s.447,1,1,1h1c.552,0,1,.448,1,1s-.448,1-1,1Zm7.177,2.322c-.65-.513-1.595-.402-2.107.248-1.72,2.18-4.297,3.43-7.069,3.43-4.963,0-9-4.037-9-9S7.037,3,12,3c2.772,0,5.35,1.25,7.069,3.43.513.65,1.457.761,2.107.248.649-.514.761-1.457.248-2.107C19.132,1.666,15.697,0,12,0,5.383,0,0,5.383,0,12s5.383,12,12,12c3.697,0,7.132-1.666,9.425-4.57.513-.65.401-1.594-.248-2.107Zm-12.177-.322c.553,0,1-.447,1-1v-7.693c0-.542-.326-1.019-.83-1.216-.505-.198-1.067-.068-1.439.334l-1.732,1.901c-.372.408-.343,1.041.065,1.413.411.373,1.041.342,1.413-.065l.523-.575v5.901c0,.553.447,1,1,1Z"/>
</svg>
