<?xml version="1.0" encoding="UTF-8"?>
<svg xmlns="http://www.w3.org/2000/svg" id="Layer_1" data-name="Layer 1" viewBox="0 0 24 24">
  <path d="m22.5,5h-.02c-.02,0-.51-.004-.726,0-.941.008-1.8.066-2.597.157-.119-.32-.277-.643-.487-.961l.577-.865c.46-.689.273-1.621-.416-2.08-.689-.459-1.62-.273-2.08.416l-.468.702c-.395-.139-.826-.232-1.284-.29v-.58c0-.829-.672-1.5-1.5-1.5s-1.5.671-1.5,1.5v.782c-.341.099-.658.225-.961.367l-.867-1.085c-.517-.646-1.46-.752-2.108-.235-.647.518-.752,1.461-.235,2.108l.812,1.016c-.615.686-1.073,1.411-1.4,2.032C6.179,1.547,2.17.142,1.975.077,1.193-.182.358.236.09,1.013s.147,1.628.921,1.905c.134.048,3.092,1.154,3.453,5.246-1.49,1.093-2.463,2.851-2.463,4.836,0,5.049,4.3,9.394,10.7,10.812.568.126,1.103.189,1.606.189.653,0,1.257-.105,1.823-.317,3.348-1.25,4.871-5.637,4.87-9.185,0-2.649-.707-4.648-1.127-5.604-.124-.281-.137-.441-.15-.441.003-.004.376-.407,2.077-.454.066,0,.7,0,.7,0,.828,0,1.5-.671,1.5-1.5s-.672-1.5-1.5-1.5Zm-8.5,0c.955,0,1.714.323,2.104.756-2.186.637-3.577,1.559-4.407,2.31-.502-.295-1.01-.514-1.521-.687.688-1.101,1.898-2.38,3.824-2.38Zm1.081,15.874c-.444.167-1.012.169-1.732.01-4.915-1.089-8.349-4.331-8.349-7.883,0-1.121,1.192-3,3-3,.777,0,1.555.262,2.362.774-.132.742-.499,1.867-1.533,2.384-.741.371-1.041,1.271-.671,2.012.263.526.793.83,1.343.83.226,0,.454-.051.67-.159,2.597-1.298,3.131-4.045,3.24-5.241.377-.409,1.359-1.276,3.341-1.897.034.416.148.882.376,1.4.262.596.872,2.217.873,4.396,0,3.011-1.254,5.751-2.919,6.373Z"/>
</svg>
