<?xml version="1.0" encoding="UTF-8"?>
<svg xmlns="http://www.w3.org/2000/svg" id="Layer_1" data-name="Layer 1" viewBox="0 0 24 24">
  <path d="m22.625,7.862c-.549-.622-1.497-.68-2.117-.132-.621.548-.68,1.496-.132,2.117.291.329.483.728.57,1.153H3.047c.084-.455.279-.871.573-1.202.551-.619.495-1.567-.124-2.118-.62-.551-1.567-.495-2.118.124-.89,1-1.379,2.312-1.379,3.696v7c0,3.033,2.467,5.5,5.5,5.5h13c3.033,0,5.5-2.467,5.5-5.5v-7c0-1.342-.489-2.634-1.375-3.638Zm-12.625,8.138v-2h11v2h-11Zm-7-2h4v2H3v-2Zm.051,5h3.949v2h-1.5c-1.207,0-2.217-.86-2.449-2Zm15.449,2h-8.5v-2h10.949c-.232,1.14-1.242,2-2.449,2ZM6,6.664V1.023c0-.395.222-.742.58-.908.329-.149.718-.128.972.054.042.03,1.738,2.29,1.738,2.29l1.631-1.964c.607-.607,1.539-.621,2.105-.06l1.712,2.021,1.468-2.061c.29-.355.729-.479,1.13-.336.404.146.664.515.664.942v5.68c0,.624-.243,1.21-.685,1.651-.441.44-1.026.682-1.649.682h-.004l-7.333-.017c-1.284-.003-2.328-1.05-2.328-2.333Z"/>
</svg>
