<?xml version="1.0" encoding="UTF-8"?>
<svg xmlns="http://www.w3.org/2000/svg" id="Layer_1" data-name="Layer 1" viewBox="0 0 24 24">
  <path d="M21,0h-5c-1.657,0-3,1.343-3,3v7.069c1.083,.135,2.096,.486,3,1.01v-.079h4c.552,0,1,.448,1,1s-.448,1-1,1h-1.76c.698,.869,1.212,1.888,1.498,3h1.262c1.657,0,3-1.343,3-3V3c0-1.657-1.343-3-3-3Zm-1,9h-3c-.552,0-1-.448-1-1s.448-1,1-1h3c.552,0,1,.448,1,1s-.448,1-1,1Zm0-4h-3c-.552,0-1-.448-1-1s.448-1,1-1h3c.552,0,1,.448,1,1s-.448,1-1,1ZM3,12c0-.552,.448-1,1-1h4v.079c.904-.523,1.917-.875,3-1.01V3c0-1.657-1.343-3-3-3H3C1.343,0,0,1.343,0,3V13c0,1.657,1.343,3,3,3h1.262c.287-1.112,.801-2.131,1.498-3h-1.76c-.552,0-1-.448-1-1ZM4,3h3c.552,0,1,.448,1,1s-.448,1-1,1h-3c-.552,0-1-.448-1-1s.448-1,1-1Zm0,4h3c.552,0,1,.448,1,1s-.448,1-1,1h-3c-.552,0-1-.448-1-1s.448-1,1-1Zm8,5c-3.314,0-6,2.686-6,6s2.686,6,6,6,6-2.686,6-6-2.686-6-6-6Zm2.707,7.293c.391,.391,.391,1.023,0,1.414-.195,.195-.451,.293-.707,.293s-.512-.098-.707-.293l-1.293-1.293-1.293,1.293c-.195,.195-.451,.293-.707,.293s-.512-.098-.707-.293c-.391-.391-.391-1.023,0-1.414l1.293-1.293-1.293-1.293c-.391-.391-.391-1.023,0-1.414s1.023-.391,1.414,0l1.293,1.293,1.293-1.293c.391-.391,1.023-.391,1.414,0s.391,1.023,0,1.414l-1.293,1.293,1.293,1.293Z"/>
</svg>
