<?xml version="1.0" encoding="UTF-8"?>
<svg xmlns="http://www.w3.org/2000/svg" id="Layer_1" data-name="Layer 1" viewBox="0 0 24 24">
  <path d="m24,7.5v5c0,.829-.671,1.5-1.5,1.5s-1.5-.671-1.5-1.5v-3.5H3v9.5c0,1.142.771,2.138,1.874,2.421.803.207,1.286,1.024,1.079,1.826-.174.677-.784,1.127-1.452,1.127-.124,0-.25-.016-.375-.048-2.43-.625-4.126-2.815-4.126-5.327V7.5C0,4.467,2.467,2,5.5,2h.5v-.5c0-.829.671-1.5,1.5-1.5s1.5.671,1.5,1.5v.5h6v-.5c0-.829.671-1.5,1.5-1.5s1.5.671,1.5,1.5v.5h.5c3.033,0,5.5,2.467,5.5,5.5Zm-6.032,15.476c.124.424-.12.868-.543.993-.075.021-.15.032-.225.032-.346,0-.665-.227-.768-.576l-.241-.825h-2.968l-.255.825c-.125.424-.57.665-.993.543-.424-.124-.667-.568-.543-.993l1.684-5.759c.213-.728.85-1.216,1.584-1.216h0c.734,0,1.371.489,1.583,1.217l1.247,4.262c.007.016.008.033.014.049l.424,1.448Zm-2.245-1.976l-.975-3.334-1.03,3.334h2.005Zm7.893-4.894c-.377-.229-.869-.109-1.1.268l-1.267,2.082-1.267-2.082c-.23-.377-.723-.499-1.1-.268-.377.23-.497.722-.268,1.1l1.697,2.789-1.697,2.789c-.229.377-.11.87.268,1.1.13.079.273.117.415.117.27,0,.534-.137.685-.384l1.267-2.082,1.267,2.082c.151.248.415.384.685.384.142,0,.285-.038.415-.117.377-.23.497-.722.268-1.1l-1.697-2.789,1.697-2.789c.229-.377.11-.87-.268-1.1Zm-11.616.694c0-.442-.358-.8-.8-.8h-4.4c-.442,0-.8.358-.8.8s.358.8.8.8h1.4v5.601c0,.442.358.8.8.8s.8-.358.8-.8v-5.601h1.4c.442,0,.8-.358.8-.8Z"/>
</svg>
