<?xml version="1.0" encoding="UTF-8"?>
<svg xmlns="http://www.w3.org/2000/svg" id="Layer_1" data-name="Layer 1" viewBox="0 0 24 24">
  <path d="m24,7.146v10.147c0,2.659-1.899,4.935-4.516,5.411l-5.762,1.139c-.578.105-1.154.157-1.728.157-.568,0-1.132-.051-1.693-.153l-5.807-1.147c-2.595-.472-4.494-2.748-4.494-5.407V7.146c0-1.344.489-2.636,1.376-3.64.548-.62,1.496-.679,2.117-.13.621.548.679,1.497.13,2.117-.284.321-.623.869-.623,1.652v10.147c0,1.209.863,2.243,2.053,2.46l5.447,1.076v-3.328c0-.829.671-1.5,1.5-1.5s1.5.671,1.5,1.5v3.328l5.425-1.072c1.212-.221,2.075-1.255,2.075-2.464V7.146c0-.783-.339-1.331-.624-1.652-.549-.621-.491-1.568.129-2.118.621-.549,1.568-.491,2.118.129.888,1.003,1.376,2.296,1.376,3.64ZM15,0h-6c-1.657,0-3,1.343-3,3v6c0,1.657,1.343,3,3,3h.071l1.939,1.939c.586.586,1.536.586,2.121,0l1.939-1.939-.017-.005c1.631-.03,2.946-1.356,2.946-2.995V3c0-1.657-1.343-3-3-3Zm-3,2c.828,0,1.5.672,1.5,1.5s-.672,1.5-1.5,1.5-1.5-.672-1.5-1.5.672-1.5,1.5-1.5Zm1,5v2c0,.552-.448,1-1,1s-1-.448-1-1v-2c0-.552.448-1,1-1s1,.448,1,1Z"/>
</svg>
