<?xml version="1.0" encoding="UTF-8"?>
<svg xmlns="http://www.w3.org/2000/svg" id="Layer_1" data-name="Layer 1" viewBox="0 0 24 24">
  <path d="M11.675,9.046c.38,.388,.38,1.008,0,1.397l-2.925,2.997h.001l-.004,.004c-.744,.744-2.058,.746-2.823-.019l-1.515-1.575c-.372-.387-.372-.999,0-1.386,.393-.408,1.047-.409,1.44,0l1.496,1.553,2.899-2.971c.392-.402,1.038-.402,1.43,0h0Zm12.325-1.546v6c0,2.481-2.019,4.5-4.5,4.5h-3.5v1c0,2.5-2.342,5-5,5H5c-2.761,0-5-2.239-5-5V5.5C0,2.467,2.468,0,5.5,0h5c2.132,0,3.98,1.222,4.893,3h4.107c2.481,0,4.5,2.019,4.5,4.5Zm-14,13.5c0-.552-.448-1-1-1h-2c-.552,0-1,.448-1,1s.448,1,1,1h2c.552,0,1-.448,1-1Zm3-15.5c0-1.378-1.121-2.5-2.5-2.5H5.5c-1.379,0-2.5,1.122-2.5,2.5v12.5H13V5.5Zm8,5.5h-5v4h3.5c.827,0,1.5-.673,1.5-1.5v-2.5Zm0-3.5c0-.827-.673-1.5-1.5-1.5h-3.5v2h5v-.5Z"/>
</svg>
