<?xml version="1.0" encoding="UTF-8"?>
<svg xmlns="http://www.w3.org/2000/svg" id="Layer_1" data-name="Layer 1" viewBox="0 0 24 24">
  <path d="M14.095,7h-.595V3.5c0-.829-.671-1.5-1.5-1.5s-1.5,.671-1.5,1.5v3.5h-.595c-2.934,0-4.905,1.809-4.905,4.5v1c0,1.208,.86,2.217,2,2.45v3.55c0,1.378,1.122,2.5,2.5,2.5h5c1.378,0,2.5-1.122,2.5-2.5v-3.55c1.14-.232,2-1.242,2-2.45v-1c0-2.691-1.971-4.5-4.905-4.5Zm1.905,5h-.5c-.829,0-1.5,.671-1.5,1.5v4.5h-4v-4.5c0-.829-.671-1.5-1.5-1.5h-.5v-.5c-.023-1.034,.753-1.54,2.011-1.5,.456,.604,1.173,1,1.989,1s1.532-.396,1.989-1c1.259-.039,2.034,.466,2.011,1.5v.5Zm8.004,10.5c0,.829-.671,1.5-1.5,1.5s-1.5-.671-1.5-1.5l-.003-17.5h-4.001c-.829,0-1.5-.671-1.5-1.5s.671-1.5,1.5-1.5h4v-.5c0-.829,.671-1.5,1.499-1.5s1.5,.671,1.5,1.5l.004,21ZM2.997,5l.003,17.5c0,.829-.671,1.5-1.5,1.5s-1.5-.671-1.5-1.5L-.004,1.5C-.004,.672,.667,0,1.496,0s1.5,.671,1.5,1.5v.5H7c.829,0,1.5,.671,1.5,1.5s-.671,1.5-1.5,1.5H2.997Z"/>
</svg>
