<?xml version="1.0" encoding="UTF-8"?>
<svg xmlns="http://www.w3.org/2000/svg" id="Layer_1" data-name="Layer 1" viewBox="0 0 24 24">
  <path d="m17.629,14.25c-.414-.718-1.331-.964-2.049-.549l-.676.39c-.413-.352-.884-.629-1.404-.815v-.776c0-.828-.671-1.5-1.5-1.5s-1.5.672-1.5,1.5v.776c-.521.186-.992.463-1.404.815l-.676-.39c-.715-.415-1.634-.169-2.049.549-.414.718-.168,1.635.55,2.049l.662.382c-.049.266-.083.539-.083.819s.033.553.083.819l-.662.382c-.718.414-.964,1.331-.55,2.049.278.481.782.75,1.301.75.254,0,.512-.064.748-.201l.676-.39c.413.352.884.629,1.404.815v.776c0,.828.671,1.5,1.5,1.5s1.5-.672,1.5-1.5v-.776c.521-.186.992-.463,1.404-.815l.676.39c.236.137.494.201.748.201.519,0,1.023-.269,1.301-.75.414-.718.168-1.635-.55-2.049l-.662-.382c.049-.266.083-.539.083-.819s-.033-.553-.083-.819l.662-.382c.718-.414.964-1.331.55-2.049Zm-5.629,4.75c-.827,0-1.5-.673-1.5-1.5s.673-1.5,1.5-1.5,1.5.673,1.5,1.5-.673,1.5-1.5,1.5Zm12-6.5c0,2.096-.927,4.062-2.544,5.398-.638.529-1.584.438-2.111-.201-.528-.639-.438-1.584.201-2.111.921-.762,1.451-1.882,1.455-3.075-.005-2.254-1.592-4.188-3.777-4.624-1.085-.216-1.977-.907-2.447-1.897-1.021-2.156-3.306-3.311-5.678-2.875-2.076.38-3.768,2.104-4.114,4.193-.106.639-.1,1.274.02,1.888.219,1.129-.198,2.334-1.087,3.145-.557.506-.917,1.362-.917,2.183,0,.876.505,1.76,1.257,2.199.715.418.956,1.337.538,2.052-.279.478-.781.743-1.296.743-.257,0-.518-.065-.755-.205-1.667-.974-2.743-2.854-2.743-4.789,0-1.677.709-3.322,1.898-4.402.114-.104.181-.249.161-.353-.188-.967-.199-1.959-.034-2.952C2.583,3.449,5.209.775,8.558.163c3.672-.672,7.343,1.194,8.929,4.54.06.126.174.212.322.242,3.587.715,6.191,3.892,6.191,7.555Z"/>
</svg>
