<?xml version="1.0" encoding="UTF-8"?>
<svg xmlns="http://www.w3.org/2000/svg" id="Layer_1" data-name="Layer 1" viewBox="0 0 24 24">
  <path d="m15.988,13.233l3.889-.845c.438.377,1,.612,1.622.612,1.381,0,2.5-1.119,2.5-2.5s-1.119-2.5-2.5-2.5c-1.007,0-1.87.599-2.266,1.458l-3.883.844c-.209-.414-.462-.801-.757-1.153l2.968-4.155c1.351-.034,2.438-1.134,2.438-2.494,0-1.381-1.119-2.5-2.5-2.5s-2.5,1.119-2.5,2.5c0,.261.051.508.125.744l-2.973,4.162c-.669-.258-1.393-.406-2.153-.406s-1.483.148-2.153.406l-2.973-4.162c.074-.236.125-.483.125-.744,0-1.381-1.119-2.5-2.5-2.5S0,1.119,0,2.5c0,1.359,1.087,2.46,2.438,2.494l2.968,4.155c-.876,1.043-1.405,2.386-1.405,3.852,0,1.245.381,2.402,1.033,3.362l-2.345,2.657c-.063-.005-.124-.019-.188-.019-1.381,0-2.5,1.119-2.5,2.5s1.119,2.5,2.5,2.5,2.5-1.119,2.5-2.5c0-.174-.018-.343-.052-.507l2.338-2.649c.816.416,1.737.656,2.714.656,1.216,0,2.347-.366,3.293-.99l3.719,3.372c-.002.04-.012.078-.012.118,0,1.381,1.119,2.5,2.5,2.5s2.5-1.119,2.5-2.5-1.119-2.5-2.5-2.5c-.197,0-.386.028-.569.071l-3.622-3.284c.405-.769.644-1.635.68-2.554Zm-8.988-.233c0-1.654,1.346-3,3-3s3,1.346,3,3-1.346,3-3,3-3-1.346-3-3Z"/>
</svg>
