<?xml version="1.0" encoding="UTF-8"?>
<svg xmlns="http://www.w3.org/2000/svg" id="Layer_1" data-name="Layer 1" viewBox="0 0 24 24">
  <path d="m20.871,3.642L14.37.537c-1.506-.719-3.234-.719-4.741,0L3.129,3.642c-1.901.908-3.129,2.855-3.129,4.963v13.896c0,.828.671,1.5,1.5,1.5s1.5-.672,1.5-1.5v-.5h3.119l-.015.04c-.357.948.344,1.96,1.357,1.96h9.117c1.013,0,1.714-1.012,1.357-1.96l-.015-.04h3.081v.5c0,.828.671,1.5,1.5,1.5s1.5-.672,1.5-1.5v-13.896c0-2.107-1.229-4.055-3.129-4.963Zm-9.949-.397c.686-.326,1.471-.326,2.156,0l3.676,1.756H7.246l3.676-1.756Zm10.078,15.756h-8v-5c0-.156.074-.306.2-.399l1.2-.9c.663-.497.797-1.438.299-2.101-.497-.662-1.438-.795-2.1-.3l-1.199.899c-.877.657-1.401,1.704-1.401,2.801v5H3v-10.396c0-.207.037-.408.087-.604h1.913v.5c0,.828.671,1.5,1.5,1.5s1.5-.672,1.5-1.5v-.5h8v.5c0,.828.671,1.5,1.5,1.5s1.5-.672,1.5-1.5v-.5h1.913c.05.196.087.397.087.604v10.396Z"/>
</svg>
