<?xml version="1.0" encoding="UTF-8"?>
<svg xmlns="http://www.w3.org/2000/svg" id="Layer_1" data-name="Layer 1" viewBox="0 0 24 24">
  <path d="m24,7c0-1.869-.729-3.627-2.051-4.949s-3.08-2.051-4.949-2.051-3.678.779-5,2.101c-1.322-1.322-3.131-2.101-5-2.101S3.372.729,2.05,2.051C.728,3.372,0,5.13,0,7s.779,3.679,2.101,5c-1.322,1.321-2.101,3.13-2.101,5s.728,3.628,2.05,4.949c1.322,1.322,3.08,2.051,4.95,2.051s3.678-.779,5-2.101c1.322,1.322,3.13,2.101,5,2.101s3.628-.729,4.949-2.051c1.322-1.321,2.051-3.079,2.051-4.949s-.78-3.679-2.101-5c1.322-1.321,2.101-3.129,2.101-5ZM4.171,4.172c1.512-1.512,4.026-1.618,5.708.05l-5.657,5.657c-.755-.756-1.222-1.811-1.222-2.879s.416-2.072,1.171-2.828Zm15.657,15.656c-1.512,1.512-4.117,1.521-5.706-.051l5.656-5.656c.756.756,1.223,1.81,1.223,2.879s-.416,2.072-1.172,2.828Zm0-10l-10,10c-1.512,1.512-4.146,1.512-5.657,0-.755-.756-1.171-1.76-1.171-2.828s.416-2.072,1.171-2.828L14.172,4.172c.756-.756,1.76-1.172,2.828-1.172s2.072.416,2.828,1.172,1.172,1.76,1.172,2.828-.416,2.072-1.172,2.828Zm-10.157,5.5c.586.586.586,1.535,0,2.121-.293.293-.677.439-1.061.439s-.768-.146-1.061-.439l-1-1c-.586-.586-.586-1.535,0-2.121s1.535-.586,2.121,0l1,1Zm7.778-7.777c.586.586.586,1.535,0,2.121-.293.293-.677.439-1.061.439s-.768-.146-1.061-.439l-1-1c-.586-.586-.586-1.535,0-2.121s1.535-.586,2.121,0l1,1Z"/>
</svg>
