<?xml version="1.0" encoding="UTF-8"?>
<svg xmlns="http://www.w3.org/2000/svg" id="Layer_1" data-name="Layer 1" viewBox="0 0 24 24">
  <path d="M18.5,12c-.484,0-.951,.069-1.398,.186l-1.121-1.898c.939-.987,1.52-2.319,1.52-3.789,0-3.038-2.462-5.5-5.5-5.5S6.5,3.462,6.5,6.5c0,1.47,.58,2.802,1.52,3.789l-1.121,1.898c-.447-.117-.914-.186-1.398-.186-3.038,0-5.5,2.462-5.5,5.5s2.462,5.5,5.5,5.5c2.517,0,4.634-1.693,5.288-4h2.425c.654,2.307,2.771,4,5.288,4,3.038,0,5.5-2.462,5.5-5.5s-2.462-5.5-5.5-5.5Zm1.5,3.5c0,.828-.672,1.5-1.5,1.5s-1.5-.672-1.5-1.5,.672-1.5,1.5-1.5,1.5,.672,1.5,1.5Zm-10.519-1.788l1.122-1.898c.447,.117,.914,.186,1.398,.186s.951-.069,1.398-.186l1.122,1.898c-.607,.637-1.06,1.418-1.307,2.288h-2.425c-.246-.87-.7-1.651-1.307-2.288ZM12,3c.828,0,1.5,.672,1.5,1.5s-.672,1.5-1.5,1.5-1.5-.672-1.5-1.5,.672-1.5,1.5-1.5Zm0,4c1.189,0,2.226,.602,2.858,1.508-.634,.899-1.676,1.492-2.858,1.492s-2.224-.592-2.858-1.492c.632-.906,1.669-1.508,2.858-1.508Zm-6.5,7c.828,0,1.5,.672,1.5,1.5s-.672,1.5-1.5,1.5-1.5-.672-1.5-1.5,.672-1.5,1.5-1.5Zm0,7c-1.182,0-2.224-.592-2.858-1.492,.632-.906,1.669-1.508,2.858-1.508s2.226,.602,2.858,1.508c-.634,.899-1.676,1.492-2.858,1.492Zm13,0c-1.182,0-2.224-.592-2.858-1.492,.632-.906,1.669-1.508,2.858-1.508s2.226,.602,2.858,1.508c-.634,.899-1.676,1.492-2.858,1.492Z"/>
</svg>
