<?xml version="1.0" encoding="UTF-8"?>
<svg xmlns="http://www.w3.org/2000/svg" id="Layer_1" data-name="Layer 1" viewBox="0 0 24 24">
  <path d="M22.384,6.615c-.925-.926-2.124-1.456-3.407-1.568-.232-2.821-2.597-5.047-5.477-5.047H5.5c-1.465,0-2.845,.574-3.886,1.615C.572,2.657,0,4.037,0,5.502l.004,11.625c-.022,1.289,1.364,2.236,2.551,1.736l3.522-1.477c.426,2.612,2.692,4.613,5.422,4.613h5.5l4.443,1.863c.046,.02,.094,.037,.142,.051,.176,.054,.358,.081,.542,.081,1.03,0,1.867-.839,1.867-1.871l.005-11.623c0-1.465-.572-2.845-1.614-3.887ZM3,5.501c0-.664,.261-1.291,.735-1.765,.474-.475,1.101-.736,1.765-.736H13.5c1.378,0,2.5,1.122,2.5,2.5v.991s0,.006,0,.009,0,.006,0,.009v4.991c0,1.378-1.122,2.5-2.501,2.5H7.5c-.378,.013-1.035-.057-1.383,.117l-3.113,1.306-.004-9.921Zm17.994,14.921l-3.113-1.305c-.184-.077-.381-.117-.58-.117h-5.802c-1.207,0-2.217-.861-2.449-2h4.45c3.033,0,5.5-2.467,5.5-5.5v-3.448c.474,.097,.91,.331,1.263,.684,.475,.475,.736,1.102,.735,1.765l-.004,9.921ZM10.5,11V6c0-.552,.448-1,1-1h1.7c.442,0,.8,.358,.8,.8s-.358,.8-.8,.8h-1.101v1.101h1.101c.442,0,.8,.358,.8,.8s-.358,.8-.8,.8h-1.101v1.101h1.101c.442,0,.8,.358,.8,.8s-.358,.8-.8,.8h-1.7c-.552,0-1-.448-1-1Zm-1-1v-3c0-1.105-.895-2-2-2h-1.5c-.552,0-1,.448-1,1v5c0,.552,.448,1,1,1h1.5c1.105,0,2-.895,2-2Zm-2.9-3.4h.9c.221,0,.4,.179,.4,.4v3c0,.221-.179,.4-.4,.4h-.9v-3.8Z"/>
</svg>
