<?xml version="1.0" encoding="UTF-8"?>
<svg xmlns="http://www.w3.org/2000/svg" id="Layer_1" data-name="Layer 1" viewBox="0 0 24 24">
  <path d="M.764,3.817C1.968,1.462,4.357,0,7,0c1.961,0,3.819,.83,5.135,2.25,.523-.091,1.05-.184,1.572-.277,2.812-.5,5.469-.973,7.293-.973,.104,0,.205,.011,.303,.031,1.511,.154,2.697,1.419,2.697,2.969,0,1.654-1.346,3-3,3-1.556,0-2.824-1.195-2.971-2.713-1.187,.175-2.502,.409-3.797,.639-2.283,.406-4.772,.904-6.731,1.073-.044,.003,.042,0-.001,0-.771,0-1.427-.663-1.495-1.444-.061-.71,.384-1.344,1.034-1.554-.013,0-.026-.002-.04-.002-1.51,0-2.876,.836-3.565,2.183-.265,.519-.792,.817-1.337,.817-.229,0-.463-.053-.682-.165-.737-.377-1.03-1.281-.652-2.019Zm13.236,6.683v-2c0-.829-.671-1.5-1.5-1.5h-.344c-.521,0-1.006,.271-1.279,.716-.084,.137-.49,.284-1.377,.284H5.5c-3.033,0-5.5,2.467-5.5,5.5v5c0,3.032,2.467,5.5,5.5,5.5h4c.829,0,1.5-.672,1.5-1.5s-.671-1.5-1.5-1.5H5.5c-1.378,0-2.5-1.121-2.5-2.5v-5c0-1.378,1.122-2.5,2.5-2.5h4c.465,0,1.003-.025,1.544-.138,.162,.654,.752,1.138,1.456,1.138,.829,0,1.5-.671,1.5-1.5Zm10,7.5c0,3.314-2.686,6-6,6s-6-2.686-6-6,2.686-6,6-6,6,2.686,6,6Zm-5.233,2.888l-3.656-3.655c-.066,.246-.112,.5-.112,.767,0,1.654,1.346,3,3,3,.267,0,.521-.046,.767-.112Zm2.233-2.888c0-1.654-1.346-3-3-3-.267,0-.521,.046-.767,.112l3.656,3.655c.066-.246,.112-.5,.112-.767Z"/>
</svg>
