<?xml version="1.0" encoding="UTF-8"?>
<svg xmlns="http://www.w3.org/2000/svg" id="Layer_1" data-name="Layer 1" viewBox="0 0 24 24">
  <path d="M18,12c-3.314,0-6,2.686-6,6s2.686,6,6,6,6-2.686,6-6-2.686-6-6-6Zm2.707,7.293c.391,.391,.391,1.023,0,1.414-.195,.195-.451,.293-.707,.293s-.512-.098-.707-.293l-1.293-1.293-1.293,1.293c-.195,.195-.451,.293-.707,.293s-.512-.098-.707-.293c-.391-.391-.391-1.023,0-1.414l1.293-1.293-1.293-1.293c-.391-.391-.391-1.023,0-1.414s1.023-.391,1.414,0l1.293,1.293,1.293-1.293c.391-.391,1.023-.391,1.414,0s.391,1.023,0,1.414l-1.293,1.293,1.293,1.293Zm3.293-11.793v2c0,.829-.672,1.5-1.5,1.5s-1.5-.671-1.5-1.5v-2c0-.171-.018-.338-.051-.5H3v9.5c0,1.378,1.122,2.5,2.5,2.5h3c.829,0,1.5,.671,1.5,1.5s-.671,1.5-1.5,1.5h-3c-3.033,0-5.5-2.467-5.5-5.5V5.5C0,2.467,2.467,0,5.5,0h2.528c.54,0,1.081,.127,1.564,.369l3.156,1.579c.068,.034,.146,.053,.224,.053h5.528c3.032,0,5.5,2.467,5.5,5.5Z"/>
</svg>
