<?xml version="1.0" encoding="UTF-8"?>
<svg xmlns="http://www.w3.org/2000/svg" id="Layer_1" data-name="Layer 1" viewBox="0 0 24 24">
  <path d="m24,22.5c0,.828-.672,1.5-1.5,1.5-2.412,0-4.602-1.33-5.714-3.471l-5.307-10.218-6.646,12.877c-.267.517-.791.812-1.334.812-.231,0-.467-.054-.687-.167-.736-.38-1.025-1.285-.646-2.021l7.619-14.762-1.141-2.197c-.595-1.143-1.764-1.854-3.052-1.854-.828,0-1.546-.672-1.546-1.5s.625-1.5,1.453-1.5c2.411,0,4.693,1.33,5.807,3.47l8.142,15.677c.594,1.144,1.764,1.854,3.052,1.854.828,0,1.5.672,1.5,1.5Z"/>
</svg>
