<?xml version="1.0" encoding="UTF-8"?>
<svg xmlns="http://www.w3.org/2000/svg" id="Layer_1" data-name="Layer 1" viewBox="0 0 24 24">
  <path d="m14,5v5.5h.5c.829,0,1.5.672,1.5,1.5s-.671,1.5-1.5,1.5h-.5v5.5h.5c.829,0,1.5.672,1.5,1.5s-.671,1.5-1.5,1.5h-.5c-1.654,0-3-1.346-3-3V5c0-1.654,1.346-3,3-3h.5c.829,0,1.5.672,1.5,1.5s-.671,1.5-1.5,1.5h-.5Zm-9.5,0c1.381,0,2.5-1.119,2.5-2.5S5.881,0,4.5,0s-2.5,1.119-2.5,2.5,1.119,2.5,2.5,2.5Zm4.5,5v4c0,1.474-.81,2.75-2,3.444v5.056c0,.828-.671,1.5-1.5,1.5h-2c-.829,0-1.5-.672-1.5-1.5v-5.056c-1.19-.694-2-1.97-2-3.444v-4c0-2.206,1.794-4,4-4h1c2.206,0,4,1.794,4,4Zm-6,4c0,.552.449,1,1,1h1c.551,0,1-.448,1-1v-4c0-.552-.449-1-1-1h-1c-.551,0-1,.448-1,1v4ZM21.821,4.953c-.71.733-1.887.728-2.59-.011l-.962-1.01c-.362-.387-.358-.99.01-1.372.397-.413,1.059-.407,1.449.013l.805.835,2.683-2.72c-.448-.424-1.049-.689-1.715-.689h-2c-1.381,0-2.5,1.119-2.5,2.5v2c0,1.381,1.119,2.5,2.5,2.5h2c1.381,0,2.5-1.119,2.5-2.5v-1.76l-2.179,2.214Zm-2.59,8.489l-.962-1.01c-.362-.387-.358-.99.01-1.372.397-.413,1.059-.407,1.449.013l.805.835,2.683-2.72c-.448-.424-1.049-.689-1.715-.689h-2c-1.381,0-2.5,1.119-2.5,2.5v2c0,1.381,1.119,2.5,2.5,2.5h2c1.381,0,2.5-1.119,2.5-2.5v-1.76l-2.179,2.214c-.71.733-1.887.728-2.59-.011Zm0,8.5l-.962-1.01c-.362-.387-.358-.99.01-1.372.397-.413,1.059-.407,1.449.013l.805.835,2.683-2.72c-.448-.424-1.049-.689-1.715-.689h-2c-1.381,0-2.5,1.119-2.5,2.5v2c0,1.381,1.119,2.5,2.5,2.5h2c1.381,0,2.5-1.119,2.5-2.5v-1.76l-2.179,2.214c-.71.733-1.887.728-2.59-.011Z"/>
</svg>
