<?xml version="1.0" encoding="UTF-8"?>
<svg xmlns="http://www.w3.org/2000/svg" id="Layer_1" data-name="Layer 1" viewBox="0 0 24 24">
  <path d="m22,6.904V2.5c0-.829-.671-1.5-1.5-1.5s-1.5.671-1.5,1.5v2.046l-3.61-2.825c-1.996-1.562-4.784-1.562-6.779,0L2.11,6.807c-1.341,1.05-2.11,2.628-2.11,4.331v7.35c0,3.033,2.467,5.5,5.5,5.5h13c3.033,0,5.5-2.467,5.5-5.5v-7.35c0-1.653-.73-3.185-2-4.234Zm-1,11.584c0,1.378-1.122,2.5-2.5,2.5H5.5c-1.378,0-2.5-1.122-2.5-2.5v-7.35c0-.774.35-1.492.959-1.969l6.5-5.086c.454-.355.998-.532,1.541-.532s1.087.177,1.541.532l6.5,5.086c.61.477.959,1.195.959,1.969v7.35Zm-12.495-5.484c-.828,0-1.499-.671-1.499-1.499s.671-1.499,1.499-1.499,1.499.671,1.499,1.499-.671,1.499-1.499,1.499Zm8.494,3.497c0,.828-.671,1.499-1.499,1.499s-1.499-.671-1.499-1.499.671-1.499,1.499-1.499,1.499.671,1.499,1.499Zm-1.751-4.669l-4,6c-.289.434-.765.668-1.25.668-.286,0-.575-.082-.831-.252-.689-.459-.875-1.391-.416-2.08l4-6c.459-.689,1.39-.876,2.08-.416.689.459.875,1.391.416,2.08Z"/>
</svg>
