<?xml version="1.0" encoding="UTF-8"?>
<svg xmlns="http://www.w3.org/2000/svg" id="Layer_1" data-name="Layer 1" viewBox="0 0 24 24">
  <path d="m11.5,3c0-1.657,1.343-3,3-3s3,1.343,3,3-1.343,3-3,3-3-1.343-3-3Zm12.5,14.5c0,.828-.671,1.5-1.5,1.5h-.5v3.5c0,.828-.671,1.5-1.5,1.5s-1.5-.672-1.5-1.5v-3.5H5v3.5c0,.828-.671,1.5-1.5,1.5s-1.5-.672-1.5-1.5v-3.5h-.5c-.829,0-1.5-.672-1.5-1.5s.671-1.5,1.5-1.5h.5v-3.086c0-.667.26-1.295.732-1.768l1.281-1.281c.071-1.041.928-1.865,1.986-1.865,1.105,0,2,.895,2,2,0,1.058-.825,1.916-1.865,1.986l-1.135,1.135v2.879h5v-6.957L5.348,3.46c-.53-.637-.444-1.583.192-2.113.637-.531,1.582-.444,2.113.192l4.55,5.46h4.595l4.55-5.46c.531-.636,1.476-.723,2.113-.192.636.53.722,1.476.192,2.113l-4.652,5.583v6.957h3.5c.829,0,1.5.672,1.5,1.5Zm-11-1.5h3v-6h-3v6Z"/>
</svg>
