<?xml version="1.0" encoding="UTF-8"?>
<svg xmlns="http://www.w3.org/2000/svg" id="Layer_1" data-name="Layer 1" viewBox="0 0 24 24">
  <path d="m11,22.5c0,.829-.672,1.5-1.5,1.5h-4c-3.032,0-5.5-2.467-5.5-5.5v-8.614c0-1.831.906-3.536,2.424-4.56L8.924.941c1.869-1.262,4.283-1.262,6.152,0l6.924,4.708c1.12.923,1.834,2.246,1.975,3.707.08.825-.524,1.558-1.349,1.638-.816.075-1.558-.524-1.638-1.349-.072-.745-.469-1.412-1.09-1.831l-6.5-4.387c-.85-.573-1.947-.573-2.797,0l-6.5,4.386c-.689.466-1.102,1.24-1.102,2.073v8.614c0,1.378,1.121,2.5,2.5,2.5h4c.828,0,1.5.671,1.5,1.5Zm13-4.526h0c0,3.208-2.507,5.831-5.669,6.016-2.642.155-4.939-1.57-5.956-4.014-.95-2.283.052-4.33,1.125-5.656.28-.346.827-.283,1.007.123.254.575-.045,1.721.777,1.721,1.137,0,.808-3.581,2.077-5.728.225-.381.748-.455,1.078-.161,2.05,1.829,5.562,4.532,5.562,7.699Zm-4.681.479h0l-.894-.894c-.249-.249-.652-.249-.901,0l-.894.894c-.763.763-.899,2.015-.197,2.835.813.948,2.271.948,3.083,0,.703-.819.566-2.072-.197-2.835Z"/>
</svg>
