<?xml version="1.0" encoding="UTF-8"?>
<svg xmlns="http://www.w3.org/2000/svg" id="Layer_1" data-name="Layer 1" viewBox="0 0 24 24">
  <path d="M23.649,6.349l-3.6,3.796c-.756,.756-2.049,.221-2.049-.849v-2.296h-2c-1.378,0-2.5,1.121-2.5,2.5v13c0,.828-.671,1.5-1.5,1.5s-1.5-.672-1.5-1.5V9.5c0-1.379-1.122-2.5-2.5-2.5h-2v2.296c0,1.069-1.293,1.604-2.049,.849L.351,6.349c-.469-.469-.469-1.228,0-1.697L3.951,.855c.756-.756,2.049-.221,2.049,.849v2.296h2c1.577,0,2.996,.671,4,1.737,1.004-1.066,2.423-1.737,4-1.737h2V1.704c0-1.069,1.293-1.604,2.049-.849l3.6,3.796c.469,.469,.469,1.228,0,1.697Z"/>
</svg>
