<?xml version="1.0" encoding="UTF-8"?>
<svg xmlns="http://www.w3.org/2000/svg" id="Layer_1" data-name="Layer 1" viewBox="0 0 24 24">
  <path d="m17,3.5c0-1.93,1.57-3.5,3.5-3.5s3.5,1.57,3.5,3.5-1.57,3.5-3.5,3.5-3.5-1.57-3.5-3.5Zm4.86,6.657c-.189-.807-.996-1.311-1.803-1.117-.807.189-1.307.997-1.117,1.803l1.003,4.263c.128.459.039.92-.252,1.301-.292.383-.722.594-1.208.594H5.516c-.464,0-.896-.205-1.185-.563-.287-.354-.394-.812-.311-1.193l1.983-7.368c.642-2.87,3.159-4.875,6.122-4.875.37,0,.743.033,1.11.099.812.146,1.595-.396,1.74-1.213.146-.815-.397-1.595-1.213-1.74-.54-.097-1.091-.146-1.637-.146C7.748,0,4.027,2.97,3.092,7.158l-1.983,7.367c-.3,1.341.023,2.724.887,3.795.861,1.067,2.144,1.68,3.52,1.68h1.4c.563,2.293,2.617,4,5.084,4s4.521-1.707,5.084-4h1.4c1.422,0,2.731-.646,3.592-1.772.864-1.129,1.14-2.562.772-3.869l-.987-4.201Z"/>
</svg>
