<?xml version="1.0" encoding="UTF-8"?>
<svg xmlns="http://www.w3.org/2000/svg" id="Layer_1" data-name="Layer 1" viewBox="0 0 24 24">
  <path d="M12,22.5c0,.829-.671,1.5-1.5,1.5H5.5c-3.033,0-5.5-2.467-5.5-5.5V5.5C0,2.467,2.467,0,5.5,0h6.343c1.469,0,2.85,.572,3.889,1.611l2.657,2.657c.815,.815,1.347,1.848,1.536,2.985,.136,.817-.425,1.739-1.425,1.739s-5.5,.008-5.5,.008c-1.105,0-2-.895-2-2V3H5.5c-1.378,0-2.5,1.122-2.5,2.5v13c0,1.378,1.122,2.5,2.5,2.5h5c.829,0,1.5,.671,1.5,1.5Zm11.561-1.061l-4.25-4.25,1.232-1.232,.25,.25c.195,.195,.451,.293,.707,.293s.512-.098,.707-.293c.391-.391,.391-1.023,0-1.414l-4-4c-.391-.391-1.023-.391-1.414,0s-.391,1.023,0,1.414l.25,.25-4.586,4.586-.25-.25c-.391-.391-1.023-.391-1.414,0s-.391,1.023,0,1.414l4,4c.195,.195,.451,.293,.707,.293s.512-.098,.707-.293c.391-.391,.391-1.023,0-1.414l-.25-.25,1.232-1.232,4.25,4.25c.586,.586,1.535,.586,2.121,0,.586-.585,.586-1.536,0-2.121ZM14,11.5c0-.829-.671-1.5-1.5-1.5H6.5c-.829,0-1.5,.671-1.5,1.5s.671,1.5,1.5,1.5h6c.829,0,1.5-.671,1.5-1.5Zm-7.5,3.5c-.829,0-1.5,.671-1.5,1.5s.671,1.5,1.5,1.5h1c.829,0,1.5-.671,1.5-1.5s-.671-1.5-1.5-1.5h-1Zm0-7h1c.829,0,1.5-.671,1.5-1.5s-.671-1.5-1.5-1.5h-1c-.829,0-1.5,.671-1.5,1.5s.671,1.5,1.5,1.5Z"/>
</svg>
