<?xml version="1.0" encoding="UTF-8"?>
<svg xmlns="http://www.w3.org/2000/svg" id="Layer_1" data-name="Layer 1" viewBox="0 0 24 24">
  <path d="M12,18.75c0,1.241-1.01,2.25-2.25,2.25s-2.25-1.009-2.25-2.25v-5.005c2.021-.642,3.5-2.514,3.5-4.745v-2.092c.581-.207,1-.756,1-1.408,0-.829-.672-1.5-1.5-1.5h-.5V1.5c0-.829-.672-1.5-1.5-1.5s-1.5,.671-1.5,1.5v2.5h-2V1.5c0-.829-.672-1.5-1.5-1.5s-1.5,.671-1.5,1.5v2.5h-.5c-.828,0-1.5,.671-1.5,1.5,0,.652,.419,1.201,1,1.408v2.092c0,2.231,1.479,4.103,3.5,4.745v5.005c0,2.895,2.355,5.25,5.25,5.25,2.786,0,5.051-2.188,5.218-4.933,.056-.24,.024-1.649,.032-1.91,0-.637,.254-1.258,.693-1.72-.229-.118-.847-.591-1.193-.937-.346-.346-.813-.957-.93-1.182-1.01,1.034-1.57,2.392-1.57,3.839v1.593ZM4,7h4v2c0,1.103-.897,2-2,2s-2-.897-2-2v-2Zm19.989,.281c0,.009-.002,.018-.003,.027-.216,2.095-.934,5.698-2.474,7.238-1.547,1.535-3.874,1.865-5.768,.917-.005-.03-.007-.043-.012-.073l3.268-3.268c.586-.586,.586-1.535,0-2.121s-1.535-.586-2.121,0l-3.268,3.268c-.015,.015-.026,.034-.041,.05-.986-1.905-.666-4.266,.885-5.83,1.513-1.513,5.08-2.295,7.182-2.521,.009,0,.017-.002,.026-.003,1.326-.139,2.46,.989,2.326,2.316Z"/>
</svg>
