<?xml version="1.0" encoding="UTF-8"?>
<svg xmlns="http://www.w3.org/2000/svg" id="Layer_1" data-name="Layer 1" viewBox="0 0 24 24">
  <path d="M.343,9.144c.252-1.032,.642-2.004,1.135-2.908-.296-.514-.478-1.101-.478-1.736,0-1.933,1.567-3.5,3.5-3.5,.635,0,1.223,.182,1.736,.478,.904-.493,1.876-.884,2.908-1.136,.806-.198,1.616,.297,1.812,1.101,.196,.805-.297,1.617-1.102,1.813-.674,.165-1.306,.419-1.908,.722,.026,.172,.053,.343,.053,.522,0,1.933-1.567,3.5-3.5,3.5-.179,0-.35-.027-.522-.053-.303,.602-.557,1.235-.722,1.909-.167,.685-.78,1.145-1.456,1.145-.117,0-.237-.014-.356-.043-.805-.196-1.298-1.008-1.102-1.813Zm9.513,11.6c-.674-.165-1.306-.419-1.908-.722,.026-.172,.053-.343,.053-.522,0-1.933-1.567-3.5-3.5-3.5-.179,0-.35,.027-.522,.053-.303-.602-.557-1.235-.722-1.909-.196-.804-1.008-1.299-1.812-1.101-.805,.196-1.298,1.008-1.102,1.813,.252,1.032,.642,2.004,1.135,2.908-.296,.514-.478,1.101-.478,1.736,0,1.933,1.567,3.5,3.5,3.5,.635,0,1.223-.182,1.736-.478,.904,.493,1.876,.884,2.908,1.136,.119,.029,.239,.043,.356,.043,.676,0,1.289-.459,1.456-1.145,.196-.805-.297-1.617-1.102-1.813Zm12.7-7.701c-.804-.196-1.616,.297-1.812,1.101-.165,.674-.419,1.306-.722,1.909-.171-.026-.343-.053-.521-.053-1.933,0-3.5,1.567-3.5,3.5,0,.179,.027,.35,.053,.521-.602,.303-1.235,.557-1.909,.722-.805,.196-1.297,1.008-1.101,1.813,.167,.685,.78,1.145,1.456,1.145,.117,0,.237-.014,.357-.043,1.032-.252,2.004-.643,2.907-1.136,.513,.296,1.101,.478,1.736,.478,1.933,0,3.5-1.567,3.5-3.5,0-.635-.182-1.223-.478-1.736,.493-.904,.883-1.875,1.135-2.908,.196-.805-.296-1.617-1.102-1.813ZM14.145,3.256c.674,.165,1.306,.419,1.908,.722-.026,.172-.053,.343-.053,.522,0,1.933,1.567,3.5,3.5,3.5,.179,0,.35-.027,.522-.053,.303,.602,.557,1.235,.722,1.909,.167,.685,.78,1.145,1.456,1.145,.117,0,.237-.014,.356-.043,.805-.196,1.298-1.008,1.102-1.813-.252-1.032-.642-2.004-1.135-2.908,.296-.514,.478-1.101,.478-1.736,0-1.933-1.567-3.5-3.5-3.5-.635,0-1.223,.182-1.736,.478-.904-.493-1.876-.884-2.908-1.136-.806-.196-1.616,.298-1.812,1.101-.196,.805,.297,1.617,1.102,1.813ZM6,12c0,.223,.013,.443,.036,.66,.082,.77,.732,1.34,1.489,1.34,.054,0,.107-.003,.162-.008,.823-.088,1.42-.828,1.331-1.651-.012-.112-.019-.226-.019-.34,0-1.654,1.346-3,3-3v.611c0,.583,.687,.893,1.125,.508l2.01-1.773c.487-.42,.487-1.155,0-1.575l-2.01-1.773c-.437-.385-1.125-.075-1.125,.508v.493c-3.309,0-6,2.691-6,6Zm12,0c0-.223-.013-.443-.036-.66-.088-.824-.826-1.414-1.651-1.332-.823,.088-1.42,.828-1.331,1.651,.012,.112,.019,.226,.019,.34,0,1.654-1.346,3-3,3v-.612c0-.583-.688-.893-1.125-.508l-2.01,1.773c-.487,.42-.487,1.155,0,1.575l2.01,1.773c.437,.385,1.125,.075,1.125-.508v-.493c3.309,0,6-2.691,6-6Z"/>
</svg>
