<?xml version="1.0" encoding="UTF-8"?>
<svg xmlns="http://www.w3.org/2000/svg" id="Layer_1" data-name="Layer 1" viewBox="0 0 24 24">
  <path d="M14,1.5c0-.828,.671-1.5,1.5-1.5h2c2.481,0,4.5,2.019,4.5,4.5v.5h1.192c.749,0,1.123,.905,.594,1.434l-2.658,2.658c-.328,.328-.86,.328-1.188,0l-2.658-2.658c-.529-.529-.154-1.434,.594-1.434h1.125v-.5c0-.827-.673-1.5-1.5-1.5h-2c-.829,0-1.5-.672-1.5-1.5Zm-2,6.5c0,1.657-1.343,3-3,3H4.827l-2.656,1.766c-.882,.628-2.205-.082-2.171-1.162V3C0,1.343,1.343,0,3,0h6c1.657,0,3,1.343,3,3v5Zm-2.5-4.892c0-.34-.276-.616-.616-.616h-2.257v-.384c0-.34-.276-.616-.616-.616h-.021c-.34,0-.616,.276-.616,.616v.384H3.116c-.34,0-.616,.276-.616,.616v.021c0,.34,.276,.616,.616,.616H7.308c-.111,.963-.484,2.151-1.303,3.071-.276-.31-.507-.648-.692-1-.106-.202-.318-.325-.545-.325-.464,0-.769,.492-.553,.903,.225,.43,.501,.843,.83,1.22-.539,.328-1.189,.559-1.977,.635-.32,.031-.568,.293-.568,.614v.021c0,.365,.316,.648,.679,.614,1.146-.107,2.079-.485,2.832-1.022,.749,.533,1.671,.913,2.808,1.022,.364,.035,.68-.248,.68-.613v-.021c0-.316-.24-.583-.555-.613-.792-.075-1.442-.31-1.984-.639,.99-1.135,1.485-2.591,1.607-3.866h.316c.34,0,.616-.276,.616-.616v-.021Zm8.441,10.792c-.038,0-.071,.026-.079,.063l-.787,3.437h1.757l-.811-3.437c-.009-.037-.041-.063-.079-.063Zm6.059,.1v8.604c.034,1.081-1.289,1.79-2.171,1.162l-2.656-1.766h-4.173c-1.657,0-3-1.343-3-3v-5c0-1.657,1.343-3,3-3h6c1.657,0,3,1.343,3,3Zm-3.196,5.644l-1.363-5.948c-.107-.464-.403-.886-.842-1.07-.919-.385-1.855,.155-2.056,1.021l-1.413,5.993c-.104,.439,.23,.86,.681,.86h0c.324,0,.606-.223,.681-.539l.274-1.161h2.409l.265,1.157c.073,.318,.356,.543,.682,.543h.002c.449,0,.782-.418,.682-.856Z"/>
</svg>
