<?xml version="1.0" encoding="UTF-8"?>
<svg xmlns="http://www.w3.org/2000/svg" id="Layer_1" data-name="Layer 1" viewBox="0 0 24 24">
  <path d="M23.561,21.439l-2.145-2.145c.361-.691,.584-1.463,.584-2.295,0-2.757-2.243-5-5-5s-5,2.243-5,5,2.243,5,5,5c.831,0,1.604-.223,2.295-.584l2.145,2.145c.293,.293,.677,.439,1.061,.439s.768-.146,1.061-.439c.586-.585,.586-1.536,0-2.121Zm-6.561-2.439c-1.103,0-2-.897-2-2s.897-2,2-2,2,.897,2,2-.897,2-2,2ZM4.5,11c2.481,0,4.5-2.019,4.5-4.5v-2C9,2.019,6.981,0,4.5,0S0,2.019,0,4.5v2c0,2.481,2.019,4.5,4.5,4.5Zm-1.5-6.5c0-.827,.673-1.5,1.5-1.5s1.5,.673,1.5,1.5v2c0,.827-.673,1.5-1.5,1.5s-1.5-.673-1.5-1.5v-2ZM12,22.5c0,.829-.671,1.5-1.5,1.5-2.481,0-4.5-2.019-4.5-4.5v-2c0-1.743,1.021-3.345,2.603-4.081,.751-.349,1.643-.024,1.993,.727s.024,1.643-.727,1.993c-.527,.246-.868,.78-.868,1.361v2c0,.827,.673,1.5,1.5,1.5s1.5,.671,1.5,1.5Zm-1.561-17.939c-.586-.585-.586-1.536,0-2.121L12.439,.439c.428-.429,1.073-.558,1.635-.325,.561,.232,.926,.779,.926,1.386v7c0,.829-.671,1.5-1.5,1.5s-1.5-.671-1.5-1.5v-3.585c-.527,.187-1.138,.068-1.561-.354ZM5,14.5v8c0,.829-.671,1.5-1.5,1.5s-1.5-.671-1.5-1.5v-4.585c-.527,.187-1.139,.068-1.561-.354-.586-.585-.586-1.536,0-2.121l2-2c.428-.429,1.074-.559,1.635-.325,.561,.232,.926,.779,.926,1.386Z"/>
</svg>
