<?xml version="1.0" encoding="UTF-8"?>
<svg xmlns="http://www.w3.org/2000/svg" id="Layer_1" data-name="Layer 1" viewBox="0 0 24 24">
  <path d="m21.425,19.43c-2.293,2.904-5.728,4.57-9.425,4.57C5.383,24,0,18.617,0,12S5.383,0,12,0c3.697,0,7.132,1.666,9.425,4.57.513.65.401,1.594-.248,2.107-.65.513-1.594.402-2.107-.248-1.72-2.18-4.297-3.43-7.069-3.43C7.038,3,3,7.037,3,12s4.038,9,9,9c2.772,0,5.35-1.25,7.069-3.43.514-.65,1.457-.761,2.107-.248.649.514.761,1.457.248,2.107Zm1.575-8.43h-1v-1c0-.553-.447-1-1-1s-1,.447-1,1v1h-1c-.553,0-1,.447-1,1s.447,1,1,1h1v1c0,.553.447,1,1,1s1-.447,1-1v-1h1c.553,0,1-.447,1-1s-.447-1-1-1Zm-14,6c.552,0,1-.447,1-1v-7.693c0-.542-.326-1.019-.831-1.216-.504-.198-1.066-.068-1.439.334l-1.732,1.901c-.372.409-.342,1.041.066,1.413.408.373,1.041.341,1.413-.065l.523-.574v5.9c0,.553.448,1,1,1Zm8-7c0-1.654-1.346-3-3-3s-3,1.346-3,3c0,.553.448,1,1,1s1-.447,1-1,.448-1,1-1,1,.448,1,1c0,1.193-.949,2.013-1.955,2.88-1.005.866-2.045,1.763-2.045,3.12,0,.553.448,1,1,1h4c.553,0,1-.447,1-1s-.447-1-1-1h-2.329c.209-.199.446-.404.68-.606,1.181-1.018,2.649-2.284,2.649-4.394Z"/>
</svg>
