<?xml version="1.0" encoding="UTF-8"?>
<svg xmlns="http://www.w3.org/2000/svg" id="Layer_1" data-name="Layer 1" viewBox="0 0 24 24">
  <path d="m22.405,8.145L15.854,1.593c-2.125-2.126-5.583-2.125-7.708,0L1.594,8.144c-2.124,2.125-2.124,5.583,0,7.708l6.551,6.552c1.029,1.03,2.398,1.597,3.854,1.597s2.825-.567,3.854-1.597l6.551-6.552c2.125-2.125,2.125-5.583,0-7.708Zm-2.121,5.586l-6.552,6.552c-.925.926-2.54.926-3.466,0l-6.55-6.552c-.956-.956-.956-2.51,0-3.466l6.551-6.551c.956-.955,2.51-.956,3.466,0l6.551,6.552c.462.463.717,1.078.717,1.733s-.255,1.27-.717,1.732Zm-4.284,1.269c0,.552-.448,1-1,1h-6c-.552,0-1-.448-1-1s.448-1,1-1h6c.552,0,1,.448,1,1Zm-1.482-3h-5.036l1.5-5.346c.199-.436.609-.654,1.018-.654s.819.218,1.018.654l1.5,5.346Z"/>
</svg>
