<?xml version="1.0" encoding="UTF-8"?>
<svg xmlns="http://www.w3.org/2000/svg" id="Layer_1" data-name="Layer 1" viewBox="0 0 24 24">
  <path d="m18.25,10.481c-.69,0-1.25-.56-1.25-1.25s.56-1.25,1.25-1.25,1.25.56,1.25,1.25-.56,1.25-1.25,1.25Zm.094,5.5c.27,0,.522-.136.67-.363l4.178-6.4c.347-.532-.034-1.237-.67-1.237-.27,0-.522.136-.67.363l-4.178,6.4c-.347.532.034,1.237.67,1.237Zm-.052,2.447c-1.694,1.659-3.929,2.572-6.292,2.572-4.962,0-9-4.037-9-9S7.038,3,12,3c2.363,0,4.598.913,6.292,2.572.592.578,1.542.569,2.121-.023.58-.592.569-1.541-.022-2.121C18.133,1.218,15.153,0,12,0,5.383,0,0,5.383,0,12s5.383,12,12,12c3.153,0,6.133-1.218,8.391-3.428.592-.58.602-1.529.022-2.121-.579-.594-1.529-.603-2.121-.023Zm4.458-4.947c-.69,0-1.25.56-1.25,1.25s.56,1.25,1.25,1.25,1.25-.56,1.25-1.25-.56-1.25-1.25-1.25Zm-9.25-5.481c1.381,0,2.5,1.119,2.5,2.5v3c0,1.381-1.119,2.5-2.5,2.5s-2.5-1.119-2.5-2.5v-3c0-1.381,1.119-2.5,2.5-2.5Zm0,1.6c-.496,0-.9.404-.9.9v3c0,.496.404.9.9.9s.9-.404.9-.9v-3c0-.496-.404-.9-.9-.9Zm-5.1,3.6v-.375c-.28.109-.582.174-.9.174-1.378,0-2.5-1.121-2.5-2.5s1.122-2.5,2.5-2.5,2.5,1.121,2.5,2.5v2.7c0,1.544-1.256,2.8-2.8,2.8h-.9c-.442,0-.8-.358-.8-.8s.358-.8.8-.8h.9c.662,0,1.2-.538,1.2-1.2Zm0-2.7c0-.496-.404-.9-.9-.9s-.9.404-.9.9.404.9.9.9.9-.404.9-.9Z"/>
</svg>
