<?xml version="1.0" encoding="UTF-8"?>
<svg xmlns="http://www.w3.org/2000/svg" id="Layer_1" data-name="Layer 1" viewBox="0 0 24 24">
  <path d="m15.488,11.726c.158,1.78-1.24,3.274-2.988,3.274h-3.353c-.773,0-1.33-.749-1.09-1.483.527-1.613,1.502-4.02,3.732-4.45,1.755-.338,3.542.879,3.7,2.659ZM23.295.707c-.941-.942-2.467-.943-3.409-.002-.032.032-5.953,6.53-5.953,6.53,1.491.45,2.686,1.564,3.232,3.011l6.126-6.126c.943-.942.945-2.47.003-3.413Zm-3.795,11.293c-.829,0-1.5.672-1.5,1.5v5c0,1.379-1.122,2.5-2.5,2.5H5.5c-1.378,0-2.5-1.121-2.5-2.5v-10c0-1.379,1.122-2.5,2.5-2.5h6c.829,0,1.5-.672,1.5-1.5s-.671-1.5-1.5-1.5h-6C2.467,3,0,5.468,0,8.5v10c0,3.032,2.467,5.5,5.5,5.5h10c3.033,0,5.5-2.468,5.5-5.5v-5c0-.828-.671-1.5-1.5-1.5Z"/>
</svg>
