<?xml version="1.0" encoding="UTF-8"?>
<svg xmlns="http://www.w3.org/2000/svg" id="Layer_1" data-name="Layer 1" viewBox="0 0 24 24">
  <path d="m23.96,23.046c.163.467-.197.954-.71.954h-4.502c-.512,0-.872-.487-.71-.954.415-1.189,1.583-2.046,2.96-2.046s2.546.857,2.96,2.046Zm-5.211-16.046h4.502c.512,0,.872-.487.71-.954-.415-1.189-1.583-2.046-2.96-2.046s-2.546.857-2.96,2.046c-.163.467.197.954.71.954Zm2.251-4c.828,0,1.5-.672,1.5-1.5s-.672-1.5-1.5-1.5-1.5.672-1.5,1.5.672,1.5,1.5,1.5Zm0,9.5c-1.377,0-2.546.857-2.96,2.046-.163.467.197.954.71.954h4.502c.512,0,.872-.487.71-.954-.415-1.189-1.583-2.046-2.96-2.046Zm-1.5-2.5c0,.828.672,1.5,1.5,1.5s1.5-.672,1.5-1.5-.672-1.5-1.5-1.5-1.5.672-1.5,1.5Zm3,8.5c0-.828-.672-1.5-1.5-1.5s-1.5.672-1.5,1.5.672,1.5,1.5,1.5,1.5-.672,1.5-1.5Zm-6.5-6.5c0,1.155-.878,2.099-2,2.225v4.275c0,.828-.672,1.5-1.5,1.5s-1.5-.672-1.5-1.5c0-1.03,0-1.5-2.5-1.5h-2.071l1.394,3.143c.596,1.344-.388,2.857-1.858,2.857-.803,0-1.531-.473-1.857-1.207l-2.675-6.019c-.877-.822-1.433-1.981-1.433-3.274v-1c0-2.481,2.019-4.5,4.5-4.5h4c2.5,0,2.5-.47,2.5-1.5,0-.828.671-1.5,1.5-1.5s1.5.672,1.5,1.5v4.275c1.122.126,2,1.07,2,2.225Zm-5,2.267v-4.534c-.956.264-1.916.267-2.5.267h-4c-.827,0-1.5.673-1.5,1.5v1c0,.827.673,1.5,1.5,1.5h4c.584,0,1.544.004,2.5.267Z"/>
</svg>
