<?xml version="1.0" encoding="UTF-8"?>
<svg xmlns="http://www.w3.org/2000/svg" id="Layer_1" data-name="Layer 1" viewBox="0 0 24 24">
  <path d="M18.5,2h-.5v-.5c0-.829-.672-1.5-1.5-1.5s-1.5,.671-1.5,1.5v.5h-6v-.5c0-.829-.671-1.5-1.5-1.5s-1.5,.671-1.5,1.5v.5h-.5C2.467,2,0,4.467,0,7.5v11c0,3.032,2.467,5.5,5.5,5.5h13c3.032,0,5.5-2.468,5.5-5.5V7.5c0-3.033-2.468-5.5-5.5-5.5Zm0,19H5.5c-1.378,0-2.5-1.121-2.5-2.5V9H21v9.5c0,1.379-1.121,2.5-2.5,2.5ZM7,13c0-.552,.448-1,1-1h5.586l-.293-.293c-.391-.391-.391-1.023,0-1.414s1.023-.391,1.414,0l2,2c.286,.286,.372,.716,.217,1.09-.154,.374-.52,.617-.924,.617H8c-.552,0-1-.447-1-1Zm10,4c0,.553-.447,1-1,1h-5.586l.293,.293c.391,.391,.391,1.023,0,1.414-.195,.195-.451,.293-.707,.293s-.512-.098-.707-.293l-2-2c-.286-.286-.372-.716-.217-1.09s.52-.617,.924-.617h8c.553,0,1,.447,1,1Z"/>
</svg>
