<?xml version="1.0" encoding="UTF-8"?>
<svg xmlns="http://www.w3.org/2000/svg" id="Layer_1" data-name="Layer 1" viewBox="0 0 24 24">
  <path d="m12,9c-4.142,0-7.5,3.358-7.5,7.5s3.358,7.5,7.5,7.5,7.5-3.358,7.5-7.5-3.358-7.5-7.5-7.5Zm1.376,12h-.376c0,.552-.448,1-1,1s-1-.448-1-1c-1.128,0-2.112-.626-2.625-1.548-.362-.651.153-1.452.897-1.452.342,0,.682.162.842.465.168.318.502.535.885.535h2.376c.344,0,.624-.28.624-.624,0-.307-.22-.565-.521-.616l-3.177-.53c-1.094-.182-2.032-.984-2.248-2.072-.334-1.68.949-3.159,2.571-3.159h.376c0-.552.448-1,1-1s1,.448,1,1c1.128,0,2.112.626,2.625,1.548.362.651-.153,1.452-.897,1.452-.342,0-.682-.162-.842-.465-.168-.318-.501-.535-.885-.535h-2.376c-.344,0-.624.28-.624.624,0,.307.219.565.521.616l3.178.53c1.094.182,2.031.984,2.247,2.072.334,1.68-.949,3.159-2.571,3.159Zm10.624-13.5v11.354c0,1.342-.488,2.635-1.376,3.639-.297.335-.71.507-1.125.507-.353,0-.707-.124-.992-.376-.621-.548-.68-1.497-.131-2.117.402-.456.624-1.042.624-1.652v-8.854h-2.109c-1.73-1.838-4.167-3-6.891-3s-5.167,1.161-6.896,3h-2.104v8.854c0,.609.222,1.196.625,1.653.548.621.489,1.569-.133,2.117-.285.251-.639.375-.992.375-.416,0-.829-.171-1.125-.508-.887-1.005-1.375-2.297-1.375-3.638V7.5C0,4.462,2.462,2,5.5,2h.5v-.5c0-.829.671-1.5,1.5-1.5s1.5.671,1.5,1.5v.5h6v-.5c0-.829.672-1.5,1.5-1.5s1.5.671,1.5,1.5v.5h.5c3.038,0,5.5,2.462,5.5,5.5Z"/>
</svg>
