<?xml version="1.0" encoding="UTF-8"?>
<svg xmlns="http://www.w3.org/2000/svg" id="Layer_1" data-name="Layer 1" viewBox="0 0 24 24">
  <path d="m16.561,14.439c.586.585.586,1.536,0,2.121-.293.293-.677.439-1.061.439s-.768-.146-1.061-.439l-1-1c-.586-.585-.586-1.536,0-2.121.586-.586,1.535-.586,2.121,0l1,1Zm7.038,9.16c-.293.293-.677.439-1.061.439s-.768-.146-1.061-.439l-2.413-2.413c-.902.519-1.911.803-2.93.803-1.351,0-2.703-.459-3.792-1.389-2.349-2.003-6.709-5.788-9.724-8.791-.009-.009-2.197-2.266-2.197-2.266-.576-.595-.561-1.545.035-2.121.596-.575,1.545-.561,2.121.036l1.021,1.056,1.414-1.414-1.056-1.092c-.576-.595-.561-1.545.035-2.121.596-.577,1.545-.561,2.121.036l1.021,1.056,1.415-1.415-1.056-1.092c-.576-.595-.561-1.545.035-2.121.597-.576,1.546-.561,2.121.036,0,0,2.148,2.22,2.155,2.227,2.985,2.993,6.786,7.373,8.797,9.729,1.63,1.911,1.791,4.624.585,6.722l2.413,2.413c.586.586.586,1.536,0,2.121Zm-13.936-13.936c1.013-1.013,1.273-2.498.782-3.754l-4.536,4.537c1.26.493,2.742.23,3.754-.783Zm8.498,8.498c1.047-1.047,1.115-2.747.157-3.871-.971-1.138-2.838-3.306-4.836-5.516-.276,1.103-.837,2.149-1.698,3.01h0c-.862.861-1.908,1.422-3.011,1.698,2.209,1.996,4.379,3.865,5.517,4.836,1.124.959,2.825.889,3.871-.157Z"/>
</svg>
