<?xml version="1.0" encoding="UTF-8"?>
<svg xmlns="http://www.w3.org/2000/svg" id="Layer_1" data-name="Layer 1" viewBox="0 0 24 24">
  <path d="m19.5,8h.874c1.249,0,2.395-.86,2.593-2.094.15-.932-.227-1.774-.868-2.312.264-.386.414-.855.4-1.36-.036-1.268-1.171-2.234-2.439-2.234h-.56c-.828,0-1.5.672-1.5,1.5v5c0,.828.672,1.5,1.5,1.5Zm.1-6.4h.6c.386,0,.7.314.7.7s-.314.7-.7.7h-.6v-1.4Zm0,3h.9c.496,0,.9.404.9.9s-.404.9-.9.9h-.9v-1.8ZM2.271,11c.365,0,.68-.253.759-.61l.175-.79h2.379l.165.782c.076.36.393.617.761.617h.044c.494,0,.862-.454.761-.937l-1.143-5.436c-.135-.668-.523-1.214-1.035-1.459-.232-.112-.476-.168-.718-.168-.282,0-.561.075-.817.225-.471.277-.81.776-.926,1.356l-1.165,5.479c-.103.484.266.939.76.939Zm1.974-6.103c.03-.149.105-.253.176-.296l.017.006c.024.016.121.118.168.349l.641,3.045h-1.689l.686-3.104Zm19.729,5.823c-.154-.814-.947-1.348-1.754-1.193L1.22,13.526c-.814.155-1.349.94-1.193,1.754.137.719.766,1.22,1.472,1.22.094,0,.188-.009.282-.027l7.796-1.485s-2.395,5.303-2.408,5.337c-.308.838-.186,1.775.326,2.506.511.731,1.348,1.168,2.24,1.168h4.531c.893,0,1.729-.437,2.24-1.168.512-.731.634-1.668.326-2.506-.013-.034-2.792-6.187-2.792-6.187l8.74-1.665c.814-.155,1.349-.94,1.193-1.754Zm-13.823,10.281l1.85-4.09,1.85,4.09h-3.699Z"/>
</svg>
