<?xml version="1.0" encoding="UTF-8"?>
<svg xmlns="http://www.w3.org/2000/svg" id="Layer_1" data-name="Layer 1" viewBox="0 0 24 24">
  <path d="M22.733,9.014c-1.52-1.439-4.112-1.318-5.488,.256l-2.438,2.68c-.647-.59-1.507-.949-2.449-.949H4.5c-2.481,0-4.5,2.019-4.5,4.5v4c0,2.481,2.019,4.5,4.5,4.5h5.414c3.03,0,5.911-1.309,7.904-3.589l5.196-5.943c1.41-1.58,1.283-4.027-.281-5.454Zm-1.967,3.469l-5.206,5.954c-1.425,1.629-3.482,2.563-5.646,2.563H4.5c-.827,0-1.5-.673-1.5-1.5v-4c0-.827,.673-1.5,1.5-1.5h7.857c.354,0,.643,.288,.643,.643,0,.317-.236,.591-.551,.635l-5.161,.737c-.82,.117-1.391,.877-1.273,1.697,.117,.819,.877,1.381,1.697,1.273l5.161-.737c1.619-.231,2.876-1.53,3.094-3.116l3.497-3.843c.31-.357,.915-.391,1.248-.059,.356,.324,.385,.881,.055,1.252ZM2,8v-.5c0-1.93,1.57-3.5,3.5-3.5h.399c-.662-.39-1.165-.75-1.179-.76-.795-.596-.956-1.725-.36-2.52,.596-.795,1.725-.956,2.52-.36,1.096,.821,1.507,2.267,1.62,2.913,.113-.646,.524-2.091,1.62-2.913,.795-.596,1.924-.435,2.52,.36,.596,.795,.435,1.924-.36,2.52-.013,.01-.517,.37-1.179,.76h.399c1.93,0,3.5,1.57,3.5,3.5v.5c0,.828-.672,1.5-1.5,1.5s-1.5-.672-1.5-1.5v-.5c0-.275-.225-.5-.5-.5H5.5c-.275,0-.5,.225-.5,.5v.5c0,.828-.672,1.5-1.5,1.5s-1.5-.672-1.5-1.5Z"/>
</svg>
