<?xml version="1.0" encoding="UTF-8"?>
<svg xmlns="http://www.w3.org/2000/svg" id="Layer_1" data-name="Layer 1" viewBox="0 0 24 24">
  <path d="M22.966,6h-1.249c-.468,0-.925,.137-1.315,.395l-2.428,1.605-.141-.141c-.286-.286-.666-.434-1.048-.434-.284,0-.571,.082-.821,.249l-.49,.326-4-1.5,.022-.042c.29-.552,.137-1.233-.362-1.607l-1.134-.851,.586-.586c.265-.265,.414-.625,.414-1,0-.781-.633-1.414-1.414-1.414h-.586l-.456-.445c-.365-.356-.855-.555-1.364-.555h-.484c-.387,0-.699,.315-.696,.701v.015c.001,.183,.075,.357,.204,.487l1.297,1.298h-.495c-.453,0-.865,.296-.975,.735-.103,.412,.067,.83,.405,1.055l1.065,.71-3.5,3h-1.25c-.414,0-.75,.336-.75,.75,0,.162,.053,.32,.15,.45l.753,1.004c.246,.328,.012,.796-.398,.796h-.19c-.726,0-1.315,.589-1.315,1.315,0,.439,.172,.861,.478,1.176,.317,.326,.752,.509,1.207,.509h1.815c.09,.998,.302,2.009,.384,2.846,.058,.595,.241,1.166,.538,1.685l2.578,2.969,.026,1.258c.014,.69,.578,1.242,1.268,1.242,.467,0,.896-.256,1.117-.668l.744-1.384c1.949-1.692,1.846-4.051,1.846-4.051l2.5-1.897,1-2h.09c.779,0,1.41-.631,1.41-1.41v-2.59h2l-.587,.629c-.585,.433-.585,1.308,0,1.741l.33,.354c.164,.175,.393,.275,.633,.275,.372,0,.703-.238,.821-.592l.576-1.728c.15-.45,.223-.922,.217-1.396l-.016-1.283h1.026c.574,0,1.036-.484,.998-1.067-.034-.531-.499-.933-1.032-.933Zm-7.966,5.402c-.5,.289-.915,.72-1.183,1.256l-.687,1.375-1.943,1.475c-.817,.62-1.27,1.467-1.187,2.485-.006,.12-.041,.515-.249,.948l-1.812-2.087c-.036-.097-.059-.197-.069-.301-.046-.469-.342-2.38-.382-2.822-.094-1.044-.716-1.923-1.587-2.384,.092-.365,.123-.738,.095-1.106l2.796-2.397c.337,.673,.917,1.198,1.629,1.465l4,1.5c.189,.071,.383,.122,.579,.153v.44Z"/>
</svg>
