<?xml version="1.0" encoding="UTF-8"?>
<svg xmlns="http://www.w3.org/2000/svg" id="Layer_1" data-name="Layer 1" viewBox="0 0 24 24">
  <path d="m24,8.5v1c0,.829-.671,1.5-1.5,1.5s-1.5-.671-1.5-1.5v-1c0-.276-.224-.5-.5-.5H4c-.347,0-.678-.058-1-.142v10.142c0,.551.449,1,1,1h7c.829,0,1.5.671,1.5,1.5s-.671,1.5-1.5,1.5h-7c-2.206,0-4-1.794-4-4V4C0,1.778,1.781.021,4.056,0h18.444c.829,0,1.5.671,1.5,1.5s-.671,1.5-1.5,1.5H4.069c-.604.005-1.069.436-1.069,1,0,.551.449,1,1,1h16.5c1.93,0,3.5,1.57,3.5,3.5Zm-2,6.5c0-1.654-1.346-3-3-3s-3,1.346-3,3,1.346,3,3,3,3-1.346,3-3Zm-3,4c-2.28,0-4.218,1.403-4.927,3.358-.29.801.316,1.642,1.2,1.642h7.453c.884,0,1.49-.841,1.2-1.642-.708-1.955-2.647-3.358-4.927-3.358Z"/>
</svg>
