<?xml version="1.0" encoding="UTF-8"?>
<svg xmlns="http://www.w3.org/2000/svg" id="Layer_1" data-name="Layer 1" viewBox="0 0 24 24">
  <path d="M22.531,21.411c-.055-.052-3.405-3.267-6.01-7.413,.818-.012,1.478-.677,1.478-1.498,0-.829-.672-1.5-1.5-1.5h-1.619c-.829-1.813-1.381-3.696-1.381-5.5v-1.5c.828,0,1.5-.671,1.5-1.5s-.672-1.5-1.5-1.5h-.092c-.207-.581-.756-1-1.408-1s-1.201,.419-1.408,1h-.092c-.828,0-1.5,.671-1.5,1.5s.672,1.5,1.5,1.5v1.5c0,1.802-.553,3.685-1.384,5.5h-1.616c-.828,0-1.5,.671-1.5,1.5,0,.82,.658,1.483,1.474,1.497-2.604,4.144-5.951,7.362-6.006,7.414-.445,.422-.588,1.074-.36,1.644s.778,.944,1.393,.944h3.5c.695,0,1.3-.479,1.46-1.155,.551-2.335,2.333-3.845,4.54-3.845s3.989,1.509,4.54,3.845c.16,.677,.765,1.155,1.46,1.155h3.5c.614,0,1.166-.375,1.394-.945s.084-1.222-.362-1.644Zm-10.531-5.411c-.884,0-1.731,.149-2.521,.43,.512-.772,1.007-1.588,1.468-2.43h2.105c.461,.842,.956,1.658,1.468,2.43-.789-.281-1.637-.43-2.521-.43Z"/>
</svg>
