<?xml version="1.0" encoding="UTF-8"?>
<svg xmlns="http://www.w3.org/2000/svg" id="Layer_1" data-name="Layer 1" viewBox="0 0 24 24">
  <path d="m9.671,21.562c.518.647.413,1.591-.234,2.108-.276.222-.607.329-.936.329-.44,0-.876-.192-1.172-.562l-4-5C1.63,16.17,0,13.729,0,10.567,0,7.737,1.091,5.082,3.072,3.091,5.056,1.098,7.694,0,10.5,0s5.443,1.098,7.427,3.09c2.085,2.097,3.201,4.995,3.062,7.954-.01.204-.025.408-.046.61-.085.824-.818,1.417-1.646,1.338-.824-.085-1.423-.822-1.338-1.646.015-.147.027-.295.034-.442.1-2.12-.699-4.197-2.191-5.697-1.416-1.423-3.298-2.206-5.3-2.206s-3.885.783-5.301,2.207c-1.418,1.425-2.199,3.329-2.199,5.36,0,2.241,1.278,4.133,2.701,6.033l3.971,4.962Zm3.951-6.524l3.671,3.67c.378.377,1.036.377,1.414,0l3.67-3.67c-.122-.023-.248-.038-.377-.038h-8c-.129,0-.255.015-.378.038Zm10.263,1.32l-3.764,3.764c-.585.585-1.353.877-2.121.877s-1.536-.292-2.121-.877l-3.764-3.764c-.069.202-.115.416-.115.641v5c0,1.105.895,2,2,2h8c1.105,0,2-.895,2-2v-5c0-.226-.046-.439-.115-.642Zm-13.385-1.358c-2.481,0-4.5-2.019-4.5-4.5s2.019-4.5,4.5-4.5,4.5,2.019,4.5,4.5-2.019,4.5-4.5,4.5Zm1.5-4.5c0-.827-.673-1.5-1.5-1.5s-1.5.673-1.5,1.5.673,1.5,1.5,1.5,1.5-.673,1.5-1.5Z"/>
</svg>
