<?xml version="1.0" encoding="UTF-8"?>
<svg xmlns="http://www.w3.org/2000/svg" id="Layer_1" data-name="Layer 1" viewBox="0 0 24 24">
  <path d="M23.542,5.573L15.112,13.716c-.876,.862-2.009,1.295-3.145,1.295-1.122,0-2.246-.423-3.127-1.271l-2.858-2.638c-.608-.562-.646-1.511-.085-2.12,.563-.609,1.512-.645,2.12-.085l2.882,2.66c.613,.59,1.535,.586,2.118,.011L21.458,3.415c.596-.575,1.545-.558,2.121,.037,.575,.596,.559,1.545-.037,2.121Zm-18.328-.085c.342,0,.687-.116,.968-.354,.332-.281,.688-.541,1.057-.771,.701-.44,.914-1.366,.475-2.068-.44-.702-1.366-.911-2.068-.475-.489,.307-.96,.651-1.4,1.023-.633,.535-.712,1.481-.177,2.114,.297,.351,.72,.531,1.146,.531Zm-1.546,9.921c-.164-.402-.301-.818-.404-1.238-.199-.805-1.017-1.297-1.815-1.097-.805,.198-1.296,1.012-1.097,1.815,.139,.562,.32,1.118,.539,1.654,.237,.581,.798,.933,1.39,.933,.188,0,.381-.035,.566-.111,.767-.313,1.135-1.189,.821-1.956ZM1.442,10.963c.12,.029,.239,.043,.356,.043,.676,0,1.289-.459,1.456-1.145,.104-.423,.237-.839,.399-1.238,.312-.768-.058-1.643-.825-1.954-.771-.312-1.643,.06-1.954,.825-.218,.535-.397,1.093-.534,1.656-.196,.806,.297,1.617,1.102,1.812ZM11.248,3.026c.036,0,.535-.026,.752-.026s.716,.026,.752,.026c.779,0,1.438-.604,1.494-1.394,.059-.827-.563-1.544-1.39-1.603-.283-.021-.569-.03-.856-.03s-.573,.01-.856,.03c-.826,.059-1.448,.775-1.39,1.603,.056,.79,.715,1.394,1.494,1.394Zm11.31,10.019c-.807-.196-1.617,.295-1.814,1.1-.104,.421-.238,.838-.401,1.24-.312,.768,.058,1.643,.825,1.954,.186,.075,.376,.11,.563,.11,.593,0,1.154-.354,1.391-.936,.218-.536,.398-1.093,.536-1.654,.197-.805-.295-1.616-1.1-1.814Zm-4.746,5.827c-.333,.282-.688,.541-1.055,.77-.702,.438-.916,1.364-.478,2.067,.284,.455,.773,.705,1.273,.705,.271,0,.547-.073,.794-.228,.488-.306,.96-.649,1.402-1.023,.633-.535,.712-1.481,.177-2.114-.534-.631-1.481-.712-2.114-.177Zm-10.547,.783c-.367-.229-.724-.486-1.057-.767-.634-.535-1.581-.451-2.113,.182-.533,.634-.452,1.58,.182,2.113,.443,.373,.917,.717,1.406,1.021,.246,.153,.52,.226,.79,.226,.501,0,.991-.251,1.275-.709,.437-.704,.221-1.629-.483-2.065Zm5.402,1.32c-.431,.03-.876,.032-1.307,.002-.812-.058-1.543,.563-1.603,1.39s.562,1.544,1.39,1.603c.281,.021,.565,.03,.853,.03,.297,0,.592-.011,.884-.032,.826-.06,1.447-.778,1.388-1.604-.061-.826-.786-1.45-1.604-1.388Z"/>
</svg>
