<?xml version="1.0" encoding="UTF-8"?>
<svg xmlns="http://www.w3.org/2000/svg" id="Layer_1" data-name="Layer 1" viewBox="0 0 24 24">
  <path d="m21,22.5c0,.829-.672,1.5-1.5,1.5H4.5c-.828,0-1.5-.671-1.5-1.5s.672-1.5,1.5-1.5h4.619l-.952-1.36c-.281-.401-.74-.64-1.229-.64h-2.438c-.828,0-1.5-.671-1.5-1.5s.672-1.5,1.5-1.5h2.438c1.467,0,2.845.718,3.686,1.919l1.376,1.965,1.376-1.965c.841-1.202,2.219-1.919,3.686-1.919h2.438c.828,0,1.5.671,1.5,1.5s-.672,1.5-1.5,1.5h-2.438c-.488,0-.947.239-1.229.64l-.952,1.36h4.619c.828,0,1.5.671,1.5,1.5ZM3.962,3.5C3.962,1,7.543,0,11.962,0s8,1,8,3.5c0,1.135-.743,1.957-1.962,2.521v2.964c0,3.309-2.691,6-6,6s-6-2.691-6-6v-2.93c-1.264-.564-2.038-1.397-2.038-2.554Zm11.038,4.286c-.833.123-1.818.214-3,.214s-2.167-.091-3-.214v1.199c0,1.654,1.346,3,3,3s3-1.346,3-3v-1.199Zm-5.353-4.038l.991.806-.392,1.257c-.053.169.006.353.148.459.074.055.162.083.25.083.081,0,.162-.023.232-.07l1.128-.755,1.147.747c.148.096.341.089.482-.019.14-.108.197-.293.141-.461l-.408-1.242.986-.803c.134-.113.183-.297.123-.462-.06-.164-.216-.274-.391-.274h-1.25l-.443-1.242c-.061-.163-.216-.271-.39-.271s-.33.108-.39.271l-.443,1.242h-1.25c-.175,0-.331.109-.391.273-.06.164-.012.348.121.461Z"/>
</svg>
