<?xml version="1.0" encoding="UTF-8"?>
<svg xmlns="http://www.w3.org/2000/svg" id="Layer_1" data-name="Layer 1" viewBox="0 0 24 24">
  <path d="m2,3c0-1.657,1.343-3,3-3s3,1.343,3,3-1.343,3-3,3-3-1.343-3-3Zm13,3c1.657,0,3-1.343,3-3s-1.343-3-3-3-3,1.343-3,3,1.343,3,3,3Zm-9.047,2.126c-.206-.802-1.024-1.284-1.826-1.079C1.735,7.663,0,9.956,0,12.5c0,.829.671,1.5,1.5,1.5s1.5-.671,1.5-1.5c0-1.177.806-2.272,1.874-2.547.803-.207,1.286-1.024,1.079-1.826Zm2.174,6.921c-2.391.615-4.126,2.908-4.126,5.453,0,.829.671,1.5,1.5,1.5s1.5-.671,1.5-1.5c0-1.177.806-2.272,1.874-2.547.803-.207,1.286-1.024,1.079-1.826s-1.024-1.286-1.826-1.079Zm4.473-5.533c-.655-1.149-2.042-1.824-3.532-1.374-.907.274-1.646,1.009-1.923,1.915-.579,1.893.662,3.639,2.392,3.908.3.047.573-.151.654-.443.218-.783.627-1.497,1.21-2.08l.945-.866c.494-.494.395-.815.254-1.061Zm11.066,11.456l-1.302-1.208c-.446-.446-1.17-.446-1.616,0l-1.036,1.025c-2.071-.791-3.599-2.256-4.5-4.5l1.025-1.036c.446-.446.446-1.17,0-1.616l-1.208-1.302c-.446-.446-1.17-.446-1.616,0l-.6.522c-.552.551-.813,1.277-.813,2,0,4,5.429,9.143,9.143,9.143.723,0,1.449-.261,2-.813l.522-.6c.446-.446.446-1.17,0-1.616Z"/>
</svg>
