<?xml version="1.0" encoding="UTF-8"?>
<svg xmlns="http://www.w3.org/2000/svg" id="Layer_1" data-name="Layer 1" viewBox="0 0 24 24">
  <path d="m24,5.5v4c0,.829-.672,1.5-1.5,1.5s-1.5-.671-1.5-1.5v-4c0-1.378-1.121-2.5-2.5-2.5H5.5c-1.379,0-2.5,1.122-2.5,2.5v9c0,1.378,1.121,2.5,2.5,2.5h3c.828,0,1.5.671,1.5,1.5s-.672,1.5-1.5,1.5h-3c-3.032,0-5.5-2.467-5.5-5.5V5.5C0,2.467,2.468,0,5.5,0h13c3.032,0,5.5,2.467,5.5,5.5Zm-9.108,3.578l-4.137-2.299c-.787-.437-1.755.132-1.755,1.033v4.597c0,.901.968,1.47,1.755,1.033l4.137-2.298c.81-.45.81-1.615,0-2.065Zm9.108,8.922c0,3.314-2.686,6-6,6s-6-2.686-6-6,2.686-6,6-6,6,2.686,6,6Zm-3.5,1.086l-1.5-1.5v-2.586c0-.552-.448-1-1-1h0c-.552,0-1,.448-1,1v2.586c0,.53.211,1.039.586,1.414l1.5,1.5c.391.39,1.024.39,1.414,0,.391-.391.391-1.024,0-1.414Z"/>
</svg>
