<?xml version="1.0" encoding="UTF-8"?>
<svg xmlns="http://www.w3.org/2000/svg" id="Layer_1" data-name="Layer 1" viewBox="0 0 24 24">
  <path d="M23.444,17.022c-.728,1.238-2.019,1.978-3.454,1.978h-4.49c-.828,0-1.5-.671-1.5-1.5s.672-1.5,1.5-1.5h4.49c.52,0,.779-.348,.868-.498,.087-.148,.262-.541,.013-.988-.296-.531-.632-1.031-.986-1.514h-5.385c-.828,0-1.5-.671-1.5-1.5s.672-1.5,1.5-1.5h2.365c-.768-.548-1.576-1.006-2.413-1.334-.771-.302-1.151-1.172-.849-1.944,.302-.772,1.172-1.151,1.944-.849,3.206,1.257,6.102,3.874,7.944,7.181,.696,1.25,.678,2.733-.048,3.968Zm-16.967,3.777c-.178,.133-.338,.201-.477,.201-1.058,0-3-3.417-3-9S4.942,3,6,3c.139,0,.299,.067,.477,.201,.665,.498,1.604,.361,2.1-.303s.36-1.604-.303-2.1c-.708-.53-1.474-.798-2.274-.798C2.061,0,0,6.037,0,12s2.061,12,6,12c.8,0,1.565-.269,2.274-.798,.663-.496,.799-1.436,.303-2.1-.497-.664-1.437-.8-2.1-.303Zm8,0c-.178,.133-.339,.201-.477,.201-1.058,0-3-3.417-3-9s1.942-9,3-9c.293,0,.802,.332,1.351,1.262,.422,.714,1.343,.95,2.054,.53,.714-.421,.951-1.34,.53-2.054-1.335-2.263-2.876-2.738-3.935-2.738-2.309,0-3.968,2.082-4.949,5h-1.551c-.829,0-1.5,.671-1.5,1.5s.671,1.5,1.5,1.5h.822c-.107,.653-.188,1.321-.241,2h-1.581c-.829,0-1.5,.671-1.5,1.5s.671,1.5,1.5,1.5h1.522c.039,1.019,.142,2.027,.301,3h-.822c-.829,0-1.5,.671-1.5,1.5s.671,1.5,1.5,1.5h1.551c.982,2.918,2.64,5,4.949,5,.8,0,1.564-.269,2.273-.798,.663-.496,.799-1.436,.303-2.1-.495-.664-1.436-.799-2.1-.303Z"/>
</svg>
