<?xml version="1.0" encoding="UTF-8"?>
<svg xmlns="http://www.w3.org/2000/svg" id="Layer_1" data-name="Layer 1" viewBox="0 0 24 24">
  <path d="m21.732,12.086l-8.732-6.318v-1.769h1c.552,0,1-.448,1-1s-.448-1-1-1h-1v-1c0-.552-.448-1-1-1s-1,.448-1,1v1h-1c-.552,0-1,.448-1,1s.448,1,1,1h1v1.769L2.268,12.086s-.002.001-.003.002c-1.418,1.031-2.265,2.694-2.265,4.448v2.463c0,2.757,2.243,5,5,5h14c2.757,0,5-2.243,5-5v-2.463c0-1.754-.847-3.417-2.268-4.451Zm-9.732,3.914c-1.105,0-2,.895-2,2v3h-2v-9.358l4-2.894,4,2.894v9.358h-2v-3c0-1.105-.895-2-2-2Zm-9,3v-2.463c0-.797.385-1.553,1.029-2.022l.971-.702v7.187c-1.103,0-2-.897-2-2Zm18,0c0,1.103-.897,2-2,2v-7.187l.97.702c.645.469,1.03,1.225,1.03,2.022v2.463Z"/>
</svg>
