<?xml version="1.0" encoding="UTF-8"?>
<svg xmlns="http://www.w3.org/2000/svg" id="Layer_1" data-name="Layer 1" viewBox="0 0 24 24">
  <path d="M19.811,10.938c-.993-1.349-2.471-2.209-4.116-2.398-.978-.986-2.289-1.54-3.695-1.54-1.682,0-3.234,.806-4.215,2.146-2.212,.461-3.996,2.152-4.57,4.339-1.382,.977-2.214,2.551-2.214,4.266,0,2.895,2.355,5.25,5.25,5.25,.991,0,1.938-.284,2.75-.79v.29c0,.828,.671,1.5,1.5,1.5s1.5-.672,1.5-1.5v-1.5h5.75c2.895,0,5.25-2.355,5.25-5.25,0-2.124-1.26-3.993-3.189-4.812Zm-2.061,7.062h-6.269c.034-.669-.05-1.348-.279-1.998-.275-.782-1.132-1.192-1.913-.917-.781,.275-1.191,1.132-.916,1.913,.206,.586,.147,1.222-.124,1.762-.007,.012-.018,.022-.025,.034-.396,.743-1.152,1.205-1.974,1.205-1.241,0-2.25-1.01-2.25-2.25,0-.839,.474-1.603,1.238-1.992,.44-.225,.742-.652,.806-1.143,.182-1.399,1.337-2.488,2.748-2.588,.521-.037,.984-.341,1.225-.804,.392-.755,1.152-1.224,1.984-1.224,.701,0,1.351,.329,1.781,.902,.296,.396,.748,.629,1.266,.598,1.028,.017,1.963,.558,2.508,1.456,.191,.315,.492,.55,.845,.657,.957,.292,1.6,1.15,1.6,2.137,0,1.24-1.009,2.25-2.25,2.25ZM2.703,2.054c-.147-.296-.088-.652,.145-.886L3.828,.189c.313-.313,.841-.224,1.034,.175l.966,2.24,1.428-1.428c.337-.337,.914-.163,1.009,.304l.729,4.909c.022,.15-.021,.302-.118,.419-.247,.296-.716,.241-.888-.104l-1.142-2.32-1.363,1.437c-.289,.289-.775,.217-.968-.143l-1.812-3.624ZM15.124,6.808c-.097-.116-.14-.269-.118-.419l.729-4.909c.095-.468,.672-.642,1.009-.304l1.428,1.428,.966-2.24c.193-.399,.721-.488,1.034-.175l.979,.979c.233,.234,.292,.59,.145,.886l-1.812,3.624c-.193,.361-.679,.432-.968,.143l-1.363-1.437-1.142,2.32c-.172,.345-.641,.4-.888,.104Z"/>
</svg>
