<?xml version="1.0" encoding="UTF-8"?>
<svg xmlns="http://www.w3.org/2000/svg" id="Layer_1" data-name="Layer 1" viewBox="0 0 24 24">
  <path d="M4.38,10.579c2.282-.354,4.101,.56,5.048,1.196,.394,.265,.449,.819,.112,1.154l-.543,.853c-.272,.27-.702,.293-.996,.048-.855-.713-2.434-1.896-3.661-2.32-.468-.162-.449-.856,.04-.931Zm5.066-2.572l1.054,.428c.35,.156,.76,.025,.949-.309,.547-.97,1.36-2.458,2.357-3.289,.38-.317,.117-.959-.368-.857-2.26,.478-3.636,1.977-4.296,2.907-.275,.387-.13,.925,.304,1.118Zm-2.403,12.993c.04-1.393,.254-2.998,.855-4.217,.248-.502-.357-1.05-.8-.708-.959,.74-1.565,1.789-1.951,2.769-.343-1.34-.984-2.867-2.191-3.739-.486-.351-1.108,.148-.846,.687,.558,1.148,.768,2.754,.845,4.13-.37-1.023-.988-2.095-2.038-2.799-.465-.312-1.059,.142-.842,.658,.364,.866,.631,2.238,.782,3.368-.506,.241-.858,.753-.858,1.35,0,.829,.672,1.5,1.5,1.5H22.5c.828,0,1.5-.671,1.5-1.5s-.672-1.5-1.5-1.5H7.043Zm16.957-2.5c0-1.381-1.119-2.5-2.5-2.5s-2.5,1.119-2.5,2.5,1.119,2.5,2.5,2.5,2.5-1.119,2.5-2.5Zm-10.05,.5h3.101c-.019-.166-.05-.329-.05-.5,0-2.017,1.336-3.704,3.164-4.275l2.61-11.252c.697-.129,1.226-.738,1.226-1.472,0-.828-.672-1.5-1.5-1.5-1.286,0-2.4,.891-2.684,2.145l-2.451,10.855h-2.285c-1.291,0-2.437,.826-2.846,2.051l-.33,.99c-.133-.022-.267-.041-.405-.041-1.381,0-2.5,1.119-2.5,2.5s1.119,2.5,2.5,2.5c1.209,0,2.218-.859,2.45-2Z"/>
</svg>
