<?xml version="1.0" encoding="UTF-8"?>
<svg xmlns="http://www.w3.org/2000/svg" id="Layer_1" data-name="Layer 1" viewBox="0 0 24 24">
  <path d="m19.5,0H4.5C2.019,0,0,2.019,0,4.5v15c0,2.481,2.019,4.5,4.5,4.5h11.343c1.469,0,2.85-.572,3.889-1.611l2.657-2.656c1.039-1.039,1.611-2.42,1.611-3.89V4.5c0-2.481-2.019-4.5-4.5-4.5Zm-3.365,8.04l1.229-4.882c.092-.366.421-.623.799-.623.39,0,.727.274.807.656l1.017,4.875c.083.396-.219.767-.623.767h-.012c-.302,0-.562-.212-.623-.507l-.612-2.937-.745,2.963c-.071.283-.326.482-.618.482-.415,0-.719-.39-.618-.792Zm-3.568-5.54c.292,0,.546.198.618.482l.745,2.963.612-2.937c.062-.295.322-.507.623-.507h.012c.404,0,.706.371.623.767l-1.017,4.875c-.08.382-.416.656-.807.656-.378,0-.707-.257-.799-.623l-1.229-4.882c-.101-.402.203-.792.618-.792Zm-4.816,5.505l1.229-4.882c.092-.366.421-.623.799-.623.39,0,.727.274.807.656l1.017,4.875c.083.396-.219.767-.623.767h-.012c-.302,0-.562-.212-.623-.507l-.612-2.937-.745,2.963c-.071.283-.326.481-.618.481-.415,0-.719-.39-.618-.792Zm-4.101-1.559c.249,0,.469.145.583.366.133.257.394.454.687.459.406,0,.778-.314.778-.781v-3.34c.001-.359.292-.649.651-.649s.65.291.65.65v3.356c0,1.137-.926,2.063-2.079,2.063h0c-.805-.006-1.504-.491-1.849-1.171-.221-.436.09-.952.578-.952Zm-.651,13.055v-8.5h18v4h-4c-1.105,0-2,.895-2,2v4H4.5c-.827,0-1.5-.673-1.5-1.5Z"/>
</svg>
