<?xml version="1.0" encoding="UTF-8"?>
<svg xmlns="http://www.w3.org/2000/svg" id="Layer_1" data-name="Layer 1" viewBox="0 0 24 24">
  <path d="m16.865,13.888c-.846.767-2.097,1.267-3.665,1.485.086-.079.16-.156.253-.236.628-.54.7-1.487.16-2.115-.538-.627-1.484-.7-2.115-.16-.253.217-.622.542-.998.962-.462-.514-1.554-1.43-1.554-1.43-1.429-1.215-2.498-3.209-2.923-4.646-.068-.23.029-.409.094-.495.057-.076.219-.252.502-.252h1.881c.828,0,1.5-.671,1.5-1.5s-.672-1.5-1.5-1.5h-1.881c-1.138,0-2.224.545-2.905,1.457-.47.628-.696,1.369-.698,2.123-1.827.369-3.207,1.986-3.207,3.92,0,3.395,2.854,6.809,9.19,6.983v2.517h-1.5c-.828,0-1.5.671-1.5,1.5s.672,1.5,1.5,1.5h6c.828,0,1.5-.671,1.5-1.5s-.672-1.5-1.5-1.5h-1.5v-2.528c3.636-.141,5.748-1.336,6.879-2.361.614-.556.661-1.505.104-2.119-.556-.615-1.504-.659-2.118-.105Zm-14.056-2.388c0-.551.448-1,1-1h.086c.785,1.625,1.903,3.154,3.108,4.179,0,0,.652.553.842.73-3.68-.427-5.036-2.287-5.036-3.908Zm21.171-4.595c.003.033.019.061.019.095v4c0,.552-.447,1-1,1s-1-.448-1-1v-3.037l-4.41-.221c-1.06-.053-2.027-.62-2.591-1.518l-2.724-4.334c-.531-.845.109-1.938,1.106-1.888l5.113.256c1.06.053,2.027.62,2.591,1.518l2.724,4.334c.161.256.204.533.172.795Zm-12.677,2.164c-.397-.632-.405-1.429-.028-2.073l.89-1.519,1.138,1.811c.91,1.449,2.475,2.366,4.185,2.452l1.41.071-.72,1.23c-.377.644-1.076,1.027-1.822.99-.726-.036-1.71-.249-2.855-.919-1.145-.671-1.812-1.425-2.199-2.041Z"/>
</svg>
