<?xml version="1.0" encoding="UTF-8"?>
<svg xmlns="http://www.w3.org/2000/svg" id="Layer_1" data-name="Layer 1" viewBox="0 0 24 24">
  <path d="M4,8v3c0,2.481,2.019,4.5,4.5,4.5,.829,0,1.5,.672,1.5,1.5v5.5c0,.828-.671,1.5-1.5,1.5s-1.5-.672-1.5-1.5v-4.15c-3.419-.697-6-3.728-6-7.35v-3.092c-.581-.207-1-.756-1-1.408,0-.828,.671-1.5,1.5-1.5h2.5V1.5c0-.828,.671-1.5,1.5-1.5s1.5,.672,1.5,1.5v3.5h3V1.5c0-.828,.671-1.5,1.5-1.5s1.5,.672,1.5,1.5v3.5h2.5c.829,0,1.5,.672,1.5,1.5,0,.652-.419,1.201-1,1.408v1.592c0,.828-.671,1.5-1.5,1.5s-1.5-.672-1.5-1.5v-1.5H4Zm20,10c0,3.314-2.686,6-6,6s-6-2.686-6-6,2.686-6,6-6,6,2.686,6,6Zm-2.288-1.702c-.383-.399-1.017-.41-1.414-.029l-2.713,2.624c-.143,.141-.379,.144-.522,.002l-1.354-1.331c-.396-.388-1.028-.381-1.414,.014-.387,.395-.381,1.027,.014,1.414l1.354,1.332c.46,.449,1.062,.674,1.663,.674s1.201-.225,1.653-.671l2.703-2.614c.398-.383,.411-1.016,.029-1.414Z"/>
</svg>
