<?xml version="1.0" encoding="UTF-8"?>
<svg xmlns="http://www.w3.org/2000/svg" id="Layer_1" data-name="Layer 1" viewBox="0 0 24 24">
  <path d="m3,2.5c0-1.381,1.119-2.5,2.5-2.5s2.5,1.119,2.5,2.5-1.119,2.5-2.5,2.5-2.5-1.119-2.5-2.5ZM19.5,0h-8c-.829,0-1.5.672-1.5,1.5s.671,1.5,1.5,1.5h8c.827,0,1.5.673,1.5,1.5v6c0,.827-.673,1.5-1.5,1.5h-.5v-.5c0-.828-.671-1.5-1.5-1.5h-2c-.829,0-1.5.672-1.5,1.5v.5s-1.5,0-1.5,0c-.829,0-1.5.672-1.5,1.5s.671,1.5,1.5,1.5h7c2.481,0,4.5-2.019,4.5-4.5v-6c0-2.481-2.019-4.5-4.5-4.5Zm-10.5,9h4.5c.829,0,1.5-.672,1.5-1.5s-.671-1.5-1.5-1.5H4.5c-2.481,0-4.5,2.019-4.5,4.5v3c0,.828.671,1.5,1.5,1.5s1.5-.672,1.5-1.5v-3c0-.827.673-1.5,1.5-1.5h1.5v4.5c0,.828.671,1.5,1.5,1.5s1.5-.672,1.5-1.5v-4.5Zm-3.5,9c0-1.105-.895-2-2-2s-2,.895-2,2,.895,2,2,2,2-.895,2-2Zm6.5,2c1.105,0,2-.895,2-2s-.895-2-2-2-2,.895-2,2,.895,2,2,2Zm10.5-2c0-1.105-.895-2-2-2s-2,.895-2,2,.895,2,2,2,2-.895,2-2Zm-18.998,3c-1.566,0-2.896.914-3.441,2.204-.162.383.005.796.443.796h5.971c.438,0,.631-.413.469-.796-.545-1.29-1.875-2.204-3.441-2.204Zm8.588,0c-1.566,0-2.896.914-3.441,2.204-.162.383.005.796.443.796h5.971c.438,0,.631-.413.469-.796-.545-1.29-1.875-2.204-3.441-2.204Zm8.41,0c-1.566,0-2.896.914-3.441,2.204-.162.383.005.796.443.796h5.971c.438,0,.631-.413.469-.796-.545-1.29-1.875-2.204-3.441-2.204Z"/>
</svg>
