<?xml version="1.0" encoding="UTF-8"?>
<svg xmlns="http://www.w3.org/2000/svg" id="Layer_1" data-name="Layer 1" viewBox="0 0 24 24">
  <path d="m14.562,7h-2.463c-.607,0-1.1.492-1.1,1.1v8.801c0,.607.492,1.1,1.1,1.1s1.1-.492,1.1-1.1v-3.025h1.363c1.898,0,3.438-1.539,3.438-3.438s-1.539-3.438-3.438-3.438Zm0,4.675h-1.362v-2.475h1.362c.682,0,1.237.555,1.237,1.237s-.555,1.237-1.237,1.237Zm6.938-3.575v8.801c0,.607-.492,1.1-1.1,1.1h0c-.607,0-1.1-.492-1.1-1.1v-8.801c0-.607.492-1.1,1.1-1.1h0c.607,0,1.1.492,1.1,1.1Zm-12.525,8.36c.318.727-.214,1.54-1.008,1.54h-.025c-.432,0-.825-.253-1.003-.648l-1.898-4.21h-.842v3.758c0,.607-.492,1.1-1.1,1.1s-1.1-.492-1.1-1.1v-8.801c0-.607.492-1.1,1.1-1.1s1.1.492,1.1,1.1v2.843h.487l1.998-3.4c.198-.336.558-.542.948-.542h.048c.841,0,1.371.906.958,1.639l-1.736,3.083,2.072,4.737Z"/>
</svg>
