<?xml version="1.0" encoding="UTF-8"?>
<svg xmlns="http://www.w3.org/2000/svg" id="Layer_1" data-name="Layer 1" viewBox="0 0 24 24">
  <path d="m13,12.58l3.5-2v2.871c0,.69-.355,1.331-.94,1.696l-2.56,1.6v-4.168Zm-5.5.872c0,.69.355,1.331.94,1.696l2.56,1.6v-4.168l-3.5-2v2.871Zm5.56-6.162c-.649-.405-1.471-.405-2.12,0l-2.468,1.543,3.528,2.016,3.528-2.016-2.468-1.543Zm9.94,9.71c0,1.657-1.343,3-3,3-.676,0-1.293-.232-1.795-.609l-3.262,2.039c-.21,1.452-1.447,2.57-2.957,2.57s-2.756-1.129-2.959-2.589l-3.233-2.02c-.502.377-1.119.609-1.795.609-1.657,0-3-1.343-3-3,0-1.108.607-2.064,1.5-2.584v-4.832c-.893-.52-1.5-1.476-1.5-2.584,0-1.657,1.343-3,3-3,.676,0,1.293.232,1.795.609l3.233-2.02c.202-1.46,1.443-2.589,2.959-2.589s2.747,1.119,2.957,2.57l3.262,2.039c.502-.377,1.119-.609,1.795-.609,1.657,0,3,1.343,3,3,0,1.108-.607,2.064-1.5,2.584v4.832c.893.52,1.5,1.476,1.5,2.584Zm-4.5-2.584v-4.832c-.777-.452-1.326-1.236-1.458-2.163l-3.256-2.035c-.503.38-1.122.614-1.801.614-.673,0-1.288-.23-1.789-.604l-3.24,2.025c-.131.927-.681,1.711-1.458,2.163v4.832c.777.452,1.326,1.236,1.458,2.163l3.24,2.025c.501-.375,1.115-.604,1.789-.604.679,0,1.298.234,1.801.614l3.256-2.035c.131-.927.681-1.711,1.458-2.163Z"/>
</svg>
