<?xml version="1.0" encoding="UTF-8"?>
<svg xmlns="http://www.w3.org/2000/svg" id="Layer_1" data-name="Layer 1" viewBox="0 0 24 24">
  <path d="M19.847,14.301l-.15-.149c.192-.686,.302-1.406,.302-2.152s-.11-1.466-.302-2.152l.15-.149c1.535-1.531,1.537-4.017,.004-5.55-1.533-1.533-4.019-1.531-5.55,.004l-.15,.15c-.686-.192-1.406-.302-2.152-.302s-1.466,.11-2.152,.302l-.15-.15c-1.531-1.535-4.017-1.537-5.55-.004-1.533,1.533-1.531,4.019,.004,5.55l.15,.149c-.192,.686-.302,1.406-.302,2.152s.11,1.466,.302,2.152l-.15,.149c-1.535,1.531-1.537,4.017-.004,5.55h0c1.533,1.533,4.019,1.531,5.55-.004l.149-.15c.686,.192,1.406,.302,2.152,.302s1.466-.11,2.152-.302l.149,.15c1.531,1.535,4.017,1.537,5.55,.004h0c1.533-1.533,1.531-4.019-.004-5.55Zm-12.847-2.301c0-2.757,2.243-5,5-5s5,2.243,5,5-2.243,5-5,5-5-2.243-5-5ZM20,2c0-1.105,.895-2,2-2s2,.895,2,2-.895,2-2,2-2-.895-2-2ZM0,2C0,.895,.895,0,2,0s2,.895,2,2-.895,2-2,2S0,3.105,0,2ZM24,22c0,1.105-.895,2-2,2s-2-.895-2-2,.895-2,2-2,2,.895,2,2Zm-20,0c0,1.105-.895,2-2,2s-2-.895-2-2,.895-2,2-2,2,.895,2,2Z"/>
</svg>
