<?xml version="1.0" encoding="UTF-8"?>
<svg xmlns="http://www.w3.org/2000/svg" id="Layer_1" data-name="Layer 1" viewBox="0 0 24 24">
  <path d="M6,15c-1.654,0-3,1.346-3,3v3c0,1.654,1.346,3,3,3s3-1.346,3-3v-3c0-1.654-1.346-3-3-3Zm1,6c0,.551-.449,1-1,1s-1-.449-1-1v-3c0-.551,.449-1,1-1s1,.449,1,1v3Zm11-6c-1.654,0-3,1.346-3,3v3c0,1.654,1.346,3,3,3s3-1.346,3-3v-3c0-1.654-1.346-3-3-3Zm1,6c0,.551-.449,1-1,1s-1-.449-1-1v-3c0-.551,.449-1,1-1s1,.449,1,1v3Zm-6-5.005l.039,7.039c.003,.552-.442,1.002-.995,1.005h-.005c-.55,0-.997-.444-1-.995l-.025-4.679c-.387,.239-.899,.192-1.235-.143-.391-.39-.391-1.023,0-1.414l1.515-1.515c.285-.285,.716-.372,1.087-.218,.374,.153,.618,.516,.62,.919Zm11-3.495c0,.415-.036,.837-.108,1.254-.14,.816-.918,1.363-1.732,1.225-.816-.141-1.365-.916-1.225-1.732,.043-.25,.065-.501,.065-.746,0-2.236-1.588-4.176-3.777-4.613-1.086-.217-1.978-.909-2.447-1.899-1.021-2.154-3.299-3.306-5.678-2.874-2.076,.379-3.767,2.104-4.114,4.193-.106,.639-.1,1.274,.02,1.889,.219,1.129-.198,2.333-1.088,3.143-.518,.471-.838,1.11-.904,1.802-.073,.777-.727,1.359-1.491,1.359-.878,.005-1.583-.766-1.495-1.641,.136-1.437,.8-2.765,1.872-3.739,.115-.104,.181-.25,.161-.352-.188-.967-.199-1.96-.034-2.952C2.583,3.449,5.209,.776,8.558,.163c3.671-.67,7.343,1.194,8.929,4.54,.06,.126,.175,.212,.323,.242,3.586,.715,6.19,3.893,6.19,7.555Z"/>
</svg>
