<?xml version="1.0" encoding="UTF-8"?>
<svg xmlns="http://www.w3.org/2000/svg" id="Layer_1" data-name="Layer 1" viewBox="0 0 24 24">
  <path d="m9.5,22.5c0,.828-.672,1.5-1.5,1.5h-2.5c-3.032,0-5.5-2.468-5.5-5.5V5.5C0,2.468,2.468,0,5.5,0h5c.828,0,1.5.672,1.5,1.5s-.672,1.5-1.5,1.5h-5c-1.379,0-2.5,1.121-2.5,2.5v13c0,1.379,1.121,2.5,2.5,2.5h2.5c.828,0,1.5.672,1.5,1.5Zm2.5-17.5h-5.5c-.828,0-1.5.672-1.5,1.5v1c0,.828.672,1.5,1.5,1.5h5.5v-4Zm-5.5,6c-.828,0-1.5.672-1.5,1.5s.672,1.5,1.5,1.5,1.5-.672,1.5-1.5-.672-1.5-1.5-1.5Zm5.5,3v-3h-.5c-.828,0-1.5.672-1.5,1.5s.672,1.5,1.5,1.5h.5Zm-5.5,2c-.828,0-1.5.672-1.5,1.5s.672,1.5,1.5,1.5,1.5-.672,1.5-1.5-.672-1.5-1.5-1.5Zm14.485,0l.015,2-2.326,2.326c-.389.389-1.021.381-1.4-.018-.365-.384-.358-.989.016-1.364l2.228-2.234c.775-1.033.572-2.526-.525-3.306-.942-.669-2.252-.475-3.069.342l-3.253,3.287c-.75.75-1.172,1.768-1.172,2.828l-.01,2.633c-.003.831.669,1.506,1.5,1.506h7.702c1.038,0,1.257-.329,1.257-.329,1.313-1.313,2.05-3.093,2.05-4.95v-3.286c-.594.35-1.277.565-2.016.565h-1Zm-.485-16h-3c-1.93,0-3.5,1.57-3.5,3.5v6.5c0,.828.672,1.5,1.5,1.5s1.5-.672,1.5-1.5V3.5c0-.275.225-.5.5-.5h3c.275,0,.5.225.5.5v9c0,.828.672,1.5,1.5,1.5s1.5-.672,1.5-1.5V3.5c0-1.93-1.57-3.5-3.5-3.5Z"/>
</svg>
