<?xml version="1.0" encoding="UTF-8"?>
<svg xmlns="http://www.w3.org/2000/svg" id="Layer_1" data-name="Layer 1" viewBox="0 0 24 24">
  <path d="m8,12.5c0,.828-.672,1.5-1.5,1.5s-1.5-.672-1.5-1.5.672-1.5,1.5-1.5,1.5.672,1.5,1.5Zm-1.5,3.5c-.828,0-1.5.672-1.5,1.5s.672,1.5,1.5,1.5,1.5-.672,1.5-1.5-.672-1.5-1.5-1.5Zm5,0c-.828,0-1.5.672-1.5,1.5s.672,1.5,1.5,1.5,1.5-.672,1.5-1.5-.672-1.5-1.5-1.5Zm-1.5-3.5c0,.828.672,1.5,1.5,1.5s1.5-.672,1.5-1.5-.672-1.5-1.5-1.5-1.5.672-1.5,1.5Zm8.5-2.5h-2c-.829,0-1.5.671-1.5,1.5v7c0,1.378-1.122,2.5-2.5,2.5h-7c-1.378,0-2.5-1.122-2.5-2.5V5.5c0-1.378,1.122-2.5,2.5-2.5.829,0,1.5-.671,1.5-1.5s-.671-1.5-1.5-1.5C2.467,0,0,2.467,0,5.5v13c0,3.033,2.467,5.5,5.5,5.5h7c2.513,0,4.638-1.694,5.292-4h.208c1.103,0,2-.897,2-2v-6.5c0-.829-.671-1.5-1.5-1.5ZM7.879,5.38c-.243-.243-.573-.38-.917-.38h-.963c-.552,0-1,.448-1,1v2c0,.552.448,1,1,1h3.767c.64,0,.96-.773.508-1.226l-2.395-2.395Zm6.479,2.977c.683-.477,1.601-.477,2.283,0,.261.183.561.27.857.27.474,0,.94-.224,1.231-.642.474-.679.308-1.614-.372-2.088-1.71-1.193-4.007-1.193-5.717,0-.679.474-.846,1.409-.372,2.088.475.68,1.41.847,2.088.372Zm7.026-6.444c-3.519-2.566-8.249-2.567-11.768,0-.669.488-.816,1.426-.328,2.096.487.669,1.426.816,2.096.328,2.462-1.795,5.771-1.794,8.233,0,.267.194.576.288.882.288.463,0,.92-.213,1.213-.616.488-.669.341-1.608-.328-2.096Z"/>
</svg>
