<?xml version="1.0" encoding="UTF-8"?>
<svg xmlns="http://www.w3.org/2000/svg" id="Layer_1" data-name="Layer 1" viewBox="0 0 24 24">
  <path d="m23.37,10.338c-.342-.715-1.015-1.222-1.801-1.357-.795-.133-1.607.123-2.174.69l-5.486,5.485c-.462.463-1.011.754-1.546.82-.797.095-1.545-.153-2.101-.708l-5.647-5.647c-.566-.566-1.378-.828-2.168-.691-.785.132-1.459.637-1.804,1.35C.217,11.161,0,12.095,0,13.059v5.441c0,3.032,2.467,5.5,5.5,5.5h13c3.033,0,5.5-2.468,5.5-5.5v-5.408c0-.955-.212-1.882-.63-2.754Zm-2.37,8.162c0,1.379-1.122,2.5-2.5,2.5H5.5c-1.378,0-2.5-1.121-2.5-2.5v-5.441c0-.246.028-.489.082-.728l5.059,5.06c1.206,1.205,2.876,1.775,4.59,1.562,1.196-.147,2.368-.743,3.299-1.676l4.894-4.893c.051.232.076.468.076.707v5.408ZM6,9h2.655l2.281,1.883c.623.515,1.524.517,2.15.006l2.314-1.889h2.6c1.657,0,3-1.343,3-3v-3c0-1.657-1.343-3-3-3H6c-1.657,0-3,1.343-3,3v3c0,1.657,1.343,3,3,3ZM15.601,3.766c-.312-.312-.312-.819,0-1.131s.818-.313,1.131,0l.735.735.735-.735c.312-.312.818-.312,1.131,0s.312.819,0,1.131l-.734.734.734.734c.312.312.312.819,0,1.131-.156.156-.36.234-.565.234s-.409-.078-.565-.234l-.735-.735-.735.735c-.156.156-.36.234-.565.234s-.409-.078-.565-.234c-.312-.312-.312-.819,0-1.131l.734-.734-.734-.734Zm-5.53,0c-.312-.312-.312-.819,0-1.132.312-.312.818-.312,1.131,0l.734.734.734-.734c.312-.312.818-.312,1.131,0,.312.312.312.819,0,1.132l-.734.734.734.734c.312.312.312.819,0,1.132-.156.156-.36.234-.565.234s-.409-.078-.565-.234l-.734-.734-.734.734c-.156.156-.36.234-.565.234s-.409-.078-.565-.234c-.312-.312-.312-.819,0-1.132l.734-.734-.734-.734Zm-5.495,0c-.312-.312-.312-.819,0-1.132.312-.312.818-.312,1.131,0l.734.734.734-.734c.312-.312.818-.312,1.131,0,.312.312.312.819,0,1.132l-.734.734.734.734c.312.312.312.819,0,1.132-.156.156-.36.234-.565.234s-.409-.078-.565-.234l-.734-.734-.734.734c-.156.156-.36.234-.565.234s-.409-.078-.565-.234c-.312-.312-.312-.819,0-1.132l.734-.734-.734-.734Z"/>
</svg>
