<?xml version="1.0" encoding="UTF-8"?>
<svg xmlns="http://www.w3.org/2000/svg" id="Layer_1" data-name="Layer 1" viewBox="0 0 24 24">
  <path d="m12.775,4.27L1.723,17.327c-.372-.102-.728-.286-1.024-.578-.855-.842-.935-2.194-.186-3.131l3.93-4.822c.695-.852,1.58-1.529,2.585-1.975l5.747-2.552Zm9.262,5.282c.938.38,1.963-.311,1.963-1.323,0-.586-.358-1.112-.902-1.327l-1.242-.491c-.148.234-.317.456-.513.661l-1.387,1.639,2.081.843Zm.463,8.449h-.024c-.905,0-1.714-.104-2.698-.348l-.902-.224c-1.169-.289-2.378-.399-3.577-.434l-4.299.004c-.552,0-1-.447-1-1s.448-1,1-1h5.5c.829,0,1.5-.672,1.5-1.5s-.671-1.5-1.5-1.5h-1.951l5.311-6.275c.852-.852.852-2.234,0-3.086s-2.234-.852-3.086,0L3.947,17.796c-.611.722-.947,1.638-.947,2.584v1.12c0,.276.224.5.5.5h.731c1.176,0,2.293-.518,3.053-1.416l1.257-1.485c.719.561,1.626.901,2.596.901h.007l4.159-.005h.022c.954,0,1.905.116,2.831.346l.902.224c1.218.301,2.274.436,3.419.436h.027c.828-.002,1.499-.674,1.497-1.503-.001-.827-.673-1.497-1.5-1.497Z"/>
</svg>
