<?xml version="1.0" encoding="UTF-8"?>
<svg xmlns="http://www.w3.org/2000/svg" id="Layer_1" data-name="Layer 1" viewBox="0 0 24 24">
  <path d="m5.001,13.501c0,1.378,1.121,2.499,2.499,2.499s2.499-1.121,2.499-2.499c0-.714-.304-1.354-.785-1.81.33-.392.536-.89.536-1.441,0-1.241-1.009-2.25-2.25-2.25s-2.25,1.009-2.25,2.25c0,.551.207,1.049.536,1.441-.481.456-.785,1.096-.785,1.81Zm2.499.899c-.496,0-.899-.403-.899-.899s.403-.9.899-.9.899.404.899.9-.403.899-.899.899Zm0-4.98c.457,0,.83.373.83.83s-.373.83-.83.83-.83-.373-.83-.83.373-.83.83-.83Zm3.5,1.08v3c0,1.381,1.119,2.5,2.5,2.5s2.5-1.119,2.5-2.5v-3c0-1.381-1.119-2.5-2.5-2.5s-2.5,1.119-2.5,2.5Zm3.4,0v3c0,.496-.404.9-.9.9s-.9-.404-.9-.9v-3c0-.496.404-.9.9-.9s.9.404.9.9Zm9.6,4.231c0,.69-.56,1.25-1.25,1.25s-1.25-.56-1.25-1.25.56-1.25,1.25-1.25,1.25.56,1.25,1.25Zm-5.75-4.25c-.69,0-1.25-.56-1.25-1.25s.56-1.25,1.25-1.25,1.25.56,1.25,1.25-.56,1.25-1.25,1.25Zm-.576,4.263l4.178-6.4c.148-.226.4-.363.67-.363.635,0,1.017.705.67,1.237l-4.178,6.4c-.148.226-.4.363-.67.363-.635,0-1.017-.705-.67-1.237Zm2.74,3.708c.579.592.569,1.541-.023,2.121-2.258,2.21-5.238,3.428-8.391,3.428C5.383,24,0,18.617,0,12S5.383,0,12,0c3.152,0,6.133,1.217,8.391,3.428.593.579.603,1.529.023,2.121-.58.594-1.531.601-2.121.022-1.694-1.658-3.93-2.572-6.293-2.572C7.037,3,3,7.038,3,12s4.037,9,9,9c2.363,0,4.599-.913,6.293-2.572.59-.579,1.541-.571,2.121.023Z"/>
</svg>
