<?xml version="1.0" encoding="UTF-8"?>
<svg xmlns="http://www.w3.org/2000/svg" id="Layer_1" data-name="Layer 1" viewBox="0 0 24 24">
  <path d="M18.592,10.86c-.696-.789-1.6-1.347-2.592-1.636V4c0-2.206-1.794-4-4-4s-4,1.794-4,4v5.225c-2.538,.683-4.299,3.348-3.926,5.957l.719,5.752c.218,1.748,1.711,3.066,3.473,3.066h7.469c1.762,0,3.255-1.318,3.473-3.066l.719-5.751c.196-1.565-.29-3.14-1.334-4.322Zm-7.592-6.86c0-.551,.448-1,1-1s1,.449,1,1v5h-2V4Zm5.949,10.81l-.719,5.752c-.031,.25-.244,.438-.496,.438h-7.469c-.252,0-.465-.188-.496-.438l-.719-5.752c-.09-.721,.125-1.419,.606-1.964,.481-.545,1.146-.846,1.874-.846h4.938c.728,0,1.393,.3,1.874,.846,.481,.545,.696,1.243,.606,1.964Zm-1.949,1.69c0,.829-.672,1.5-1.5,1.5h-3c-.828,0-1.5-.671-1.5-1.5s.672-1.5,1.5-1.5h3c.828,0,1.5,.671,1.5,1.5Z"/>
</svg>
