<?xml version="1.0" encoding="UTF-8"?>
<svg xmlns="http://www.w3.org/2000/svg" id="Layer_1" data-name="Layer 1" viewBox="0 0 24 24">
  <path d="m23.561,23.561c-.293.293-.677.439-1.061.439s-.768-.146-1.061-.439l-5.62-5.62c-.113.027-.226.059-.341.059-.427,0-.851-.181-1.147-.532-.534-.634-.454-1.58.179-2.114,1.582-1.335,2.49-3.286,2.49-5.354,0-3.859-3.14-7-7-7-3.247,0-6.045,2.2-6.805,5.352-.194.806-1.002,1.299-1.81,1.106-.806-.194-1.301-1.004-1.106-1.81C1.365,3.146,5.362,0,10,0c5.514,0,10,4.486,10,10,0,2.158-.699,4.224-1.953,5.926l5.514,5.514c.586.586.586,1.535,0,2.121Zm-15.061-13.561h-3c-1.93,0-3.5,1.57-3.5,3.5v3.55c-1.141.232-2,1.24-2,2.45,0,1.381,1.119,2.5,2.5,2.5s2.5-1.119,2.5-2.5v-6c0-.275.224-.5.5-.5h3c.276,0,.5.225.5.5v3.55c-1.141.232-2,1.24-2,2.45,0,1.381,1.119,2.5,2.5,2.5s2.5-1.119,2.5-2.5v-6c0-1.93-1.57-3.5-3.5-3.5Z"/>
</svg>
