<?xml version="1.0" encoding="UTF-8"?>
<svg xmlns="http://www.w3.org/2000/svg" id="Layer_1" data-name="Layer 1" viewBox="0 0 24 24">
  <path d="M9.5,21H3.5c-.275,0-.5-.224-.5-.5v-7.5h2.172c.935,0,1.813-.364,2.475-1.025l3.293-3.292c.54-.54,.93-.682,1.061-.682h6.5c.828,0,1.5-.671,1.5-1.5s-.672-1.5-1.5-1.5h-5.5l3.062-1.187c1.254-.418,1.249-2.193-.007-2.604L13.33,.154c-.217-.102-.454-.154-.693-.154-.904,0-1.636,.732-1.636,1.636v3.364H5.5C2.468,5,0,7.467,0,10.5v10c0,1.93,1.57,3.5,3.5,3.5h6c.828,0,1.5-.671,1.5-1.5s-.672-1.5-1.5-1.5ZM5.5,8h1.879l-1.854,1.854c-.094,.093-.222,.146-.354,.146H3.051c.232-1.14,1.242-2,2.449-2Zm2,8c.828,0,1.5,.671,1.5,1.5s-.672,1.5-1.5,1.5h-1c-.828,0-1.5-.671-1.5-1.5s.672-1.5,1.5-1.5h1Zm4.5-3c-.828,0-1.5-.672-1.5-1.5s.672-1.5,1.5-1.5,1.5,.672,1.5,1.5-.672,1.5-1.5,1.5Zm11,2.779v-2.279c0-2.481-2.019-4.5-4.5-4.5s-4.5,2.019-4.5,4.5v2.279c-.61,.549-1,1.336-1,2.221v3c0,1.657,1.343,3,3,3h5c1.657,0,3-1.343,3-3v-3c0-.885-.39-1.672-1-2.221Zm-4.5-3.779c.827,0,1.5,.673,1.5,1.5v1.5h-3v-1.5c0-.827,.673-1.5,1.5-1.5Zm0,9c-.828,0-1.5-.672-1.5-1.5s.672-1.5,1.5-1.5,1.5,.672,1.5,1.5-.672,1.5-1.5,1.5Z"/>
</svg>
