<?xml version="1.0" encoding="UTF-8"?>
<svg xmlns="http://www.w3.org/2000/svg" id="Layer_1" data-name="Layer 1" viewBox="0 0 24 24">
  <path d="M7.5,22.5c0,.829-.672,1.5-1.5,1.5h-1.5c-.828,0-1.5-.671-1.5-1.5s.672-1.5,1.5-1.5h1.5c.828,0,1.5,.671,1.5,1.5ZM17,3h1.5c.828,0,1.5-.671,1.5-1.5s-.672-1.5-1.5-1.5h-1.5c-.828,0-1.5,.671-1.5,1.5s.672,1.5,1.5,1.5Zm-5,.003v5.993c0,.87-.456,1.686-1.189,2.13-.658,.398-1.767,.873-3.311,.873-.694,0-1.335-.129-1.903-.322,.13,1.298,.385,3.086,.844,5.546,.082,.438-.036,.891-.32,1.234-.285,.343-.708,.542-1.154,.542h-1.374c-.736,0-1.363-.534-1.48-1.26-.636-3.926-1.001-7.277-1.09-9.987-.024-.14-.021-.984-.021-1.253,0-2.009,1-3.962,2.462-5.244,.378-.335,1.785-1.256,4.038-1.256,1.544,0,2.652,.475,3.31,.873,.734,.445,1.19,1.261,1.19,2.131Zm-3,.3c-.342-.159-.837-.303-1.5-.303-1.297,0-1.939,.563-1.967,.587-.877,.658-1.533,1.817-1.533,2.913,0,.125,0,.252,.002,.381l1.053,1.053s.005,.004,.007,.006c.026,.025,1.121,1.06,2.438,1.06,.663,0,1.157-.145,1.5-.303V3.303Zm13,14.197c0,2.009-.666,3.513-2.308,5.064-.378,.335-1.938,1.436-4.192,1.436-1.544,0-2.652-.475-3.31-.873-.734-.445-1.19-1.261-1.19-2.131v-5.993c0-.87,.456-1.686,1.189-2.13,.658-.398,1.767-.873,3.311-.873,.694,0,1.335,.129,1.903,.322-.13-1.298-.385-3.086-.844-5.546-.082-.438,.036-.891,.32-1.234,.285-.343,.708-.542,1.154-.542h1.374c.736,0,1.363,.534,1.48,1.26,.636,3.926,1.001,7.277,1.09,9.987,.024,.14,.021,.984,.021,1.253Zm-3,0c0-.125,0-.252-.002-.381,0,0-1.058-1.057-1.06-1.059-.026-.025-1.121-1.06-2.438-1.06-.663,0-1.157,.145-1.5,.303v5.394c.342,.159,.837,.303,1.5,.303,1.297,0,1.939-.563,1.967-.587,1.02-.875,1.533-1.817,1.533-2.913Z"/>
</svg>
