<?xml version="1.0" encoding="UTF-8"?>
<svg xmlns="http://www.w3.org/2000/svg" id="Layer_1" data-name="Layer 1" viewBox="0 0 24 24">
  <path d="m18.122,9.447c.766.749,1.99.749,2.756,0l1.804-1.765c.85-.85,1.318-1.98,1.318-3.182s-.468-2.332-1.318-3.182c-.85-.85-1.98-1.318-3.182-1.318s-2.332.468-3.182,1.318c-.85.85-1.318,1.98-1.318,3.182s.468,2.332,1.329,3.192l1.793,1.755Zm1.378-6.447c.828,0,1.5.672,1.5,1.5s-.672,1.5-1.5,1.5-1.5-.672-1.5-1.5.672-1.5,1.5-1.5Zm1.197,11.025c-1.319-1.32-3.623-1.324-4.945-.005l-.41.403c-2.587-1.198-4.481-3.1-5.756-5.776l.389-.395c.661-.661,1.025-1.54,1.025-2.475s-.364-1.814-.986-2.434l-2.152-2.318c-1.352-1.351-3.54-1.365-4.907-.042,0,0-1.066.93-1.091.954C.662,3.137,0,4.757,0,6.5c0,7.523,9.977,17.5,17.5,17.5,1.742,0,3.362-.662,4.562-1.862.024-.024.954-1.092.954-1.092.636-.656.984-1.517.984-2.433,0-.935-.364-1.814-1.065-2.514l-2.237-2.074Zm.156,4.941c-.024.024-.948,1.084-.948,1.084-.629.613-1.481.95-2.405.95-5.51,0-14.5-8.101-14.5-14.5,0-.924.337-1.776.95-2.405,0,0,1.059-.924,1.083-.948.194-.195.512-.196.668-.041l2.152,2.319c.128.127.146.276.146.353s-.019.226-.155.362l-1.108,1.127c-.418.425-.545,1.058-.322,1.611,1.694,4.22,4.633,7.153,8.732,8.717.548.208,1.169.08,1.587-.332l1.126-1.108.009-.009c.128-.127.276-.146.354-.146.078,0,.227.019.395.186l2.237,2.075c.128.127.146.276.146.353s-.019.226-.146.353Z"/>
</svg>
