<?xml version="1.0" encoding="UTF-8"?>
<svg xmlns="http://www.w3.org/2000/svg" id="Layer_1" data-name="Layer 1" viewBox="0 0 24 24">
  <path d="m23.093,4.094l-2.658,2.658c-.529.529-1.434.154-1.434-.594v-1.158h-7c-3.859,0-7,3.141-7,7,0,.703.104,1.396.308,2.059.244.792-.2,1.631-.992,1.875-.147.045-.296.066-.442.066-.641,0-1.234-.414-1.433-1.059-.292-.949-.44-1.939-.44-2.941C2.001,6.486,6.487,2,12.001,2h7V.842c0-.749.905-1.123,1.434-.594l2.658,2.658c.328.328.328.86,0,1.188Zm-11.092,2.906c-.442,0-.8.358-.8.8v.4h-.28c-1.091,0-2.046.786-2.199,1.866-.163,1.158.613,2.216,1.725,2.439l2.791.559c.304.062.514.359.451.677-.054.273-.308.46-.586.46h-2.103c-.203,0-.387-.087-.515-.226-.154-.167-.322-.274-.664-.274-.64,0-1.01.763-.592,1.266.422.509,1.059.833,1.77.833h.2v.4c0,.442.358.8.8.8s.8-.358.8-.8v-.4h.28c1.091,0,2.046-.785,2.199-1.865.164-1.158-.613-2.217-1.725-2.439l-2.792-.559c-.304-.061-.514-.36-.449-.678.055-.272.309-.458.587-.458h2.102c.203,0,.387.087.515.226.154.167.349.274.664.274.676,0,1.01-.763.592-1.266-.422-.509-1.059-.833-1.77-.833h-.2v-.4c0-.442-.358-.8-.8-.8Zm7.685,1.066c-.792.244-1.236,1.083-.992,1.875.204.663.308,1.355.308,2.059,0,3.859-3.141,7-7,7h-7v-1.158c0-.749-.905-1.123-1.434-.594l-2.658,2.658c-.328.328-.328.86,0,1.188l2.658,2.658c.529.529,1.434.154,1.434-.594v-1.158h7c5.514,0,10-4.486,10-10,0-1.002-.148-1.992-.44-2.941-.243-.791-1.082-1.231-1.875-.992Z"/>
</svg>
