<?xml version="1.0" encoding="UTF-8"?>
<svg xmlns="http://www.w3.org/2000/svg" id="Layer_1" data-name="Layer 1" viewBox="0 0 24 24">
  <path d="m19,7c0,1.105-.895,2-2,2H7c-1.105,0-2-.895-2-2s.895-2,2-2h10c1.105,0,2,.895,2,2Zm-.5-7H5.5C2.468,0,0,2.467,0,5.5v13c0,2.511,1.696,4.701,4.126,5.327.125.032.251.048.375.048.668,0,1.277-.45,1.451-1.126.207-.802-.275-1.62-1.078-1.827-1.104-.284-1.874-1.28-1.874-2.421V5.5c0-1.378,1.121-2.5,2.5-2.5h13c1.379,0,2.5,1.122,2.5,2.5v7c0,.829.672,1.5,1.5,1.5s1.5-.671,1.5-1.5v-7c0-3.033-2.468-5.5-5.5-5.5ZM6.5,14c.828,0,1.5-.672,1.5-1.5s-.672-1.5-1.5-1.5-1.5.672-1.5,1.5.672,1.5,1.5,1.5Zm3.5-1.5c0,.828.672,1.5,1.5,1.5s1.5-.672,1.5-1.5-.672-1.5-1.5-1.5-1.5.672-1.5,1.5Zm6.5-1.5c-.828,0-1.5.671-1.5,1.5s.672,1.5,1.5,1.5h1c.828,0,1.5-.671,1.5-1.5s-.672-1.5-1.5-1.5h-1Zm1.468,11.976c.124.424-.119.868-.543.993-.075.021-.15.032-.225.032-.347,0-.666-.227-.768-.576l-.241-.825h-2.968l-.255.825c-.123.424-.564.667-.992.543-.424-.124-.667-.568-.543-.993l1.684-5.759c.213-.728.849-1.216,1.583-1.216s1.371.489,1.584,1.216l1.247,4.262c.008.017.009.036.016.054l.422,1.443Zm-2.244-1.976l-.975-3.334-1.031,3.334h2.006Zm7.893-4.894c-.379-.231-.871-.11-1.1.268l-1.267,2.082-1.267-2.082c-.229-.377-.722-.499-1.1-.268-.377.23-.497.722-.268,1.1l1.697,2.789-1.697,2.789c-.229.377-.109.87.268,1.1.13.079.273.117.415.117.271,0,.534-.137.685-.384l1.267-2.082,1.267,2.082c.15.248.414.384.685.384.142,0,.285-.038.415-.117.377-.23.497-.722.268-1.1l-1.697-2.789,1.697-2.789c.229-.377.109-.87-.268-1.1Zm-11.616.694c0-.442-.358-.8-.8-.8h-4.4c-.441,0-.8.358-.8.8s.358.8.8.8h1.4v5.601c0,.442.358.8.8.8s.8-.358.8-.8v-5.601h1.4c.441,0,.8-.358.8-.8Z"/>
</svg>
