<?xml version="1.0" encoding="UTF-8"?>
<svg xmlns="http://www.w3.org/2000/svg" id="Layer_1" data-name="Layer 1" viewBox="0 0 24 24">
  <path d="M18.64,11h-1.64v-1.5c0-1.93-1.57-3.5-3.5-3.5h-3c-1.93,0-3.5,1.57-3.5,3.5v1.5h-1.644c-1.364,.005-2.581,.823-3.1,2.083-.519,1.261-.23,2.698,.731,3.659l5.977,6.001c.838,.836,1.937,1.254,3.037,1.254s2.2-.418,3.037-1.255c0,0,.001,0,.002-.002l5.969-5.994c.964-.964,1.252-2.4,.734-3.661-.518-1.26-1.734-2.079-3.104-2.085Zm.247,3.626l-5.969,5.995c-.506,.504-1.328,.504-1.83,.002l-5.977-6.001c-.114-.114-.141-.248-.08-.396,.061-.149,.174-.225,.331-.226h3.139c.829,0,1.5-.672,1.5-1.5v-3c0-.276,.224-.5,.5-.5h3c.271,0,.5,.229,.5,.5v3c0,.828,.671,1.5,1.5,1.5h3.133c.161,0,.274,.077,.336,.227s.035,.283-.083,.399Zm5.114-9.626v2.5c0,.829-.671,1.5-1.5,1.5s-1.5-.671-1.5-1.5v-2.5c0-1.103-.897-2-2-2H5c-1.103,0-2,.897-2,2v2.5c0,.829-.671,1.5-1.5,1.5s-1.5-.671-1.5-1.5v-2.5C0,2.243,2.243,0,5,0h14c2.757,0,5,2.243,5,5Z"/>
</svg>
