<?xml version="1.0" encoding="UTF-8"?>
<svg xmlns="http://www.w3.org/2000/svg" id="Layer_1" data-name="Layer 1" viewBox="0 0 24 24">
  <path d="m13,14.5c0,.828-.672,1.5-1.5,1.5h-1.5v1.5c0,.828-.672,1.5-1.5,1.5s-1.5-.672-1.5-1.5v-1.5h-1.5c-.828,0-1.5-.672-1.5-1.5s.672-1.5,1.5-1.5h1.5v-1.5c0-.828.672-1.5,1.5-1.5s1.5.672,1.5,1.5v1.5h1.5c.828,0,1.5.672,1.5,1.5Zm11-2.333c0,.938-.339,1.88-.954,2.649.188.27.353.524.489.791.37.725.336,1.573-.091,2.271-.43.702-1.178,1.122-1.999,1.122h-4.445v1c0,2.763-4.27,4-8.5,4S0,22.763,0,20V4C0,1.237,4.27,0,8.5,0h12.876c.838,0,1.626.449,2.057,1.172.429.719.448,1.583.054,2.313-.135.248-.292.482-.468.697.643.771.981,1.712.981,2.65s-.339,1.881-.954,2.65c.615.803.954,1.744.954,2.684ZM3.249,4c.729.435,2.562,1,5.251,1s4.522-.565,5.251-1c-.729-.435-2.562-1-5.251-1s-4.522.565-5.251,1Zm10.751,3.16c-1.553.567-3.528.84-5.5.84s-3.947-.273-5.5-.84v12.658c.457.438,2.416,1.182,5.5,1.182s5.043-.743,5.5-1.182V7.16Zm6.703.449c.188-.235.297-.52.297-.776s-.108-.54-.298-.776c-.717-.896-.863-2.063-.439-3.057h-3.473c.135.308.21.641.21,1v12h3.271c-.422-1.001-.278-2.169.431-3.057.189-.236.298-.52.298-.776s-.108-.541-.298-.777c-.891-1.112-.891-2.667,0-3.78Z"/>
</svg>
