<?xml version="1.0" encoding="UTF-8"?>
<svg xmlns="http://www.w3.org/2000/svg" id="Layer_1" data-name="Layer 1" viewBox="0 0 24 24">
  <path d="M17.995,15.386c.62,.549,.677,1.498,.127,2.118-.549,.62-1.497,.676-2.118,.127l-3.915-3.47c-.238-.212-.6-.214-.841-.008-.295,.336-.311,.525-.074,.904l3.691,4.799c.534,.695,.897,1.518,1.052,2.379,.146,.815-.396,1.595-1.212,1.741-.089,.016-.179,.024-.267,.024-.712,0-1.344-.51-1.475-1.236-.079-.67-.659-1.313-1.053-1.829-.132,.038-.268,.064-.411,.064H5.5c-3.033,0-5.5-2.467-5.5-5.5v-7.5C0,3.589,3.589,0,8,0s8,3.589,8,8v.5c0,.829-.671,1.5-1.5,1.5s-1.5-.671-1.5-1.5v-.5c0-2.757-2.243-5-5-5S3,5.243,3,8v7.5c0,1.378,1.122,2.5,2.5,2.5h4.155l-.813-1.057c-.583-.684-.887-1.626-.808-2.596s.531-1.851,1.272-2.48c1.374-1.167,3.427-1.146,4.774,.05l3.915,3.469ZM5,8c0,1.657,1.343,3,3,3s3-1.343,3-3-1.343-3-3-3-3,1.343-3,3Zm15.924,1.303l-.364-.364c-.586-.586-1.535-.586-2.121,0-.586,.585-.586,1.536,0,2.121l.364,.364c1.417,1.417,2.197,3.3,2.197,5.304v5.772c0,.829,.671,1.5,1.5,1.5s1.5-.671,1.5-1.5v-5.772c0-2.805-1.092-5.441-3.076-7.425Z"/>
</svg>
