<?xml version="1.0" encoding="UTF-8"?>
<svg xmlns="http://www.w3.org/2000/svg" id="Layer_1" data-name="Layer 1" viewBox="0 0 24 24">
  <path d="M19.866,4.416C17.379,1.109,13.285-.52,9.182,.154,4.95,.852,1.499,3.97,.389,8.098c-.897,3.334-.168,6.848,2.002,9.641,.277,.358,.609,.932,.609,1.637v1.124c0,1.93,1.57,3.5,3.5,3.5h7c1.784,0,3.26-1.341,3.474-3.068,2.375-.378,4.282-2.291,4.593-4.743l.15-1.193c1.484-.087,2.283-1.303,2.283-2.45,0-1.65-3.098-6.833-4.134-8.13Zm.527,7.584c-.756,0-1.394,.562-1.488,1.312l-.315,2.5c-.157,1.247-1.224,2.188-2.48,2.188h-.609c-.828,0-1.5,.671-1.5,1.5v1c0,.276-.225,.5-.5,.5H6.5c-.275,0-.5-.224-.5-.5v-1.124c0-1.231-.43-2.435-1.241-3.479-.933-1.2-2.365-3.708-1.474-7.02,.794-2.948,3.359-5.265,6.385-5.764,.449-.074,.898-.11,1.344-.11,2.53,0,4.926,1.173,6.468,3.231,.988,1.213,2.674,4.269,3.302,5.765h-.39Zm-5.089-3.5h-.371c-.224-.86-1-1.5-1.929-1.5h-5c-1.103,0-2,.897-2,2v2c0,1.103,.897,2,2,2h5c.929,0,1.705-.64,1.929-1.5h.371c.387,0,.7-.313,.7-.7v-1.6c0-.387-.313-.7-.7-.7Zm-6.3,2.5v-2h4v2s-4,0-4,0Z"/>
</svg>
