<?xml version="1.0" encoding="UTF-8"?>
<svg xmlns="http://www.w3.org/2000/svg" id="Layer_1" data-name="Layer 1" viewBox="0 0 24 24">
  <path d="m11.5,21h-7c-.827,0-1.5-.673-1.5-1.5s.673-1.5,1.5-1.5h5c.828,0,1.5-.671,1.5-1.5s-.672-1.5-1.5-1.5h-.5V3h7.5c1.379,0,2.5,1.122,2.5,2.5v10c0,.829.672,1.5,1.5,1.5s1.5-.671,1.5-1.5V5.5c0-3.033-2.468-5.5-5.5-5.5H5.5C2.468,0,0,2.467,0,5.5l.031,14c0,2.5,2.092,4.5,4.469,4.5h7c.828,0,1.5-.671,1.5-1.5s-.672-1.5-1.5-1.5ZM5.5,3h.5v12h-1.5c-.529,0-1.029.108-1.5.276V5.5c0-1.378,1.121-2.5,2.5-2.5Zm18.165,19.587l-.522.6c-.551.552-1.277.813-2,.813-3.714,0-9.143-5.143-9.143-9.143,0-.723.261-1.449.813-2l.6-.522c.446-.446,1.17-.446,1.616,0l1.208,1.302c.446.446.446,1.17,0,1.616l-1.025,1.036c.901,2.244,2.429,3.71,4.5,4.5l1.036-1.025c.446-.446,1.17-.446,1.616,0l1.302,1.208c.446.446.446,1.17,0,1.616Z"/>
</svg>
