<?xml version="1.0" encoding="UTF-8"?>
<svg xmlns="http://www.w3.org/2000/svg" id="Layer_1" data-name="Layer 1" viewBox="0 0 24 24">
  <path d="M22.632,1.723c-.862-.664-1.958-.886-3.007-.606-.959,.242-2.187,.877-3.125,.883C13.581,1.936,10.07-.052,7,0,4.855,0,2.966,.833,1.758,1.534c-1.084,.629-1.758,1.792-1.758,3.037V22.5c0,.828,.671,1.5,1.5,1.5s1.5-.672,1.5-1.5v-3.211c.793-.494,2.332-1.289,4-1.289,2.919,.063,6.43,2.052,9.5,2,1.997,0,4.076-.503,5.563-1.346,1.194-.678,1.937-1.948,1.937-3.315V4.504c0-1.098-.499-2.111-1.368-2.781Zm-1.632,13.616c0,.294-.156,.558-.416,.706-.815,.462-2.315,.955-4.084,.955-2.919-.063-6.43-2.052-9.5-2-1.512,0-2.902,.421-4,.904V4.57c0-.181,.099-.346,.263-.441,.889-.515,2.259-1.129,3.737-1.129,2.919,.064,6.43,2.052,9.5,2,1.106,0,2.141-.375,2.973-.676,.536-.171,1.424-.689,1.527,.18V15.339ZM13,7c0,.552-.448,1-1,1s-1-.448-1-1,.448-1,1-1,1,.448,1,1Zm0,6c0,.552-.448,1-1,1s-1-.448-1-1,.448-1,1-1,1,.448,1,1Zm-2.765-2.059c.26,.487,.076,1.093-.412,1.353-.487,.26-1.093,.076-1.353-.412s-.076-1.093,.412-1.353c.487-.26,1.093-.076,1.353,.412Zm5.294-2.824c.26,.487,.076,1.093-.412,1.353-.487,.26-1.093,.076-1.353-.412-.26-.487-.076-1.093,.412-1.353s1.093-.076,1.353,.412Zm0,3.765c-.26,.487-.866,.672-1.353,.412-.487-.26-.672-.866-.412-1.353s.866-.672,1.353-.412c.487,.26,.672,.866,.412,1.353Zm-5.294-2.823c-.26,.487-.866,.672-1.353,.412-.487-.26-.672-.866-.412-1.353s.866-.672,1.353-.412,.672,.866,.412,1.353Z"/>
</svg>
