<?xml version="1.0" encoding="UTF-8"?>
<svg xmlns="http://www.w3.org/2000/svg" id="Layer_1" data-name="Layer 1" viewBox="0 0 24 24">
  <path d="m22.732,9.013c-.768-.699-1.765-1.056-2.797-1.008-1.036.048-1.991.498-2.69,1.265l-2.438,2.679c-.647-.589-1.507-.949-2.449-.949h-7.857c-2.481,0-4.5,2.019-4.5,4.5v4c0,2.481,2.019,4.5,4.5,4.5h5.414c3.03,0,5.911-1.309,7.904-3.589l5.197-5.943c1.409-1.581,1.282-4.028-.283-5.455Zm-1.966,3.47l-5.206,5.954c-1.425,1.629-3.482,2.563-5.646,2.563h-5.414c-.827,0-1.5-.673-1.5-1.5v-4c0-.827.673-1.5,1.5-1.5h7.857c.354,0,.643.288.643.643,0,.317-.236.591-.551.635l-5.161.737c-.82.117-1.391.877-1.273,1.697.117.819.879,1.383,1.697,1.273l5.161-.737c1.619-.231,2.876-1.53,3.094-3.116l3.497-3.843c.159-.175.376-.277.612-.288.231-.01.463.071.636.229.356.325.385.882.055,1.252Zm-5.699-7.417l-5.568,5.935,2.06-6h-4.121l2.06,6L3.934,5.065c-.534-.622-.563-1.532-.071-2.188l1.558-2.077c.378-.504.971-.8,1.6-.8h1.605l-1.126,3h4l-1.126-3h1.606c.63,0,1.222.296,1.6.8l1.558,2.077c.492.656.462,1.565-.071,2.188Z"/>
</svg>
