<?xml version="1.0" encoding="UTF-8"?>
<svg xmlns="http://www.w3.org/2000/svg" id="Layer_1" data-name="Layer 1" viewBox="0 0 24 24">
  <path d="M16.5,0H7.5C4.467,0,2,2.468,2,5.5v13c0,3.032,2.467,5.5,5.5,5.5h9c3.033,0,5.5-2.468,5.5-5.5V5.5c0-3.032-2.467-5.5-5.5-5.5Zm-4,14c-.829,0-1.5,.672-1.5,1.5v.5h-1v-.5c0-.828-.671-1.5-1.5-1.5s-1.5,.672-1.5,1.5v.5h-2v-3H15v.5c0,.828,.671,1.5,1.5,1.5s1.5-.672,1.5-1.5v-.5h1v3h-5v-.5c0-.828-.671-1.5-1.5-1.5Zm-4-4c.829,0,1.5-.672,1.5-1.5v-.5h1v.5c0,.828,.671,1.5,1.5,1.5s1.5-.672,1.5-1.5v-.5h5v3h-1v-.5c0-.828-.671-1.5-1.5-1.5s-1.5,.672-1.5,1.5v.5H5v-3h2v.5c0,.828,.671,1.5,1.5,1.5Zm-1-7h9c1.378,0,2.5,1.121,2.5,2.5v.5h-5v-.5c0-.828-.671-1.5-1.5-1.5s-1.5,.672-1.5,1.5v.5h-1v-.5c0-.828-.671-1.5-1.5-1.5s-1.5,.672-1.5,1.5v.5h-2v-.5c0-1.379,1.122-2.5,2.5-2.5Zm9,18H7.5c-1.378,0-2.5-1.121-2.5-2.5v-.5h2v.5c0,.828,.671,1.5,1.5,1.5s1.5-.672,1.5-1.5v-.5h1v.5c0,.828,.671,1.5,1.5,1.5s1.5-.672,1.5-1.5v-.5h5v.5c0,1.379-1.122,2.5-2.5,2.5Z"/>
</svg>
