<?xml version="1.0" encoding="UTF-8"?>
<svg xmlns="http://www.w3.org/2000/svg" id="Layer_1" data-name="Layer 1" viewBox="0 0 24 24">
  <path d="M11,16c0-.552,.448-1,1-1h1c.552,0,1,.448,1,1v1c0,.552-.448,1-1,1h-1c-.552,0-1-.448-1-1v-1Zm1-8h1c.552,0,1-.448,1-1v-1c0-.552-.448-1-1-1h-1c-.552,0-1,.448-1,1v1c0,.552,.448,1,1,1Zm-1,4c0,.552,.448,1,1,1h1c.552,0,1-.448,1-1v-1c0-.552-.448-1-1-1h-1c-.552,0-1,.448-1,1v1Zm5,5c0,.552,.448,1,1,1h1c.552,0,1-.448,1-1v-1c0-.552-.448-1-1-1h-1c-.552,0-1,.448-1,1v1Zm1-4h1c.552,0,1-.448,1-1v-1c0-.552-.448-1-1-1h-1c-.552,0-1,.448-1,1v1c0,.552,.448,1,1,1Zm1.979-7.979c-.244-2.809-2.608-5.021-5.479-5.021h-2c-3.032,0-5.5,2.467-5.5,5.5v1c0,.829,.672,1.5,1.5,1.5s1.5-.671,1.5-1.5v-1c0-1.378,1.121-2.5,2.5-2.5h2c1.379,0,2.5,1.122,2.5,2.5v1c0,.829,.672,1.5,1.5,1.5h1c1.379,0,2.5,1.122,2.5,2.5v8c0,1.378-1.121,2.5-2.5,2.5h-7c-.89,0-1.72-.479-2.166-1.251-.416-.717-1.334-.961-2.05-.547-.717,.415-.962,1.332-.548,2.049,.98,1.696,2.806,2.749,4.764,2.749h7c3.032,0,5.5-2.467,5.5-5.5V10.5c0-2.871-2.212-5.236-5.021-5.479ZM9.716,14.185c.378-.378,.378-.991,0-1.369l-3.063-3.063c-.61-.61-1.653-.178-1.653,.685v1.563H1.5c-.828,0-1.5,.671-1.5,1.5s.672,1.5,1.5,1.5h3.5v1.563c0,.863,1.043,1.295,1.653,.685l3.063-3.063Z"/>
</svg>
