<?xml version="1.0" encoding="UTF-8"?>
<svg xmlns="http://www.w3.org/2000/svg" id="Layer_1" data-name="Layer 1" viewBox="0 0 24 24">
  <path d="M22.385,6.615c-.931-.931-2.137-1.463-3.429-1.57-.106-1.295-.637-2.504-1.566-3.434-1.039-1.039-2.42-1.611-3.89-1.611H5.5c-1.465,0-2.845,.574-3.886,1.615C.572,2.657,0,4.037,0,5.502l.004,11.625c-.022,1.289,1.364,2.236,2.551,1.736l3.522-1.477c.426,2.612,2.692,4.613,5.422,4.613h5.5l4.443,1.863c1.188,.5,2.576-.449,2.551-1.739l.005-11.623c0-1.465-.572-2.846-1.613-3.887ZM3,5.501c0-.664,.261-1.291,.735-1.765,.474-.475,1.101-.736,1.765-.736H13.5c.668,0,1.296,.26,1.769,.732,.472,.472,.731,1.1,.731,1.768v6c0,1.378-1.121,2.5-2.5,2.5H7.5c-.378,.013-1.035-.057-1.383,.117l-3.113,1.306-.004-9.921Zm17.994,14.921l-3.113-1.305c-.184-.077-.381-.117-.58-.117h-5.802c-1.207,0-2.217-.861-2.449-2h4.45c3.032,0,5.5-2.467,5.5-5.5v-3.448c.474,.097,.911,.331,1.263,.684,.475,.475,.735,1.102,.735,1.765l-.004,9.921ZM7.7,12h-1.7c-.552,0-1-.448-1-1V6c0-.552,.448-1,1-1h1.7c.442,0,.8,.358,.8,.8s-.358,.8-.8,.8h-1.101v1.101h1.101c.442,0,.8,.358,.8,.8s-.358,.8-.8,.8h-1.101v1.101h1.101c.442,0,.8,.358,.8,.8s-.358,.8-.8,.8Zm1.8-.747V5.914c0-.505,.409-.914,.914-.914,.354,0,.675,.204,.827,.524l1.433,3.031v-2.808c0-.412,.334-.747,.747-.747s.747,.334,.747,.747v5.339c0,.505-.409,.914-.914,.914h0c-.353,0-.675-.204-.826-.523l-1.432-3.025v2.801c0,.412-.334,.747-.747,.747s-.747-.334-.747-.747Z"/>
</svg>
