<?xml version="1.0" encoding="UTF-8"?>
<svg xmlns="http://www.w3.org/2000/svg" id="Layer_1" data-name="Layer 1" viewBox="0 0 24 24">
  <path d="m23.547,20.075l-3.293,3.207c-.479.479-1.112.719-1.749.719-.641,0-1.283-.244-1.772-.733l-3.279-3.193c-.593-.578-.605-1.528-.027-2.121.579-.593,1.526-.605,2.121-.028l1.453,1.415V1.5c0-.829.672-1.5,1.5-1.5s1.5.671,1.5,1.5v17.841l1.453-1.415c.596-.577,1.544-.565,2.121.028.578.593.565,1.543-.027,2.121ZM12,5v15.25c0,2.173-2.523,3.75-6,3.75s-6-1.577-6-3.75V5C0,2.72,2.579,1,6,1s6,1.72,6,4Zm-3,8.495c-.873.322-1.891.505-3,.505s-2.127-.183-3-.505v1.505c.077.263,1.121,1,3,1s2.915-.732,3-1.014v-1.491Zm0-5c-.873.322-1.891.505-3,.505s-2.127-.183-3-.505v1.505c.077.263,1.121,1,3,1s2.915-.732,3-1.014v-1.491Zm-6-3.481v.006c.085.248,1.127.98,3,.98,1.843,0,2.881-.708,2.996-1-.115-.292-1.153-1-2.996-1-1.873,0-2.915.732-3,1.014Zm6,15.148v-1.667c-.873.322-1.891.505-3,.505s-2.127-.183-3-.505v1.667c.217.275,1.275.838,3,.838s2.783-.563,3-.838Z"/>
</svg>
