<?xml version="1.0" encoding="UTF-8"?>
<svg xmlns="http://www.w3.org/2000/svg" id="Layer_1" data-name="Layer 1" viewBox="0 0 24 24">
  <path d="m23.986,12.57c-.3,6.409-5.565,11.43-11.986,11.43C5.383,24,0,18.617,0,12,0,5.579,5.021.313,11.43.014c.852-.037,1.53.6,1.568,1.428.039.828-.601,1.53-1.428,1.568-4.806.226-8.57,4.174-8.57,8.99,0,4.963,4.037,9,9,9,4.816,0,8.765-3.765,8.99-8.57.038-.827.718-1.456,1.568-1.428.827.038,1.467.74,1.428,1.568Zm-11.986-7.57c-.553,0-1,.447-1,1v1c-1.654,0-3,1.346-3,3,0,1.359.974,2.51,2.315,2.733l3.04.506c.374.062.645.382.645.761,0,.552-.448,1-1,1h-2.268c-.356,0-.688-.191-.867-.501-.276-.479-.887-.643-1.366-.364-.478.276-.642.888-.364,1.366.534.925,1.53,1.499,2.598,1.499h.268v1c0,.553.447,1,1,1s1-.447,1-1v-1c1.654,0,3-1.346,3-3,0-1.359-.974-2.51-2.315-2.733l-3.04-.506c-.374-.062-.645-.382-.645-.761,0-.552.448-1,1-1h2.268c.356,0,.688.191.867.501.275.478.886.642,1.366.364.478-.276.642-.888.364-1.366-.534-.925-1.53-1.499-2.598-1.499h-.268v-1c0-.553-.447-1-1-1ZM23.073,0h-4.145c-.825,0-1.239.998-.655,1.582l1.012,1.012-2.846,2.846c-.586.586-.586,1.535,0,2.121.293.293.677.439,1.061.439s.768-.146,1.061-.439l2.846-2.846,1.012,1.012c.584.584,1.582.17,1.582-.655V.927c0-.512-.415-.927-.927-.927Z"/>
</svg>
