<?xml version="1.0" encoding="UTF-8"?>
<svg xmlns="http://www.w3.org/2000/svg" id="Layer_1" data-name="Layer 1" viewBox="0 0 24 24">
  <path d="M15.864,11.249l-4.121,5.513c-.112,.15-.288,.238-.475,.238-.389,0-.672-.368-.573-.744l.859-3.256h-2.735c-.55,0-.944-.531-.785-1.058l1.812-5.033c.196-.546,.714-.91,1.294-.91h1.568c.623,0,1.052,.623,.831,1.205l-1.064,2.795h2.717c.642,0,1.025,.715,.67,1.249Zm7.517,2.349c.403,.73,.618,1.552,.618,2.401,0,1.833-1.029,3.52-2.619,4.385-1.14,2.398-2.947,3.613-5.381,3.613-1.485,0-2.929-.638-3.964-1.629-1.052,.991-2.521,1.629-4.036,1.629-2.434,0-4.241-1.215-5.381-3.613-1.59-.865-2.619-2.552-2.619-4.385,0-.849,.215-1.671,.618-2.401C.18,12.815-.049,11.947-.049,11.045c0-1.12,.369-2.635,2-3.857,0-2.073,1.299-3.549,3.179-4.027,.513-1.85,2.068-3.162,3.958-3.162,1.087,0,2.101,.363,2.882,.971,.866-.639,1.96-.971,2.942-.971,1.89,0,3.445,1.312,3.958,3.162,1.88,.478,3.179,1.761,3.179,4.026,1.631,1.222,2,2.738,2,3.857,0,.902-.229,1.77-.667,2.553Zm-3.358-.065c.049-1.029,1.098-1.29,1.025-2.488,0-.486-.141-1.123-1.234-1.738-.473-.265-.766-.765-.766-1.308v-1c0-.791-.981-1-1.5-1-.828,0-1.5-.671-1.5-1.5,0-.727-.398-1.5-1.137-1.5-.676,0-1.408,.407-1.507,.837-.157,.681-.764,1.163-1.462,1.163h0c-.698,0-1.304-.483-1.461-1.164-.106-.461-.731-.836-1.394-.836-.738,0-1.137,.773-1.137,1.5,0,.829-.672,1.5-1.5,1.5-.519,0-1.5,.209-1.5,1v1c0,.542-.292,1.042-.765,1.308-1.095,.615-1.235,1.252-1.235,1.738-.072,1.198,.976,1.459,1.025,2.488,.014,.404-.137,.795-.416,1.087-.361,.377-.561,.868-.561,1.38,0,.833,.509,1.563,1.297,1.862,.392,.148,.703,.454,.86,.842,.656,1.63,1.48,2.295,2.843,2.295,1.131,0,2.405-.878,2.572-1.774,.133-.71,.752-1.225,1.475-1.225s1.343,.515,1.475,1.226c.17,.911,1.374,1.773,2.479,1.773,1.362,0,2.187-.665,2.843-2.295,.157-.388,.469-.694,.86-.842,.788-.298,1.297-1.029,1.297-1.862,0-.512-.199-1.002-.561-1.38-.279-.292-.43-.683-.416-1.087Z"/>
</svg>
