<?xml version="1.0" encoding="UTF-8"?>
<svg xmlns="http://www.w3.org/2000/svg" id="Layer_1" data-name="Layer 1" viewBox="0 0 24 24">
  <path d="m20.38,15.259c.395-1.012.62-2.109.62-3.259,0-1.091-.205-2.133-.562-3.101,2.032-.433,3.562-2.239,3.562-4.399,0-2.481-2.019-4.5-4.5-4.5-2.16,0-3.966,1.53-4.399,3.562-.969-.357-2.01-.562-3.101-.562-1.506,0-2.924.376-4.173,1.033-.404-1.18-1.51-2.033-2.827-2.033-1.657,0-3,1.343-3,3,0,1.317.854,2.423,2.033,2.827-.657,1.249-1.033,2.667-1.033,4.173,0,.524.054,1.035.141,1.535-1.906.898-3.141,2.801-3.141,4.965,0,3.032,2.467,5.5,5.5,5.5,2.159,0,4.063-1.253,4.959-3.142.502.087,1.015.142,1.541.142,1.15,0,2.247-.225,3.259-.62.564,1.526,2.019,2.62,3.741,2.62,2.209,0,4-1.791,4-4,0-1.722-1.094-3.177-2.62-3.741Zm-.88-12.259c.827,0,1.5.673,1.5,1.5s-.673,1.5-1.5,1.5-1.5-.673-1.5-1.5.673-1.5,1.5-1.5ZM5.5,21c-1.378,0-2.5-1.121-2.5-2.5,0-.86.455-1.647,1.157-2.1.812,1.441,2.007,2.636,3.449,3.447-.449.703-1.232,1.153-2.106,1.153Zm.5-9c0-3.309,2.691-6,6-6s6,2.691,6,6-2.691,6-6,6-6-2.691-6-6Zm7.25,2.75c0,.69-.56,1.25-1.25,1.25s-1.25-.56-1.25-1.25.56-1.25,1.25-1.25,1.25.56,1.25,1.25Zm2.652-4.949c.39.294.434.864.088,1.209h0c-.281.28-.726.315-1.042.076-.845-.639-1.87-.985-2.948-.985s-2.103.346-2.948.985c-.316.239-.762.204-1.042-.076h0c-.346-.345-.302-.915.088-1.209,1.119-.844,2.476-1.301,3.903-1.301s2.783.457,3.902,1.301Zm-1.698,2.995l-.028.028c-.255.254-.646.292-.956.109-.75-.442-1.69-.442-2.439,0-.31.183-.702.145-.956-.109l-.028-.028c-.356-.356-.295-.96.136-1.22,1.267-.765,2.87-.765,4.136,0,.431.26.492.864.136,1.22Z"/>
</svg>
