<?xml version="1.0" encoding="UTF-8"?>
<svg xmlns="http://www.w3.org/2000/svg" id="Layer_1" data-name="Layer 1" viewBox="0 0 24 24">
  <path d="M22.385,6.615c-.931-.931-2.137-1.463-3.429-1.57-.106-1.295-.637-2.504-1.566-3.434-1.039-1.039-2.42-1.611-3.89-1.611H5.5c-1.465,0-2.845,.574-3.886,1.615C.572,2.657,0,4.037,0,5.502l.004,11.625c-.022,1.289,1.364,2.236,2.551,1.736l3.522-1.477c.426,2.612,2.692,4.613,5.422,4.613h5.5l4.443,1.863c1.188,.5,2.576-.449,2.551-1.739l.005-11.623c0-1.465-.572-2.846-1.613-3.887ZM3,5.501c0-.664,.261-1.291,.735-1.765,.474-.475,1.101-.736,1.765-.736H13.5c.668,0,1.296,.26,1.769,.732,.472,.472,.731,1.1,.731,1.768v6c0,1.378-1.121,2.5-2.5,2.5H7.5c-.378,.013-1.035-.057-1.383,.117l-3.113,1.306-.004-9.921Zm17.994,14.921l-3.113-1.305c-.184-.077-.381-.117-.58-.117h-5.802c-1.207,0-2.217-.861-2.449-2h4.45c3.032,0,5.5-2.467,5.5-5.5v-3.448c.474,.097,.911,.331,1.263,.684,.475,.475,.735,1.102,.735,1.765l-.004,9.921ZM10.088,12c.358,0,.669-.245,.753-.593l.097-.401h2.148l.08,.358c.082,.371,.412,.636,.792,.636,.521,0,.907-.483,.791-.991l-1.04-4.581c-.311-1.853-2.97-1.844-3.303-.04l-1.072,4.664c-.112,.485,.257,.948,.755,.948Zm1.881-5.272c.019-.068,.05-.122,.097-.122,.014,.01,.057,.063,.082,.176l.583,2.624h-1.407l.646-2.678Zm-5.951,5.26c-1.05-.105-1.839-.978-1.991-2.006-.018-.119-.142-.982,.8-.982,.827,0,.788,.907,.814,.978,.093,.246,.331,.422,.609,.422,.358,0,.65-.292,.65-.65v-3.95c0-.442,.358-.8,.8-.8s.8,.358,.8,.8v3.95c0,1.319-1.135,2.373-2.482,2.238Z"/>
</svg>
