<?xml version="1.0" encoding="UTF-8"?>
<svg xmlns="http://www.w3.org/2000/svg" id="Layer_1" data-name="Layer 1" viewBox="0 0 24 24">
  <path d="m15,14c-1.5,0-3,1.5-3,1.5,0,0-1.5-1.5-3-1.5,0-1.657,1.343-3,3-3s3,1.343,3,3Zm-3-4c1.105,0,2-.895,2-2s-.895-2-2-2-2,.895-2,2,.895,2,2,2Zm10.573,11.011h-1.562v1.562c0,1.269-1.534,1.904-2.431,1.007l-3.789-3.789c-.256.245-.542.462-.865.642-.598.331-1.268.497-1.938.497s-1.338-.166-1.936-.496c-.319-.177-.602-.39-.856-.631l-3.777,3.777c-.897.897-2.431.262-2.431-1.007v-1.562h-1.562c-1.269,0-1.904-1.534-1.007-2.431l3.014-3.014c-.072-.497-.057-.993.054-1.482.018-.077-.035-.175-.124-.232-.568-.367-1.029-.863-1.368-1.477-.326-.588-.497-1.264-.494-1.953-.003-.675.167-1.351.494-1.94.34-.613.801-1.109,1.369-1.476.089-.058.141-.155.124-.233-.153-.674-.131-1.365.066-2.054.375-1.311,1.424-2.359,2.737-2.736.691-.197,1.379-.218,2.053-.066.079.013.177-.034.234-.124.367-.567.862-1.027,1.473-1.367,1.196-.662,2.679-.662,3.874,0,.612.34,1.108.8,1.474,1.367.058.091.15.146.233.124.676-.151,1.366-.131,2.051.065,1.314.377,2.363,1.426,2.739,2.737.197.687.22,1.377.066,2.053-.018.079.034.177.124.234.568.366,1.028.862,1.368,1.474,0,0,0,.002,0,.002.326.59.497,1.266.494,1.954.003.676-.168,1.352-.495,1.94-.339.612-.799,1.109-1.368,1.476-.089.058-.141.155-.124.231.109.483.125.973.056,1.462l3.035,3.035c.897.897.262,2.431-1.007,2.431Zm-6.276-4.995c.177.04.365.033.562-.024.315-.09.589-.364.68-.681.057-.196.064-.386.024-.563-.296-1.303.275-2.677,1.423-3.417.148-.096.273-.232.37-.408.078-.142.119-.31.118-.486,0-.19-.04-.359-.118-.501-.098-.175-.222-.312-.37-.407-1.148-.74-1.72-2.115-1.423-3.42.04-.176.032-.365-.025-.561-.091-.316-.364-.591-.681-.682-.195-.056-.386-.064-.562-.023-1.309.294-2.677-.276-3.418-1.423-.096-.148-.234-.273-.41-.371-.288-.161-.674-.159-.962,0-.174.096-.312.221-.408.37-.741,1.148-2.115,1.716-3.419,1.423-.175-.04-.364-.031-.562.024-.314.09-.588.363-.679.68-.057.197-.065.386-.025.562.296,1.306-.275,2.68-1.422,3.42-.149.096-.274.233-.372.409-.078.14-.119.308-.118.485,0,.19.04.358.118.499.098.176.222.313.371.409,1.147.74,1.719,2.114,1.423,3.418-.041.177-.032.366.024.562.091.317.364.591.681.682.195.056.385.064.562.023.229-.052.461-.077.691-.077,1.076,0,2.116.554,2.727,1.5.096.149.234.274.409.371.286.16.673.158.961,0,.175-.098.312-.223.409-.371.741-1.147,2.118-1.717,3.419-1.423Z"/>
</svg>
