<?xml version="1.0" encoding="UTF-8"?>
<svg xmlns="http://www.w3.org/2000/svg" id="Layer_1" data-name="Layer 1" viewBox="0 0 24 24">
  <path d="m24,7.5c0,.829-.672,1.5-1.5,1.5h-2.006c-.602,0-1.184.217-1.638.612l-2.924,2.539c-1.194,1.438-2.67,2.425-2.907,2.566-.321.192-.675.283-1.023.283-.73,0-1.442-.4-1.796-1.116-.47-.95-.041-2.112.867-2.66.8-.483,1.448-.846,1.927-1.724,0-.827-.673-1.5-1.5-1.5s-1.5.673-1.5,1.5v4c0,.829-.672,1.5-1.5,1.5s-1.5-.671-1.5-1.5v-5.379l-2.439,2.439c-.293.293-.677.439-1.061.439-.422,0-.844-.177-1.146-.532-.518-.609-.404-1.54.162-2.105l4.094-4.094-2.746.687v-.004c-.118.029-.238.049-.364.049-.828,0-1.5-.672-1.5-1.5,0-.667.438-1.225,1.039-1.42.033-.011,7.177-1.766,7.177-1.766.853-.209,1.728-.314,2.606-.314h9.678c.828,0,1.5.671,1.5,1.5s-.672,1.5-1.5,1.5h-10c-1.3,0-2.358,1-2.477,2.269.372-.13.765-.211,1.174-.239.098-.02.199-.031.303-.031s.205.011.303.031c1.921.131,3.501,1.46,4.009,3.252l1.078-.936c1-.868,2.28-1.346,3.604-1.346h2.006c.828,0,1.5.671,1.5,1.5Zm-9,10.5v4c0,1.105-.895,2-2,2h-5c-1.105,0-2-.895-2-2v-4c0-1.105.895-2,2-2h5c1.105,0,2,.895,2,2Zm-3,1c0-.552-.448-1-1-1h-1c-.552,0-1,.448-1,1s.448,1,1,1h1c.552,0,1-.448,1-1Z"/>
</svg>
