<?xml version="1.0" encoding="UTF-8"?>
<svg xmlns="http://www.w3.org/2000/svg" id="Layer_1" data-name="Layer 1" viewBox="0 0 24 24">
  <path d="m12.654,13.889c.407.412.115,1.111-.464,1.111h-1.19v7.5c0,.828-.672,1.5-1.5,1.5s-1.5-.672-1.5-1.5v-7.5h-1.19c-.579,0-.871-.698-.464-1.111l2.639-2.674c.142-.144.329-.215.515-.215s.374.072.515.215l2.639,2.674Zm5.154-8.967c-.147-.029-.262-.115-.321-.242C15.899,1.334,12.225-.529,8.558.14,5.209.753,2.584,3.427,2.024,6.794c-.164.991-.152,1.983.034,2.95.021.104-.046.249-.162.354-1.188,1.081-1.896,2.727-1.896,4.402,0,2.511,1.696,4.701,4.126,5.326.125.033.251.048.375.048.668,0,1.277-.449,1.451-1.126.207-.802-.275-1.62-1.078-1.826-1.104-.284-1.874-1.28-1.874-2.422,0-.82.359-1.677.915-2.183.891-.809,1.308-2.014,1.089-3.143-.119-.616-.126-1.252-.021-1.889.348-2.089,2.039-3.814,4.115-4.194,2.367-.434,4.656.72,5.677,2.872.469.991,1.36,1.684,2.447,1.901,2.188.437,3.777,2.376,3.777,4.636,0,.89-.259,1.75-.749,2.486-.459.69-.271,1.621.418,2.08.69.458,1.621.271,2.08-.418.818-1.231,1.251-2.666,1.251-4.171,0-3.662-2.604-6.84-6.191-7.555Zm1.306,15.078h-1.114v-7.5c0-.829-.672-1.5-1.5-1.5s-1.5.671-1.5,1.5v7.5h-1.114c-.562,0-.861.663-.489,1.084l2.204,2.499c.48.556,1.32.556,1.8,0l2.203-2.499c.371-.421.072-1.084-.489-1.084Z"/>
</svg>
