<?xml version="1.0" encoding="UTF-8"?>
<svg xmlns="http://www.w3.org/2000/svg" id="Layer_1" data-name="Layer 1" viewBox="0 0 24 24">
  <path d="M20.772,1.319c-2.029-.602-5.199-1.319-8.772-1.319S5.257,.718,3.228,1.319C1.297,1.893,0,3.627,0,5.637V15.5c0,1.379,1.122,2.5,2.5,2.5h3.181c1.166,0,2.162-.787,2.423-1.912,.424-1.818,2.026-3.088,3.896-3.088s3.472,1.27,3.896,3.088c.262,1.126,1.259,1.912,2.423,1.912h3.181c1.378,0,2.5-1.121,2.5-2.5V5.637c0-2.01-1.297-3.744-3.228-4.317Zm.228,4.317v1.078c-1.046-.395-2.412-.833-4-1.17V3.492c1.126,.214,2.123,.468,2.919,.704,.646,.191,1.081,.771,1.081,1.44Zm-7-2.55v2.007c-.649-.057-1.316-.094-2-.094s-1.351,.036-2,.094V3.086c.648-.052,1.314-.086,2-.086s1.352,.035,2,.086Zm-9.919,1.11c.796-.236,1.793-.49,2.919-.704v2.053c-1.588,.337-2.954,.775-4,1.17v-1.078c0-.67,.434-1.249,1.081-1.44Zm14.629,10.804c-.877-2.965-3.579-5-6.71-5s-5.832,2.035-6.71,5H3v-5.047c1.511-.657,5.001-1.953,9-1.953s7.49,1.296,9,1.953v5.047h-2.29Zm5.087,6.345c.416,.717,.172,1.635-.544,2.051-.682,.396-1.461,.604-2.253,.604-.984,0-1.978-.321-2.797-.903-.131-.093-.278-.091-.406,0-1.64,1.166-3.956,1.165-5.594,0-.131-.093-.278-.091-.406,0-1.64,1.166-3.956,1.165-5.594,0-.131-.093-.278-.091-.406,0-1.479,1.053-3.52,1.188-5.05,.3-.716-.416-.96-1.334-.544-2.051s1.334-.958,2.05-.545c.536,.312,1.262,.236,1.806-.148,1.161-.826,2.722-.827,3.883,0,.622,.441,1.494,.442,2.117,0,1.161-.826,2.722-.827,3.883,0,.622,.441,1.494,.442,2.117,0,1.161-.826,2.722-.827,3.883,0,.541,.384,1.269,.459,1.805,.147,.716-.414,1.635-.171,2.05,.545Z"/>
</svg>
