<?xml version="1.0" encoding="UTF-8"?>
<svg xmlns="http://www.w3.org/2000/svg" id="Layer_1" data-name="Layer 1" viewBox="0 0 24 24">
  <path d="M16.949,10.5l2.278-2.278,.651,5.206-2.928-2.928Zm-12.827,2.928l2.928-2.928-2.278-2.278-.651,5.206Zm16.938,4.011c.586,.586,.586,1.535,0,2.121-.098,.098-.217,.155-.331,.22-.05,2.296-2.104,4.266-4.406,4.219H7.676c-2.301,.046-4.356-1.923-4.405-4.219-.115-.065-.234-.122-.331-.22-.586-.586-.586-1.535,0-2.121l6.939-6.939L2.939,3.561c-.586-.585-.586-1.536,0-2.121,.586-.586,1.535-.586,2.121,0l1.526,1.526,2.241-1.833c1.838-1.504,4.505-1.504,6.344,0l2.241,1.833,1.526-1.526c.586-.586,1.535-.586,2.121,0,.586,.585,.586,1.536,0,2.121l-6.939,6.939,6.939,6.939ZM12,8.379l3.281-3.281-2.009-1.643c-.737-.604-1.807-.604-2.544,0l-2.009,1.644,3.281,3.281Zm5.738,11.016l-.151-1.186-5.587-5.587-5.587,5.587-.151,1.186c-.127,.826,.58,1.626,1.414,1.605h2.324v-2c0-1.105,.895-2,2-2s2,.895,2,2v2h2.324c.834,.021,1.54-.78,1.415-1.605Z"/>
</svg>
