<?xml version="1.0" encoding="UTF-8"?>
<svg xmlns="http://www.w3.org/2000/svg" id="Layer_1" data-name="Layer 1" viewBox="0 0 24 24">
  <path d="M20,15.211v-1.485l.975-3.167c3.022-3.784,3.025-3.968,3.025-4.559,0-1.103-.897-2-2-2h-1.127c-1.521-1.227-3.294-1.962-5.873-2.39v-.11c0-.829-.671-1.5-1.5-1.5s-1.5,.671-1.5,1.5v.11c-2.58,.429-4.351,1.162-5.873,2.39h-.627C2.467,4,0,6.467,0,9.5v4c0,.829,.671,1.5,1.5,1.5s1.5-.671,1.5-1.5v-4c0-1.217,.875-2.231,2.029-2.452,.025,.241,.064,.48,.136,.713l1.835,5.965v1.485l-1.772,4.43c-.855,2.025,.747,4.402,2.949,4.359h10.646c2.202,.043,3.804-2.333,2.95-4.357l-1.772-4.432Zm-5.333-2.211l.667-6h3.598l-1.846,6h-2.418Zm-4.751,0l-1.846-6h3.597l.667,6h-2.418Zm-1.903,7.757s1.884-4.739,1.891-4.757h2.409l-.625,5h-3.51c-.098,0-.177-.08-.165-.243Zm10.81,.243h-3.51l-.625-5h2.409c.007,.018,1.891,4.759,1.891,4.759,.047,.112-.044,.243-.165,.241Z"/>
</svg>
