<?xml version="1.0" encoding="UTF-8"?>
<svg xmlns="http://www.w3.org/2000/svg" id="Layer_1" data-name="Layer 1" viewBox="0 0 24 24">
  <path d="m22.158,19c-.602,0-1.103.38-1.379.914-.333.644-1.005,1.086-1.778,1.086s-1.446-.442-1.778-1.086c-.276-.535-.778-.914-1.38-.914h-.684c-.602,0-1.103.38-1.38.914-.333.644-1.005,1.086-1.778,1.086s-1.446-.442-1.778-1.086c-.276-.535-.778-.914-1.38-.914h-.684c-.602,0-1.103.38-1.38.914-.333.644-1.005,1.086-1.778,1.086s-1.446-.442-1.778-1.086c-.276-.535-.778-.914-1.379-.914h0c-1.105,0-1.832,1.156-1.355,2.152.806,1.683,2.526,2.848,4.513,2.848,1.093,0,2.103-.354,2.926-.953.343-.249.804-.249,1.147,0,.823.598,1.833.953,2.926.953s2.103-.354,2.926-.953c.343-.249.804-.249,1.147,0,.823.598,1.833.953,2.926.953,1.987,0,3.707-1.165,4.513-2.848.477-.996-.25-2.152-1.355-2.152h0Z"/>
  <path d="m4.062,17C1.855,17,.062,15.207.062,13c0-.829.672-1.5,1.5-1.5s1.5.671,1.5,1.5c0,.552.448,1,1,1s1-.448,1-1v-1.5C5.062,5.159,10.221,0,16.562,0c1.944,0,3.87.499,5.57,1.442.353.195.611.525.719.914s.053.804-.15,1.153c-.342.587-1.062.908-1.713.731-.455-.124-.943-.239-1.427-.239h-.007c-1.954,0-3.414.532-4.341,1.581-1.6,1.811-1.29,4.699-1.286,4.728.008.062.012.124.012.186,0,1.93,1.57,3.5,3.5,3.5s3.5-1.57,3.5-3.5c0-.829.672-1.5,1.5-1.5s1.5.671,1.5,1.5c0,3.584-2.916,6.5-6.5,6.5-3.556,0-6.454-2.871-6.499-6.416-.062-.645-.278-4.042,1.739-6.639-2.739,1.413-4.617,4.271-4.617,7.561v1.5c0,2.206-1.794,4-4,4Z"/>
</svg>
