<?xml version="1.0" encoding="UTF-8"?>
<svg xmlns="http://www.w3.org/2000/svg" id="Layer_1" data-name="Layer 1" viewBox="0 0 24 24">
  <path d="m21.7,8.555l-1.704-2.016c0-.013.004-.025.004-.038v-2.5c0-2.206-1.794-4-4-4h-8c-2.206,0-4,1.794-4,4v2.5c0,.013.004.025.004.038l-1.704,2.016c-.554.655-1.3,2.155-1.3,3.55v6.395c0,3.033,2.468,5.5,5.5,5.5h11c3.032,0,5.5-2.467,5.5-5.5v-6.395c0-1.298-.462-2.559-1.3-3.55ZM7,4c0-.551.448-1,1-1h8c.552,0,1,.449,1,1v1H7v-1Zm-.5,17c-1.379,0-2.5-1.122-2.5-2.5v-5.5h8v7.5c0,.171.027.335.051.5h-5.551Zm6.833-12.463c-.378.439-.666.937-.888,1.463h-7.44l1.69-2h7.1l-.463.537Zm6.667,9.963c0,1.378-1.121,2.5-2.5,2.5h-2c-.275,0-.5-.224-.5-.5v-8.373c0-.599.216-1.178.605-1.632l1.922-2.23,1.881,2.226c.381.451.591,1.024.591,1.614v6.395Z"/>
</svg>
