<?xml version="1.0" encoding="UTF-8"?>
<svg xmlns="http://www.w3.org/2000/svg" id="Layer_1" data-name="Layer 1" viewBox="0 0 24 24">
  <path d="m7.581,11.5l-1.475,4.423c-.613,1.84-2.328,3.077-4.269,3.077h-.338c-.828,0-1.5-.672-1.5-1.5s.672-1.5,1.5-1.5h.338c.646,0,1.218-.412,1.423-1.025l1.158-3.475H0v-3l2.733-3.937c.553-.664,1.54-.754,2.204-.2.664.553.754,1.54.2,2.204l-1.478,1.925,6.841-.004c.911,0,1.632.799,1.479,1.739-.12.737-.812,1.273-1.56,1.273h-2.839Zm14.919-7.5c-.828,0-1.5.672-1.5,1.5v13c0,.828.672,1.5,1.5,1.5s1.5-.672,1.5-1.5V5.5c0-.828-.672-1.5-1.5-1.5Zm-4,0c-.828,0-1.5.672-1.5,1.5v13c0,.828.672,1.5,1.5,1.5s1.5-.672,1.5-1.5V5.5c0-.828-.672-1.5-1.5-1.5Zm-2.858.077c-.786-.264-1.637.163-1.897.948l-4.334,13c-.262.786.162,1.636.948,1.897.157.053.317.077.475.077.628,0,1.214-.397,1.423-1.025l4.334-13c.262-.786-.162-1.636-.948-1.897Z"/>
</svg>
