<?xml version="1.0" encoding="UTF-8"?>
<svg xmlns="http://www.w3.org/2000/svg" id="Layer_1" data-name="Layer 1" viewBox="0 0 24 24">
  <path d="m24,12c0,.768-.073,1.536-.218,2.284-.157.813-.945,1.345-1.757,1.188-.813-.157-1.346-.943-1.188-1.757.108-.562.163-1.139.163-1.716,0-2.559-1.095-5.006-3.004-6.712-1.935-1.729-4.435-2.514-7.043-2.229-4.052.455-7.365,3.718-7.877,7.758-.31,2.439.346,4.831,1.848,6.736.238.303.586.491.979.532.415.04.821-.081,1.141-.351l.459-.384c.635-.532,1.581-.448,2.113.186.532.636.448,1.581-.187,2.113l-.458.384c-.815.685-1.858,1.06-2.918,1.06-.153,0-.305-.008-.458-.023-1.208-.125-2.283-.714-3.028-1.659C.564,16.868-.312,13.682.099,10.438.785,5.043,5.208.685,10.618.078c3.418-.383,6.834.7,9.377,2.974,2.545,2.274,4.004,5.536,4.004,8.948Zm-10,0c0-1.044-.803-1.891-1.823-1.982l-2.624-2.586c-.59-.581-1.54-.574-2.122.016s-.575,1.539.015,2.121l2.563,2.526c.05,1.06.918,1.905,1.99,1.905,1.105,0,2-.895,2-2Zm8.945,9.657c.606,1.039-.143,2.343-1.346,2.343h-9.198c-1.203,0-1.952-1.305-1.346-2.343l4.599-7.884c.601-1.031,2.091-1.031,2.692,0l4.599,7.884Zm-4.945.343c0-.552-.448-1-1-1s-1,.448-1,1,.448,1,1,1,1-.448,1-1Zm0-5c0-.552-.448-1-1-1s-1,.448-1,1v2c0,.552.448,1,1,1s1-.448,1-1v-2Z"/>
</svg>
