<?xml version="1.0" encoding="UTF-8"?>
<svg xmlns="http://www.w3.org/2000/svg" id="Layer_1" data-name="Layer 1" viewBox="0 0 24 24">
  <path d="M4.139,10.102c-.348-.752-.02-1.643,.732-1.991L17.871,2.105c.748-.347,1.643-.021,1.99,.733,.348,.752,.02,1.643-.732,1.991L6.129,10.834c-.203,.094-.417,.139-.628,.139-.566,0-1.109-.323-1.362-.872Zm1.362-4.62c.224,0,.449-.05,.663-.155l5-2.469c.743-.367,1.048-1.267,.681-2.009-.366-.744-1.267-1.047-2.009-.681L4.836,2.636c-.743,.367-1.048,1.267-.681,2.009,.261,.529,.793,.836,1.346,.836Zm12.37,2.152L4.871,13.638c-.752,.348-1.08,1.239-.732,1.991,.253,.548,.795,.872,1.362,.872,.211,0,.425-.045,.628-.139l13-6.005c.752-.348,1.08-1.239,.732-1.991s-1.241-1.08-1.99-.733Zm0,5.543l-9,4.158c-.531,.246-.871,.777-.871,1.362v2.304c0,1.654,1.346,3,3,3h2c1.654,0,3-1.346,3-3v-3.655l3.129-1.445c.752-.348,1.08-1.239,.732-1.991-.348-.752-1.242-1.079-1.99-.733Z"/>
</svg>
