<?xml version="1.0" encoding="UTF-8"?>
<svg xmlns="http://www.w3.org/2000/svg" id="Layer_1" data-name="Layer 1" viewBox="0 0 24 24">
  <path d="m21.059,3.11s-.008-.006-.013-.008L14.127.4c-1.373-.535-2.883-.535-4.253,0L2.955,3.103c-.576.225-.955.779-.955,1.397s.379,1.173.954,1.397l3.046,1.19v1.897c0,3.309,2.691,6,6,6s6-2.691,6-6v-1.898l1-.391v3.804c0,.828.671,1.5,1.5,1.5s1.5-.672,1.5-1.5v-6c0-.859-.817-1.34-.941-1.39Zm-10.094.085c.668-.262,1.403-.262,2.07,0l3.341,1.305-3.342,1.305c-.667.262-1.403.262-2.07,0l-3.341-1.305,3.342-1.305Zm4.035,5.789c0,1.654-1.346,3-3,3s-3-1.346-3-3v-.726l.873.341c.686.268,1.406.401,2.127.401s1.441-.134,2.126-.401l.875-.341v.726Zm5.923,13.041c.262.786-.163,1.636-.948,1.897-.157.053-.317.077-.475.077-.628,0-1.213-.396-1.423-1.025-.25-.749-.836-2.07-2.025-2.854l-2.22,2.977c-.438.577-1.094.903-1.807.903s-1.37-.326-1.801-.895l-2.257-2.995c-.892.589-1.628,1.615-2.044,2.864-.262.785-1.113,1.21-1.897.948-.786-.262-1.21-1.111-.948-1.897.702-2.105,2.017-3.774,3.701-4.698,1.109-.611,2.506-.346,3.319.628l1.925,2.552,1.851-2.479c.864-1.04,2.263-1.302,3.375-.688,1.67.923,2.975,2.587,3.675,4.685Z"/>
</svg>
