<?xml version="1.0" encoding="UTF-8"?>
<svg xmlns="http://www.w3.org/2000/svg" id="Layer_1" data-name="Layer 1" viewBox="0 0 24 24">
  <path d="m22.145,2.455c-1.294-1.12-3.409-2.455-6.145-2.455h-8C5.265,0,3.149,1.335,1.856,2.455.677,3.476,0,4.978,0,6.576v9.924c0,2.481,2.019,4.5,4.5,4.5h.776c.621,1.742,2.271,3,4.224,3h5c1.953,0,3.602-1.258,4.224-3h.776c2.481,0,4.5-2.019,4.5-4.5V6.576c0-1.598-.677-3.1-1.855-4.121Zm-7.837.545l-2.308,5-2.308-5h4.615Zm6.692,13.5c0,.827-.673,1.5-1.5,1.5h-.5v-8.5c0-.829-.672-1.5-1.5-1.5s-1.5.671-1.5,1.5v5.5h-1.5c-.828,0-1.5.672-1.5,1.5s.672,1.5,1.5,1.5h1.5v1.5c0,.827-.673,1.5-1.5,1.5h-5c-.827,0-1.5-.673-1.5-1.5v-1.5h1.5c.828,0,1.5-.672,1.5-1.5s-.672-1.5-1.5-1.5h-1.5v-5.5c0-.829-.672-1.5-1.5-1.5s-1.5.671-1.5,1.5v8.5h-.5c-.827,0-1.5-.673-1.5-1.5V6.576c0-.727.299-1.402.82-1.854.885-.766,2.3-1.67,4.05-1.714l-.519.693c-.535.749-.45,1.776.201,2.427l3.141,3.33c.722.722,1.893.722,2.615,0l3.141-3.33c.651-.651.736-1.678.201-2.427l-.519-.693c1.75.044,3.165.948,4.051,1.714.521.451.819,1.127.819,1.854v9.924Z"/>
</svg>
