<?xml version="1.0" encoding="UTF-8"?>
<svg xmlns="http://www.w3.org/2000/svg" id="Layer_1" data-name="Layer 1" viewBox="0 0 24 24">
  <path d="m17.57,14.952l1.659-2.262c.503-.713.282-1.694-.472-2.132-.253-.147-.68-.3-1.146-.451.247-.657.389-1.365.389-2.107h.5c.828,0,1.5-.672,1.5-1.5s-.672-1.5-1.5-1.5h-.544c-.255-1.763-1.69-5-3.456-5-1.036,0-1.679.794-2.196,1.432-.084.104-.196.242-.304.365-.107-.123-.22-.262-.304-.365-.518-.638-1.16-1.432-2.196-1.432-1.765,0-3.201,3.237-3.456,5h-.544c-.828,0-1.5.672-1.5,1.5s.672,1.5,1.5,1.5h.5c0,.824.167,1.61.47,2.326-.439.26-.841.523-1.097.672-.754.438-.975,1.419-.472,2.132l1.441,1.896c-2.085,1.69-3.341,4.225-3.341,6.974v.5c0,.828.672,1.5,1.5,1.5s1.5-.672,1.5-1.5v-.5c0-1.799.808-3.461,2.154-4.588l2.346,3.088v2c0,.828.672,1.5,1.5,1.5s1.5-.672,1.5-1.5v-2l2.296-3.13c1.376,1.127,2.204,2.808,2.204,4.63v.5c0,.828.672,1.5,1.5,1.5s1.5-.672,1.5-1.5v-.5c0-2.789-1.291-5.359-3.43-7.048Zm-2.57-6.952c0,1.654-1.346,3-3,3s-3-1.346-3-3h6Zm-4.587,5.78c.507.139,1.037.22,1.587.22s1.081-.081,1.587-.22l-1.587,5.22-1.587-5.22Z"/>
</svg>
