<?xml version="1.0" encoding="UTF-8"?>
<svg xmlns="http://www.w3.org/2000/svg" id="Layer_1" data-name="Layer 1" viewBox="0 0 24 24">
  <path d="M13.999,22.417c.039,.828-.6,1.53-1.428,1.569-.189,.009-.379,.013-.571,.013C6.007,24,.854,19.577,.015,13.712c-.117-.82,.452-1.58,1.272-1.697,.813-.118,1.58,.452,1.697,1.272,.629,4.397,4.505,7.712,9.015,7.712,.144,0,.287-.003,.429-.01,.841-.028,1.53,.601,1.569,1.428ZM2,7.997H6.586c.891,0,1.337-1.077,.707-1.707l-1.127-1.127c1.616-1.382,3.666-2.163,5.834-2.163,3.457,0,6.65,2.019,8.134,5.144,.257,.541,.795,.857,1.356,.857,.216,0,.435-.047,.643-.146,.749-.355,1.067-1.25,.711-1.999C20.866,2.691,16.609,0,12,0c-2.972,0-5.776,1.099-7.957,3.04l-1.336-1.336c-.63-.63-1.707-.184-1.707,.707V6.997c0,.552,.448,1,1,1Zm20.966,9.319c-.757-.836-1.838-1.316-2.966-1.316h-1v-2h3c.829,0,1.5-.671,1.5-1.5s-.671-1.5-1.5-1.5h-3.5c-1.378,0-2.5,1.122-2.5,2.5v3c0,1.378,1.122,2.5,2.5,2.5h1.5c.286,0,.55,.117,.742,.33,.111,.123,.292,.387,.252,.779-.049,.492-.56,.892-1.137,.892h-2.357c-.829,0-1.5,.671-1.5,1.5s.671,1.5,1.5,1.5h2.357c2.11,0,3.92-1.578,4.123-3.593,.112-1.128-.257-2.254-1.014-3.09Z"/>
</svg>
