<?xml version="1.0" encoding="UTF-8"?>
<svg xmlns="http://www.w3.org/2000/svg" id="Layer_1" data-name="Layer 1" viewBox="0 0 24 24">
  <path d="M24,4.5c0-.829-.672-1.5-1.5-1.5H13.5V1.5c0-.829-.671-1.5-1.5-1.5s-1.5,.671-1.5,1.5v1.5H1.5c-.829,0-1.5,.671-1.5,1.5s.671,1.5,1.5,1.5H3.907c-1.32,3.232-2.296,7.138-2.839,11.428-.312,2.467,.506,3.988,1.248,4.829,.991,1.125,2.478,1.744,4.185,1.744h11c1.707,0,3.193-.619,4.185-1.744,.741-.841,1.56-2.362,1.247-4.829-.542-4.289-1.518-8.195-2.839-11.428h2.407c.828,0,1.5-.671,1.5-1.5Zm-13.5,1.5v3H5.994c.36-1.069,.755-2.074,1.185-3h3.321Zm9.02,9h-6.02v-3h5.379c.24,.964,.454,1.965,.641,3Zm-9.02,0H4.48c.187-1.035,.401-2.036,.642-3h5.378v3Zm-5.934,5.272c-.446-.506-.622-1.295-.533-2.272h6.467v3H6.5c-.59,0-1.404-.126-1.934-.728Zm14.868,0c-.529,.602-1.344,.728-1.934,.728h-4v-3h6.466c.089,.978-.086,1.766-.533,2.272Zm-1.427-11.272h-4.506v-3h3.321c.43,.926,.825,1.931,1.185,3Z"/>
</svg>
