<?xml version="1.0" encoding="UTF-8"?>
<svg xmlns="http://www.w3.org/2000/svg" id="Layer_1" data-name="Layer 1" viewBox="0 0 24 24">
  <path d="M20.529,13.363c-.09-.038-.175-.08-.263-.12,.564-.781,1.088-1.71,1.528-2.895,.495-1.339,.08-2.857-1.032-3.778l-4.169-3.449c-.779-.645-1.791-.882-2.779-.657-.974,.225-1.769,.872-2.181,1.777-.099,.217-.203,.41-.307,.602-.258-.428-.489-.89-.693-1.382C9.763,1.358,7.759,0,5.526,0H2C.897,0,0,.897,0,2s.897,2,2,2h.318c.002,.006,.003,.012,.004,.018-.743,.089-1.322,.715-1.322,1.482,0,.828,.672,1.5,1.5,1.5h.94s.002,.004,.003,.006c-.801,.031-1.442,.685-1.442,1.494,0,.828,.672,1.5,1.5,1.5h1.763c-.996,.831-1.98,1.906-2.845,3.501-.78,1.437-.439,3.229,.811,4.263l4.232,3.502c.578,.479,1.297,.734,2.034,.734,.182,0,.365-.016,.547-.048,.94-.163,1.762-.732,2.254-1.562,.523-.882,1.097-1.534,1.704-2.075v2.184c0,.828,.672,1.5,1.5,1.5,.809,0,1.463-.641,1.494-1.442,.002,0,.004,.002,.006,.003v.94c0,.828,.672,1.5,1.5,1.5,.767,0,1.393-.578,1.482-1.322,.006,.002,.012,.003,.018,.004v.318c0,1.103,.897,2,2,2s2-.897,2-2v-3.525c0-2.23-1.363-4.236-3.471-5.111ZM4.131,3h1.395c1.014,0,1.93,.631,2.334,1.607,.396,.957,.88,1.832,1.443,2.613-.514,.397-1.07,.746-1.673,1.123-.274,.171-.556,.351-.84,.536-1.572-2.377-2.373-4.522-2.659-5.879Zm5.585,15.859c-.06,.102-.144,.13-.188,.138-.08,.011-.125-.018-.155-.042l-4.233-3.503c-.147-.121-.184-.341-.086-.521,1.182-2.179,2.564-3.042,4.166-4.042,1.757-1.098,3.75-2.342,5.143-5.405,.009-.019,.034-.075,.124-.095,.014-.003,.032-.006,.054-.006,.04,0,.092,.011,.14,.051l4.169,3.449c.13,.107,.184,.282,.131,.424-1.045,2.817-2.487,3.717-4.312,4.858-1.612,1.007-3.44,2.148-4.952,4.695Zm5.584-1.538c.314-.209,.633-.41,.956-.613,.587-.367,1.197-.758,1.802-1.217,.421,.231,.858,.449,1.319,.642,.985,.408,1.622,1.327,1.622,2.341v1.394c-1.322-.279-3.395-1.053-5.7-2.547Zm-1.3-4.822c0,1.105-.895,2-2,2s-2-.895-2-2,.895-2,2-2,2,.895,2,2Z"/>
</svg>
