<?xml version="1.0" encoding="UTF-8"?>
<svg xmlns="http://www.w3.org/2000/svg" id="Layer_1" data-name="Layer 1" viewBox="0 0 24 24">
  <path d="m23,.085c-.78-.275-1.638.133-1.914.915-.211.598-.78,1-1.415,1H4.5C2.231,2,.311,3.698.034,5.95l-.071.575c-.108.88.167,1.766.754,2.43.588.665,1.434,1.045,2.321,1.045h7.789c2.286,0,4.208-1.713,4.471-3.984l.117-1.016h1.986c-.447,3.57-2.427,8.345-6.246,12.19-1.549,1.57-1.533,4.107.037,5.656.754.745,1.751,1.154,2.81,1.154,1.068-.007,2.097-.43,2.847-1.19,5.365-5.434,5.353-15.4,5.207-18.508.843-.528,1.514-1.322,1.86-2.302.276-.781-.134-1.638-.915-1.914Zm-10.683,5.586c-.087.757-.728,1.328-1.49,1.328H3.038l-.097-.109.071-.575c.092-.75.732-1.316,1.489-1.316h7.894l-.078.672Zm2.396,15.03c-.188.19-.438.296-.705.298-.294-.022-.52-.101-.709-.289-.392-.387-.396-1.021-.013-1.411,2.523-2.54,4.275-5.336,5.42-7.994-.5,3.316-1.611,6.982-3.994,9.396Z"/>
</svg>
