<?xml version="1.0" encoding="UTF-8"?>
<svg xmlns="http://www.w3.org/2000/svg" id="Layer_1" data-name="Layer 1" viewBox="0 0 24 24">
  <path d="M12,0C5.383,0,0,5.383,0,12c-.008,6.666,5.481,12.019,12,12,6.617,0,12-5.383,12-12S18.617,0,12,0Zm9,12c0,1.941-.624,3.735-1.672,5.207l-5.653-5.653c1.081-.596,1.824-1.734,1.824-3.054,0-1.93-1.57-3.5-3.5-3.5-1.32,0-2.457,.743-3.054,1.824l-2.152-2.152c1.472-1.049,3.266-1.672,5.207-1.672,4.963,0,9,4.038,9,9Zm-12.89,8.103c.26-1.139,1-2.12,2.073-2.668,.738-.377,1.03-1.281,.653-2.018s-1.28-1.03-2.019-.653c-1.5,.767-2.633,2.017-3.261,3.505-1.579-1.622-2.556-3.833-2.556-6.27,0-1.941,.624-3.735,1.672-5.207l12.534,12.534c-1.472,1.049-3.266,1.672-5.207,1.672-1.395,0-2.711-.328-3.89-.897Z"/>
</svg>
