<?xml version="1.0" encoding="UTF-8"?>
<svg xmlns="http://www.w3.org/2000/svg" id="Layer_1" data-name="Layer 1" viewBox="0 0 24 24">
  <path d="M18,13c0,.552-.448,1-1,1s-1-.448-1-1,.448-1,1-1,1,.448,1,1Zm1-3.5c-.552,0-1,.448-1,1s.448,1,1,1,1-.448,1-1-.448-1-1-1Zm5-2v9c0,3.032-2.468,5.5-5.5,5.5H5.5c-3.032,0-5.5-2.468-5.5-5.5V7.5C0,4.468,2.468,2,5.5,2h13c3.032,0,5.5,2.468,5.5,5.5Zm-15.961-.733l2.486-1.767h-2.486v1.767Zm-3.719-1.457l2.119,1.506v-1.815h-.939c-.429,0-.826,.118-1.179,.309Zm-1.321,2.224h1.686l-1.469-1.044c-.138,.31-.218,.65-.218,1.011v.033Zm0,2.815l1.71-1.215h-1.71v1.215Zm18-2.848c0-1.379-1.121-2.5-2.5-2.5h-6.635c.005,.007,.013,.01,.018,.017,.256,.36,.171,.86-.188,1.116l-1.97,1.4h1.488c.441,0,.8,.358,.8,.8s-.358,.8-.8,.8h-1.511l1.994,1.417c.359,.256,.444,.756,.188,1.116-.258,.361-.76,.442-1.116,.188l-2.728-1.938v1.296c0,.441-.358,.8-.8,.8s-.8-.358-.8-.8v-1.344l-2.796,1.987c-.195,.134-.428,.19-.644,.105v4.541c0,1.379,1.121,2.5,2.5,2.5h13c1.379,0,2.5-1.121,2.5-2.5V7.5ZM7,15c-.552,0-1,.448-1,1s.448,1,1,1,1-.448,1-1-.448-1-1-1Zm8,0c-.552,0-1,.448-1,1s.448,1,1,1,1-.448,1-1-.448-1-1-1Zm.5-4.5c0-.552-.448-1-1-1s-1,.448-1,1,.448,1,1,1,1-.448,1-1Zm1.5-1.5c.552,0,1-.448,1-1s-.448-1-1-1-1,.448-1,1,.448,1,1,1Z"/>
</svg>
