<?xml version="1.0" encoding="UTF-8"?>
<svg xmlns="http://www.w3.org/2000/svg" id="Layer_1" data-name="Layer 1" viewBox="0 0 24 24">
  <path d="m11.482,12.521c-.012.828-.693,1.491-1.521,1.479s-1.491-.693-1.479-1.521.693-1.491,1.521-1.479,1.491.693,1.479,1.521Zm-2.482-5.521v2c0,.552.447,1,1,1s1-.448,1-1v-2c0-.552-.447-1-1-1s-1,.448-1,1Zm14.561,16.561c-.293.293-.677.439-1.061.439s-.768-.146-1.061-.439l-2.145-2.145c-.691.361-1.463.584-2.295.584-2.757,0-5-2.243-5-5s2.243-5,5-5,5,2.243,5,5c0,.831-.223,1.604-.584,2.295l2.145,2.145c.586.585.586,1.536,0,2.121Zm-6.561-4.561c1.103,0,2-.897,2-2s-.897-2-2-2-2,.897-2,2,.897,2,2,2Zm-8.5-4l-5.493.054L10.021,3.041l3.789,6.392c.424.714,1.347.947,2.055.526.713-.423.948-1.343.525-2.055l-3.789-6.393C12.046.575,11.067.018,9.98.018h-.019c-1.094.006-2.074.576-2.621,1.525L.408,13.556c-.535.928-.534,2.036.002,2.964.536.927,1.495,1.48,2.565,1.48h5.524c.828,0,1.5-.671,1.5-1.5s-.672-1.5-1.5-1.5Z"/>
</svg>
