<?xml version="1.0" encoding="UTF-8"?>
<svg xmlns="http://www.w3.org/2000/svg" id="Layer_1" data-name="Layer 1" viewBox="0 0 24 24">
  <path d="M23,17.719V7.508c0-2.512-1.695-4.632-4-5.287v-.713C19,.68,18.329,.008,17.5,.008s-1.5,.671-1.5,1.5v.5H7v-.5C7,.68,6.329,.008,5.5,.008s-1.5,.671-1.5,1.5v1.107c-1.778,.912-3,2.761-3,4.893v3c0,1.378,1.122,2.5,2.5,2.5h.5v1c0,.553,.448,1,1,1s1-.447,1-1v-1h.648c1.091,0,2.046-.667,2.376-1.658,.057-.17,.226-.342,.475-.342h3c.276,0,.5,.224,.5,.5v4.5H4.5C2.019,16.008,0,18.027,0,20.508v1C0,22.887,1.122,24.008,2.5,24.008H21.5c1.378,0,2.5-1.121,2.5-2.5v-1c0-1.059-.385-2.02-1-2.789ZM12.5,8.008h-3c-1.367,0-2.59,.788-3.164,2h-2.336v-2.5c0-1.378,1.122-2.5,2.5-2.5h11c1.378,0,2.5,1.122,2.5,2.5v8.551c-.166-.019-.329-.051-.5-.051h-3.5v-4.5c0-1.93-1.57-3.5-3.5-3.5Zm8.5,13H3v-.5c0-.827,.673-1.5,1.5-1.5h15c.827,0,1.5,.673,1.5,1.5v.5Z"/>
</svg>
