<?xml version="1.0" encoding="UTF-8"?>
<svg xmlns="http://www.w3.org/2000/svg" id="Layer_1" data-name="Layer 1" viewBox="0 0 24 24">
  <path d="m24,12c0,.829-.671,1.5-1.5,1.5h-11.853l1.921,1.946c.582.59.575,1.54-.014,2.122-.292.288-.673.432-1.054.432-.387,0-.774-.149-1.068-.446l-3.743-3.793c-.967-.968-.967-2.554.007-3.528l3.735-3.786c.582-.591,1.532-.595,2.122-.014.589.582.596,1.532.014,2.122l-1.921,1.946h11.853c.829,0,1.5.671,1.5,1.5Zm-2.268,4.223c-.705-.433-1.629-.214-2.064.491-1.653,2.684-4.52,4.287-7.668,4.287-4.962,0-9-4.038-9-9S7.038,3,12,3c3.148,0,6.015,1.603,7.668,4.287.435.706,1.359.925,2.064.491.706-.435.925-1.359.491-2.064C20.019,2.136,16.197,0,12,0,5.383,0,0,5.383,0,12s5.383,12,12,12c4.197,0,8.019-2.136,10.223-5.713.434-.705.215-1.629-.491-2.064Z"/>
</svg>
