<?xml version="1.0" encoding="UTF-8"?>
<svg xmlns="http://www.w3.org/2000/svg" id="Layer_1" data-name="Layer 1" viewBox="0 0 24 24">
  <path d="m8,8.5c0-.829.671-1.5,1.5-1.5h1.5v-1.5c0-.829.671-1.5,1.5-1.5s1.5.671,1.5,1.5v1.5h1.5c.829,0,1.5.671,1.5,1.5s-.671,1.5-1.5,1.5h-1.5v2.5c0,.829-.671,1.5-1.5,1.5s-1.5-.671-1.5-1.5v-2.5h-1.5c-.829,0-1.5-.671-1.5-1.5Zm15-3v13c0,3.033-2.467,5.5-5.5,5.5H5.5c-2.378,0-4.31-1.859-4.469-4.197l-.031-14.303C1,2.467,3.467,0,6.5,0h11c3.033,0,5.5,2.467,5.5,5.5Zm-19,0v9.776c.471-.168.971-.276,1.5-.276h14.5V5.5c0-1.378-1.122-2.5-2.5-2.5H6.5c-1.378,0-2.5,1.122-2.5,2.5Zm16,13v-.5H5.5c-.827,0-1.5.673-1.5,1.5s.673,1.5,1.5,1.5h12c1.378,0,2.5-1.122,2.5-2.5Z"/>
</svg>
