<?xml version="1.0" encoding="UTF-8"?>
<svg xmlns="http://www.w3.org/2000/svg" id="Layer_1" data-name="Layer 1" viewBox="0 0 24 24">
  <path d="M8.046,13.768c.54-1.606,2.106-2.768,3.954-2.768s3.414,1.162,3.954,2.768c.205,.609-.295,1.232-.96,1.232h-5.988c-.665,0-1.164-.623-.96-1.232Zm3.954-3.768c1.379,0,2.5-1.121,2.5-2.5s-1.121-2.5-2.5-2.5-2.5,1.121-2.5,2.5,1.121,2.5,2.5,2.5Zm11.262,3.716c-.488-.163-1.346-.327-2.217-.442,.002-.008,.003-.016,.004-.023,.969-.157,2.033-.609,2.502-1.783,.613-1.535,.476-3.395,.296-4.543-.089-.568-.726-.864-1.219-.569-.39,.233-.864,.572-1.35,.995,.575-1.05,.996-2.547,.413-3.721-.62-1.247-1.787-2.818-2.733-3.435-.725-.474-1.702-.04-1.818,.818-.203,1.5-.195,4.389,1.028,6.858,.695,4.503-.721,7.4-2.08,9.062-1.236,1.509-2.819,2.451-4.088,2.799-1.269-.348-2.852-1.29-4.087-2.799-1.36-1.662-2.776-4.558-2.081-9.061,1.224-2.469,1.232-5.359,1.029-6.86-.116-.858-1.093-1.292-1.818-.818-.946,.617-2.113,2.188-2.733,3.435-.626,1.259-.086,2.783,.551,3.834-.536-.484-1.061-.851-1.488-1.107-.493-.295-1.13,0-1.219,.569-.18,1.148-.317,3.008,.296,4.543,.469,1.173,1.533,1.625,2.502,1.782,.002,.008,.003,.016,.004,.024-.871,.115-1.728,.279-2.216,.442-.726,.242-.98,1.144-.472,1.717,.779,.875,2.63,1.987,4.027,2.409-.806,.393-1.494,.805-1.912,1.154-.539,.451-.5,1.298,.084,1.69,.797,.534,2.483,1.146,4.066,1.246-.146,.19-.275,.374-.367,.543-.335,.612,.06,1.371,.754,1.443,1.243,.128,3.432,.155,5.084-.489,1.661,.643,3.876,.617,5.119,.489,.694-.072,1.089-.831,.754-1.443-.093-.169-.224-.354-.373-.545,1.574-.106,3.241-.714,4.033-1.244,.584-.391,.624-1.239,.084-1.69-.418-.349-1.106-.761-1.912-1.154,1.397-.422,3.248-1.535,4.027-2.409,.508-.573,.254-1.475-.472-1.717Z"/>
</svg>
