<?xml version="1.0" encoding="UTF-8"?>
<svg xmlns="http://www.w3.org/2000/svg" id="Layer_1" data-name="Layer 1" viewBox="0 0 24 24">
  <path d="m24,7.5v3c0,.829-.672,1.5-1.5,1.5s-1.5-.671-1.5-1.5v-1.5H3v9.5c0,1.378,1.121,2.5,2.5,2.5h5c.828,0,1.5.671,1.5,1.5s-.672,1.5-1.5,1.5h-5c-3.032,0-5.5-2.467-5.5-5.5V7.5C0,4.467,2.468,2,5.5,2h.5v-.5c0-.829.672-1.5,1.5-1.5s1.5.671,1.5,1.5v.5h6v-.5c0-.829.672-1.5,1.5-1.5s1.5.671,1.5,1.5v.5h.5c3.032,0,5.5,2.467,5.5,5.5Zm-4.689,9.689l1.232-1.232.25.25c.195.195.451.293.707.293s.512-.098.707-.293c.391-.391.391-1.023,0-1.414l-4-4c-.391-.391-1.023-.391-1.414,0s-.391,1.023,0,1.414l.25.25-4.586,4.586-.25-.25c-.391-.391-1.023-.391-1.414,0s-.391,1.023,0,1.414l4,4c.195.195.451.293.707.293s.512-.098.707-.293c.391-.391.391-1.023,0-1.414l-.25-.25,1.232-1.232,4.25,4.25c.293.293.677.439,1.061.439s.768-.146,1.061-.439c.586-.585.586-1.536,0-2.121l-4.25-4.25Z"/>
</svg>
