<?xml version="1.0" encoding="UTF-8"?>
<svg xmlns="http://www.w3.org/2000/svg" id="Layer_1" data-name="Layer 1" viewBox="0 0 24 24">
  <path d="m5,10.5v3c0,1.381,1.119,2.5,2.5,2.5s2.5-1.119,2.5-2.5v-3c0-1.381-1.119-2.5-2.5-2.5s-2.5,1.119-2.5,2.5Zm3.4,0v3c0,.496-.404.9-.9.9s-.9-.404-.9-.9v-3c0-.496.404-.9.9-.9s.9.404.9.9Zm2.6,0v3c0,1.381,1.119,2.5,2.5,2.5s2.5-1.119,2.5-2.5v-3c0-1.381-1.119-2.5-2.5-2.5s-2.5,1.119-2.5,2.5Zm3.4,0v3c0,.496-.404.9-.9.9s-.9-.404-.9-.9v-3c0-.496.404-.9.9-.9s.9.404.9.9Zm9.6,4.231c0,.69-.56,1.25-1.25,1.25s-1.25-.56-1.25-1.25.56-1.25,1.25-1.25,1.25.56,1.25,1.25Zm-5.75-4.25c-.69,0-1.25-.56-1.25-1.25s.56-1.25,1.25-1.25,1.25.56,1.25,1.25-.56,1.25-1.25,1.25Zm-.576,4.263l4.178-6.4c.148-.226.4-.363.67-.363.635,0,1.017.705.67,1.237l-4.178,6.4c-.148.226-.4.363-.67.363-.635,0-1.017-.705-.67-1.237Zm-14.474,1.257c-.442,0-.8-.358-.8-.8v-4.532l-.36.372c-.307.317-.814.325-1.131.018-.317-.307-.326-.814-.018-1.131l1.63-1.682c.162-.167.385-.262.618-.262.475,0,.861.385.861.861v6.357c0,.442-.358.8-.8.8Zm17.213,2.451c.58.592.569,1.541-.022,2.121-2.258,2.21-5.238,3.428-8.391,3.428s-6.133-1.218-8.391-3.428c-.592-.58-.602-1.529-.022-2.121.58-.593,1.529-.602,2.121-.023,1.694,1.659,3.929,2.572,6.292,2.572s4.598-.913,6.292-2.572c.592-.579,1.542-.57,2.121.023ZM3.586,5.549c-.58-.592-.569-1.541.022-2.121C5.867,1.218,8.847,0,12,0s6.133,1.218,8.391,3.428c.592.58.602,1.529.022,2.121-.293.301-.683.451-1.072.451-.378,0-.757-.143-1.049-.428-1.694-1.659-3.929-2.572-6.292-2.572s-4.598.913-6.292,2.572c-.593.578-1.542.569-2.121-.023Z"/>
</svg>
