<?xml version="1.0" encoding="UTF-8"?>
<svg xmlns="http://www.w3.org/2000/svg" id="Layer_1" data-name="Layer 1" viewBox="0 0 24 24">
  <path d="M0,16.5V8.5c0-.828,.671-1.5,1.5-1.5h.846L8.401,.479c.563-.607,1.513-.643,2.12-.079,.607,.564,.643,1.514,.079,2.12l-5.599,6.03v7.95c0,.828-.671,1.5-1.5,1.5H1.5c-.829,0-1.5-.672-1.5-1.5Zm21.748,4.3c-.539,.312-1.266,.236-1.806-.147-1.16-.826-2.722-.828-3.883,0-.625,.443-1.496,.442-2.117,0-1.162-.828-2.723-.827-3.884,0-.623,.443-1.495,.442-2.117,0-1.161-.828-2.722-.827-3.883,0-.543,.385-1.27,.46-1.806,.148-.716-.413-1.634-.172-2.05,.545s-.172,1.635,.544,2.051c1.53,.888,3.571,.753,5.05-.3,.128-.09,.275-.092,.406,0,1.639,1.164,3.955,1.165,5.594,0,.129-.091,.276-.091,.406,0,1.64,1.166,3.952,1.167,5.594,0,.129-.092,.275-.091,.406,0,.819,.583,1.812,.903,2.796,.903,.791,0,1.57-.209,2.252-.604,.717-.416,.961-1.333,.546-2.05-.416-.718-1.334-.959-2.05-.546Zm.752-13.8h-.846L15.6,.479c-.565-.607-1.513-.641-2.12-.079-.607,.564-.643,1.514-.079,2.12l5.6,6.03v7.949c0,.828,.672,1.5,1.5,1.5h2c.828,0,1.5-.672,1.5-1.5V8.5c0-.828-.672-1.5-1.5-1.5Z"/>
</svg>
