<?xml version="1.0" encoding="UTF-8"?>
<svg xmlns="http://www.w3.org/2000/svg" id="Layer_1" data-name="Layer 1" viewBox="0 0 24 24">
  <path d="m24,11.986c0-1.516-1.128-2.756-2.589-2.958l-2.021-3.233c.377-.502.609-1.119.609-1.795,0-1.657-1.343-3-3-3-1.108,0-2.064.607-2.584,1.5h-4.832c-.52-.893-1.476-1.5-2.584-1.5-1.657,0-3,1.343-3,3,0,.676.232,1.293.609,1.795l-2.021,3.233c-1.46.202-2.589,1.443-2.589,2.958s1.119,2.746,2.57,2.957l2.039,3.263c-.377.502-.609,1.119-.609,1.795,0,1.657,1.343,3,3,3,1.108,0,2.064-.607,2.584-1.5h4.832c.52.893,1.476,1.5,2.584,1.5,1.657,0,3-1.343,3-3,0-.676-.232-1.293-.609-1.795l2.039-3.263c1.451-.21,2.57-1.447,2.57-2.957Zm-9.584,6.514h-4.832c-.452-.777-1.236-1.326-2.164-1.458l-2.034-3.255c.38-.503.614-1.122.614-1.801,0-.673-.23-1.288-.605-1.789l2.025-3.239c.927-.131,1.712-.681,2.164-1.458h4.832c.452.777,1.236,1.326,2.164,1.458l2.025,3.239c-.375.501-.605,1.116-.605,1.789,0,.679.234,1.298.614,1.801l-2.034,3.255c-.927.131-1.712.681-2.164,1.458Zm1.916-8.996c-.275-.478-.886-.644-1.365-.367l-.568.327c-.391-.37-.87-.642-1.399-.801v-.663c0-.552-.447-1-1-1s-1,.448-1,1v.663c-.529.159-1.007.431-1.399.801l-.568-.327c-.479-.277-1.091-.111-1.365.367-.276.479-.111,1.09.367,1.366l.567.327c-.061.259-.102.526-.102.804s.041.544.102.803l-.568.328c-.479.276-.643.888-.366,1.366.186.32.521.5.867.5.17,0,.342-.043.499-.134l.567-.328c.391.37.87.642,1.398.801v.663c0,.553.447,1,1,1s1-.447,1-1v-.663c.529-.159,1.007-.431,1.398-.801l.568.328c.157.091.329.134.498.134.346,0,.683-.18.867-.501.276-.479.111-1.09-.367-1.365l-.567-.327c.061-.259.102-.526.102-.804s-.041-.544-.102-.804l.567-.327c.479-.275.644-.887.367-1.366Zm-4.332,3.996c-.827,0-1.5-.673-1.5-1.5s.673-1.5,1.5-1.5,1.5.673,1.5,1.5-.673,1.5-1.5,1.5Z"/>
</svg>
