<?xml version="1.0" encoding="UTF-8"?>
<svg xmlns="http://www.w3.org/2000/svg" id="Layer_1" data-name="Layer 1" viewBox="0 0 24 24">
  <path d="M24.043,22.493c0,.828-.671,1.5-1.5,1.5H1.543c-.829,0-1.5-.672-1.5-1.5s.671-1.5,1.5-1.5H22.543c.829,0,1.5,.672,1.5,1.5Zm-12.045-3.493h.009c6.001-.003,10.116-3.844,11.607-5.495,.555-.615,.507-1.563-.108-2.118-.616-.557-1.565-.507-2.119,.108-1.223,1.354-4.584,4.504-9.385,4.505-4.809,0-8.167-3.15-9.388-4.504-.554-.615-1.503-.664-2.119-.11-.615,.555-.665,1.503-.11,2.118,1.489,1.652,5.601,5.493,11.612,5.496Zm-.614-5.755c.34,.34,.892,.34,1.232,0l2.757-2.757c.549-.549,.16-1.488-.616-1.488h-1.257v-3.5c0-.829-.671-1.5-1.5-1.5s-1.5,.671-1.5,1.5v3.5h-1.257c-.776,0-1.165,.939-.616,1.488l2.757,2.757ZM1.243,5h1.257v3.5c0,.829,.671,1.5,1.5,1.5s1.5-.671,1.5-1.5v-3.5h1.257c.776,0,1.165-.939,.616-1.488L4.616,.755c-.34-.34-.892-.34-1.232,0L.627,3.512c-.549,.549-.16,1.488,.616,1.488Zm16,0h1.257v3.5c0,.829,.671,1.5,1.5,1.5s1.5-.671,1.5-1.5v-3.5h1.257c.776,0,1.165-.939,.616-1.488l-2.757-2.757c-.34-.34-.892-.34-1.232,0l-2.757,2.757c-.549,.549-.16,1.488,.616,1.488Z"/>
</svg>
