<?xml version="1.0" encoding="UTF-8"?>
<svg xmlns="http://www.w3.org/2000/svg" id="Layer_1" data-name="Layer 1" viewBox="0 0 24 24">
  <path d="m23.853,14.501l-.596-2.001c-.439-1.472-1.818-2.5-3.354-2.5H4c-1.537,0-2.916,1.028-3.354,2.5L.05,14.5c-.319,1.069-.119,2.196.548,3.092.667.895,1.69,1.408,2.806,1.408h7.096v2h-3c-.829,0-1.5.672-1.5,1.5s.671,1.5,1.5,1.5h9c.828,0,1.5-.672,1.5-1.5s-.672-1.5-1.5-1.5h-3v-2h6.999c1.116,0,2.14-.514,2.807-1.409.667-.895.866-2.021.547-3.09Zm-14.222,1.499l.25-3h4.239l.25,3h-4.739Zm-6.627-.201c-.056-.075-.141-.232-.078-.441l.596-2.001c.063-.213.256-.356.479-.356h2.87l-.25,3h-3.216c-.218,0-.345-.126-.401-.201Zm17.896,0c-.056.075-.183.201-.4.201h-3.118l-.25-3h2.772c.223,0,.416.144.479.356l.596,2.001c.062.209-.022.366-.078.441ZM5,6.5c0-.828.671-1.5,1.5-1.5h.73c.179-.567.464-1.084.819-1.544l-.773-1.088c-.479-.675-.321-1.611.355-2.091.675-.48,1.612-.321,2.091.354l.784,1.104c.473-.148.972-.236,1.493-.236s1.021.087,1.493.236l.783-1.104c.48-.677,1.417-.833,2.092-.355.676.479.835,1.416.355,2.092l-.773,1.089c.355.46.641.977.819,1.543h.729c.828,0,1.5.672,1.5,1.5s-.672,1.5-1.5,1.5h-2c-.828,0-1.5-.672-1.5-1.5,0-1.103-.897-2-2-2s-2,.897-2,2c0,.828-.671,1.5-1.5,1.5h-2c-.829,0-1.5-.672-1.5-1.5Z"/>
</svg>
