<?xml version="1.0" encoding="UTF-8"?>
<svg xmlns="http://www.w3.org/2000/svg" id="Layer_1" data-name="Layer 1" viewBox="0 0 24 24">
  <path d="m22.5,0c-.829,0-1.5.671-1.5,1.5v5.5c0,1.391-.822,2.585-2,3.149V1.5c0-.829-.671-1.5-1.5-1.5s-1.5.671-1.5,1.5v8.649c-1.178-.564-2-1.758-2-3.149V1.5c0-.829-.671-1.5-1.5-1.5s-1.5.671-1.5,1.5v5.5c0,3.067,2.138,5.638,5,6.318v9.182c0,.829.671,1.5,1.5,1.5s1.5-.671,1.5-1.5v-9.182c2.862-.68,5-3.251,5-6.318V1.5c0-.829-.671-1.5-1.5-1.5Z"/>
  <path d="m12.859,20.936l-.178.017c-.225.022-.45.047-.681.047-4.962,0-9-4.038-9-9,0-3.656,2.187-6.921,5.572-8.318.766-.316,1.13-1.193.814-1.959-.315-.765-1.194-1.128-1.959-.814C2.916,2.771,0,7.124,0,12c0,6.617,5.383,12,12,12,.331,0,.654-.029.976-.062l.165-.016c.825-.078,1.43-.81,1.352-1.634-.078-.825-.81-1.437-1.634-1.352Z"/>
  <path d="m9.028,7.148c-.603-.567-1.553-.539-2.12.064-1.23,1.307-1.908,3.007-1.908,4.788,0,3.86,3.14,7,7,7h.5c.828,0,1.5-.672,1.5-1.5s-.672-1.5-1.5-1.5h-.5c-2.206,0-4-1.794-4-4,0-1.013.388-1.983,1.092-2.732.568-.603.539-1.553-.064-2.12Z"/>
</svg>
