<?xml version="1.0" encoding="UTF-8"?>
<svg xmlns="http://www.w3.org/2000/svg" id="Layer_1" data-name="Layer 1" viewBox="0 0 24 24">
  <path d="M5.5,14.538c0-.828,.672-1.5,1.5-1.5s1.5,.672,1.5,1.5-.672,1.5-1.5,1.5-1.5-.672-1.5-1.5Zm2.5,4c0,.828,.672,1.5,1.5,1.5s1.5-.672,1.5-1.5-.672-1.5-1.5-1.5-1.5,.672-1.5,1.5Zm5,0c0,.828,.672,1.5,1.5,1.5s1.5-.672,1.5-1.5-.672-1.5-1.5-1.5-1.5,.672-1.5,1.5Zm-1-2.5c.828,0,1.5-.672,1.5-1.5s-.672-1.5-1.5-1.5-1.5,.672-1.5,1.5,.672,1.5,1.5,1.5Zm5,0c.828,0,1.5-.672,1.5-1.5s-.672-1.5-1.5-1.5-1.5,.672-1.5,1.5,.672,1.5,1.5,1.5Zm7-8v10.5c0,3.032-2.467,5.5-5.5,5.5H5.5c-3.033,0-5.5-2.468-5.5-5.5V8.038C0,5.277,2.239,3.038,5,3.038h1.366C6.885,2.303,8.742,.039,12,.039s5.115,2.264,5.634,3h1.366c2.761,0,5,2.239,5,5Zm-6-1c0,.828,.672,1.5,1.5,1.5s1.5-.672,1.5-1.5-.672-1.5-1.5-1.5-1.5,.672-1.5,1.5Zm-10,0c0,.828,.672,1.5,1.5,1.5s1.5-.672,1.5-1.5-.672-1.5-1.5-1.5-1.5,.672-1.5,1.5Zm5,0c0,.828,.672,1.5,1.5,1.5s1.5-.672,1.5-1.5-.672-1.5-1.5-1.5-1.5,.672-1.5,1.5Zm-10,0c0,.828,.672,1.5,1.5,1.5s1.5-.672,1.5-1.5-.672-1.5-1.5-1.5-1.5,.672-1.5,1.5Zm18,4H3v7.5c0,1.379,1.122,2.5,2.5,2.5h13c1.378,0,2.5-1.121,2.5-2.5v-7.5Z"/>
</svg>
