<?xml version="1.0" encoding="UTF-8"?>
<svg xmlns="http://www.w3.org/2000/svg" id="Layer_1" data-name="Layer 1" viewBox="0 0 24 24">
  <path d="m8.579,12.035c-1.391-1.335-3.77-1.334-5.159,0l-1.653,1.852c-1.14,1.119-1.767,2.608-1.767,4.195s.627,3.075,1.767,4.194c1.132,1.111,2.635,1.724,4.233,1.724s3.101-.612,4.232-1.724c1.14-1.119,1.767-2.608,1.767-4.194s-.627-3.076-1.698-4.123l-1.722-1.924Zm-.448,8.101h0c-1.134,1.115-3.126,1.114-4.262,0-.56-.55-.869-1.28-.869-2.054s.309-1.504.937-2.126l1.593-1.786c.172-.147.366-.17.47-.17s.297.023.47.171l1.661,1.857c.56.55.869,1.28.869,2.054s-.309,1.503-.869,2.054Zm14.308-12.471l-1.513-1.664c-1.302-1.292-3.496-1.347-4.905.057l-1.417,1.562c-2.132,2.162-2.132,5.679,0,7.841,1.04,1.054,2.423,1.634,3.896,1.634s2.856-.581,3.896-1.634c2.132-2.162,2.132-5.679.042-7.796Zm-2.178,5.689c-.942.955-2.578.955-3.521,0-.986-1-.986-2.627.042-3.673l1.406-1.55c.109-.108.23-.131.312-.131s.203.022.258.074l1.502,1.652c.986,1,.986,2.627,0,3.628ZM11.975,2.025c1.367,1.367,1.367,3.583,0,4.95-.683.683-1.579,1.025-2.475,1.025-.896,0-1.791-.342-2.475-1.025-1.367-1.367-1.367-3.583,0-4.95l1.345-1.315c.628-.614,1.632-.614,2.26,0l1.345,1.315Z"/>
</svg>
