<?xml version="1.0" encoding="UTF-8"?>
<svg xmlns="http://www.w3.org/2000/svg" id="Layer_1" data-name="Layer 1" viewBox="0 0 24 24">
  <path d="m8,10.5v12c0,.829-.672,1.5-1.5,1.5s-1.5-.671-1.5-1.5v-12c0-.829.672-1.5,1.5-1.5s1.5.671,1.5,1.5Zm3.5-4.5c-.828,0-1.5.671-1.5,1.5v15c0,.829.672,1.5,1.5,1.5s1.5-.671,1.5-1.5V7.5c0-.829-.672-1.5-1.5-1.5ZM1.5,12c-.828,0-1.5.671-1.5,1.5v9c0,.829.672,1.5,1.5,1.5s1.5-.671,1.5-1.5v-9c0-.829-.672-1.5-1.5-1.5Zm21.662,8.057c-.519-.184-1.093.089-1.275.609-.282.797-1.041,1.333-1.887,1.333-.737,0-1.375-.405-1.722-1h.722c.553,0,1-.448,1-1s-.447-1-1-1h-1v-1h1c.553,0,1-.448,1-1s-.447-1-1-1h-.722c.347-.595.985-1,1.722-1,.846,0,1.604.536,1.887,1.333.183.521.757.796,1.275.609.521-.184.794-.756.609-1.276-.563-1.595-2.08-2.667-3.771-2.667-1.859,0-3.411,1.28-3.858,3h-.142c-.553,0-1,.448-1,1s.447,1,1,1v1c-.553,0-1,.448-1,1s.447,1,1,1h.142c.447,1.72,1.999,3,3.858,3,1.691,0,3.208-1.072,3.771-2.667.185-.521-.088-1.092-.609-1.276Zm-1.662-9.057c.828,0,1.5-.671,1.5-1.5V1.5c0-.829-.672-1.5-1.5-1.5s-1.5.671-1.5,1.5v8c0,.829.672,1.5,1.5,1.5Zm-5,1c.828,0,1.5-.671,1.5-1.5v-6c0-.829-.672-1.5-1.5-1.5s-1.5.671-1.5,1.5v6c0,.829.672,1.5,1.5,1.5Z"/>
</svg>
