<?xml version="1.0" encoding="UTF-8"?>
<svg xmlns="http://www.w3.org/2000/svg" id="Layer_1" data-name="Layer 1" viewBox="0 0 24 24">
  <path d="M20.166,12.091c-1.036-.31-1.875-.512-2.616-.689-1.68-.403-2.49-.597-3.55-1.542V3.5c.073-2.237-2.16-3.924-4.279-3.418-.091,.021-4.53,1.918-4.53,1.918h-1.691C1.57,2,0,3.57,0,5.5V22c0,1.105,.895,2,2,2H7c1.105,0,2-.895,2-2v-.812l2,.333v.979c0,.828,.671,1.5,1.5,1.5s1.5-.672,1.5-1.5v-.541c.166,.011,.33,.041,.497,.041h1.503v.5c0,.828,.671,1.5,1.5,1.5s1.5-.672,1.5-1.5v-.5h2v.5c0,.828,.671,1.5,1.5,1.5s1.5-.672,1.5-1.5v-4.5c0-2.427-1.332-5.24-3.834-5.909Zm-6.409,6.847l-5.019-.836c-.406-.068-.822-.103-1.235-.103H3V8h2c1.105,0,2-.895,2-2v-1.512l3.464-1.488c.287,.012,.531,.107,.536,.5v6.132l-1.247,.716c-.718,.413-.966,1.329-.554,2.048,.415,.725,1.342,.962,2.048,.554l1.056-.606c.379,.311,.747,.573,1.112,.783l-.491,.86c-.411,.719-.161,1.636,.558,2.047,.706,.406,1.633,.167,2.046-.559l.741-1.297c.19,.047,.381,.094,.581,.142,.703,.169,1.499,.359,2.499,.658,1.02,.272,1.651,1.781,1.651,3.022v1h-6.503c-.248,0-.496-.021-.74-.062Z"/>
</svg>
