<?xml version="1.0" encoding="UTF-8"?>
<svg xmlns="http://www.w3.org/2000/svg" id="Layer_1" data-name="Layer 1" viewBox="0 0 24 24">
  <path d="M5.361,13h1.639v1.5c0,1.93,1.57,3.5,3.5,3.5h3c1.93,0,3.5-1.57,3.5-3.5v-1.5h1.646c1.363-.006,2.578-.825,3.097-2.085,.519-1.26,.23-2.697-.731-3.658L15.04,1.259s0-.001-.002-.002c-1.675-1.672-4.399-1.673-6.076,.003L2.991,7.255c-.965,.964-1.253,2.402-.734,3.663,.519,1.26,1.735,2.078,3.104,2.083Zm-.248-3.625L11.084,3.38c.505-.505,1.327-.506,1.833,0l5.972,5.998c.114,.114,.142,.248,.08,.397s-.175,.225-.329,.226h-3.14c-.828,0-1.5,.671-1.5,1.5v3c0,.271-.229,.5-.5,.5h-3c-.276,0-.5-.225-.5-.5v-3c0-.829-.671-1.5-1.5-1.5h-3.133c-.162,0-.275-.076-.336-.225-.062-.149-.035-.283,.083-.4Zm18.887,7.125v2.5c0,2.757-2.243,5-5,5H5c-2.757,0-5-2.243-5-5v-2.5c0-.828,.671-1.5,1.5-1.5s1.5,.672,1.5,1.5v2.5c0,1.103,.897,2,2,2h14c1.103,0,2-.897,2-2v-2.5c0-.828,.672-1.5,1.5-1.5s1.5,.672,1.5,1.5Z"/>
</svg>
