<?xml version="1.0" encoding="UTF-8"?>
<svg xmlns="http://www.w3.org/2000/svg" id="Layer_1" data-name="Layer 1" viewBox="0 0 24 24">
  <path d="M16.403,11.807v5.601s.578,0,1.333,0c.442,0,.8,.358,.8,.8s-.358,.8-.8,.8h-2.133c-.442,0-.8-.358-.8-.8v-6.401c0-.442,.358-.8,.8-.8h0c.442,0,.8,.358,.8,.8Zm2.034,9.011c-.297,.121-.612,.182-.937,.182H7.5c-1.379,0-2.5-1.121-2.5-2.5V5.5c0-1.378,1.121-2.5,2.5-2.5h5.5V7c0,1.105,.895,2,2,2l5.5-.007c1,0,1.561-.922,1.425-1.738-.188-1.139-.72-2.171-1.536-2.986l-2.656-2.657c-1.039-1.039-2.42-1.611-3.89-1.611H7.5C4.468,0,2,2.467,2,5.5v13c0,3.032,2.468,5.5,5.5,5.5h10c.713,0,1.406-.135,2.063-.4,.768-.312,1.138-1.186,.827-1.954-.311-.767-1.185-1.136-1.954-.827Zm3.85-6.466c-.56-.227-1.084-.467-1.366-.595-.099-.045-.428-.173-.433-.615-.002-.131,.103-.441,.515-.577,.427-.138,.832-.046,1.137,.088,.304,.133,.66,.038,.863-.225,.278-.36,.165-.887-.24-1.093-.549-.279-1.313-.48-2.152-.203-.796,.263-1.359,.951-1.471,1.796-.106,.818,.23,1.565,.921,2.049,.003,0,.838,.409,1.753,.78,.214,.086,.905,.409,.817,.959-.065,.391-.492,.795-1.096,.795-.381,0-.754-.107-1.07-.298-.285-.172-.651-.125-.886,.11l-.002,.002c-.329,.328-.269,.872,.118,1.129,.539,.357,1.176,.553,1.84,.553,1.221,0,2.245-.853,2.436-2.028,.143-.882-.224-2.036-1.685-2.627Zm-9.295-3.345c-.307,0-.589,.174-.726,.449l-.864,1.733-.864-1.733c-.137-.275-.418-.449-.726-.449-.602,0-.994,.634-.726,1.173l1.409,2.827-1.409,2.827c-.269,.539,.123,1.173,.726,1.173h0c.307,0,.589-.174,.726-.449l.864-1.733,.864,1.733c.137,.275,.418,.449,.726,.449,.602,0,.994-.634,.726-1.173l-1.409-2.827,1.409-2.827c.269-.539-.123-1.173-.726-1.173Z"/>
</svg>
