<?xml version="1.0" encoding="UTF-8"?>
<svg xmlns="http://www.w3.org/2000/svg" id="Layer_1" data-name="Layer 1" viewBox="0 0 24 24">
  <path d="m21.721,21.628c.481.675.325,1.611-.349,2.093-.265.188-.569.279-.871.279-.468,0-.929-.218-1.222-.628l-1.279-1.791-1.279,1.791c-.293.409-.754.628-1.222.628-.302,0-.606-.091-.871-.279-.674-.481-.83-1.418-.349-2.093l1.877-2.628-1.877-2.628c-.481-.675-.325-1.611.349-2.093.674-.481,1.611-.327,2.093.349l1.279,1.791,1.279-1.791c.481-.673,1.417-.829,2.093-.349.674.481.83,1.418.349,2.093l-1.877,2.628,1.877,2.628Zm-9.721-11.628h-.699l.689-4.823c.177-1.241,1.257-2.177,2.51-2.177.829,0,1.5-.672,1.5-1.5s-.671-1.5-1.5-1.5c-2.737,0-5.093,2.043-5.48,4.753l-.749,5.247h-1.271c-.829,0-1.5.672-1.5,1.5s.671,1.5,1.5,1.5h.842l-.832,5.823c-.177,1.241-1.257,2.177-2.51,2.177-.829,0-1.5.672-1.5,1.5s.671,1.5,1.5,1.5c2.737,0,5.093-2.043,5.48-4.753l.892-6.247h1.128c.829,0,1.5-.672,1.5-1.5s-.671-1.5-1.5-1.5Z"/>
</svg>
