<?xml version="1.0" encoding="UTF-8"?>
<svg xmlns="http://www.w3.org/2000/svg" id="Layer_1" data-name="Layer 1" viewBox="0 0 24 24">
  <path d="m12,11c-1.381,0-2.5-1.119-2.5-2.5s1.119-2.5,2.5-2.5,2.5,1.119,2.5,2.5-1.119,2.5-2.5,2.5Zm5,5v1c0,1.474-.81,2.75-2,3.444v2.056c0,.828-.672,1.5-1.5,1.5h-3c-.828,0-1.5-.672-1.5-1.5v-2.056c-1.19-.694-2-1.97-2-3.444v-1c0-2.206,1.794-4,4-4h2c2.206,0,4,1.794,4,4Zm-7,1c0,.552.448,1,1,1h2c.552,0,1-.448,1-1v-1c0-.552-.448-1-1-1h-2c-.552,0-1,.448-1,1v1Zm11.576-11.673L15.076.941c-1.869-1.262-4.283-1.262-6.152,0L2.424,5.327c-1.518,1.024-2.424,2.729-2.424,4.56v12.614c0,.828.672,1.5,1.5,1.5s1.5-.672,1.5-1.5v-12.614c0-.833.412-1.607,1.102-2.073l6.5-4.386c.85-.573,1.947-.573,2.797,0l6.5,4.387c.689.465,1.102,1.24,1.102,2.072v12.614c0,.828.672,1.5,1.5,1.5s1.5-.672,1.5-1.5v-12.614c0-1.831-.906-3.536-2.424-4.559Z"/>
</svg>
