<?xml version="1.0" encoding="UTF-8"?>
<svg xmlns="http://www.w3.org/2000/svg" id="Layer_1" data-name="Layer 1" viewBox="0 0 24 24">
  <path d="m22,5.653L15.076.94c-1.869-1.261-4.284-1.26-6.152,0L2.424,5.327c-1.518,1.024-2.424,2.728-2.424,4.559v8.614c0,3.033,2.467,5.5,5.5,5.5h13c3.032,0,5.5-2.467,5.5-5.5v-8.614c0-1.651-.742-3.195-2-4.234Zm-1,12.847c0,1.378-1.121,2.5-2.5,2.5h-2.616l-3.761-3.986,2.087-1.953c.51-.509.79-1.187.79-1.907s-.28-1.398-.76-1.875l-2.649-2.808c-.568-.602-1.517-.63-2.12-.062-.603.568-.63,1.518-.062,2.12l2.464,2.61-2.087,1.954c-1.052,1.051-1.052,2.762-.03,3.782l2.005,2.125h-6.26c-1.378,0-2.5-1.122-2.5-2.5v-8.614c0-.832.412-1.607,1.102-2.073l6.5-4.386c.425-.287.912-.43,1.398-.43s.974.144,1.398.43l6.5,4.387c.689.465,1.102,1.24,1.102,2.072v8.614Z"/>
</svg>
