<?xml version="1.0" encoding="UTF-8"?>
<svg xmlns="http://www.w3.org/2000/svg" id="Layer_1" data-name="Layer 1" viewBox="0 0 24 24">
  <path d="m22.5,21h-.5v-6.482c.309-.61.5-1.289.5-2.018,0-2.481-2.019-4.5-4.5-4.5-.024,0-.046.007-.069.007l-1.798-3.597c.227-.422.367-.898.367-1.41,0-1.657-1.343-3-3-3s-3,1.343-3,3c0,.015.004.029.004.044l-3.548,2.956h-2.214c-1.202,0-2.332.468-3.182,1.318l-1.121,1.121c-.586.585-.586,1.536,0,2.121.586.586,1.535.586,2.121,0l1.121-1.121c.284-.283.66-.439,1.061-.439h1.257v1.257c0,.401-.156.777-.439,1.061l-1.121,1.121c-.586.585-.586,1.536,0,2.121.293.293.677.439,1.061.439s.768-.146,1.061-.439l1.121-1.121c.85-.85,1.318-1.98,1.318-3.182v-2.055l3.086-2.572c.423.228.9.369,1.414.369.024,0,.046-.006.069-.007l1.542,3.085c-.977.826-1.612,2.045-1.612,3.422,0,.729.191,1.409.5,2.018v6.482h-.5c-.829,0-1.5.671-1.5,1.5s.671,1.5,1.5,1.5h9c.829,0,1.5-.671,1.5-1.5s-.671-1.5-1.5-1.5Zm-3-8.5c0,.827-.673,1.5-1.5,1.5s-1.5-.673-1.5-1.5.673-1.5,1.5-1.5,1.5.673,1.5,1.5Zm-2.5,4.379c.323.074.655.121,1,.121s.677-.047,1-.121v4.121h-2v-4.121Z"/>
</svg>
