<?xml version="1.0" encoding="UTF-8"?>
<svg xmlns="http://www.w3.org/2000/svg" id="Layer_1" data-name="Layer 1" viewBox="0 0 24 24">
  <path d="m14.613,9.472c.246-.435.387-.937.387-1.472,0-1.654-1.346-3-3-3h-1c-1.103,0-2,.897-2,2v6c0,1.103.897,2,2,2h2c1.654,0,3-1.346,3-3,0-1.061-.554-1.995-1.387-2.528Zm-3.613-2.472h1c.552,0,1,.449,1,1s-.448,1-1,1h-1v-2Zm2,6h-2v-2h2c.552,0,1,.449,1,1s-.448,1-1,1Zm10.58,5.58l-3.178-3.178c1.006-1.56,1.598-3.412,1.598-5.402C22,4.486,17.514,0,12,0S2,4.486,2,10c0,1.99.591,3.842,1.598,5.402l-3.178,3.178c-.897.897-.262,2.431,1.007,2.431h1.562v1.562c0,1.269,1.534,1.904,2.431,1.007l3.944-3.944c.841.231,1.722.364,2.636.364s1.794-.134,2.636-.364l3.944,3.944c.897.897,2.431.262,2.431-1.007v-1.562h1.562c1.269,0,1.904-1.534,1.007-2.431ZM5,10c0-3.86,3.141-7,7-7s7,3.14,7,7-3.141,7-7,7-7-3.14-7-7Z"/>
</svg>
