<?xml version="1.0" encoding="UTF-8"?>
<svg xmlns="http://www.w3.org/2000/svg" id="Layer_1" data-name="Layer 1" viewBox="0 0 24 24">
  <path d="m8,10c0,.989.736,1.84,1.712,1.979.82.117,1.39.877,1.272,1.697-.107.748-.749,1.288-1.483,1.288-.071,0-.142-.005-.214-.015-2.444-.35-4.288-2.478-4.288-4.949s1.843-4.6,4.288-4.949c.816-.118,1.58.452,1.697,1.272.117.82-.452,1.58-1.272,1.697-.976.14-1.712.991-1.712,1.979Zm15.571,6.95c-.579-.592-1.529-.6-2.121-.021l-2.45,2.401V1.5c0-.829-.671-1.5-1.5-1.5s-1.5.671-1.5,1.5v17.793l-2.396-2.396c-.586-.586-1.535-.586-2.121,0-.586.585-.586,1.536,0,2.121l4.25,4.25c.489.489,1.131.732,1.771.732.637,0,1.272-.241,1.753-.722l4.293-4.207c.592-.58.602-1.529.021-2.121Zm-15.631-.257c-2.955-.908-4.94-3.598-4.94-6.693,0-3.86,3.14-7,7-7,.702,0,1.395.104,2.06.308.792.244,1.631-.202,1.875-.994s-.202-1.631-.994-1.875c-.95-.292-1.939-.439-2.94-.439C4.486,0,0,4.486,0,10c0,4.42,2.837,8.263,7.06,9.56.146.045.295.067.441.067.641,0,1.235-.415,1.433-1.06.244-.792-.201-1.631-.993-1.874Z"/>
</svg>
