<?xml version="1.0" encoding="UTF-8"?>
<svg xmlns="http://www.w3.org/2000/svg" id="Layer_1" data-name="Layer 1" viewBox="0 0 24 24">
  <path d="m22.024,2.278c-1.256-1.049-2.899-1.481-4.546-1.181l-3.283.688c-.84.153-1.59.533-2.191,1.069-.595-.535-1.335-.912-2.16-1.062l-3.36-.702c-1.606-.293-3.251.141-4.507,1.188S0,4.865,0,6.501v9.792c0,2.659,1.899,4.935,4.494,5.407l5.807,1.147c.561.102,1.125.153,1.693.153.573,0,1.15-.052,1.728-.157l5.762-1.139c2.617-.476,4.516-2.752,4.516-5.411V6.501c0-1.636-.72-3.175-1.976-4.223Zm-11.524,17.55l-5.447-1.076c-1.19-.217-2.053-1.251-2.053-2.46V6.501c0-.743.327-1.443.898-1.919.458-.382,1.03-.585,1.596-.585.139,0,.278.012.414.037l3.36.702c.714.13,1.232.751,1.232,1.476v13.617Zm10.5-3.536c0,1.209-.863,2.243-2.075,2.464l-5.425,1.072V6.212c0-.725.518-1.346,1.271-1.483l3.282-.688c.732-.13,1.479.064,2.049.541.571.477.898,1.176.898,1.919v9.792Zm-13-.792c0,.828-.671,1.499-1.499,1.499s-1.499-.671-1.499-1.499.671-1.499,1.499-1.499,1.499.671,1.499,1.499Zm0-8.001v4c0,.829-.671,1.5-1.5,1.5s-1.5-.671-1.5-1.5v-4c0-.829.671-1.5,1.5-1.5s1.5.671,1.5,1.5Z"/>
</svg>
