<?xml version="1.0" encoding="UTF-8"?>
<svg xmlns="http://www.w3.org/2000/svg" id="Layer_1" data-name="Layer 1" viewBox="0 0 24 24">
  <path d="m19.5,1H4.5C2.015,1,0,3.015,0,5.5v12c0,3.032,2.467,5.5,5.5,5.5h13c3.033,0,5.5-2.468,5.5-5.5V5.5c0-2.485-2.015-4.5-4.5-4.5Zm-10,2c.828,0,1.5.672,1.5,1.5s-.672,1.5-1.5,1.5-1.5-.672-1.5-1.5.672-1.5,1.5-1.5Zm-5,0c.828,0,1.5.672,1.5,1.5s-.672,1.5-1.5,1.5-1.5-.672-1.5-1.5.672-1.5,1.5-1.5Zm16.5,14.5c0,1.379-1.122,2.5-2.5,2.5H5.5c-1.378,0-2.5-1.121-2.5-2.5v-9.5h18v9.5Zm-16-3.1v-3.15c0-.69.56-1.25,1.25-1.25s1.25.56,1.25,1.25v3.083c0,.643.357,1.167,1,1.167s1-.523,1-1.167v-3.083c0-.69.56-1.25,1.25-1.25s1.25.56,1.25,1.25v3.25c0,2.17-1.985,3.885-4.235,3.425-1.636-.335-2.765-1.854-2.765-3.525Zm8.142-2.73c-.415-.75.127-1.67.985-1.67.409,0,.786.222.985.58l.601,1.086.005.009.005-.009.601-1.086c.198-.358.575-.58.985-.58.857,0,1.4.92.985,1.67l-1.284,2.32-.005.01,1.289,2.33c.415.75-.127,1.67-.985,1.67-.409,0-.786-.222-.985-.58l-.606-1.096-.606,1.096c-.198.358-.575.58-.985.58-.857,0-1.4-.92-.985-1.67l1.289-2.33-.005-.01-1.284-2.32Z"/>
</svg>
