<?xml version="1.0" encoding="UTF-8"?>
<svg xmlns="http://www.w3.org/2000/svg" id="Layer_1" data-name="Layer 1" viewBox="0 0 24 24">
  <path d="m24,7v.577c0,.828-.672,1.5-1.5,1.5s-1.5-.672-1.5-1.5v-.577c0-1.103-.897-2-2-2H5c-1.103,0-2,.897-2,2v7c0,1.103.897,2,2,2h5.5c.829,0,1.5.672,1.5,1.5s-.671,1.5-1.5,1.5h-4.5v3.5c0,.828-.671,1.5-1.5,1.5s-1.5-.672-1.5-1.5v-3.924c-1.763-.774-3-2.531-3-4.576v-7c0-2.045,1.237-3.802,3-4.576v-.924c0-.828.671-1.5,1.5-1.5s1.5.672,1.5,1.5v.5h12v-.5c0-.828.672-1.5,1.5-1.5s1.5.672,1.5,1.5v.924c1.763.774,3,2.531,3,4.576Zm-3,4.358v1.529c0,.997-.679,1.923-1.662,2.085-1.252.206-2.338-.759-2.338-1.972v-1.636c0-.742-.89-1.125-1.43-.616-1.162,1.094-1.799,2.857-1.494,4.637.283,1.645,1.419,3.039,2.924,3.695v2.919c0,1.104.896,2,2,2s2-.896,2-2v-2.924c1.764-.772,3-2.527,3-4.576,0-1.453-.621-2.878-1.612-3.79-.527-.486-1.388-.068-1.388.649Z"/>
</svg>
