<?xml version="1.0" encoding="UTF-8"?>
<svg xmlns="http://www.w3.org/2000/svg" id="Layer_1" data-name="Layer 1" viewBox="0 0 24 24">
  <path d="M22.561,19.439c.586,.586,.586,1.535,0,2.121l-.828,.828c-1.039,1.039-2.42,1.611-3.89,1.611h-5.843c-1.657,0-3-1.343-3-3v-4c0-1.108,.607-2.064,1.5-2.584v-5.916c0-.829,.671-1.5,1.5-1.5s1.5,.671,1.5,1.5v5.5h3c1.381,0,2.5,1.119,2.5,2.5v2c0,.828-.672,1.5-1.5,1.5s-1.5-.672-1.5-1.5v-1.5h-1v4h2.843c.668,0,1.296-.26,1.769-.732l.828-.828c.586-.586,1.535-.586,2.121,0Zm.902-11.85c-1.976-3.354-4.476-5.778-6.157-6.928-.641-.439-1.365-.642-2.085-.662-1.029,.008-1.957,.39-2.612,1.077l-.647,.678-.647-.678C10.648,.379,9.757-.004,8.804-.004,8.009-.004,7.272,.213,6.672,.624,5.093,1.704,2.523,4.173,.475,7.577c-.737,1.226-.679,2.771,.148,3.936,.53,.747,2.02,2.654,4.385,4.234,.256,.171,.545,.253,.832,.253,.484,0,.959-.234,1.249-.667,.46-.688,.275-1.62-.414-2.08-1.748-1.168-2.93-2.578-3.429-3.237,1.381,.273,3.256,.595,5.254,.793v-2.309c0-.109,.022-.213,.032-.32-2.072,.203-4.01,.54-5.408,.82,1.674-2.74,3.829-4.934,5.242-5.901,.045-.031,.179-.104,.438-.104,.089,0,.22,.026,.34,.152l1.048,1.098c.461,.484,1.105,.762,1.768,.762h0c.662,0,1.307-.278,1.768-.761l1.049-1.099c.092-.097,.249-.147,.466-.148,.122,.007,.233,.046,.368,.138,1.398,.956,3.49,3.001,5.206,5.878-1.382-.28-3.298-.618-5.35-.826,.009,.104,.031,.204,.031,.31v2.302c1.965-.197,3.804-.512,5.166-.781-.195,.258-.462,.589-.807,.967-.559,.612-.516,1.561,.096,2.119s1.561,.517,2.119-.096c.455-.499,.88-1.021,1.227-1.511,.818-1.155,.882-2.69,.162-3.911Z"/>
</svg>
