<?xml version="1.0" encoding="UTF-8"?>
<svg xmlns="http://www.w3.org/2000/svg" id="Layer_1" data-name="Layer 1" viewBox="0 0 24 24">
  <path d="M22.5,20c-.161,0-.312-.032-.458-.079l1.518,1.518c.586,.585,.586,1.536,0,2.121-.293,.293-.677,.439-1.061,.439s-.768-.146-1.061-.439L.439,2.561C-.146,1.975-.146,1.025,.439,.439,1.025-.146,1.975-.146,2.561,.439L14.121,12h3.379c.828,0,1.5,.671,1.5,1.5v3.379l2.079,2.079c-.047-.145-.079-.297-.079-.458v-5c0-.829,.672-1.5,1.5-1.5s1.5,.671,1.5,1.5v5c0,.829-.672,1.5-1.5,1.5Zm-8.5-1.5c0,.829-.672,1.5-1.5,1.5H3c-1.654,0-3-1.346-3-3v-2c0-1.654,1.346-3,3-3H7c.828,0,1.5,.671,1.5,1.5,.828,0,1.5,.671,1.5,1.5v2h2.5c.828,0,1.5,.671,1.5,1.5Zm-11-1.5H7v-2H3v2ZM13.671,6.573l1.601,.961c.401,.241,.671,.662,.721,1.126,.082,.769,.732,1.34,1.489,1.34,.054,0,.107-.003,.162-.009,.823-.088,1.42-.828,1.331-1.651-.149-1.393-.956-2.656-2.159-3.378l-1.602-.961c-.633-.379-1.063-1.014-1.182-1.741-.134-.817-.899-1.37-1.722-1.239-.817,.133-1.372,.904-1.239,1.722,.261,1.601,1.208,2.998,2.6,3.832Zm3.817-2.922l2.331,1.471c.708,.425,1.11,.956,1.194,1.579,.102,.753,.745,1.3,1.484,1.3,.066,0,.135-.004,.202-.014,.821-.11,1.397-.866,1.286-1.687-.205-1.528-1.138-2.86-2.595-3.733l-2.331-1.47c-.087-.052-.154-.128-.196-.219-.344-.753-1.231-1.086-1.987-.741-.754,.344-1.086,1.234-.741,1.987,.295,.646,.772,1.18,1.353,1.528Z"/>
</svg>
