<?xml version="1.0" encoding="UTF-8"?>
<svg xmlns="http://www.w3.org/2000/svg" id="Layer_1" data-name="Layer 1" viewBox="0 0 24 24">
  <path d="m12.001,12.821l8.442-8.385c.587-.583,1.538-.58,2.121.007.584.588.58,1.538-.008,2.122l-8.441,8.385c-.708.704-1.64,1.056-2.572,1.056s-1.857-.35-2.566-1.049l-2.475-2.447c-.589-.582-.595-1.532-.012-2.121.582-.589,1.533-.595,2.121-.012l2.474,2.446c.252.249.664.25.916-.001Zm10.499-2.321c-.828,0-1.5.671-1.5,1.5,0,.076-.021.188-.118.285l-2.442,2.442c-.281.281-.439.663-.439,1.061v1.712c0,.275-.225.5-.5.5h-1.712c-.397,0-.779.158-1.061.439l-2.442,2.442c-.158.156-.412.156-.57,0l-2.442-2.442c-.281-.281-.663-.439-1.061-.439h-1.712c-.275,0-.5-.225-.5-.5v-1.712c0-.397-.158-.779-.439-1.061l-2.442-2.442c-.098-.098-.118-.209-.118-.285s.021-.187.118-.285l2.442-2.443c.281-.281.439-.663.439-1.061v-1.712c0-.276.225-.5.5-.5h1.712c.397,0,.779-.158,1.061-.439l2.442-2.442c.158-.157.412-.157.57,0l2.442,2.442c.586.586,1.535.586,2.121,0,.586-.585.586-1.536,0-2.121l-2.442-2.442c-1.326-1.327-3.486-1.327-4.812,0l-2.003,2.003h-1.091c-1.93,0-3.5,1.57-3.5,3.5v1.091l-2.003,2.003c-.643.643-.997,1.497-.997,2.406s.354,1.764.997,2.406l2.003,2.003v1.091c0,1.93,1.57,3.5,3.5,3.5h1.091l2.003,2.003c.663.663,1.535.995,2.406.995s1.743-.332,2.406-.995l2.003-2.003h1.091c1.93,0,3.5-1.57,3.5-3.5v-1.091l2.002-2.002c.644-.643.998-1.498.998-2.407,0-.829-.672-1.5-1.5-1.5Z"/>
</svg>
