<?xml version="1.0" encoding="UTF-8"?>
<svg xmlns="http://www.w3.org/2000/svg" id="Layer_1" data-name="Layer 1" viewBox="0 0 24 24">
  <path d="M21.001,8.827l1.413-1.413c.781-.781,.781-2.047,0-2.828l-1.414-1.414c-.75-.75-1.768-1.172-2.828-1.172h-4.672v-.5c0-.828-.672-1.5-1.5-1.5s-1.5,.672-1.5,1.5v.5H5c-1.657,0-3,1.343-3,3v1.999c0,1.657,1.343,3,3,3h5.5s0,0,0,0v3H5.828c-1.061,0-2.078,.421-2.828,1.172l-1.414,1.414c-.781,.781-.781,2.047,0,2.828l1.414,1.414c.75,.75,1.768,1.172,2.828,1.172h4.672v1.5c0,.828,.672,1.5,1.5,1.5s1.5-.672,1.5-1.5v-1.5h5.5c1.657,0,3-1.343,3-3v-2c0-1.657-1.343-3-3-3h-5.5v-3s0,0,0,0h4.673c1.061,0,2.078-.421,2.828-1.172Zm-5.799,6.486c.379,.387,.38,1.006,.003,1.395l-2.148,2.244h0l-.004,.004c-.744,.744-2.058,.746-2.823-.019l-1.187-1.24c-.369-.388-.367-.997,.004-1.382,.394-.41,1.051-.408,1.443,.003l1.161,1.211,2.118-2.213c.392-.404,1.039-.405,1.432-.003Zm-.995-8.521c.391,.391,.391,1.023,0,1.414s-1.023,.391-1.414,0l-.793-.793-.793,.793c-.391,.391-1.023,.391-1.414,0s-.391-1.023,0-1.414l.793-.793-.793-.793c-.391-.391-.391-1.023,0-1.414s1.023-.391,1.414,0l.793,.793,.793-.793c.391-.391,1.023-.391,1.414,0s.391,1.023,0,1.414l-.793,.793,.793,.793Z"/>
</svg>
