<?xml version="1.0" encoding="UTF-8"?>
<svg xmlns="http://www.w3.org/2000/svg" id="Layer_1" data-name="Layer 1" viewBox="0 0 24 24">
  <path d="M20,0H4C1.791,0,0,1.791,0,4v5c0,2.209,1.791,4,4,4h1v-3.008c-.013,0-.025,.008-.038,.008-.442,0-.8-.358-.8-.8V4.6h-.862c-.442,0-.8-.358-.8-.8s.358-.8,.8-.8h3.4c.442,0,.8,.358,.8,.8s-.358,.8-.8,.8h-.939v2.719c.172-.215,.368-.414,.591-.588,.622-.482,1.375-.725,2.147-.723V3.8c0-.442,.358-.8,.8-.8s.8,.358,.8,.8v2.6c.586,.304,1.067,.767,1.4,1.333V3.8c0-.442,.358-.8,.8-.8h1.45c1.319,0,2.373,1.135,2.238,2.482-.117,1.171-1.19,2.018-2.367,2.018h-.522v1.7c0,.442-.358,.8-.8,.8h-.3l.013,3h7.987c2.209,0,4-1.791,4-4V4c0-2.209-1.791-4-4-4Zm-.954,10.087c-.586,0-1.147-.232-1.575-.476-.434-.247-.515-.843-.182-1.216,.245-.275,.652-.357,.972-.174,.257,.147,.547,.266,.785,.266,.075,0,.739-.016,.739-.534,0-.253-.308-.44-1.042-.792-.815-.391-1.933-.925-1.933-2.208,0-1.172,.939-2.056,2.185-2.056,.458,0,.915,.18,1.285,.381,.431,.235,.531,.81,.214,1.185l-.028,.033c-.244,.288-.652,.349-.985,.171-.189-.101-.37-.171-.486-.171-.06,0-.585,.013-.585,.456,0,.256,.405,.469,1.023,.765,.823,.394,1.951,.933,1.951,2.235,0,1.386-1.205,2.134-2.339,2.134Zm-5.296-4.187h-.65v-1.3h.65c.358,0,.65,.292,.65,.65s-.292,.65-.65,.65Zm7.25,16.118v.482c0,.828-.672,1.5-1.5,1.5s-1.5-.672-1.5-1.5v-.482c0-1.11-.746-2.099-1.813-2.404l-6.174-1.764v3.727c0,1.338-1.085,2.423-2.423,2.423h-.762c-.884,0-1.738-.323-2.4-.908l-1.68-1.483c-.866-.722-.983-2.008-.261-2.874,.722-.866,2.008-.983,2.874-.261l1.64,1.296V9.5c0-.958,.883-1.705,1.884-1.449,.682,.175,1.129,.839,1.129,1.543v5.136l6.998,1.999c2.349,.672,3.989,2.847,3.989,5.289Z"/>
</svg>
