<?xml version="1.0" encoding="UTF-8"?>
<svg xmlns="http://www.w3.org/2000/svg" id="Layer_1" data-name="Layer 1" viewBox="0 0 24 24">
  <path d="M24.001,10.25c-.054-2.3-2.054-4.25-4.501-4.25-.237,0-.475,.016-.712,.044,.136-.485,.212-.991,.212-1.52,0-2.495-1.906-4.525-4.249-4.525-1.02,0-1.986,.384-2.75,1.076-.763-.691-1.729-1.076-2.75-1.076-2.344,0-4.25,2.03-4.25,4.525,0,.529,.076,1.035,.212,1.52-.237-.029-.476-.044-.713-.044C2.02,6,0,7.907,0,10.251,0,11.272,.385,12.239,1.075,13.001,.385,13.762,0,14.729,0,15.751,0,18.094,2.02,20,4.5,20c2.196,0,4.405-1.317,6.044-2.606,.319,1.978,1.318,4.484,4.124,6.354,.256,.171,.545,.252,.831,.252,.484,0,.96-.234,1.249-.668,.46-.689,.273-1.62-.416-2.08-1.714-1.142-2.444-2.635-2.741-3.9,1.713,1.296,3.966,2.648,5.909,2.648,2.481,0,4.501-1.906,4.501-4.249,0-1.022-.384-1.989-1.075-2.751,.691-.761,1.075-1.728,1.075-2.75Zm-13.12,2.752c-.926,1.037-4.085,3.998-6.381,3.998-.826,0-1.499-.561-1.499-1.25,0-.351,.179-.679,.502-.921,.582-.436,.916-1.102,.916-1.828s-.334-1.394-.914-1.828c-.325-.243-.504-.571-.504-.924,0-.688,.673-1.249,1.499-1.249,1.424,0,3.182,1.14,4.531,2.253,.158,.147,1.463,1.343,1.851,1.749h0Zm1.119-3.142c-.327-.309-.713-.654-1.146-1.009-1.449-1.356-2.853-2.843-2.853-4.326,0-.827,.572-1.525,1.25-1.525,.35,0,.678,.18,.923,.505,.009,.013,.019,.025,.028,.037,.436,.558,1.089,.876,1.799,.876,.726,0,1.393-.334,1.826-.913,.246-.326,.574-.506,.924-.506,.677,0,1.249,.698,1.249,1.525,0,1.48-1.399,2.965-2.847,4.32-.436,.357-.824,.705-1.153,1.015Zm7.5,7.14c-1.615,0-4.676-2.319-6.378-4.001,.387-.404,1.694-1.604,1.855-1.753,1.349-1.111,3.102-2.246,4.522-2.246,.826,0,1.499,.561,1.499,1.249,0,.017,0,.033,0,.049-.016,.333-.193,.641-.507,.876-.58,.436-.912,1.102-.912,1.828s.333,1.391,.913,1.826c.008,.005,.015,.011,.021,.016,.313,.241,.485,.562,.485,.907,0,.688-.674,1.249-1.501,1.249Z"/>
</svg>
