<?xml version="1.0" encoding="UTF-8"?>
<svg xmlns="http://www.w3.org/2000/svg" id="Layer_1" data-name="Layer 1" viewBox="0 0 24 24">
  <path d="m16.717,8.002c-.293.407-.752.624-1.219.624-.303,0-.61-.092-.875-.283-1.569-1.129-3.678-1.13-5.248,0-.674.484-1.61.331-2.093-.341-.484-.672-.332-1.609.341-2.093,2.618-1.884,6.135-1.884,8.753,0,.672.484.825,1.421.341,2.094Zm-7.717,3.998c0-1.654,1.346-3,3-3s3,1.346,3,3-1.346,3-3,3-3-1.346-3-3Zm1.6,0c0,.772.628,1.4,1.4,1.4s1.4-.628,1.4-1.4-.628-1.4-1.4-1.4-1.4.628-1.4,1.4Zm-4.169-7.071c3.279-2.591,7.86-2.591,11.14,0,.275.218.604.323.929.323.443,0,.882-.195,1.178-.57.514-.65.403-1.593-.247-2.107C15.055-.881,8.945-.881,4.57,2.576c-.65.514-.76,1.457-.247,2.107s1.458.761,2.107.247Zm15.57,3.071h-4c-.552,0-1,.448-1,1s.448,1,1,1h1v5c0,.552.448,1,1,1s1-.448,1-1v-5h1c.552,0,1-.448,1-1s-.448-1-1-1ZM5,15v-6c0-.552-.448-1-1-1s-1,.448-1,1v6c0,.552.448,1,1,1s1-.448,1-1Zm2.282.998c-.484.672-.332,1.609.341,2.094,1.309.942,2.843,1.413,4.377,1.413s3.068-.471,4.376-1.414c.672-.483.825-1.421.341-2.094-.484-.671-1.422-.826-2.094-.34-1.569,1.129-3.678,1.13-5.248,0-.673-.483-1.61-.331-2.094.342Zm10.288,3.072c-3.279,2.592-7.86,2.592-11.14,0-.649-.514-1.593-.403-2.107.247-.514.649-.403,1.593.247,2.106,2.188,1.729,4.809,2.593,7.43,2.593s5.243-.864,7.43-2.593c.65-.514.76-1.457.247-2.106-.514-.65-1.458-.761-2.107-.247Z"/>
</svg>
