<?xml version="1.0" encoding="UTF-8"?>
<svg xmlns="http://www.w3.org/2000/svg" id="Layer_1" data-name="Layer 1" viewBox="0 0 24 24">
  <path d="M24,4.5v4c0,2.481-2.019,4.5-4.5,4.5h-6.858c-2.008,0-3.642-1.634-3.642-3.642,0-1.801,1.344-3.351,3.127-3.605l4.111-.729c.82-.143,1.594,.4,1.738,1.215,.145,.816-.399,1.594-1.215,1.739l-4.161,.737c-.364,.053-.601,.326-.601,.644,0,.354,.288,.642,.642,.642h6.858c.827,0,1.5-.673,1.5-1.5V4.5c0-.827-.673-1.5-1.5-1.5h-5.663c-1.547,0-3.034,.469-4.301,1.356l-1.961,1.373c-.679,.475-1.614,.309-2.089-.369-.475-.679-.31-1.614,.369-2.089l1.961-1.373c1.774-1.242,3.856-1.898,6.021-1.898h5.663c2.481,0,4.5,2.019,4.5,4.5ZM7,9.5c0,1.507,.607,2.872,1.589,3.866-.431,.93-1.172,1.687-2.089,2.146h0v6.46c0,.398-.158,.779-.439,1.06l-.661,.661c-.409,.409-1.073,.409-1.482,0l-.803-.803c-.319-.319-.319-.835,0-1.154l.822-.822-.837-.837c-.319-.319-.319-.835,0-1.154l.837-.837-1.061-1.061c-.354-.354-.397-.842-.397-.842l.003-.682c-1.466-.742-2.482-2.245-2.482-4.001,0-2.485,2.015-4.5,4.5-4.5,1.03,0,1.969,.36,2.727,.943-.146,.494-.227,1.016-.227,1.557Zm-1,1c0-.828-.672-1.5-1.5-1.5s-1.5,.672-1.5,1.5,.672,1.5,1.5,1.5,1.5-.672,1.5-1.5Z"/>
</svg>
