<?xml version="1.0" encoding="UTF-8"?>
<svg xmlns="http://www.w3.org/2000/svg" id="Layer_1" data-name="Layer 1" viewBox="0 0 24 24">
  <path d="M23.932,7.824c-.253,1.036-1.213,1.745-2.28,1.745h-.304v.583c0,.469-.38,.848-.848,.848s-.848-.38-.848-.848v-.583h-.58c-.757,0-1.435-.346-1.882-.889-.44-.533-.066-1.338,.625-1.338,.268,0,.532,.1,.715,.295,.136,.145,.328,.235,.542,.235h2.598c.295,0,.564-.199,.622-.488,.067-.337-.155-.652-.478-.718l-2.922-.585c-.928-.186-1.68-.902-1.851-1.833-.269-1.462,.851-2.74,2.265-2.74h.347V.848c0-.469,.38-.848,.848-.848s.848,.38,.848,.848v.66h.212c.755,0,1.43,.344,1.878,.884,.443,.534,.067,1.343-.628,1.343-.268,.018-.523-.09-.704-.29-.136-.148-.331-.24-.546-.24h-2.229c-.294,0-.564,.198-.623,.486-.068,.337,.154,.654,.477,.719l2.961,.593c1.254,.25,2.106,1.505,1.785,2.821ZM5.5,11C2.462,11,0,8.538,0,5.5S2.462,0,5.5,0c2.517,0,4.634,1.693,5.288,4h2.212v-.627c0-.661,.803-.989,1.266-.516l1.978,2.024c.342,.342,.342,.896,0,1.237l-1.978,2.024c-.462,.473-1.266,.146-1.266-.516v-.627h-2.212c-.654,2.307-2.771,4-5.288,4Zm.705-3.557l.004-.004,2.377-2.487c.372-.39,.369-1.004-.008-1.389h0c-.395-.404-1.046-.4-1.437,.008l-2.338,2.445-1.196-1.249c-.393-.41-1.048-.411-1.442-.002h0c-.371,.386-.372,.997-.002,1.384l1.219,1.275c.766,.765,2.079,.763,2.823,.019Zm11.875,9.765l-5.08-1.524v-4.091c0-.704-.447-1.368-1.129-1.543-1.001-.256-1.884,.492-1.884,1.449v8.269l-1.64-1.296c-.866-.722-2.153-.604-2.874,.261-.722,.866-.605,2.153,.261,2.874l1.68,1.483c.663,.585,1.516,.908,2.4,.908h.762c1.338,0,2.423-1.085,2.423-2.423v-2.761l4.218,1.265c1.049,.315,1.782,1.31,1.782,2.419,0,.828,.671,1.5,1.5,1.5s1.5-.672,1.5-1.5c0-2.423-1.612-4.6-3.92-5.292Z"/>
</svg>
