<?xml version="1.0" encoding="UTF-8"?>
<svg xmlns="http://www.w3.org/2000/svg" id="Layer_1" data-name="Layer 1" viewBox="0 0 24 24">
  <path d="m21.89,6.255L15.39,1.168c-1.996-1.561-4.783-1.561-6.779,0L2.11,6.255c-1.341,1.05-2.11,2.628-2.11,4.332v7.9c0,3.032,2.467,5.5,5.5,5.5h13c3.033,0,5.5-2.468,5.5-5.5v-7.9c0-1.704-.769-3.282-2.11-4.332Zm-.89,12.232c0,1.379-1.122,2.5-2.5,2.5H5.5c-1.378,0-2.5-1.121-2.5-2.5v-7.9c0-.774.35-1.492.959-1.969l6.5-5.087c.454-.355.998-.532,1.541-.532s1.087.177,1.541.532l6.5,5.087c.609.477.959,1.194.959,1.969v7.9Zm-4.204-9.083c.755,1.002,1.204,2.247,1.204,3.596,0,3.548-3.095,6.386-6.727,5.957-2.618-.31-4.788-2.389-5.197-4.993-.265-1.692.183-3.277,1.089-4.506.581-.789,1.836-.382,1.836.599v2.944c0,1.85,1.683,3.314,3.598,2.942,1.424-.277,2.402-1.609,2.402-3.06v-2.834c0-.95,1.224-1.403,1.796-.644Zm-6.296,3.096v-3.5c0-.828.671-1.5,1.5-1.5s1.5.672,1.5,1.5v3.5c0,.828-.671,1.5-1.5,1.5s-1.5-.672-1.5-1.5Z"/>
</svg>
