<?xml version="1.0" encoding="UTF-8"?>
<svg xmlns="http://www.w3.org/2000/svg" id="Layer_1" data-name="Layer 1" viewBox="0 0 24 24">
  <path d="m14.5,15c-.829,0-1.5.671-1.5,1.5v1.5H3V5.5c0-1.378,1.122-2.5,2.5-2.5h5c1.142,0,2.138.771,2.421,1.874.207.802,1.025,1.288,1.826,1.079.803-.207,1.286-1.024,1.079-1.826-.625-2.43-2.815-4.126-5.327-4.126h-5C2.467,0,0,2.467,0,5.5c0,0-.02,13.705,0,13.802,0,2.698,2.342,4.698,5,4.698h6c2.366,0,4.663-1.779,5-4.5v-3c0-.829-.671-1.5-1.5-1.5Zm-5.5,7h-2c-.552,0-1-.448-1-1s.448-1,1-1h2c.552,0,1,.448,1,1s-.448,1-1,1Z"/>
  <path d="m24.115,9v-.321c0-.44-.145-.869-.414-1.218l-2.477-3.227c-.722-.866-2.008-.983-2.874-.261-.866.722-.983,2.008-.261,2.874l.835,1.152-7.388-.013c-.958,0-1.705.883-1.449,1.884.175.682.839,1.129,1.543,1.129h4.169l1.535,5.374c.61,2.135,2.587,3.626,4.808,3.626h.36c.829,0,1.5-.671,1.5-1.5s-.671-1.5-1.5-1.5h-.36c-.888,0-1.679-.597-1.923-1.451l-1.3-4.549h3.198c1.105,0,2-.895,2-2Z"/>
</svg>
