<?xml version="1.0" encoding="UTF-8"?>
<svg xmlns="http://www.w3.org/2000/svg" id="Layer_1" data-name="Layer 1" viewBox="0 0 24 24">
  <path d="m12,0C5.383,0,0,5.383,0,12s5.383,12,12,12,12-5.383,12-12S18.617,0,12,0Zm0,3c3.113,0,5.862,1.59,7.478,4h-3.831c-.98,0-1.913.367-2.653,1h-1.988c-.74-.633-1.673-1-2.653-1h-3.831c1.617-2.41,4.365-4,7.478-4Zm0,18c-4.86,0-8.823-3.875-8.985-8.697.598.435,1.325.697,2.109.697h2.115c1.387,0,2.615-.798,3.214-2h3.094c.599,1.202,1.827,2,3.214,2h2.115c.784,0,1.511-.262,2.109-.697-.162,4.822-4.125,8.697-8.985,8.697Zm5.234-6.606c.611.559.653,1.508.094,2.119-2.276,2.487-4.856,2.487-5.828,2.487-.829,0-1.5-.672-1.5-1.5s.671-1.5,1.5-1.5c.78,0,2.231,0,3.615-1.513.558-.61,1.507-.653,2.119-.094Z"/>
</svg>
