<?xml version="1.0" encoding="UTF-8"?>
<svg xmlns="http://www.w3.org/2000/svg" id="Layer_1" data-name="Layer 1" viewBox="0 0 24 24">
  <path d="M0,8.487c.007-.824,.678-1.487,1.5-1.487h.014l1.189,.01c.137-.538,.357-1.053,.645-1.543l-.907-.907c-.586-.585-.586-1.536,0-2.121,.586-.586,1.535-.586,2.121,0l.907,.907c.49-.288,1.007-.508,1.546-.645l-.013-1.185c-.009-.828,.655-1.507,1.484-1.516,.833,.026,1.507,.656,1.516,1.484l.013,1.229c.531,.138,1.051,.332,1.535,.617l.892-.891c.586-.586,1.535-.586,2.121,0,.586,.585,.586,1.536,0,2.121l-1.818,1.818c-.586,.586-1.535,.586-2.121,0-1.17-1.17-3.073-1.17-4.243,0-1.169,1.17-1.169,3.073,0,4.243,.586,.585,.586,1.536,0,2.121l-1.818,1.818c-.293,.293-.677,.439-1.061,.439s-.768-.146-1.061-.439c-.586-.586-.586-1.535,0-2.121l.891-.892c-.286-.485-.481-1.005-.618-1.537l-1.225-.011c-.829-.007-1.494-.685-1.487-1.513ZM23.561,.439c-.586-.586-1.535-.586-2.121,0L.439,21.439c-.586,.586-.586,1.535,0,2.121,.293,.293,.677,.439,1.061,.439s.768-.146,1.061-.439L23.561,2.561c.586-.585,.586-1.536,0-2.121Zm-.519,11.601c.519-.201,.883-.672,.948-1.225,.064-.553-.182-1.095-.64-1.41-.754-.519-1.583-.901-2.462-1.136-.802-.216-1.623,.262-1.836,1.062-.149,.56,.038,1.129,.437,1.495-1.362,1.331-2.164,3.172-2.164,5.173,0,1.904,.727,3.665,1.972,4.978-2.347,.221-4.663-1.255-5.368-3.438-.254-.79-1.102-1.22-1.889-.967-.788,.255-1.221,1.101-.966,1.889,1.054,3.262,4.241,5.539,7.751,5.539,1.623,0,3.188-.486,4.526-1.405,.458-.315,.705-.857,.64-1.41s-.429-1.023-.948-1.225c-1.651-.641-2.718-2.194-2.718-3.96s1.067-3.32,2.718-3.959Z"/>
</svg>
