<?xml version="1.0" encoding="UTF-8"?>
<svg xmlns="http://www.w3.org/2000/svg" id="Layer_1" data-name="Layer 1" viewBox="0 0 24 24">
  <path d="M18.5,6h-6.015l7.672-3.11c.768-.311,1.138-1.186,.827-1.953s-1.185-1.14-1.954-.826L3.934,6.23c-2.272,.677-3.934,2.782-3.934,5.27v7c0,3.032,2.467,5.5,5.5,5.5h13c3.033,0,5.5-2.468,5.5-5.5v-7c0-3.032-2.467-5.5-5.5-5.5Zm2.5,12.5c0,1.379-1.122,2.5-2.5,2.5H5.5c-1.378,0-2.5-1.121-2.5-2.5v-7c-.011-1.391,1.171-2.475,2.5-2.5h13c1.378,0,2.5,1.121,2.5,2.5v7ZM7.6,12.6v1.801h1.601c.442,0,.8,.358,.8,.8s-.358,.8-.8,.8h-1.601v2.2c0,.442-.358,.8-.8,.8s-.8-.358-.8-.8v-6.4c0-.442,.358-.8,.8-.8h2.4c.442,0,.8,.358,.8,.8s-.358,.8-.8,.8h-1.601Zm9.893-.6l.445,6.142c.034,.463-.333,.858-.798,.858h0c-.419,0-.768-.324-.798-.742l-.265-3.66-.848,1.866c-.284,.625-1.172,.625-1.457,0l-.848-1.866-.265,3.66c-.03,.418-.379,.742-.798,.742-.465,0-.831-.394-.798-.858l.445-6.142c.043-.705,.472-1,.988-1,.342,0,.66,.242,.841,.64l1.164,2.56,1.164-2.56c.181-.398,.499-.64,.841-.64,.516,0,.945,.295,.988,1Z"/>
</svg>
