<?xml version="1.0" encoding="UTF-8"?>
<svg xmlns="http://www.w3.org/2000/svg" id="Layer_1" data-name="Layer 1" viewBox="0 0 24 24">
  <path d="M20.5,0h-7c-1.93,0-3.5,1.57-3.5,3.5v6c0,1.93,1.57,3.5,3.5,3.5h7c1.93,0,3.5-1.57,3.5-3.5V3.5c0-1.93-1.57-3.5-3.5-3.5Zm0,10h-7c-.275,0-.5-.224-.5-.5V5h8v4.5c0,.276-.225,.5-.5,.5Zm-6.5,6.5v4c0,1.93-1.57,3.5-3.5,3.5H3.5c-1.93,0-3.5-1.57-3.5-3.5v-6c0-1.93,1.57-3.5,3.5-3.5h3c.828,0,1.5,.671,1.5,1.5v2c0,.828-.672,1.5-1.5,1.5H3v4.5c0,.275,.225,.5,.5,.5h7c.275,0,.5-.225,.5-.5v-4c0-.828,.672-1.5,1.5-1.5s1.5,.672,1.5,1.5Zm9.719,1.066c.529,.529,.154,1.434-.594,1.434h-1.125v.5c0,2.481-2.019,4.5-4.5,4.5-.828,0-1.5-.672-1.5-1.5s.672-1.5,1.5-1.5,1.5-.673,1.5-1.5v-.5h-1.192c-.749,0-1.123-.905-.594-1.434l2.658-2.658c.328-.328,.86-.328,1.188,0l2.658,2.658ZM.214,6.434c-.529-.529-.154-1.434,.594-1.434h1.192v-.5C2,2.019,4.019,0,6.5,0c.828,0,1.5,.671,1.5,1.5s-.672,1.5-1.5,1.5-1.5,.673-1.5,1.5v.5h1.125c.749,0,1.123,.905,.594,1.434l-2.658,2.658c-.328,.328-.86,.328-1.188,0L.214,6.434Z"/>
</svg>
