<?xml version="1.0" encoding="UTF-8"?>
<svg xmlns="http://www.w3.org/2000/svg" id="Layer_1" data-name="Layer 1" viewBox="0 0 24 24">
  <path d="M17.756,16.067c.413-.635,.363-1.466-.124-2.047l-.565-.675,2.033-3.403,1.615-.298c.519-.096,1.017-.284,1.469-.555l1.196-.717c.385-.231,.62-.646,.62-1.095,0-.705-.572-1.277-1.277-1.277h-1.723s-.096-.981-.745-1.376c-.593-.361-.725-.377-.743-.377-.002,0-.003,0-.003,0-.273-.138-.574-.209-.879-.209-.053,0-3.172,.253-3.172,.253l-.223-.432c-.189-.367-.528-.635-.929-.734l-3.107-.767c-.101-.025-.204-.037-.306-.037-.334,0-.66,.132-.903,.374l-.491,.491-4.5-1-.797-.531c-.144-.096-.307-.142-.468-.142-.273,0-.541,.132-.704,.376l-.531,.797-1.503,.407C.306,3.367-.1,4.086,.022,4.819l.159,.957c.083,.499,.399,.927,.852,1.153l.796,.398c.221,.11,.462,.167,.706,.167,.103,0,.207-.01,.31-.031,0,0,1.708-.218,1.747-.218,.285,0,.558,.131,.736,.36,.282,.362,.259,.874-.053,1.21l-.799,.859c-.306,.328-.476,.761-.476,1.209v1.302s-1.096,.315-.5,1.5c.578,1.149,1,2,1,2l-.858,2.282c-.228,.685-.05,1.441,.461,1.952l1.619,1.619c.308,.308,.714,.464,1.12,.464,.371,0,.743-.13,1.042-.391l1.616-1.611h3.335c.426,0,.835-.169,1.136-.471l1.029-1.029,.928-.309c.37-.123,.688-.369,.901-.696l.927-1.427Zm-3.264-4.26c-.644,1.078-.547,2.44,.235,3.415l-.171,.263-.505,.168c-.442,.147-.843,.395-1.173,.725l-.621,.621h-2.757c-.794,0-1.555,.315-2.118,.875l-.541,.54-.118-.118,.585-1.555c.293-.779,.249-1.644-.12-2.389,0,0-.177-.357-.459-.92,.175-.383,.271-.806,.271-1.247v-.82l.471-.506c1.282-1.378,1.409-3.434,.329-4.954l1.111,.222c.196,.039,.393,.058,.588,.058,.693,0,1.369-.241,1.909-.686l1.498,.37c.546,.883,1.512,1.422,2.55,1.422,.081,0,2.742-.214,2.742-.214,0,.001,0,.002,.001,.003-.698,.219-1.297,.688-1.676,1.324l-2.033,3.403Zm8.099,4.731c.541,.445,.547,1.28,.012,1.732l-1.148,.97c-.443,.375-1.096,.34-1.499-.079l-.642-.668c-.384-.4-.42-1.025-.083-1.467l.83-1.09c.379-.498,1.088-.582,1.57-.186l.96,.789Zm-4.077,4.355c.117,.268,.051,.585-.162,.779l-.724,.66c-.256,.233-.643,.22-.884-.029l-.054-.056c-.278-.288-.245-.765,.069-1.01l.778-.604c.331-.257,.806-.131,.977,.26Zm5.327-7.885c.175,.185,.21,.463,.087,.686-.152,.277-.495,.384-.778,.242l-.812-.406c-.316-.158-.422-.557-.226-.851l.178-.267c.009-.59,.478-.598,.916-.077l.635,.673Z"/>
</svg>
