<?xml version="1.0" encoding="UTF-8"?>
<svg xmlns="http://www.w3.org/2000/svg" id="Layer_1" data-name="Layer 1" viewBox="0 0 24 24">
  <path d="m24,16c0,1.105-.831,2-1.857,2h-.619c-1.026,0-1.857-.895-1.857-2,0,1.105-.831,2-1.857,2h-.619c-1.026,0-1.857-.895-1.857-2,0,1.105-.831,2-1.857,2h-.619c-1.026,0-1.857-.895-1.857-2l.584-1.887c.389-1.256,1.551-2.113,2.866-2.113h6.1c1.315,0,2.477.857,2.866,2.113l.584,1.887Zm-2.5,3c-.828,0-1.5.671-1.5,1.5v.5h-5v-.5c0-.829-.672-1.5-1.5-1.5s-1.5.671-1.5,1.5v.5c0,1.654,1.346,3,3,3h5c1.654,0,3-1.346,3-3v-.5c0-.829-.672-1.5-1.5-1.5ZM2,6C2,2.691,4.691,0,8,0s6,2.691,6,6-2.691,6-6,6-6-2.691-6-6Zm3,0c0,1.654,1.346,3,3,3s3-1.346,3-3-1.346-3-3-3-3,1.346-3,3Zm3,8C3.589,14,0,17.589,0,22v.5c0,.829.672,1.5,1.5,1.5s1.5-.671,1.5-1.5v-.5c0-2.757,2.243-5,5-5,.828,0,1.5-.671,1.5-1.5s-.672-1.5-1.5-1.5Z"/>
</svg>
