<?xml version="1.0" encoding="UTF-8"?>
<svg xmlns="http://www.w3.org/2000/svg" id="Layer_1" data-name="Layer 1" viewBox="0 0 24 24">
  <path d="M16.663,2.002c-.562-1.183-1.769-2.002-3.163-2.002h-3c-1.395,0-2.601,.819-3.163,2.002-2.958,.087-5.337,2.52-5.337,5.498v11c0,3.032,2.468,5.5,5.5,5.5h9c3.032,0,5.5-2.468,5.5-5.5V7.5c0-2.979-2.379-5.411-5.337-5.498Zm2.337,16.498c0,1.379-1.121,2.5-2.5,2.5H7.5c-1.379,0-2.5-1.121-2.5-2.5V7.5c0-1.379,1.121-2.5,2.5-2.5h1c.828,0,1.5-.672,1.5-1.5,0-.275,.225-.5,.5-.5h3c.275,0,.5,.225,.5,.5,0,.828,.672,1.5,1.5,1.5h1c1.379,0,2.5,1.121,2.5,2.5v11Zm-7.831-9.255l-.793,.793,.793,.793c.391,.391,.391,1.023,0,1.414-.195,.195-.451,.293-.707,.293s-.512-.098-.707-.293l-.793-.793-.793,.793c-.195,.195-.451,.293-.707,.293s-.512-.098-.707-.293c-.391-.391-.391-1.023,0-1.414l.793-.793-.793-.793c-.391-.391-.391-1.023,0-1.414s1.023-.391,1.414,0l.793,.793,.793-.793c.391-.391,1.023-.391,1.414,0s.391,1.023,0,1.414Zm0,7l-.793,.793,.793,.793c.391,.391,.391,1.023,0,1.414-.195,.195-.451,.293-.707,.293s-.512-.098-.707-.293l-.793-.793-.793,.793c-.195,.195-.451,.293-.707,.293s-.512-.098-.707-.293c-.391-.391-.391-1.023,0-1.414l.793-.793-.793-.793c-.391-.391-.391-1.023,0-1.414s1.023-.391,1.414,0l.793,.793,.793-.793c.391-.391,1.023-.391,1.414,0s.391,1.023,0,1.414Zm5.831-5.745c0,.828-.672,1.5-1.5,1.5h-1c-.828,0-1.5-.672-1.5-1.5s.672-1.5,1.5-1.5h1c.828,0,1.5,.672,1.5,1.5Zm0,6c0,.828-.672,1.5-1.5,1.5h-1c-.828,0-1.5-.672-1.5-1.5s.672-1.5,1.5-1.5h1c.828,0,1.5,.672,1.5,1.5Z"/>
</svg>
