<?xml version="1.0" encoding="UTF-8"?>
<svg xmlns="http://www.w3.org/2000/svg" id="Layer_1" data-name="Layer 1" viewBox="0 0 24 24">
  <path d="m4,12.949v6.551c0,.827.673,1.5,1.5,1.5h4c.829,0,1.5.672,1.5,1.5s-.671,1.5-1.5,1.5h-4c-2.481,0-4.5-2.019-4.5-4.5v-8.211c-.615-.769-1-1.73-1-2.789,0-.132.018-.264.052-.392L1.184,3.932C1.912,1.561,4.024,0,6.454,0h11.092c2.43,0,4.542,1.561,5.256,3.883l1.146,4.225c.035.128.052.26.052.392,0,.515-.086,1.021-.257,1.501-.276.781-1.134,1.189-1.915.912-.781-.277-1.189-1.134-.912-1.915.038-.107.063-.218.076-.332l-1.07-3.951c-.311-1.007-1.271-1.716-2.375-1.716h-.546v.5c0,.829-.671,1.5-1.5,1.5s-1.5-.671-1.5-1.5v-.5h-4v.5c0,.829-.671,1.5-1.5,1.5s-1.5-.671-1.5-1.5v-.5h-.546c-1.104,0-2.064.709-2.389,1.765l-1.056,3.901c.083.749.72,1.334,1.491,1.334h1c.827,0,1.5-.673,1.5-1.5s.671-1.5,1.5-1.5,1.5.671,1.5,1.5.673,1.5,1.5,1.5,1.5.671,1.5,1.5-.671,1.5-1.5,1.5c-1.157,0-2.202-.451-3-1.17-.798.72-1.843,1.17-3,1.17h-1c-.171,0-.334-.032-.5-.051Zm20,5.051c0,3.314-2.686,6-6,6s-6-2.686-6-6,2.686-6,6-6,6,2.686,6,6Zm-2.288-1.702c-.383-.399-1.017-.41-1.414-.029l-2.713,2.624c-.143.141-.379.144-.522.002l-1.354-1.331c-.396-.388-1.028-.381-1.414.014-.387.395-.381,1.027.014,1.414l1.354,1.332c.46.449,1.062.674,1.663.674s1.201-.225,1.653-.671l2.703-2.614c.398-.383.411-1.016.029-1.414Z"/>
</svg>
