<?xml version="1.0" encoding="UTF-8"?>
<svg xmlns="http://www.w3.org/2000/svg" id="Layer_1" data-name="Layer 1" viewBox="0 0 24 24">
  <path d="M.293,4.207C-.098,3.817-.098,3.183,.293,2.793L2.369,.669c.596-.61,1.631-.188,1.631,.665v.667h1.5c1.93,0,3.5,1.57,3.5,3.5v2c0,.828-.672,1.5-1.5,1.5s-1.5-.672-1.5-1.5v-2c0-.275-.225-.5-.5-.5h-1.5v.667c0,.852-1.035,1.274-1.631,.665L.293,4.207Zm11.207,4.793c.828,0,1.5-.672,1.5-1.5v-2c0-.275,.225-.5,.5-.5h1.5v.667c0,.852,1.035,1.274,1.631,.665l2.076-2.124c.39-.39,.39-1.024,0-1.414l-2.076-2.124c-.596-.61-1.631-.188-1.631,.665v.667h-1.5c-1.93,0-3.5,1.57-3.5,3.5v2c0,.828,.672,1.5,1.5,1.5Zm11.515,5.468l-5.196,5.943c-1.993,2.28-4.874,3.589-7.904,3.589H4.5c-2.481,0-4.5-2.019-4.5-4.5v-4c0-2.481,2.019-4.5,4.5-4.5h7.857c.942,0,1.802,.359,2.449,.949l2.438-2.68c1.376-1.574,3.969-1.694,5.488-.256,1.564,1.427,1.691,3.874,.281,5.454Zm-2.303-3.237c-.333-.333-.938-.298-1.248,.059l-3.497,3.843c-.218,1.586-1.475,2.885-3.094,3.116l-5.161,.737c-.82,.108-1.58-.454-1.697-1.273-.117-.82,.453-1.58,1.273-1.697l5.161-.737c.314-.044,.551-.317,.551-.635,0-.354-.288-.643-.643-.643H4.5c-.827,0-1.5,.673-1.5,1.5v4c0,.827,.673,1.5,1.5,1.5h5.414c2.164,0,4.222-.935,5.646-2.563l5.206-5.954c.33-.371,.302-.928-.055-1.252Z"/>
</svg>
