<?xml version="1.0" encoding="UTF-8"?>
<svg xmlns="http://www.w3.org/2000/svg" id="Layer_1" data-name="Layer 1" viewBox="0 0 24 24">
  <path d="m24,18.664v.336c0,1.214-1.082,2.176-2.335,1.973-.984-.16-1.665-1.083-1.665-2.079v-.23l.854-2.42-1.854-.348v6.105h2c.552,0,1,.447,1,1s-.448,1-1,1h-6c-.552,0-1-.447-1-1s.448-1,1-1h2v-6.48l-1.752-.328.861,2.406v.575h-.013c-.129,1.162-1.226,2.032-2.466,1.783-.97-.194-1.63-1.112-1.63-2.101v-.244l1.097-3.496c.23-.734.972-1.18,1.728-1.04l2.175.404v-.48c0-.553.448-1,1-1s1,.447,1,1v.851l2.665.494c.517.096.945.459,1.123.954l1.212,3.364ZM2.975,6C2.975,2.691,5.666,0,8.975,0s6,2.691,6,6-2.691,6-6,6-6-2.691-6-6Zm3,0c0,1.654,1.346,3,3,3s3-1.346,3-3-1.346-3-3-3-3,1.346-3,3Zm3.738,8.087c-.4-.058-.808-.087-1.213-.087C3.813,14,0,17.813,0,22.5c0,.828.671,1.5,1.5,1.5s1.5-.672,1.5-1.5c0-3.032,2.467-5.5,5.5-5.5.263,0,.528.019.787.056.822.124,1.58-.451,1.698-1.271s-.452-1.58-1.272-1.697Z"/>
</svg>
