<?xml version="1.0" encoding="UTF-8"?>
<svg xmlns="http://www.w3.org/2000/svg" id="Layer_1" data-name="Layer 1" viewBox="0 0 24 24">
  <path d="m17.549,10.427c.592.579.603,1.529.023,2.121-.293.301-.683.452-1.072.452-.378,0-.757-.142-1.049-.427l-1.951-1.907v11.835c0,.829-.671,1.5-1.5,1.5s-1.5-.671-1.5-1.5v-11.835l-1.952,1.907c-.592.579-1.542.568-2.121-.024-.579-.592-.568-1.542.024-2.121l3.793-3.707c.962-.963,2.548-.962,3.523.012l3.781,3.695Zm.951-10.427H5.5C2.467,0,0,2.467,0,5.5v17c0,.829.671,1.5,1.5,1.5s1.5-.671,1.5-1.5V5.5c0-1.378,1.122-2.5,2.5-2.5h13c1.379,0,2.5,1.122,2.5,2.5v17c0,.829.672,1.5,1.5,1.5s1.5-.671,1.5-1.5V5.5c0-3.033-2.468-5.5-5.5-5.5Z"/>
</svg>
