<?xml version="1.0" encoding="UTF-8"?>
<svg xmlns="http://www.w3.org/2000/svg" id="Layer_1" data-name="Layer 1" viewBox="0 0 24 24">
  <path d="M12,0C5.383,0,0,5.383,0,12s5.383,12,12,12,12-5.383,12-12S18.617,0,12,0ZM3,12c0-1.941,.624-3.735,1.672-5.206l.767,.767c.293,.293,.677,.439,1.061,.439s.768-.146,1.061-.439c.586-.585,.586-1.536,0-2.121l-.767-.767c1.472-1.049,3.266-1.672,5.206-1.672,4.962,0,9,4.038,9,9,0,1.941-.624,3.735-1.672,5.206l-.536-.536c-.586-.586-1.535-.586-2.121,0-.586,.585-.586,1.536,0,2.121l.536,.536c-1.472,1.049-3.266,1.672-5.206,1.672-4.962,0-9-4.038-9-9Zm6.106-3.999h0c-.757,0-1.281,.586-1.385,1.166l-1.2,5.976c-.089,.443,.25,.857,.702,.857,.345,0,.641-.246,.704-.585l.166-.889h2.006l.157,.883c.061,.342,.358,.591,.705,.591h.01c.453,0,.793-.416,.701-.86l-1.221-5.947c-.12-.668-.589-1.192-1.346-1.192Zm-.645,4.999l.624-3.295,.638,3.295h-1.262Zm9.139,0v-2c0-1.657-1.343-3-3-3h-.6c-.552,0-1,.448-1,1v6c0,.552,.448,1,1,1h.6c1.657,0,3-1.343,3-3Zm-1.6,0c0,.772-.628,1.4-1.4,1.4v-4.8c.772,0,1.4,.628,1.4,1.4v2Z"/>
</svg>
