<?xml version="1.0" encoding="UTF-8"?>
<svg xmlns="http://www.w3.org/2000/svg" id="Layer_1" data-name="Layer 1" viewBox="0 0 24 24">
  <path d="m24,10.586v2.914c0,.829-.672,1.5-1.5,1.5s-1.5-.671-1.5-1.5v-2.914c0-.774-.35-1.492-.959-1.968l-6.501-5.087c-.906-.709-2.174-.709-3.08,0l-6.5,5.086c-.61.477-.96,1.195-.96,1.969v2.914c0,.829-.672,1.5-1.5,1.5s-1.5-.671-1.5-1.5v-2.914c0-1.703.77-3.282,2.111-4.332L8.61,1.169c1.997-1.562,4.784-1.562,6.779,0l6.5,5.086c1.341,1.049,2.11,2.628,2.11,4.331ZM4.518,19.332c-.557-.226-1.077-.464-1.357-.592-.098-.045-.426-.172-.431-.612-.002-.13.102-.438.512-.574.425-.137.827-.045,1.13.087.302.132.656.038.858-.223.276-.357.164-.882-.239-1.086-.546-.277-1.305-.477-2.139-.202-.792.261-1.351.945-1.462,1.785-.105.813.229,1.555.916,2.036.003,0,.833.406,1.743.775.213.086.9.406.812.953-.064.388-.489.79-1.089.79-.379,0-.7-.154-1.014-.344-.284-.171-.648-.124-.883.11-.328.327-.268.869.118,1.124.535.355,1.12.597,1.779.597,1.213,0,2.232-.848,2.421-2.015.142-.877-.223-2.023-1.675-2.611Zm7.281-1.033v3.4c0,1.269-1.031,2.3-2.3,2.3s-2.3-1.031-2.3-2.3v-3.4c0-1.269,1.031-2.3,2.3-2.3s2.3,1.031,2.3,2.3Zm-1.6,0c0-.386-.314-.7-.7-.7s-.7.314-.7.7v3.4c0,.386.314.7.7.7s.7-.314.7-.7v-3.4Zm12.399,0v3.4c0,1.27-1.03,2.3-2.3,2.3h-1.3c-.552,0-1-.448-1-1v-6c0-.552.448-1,1-1h1.3c1.27,0,2.3,1.03,2.3,2.3Zm-1.6,0c0-.386-.314-.7-.7-.7s-.7,0-.7,0v4.802s.314,0,.7,0,.7-.314.7-.7v-3.4Zm-4.801,4.101h-1.599s0-5.601,0-5.601c0-.442-.358-.8-.8-.8h0c-.442,0-.8.358-.8.8v6.401c0,.442.358.8.8.8h2.401c.442,0,.8-.358.8-.8s-.359-.8-.801-.8Z"/>
</svg>
