<?xml version="1.0" encoding="UTF-8"?>
<svg xmlns="http://www.w3.org/2000/svg" id="Layer_1" data-name="Layer 1" viewBox="0 0 24 24">
  <path d="m22.836,0c-2.021.002-6.087.363-9.338,2.671-3.197,2.27-4.585,5.494-5.148,7.331-.513.909-.889,1.905-1.124,2.998h-.226c-1.103,0-2,.897-2,2v.446l-2.814,1.013c-1.616.647-2.517,2.409-2.095,4.099.507,2.027,2.319,3.442,4.409,3.442h7c2.09,0,3.902-1.416,4.409-3.443.422-1.689-.479-3.451-2.145-4.117l-2.765-.995v-.445c0-1.013-.76-1.843-1.737-1.973.002-.009.003-.018.006-.027h-.012c1.59-4.897,5.974-8.919,9.513-9.333-3.154,2.231-5.32,5.233-6.689,7.629,1.939-.285,4.286-.95,6.422-2.467,3.199-2.271,4.883-5.502,5.446-7.338.229-.748-.331-1.492-1.113-1.491Zm-10.136,19.244c.231.092.359.345.3.586-.172.689-.789,1.17-1.499,1.17h-7c-.71,0-1.327-.481-1.499-1.169-.06-.242.068-.494.25-.567l3.757-1.352c.596-.214.992-.779.992-1.412,0,.633.396,1.197.992,1.412l3.707,1.333Z"/>
</svg>
