<?xml version="1.0" encoding="UTF-8"?>
<svg xmlns="http://www.w3.org/2000/svg" id="Layer_1" data-name="Layer 1" viewBox="0 0 24 24">
  <path d="M16,15c0,1.657-1.343,3-3,3s-3-1.343-3-3,1.343-3,3-3,3,1.343,3,3Zm5.982-5.304c-.072-4.734-4.347-8.444-8.982-8.696C7.035,.73,1.966,5.513,1.982,11.503l.018,10c.001,.827,.673,1.497,1.5,1.497h.003c.828-.002,1.499-.674,1.497-1.503l-.018-9.997c0-.878,.159-1.717,.438-2.5h.875c-.19,.634-.295,1.305-.295,2v10.5c0,.828,.671,1.5,1.5,1.5s1.5-.672,1.5-1.5V11c0-.735,.213-1.415,.561-2.008,1.255-.042,2.357-.735,3.102-1.756,.105-.144,.219-.236,.337-.236,2.206,0,4,1.794,4,4v10.5c0,.828,.672,1.5,1.5,1.5s1.5-.672,1.5-1.5V12.979c.939-.502,1.967-1.463,1.982-3.283Z"/>
</svg>
