<?xml version="1.0" encoding="UTF-8"?>
<svg xmlns="http://www.w3.org/2000/svg" id="Layer_1" data-name="Layer 1" viewBox="0 0 24 24">
  <path d="M4,2.5c0-1.381,1.119-2.5,2.5-2.5s2.5,1.119,2.5,2.5-1.119,2.5-2.5,2.5-2.5-1.119-2.5-2.5Zm13.5,2.5c1.381,0,2.5-1.119,2.5-2.5s-1.119-2.5-2.5-2.5-2.5,1.119-2.5,2.5,1.119,2.5,2.5,2.5Zm6.5-1.5v3.5c0,1.103-.897,2-2,2h-.687l1.146,6.016c.128,.771-.078,1.52-.56,2.089-.469,.554-1.151,.872-1.875,.889l-.4,1.317,1.415,2.437c.416,.716,.172,1.634-.544,2.05-.237,.138-.496,.203-.752,.203-.517,0-1.02-.268-1.299-.747l-1.388-2.39-.62,2.068c-.195,.65-.791,1.069-1.436,1.069-.143,0-.288-.021-.432-.063-.793-.238-1.244-1.074-1.005-1.867l1.255-4.185c-.468-.138-.896-.398-1.218-.78-.482-.569-.688-1.318-.566-2.055l1.152-6.05h-5.863l-.625,5h2.3c.629,0,1.229,.302,1.605,.807,.375,.505,.492,1.166,.311,1.769l-1.307,4.355c-.195,.65-.791,1.069-1.436,1.069-.143,0-.288-.021-.432-.063-.793-.237-1.244-1.074-1.005-1.867l.92-3.069h-2.667l1.454,5.088c.228,.797-.234,1.627-1.03,1.854-.138,.039-.276,.058-.413,.058-.652,0-1.253-.429-1.441-1.088l-1.72-6.019c-.242-.847-.309-1.719-.2-2.593l.663-5.301h-1.301c-1.103,0-2-.897-2-2V3.5c0-.829,.671-1.5,1.5-1.5s1.5,.671,1.5,1.5v2.5H21V3.5c0-.829,.671-1.5,1.5-1.5s1.5,.671,1.5,1.5Zm-5.741,5.5h-1.018l-1.144,6h3.305l-1.144-6Z"/>
</svg>
