<?xml version="1.0" encoding="UTF-8"?>
<svg xmlns="http://www.w3.org/2000/svg" id="Layer_1" data-name="Layer 1" viewBox="0 0 24 24">
  <path d="m8,5.186v-2.496c0-.862.552-1.627,1.371-1.898L11.529.076c.306-.101.636-.101.942,0l2.158.716c.818.271,1.371,1.036,1.371,1.898v2.496c0,2.287-1.775,3.801-3.027,4.559-.581.352-1.309.343-1.873-.036-1.256-.843-3.1-2.47-3.1-4.523ZM1.5,13h3.723c1.086,0,2.164-.275,3.117-.796.727-.397.994-1.309.597-2.036-.397-.727-1.31-.993-2.036-.597-.513.28-1.093.429-1.678.429H1.5c-.829,0-1.5.671-1.5,1.5s.671,1.5,1.5,1.5Zm13.593-2.495c-.287.777.11,1.64.888,1.927l.452.167c.722.267,1.479.401,2.248.401h3.819c.828,0,1.5-.671,1.5-1.5s-.672-1.5-1.5-1.5h-3.819c-.414,0-.822-.073-1.21-.216l-.451-.167c-.777-.285-1.64.111-1.927.888Zm7.407,6.495h-3.687c-.176,0-.35.018-.523.044l-4.967-4.898c-.448-.443-1.05-.706-1.697-.675-.631.014-1.238.288-1.667.75l-1.387,1.498c-.676.676-.768,1.72-.218,2.484.33.458.841.746,1.401.791.558.043,1.11-.157,1.516-.565l1.043-1.063,3.264,3.219-2.714,2.118c-.492.385-1.238.385-1.73,0l-3.794-2.961c-.612-.478-1.377-.741-2.153-.741H1.5c-.829,0-1.5.672-1.5,1.5s.671,1.5,1.5,1.5h3.687c.11,0,.22.038.308.106l3.794,2.961c.771.602,1.734.933,2.711.933s1.939-.331,2.711-.933l3.797-2.962c.086-.068.195-.105.306-.105h3.687c.828,0,1.5-.672,1.5-1.5s-.672-1.5-1.5-1.5Z"/>
</svg>
