<?xml version="1.0" encoding="UTF-8"?>
<svg xmlns="http://www.w3.org/2000/svg" id="Layer_1" data-name="Layer 1" viewBox="0 0 24 24">
  <path d="M23.202,10.181c-.333-.385-.745-.682-1.202-.884v-.797c0-2.133-1.221-3.986-3-4.898v-1.602c0-1.103-.897-2-2-2h-2c-1.103,0-2,.897-2,2,0,.491,.24,.951,.643,1.231,.78,.543,1.209,1.064,1.433,1.741,.203,.614,.777,1.028,1.424,1.028,1.378,0,2.5,1.122,2.5,2.5v.5h-5v-.5c0-2.132-1.222-3.981-3-4.893v-1.607c0-1.103-.897-2-2-2h-2c-1.103,0-2,.897-2,2v1.607c-1.778,.912-3,2.761-3,4.893v.806c-.445,.201-.846,.497-1.172,.874C.193,10.915-.09,11.883,.056,12.873l1.006,5.858c.44,3.004,3.106,5.269,6.202,5.269h9.503c3.095,0,5.762-2.265,6.197-5.232l1.016-5.93c.14-.955-.143-1.923-.777-2.657ZM7.5,6h1c1.378,0,2.5,1.122,2.5,2.5v.5H5v-.5c0-1.378,1.122-2.5,2.5-2.5Zm12.5,12.296c-.227,1.542-1.617,2.704-3.234,2.704H7.263c-1.617,0-3.007-1.162-3.239-2.74l-1.006-5.858c-.017-.119,.034-.207,.08-.26s.149-.142,.324-.142H20.608c.175,0,.278,.089,.324,.142s.097,.141,.085,.224l-1.016,5.93Zm-4-2.796v2c0,.828-.671,1.5-1.5,1.5s-1.5-.672-1.5-1.5v-2c0-.828,.671-1.5,1.5-1.5s1.5,.672,1.5,1.5Zm-5,0v2c0,.828-.671,1.5-1.5,1.5s-1.5-.672-1.5-1.5v-2c0-.828,.671-1.5,1.5-1.5s1.5,.672,1.5,1.5Z"/>
</svg>
