<?xml version="1.0" encoding="UTF-8"?>
<svg xmlns="http://www.w3.org/2000/svg" id="Layer_1" data-name="Layer 1" viewBox="0 0 24 24">
  <path d="m19.5,0H4.5C2.015,0,0,2.015,0,4.5v12c0,3.033,2.467,5.5,5.5,5.5h7c.829,0,1.5-.671,1.5-1.5s-.671-1.5-1.5-1.5h-7c-1.378,0-2.5-1.122-2.5-2.5V7h19c1.105,0,2-.895,2-2v-.5c0-2.485-2.015-4.5-4.5-4.5ZM4.5,5c-.828,0-1.5-.672-1.5-1.5s.672-1.5,1.5-1.5,1.5.672,1.5,1.5-.672,1.5-1.5,1.5Zm5,0c-.828,0-1.5-.672-1.5-1.5s.672-1.5,1.5-1.5,1.5.672,1.5,1.5-.672,1.5-1.5,1.5Zm-2.901,4c-.757,0-1.281.587-1.385,1.167l-1.2,5.976c-.089.443.25.857.702.857.345,0,.641-.246.704-.585l.166-.889h2.006l.157.883c.061.342.358.591.705.591h.01c.453,0,.793-.416.701-.86l-1.221-5.947c-.12-.668-.589-1.192-1.346-1.192Zm-.645,5l.624-3.295.638,3.295h-1.261Zm6.346-5h-1.5c-.442,0-.8.358-.8.8v6.4c0,.442.358.8.8.8h1.5c1.27,0,2.3-1.03,2.3-2.3v-3.4c0-1.27-1.03-2.3-2.3-2.3Zm.7,5.7c0,.386-.314.7-.7.7s-.7,0-.7,0v-4.802s.314,0,.7,0,.7.314.7.7v3.4Zm11,3.713c0,1.597-1.055,2.937-2.5,3.4v.686c0,.829-.671,1.5-1.5,1.5s-1.5-.671-1.5-1.5v-.585c-.955-.206-1.8-.8-2.298-1.663-.415-.717-.17-1.635.547-2.049.717-.414,1.635-.169,2.049.547.091.157.253.25.434.25h1.181c.324,0,.587-.263.587-.587,0-.242-.145-.456-.369-.545l-2.376-.95c-1.37-.547-2.255-1.855-2.255-3.331,0-1.597,1.055-2.937,2.5-3.4v-.686c0-.829.671-1.5,1.5-1.5s1.5.671,1.5,1.5v.585c.955.206,1.799.801,2.298,1.664.415.717.17,1.635-.547,2.049-.717.415-1.635.169-2.049-.547-.091-.157-.253-.251-.434-.251h-1.181c-.324,0-.587.263-.587.587,0,.242.145.456.369.545l2.376.95c1.37.547,2.255,1.855,2.255,3.331Z"/>
</svg>
