<?xml version="1.0" encoding="UTF-8"?>
<svg xmlns="http://www.w3.org/2000/svg" id="Layer_1" data-name="Layer 1" viewBox="0 0 24 24">
  <path d="m18.682,5h-1.867c-.591-2.293-2.658-4-5.133-4h-6.363C2.386,1,0,3.386,0,6.318v9.318c0,1.935,1.273,3.56,3.02,4.13-.006.078-.02.154-.02.233,0,1.657,1.343,3,3,3s3-1.343,3-3h6c0,1.657,1.343,3,3,3s3-1.343,3-3c0-.08-.014-.155-.02-.233,1.746-.57,3.02-2.195,3.02-4.13v-5.364c0-2.908-2.386-5.273-5.318-5.273Zm2.318,5.273v.727h-4v-3h1.682c1.3,0,2.318.999,2.318,2.273Zm-16.637,6.727c-.752,0-1.363-.611-1.363-1.363V6.318c0-1.278,1.04-2.318,2.318-2.318h6.363c1.278,0,2.318,1.04,2.318,2.318v10.682H4.363Zm15.273,0h-2.637v-3h4v1.637c0,.752-.611,1.363-1.363,1.363Zm-7.076-8.846c.586.585.586,1.536,0,2.121l-3.043,3.043c-.487.486-1.128.73-1.768.73s-1.28-.244-1.767-.73l-1.544-1.543c-.586-.585-.586-1.536,0-2.121.586-.586,1.535-.586,2.121,0l1.189,1.189,2.689-2.689c.586-.586,1.535-.586,2.121,0Z"/>
</svg>
