<?xml version="1.0" encoding="UTF-8"?>
<svg xmlns="http://www.w3.org/2000/svg" id="Layer_1" data-name="Layer 1" viewBox="0 0 24 24">
  <path d="m23.694,19.761l-2.396-2.396c-.479-.479-1.298-.14-1.298.537v1.098c-.576,0-1.685-2.169-2.157-3.096-1.026-2.008-1.995-3.904-3.843-3.904s-2.816,1.896-3.843,3.904c-.473.926-1.581,3.096-2.157,3.096h-.008c.536-1.357.977-3.167,1.494-5.301.465-1.917,1.285-5.297,2.005-6.442.175.283.432.8.747,1.726.267.785,1.117,1.206,1.903.937.784-.267,1.203-1.119.937-1.903-.409-1.202-1.366-4.017-3.578-4.017-2.748,0-3.711,3.968-4.929,8.992-.397,1.634-.95,3.898-1.449,5.099-.078-.182-.122-.381-.122-.591V4h1.098c.677,0,1.016-.819.537-1.298L4.239.306c-.408-.408-1.07-.408-1.478,0L.365,2.702c-.479.479-.14,1.298.537,1.298h1.098v13.5c0,1.679.935,3.129,2.302,3.902.102.073.213.134.331.18.57.262,1.199.417,1.866.417h13.5v1.098c0,.677.819,1.016,1.298.537l2.396-2.396c.408-.408.408-1.07,0-1.478Zm-10.865-2.492c.318-.624.808-1.582,1.171-2.063.363.481.853,1.439,1.171,2.063.293.574.597,1.166.927,1.731h-4.196c.33-.565.634-1.157.927-1.731Z"/>
</svg>
