<?xml version="1.0" encoding="UTF-8"?>
<svg xmlns="http://www.w3.org/2000/svg" id="Layer_1" data-name="Layer 1" viewBox="0 0 24 24">
  <path d="M13.563,18.847l.49,2.693c.233,1.281-.751,2.46-2.053,2.46s-2.286-1.179-2.053-2.46l.492-2.703c-2.602-.488-4.917-2.156-6.254-4.622-.396-.729-.125-1.639,.604-2.033,.724-.394,1.639-.126,2.033,.604,1.075,1.983,3.06,3.215,5.179,3.215,3.309,0,6-2.916,6-6.5s-2.691-6.5-6-6.5c-1.004,0-1.995,.273-2.868,.79-.711,.423-1.633,.188-2.055-.525-.423-.713-.188-1.633,.525-2.055,1.335-.792,2.856-1.21,4.397-1.21,4.963,0,9,4.262,9,9.5,0,4.675-3.218,8.562-7.437,9.347ZM3.08,4.607l.436-1.09,1.09-.436c.515-.186,.515-.975,0-1.161l-1.09-.436-.436-1.09C2.894-.122,2.106-.122,1.92,.393l-.433,1.084L.404,1.887c-.518,.177-.533,.965-.021,1.16l1.099,.463,.438,1.097c.186,.515,.975,.515,1.161,0Zm1.723,5.422c.223,.618,1.17,.618,1.393,0l.523-1.308,1.308-.523c.618-.223,.618-1.17,0-1.393l-1.308-.523-.523-1.308c-.223-.618-1.17-.618-1.393,0l-.52,1.301-1.299,.492c-.622,.212-.64,1.158-.026,1.392l1.318,.556,.526,1.316Z"/>
</svg>
