<?xml version="1.0" encoding="UTF-8"?>
<svg xmlns="http://www.w3.org/2000/svg" id="Layer_1" data-name="Layer 1" viewBox="0 0 24 24">
  <path d="M12,17c.801,0,1.544-.309,2.026-.568,.486-.263,1.093-.079,1.354,.407,.261,.486,.079,1.093-.407,1.354-.996,.535-1.997,.807-2.974,.807s-1.978-.271-2.974-.807c-.486-.262-.668-.868-.407-1.354s.867-.67,1.354-.407c.482,.26,1.226,.568,2.026,.568Zm5.354,1.51c-1.335,1.582-3.287,2.49-5.354,2.49s-4.003-.9-5.337-2.471c-.536-.631-1.482-.708-2.114-.173-.632,.536-.709,1.483-.173,2.114,1.905,2.243,4.684,3.529,7.624,3.529s5.741-1.296,7.647-3.557c.534-.633,.454-1.579-.179-2.113-.634-.534-1.58-.454-2.114,.18ZM21.803,.439c-.586-.586-1.535-.586-2.121,0-.586,.585-.586,1.536,0,2.121,.85,.85,1.318,1.98,1.318,3.182v.562c-.082-.147-.162-.295-.266-.432-.026-.035-2.117-2.373-2.117-2.373-.554-.618-1.502-.67-2.118-.117-.617,.553-.669,1.501-.117,2.118l1.979,2.211c.215,.326,.174,.767-.105,1.045-.313,.313-.919,.25-1.113,.063l-3.588-4.034c.29-.794,.445-1.619,.445-2.477v-.81c0-.829-.671-1.5-1.5-1.5s-1.5,.671-1.5,1.5v.81c0,1.254-.532,2.396-1.627,3.492-.03,.029-2.469,2.91-2.469,2.91-.323,.295-.799,.359-1.101,.144-.245-.174-.325-.398-.35-.557-.032-.205,.012-.408,.124-.58l2.027-2.202c.561-.61,.522-1.559-.087-2.12-.611-.562-1.559-.521-2.12,.087,0,0-2.158,2.348-2.188,2.388-.082,.109-.14,.229-.208,.344v-.473c0-1.202,.468-2.332,1.318-3.182,.586-.585,.586-1.536,0-2.121C3.732-.146,2.783-.146,2.197,.439,.78,1.856,0,3.739,0,5.743v10.257c0,1.172,1.012,2.111,2.208,1.989,1.041-.106,1.792-1.061,1.792-2.107v-4.638c.651,.463,1.472,.745,2.233,.745,1.018,0,2.042-.405,2.828-1.191,.029-.029,2.735-3.199,2.859-3.338l3.043,3.418c.724,.724,1.685,1.122,2.708,1.122,.858,0,1.663-.294,2.33-.811v4.694c0,1.046,.751,2.001,1.792,2.107,1.196,.122,2.208-.818,2.208-1.989V5.743c0-2.003-.78-3.887-2.197-5.303ZM10.396,12.644c-.389,.126-.892,.356-1.396,.356s-1.007-.23-1.396-.356c-.349-.113-.689,.209-.586,.561,.262,.892,.922,1.795,1.981,1.795s1.719-.903,1.981-1.795c.103-.352-.237-.674-.586-.561Zm4.604,2.356c1.059,0,1.719-.903,1.981-1.795,.103-.352-.237-.674-.586-.561-.389,.126-.892,.356-1.396,.356s-1.007-.23-1.396-.356c-.349-.113-.689,.209-.586,.561,.262,.892,.922,1.795,1.981,1.795Z"/>
</svg>
