<?xml version="1.0" encoding="UTF-8"?>
<svg xmlns="http://www.w3.org/2000/svg" id="Layer_1" data-name="Layer 1" viewBox="0 0 24 24">
  <path d="m2,2.5c0-1.381,1.119-2.5,2.5-2.5s2.5,1.119,2.5,2.5-1.119,2.5-2.5,2.5-2.5-1.119-2.5-2.5Zm20,15.5h-2c-1.105,0-2,.895-2,2v2c0,1.105.895,2,2,2h2c1.105,0,2-.895,2-2v-2c0-1.105-.895-2-2-2Zm-8,0h-2c-1.105,0-2,.895-2,2v2c0,1.105.895,2,2,2h2c1.105,0,2-.895,2-2v-2c0-1.105-.895-2-2-2Zm6-4v-2c0-1.105-.895-2-2-2h-2c-1.105,0-2,.895-2,2v2c0,1.105.895,2,2,2h2c1.105,0,2-.895,2-2Zm-13.5-3c-.829,0-1.5.672-1.5,1.5v2.5h-.5c-.827,0-1.5-.673-1.5-1.5v-3c0-.827.673-1.5,1.5-1.5h8c.829,0,1.5-.672,1.5-1.5s-.671-1.5-1.5-1.5H4.5c-2.481,0-4.5,2.019-4.5,4.5v3c0,1.557.795,2.93,2,3.738v4.762c0,1.103.897,2,2,2h2c1.103,0,2-.897,2-2v-9.5c0-.828-.671-1.5-1.5-1.5Z"/>
</svg>
