<?xml version="1.0" encoding="UTF-8"?>
<svg xmlns="http://www.w3.org/2000/svg" id="Layer_1" data-name="Layer 1" viewBox="0 0 24 24">
  <path d="M7.009,23.069c-1.092,0-2.216-.261-3.306-.786-1.039-.5-1.919-1.262-2.545-2.202C-2.382,14.768,2.839,7.568,8.904,2.604c1.793-1.468,4.396-1.469,6.191,0,6.065,4.965,11.286,12.164,7.745,17.479-.625,.939-1.505,1.701-2.544,2.201-2.321,1.118-4.797,1.041-6.79-.212-.577-.363-1.083-.81-1.507-1.322-.424,.512-.93,.959-1.507,1.322-1.058,.665-2.25,.999-3.484,.999ZM12,4.5c-.425,0-.849,.142-1.195,.425C6.926,8.1,1.055,14.515,3.655,18.419c.328,.493,.795,.894,1.349,1.161,1.374,.661,2.793,.642,3.893-.049,1.02-.64,1.604-1.745,1.604-3.031,0-.829,.672-1.5,1.5-1.5s1.5,.671,1.5,1.5c0,1.286,.584,2.391,1.604,3.031,1.1,.692,2.519,.711,3.893,.049,.554-.267,1.021-.668,1.348-1.161,2.602-3.904-3.27-10.319-7.148-13.495-.346-.283-.771-.425-1.195-.425Z"/>
</svg>
