<?xml version="1.0" encoding="UTF-8"?>
<svg xmlns="http://www.w3.org/2000/svg" id="Layer_1" data-name="Layer 1" viewBox="0 0 24 24">
  <path d="M21.856,16.415l-3.856,4.629v1.457c0,.829-.672,1.5-1.5,1.5s-1.5-.671-1.5-1.5v-.5h-6v.5c0,.829-.672,1.5-1.5,1.5s-1.5-.671-1.5-1.5v-1.457l-3.857-4.629c-.977-1.125-.76-2.989,.451-3.859l3.006-2.255c.665-.497,1.604-.362,2.101,.3,.497,.663,.362,1.603-.3,2.1l-2.737,2.053,3.539,4.247h7.596l3.539-4.247-2.737-2.053c-.662-.497-.797-1.437-.3-2.1,.498-.662,1.438-.797,2.101-.3l3.007,2.255c1.21,.87,1.428,2.734,.449,3.859ZM4.515,5.678c.193,.361,.679,.432,.968,.143l1.363-1.437,1.142,2.32c.172,.345,.641,.4,.888,.104,.097-.116,.14-.269,.118-.419l-.729-4.909c-.095-.468-.672-.642-1.009-.304l-1.428,1.428L4.862,.363c-.193-.399-.721-.488-1.034-.175l-.979,.979c-.233,.234-.292,.59-.145,.886l1.812,3.624Zm11.496,1.026l1.142-2.32,1.363,1.437c.289,.289,.775,.217,.968-.143l1.812-3.624c.147-.296,.088-.652-.145-.886l-.979-.979c-.313-.313-.842-.224-1.034,.175l-.966,2.24-1.428-1.428c-.337-.337-.914-.163-1.009,.304l-.729,4.909c-.022,.15,.021,.302,.118,.419,.247,.296,.716,.241,.888-.104Zm-2.87,6.938c-.67,.468-1.613,.468-2.283,0-.678-.474-1.614-.309-2.088,.371-.475,.679-.309,1.614,.371,2.089,.841,.587,1.829,.897,2.858,.897s2.018-.311,2.858-.897c.68-.475,.846-1.41,.371-2.089-.473-.68-1.411-.844-2.088-.371Zm-4.371-3.656c.474,.679,1.411,.845,2.088,.371,.67-.468,1.613-.468,2.283,0,.261,.183,.561,.27,.857,.27,.474,0,.939-.224,1.23-.641,.475-.679,.309-1.614-.371-2.089-1.682-1.174-4.035-1.174-5.717,0-.68,.475-.846,1.41-.371,2.089Z"/>
</svg>
