<?xml version="1.0" encoding="UTF-8"?>
<svg xmlns="http://www.w3.org/2000/svg" id="Layer_1" data-name="Layer 1" viewBox="0 0 24 24">
  <path d="m10.5,12c0,.829.671,1.5,1.5,1.5h9.44c.708,0,1.386-.302,1.859-.83.478-.531.708-1.242.632-1.952C23.282,4.608,18.152,0,12,0,5.383,0,0,5.383,0,12s5.383,12,12,12c4.406,0,8.45-2.408,10.554-6.285.396-.728.125-1.639-.604-2.034-.726-.395-1.638-.126-2.033.603-1.186,2.186-3.194,3.748-5.521,4.39-.296,1.05-1.251,1.825-2.396,1.825s-2.106-.779-2.399-1.835c-3.8-1.054-6.601-4.535-6.601-8.665,0-1.638.447-3.17,1.214-4.494-.136-.308-.214-.647-.214-1.006,0-1.381,1.119-2.5,2.5-2.5.359,0,.698.078,1.006.214,1.324-.768,2.857-1.214,4.494-1.214s3.18.438,4.51,1.206c.304-.131.638-.206.99-.206,1.381,0,2.5,1.119,2.5,2.5,0,.351-.074.684-.204.988.526.911.899,1.926,1.08,3.012h-2.042c-.126-.574-.344-1.11-.601-1.622-.233.072-.476.122-.733.122-1.381,0-2.5-1.119-2.5-2.5,0-.259.051-.504.124-.739-.943-.475-1.997-.761-3.124-.761s-2.185.273-3.128.747c.076.239.128.489.128.753,0,1.381-1.119,2.5-2.5,2.5-.264,0-.514-.052-.753-.128-.474.943-.747,2.003-.747,3.128,0,3.124,2.058,5.775,4.889,6.673.443-.703,1.22-1.173,2.111-1.173s1.667.469,2.11,1.17c.158-.05.317-.1.472-.162.771-.306,1.147-1.177.842-1.947-.306-.771-1.178-1.146-1.947-.842-.47.187-.966.281-1.477.281-2.206,0-4-1.794-4-4s1.794-4,4-4c1.675,0,3.107,1.037,3.703,2.5h-3.703c-.829,0-1.5.671-1.5,1.5Z"/>
</svg>
