<?xml version="1.0" encoding="UTF-8"?>
<svg xmlns="http://www.w3.org/2000/svg" id="Layer_1" data-name="Layer 1" viewBox="0 0 24 24">
  <path d="M18.5,2H5.5C2.467,2,0,4.468,0,7.5v9c0,3.032,2.467,5.5,5.5,5.5h13c3.032,0,5.5-2.468,5.5-5.5V7.5c0-3.032-2.468-5.5-5.5-5.5Zm2.5,14.5c0,1.379-1.121,2.5-2.5,2.5H5.5c-1.378,0-2.5-1.121-2.5-2.5V7.5c0-1.379,1.122-2.5,2.5-2.5h13c1.379,0,2.5,1.121,2.5,2.5v9ZM5.6,9.6v1.801h.601c.442,0,.8,.358,.8,.8s-.358,.8-.8,.8h-.601v2.2c0,.442-.358,.8-.8,.8s-.8-.358-.8-.8v-6.4c0-.442,.358-.8,.8-.8h1.4c.442,0,.8,.358,.8,.8s-.358,.8-.8,.8h-.601Zm13,0v1.601h.601c.442,0,.8,.358,.8,.8s-.358,.8-.8,.8h-.601v1.601h.601c.442,0,.8,.358,.8,.8s-.358,.8-.8,.8h-1.4c-.442,0-.8-.358-.8-.8v-6.4c0-.442,.358-.8,.8-.8h1.4c.442,0,.8,.358,.8,.8s-.358,.8-.8,.8h-.601Zm-4,0v1.601h.601c.442,0,.8,.358,.8,.8s-.358,.8-.8,.8h-.601v1.601h.601c.442,0,.8,.358,.8,.8s-.358,.8-.8,.8h-1.4c-.442,0-.8-.358-.8-.8v-6.4c0-.442,.358-.8,.8-.8h1.4c.442,0,.8,.358,.8,.8s-.358,.8-.8,.8h-.601Zm-2.1,.848c-.028-1.37-1.187-2.447-2.556-2.447h-1.143c-.442,0-.8,.358-.8,.8v6.4c0,.442,.358,.8,.8,.8h0c.442,0,.8-.358,.8-.8v-2.2h.284l.705,2.423c.099,.342,.412,.577,.768,.577h.063c.537,0,.922-.519,.765-1.033l-.739-2.43c.023-.017,.024-.016,.042-.029-.019,.012-.031,.021-.055,.035,.657-.462,1.084-1.229,1.066-2.097Zm-2.499,.953h-.4v-1.8h.4c.496,0,.9,.404,.9,.9s-.404,.9-.9,.9Z"/>
</svg>
