<?xml version="1.0" encoding="UTF-8"?>
<svg xmlns="http://www.w3.org/2000/svg" id="Layer_1" data-name="Layer 1" viewBox="0 0 24 24">
  <path d="M19.687,15c-1.6,0-2.836,.918-3.687,1.861-.851-.944-2.086-1.861-3.687-1.861-2.379,0-4.313,2.019-4.313,4.5s1.935,4.5,4.313,4.5c1.6,0,2.836-.918,3.687-1.861,.851,.944,2.086,1.861,3.687,1.861,2.379,0,4.313-2.019,4.313-4.5s-1.935-4.5-4.313-4.5Zm-7.373,6c-.725,0-1.313-.673-1.313-1.5s.589-1.5,1.313-1.5,1.472,.801,1.949,1.5c-.478,.699-1.228,1.5-1.949,1.5Zm7.373,0c-.722,0-1.472-.801-1.949-1.5,.478-.699,1.228-1.5,1.949-1.5s1.313,.673,1.313,1.5-.589,1.5-1.313,1.5Zm4.313-13.5v4.5c0,.829-.672,1.5-1.5,1.5s-1.5-.671-1.5-1.5V7.5c0-.171-.018-.338-.051-.5H3v9.626c0,1.142,.771,2.138,1.874,2.422,.803,.206,1.285,1.024,1.078,1.826-.174,.677-.783,1.126-1.451,1.126-.124,0-.25-.015-.375-.048-2.43-.625-4.126-2.815-4.126-5.326V5.5C0,2.467,2.468,0,5.5,0h2.528c.54,0,1.081,.128,1.564,.369l3.156,1.578c.068,.035,.146,.053,.223,.053h5.528c3.032,0,5.5,2.467,5.5,5.5Z"/>
</svg>
