<?xml version="1.0" encoding="UTF-8"?>
<svg xmlns="http://www.w3.org/2000/svg" id="Layer_1" data-name="Layer 1" viewBox="0 0 24 24">
  <path d="m12.76,10.469l-1.072-5.253c-.101-.496.278-.96.784-.96.38,0,.708.268.784.64l1.072,5.253c.013.065.031.117.05.159.02-.047.042-.109.057-.188l1.053-5.222c.075-.373.403-.642.784-.642.505,0,.884.463.784.958l-1.051,5.211c-.126.647-.506,1.575-1.628,1.575s-1.51-.97-1.618-1.531Zm-4.26-4.869c.408,0,.753.272.863.645.024.081.027.755.833.755s.815-.699.804-.796c-.146-1.241-1.219-2.204-2.5-2.204-1.381,0-2.5,1.119-2.5,2.5v3c0,1.381,1.119,2.5,2.5,2.5,1.278,0,2.35-.958,2.5-2.196.012-.1-.032-.804-.799-.804s-.813.669-.835.747c-.108.376-.455.653-.866.653-.496,0-.9-.404-.9-.9v-3c0-.496.404-.9.9-.9Zm13.5-.1v10.343c0,1.47-.572,2.851-1.611,3.89l-2.657,2.656c-1.039,1.039-2.42,1.611-3.889,1.611h-6.343c-3.033,0-5.5-2.468-5.5-5.5V5.5C2,2.468,4.467,0,7.5,0h9c3.033,0,5.5,2.468,5.5,5.5Zm-14.5,15.5h5.5v-4c0-1.105.895-2,2-2h4V5.5c0-1.379-1.122-2.5-2.5-2.5H7.5c-1.378,0-2.5,1.121-2.5,2.5v13c0,1.379,1.122,2.5,2.5,2.5Z"/>
</svg>
