<?xml version="1.0" encoding="UTF-8"?>
<svg xmlns="http://www.w3.org/2000/svg" id="Layer_1" data-name="Layer 1" viewBox="0 0 24 24">
  <path d="m9,17.5c0,.829-.671,1.5-1.5,1.5h-2c-.829,0-1.5-.671-1.5-1.5s.671-1.5,1.5-1.5h2c.829,0,1.5.671,1.5,1.5Zm15-12v15c0,1.93-1.57,3.5-3.5,3.5h-3.087c-.746,0-1.439-.337-1.903-.924-.455-.577-.618-1.314-.448-2.023.553-2.309,2.01-4.15,3.43-5.474-1.84-1.001-3.972-2.679-5.491-5.44v10.362c0,1.93-1.57,3.5-3.5,3.5H3.5c-1.93,0-3.5-1.57-3.5-3.5V5.5C0,2.467,2.467,0,5.5,0h13c3.032,0,5.5,2.467,5.5,5.5Zm-21,0v5.5h7V3h-4.5c-1.378,0-2.5,1.122-2.5,2.5Zm7,15v-6.5H3v6.5c0,.276.224.5.5.5h6c.276,0,.5-.224.5-.5Zm11-7.007v-7.993c0-1.207-.86-2.217-2-2.449v4.254c0,.703-.914.978-1.303.392-.803-1.208-1.403-2.756-1.611-4.697h-2.013c.523,6.885,4.547,9.531,6.928,10.493Zm0,3.863c-1.05.888-2.203,2.13-2.786,3.643h2.286c.275,0,.5-.224.5-.5v-3.143Z"/>
</svg>
