<?xml version="1.0" encoding="UTF-8"?>
<svg xmlns="http://www.w3.org/2000/svg" id="Layer_1" data-name="Layer 1" viewBox="0 0 24 24">
  <path d="m17,8.315V3.5c0-.275-.079-.529-.208-.75-.226-.549-.624-1.02-1.174-1.295l-2.276-1.138c-.845-.422-1.839-.422-2.683,0l-2.276,1.138c-.55.275-.948.746-1.174,1.295-.129.221-.208.476-.208.75v4.815l-2.872,11.488c-.254,1.016-.029,2.071.615,2.897.645.825,1.615,1.299,2.662,1.299h9.189c1.047,0,2.018-.474,2.662-1.299.645-.826.869-1.882.615-2.898l-2.872-11.487Zm-3-3.315v2h-4v-2h4Zm2.893,15.854c-.052.066-.146.146-.298.146h-2.595v-2c0-1.105-.895-2-2-2s-2,.895-2,2v2h-2.595c-.152,0-.246-.079-.298-.146s-.106-.177-.069-.323l2.633-10.531h4.658l2.633,10.53c.037.147-.018.258-.069.324Zm6.949-11.684c-.263.525-.793.829-1.343.829-.226,0-.454-.051-.67-.158l-2-1c-.741-.371-1.041-1.271-.671-2.013.371-.74,1.272-1.039,2.013-.671l2,1c.741.371,1.041,1.271.671,2.013ZM.158.829C.529.089,1.43-.21,2.171.158l2,1c.741.371,1.041,1.271.671,2.013-.263.525-.793.829-1.343.829-.226,0-.454-.051-.67-.158L.829,2.842C.088,2.471-.212,1.57.158.829Zm19,2.342c-.37-.741-.07-1.642.671-2.013l2-1c.743-.368,1.643-.069,2.013.671.37.741.07,1.642-.671,2.013l-2,1c-.216.107-.444.158-.67.158-.55,0-1.08-.304-1.343-.829Zm-14.987,5.671l-2,1c-.216.107-.444.158-.67.158-.55,0-1.08-.304-1.343-.829-.37-.741-.07-1.642.671-2.013l2-1c.742-.368,1.643-.069,2.013.671.37.741.07,1.642-.671,2.013Z"/>
</svg>
