<?xml version="1.0" encoding="UTF-8"?>
<svg xmlns="http://www.w3.org/2000/svg" id="Layer_1" data-name="Layer 1" viewBox="0 0 24 24">
  <path d="M23,8c0-1.105-.895-2-2-2h0c-1.326-.994-2.794-1.783-4.355-2.338l-2.153-.766,.004-.616c.003-.487-.239-.942-.644-1.212-.51-.34-1.179-.322-1.67,.046l-1.181,.886h-1l-.92-1.329c-.298-.43-.781-.671-1.281-.671-.308-.016-.681,.151-.968,.26-.597,.228-.999,.799-1,1.438,0,.468,.177,1.266-.024,1.34-.27,.067-.499-.234-.749-.57-.223-.318-.577-.492-.937-.492-.595-.015-1.137,.525-1.122,1.127v2.396l-1.284,.963c-.45,.338-.716,.868-.716,1.431,0,.678,.383,1.297,.989,1.6,.417,.204,.953,.534,1.433,.506h2.578v1c0,.552,.448,1,1,1h1v1c0,.5,.5,1,1,1v1.257c0,.796,.316,1.559,.879,2.121l1.121,1.121v1s-.961,.586-1.5,1c-.586,.45-.673,1.315-.175,1.86,.354,.388,1.093,.94,1.502,1.271,.628,.509,1.55,.498,2.14-.07,.777-.749,1.878-2.416,2.322-4.16,.366-1.315,.856-2.232,2.212-2.401,.383-.048,2.5-1.383,2.5-4.5v-.5c.341-.341,1.489-1.12,2.268-1.758,.465-.38,.732-.947,.732-1.548v-.694Zm-5.121,1.879c-.563,.563-.879,1.326-.879,2.121v.5c0,.928-.343,1.429-.549,1.646-1.635,.394-2.61,1.388-3.203,2.368-.031-.045-1.176-1.182-1.248-1.256v-1.257c0-.893-.39-1.695-1.01-2.245-.101-1.245-.962-2.276-2.119-2.627-.373-1.232-1.518-2.129-2.871-2.129h-.402c.17-.295,.29-.618,.352-.956,.302-.02,.598-.083,.883-.186,.572-.208,1.187-.593,1.594-1.303,.466,.287,1.01,.446,1.573,.446h1c.397,0,.788-.079,1.15-.229,.341,.425,.798,.76,1.336,.951l2.153,.766c1.278,.455,2.476,1.098,3.561,1.912,.094,.07,.191,.135,.292,.193-.062,.046-1.286,.958-1.613,1.285Z"/>
</svg>
