<?xml version="1.0" encoding="UTF-8"?>
<svg xmlns="http://www.w3.org/2000/svg" id="Layer_1" data-name="Layer 1" viewBox="0 0 24 24">
  <path d="m2.5,2.5c0-1.381,1.119-2.5,2.5-2.5s2.5,1.119,2.5,2.5-1.119,2.5-2.5,2.5-2.5-1.119-2.5-2.5Zm16.5,2.5c1.381,0,2.5-1.119,2.5-2.5s-1.119-2.5-2.5-2.5-2.5,1.119-2.5,2.5,1.119,2.5,2.5,2.5Zm.5,1h-1c-.828,0-1.5.671-1.5,1.5s.672,1.5,1.5,1.5h1c.827,0,1.5.673,1.5,1.5v3c0,.635-.401,1.204-1,1.415-.164.058-.307.146-.435.249-.375.214-.626.617-.582,1.074.076.795-.188,1.615-.793,2.222l-2.189,2.189v1.351c0,1.105.895,2,2,2h2c1.105,0,2-.895,2-2v-4.773c1.223-.823,2-2.206,2-3.727v-3c0-2.481-2.019-4.5-4.5-4.5Zm-12.273,5.048l2.451,2.451c.488.488,1.322.142,1.322-.548v-.951h3.5c.828,0,1.5-.671,1.5-1.5s-.672-1.5-1.5-1.5h-3.5v-.951c0-.69-.834-1.036-1.322-.548l-2.451,2.451c-.302.302-.302.793,0,1.096Zm9.546,4.904l-2.451-2.451c-.488-.488-1.322-.142-1.322.548v.951h-3.5c-.828,0-1.5.671-1.5,1.5s.672,1.5,1.5,1.5h3.5v.951c0,.69.834,1.036,1.322.548l2.451-2.451c.302-.303.302-.793,0-1.096Zm-10.773.548c0-.829-.672-1.5-1.5-1.5s-1.5-.673-1.5-1.5v-3c0-.827.673-1.5,1.5-1.5h1c.828,0,1.5-.671,1.5-1.5s-.672-1.5-1.5-1.5h-1c-2.481,0-4.5,2.019-4.5,4.5v3c0,1.557.795,2.93,2,3.738v4.762c0,1.105.895,2,2,2h2c1.105,0,2-.895,2-2v-2.35c-1.179-.563-2-1.756-2-3.15Z"/>
</svg>
