<?xml version="1.0" encoding="UTF-8"?>
<svg xmlns="http://www.w3.org/2000/svg" id="Layer_1" data-name="Layer 1" viewBox="0 0 24 24">
  <path d="M15.219,11.024c.769,.308,1.143,1.181,.835,1.95l-2,5c-.234,.587-.798,.943-1.393,.943-.186,0-.374-.034-.557-.107-.769-.308-1.143-1.181-.835-1.949l2-5.001c.308-.77,1.182-1.144,1.95-.835Zm-5,0c-.769-.309-1.643,.066-1.95,.835l-2,5.001c-.308,.769,.066,1.642,.835,1.949,.183,.073,.371,.107,.557,.107,.595,0,1.159-.356,1.393-.943l2-5c.308-.769-.066-1.642-.835-1.95Zm13.579,10.321c-.416-.717-1.334-.959-2.05-.545-.537,.312-1.264,.236-1.805-.147-1.161-.828-2.722-.827-3.883,0-.623,.443-1.495,.442-2.117,0-1.161-.828-2.722-.827-3.883,0-.623,.443-1.495,.442-2.117,0-1.161-.828-2.722-.827-3.883,0-.542,.385-1.27,.46-1.806,.148-.716-.413-1.634-.172-2.05,.545s-.172,1.635,.544,2.051c1.53,.888,3.571,.753,5.05-.3,.127-.09,.275-.092,.406,0,1.639,1.164,3.955,1.165,5.594,0,.128-.09,.274-.092,.406,0,1.639,1.164,3.955,1.165,5.594,0,.128-.09,.275-.092,.406,0,.819,.582,1.813,.903,2.797,.903,.792,0,1.571-.209,2.253-.604,.716-.416,.96-1.334,.544-2.051ZM5.125,15.177c.65-.515,.76-1.458,.246-2.107-.243-.307-.371-.677-.371-1.069,0-.595,.303-1.143,.81-1.465,1.01-.642,1.522-1.853,1.272-3.016-.119-.55-.108-1.116,.03-1.682,.349-1.426,1.602-2.575,3.046-2.792,1.757-.263,3.43,.698,4.072,2.34,.343,.879,1.094,1.521,2.007,1.715,1.601,.342,2.763,1.771,2.763,3.399,0,1.112-.516,2.13-1.414,2.792-.667,.491-.81,1.431-.318,2.098,.294,.399,.748,.61,1.208,.61,.309,0,.621-.095,.889-.292,1.65-1.216,2.635-3.163,2.635-5.208,0-2.993-2.102-5.625-5.016-6.306C15.8,1.298,12.824-.39,9.711,.078c-2.658,.401-4.874,2.429-5.513,5.047-.239,.977-.262,1.96-.069,2.924-1.334,.882-2.128,2.352-2.128,3.95,0,1.075,.352,2.089,1.019,2.931,.514,.649,1.458,.76,2.107,.246Z"/>
</svg>
