<?xml version="1.0" encoding="UTF-8"?>
<svg xmlns="http://www.w3.org/2000/svg" id="Layer_1" data-name="Layer 1" viewBox="0 0 24 24">
  <path d="m6.5,0C2.916,0,0,2.916,0,6.5s2.916,6.5,6.5,6.5,6.5-2.916,6.5-6.5S10.084,0,6.5,0Zm0,10c-1.93,0-3.5-1.57-3.5-3.5s1.57-3.5,3.5-3.5,3.5,1.57,3.5,3.5-1.57,3.5-3.5,3.5Zm17.5-2.5v1c0,.828-.672,1.5-1.5,1.5s-1.5-.672-1.5-1.5v-1c0-.827-.673-1.5-1.5-1.5h-.5v1.53c0,.863-1.043,1.295-1.653.685l-3.063-3.063c-.378-.378-.378-.991,0-1.369l3.063-3.063c.61-.61,1.653-.178,1.653.685v1.597h.5c2.481,0,4.5,2.019,4.5,4.5Zm-3.5,4.5h-5c-1.93,0-3.5,1.57-3.5,3.5v5c0,1.93,1.57,3.5,3.5,3.5h5c1.93,0,3.5-1.57,3.5-3.5v-5c0-1.93-1.57-3.5-3.5-3.5Zm.5,8.5c0,.275-.225.5-.5.5h-5c-.275,0-.5-.225-.5-.5v-5c0-.275.225-.5.5-.5h5c.275,0,.5.225.5.5v5Zm-11.284-1.718c.378.378.378.991,0,1.369l-3.063,3.063c-.61.61-1.653.178-1.653-.685v-1.53h-.5c-2.481,0-4.5-2.019-4.5-4.5v-1c0-.828.672-1.5,1.5-1.5s1.5.672,1.5,1.5v1c0,.827.673,1.5,1.5,1.5h.5v-1.597c0-.863,1.043-1.295,1.653-.685l3.063,3.063Z"/>
</svg>
