<?xml version="1.0" encoding="UTF-8"?>
<svg xmlns="http://www.w3.org/2000/svg" id="Layer_1" data-name="Layer 1" viewBox="0 0 24 24">
  <path d="m6.561,11.061l-.935.935.935.935c.586.586.586,1.535,0,2.121-.292.293-.677.439-1.061.439s-.768-.146-1.061-.439l-.935-.935-.935.935c-.293.293-.677.439-1.061.439s-.768-.146-1.061-.439c-.586-.586-.586-1.535,0-2.121l.935-.935-.935-.935c-.586-.585-.586-1.535,0-2.121.585-.586,1.535-.586,2.121,0l.935.935.935-.935c.586-.586,1.535-.586,2.121,0s.586,1.536,0,2.121ZM1.5,7c.829,0,1.5-.671,1.5-1.5,0-1.378,1.122-2.5,2.5-2.5h2c.829,0,1.5-.671,1.5-1.5s-.671-1.5-1.5-1.5h-2C2.467,0,0,2.467,0,5.5c0,.829.671,1.5,1.5,1.5Zm15-4h2c1.378,0,2.5,1.122,2.5,2.5,0,.829.671,1.5,1.5,1.5s1.5-.671,1.5-1.5c0-3.033-2.467-5.5-5.5-5.5h-2c-.829,0-1.5.671-1.5,1.5s.671,1.5,1.5,1.5Zm6,14c-.829,0-1.5.672-1.5,1.5,0,1.379-1.122,2.5-2.5,2.5h-2c-.829,0-1.5.672-1.5,1.5s.671,1.5,1.5,1.5h2c3.033,0,5.5-2.468,5.5-5.5,0-.828-.671-1.5-1.5-1.5Zm-15,4h-2c-1.378,0-2.5-1.121-2.5-2.5,0-.828-.671-1.5-1.5-1.5s-1.5.672-1.5,1.5c0,3.032,2.467,5.5,5.5,5.5h2c.829,0,1.5-.672,1.5-1.5s-.671-1.5-1.5-1.5Zm16.061-12.061c-.586-.586-1.535-.586-2.121,0l-.935.935-.935-.935c-.586-.586-1.536-.586-2.121,0-.586.586-.586,1.536,0,2.121l.935.935-.935.935c-.586.586-.586,1.535,0,2.121.293.293.677.439,1.061.439s.768-.146,1.061-.439l.935-.935.935.935c.293.293.677.439,1.061.439s.768-.146,1.061-.439c.586-.586.586-1.535,0-2.121l-.935-.935.935-.935c.586-.585.586-1.535,0-2.121Zm-8.5,3.991l-.935-.935.935-.935c.586-.585.586-1.535,0-2.121s-1.535-.586-2.121,0l-.935.935-.935-.935c-.586-.586-1.536-.586-2.121,0-.586.586-.586,1.536,0,2.121l.935.935-.935.935c-.586.586-.586,1.535,0,2.121.293.293.677.439,1.061.439s.768-.146,1.061-.439l.935-.935.935.935c.293.293.677.439,1.061.439s.768-.146,1.061-.439c.586-.586.586-1.535,0-2.121Z"/>
</svg>
