<?xml version="1.0" encoding="UTF-8"?>
<svg xmlns="http://www.w3.org/2000/svg" id="Layer_1" data-name="Layer 1" viewBox="0 0 24 24">
  <path d="M1,7.5v-2.999C.93,1.744,3.696-.523,6.386,.089l3.5,.704c.81,.163,1.53,.544,2.114,1.069,.583-.525,1.303-.906,2.113-1.069L17.613,.089c2.691-.611,5.456,1.654,5.387,4.412v2.999c0,.829-.671,1.5-1.5,1.5s-1.5-.671-1.5-1.5v-2.999c.023-.919-.897-1.675-1.796-1.471l-3.5,.704c-.698,.14-1.204,.758-1.204,1.47v2.296c0,.829-.671,1.5-1.5,1.5s-1.5-.671-1.5-1.5v-2.296c0-.712-.506-1.33-1.204-1.47l-3.5-.704c-.898-.205-1.818,.552-1.795,1.471v2.999c0,.829-.671,1.5-1.5,1.5s-1.5-.671-1.5-1.5Zm22.998,6.433c-.93,5.739-6.088,10.067-11.997,10.067h-.001c-5.892,0-11.036-4.328-11.967-10.066-.278-1.486,.987-2.97,2.498-2.934H21.5c1.51-.037,2.776,1.448,2.498,2.933Zm-14.357,.067c.381,2.468,1.488,4.601,2.357,5.955,.869-1.358,1.978-3.495,2.362-5.955h-4.718Zm-.864,6.404c-.92-1.659-1.852-3.879-2.163-6.404H3.101c.679,2.96,2.875,5.344,5.676,6.404Zm12.153-6.404h-3.543c-.312,2.528-1.246,4.75-2.166,6.41,2.819-1.056,5.029-3.445,5.71-6.41Z"/>
</svg>
