<?xml version="1.0" encoding="UTF-8"?>
<svg xmlns="http://www.w3.org/2000/svg" id="Layer_1" data-name="Layer 1" viewBox="0 0 24 24">
  <path d="m7,23.25h0c0,.414-.362.75-.808.75H.808C.362,24,0,23.664,0,23.25h0c0-1.795,1.567-3.25,3.5-3.25h0c1.933,0,3.5,1.455,3.5,3.25Zm13.5-3.25h0c-1.933,0-3.5,1.455-3.5,3.25h0c0,.414.362.75.808.75h5.385c.446,0,.808-.336.808-.75h0c0-1.795-1.567-3.25-3.5-3.25Zm-8.5,0c-1.795,0-3.5,1.455-3.5,3.25,0,.414.336.75.75.75h5.5c.414,0,.75-.336.75-.75,0-1.795-1.705-3.25-3.5-3.25Zm8.5-1c1.381,0,2.5-1.119,2.5-2.5s-1.119-2.5-2.5-2.5-2.5,1.119-2.5,2.5,1.119,2.5,2.5,2.5Zm-8.5,0c1.381,0,2.5-1.119,2.5-2.5s-1.119-2.5-2.5-2.5-2.5,1.119-2.5,2.5,1.119,2.5,2.5,2.5Zm-8.5,0c1.381,0,2.5-1.119,2.5-2.5s-1.119-2.5-2.5-2.5-2.5,1.119-2.5,2.5,1.119,2.5,2.5,2.5Zm20.5-8.5v-5C24,2.468,21.533,0,18.5,0H5.5C2.467,0,0,2.468,0,5.5v5C0,11.328.671,12,1.5,12s1.5-.672,1.5-1.5v-5c0-1.379,1.122-2.5,2.5-2.5h13c1.378,0,2.5,1.121,2.5,2.5v5c0,.828.671,1.5,1.5,1.5s1.5-.672,1.5-1.5Z"/>
</svg>
