<?xml version="1.0" encoding="UTF-8"?>
<svg xmlns="http://www.w3.org/2000/svg" id="Layer_1" data-name="Layer 1" viewBox="0 0 24 24">
  <path d="m1.5,18c0-1.105.895-2,2-2s2,.895,2,2-.895,2-2,2-2-.895-2-2Zm10.5-2c-1.105,0-2,.895-2,2s.895,2,2,2,2-.895,2-2-.895-2-2-2Zm0-12c1.105,0,2-.895,2-2s-.895-2-2-2-2,.895-2,2,.895,2,2,2Zm8.5,12c-1.105,0-2,.895-2,2s.895,2,2,2,2-.895,2-2-.895-2-2-2Zm-17-1c.829,0,1.5-.672,1.5-1.5s.673-1.5,1.5-1.5h4v1.5c0,.828.671,1.5,1.5,1.5s1.5-.672,1.5-1.5v-1.5h4c.827,0,1.5.673,1.5,1.5s.671,1.5,1.5,1.5,1.5-.672,1.5-1.5c0-2.481-2.019-4.5-4.5-4.5H6.5c-2.481,0-4.5,2.019-4.5,4.5,0,.828.671,1.5,1.5,1.5Zm20.469,8.315c-.512-1.348-1.866-2.315-3.469-2.315s-2.957.966-3.469,2.315c-.127.333.151.685.525.685h5.887c.375,0,.652-.352.525-.685Zm-20.469-2.315c-1.603,0-2.957.966-3.469,2.315-.127.333.151.685.525.685h5.887c.375,0,.652-.352.525-.685-.512-1.348-1.866-2.315-3.469-2.315Zm8.5,0c-1.603,0-2.957.966-3.469,2.315-.127.333.151.685.525.685h5.887c.375,0,.652-.352.525-.685-.512-1.348-1.866-2.315-3.469-2.315Zm-2.944-13h5.887c.375,0,.652-.352.525-.685-.512-1.348-1.866-2.315-3.469-2.315s-2.957.966-3.469,2.315c-.127.333.151.685.525.685Z"/>
</svg>
