<?xml version="1.0" encoding="UTF-8"?>
<svg xmlns="http://www.w3.org/2000/svg" id="Layer_1" data-name="Layer 1" viewBox="0 0 24 24">
  <path d="m12.6,17.6v1.801h1.601c.442,0,.8.358.8.8s-.358.8-.8.8h-1.601v2.2c0,.442-.358.8-.8.8s-.8-.358-.8-.8v-6.4c0-.442.358-.8.8-.8h2.4c.442,0,.8.358.8.8s-.358.8-.8.8h-1.601Zm10.201-1.6h0c-.442,0-.8.358-.8.8v6.4c0,.442.358.8.8.8h0c.442,0,.8-.358.8-.8v-6.4c0-.442-.358-.8-.8-.8Zm-2.967,4.544c.024-.014.753,2.423.753,2.423.156.514-.228,1.033-.765,1.033h-.064c-.356,0-.669-.235-.768-.576l-.705-2.424h-.784v2.2c0,.442-.358.8-.8.8h0c-.442,0-.8-.358-.8-.8v-6.4c0-.442.358-.8.8-.8h1.567c1.284,0,2.456.908,2.613,2.182.121.976-.324,1.854-1.047,2.362Zm-.533-2.044c0-.496-.404-.9-.9-.9h-.9v1.8h.9c.496,0,.9-.404.9-.9Zm-.8-16.5h-.5v-.5c0-.828-.671-1.5-1.5-1.5s-1.5.672-1.5,1.5v.5h-6v-.5c0-.828-.671-1.5-1.5-1.5s-1.5.672-1.5,1.5v.5h-.5C2.467,2,0,4.468,0,7.5v11c0,3.032,2.467,5.5,5.5,5.5h2c.829,0,1.5-.672,1.5-1.5s-.671-1.5-1.5-1.5h-2c-1.378,0-2.5-1.121-2.5-2.5v-9.5h18v3.5c0,.828.671,1.5,1.5,1.5s1.5-.672,1.5-1.5v-5c0-3.032-2.467-5.5-5.5-5.5Z"/>
</svg>
