<?xml version="1.0" encoding="UTF-8"?>
<svg xmlns="http://www.w3.org/2000/svg" id="Layer_1" data-name="Layer 1" viewBox="0 0 24 24">
  <path d="m11,15c0,2.099-.508,4.156-.53,4.242-.114.455-.521.758-.969.758-.08,0-.162-.01-.243-.03-.536-.134-.862-.676-.729-1.212.003-.012.193-.786.331-1.825-.476.185-1.021-.02-1.254-.485-.248-.493-.048-1.094.446-1.342.332-.166.962-.534,1.241-.812.286-.286.714-.374,1.09-.217.374.154.617.52.617.924ZM20,0h-10c-2.038,0-4,1.564-4,4v1.5c0,2,1.179,1.27,1.63.884.598-.512,1.476-.512,2.074,0,.451.386,1.016.616,1.63.616s1.179-.23,1.63-.616c.598-.512,1.476-.512,2.074,0,.451.386,1.016.616,1.63.616s1.179-.23,1.63-.616c.598-.512,1.476-.512,2.074,0,.19.163.404.29.63.392v10.895c0,.635-.402,1.203-1,1.415-.781.276-1.19,1.133-.914,1.914.218.616.796,1,1.414,1,.166,0,.335-.027.5-.086,1.794-.635,3-2.34,3-4.243V4c0-2.385-1.894-4-4-4Zm-2.002,10.926v.012c.002,4.727-.992,8.661-1.584,10.592-.453,1.478-1.797,2.471-3.346,2.471H3.186c-.98,0-1.891-.44-2.498-1.209-.61-.772-.829-1.767-.6-2.728.138-.58.332-1.246.546-1.98.59-2.021,1.326-4.535,1.362-7.104.006-.425.192-.827.511-1.106l.143-.125c1.169-1,2.862-1.001,4.028-.002.136.116.359.255.654.255s.518-.139.653-.255c1.167-.999,2.86-.999,4.026,0,.136.116.359.255.654.255s.518-.139.654-.255c1.167-.999,2.86-.999,4.026,0,.358.27.633.733.652,1.181Zm-3.024,1.331c-1.461,1.035-3.541.945-4.913-.233-.036-.031-.085-.031-.123,0-1.399,1.201-3.531,1.268-4.997.171-.197,2.52-.871,4.827-1.427,6.73-.198.68-.379,1.297-.508,1.834-.015.065-.003.123.036.173.054.068.121.068.143.068h9.882c.222,0,.414-.141.478-.351.489-1.594,1.276-4.677,1.428-8.393Z"/>
</svg>
