<?xml version="1.0" encoding="UTF-8"?>
<svg xmlns="http://www.w3.org/2000/svg" id="Layer_1" data-name="Layer 1" viewBox="0 0 24 24">
  <path d="m24,13.5v5c0,3.033-2.468,5.5-5.5,5.5H5.5c-3.032,0-5.5-2.467-5.5-5.5v-5c0-.829.672-1.5,1.5-1.5s1.5.671,1.5,1.5v5c0,1.378,1.121,2.5,2.5,2.5h13c1.379,0,2.5-1.122,2.5-2.5v-5c0-.829.672-1.5,1.5-1.5s1.5.671,1.5,1.5ZM5.109,7.791c.574.643.891,1.471.891,2.333v4.876h-1.223c-.776,0-1.165.939-.616,1.488l2.757,2.757c.34.34.892.34,1.232,0l2.757-2.757c.549-.549.16-1.488-.616-1.488h-1.291v-4.876c0-1.599-.587-3.137-1.653-4.331L2.618.5C2.067-.116,1.119-.171.501.381-.117.934-.171,1.882.382,2.5l4.728,5.292Zm10.808,11.454c.34.34.892.34,1.232,0l2.757-2.757c.549-.549.16-1.488-.616-1.488h-1.291v-4.877c0-.861.316-1.689.89-2.332l4.729-5.292c.553-.618.499-1.566-.119-2.118-.618-.553-1.566-.498-2.117.119l-4.729,5.292c-1.065,1.193-1.652,2.731-1.652,4.33v4.877h-1.223c-.776,0-1.165.939-.616,1.488l2.757,2.757Z"/>
</svg>
