<?xml version="1.0" encoding="UTF-8"?>
<svg xmlns="http://www.w3.org/2000/svg" id="Layer_1" data-name="Layer 1" viewBox="0 0 24 24">
  <path d="M23.092,4.094l-2.658,2.658c-.529,.529-1.434,.154-1.434-.594v-1.158h-7c-3.86,0-7,3.14-7,7,0,.703,.104,1.396,.308,2.06,.243,.792-.202,1.631-.994,1.874-.146,.045-.295,.066-.441,.066-.642,0-1.235-.414-1.434-1.06-.292-.95-.439-1.939-.439-2.94C2,6.486,6.486,2,12,2h7V.842c0-.749,.905-1.123,1.434-.594l2.658,2.658c.328,.328,.328,.86,0,1.188Zm-3.406,3.972c-.792,.243-1.237,1.083-.994,1.875,.204,.665,.308,1.357,.308,2.06,0,3.859-3.14,7-7,7H5v-1.158c0-.749-.905-1.123-1.434-.594l-2.658,2.658c-.328,.328-.328,.86,0,1.188l2.658,2.658c.529,.529,1.434,.154,1.434-.594v-1.158h7c5.514,0,10-4.486,10-10,0-1.001-.148-1.99-.439-2.94-.244-.791-1.079-1.237-1.875-.994Zm-11.386,4.334c-.442,0-.8,.358-.8,.8s.358,.8,.8,.8h.418c.444,1.55,1.803,2.731,3.482,2.797,1.303,.051,2.461-.562,3.179-1.525,.391-.525,.014-1.272-.641-1.272-.246,0-.483,.109-.629,.307-.422,.571-1.109,.933-1.882,.89-.796-.044-1.459-.527-1.809-1.197h1.282c.442,0,.8-.358,.8-.8s-.358-.8-.8-.8h-1.549v-.8h1.549c.442,0,.8-.358,.8-.8s-.358-.8-.8-.8h-1.282c.349-.67,1.012-1.152,1.809-1.197,.773-.043,1.459,.319,1.882,.89,.607,.819,1.9-.146,1.27-.965-.717-.963-1.875-1.576-3.178-1.525-1.679,.065-3.038,1.247-3.482,2.797h-.418c-.442,0-.8,.358-.8,.8s.358,.8,.8,.8h.251v.8h-.251Z"/>
</svg>
