<?xml version="1.0" encoding="UTF-8"?>
<svg xmlns="http://www.w3.org/2000/svg" id="Layer_1" data-name="Layer 1" viewBox="0 0 24 24">
  <path d="M20,2c0-1.105,.895-2,2-2s2,.895,2,2-.895,2-2,2-2-.895-2-2ZM2,4c1.105,0,2-.895,2-2S3.105,0,2,0,0,.895,0,2s.895,2,2,2ZM22,20c-1.105,0-2,.895-2,2s.895,2,2,2,2-.895,2-2-.895-2-2-2Zm-20,0c-1.105,0-2,.895-2,2s.895,2,2,2,2-.895,2-2-.895-2-2-2Zm10-2c-3.309,0-6-2.691-6-6s2.691-6,6-6,6,2.691,6,6-2.691,6-6,6Zm2.174-9.349c.208,.714,.34,1.523,.398,2.349h1.286c-.254-.978-.859-1.812-1.684-2.349Zm-1.205,4.349h-1.937c.121,1.572,.564,3,.968,3s.848-1.434,.969-3Zm0-2c-.121-1.572-.603-3-.968-3s-.848,1.434-.969,3h1.937Zm-4.826,0h1.286c.058-.826,.19-1.635,.398-2.349-.825,.537-1.43,1.372-1.684,2.349Zm1.684,4.349c-.208-.714-.34-1.523-.398-2.349h-1.286c.254,.978,.859,1.812,1.684,2.349Zm6.032-2.349h-1.286c-.058,.826-.19,1.635-.398,2.349,.825-.537,1.43-1.372,1.684-2.349Zm6.642-7h-1.5l-3-3V1.5c0-.828-.672-1.5-1.5-1.5s-1.5,.672-1.5,1.5v1.849c0,.727,.405,1.378,1.032,1.745,1.187,.695,2.178,1.686,2.873,2.873,.367,.627,1.018,1.032,1.745,1.032h1.849c.828,0,1.5-.672,1.5-1.5s-.672-1.5-1.5-1.5ZM1.5,9h1.849c.727,0,1.378-.405,1.745-1.032,.694-1.187,1.686-2.178,2.873-2.873,.627-.367,1.032-1.018,1.032-1.745V1.5c0-.828-.672-1.5-1.5-1.5s-1.5,.672-1.5,1.5v1.5l-3,3H1.5c-.828,0-1.5,.672-1.5,1.5s.672,1.5,1.5,1.5Zm6.468,9.905c-1.187-.694-2.178-1.686-2.873-2.873-.367-.627-1.018-1.032-1.745-1.032H1.5c-.828,0-1.5,.672-1.5,1.5s.672,1.5,1.5,1.5h1.5l3,3v1.5c0,.828,.672,1.5,1.5,1.5s1.5-.672,1.5-1.5v-1.849c0-.727-.405-1.378-1.032-1.745Zm14.532-3.905h-1.849c-.727,0-1.378,.405-1.745,1.032-.695,1.187-1.686,2.178-2.873,2.873-.627,.367-1.032,1.018-1.032,1.745v1.849c0,.828,.672,1.5,1.5,1.5s1.5-.672,1.5-1.5v-1.5l3-3h1.5c.828,0,1.5-.672,1.5-1.5s-.672-1.5-1.5-1.5Z"/>
</svg>
