<?xml version="1.0" encoding="UTF-8"?>
<svg xmlns="http://www.w3.org/2000/svg" id="Layer_1" data-name="Layer 1" viewBox="0 0 24 24">
  <path d="m23,15.779v-2.279c0-2.481-2.019-4.5-4.5-4.5s-4.5,2.019-4.5,4.5v2.279c-.61.549-1,1.336-1,2.221v3c0,1.657,1.343,3,3,3h5c1.657,0,3-1.343,3-3v-3c0-.885-.39-1.672-1-2.221Zm-4.5-3.779c.827,0,1.5.673,1.5,1.5v1.5h-3v-1.5c0-.827.673-1.5,1.5-1.5Zm0,9c-.828,0-1.5-.672-1.5-1.5s.672-1.5,1.5-1.5,1.5.672,1.5,1.5-.672,1.5-1.5,1.5Zm-7.5-4.5c0,.829-.671,1.5-1.5,1.5h-1.198l-.557,4.677c-.09.762-.738,1.323-1.487,1.323-.059,0-.119-.003-.179-.011-.823-.098-1.41-.844-1.312-1.667l.515-4.323H1.5c-.829,0-1.5-.671-1.5-1.5s.671-1.5,1.5-1.5h4.139l.714-6H1.5c-.829,0-1.5-.671-1.5-1.5s.671-1.5,1.5-1.5h5.21l.557-4.677c.097-.823.844-1.416,1.667-1.312.823.098,1.41.844,1.312,1.667l-.515,4.323h5.877l.557-4.677c.097-.823.843-1.416,1.667-1.312.823.098,1.41.844,1.312,1.667l-.515,4.323h3.872c.829,0,1.5.671,1.5,1.5,0,.626-.384,1.161-.928,1.386-1.175-1.165-2.791-1.886-4.572-1.886-1.607,0-3.077.589-4.212,1.559-.346.295-.794.441-1.248.441h-3.666l-.714,6h.84c.829,0,1.5.671,1.5,1.5Z"/>
</svg>
