<?xml version="1.0" encoding="UTF-8"?>
<svg xmlns="http://www.w3.org/2000/svg" id="Layer_1" data-name="Layer 1" viewBox="0 0 24 24">
  <path d="m24,12.5v6c0,3.032-2.467,5.5-5.5,5.5H5.5c-3.033,0-5.5-2.468-5.5-5.5v-10C0,5.468,2.467,3,5.5,3h5c.829,0,1.5.672,1.5,1.5s-.671,1.5-1.5,1.5h-5c-.92,0-1.717.505-2.151,1.248l7.025,7.081c.861.861,2.386.866,3.258-.005l2.228-2.228c.339-.339.816-.492,1.29-.413.014.002.028.005.042.007,1.189.194,1.659,1.658.807,2.509l-2.098,2.098c-.871.871-1.985,1.505-3.208,1.659-1.67.21-3.281-.346-4.446-1.511l-5.247-5.299v7.353c0,1.379,1.122,2.5,2.5,2.5h13c1.378,0,2.5-1.121,2.5-2.5v-6c0-.828.671-1.5,1.5-1.5s1.5.672,1.5,1.5Zm-10-7.5c0-2.761,2.239-5,5-5s5,2.239,5,5-2.239,5-5,5-5-2.239-5-5Zm4,0c0,.265.105.52.293.707l1.293,1.293c.391.39,1.024.39,1.414,0,.391-.391.391-1.024,0-1.414l-1-1v-1.586c0-.552-.448-1-1-1h0c-.552,0-1,.448-1,1v2Z"/>
</svg>
