<?xml version="1.0" encoding="UTF-8"?>
<svg xmlns="http://www.w3.org/2000/svg" id="Layer_1" data-name="Layer 1" viewBox="0 0 24 24">
  <path d="m8.932,8c0-1.654,1.346-3,3-3s3,1.346,3,3-1.346,3-3,3-3-1.346-3-3Zm-6.932,7c0,1.654,1.346,3,3,3s3-1.346,3-3-1.346-3-3-3-3,1.346-3,3Zm2.998,4c-2.052,0-3.844,1.244-4.812,3.096-.44.842.09,1.904.96,1.904h7.735c.873,0,1.403-1.069.957-1.911-.981-1.848-2.79-3.089-4.84-3.089Zm11.002-4c0,1.654,1.346,3,3,3s3-1.346,3-3-1.346-3-3-3-3,1.346-3,3Zm7.838,7.089c-.981-1.848-2.79-3.089-4.84-3.089s-3.844,1.244-4.812,3.096c-.44.842.09,1.904.96,1.904h7.735c.873,0,1.403-1.069.957-1.911Zm-4.99-13.373c.378.378.991.378,1.369,0l3.063-3.063c.61-.61.178-1.653-.685-1.653h-1.597V1.5c0-.828-.672-1.5-1.5-1.5s-1.5.672-1.5,1.5v2.5h-1.53c-.863,0-1.295,1.043-.685,1.653l3.063,3.063Zm-15,0c.378.378.991.378,1.369,0l3.063-3.063c.61-.61.178-1.653-.685-1.653h-1.597V1.5c0-.828-.672-1.5-1.5-1.5s-1.5.672-1.5,1.5v2.5h-1.53c-.863,0-1.295,1.043-.685,1.653l3.063,3.063Zm8.151,3.284c-.932,0-1.8.275-2.57.73.352.684.57,1.448.57,2.27,0,.712-.154,1.386-.424,2h4.848c-.269-.614-.424-1.288-.424-2,0-.823.219-1.589.573-2.274-.774-.453-1.644-.726-2.573-.726Z"/>
</svg>
