<?xml version="1.0" encoding="UTF-8"?>
<svg xmlns="http://www.w3.org/2000/svg" id="Layer_1" data-name="Layer 1" viewBox="0 0 24 24">
  <path d="m23.244,14.759c-.52-.546-1.246-.824-2.001-.748-3.686.344-6.137,1.766-7.762,3.327v-3.498c3.154-.68,5.519-3.482,5.519-6.839,0-3.866-3.134-7-7-7s-7,3.134-7,7c0,3.344,2.346,6.135,5.481,6.829v3.509c-1.625-1.56-4.076-2.983-7.763-3.327-.758-.076-1.481.202-2,.747-.545.573-.803,1.396-.688,2.203.811,5.673,6.569,7.039,10.533,7.039h2.949c3.964,0,9.607-1.366,10.418-7.038.115-.807-.141-1.63-.687-2.203Zm-20.137,2.318c3.682.534,5.605,2.468,6.562,3.956-2.319-.137-5.772-.872-6.562-3.956Zm9.972-6.277h-.28v.4c0,.442-.358.8-.8.8s-.8-.358-.8-.8v-.4h-.431c-.711,0-1.348-.325-1.77-.833-.418-.504-.063-1.266.592-1.266.227,0,.51.107.664.274.128.139.312.226.515.226h2.334c.278,0,.532-.187.586-.46.063-.318-.146-.615-.451-.677l-2.791-.559c-1.112-.223-1.888-1.281-1.725-2.439.152-1.08,1.108-1.866,2.199-1.866h.28v-.4c0-.442.358-.8.8-.8s.8.358.8.8v.4h.405c.711,0,1.348.324,1.77.833.418.504.063,1.266-.592,1.266-.227,0-.51-.107-.664-.274-.128-.139-.312-.226-.515-.226h-2.307c-.278,0-.532.186-.587.458-.064.318.146.617.449.678l2.792.559c1.112.222,1.889,1.282,1.725,2.439-.153,1.08-1.108,1.865-2.199,1.865Zm1.217,10.233c.958-1.485,2.884-3.423,6.558-3.956-.789,3.084-4.238,3.819-6.558,3.956Z"/>
</svg>
