<?xml version="1.0" encoding="UTF-8"?>
<svg xmlns="http://www.w3.org/2000/svg" id="Layer_1" data-name="Layer 1" viewBox="0 0 24 24">
  <path d="M23.858,14.865l-2.108-4.51c-.174-.658-.432-1.284-.769-1.858l1.198-1.407c.637-.747,.91-1.692,.771-2.661-.144-.999-.721-1.896-1.584-2.462C19.216,.558,16.678-.133,14.216,.025,7.822,.433,3,5.723,3,12.329v4.854c0,.145-.007,.288-.021,.432-.061,.63-.35,1.056-1.009,1.787,0,0-1.381,1.107-1.435,1.166-.547,.6-.688,1.467-.36,2.209,.327,.743,1.064,1.223,1.876,1.223h3.011c2.041,0,3.938-1.101,4.949-2.872,.646-1.132,.988-2.418,.988-3.722v-5.406c0-1.125,.478-2.204,1.311-2.961,.844-.767,1.946-1.129,3.087-1.02,1.946,.186,3.47,1.914,3.581,3.981h-1.797c-.652,0-1.181,.529-1.181,1.181,0,.492,.305,.933,.767,1.106l2.313,.867,.844,5.845h-4.617l-1.023-2.569c-.278-.627-1.191-.553-1.364,.111l-.251,1.432c-.395,1.487-1.054,2.375-1.126,2.487-.431,.664,.054,1.539,.846,1.539h8.113c.716,0,1.399-.308,1.873-.845,.475-.537,.696-1.253,.604-1.993l-.603-4.18c.043,.004,.556-.027,.761-.124,.751-.351,1.075-1.243,.724-1.993ZM15.683,5.033c-1.972-.191-3.935,.463-5.391,1.787-1.456,1.324-2.292,3.213-2.292,5.181v5.406c0,.782-.205,1.554-.594,2.233-.479,.839-1.377,1.36-2.344,1.36h-.504c.699-.832,1.277-1.755,1.407-3.096,.023-.239,.034-.479,.034-.721v-4.854c0-5.002,3.614-9.004,8.407-9.31,1.78-.115,3.727,.417,5.315,1.458,.144,.094,.238,.232,.259,.379,.016,.109-.012,.203-.085,.289l-.952,1.118c-.947-.675-2.061-1.115-3.262-1.23Z"/>
</svg>
