<?xml version="1.0" encoding="UTF-8"?>
<svg xmlns="http://www.w3.org/2000/svg" id="Layer_1" data-name="Layer 1" viewBox="0 0 24 24">
  <path d="m3,19.5c0,.828-.672,1.5-1.5,1.5s-1.5-.672-1.5-1.5.672-1.5,1.5-1.5,1.5.672,1.5,1.5Zm3.5,1.5c-.828,0-1.5.672-1.5,1.5s.672,1.5,1.5,1.5,1.5-.672,1.5-1.5-.672-1.5-1.5-1.5Zm11,0c-.828,0-1.5.672-1.5,1.5s.672,1.5,1.5,1.5,1.5-.672,1.5-1.5-.672-1.5-1.5-1.5Zm-5.5-3c-.828,0-1.5.672-1.5,1.5s.672,1.5,1.5,1.5,1.5-.672,1.5-1.5-.672-1.5-1.5-1.5Zm10.5,0c-.828,0-1.5.672-1.5,1.5s.672,1.5,1.5,1.5,1.5-.672,1.5-1.5-.672-1.5-1.5-1.5Zm-13.5-10c0,1.657,1.343,3,3,3s3-1.343,3-3-1.343-3-3-3-3,1.343-3,3Zm-7.271,1.982c2.456-.38,4.632-1.975,5.833-4.289.866-1.662,2.566-2.693,4.438-2.693s3.572,1.032,4.448,2.714c1.19,2.293,3.367,3.888,5.823,4.268.078.012.155.018.231.018.727,0,1.366-.53,1.48-1.271.126-.818-.435-1.585-1.253-1.711-1.514-.234-2.867-1.238-3.631-2.711C17.713,1.65,14.994,0,12,0s-5.713,1.65-7.111,4.333c-.751,1.447-2.104,2.451-3.618,2.685-.819.126-1.38.893-1.253,1.711.127.819.896,1.383,1.711,1.253Zm22.068,4.604c.416-.717.172-1.634-.544-2.05-1.528-.887-3.571-.752-5.049.298-.13.093-.278.092-.407,0-1.639-1.165-3.956-1.165-5.593,0-.13.093-.278.092-.407,0-1.639-1.165-3.956-1.165-5.593,0-.13.093-.278.092-.407,0-1.479-1.052-3.52-1.186-5.05-.298-.716.416-.96,1.333-.544,2.05.416.716,1.333.958,2.05.545.537-.312,1.263-.237,1.806.148,1.161.824,2.721.824,3.882,0,.623-.443,1.494-.443,2.118,0,1.161.824,2.721.824,3.882,0,.623-.443,1.494-.443,2.118,0,.581.412,1.26.619,1.941.618.68,0,1.361-.206,1.941-.618.542-.386,1.268-.461,1.806-.148.716.414,1.634.171,2.05-.545Z"/>
</svg>
