<?xml version="1.0" encoding="UTF-8"?>
<svg xmlns="http://www.w3.org/2000/svg" id="Layer_1" data-name="Layer 1" viewBox="0 0 24 24">
  <path d="m10,11v1c0,.552-.448,1-1,1h-3c-.552,0-1-.448-1-1v-1c0-.552.448-1,1-1h3c.552,0,1,.448,1,1Zm-4,3c-.552,0-1,.448-1,1s.448,1,1,1,1-.448,1-1-.448-1-1-1Zm3,0c-.552,0-1,.448-1,1s.448,1,1,1,1-.448,1-1-.448-1-1-1Zm-3,3c-.552,0-1,.448-1,1s.448,1,1,1,1-.448,1-1-.448-1-1-1Zm3,0c-.552,0-1,.448-1,1s.448,1,1,1,1-.448,1-1-.448-1-1-1Zm15-10.25l-.004,9.252c0,.52-.27,1.002-.712,1.275-.241.148-.515.224-.788.224-.229,0-.46-.053-.672-.159l-2.217-1.11-.775.517c-.689.46-1.62.273-2.08-.416s-.273-1.62.416-2.08l1.5-1c.448-.299,1.023-.334,1.504-.093l.825.413.003-6.823c0-2.066-1.683-3.749-3.75-3.749-1.884,0-3.433,1.402-3.696,3.215.884.822,1.446,1.985,1.446,3.285v10c0,2.481-2.019,4.5-4.5,4.5h-6c-2.481,0-4.5-2.019-4.5-4.5v-10c0-1.325.586-2.505,1.5-3.33v-.67C1.5,2.468,3.968,0,7,0h10c.029,0,.055.007.084.008.056-.001.11-.008.166-.008,3.722,0,6.75,3.028,6.75,6.75Zm-12,2.75c0-.827-.673-1.5-1.5-1.5h-6c-.827,0-1.5.673-1.5,1.5v10c0,.827.673,1.5,1.5,1.5h6c.827,0,1.5-.673,1.5-1.5v-10Zm-1.268-4.477c.193-.729.5-1.413.909-2.023h-4.641c-1.208,0-2.217.86-2.449,2h5.949c.08,0,.154.019.232.023Z"/>
</svg>
