<?xml version="1.0" encoding="UTF-8"?>
<svg xmlns="http://www.w3.org/2000/svg" id="Layer_1" data-name="Layer 1" viewBox="0 0 24 24">
  <path d="m23.568,13.916c-.229.796-1.064,1.256-1.857,1.025-.796-.229-1.255-1.062-1.025-1.857.398-1.381.408-2.796.029-4.206-.794-2.948-3.36-5.265-6.385-5.765-3.007-.491-5.999.701-7.811,3.122-.995,1.229-2.688,4.293-3.303,5.765h.39c.756,0,1.394.562,1.488,1.312l.315,2.501c.157,1.246,1.224,2.187,2.48,2.187h.609c.828,0,1.5.672,1.5,1.5v1c0,.275.225.5.5.5h7c.828,0,1.5.672,1.5,1.5s-.672,1.5-1.5,1.5h-7c-1.784,0-3.26-1.341-3.474-3.068-2.377-.378-4.284-2.291-4.593-4.743l-.15-1.193c-1.484-.087-2.283-1.303-2.283-2.449,0-1.663,3.135-6.896,4.152-8.153C6.604,1.116,10.705-.518,14.818.153c4.23.699,7.682,3.817,8.793,7.945.523,1.946.509,3.903-.043,5.817Zm-2.008,3.523c.586.586.586,1.535,0,2.121-.293.293-.677.439-1.061.439s-.768-.146-1.061-.439l-3.398-3.398c-.893.528-1.931.837-3.042.837-3.309,0-6-2.691-6-6s2.691-6,6-6,6,2.691,6,6c0,1.111-.309,2.148-.837,3.042l3.398,3.398Zm-8.561-3.439c1.654,0,3-1.346,3-3s-1.346-3-3-3-3,1.346-3,3,1.346,3,3,3Z"/>
</svg>
