<?xml version="1.0" encoding="UTF-8"?>
<svg xmlns="http://www.w3.org/2000/svg" id="Layer_1" data-name="Layer 1" viewBox="0 0 24 24">
  <path d="m21.157,18.892c.586.586.586,1.535,0,2.121-.293.293-.677.439-1.061.439s-.768-.146-1.061-.439l-.444-.444-3.038,2.999c-.292.289-.673.433-1.054.433-.387,0-.774-.148-1.067-.446-.582-.59-.576-1.539.014-2.121l3.024-2.986-.434-.434c-.586-.586-.586-1.535,0-2.121s1.535-.586,2.121,0l3,3ZM17.25,0C11.152,0,6,4.579,6,10c0,3.309,2.691,6,6,6s6-2.691,6-6c0-1.34-.396-2.756-1.179-4.211-.394-.729-1.302-1.001-2.032-.61-.729.393-1.003,1.303-.61,2.032.545,1.013.821,1.951.821,2.789,0,1.654-1.346,3-3,3s-3-1.346-3-3c0-3.794,3.778-7,8.25-7,2.348,0,3.75,1.683,3.75,4.5,0,1.507-.256,4.525-1.214,6.281-.397.728-.129,1.639.598,2.035.229.125.475.184.718.184.53,0,1.045-.282,1.317-.781,1.505-2.757,1.581-6.913,1.581-7.719,0-5.181-3.391-7.5-6.75-7.5ZM3.616,15.816c.727-.396.995-1.308.598-2.035-.958-1.756-1.214-4.774-1.214-6.281,0-2.767,1.298-4.405,3.561-4.496.828-.033,1.472-.731,1.438-1.56C7.965.617,7.268-.024,6.439.006,2.527.164,0,3.105,0,7.5c0,.806.076,4.962,1.581,7.719.272.499.786.781,1.317.781.243,0,.489-.059.718-.184Zm3.913,2.631l.434-.434c.586-.586.586-1.535,0-2.121s-1.535-.586-2.121,0l-3,3c-.586.586-.586,1.535,0,2.121.293.293.677.439,1.061.439s.768-.146,1.061-.439l.444-.444,3.038,2.999c.292.289.673.433,1.054.433.387,0,.774-.149,1.067-.446.582-.59.576-1.539-.014-2.121l-3.024-2.986Z"/>
</svg>
