<?xml version="1.0" encoding="UTF-8"?>
<svg xmlns="http://www.w3.org/2000/svg" id="Layer_1" data-name="Layer 1" viewBox="0 0 24 24">
  <path d="m12.621,17.46l-2,2.243c-.406.497-1.02.783-1.67.758-.604-.021-1.159-.298-1.536-.762l-1.539-1.745c-.028-.031-.055-.064-.079-.098-.535.32-.954.677-1.305,1.087-.876,1.028-1.407,2.326-1.494,3.655-.053.793-.712,1.401-1.495,1.401-.827-.055-1.554-.772-1.499-1.599.13-1.969.913-3.888,2.206-5.404.598-.701,1.314-1.297,2.132-1.772,1.363-.793,2.859-.483,3.825.792l.856.971,1.357-1.523c.551-.617,1.498-.675,2.118-.122.618.552.673,1.5.122,2.118ZM2.176,12.753c.25.165.537.247.824.247.29,0,.58-.084.832-.252.734-.489,1.589-.748,2.471-.748,0,0,3.159.026,3.385,0,.823-.095,1.414-.878,1.319-1.7-.095-.824-.853-1.413-1.661-1.319-.114.013-.229.02-.346.02-1.654,0-3-1.346-3-3,0,0,0-.002,0-.002,1.896-.054,3.696-.959,4.871-2.445.794.504,1.383,1.312,1.566,2.284.026.144.267,1.501.51,2.885.144.816.92,1.366,1.737,1.218.815-.144,1.361-.921,1.218-1.737-.245-1.394-.487-2.763-.516-2.914-.579-3.064-3.265-5.288-6.387-5.288C5.921,0,3.243,2.188,2.631,5.198c-.067.33-1,5.45-1.106,6.033-.108.592.148,1.191.651,1.521Zm21.599,9.932c-.38.812-1.159,1.315-2.033,1.315h-7.48c-.874,0-1.653-.504-2.033-1.315-.392-.839-.266-1.837.323-2.542l3.45-4.132v-3.011c-.552,0-1-.448-1-1s.448-1,1-1h4c.552,0,1,.448,1,1s-.448,1-1,1v3.011l3.45,4.133c.589.704.715,1.702.323,2.541Zm-3.516-1.685l-2.258-2.704-2.258,2.704h4.516Z"/>
</svg>
