<?xml version="1.0" encoding="UTF-8"?>
<svg xmlns="http://www.w3.org/2000/svg" id="Layer_1" data-name="Layer 1" viewBox="0 0 24 24">
  <path d="m23.969,20.311l-.965-3.329c-.192-.663-1.09-.762-1.423-.158l-.521.947-2.06-1.092v-4.223c0-1.252-.676-2.416-1.764-3.039l-3.736-2.135v-2.283h.951c.69,0,1.036-.834.548-1.323l-2.451-2.451c-.303-.302-.793-.302-1.096,0l-2.451,2.451c-.488.488-.142,1.323.548,1.323h.951v2.283l-3.737,2.136c-1.087.622-1.763,1.786-1.763,3.038v4.223l-2.06,1.092-.521-.947c-.333-.605-1.231-.505-1.423.158L.031,20.311c-.119.411.117.841.528.96l3.329.965c.663.192,1.227-.513.894-1.118l-.396-.719,2.086-1.106,3.791,2.167c.535.306,1.136.459,1.736.459s1.201-.153,1.736-.459l3.791-2.167,2.086,1.106-.396.719c-.333.605.232,1.31.894,1.118l3.329-.965c.411-.119.647-.549.528-.96Zm-11.969-10.43l2.852,1.63-2.852,1.631-2.852-1.631,2.852-1.63Zm-1,8.545l-3-1.714v-3.554l3,1.714v3.554Zm5-1.714l-3,1.714v-3.554l3-1.714v3.554Z"/>
</svg>
