<?xml version="1.0" encoding="UTF-8"?>
<svg xmlns="http://www.w3.org/2000/svg" id="Layer_1" data-name="Layer 1" viewBox="0 0 24 24">
  <path d="M16,13c1.654,0,3,1.346,3,3s-1.346,3-3,3-3-1.346-3-3,1.346-3,3-3Zm3.082-4.385c-.763-.318-1.643,.042-1.962,.806-.319,.764,.041,1.643,.806,1.962,1.867,.78,3.074,2.592,3.074,4.616,0,2.757-2.243,5-5,5H8c-2.757,0-5-2.243-5-5,0-2.024,1.207-3.836,3.074-4.616,.765-.32,1.125-1.198,.806-1.962-.32-.765-1.198-1.123-1.962-.806C1.93,9.864,0,12.762,0,16c0,4.411,3.589,8,8,8h8c4.411,0,8-3.589,8-8,0-3.238-1.931-6.136-4.918-7.385ZM6.957,5C6.957,2.239,9.196,0,11.957,0s5,2.239,5,5-2.239,5-5,5-5-2.239-5-5Zm2.048,.173c.085,1.508,1.313,2.734,2.821,2.822,.389,.023,.76-.031,1.104-.146,.359-.12,.359-.621,.006-.755-.368-.14-.707-.381-.973-.727-.615-.799-.615-1.935,0-2.733,.266-.346,.605-.587,.973-.727,.357-.136,.349-.638-.013-.758-.29-.096-.599-.148-.922-.148-1.714,0-3.093,1.438-2.995,3.173Z"/>
</svg>
