<?xml version="1.0" encoding="UTF-8"?>
<svg xmlns="http://www.w3.org/2000/svg" id="Layer_1" data-name="Layer 1" viewBox="0 0 24 24">
  <path d="m15.874,15.089c-.67.931-2.059,1.911-3.868,1.911s-3.208-.98-3.88-1.911c-.335-.465.037-1.089.641-1.089,1.658,0,4.807,0,6.465,0,.604,0,.976.623.641,1.089Zm8.126-4.089c0,6.439-6.056,13-12,13S0,17.439,0,11C0,4.626,5.047,0,12,0s12,4.626,12,11Zm-3.369,2.403l-1.732-.757c-.532-.266-.532-1.026,0-1.292l2.073-.921c-.18-2.76-1.662-4.976-3.998-6.248l-1.849,2.146c-.439.384-1.125.072-1.125-.511v-2.65c-.637-.109-1.303-.17-2-.17s-1.363.06-2,.17v2.65c0,.583-.686.895-1.125.511l-1.849-2.146c-2.336,1.272-3.818,3.488-3.998,6.248l2.073.921c.532.266.532,1.026,0,1.292l-1.732.757c.62,2.114,1.981,4.036,3.611,5.42l.945-1.137c.397-.397,1.075-.116,1.075.445v2.06c1.008.515,2.038.809,3,.809s1.992-.294,3-.809v-2.06c0-.561.678-.842,1.075-.445l.945,1.137c1.63-1.384,2.991-3.306,3.611-5.42Zm-9.631-3.403c0-1.105-1.119-2-2.5-2s-2.5.895-2.5,2,1.119,2,2.5,2,2.5-.895,2.5-2Zm4.5-2c-1.381,0-2.5.895-2.5,2s1.119,2,2.5,2,2.5-.895,2.5-2-1.119-2-2.5-2Z"/>
</svg>
