<?xml version="1.0" encoding="UTF-8"?>
<svg xmlns="http://www.w3.org/2000/svg" id="Layer_1" data-name="Layer 1" viewBox="0 0 24 24">
  <path d="M24,14.5c0-.669-.441-1.23-1.047-1.423-.425-5.086-4.322-9.188-9.31-9.941,.224-.323,.357-.714,.357-1.137,0-1.105-.895-2-2-2s-2,.895-2,2c0,.423,.133,.814,.357,1.137C5.369,3.889,1.472,7.991,1.047,13.077c-.605,.193-1.047,.754-1.047,1.423,0,.828,.671,1.5,1.5,1.5H3.99c-.825,.972-1.445,2.135-1.771,3.438l-.674,2.697c-.201,.804,.288,1.618,1.091,1.819,.783,.202,1.621-.282,1.819-1.091l.674-2.697c.614-2.453,2.808-4.167,5.336-4.167h1.836c.385,0,.698,.313,.698,.698,0,.331-.236,.619-.561,.685l-3.233,.646c-.812,.162-1.339,.952-1.177,1.765,.162,.812,.951,1.344,1.765,1.177l3.234-.646c.761-.153,1.42-.544,1.929-1.075,.033-.025,3.371-2.99,3.371-2.99,.394-.357,1.053-.327,1.411,.068,.367,.384,.337,1.06-.059,1.405l-4.084,3.649c-.618,.552-.671,1.5-.119,2.117,.554,.62,1.503,.67,2.118,.119l4.093-3.657c.791-.718,1.255-1.701,1.306-2.769,.02-.424-.043-.837-.151-1.236,.662-.156,1.156-.747,1.156-1.457Zm-19.931-1.5c.495-3.94,3.859-7,7.931-7s7.436,3.06,7.931,7H4.069Z"/>
</svg>
