<?xml version="1.0" encoding="UTF-8"?>
<svg xmlns="http://www.w3.org/2000/svg" id="Layer_1" data-name="Layer 1" viewBox="0 0 24 24">
  <path d="M7,5.5c0-1.379,1.122-2.5,2.5-2.5h5c1.142,0,2.137,.771,2.421,1.874,.207,.802,1.021,1.29,1.827,1.078,.802-.206,1.285-1.024,1.079-1.826-.625-2.43-2.816-4.126-5.327-4.126h-5c-3.033,0-5.5,2.468-5.5,5.5v13.5c0,2.761,2.239,5,5,5h6c2.761,0,5-2.239,5-5v-1H7V5.5Zm3.999,14.508h2c.552,0,1,.448,1,1s-.448,1-1,1h-2c-.552,0-1-.448-1-1s.448-1,1-1Zm5.401-4.807v-1.2h-1.601c-.994,0-1.8-.806-1.8-1.8v-3.4c0-.442,.358-.8,.8-.8s.8,.358,.8,.8v3.4c0,.111,.09,.2,.2,.2h1.601v-3.601c0-.442,.358-.8,.8-.8s.8,.358,.8,.8v6.4c0,.442-.358,.8-.8,.8s-.8-.358-.8-.8Zm7.6-2.9v1.2c0,1.365-1.093,2.474-2.452,2.5-1.401,.027-2.548-1.154-2.548-2.556v-2.887c0-1.402,1.147-2.582,2.548-2.556,.933,.018,1.741,.547,2.155,1.318,.287,.534-.097,1.182-.703,1.182-.29,0-.567-.151-.699-.409-.158-.308-.488-.514-.863-.489-.478,.032-.838,.451-.838,.93v2.968c0,.517,.438,.933,.962,.898,.478-.032,.838-.451,.838-.93v-.368h-.1c-.442,0-.8-.358-.8-.8s.358-.8,.8-.8h.9c.442,0,.8,.358,.8,.8Z"/>
</svg>
