<?xml version="1.0" encoding="UTF-8"?>
<svg xmlns="http://www.w3.org/2000/svg" id="Layer_1" data-name="Layer 1" viewBox="0 0 24 24">
  <path d="m22.5,18h-.922l-.19-2h.612c.829,0,1.5-.671,1.5-1.5s-.671-1.5-1.5-1.5h-.898l-.19-2h.589c.829,0,1.5-.671,1.5-1.5s-.671-1.5-1.5-1.5h-.874l-.19-2h.565c.829,0,1.5-.671,1.5-1.5s-.671-1.5-1.5-1.5h-.85l-.156-1.642c-.079-.825-.817-1.436-1.635-1.351-.825.079-1.43.811-1.351,1.635l.129,1.358H6.864l.129-1.358C7.072.817,6.467.085,5.642.007c-.823-.082-1.557.526-1.635,1.351l-.156,1.642h-.85c-.829,0-1.5.671-1.5,1.5s.671,1.5,1.5,1.5h.565l-.19,2h-.874c-.829,0-1.5.671-1.5,1.5s.671,1.5,1.5,1.5h.589l-.19,2h-.898c-.829,0-1.5.671-1.5,1.5s.671,1.5,1.5,1.5h.612l-.19,2h-.922c-.829,0-1.5.671-1.5,1.5s.671,1.5,1.5,1.5h.636l-.129,1.358c-.079.825.532,1.642,1.495,1.642.764,0,1.417-.582,1.491-1.358l.156-1.642h13.701l.156,1.642c.074.776.724,1.351,1.635,1.351.825-.079,1.43-.811,1.351-1.635l-.129-1.358h.636c.829,0,1.5-.671,1.5-1.5s-.671-1.5-1.5-1.5ZM6.578,6h10.844l.19,2H6.388l.19-2Zm-.476,5h11.796l.19,2H5.911l.19-2Zm-.667,7l.19-2h12.749l.19,2H5.435Z"/>
</svg>
