<?xml version="1.0" encoding="UTF-8"?>
<svg xmlns="http://www.w3.org/2000/svg" id="Layer_1" data-name="Layer 1" viewBox="0 0 24 24">
  <path d="m13.5,12.5c0,.828-.672,1.5-1.5,1.5s-1.5-.672-1.5-1.5.672-1.5,1.5-1.5,1.5.672,1.5,1.5Zm10.5,3.095v3.405c0,2.757-2.243,5-5,5H5c-2.757,0-5-2.243-5-5v-3.405c0-1.754.847-3.417,2.266-4.448,0,0,.003-.002.005-.003l4.729-3.411v-3.142c0-1.116.538-2.173,1.44-2.83l1.5-1.091c1.232-.895,2.887-.895,4.117,0l1.502,1.092c.902.657,1.44,1.714,1.44,2.83v3.142l4.729,3.411c1.424,1.035,2.271,2.697,2.271,4.452Zm-19-2.721l-.972.701c-.644.469-1.028,1.224-1.028,2.021v3.405c0,1.103.897,2,2,2v-8.127Zm11-2.164l-1.377-.993c-.392-.282-.623-.735-.623-1.217v-3.909c0-.159-.077-.311-.206-.404l-1.5-1.091c-.174-.127-.412-.128-.59,0l-1.498,1.09c-.129.094-.206.245-.206.404v3.909c0,.482-.231.935-.623,1.217l-1.377.993v10.29h2v-3c0-1.105.895-2,2-2s2,.895,2,2v3h2v-10.29Zm5,4.885c0-.797-.385-1.553-1.029-2.021l-.971-.7v8.127c1.103,0,2-.897,2-2v-3.405Z"/>
</svg>
